<svg xmlns="http://www.w3.org/2000/svg" width="120" height="120" viewBox="0 0 120 120">
<defs><clipPath id="clip80"><rect width="80" height="80"/></clipPath><pattern id="pat_Cdm" patternUnits="userSpaceOnUse" width="80" height="80"><rect width="80" height="80" fill="white"/><polyline points="0 12.0,4 13.8,8 14.9,12 14.9,16 13.8,20 12.0,24 10.2,28 9.1,32 9.1,36 10.2,40 12.0,44 13.8,48 14.9,52 14.9,56 13.8,60 12.0,64 10.2,68 9.1,72 9.1,76 10.2,80 12.0" fill="none" stroke="#999" stroke-width="0.7"/><polyline points="0 34.0,4 35.8,8 36.9,12 36.9,16 35.8,20 34.0,24 32.2,28 31.1,32 31.1,36 32.2,40 34.0,44 35.8,48 36.9,52 36.9,56 35.8,60 34.0,64 32.2,68 31.1,72 31.1,76 32.2,80 34.0" fill="none" stroke="#999" stroke-width="0.7"/><polyline points="0 56.0,4 57.8,8 58.9,12 58.9,16 57.8,20 56.0,24 54.2,28 53.1,32 53.1,36 54.2,40 56.0,44 57.8,48 58.9,52 58.9,56 57.8,60 56.0,64 54.2,68 53.1,72 53.1,76 54.2,80 56.0" fill="none" stroke="#999" stroke-width="0.7"/><polyline points="0 78.0,4 79.8,8 80.9,12 80.9,16 79.8,20 78.0,24 76.2,28 75.1,32 75.1,36 76.2,40 78.0,44 79.8,48 80.9,52 80.9,56 79.8,60 78.0,64 76.2,68 75.1,72 75.1,76 76.2,80 78.0" fill="none" stroke="#999" stroke-width="0.7"/><g transform="translate(-80 -80)"><ellipse cx="75.6" cy="1.2" rx="7.6" ry="4.7" transform="rotate(29 75.6 1.2)" fill="#d2d2d2" stroke="#222" stroke-width="1.1"/><ellipse cx="8.2" cy="2.9" rx="6.3" ry="3.9" transform="rotate(30 8.2 2.9)" fill="#d2d2d2" stroke="#222" stroke-width="1.1"/><ellipse cx="15.6" cy="37.4" rx="8.6" ry="5.3" transform="rotate(34 15.6 37.4)" fill="#d2d2d2" stroke="#222" stroke-width="1.1"/><ellipse cx="47.6" cy="56.9" rx="7.8" ry="4.8" transform="rotate(21 47.6 56.9)" fill="#d2d2d2" stroke="#222" stroke-width="1.1"/><ellipse cx="42.8" cy="63.6" rx="7.9" ry="4.9" transform="rotate(28 42.8 63.6)" fill="#d2d2d2" stroke="#222" stroke-width="1.1"/><ellipse cx="51.0" cy="28.3" rx="8.7" ry="5.4" transform="rotate(25 51.0 28.3)" fill="#d2d2d2" stroke="#222" stroke-width="1.1"/><ellipse cx="33.9" cy="65.3" rx="7.1" ry="4.4" transform="rotate(30 33.9 65.3)" fill="#d2d2d2" stroke="#222" stroke-width="1.1"/><ellipse cx="32.7" cy="17.1" rx="6.1" ry="3.8" transform="rotate(35 32.7 17.1)" fill="#d2d2d2" stroke="#222" stroke-width="1.1"/><ellipse cx="3.9" cy="74.1" rx="8.7" ry="5.4" transform="rotate(24 3.9 74.1)" fill="#d2d2d2" stroke="#222" stroke-width="1.1"/><ellipse cx="4.1" cy="18.9" rx="6.8" ry="4.2" transform="rotate(20 4.1 18.9)" fill="#d2d2d2" stroke="#222" stroke-width="1.1"/></g>
<g transform="translate(-80 0)"><ellipse cx="75.6" cy="1.2" rx="7.6" ry="4.7" transform="rotate(29 75.6 1.2)" fill="#d2d2d2" stroke="#222" stroke-width="1.1"/><ellipse cx="8.2" cy="2.9" rx="6.3" ry="3.9" transform="rotate(30 8.2 2.9)" fill="#d2d2d2" stroke="#222" stroke-width="1.1"/><ellipse cx="15.6" cy="37.4" rx="8.6" ry="5.3" transform="rotate(34 15.6 37.4)" fill="#d2d2d2" stroke="#222" stroke-width="1.1"/><ellipse cx="47.6" cy="56.9" rx="7.8" ry="4.8" transform="rotate(21 47.6 56.9)" fill="#d2d2d2" stroke="#222" stroke-width="1.1"/><ellipse cx="42.8" cy="63.6" rx="7.9" ry="4.9" transform="rotate(28 42.8 63.6)" fill="#d2d2d2" stroke="#222" stroke-width="1.1"/><ellipse cx="51.0" cy="28.3" rx="8.7" ry="5.4" transform="rotate(25 51.0 28.3)" fill="#d2d2d2" stroke="#222" stroke-width="1.1"/><ellipse cx="33.9" cy="65.3" rx="7.1" ry="4.4" transform="rotate(30 33.9 65.3)" fill="#d2d2d2" stroke="#222" stroke-width="1.1"/><ellipse cx="32.7" cy="17.1" rx="6.1" ry="3.8" transform="rotate(35 32.7 17.1)" fill="#d2d2d2" stroke="#222" stroke-width="1.1"/><ellipse cx="3.9" cy="74.1" rx="8.7" ry="5.4" transform="rotate(24 3.9 74.1)" fill="#d2d2d2" stroke="#222" stroke-width="1.1"/><ellipse cx="4.1" cy="18.9" rx="6.8" ry="4.2" transform="rotate(20 4.1 18.9)" fill="#d2d2d2" stroke="#222" stroke-width="1.1"/></g>
<g transform="translate(-80 80)"><ellipse cx="75.6" cy="1.2" rx="7.6" ry="4.7" transform="rotate(29 75.6 1.2)" fill="#d2d2d2" stroke="#222" stroke-width="1.1"/><ellipse cx="8.2" cy="2.9" rx="6.3" ry="3.9" transform="rotate(30 8.2 2.9)" fill="#d2d2d2" stroke="#222" stroke-width="1.1"/><ellipse cx="15.6" cy="37.4" rx="8.6" ry="5.3" transform="rotate(34 15.6 37.4)" fill="#d2d2d2" stroke="#222" stroke-width="1.1"/><ellipse cx="47.6" cy="56.9" rx="7.8" ry="4.8" transform="rotate(21 47.6 56.9)" fill="#d2d2d2" stroke="#222" stroke-width="1.1"/><ellipse cx="42.8" cy="63.6" rx="7.9" ry="4.9" transform="rotate(28 42.8 63.6)" fill="#d2d2d2" stroke="#222" stroke-width="1.1"/><ellipse cx="51.0" cy="28.3" rx="8.7" ry="5.4" transform="rotate(25 51.0 28.3)" fill="#d2d2d2" stroke="#222" stroke-width="1.1"/><ellipse cx="33.9" cy="65.3" rx="7.1" ry="4.4" transform="rotate(30 33.9 65.3)" fill="#d2d2d2" stroke="#222" stroke-width="1.1"/><ellipse cx="32.7" cy="17.1" rx="6.1" ry="3.8" transform="rotate(35 32.7 17.1)" fill="#d2d2d2" stroke="#222" stroke-width="1.1"/><ellipse cx="3.9" cy="74.1" rx="8.7" ry="5.4" transform="rotate(24 3.9 74.1)" fill="#d2d2d2" stroke="#222" stroke-width="1.1"/><ellipse cx="4.1" cy="18.9" rx="6.8" ry="4.2" transform="rotate(20 4.1 18.9)" fill="#d2d2d2" stroke="#222" stroke-width="1.1"/></g>
<g transform="translate(0 -80)"><ellipse cx="75.6" cy="1.2" rx="7.6" ry="4.7" transform="rotate(29 75.6 1.2)" fill="#d2d2d2" stroke="#222" stroke-width="1.1"/><ellipse cx="8.2" cy="2.9" rx="6.3" ry="3.9" transform="rotate(30 8.2 2.9)" fill="#d2d2d2" stroke="#222" stroke-width="1.1"/><ellipse cx="15.6" cy="37.4" rx="8.6" ry="5.3" transform="rotate(34 15.6 37.4)" fill="#d2d2d2" stroke="#222" stroke-width="1.1"/><ellipse cx="47.6" cy="56.9" rx="7.8" ry="4.8" transform="rotate(21 47.6 56.9)" fill="#d2d2d2" stroke="#222" stroke-width="1.1"/><ellipse cx="42.8" cy="63.6" rx="7.9" ry="4.9" transform="rotate(28 42.8 63.6)" fill="#d2d2d2" stroke="#222" stroke-width="1.1"/><ellipse cx="51.0" cy="28.3" rx="8.7" ry="5.4" transform="rotate(25 51.0 28.3)" fill="#d2d2d2" stroke="#222" stroke-width="1.1"/><ellipse cx="33.9" cy="65.3" rx="7.1" ry="4.4" transform="rotate(30 33.9 65.3)" fill="#d2d2d2" stroke="#222" stroke-width="1.1"/><ellipse cx="32.7" cy="17.1" rx="6.1" ry="3.8" transform="rotate(35 32.7 17.1)" fill="#d2d2d2" stroke="#222" stroke-width="1.1"/><ellipse cx="3.9" cy="74.1" rx="8.7" ry="5.4" transform="rotate(24 3.9 74.1)" fill="#d2d2d2" stroke="#222" stroke-width="1.1"/><ellipse cx="4.1" cy="18.9" rx="6.8" ry="4.2" transform="rotate(20 4.1 18.9)" fill="#d2d2d2" stroke="#222" stroke-width="1.1"/></g>
<g transform="translate(0 0)"><ellipse cx="75.6" cy="1.2" rx="7.6" ry="4.7" transform="rotate(29 75.6 1.2)" fill="#d2d2d2" stroke="#222" stroke-width="1.1"/><ellipse cx="8.2" cy="2.9" rx="6.3" ry="3.9" transform="rotate(30 8.2 2.9)" fill="#d2d2d2" stroke="#222" stroke-width="1.1"/><ellipse cx="15.6" cy="37.4" rx="8.6" ry="5.3" transform="rotate(34 15.6 37.4)" fill="#d2d2d2" stroke="#222" stroke-width="1.1"/><ellipse cx="47.6" cy="56.9" rx="7.8" ry="4.8" transform="rotate(21 47.6 56.9)" fill="#d2d2d2" stroke="#222" stroke-width="1.1"/><ellipse cx="42.8" cy="63.6" rx="7.9" ry="4.9" transform="rotate(28 42.8 63.6)" fill="#d2d2d2" stroke="#222" stroke-width="1.1"/><ellipse cx="51.0" cy="28.3" rx="8.7" ry="5.4" transform="rotate(25 51.0 28.3)" fill="#d2d2d2" stroke="#222" stroke-width="1.1"/><ellipse cx="33.9" cy="65.3" rx="7.1" ry="4.4" transform="rotate(30 33.9 65.3)" fill="#d2d2d2" stroke="#222" stroke-width="1.1"/><ellipse cx="32.7" cy="17.1" rx="6.1" ry="3.8" transform="rotate(35 32.7 17.1)" fill="#d2d2d2" stroke="#222" stroke-width="1.1"/><ellipse cx="3.9" cy="74.1" rx="8.7" ry="5.4" transform="rotate(24 3.9 74.1)" fill="#d2d2d2" stroke="#222" stroke-width="1.1"/><ellipse cx="4.1" cy="18.9" rx="6.8" ry="4.2" transform="rotate(20 4.1 18.9)" fill="#d2d2d2" stroke="#222" stroke-width="1.1"/></g>
<g transform="translate(0 80)"><ellipse cx="75.6" cy="1.2" rx="7.6" ry="4.7" transform="rotate(29 75.6 1.2)" fill="#d2d2d2" stroke="#222" stroke-width="1.1"/><ellipse cx="8.2" cy="2.9" rx="6.3" ry="3.9" transform="rotate(30 8.2 2.9)" fill="#d2d2d2" stroke="#222" stroke-width="1.1"/><ellipse cx="15.6" cy="37.4" rx="8.6" ry="5.3" transform="rotate(34 15.6 37.4)" fill="#d2d2d2" stroke="#222" stroke-width="1.1"/><ellipse cx="47.6" cy="56.9" rx="7.8" ry="4.8" transform="rotate(21 47.6 56.9)" fill="#d2d2d2" stroke="#222" stroke-width="1.1"/><ellipse cx="42.8" cy="63.6" rx="7.9" ry="4.9" transform="rotate(28 42.8 63.6)" fill="#d2d2d2" stroke="#222" stroke-width="1.1"/><ellipse cx="51.0" cy="28.3" rx="8.7" ry="5.4" transform="rotate(25 51.0 28.3)" fill="#d2d2d2" stroke="#222" stroke-width="1.1"/><ellipse cx="33.9" cy="65.3" rx="7.1" ry="4.4" transform="rotate(30 33.9 65.3)" fill="#d2d2d2" stroke="#222" stroke-width="1.1"/><ellipse cx="32.7" cy="17.1" rx="6.1" ry="3.8" transform="rotate(35 32.7 17.1)" fill="#d2d2d2" stroke="#222" stroke-width="1.1"/><ellipse cx="3.9" cy="74.1" rx="8.7" ry="5.4" transform="rotate(24 3.9 74.1)" fill="#d2d2d2" stroke="#222" stroke-width="1.1"/><ellipse cx="4.1" cy="18.9" rx="6.8" ry="4.2" transform="rotate(20 4.1 18.9)" fill="#d2d2d2" stroke="#222" stroke-width="1.1"/></g>
<g transform="translate(80 -80)"><ellipse cx="75.6" cy="1.2" rx="7.6" ry="4.7" transform="rotate(29 75.6 1.2)" fill="#d2d2d2" stroke="#222" stroke-width="1.1"/><ellipse cx="8.2" cy="2.9" rx="6.3" ry="3.9" transform="rotate(30 8.2 2.9)" fill="#d2d2d2" stroke="#222" stroke-width="1.1"/><ellipse cx="15.6" cy="37.4" rx="8.6" ry="5.3" transform="rotate(34 15.6 37.4)" fill="#d2d2d2" stroke="#222" stroke-width="1.1"/><ellipse cx="47.6" cy="56.9" rx="7.8" ry="4.8" transform="rotate(21 47.6 56.9)" fill="#d2d2d2" stroke="#222" stroke-width="1.1"/><ellipse cx="42.8" cy="63.6" rx="7.9" ry="4.9" transform="rotate(28 42.8 63.6)" fill="#d2d2d2" stroke="#222" stroke-width="1.1"/><ellipse cx="51.0" cy="28.3" rx="8.7" ry="5.4" transform="rotate(25 51.0 28.3)" fill="#d2d2d2" stroke="#222" stroke-width="1.1"/><ellipse cx="33.9" cy="65.3" rx="7.1" ry="4.4" transform="rotate(30 33.9 65.3)" fill="#d2d2d2" stroke="#222" stroke-width="1.1"/><ellipse cx="32.7" cy="17.1" rx="6.1" ry="3.8" transform="rotate(35 32.7 17.1)" fill="#d2d2d2" stroke="#222" stroke-width="1.1"/><ellipse cx="3.9" cy="74.1" rx="8.7" ry="5.4" transform="rotate(24 3.9 74.1)" fill="#d2d2d2" stroke="#222" stroke-width="1.1"/><ellipse cx="4.1" cy="18.9" rx="6.8" ry="4.2" transform="rotate(20 4.1 18.9)" fill="#d2d2d2" stroke="#222" stroke-width="1.1"/></g>
<g transform="translate(80 0)"><ellipse cx="75.6" cy="1.2" rx="7.6" ry="4.7" transform="rotate(29 75.6 1.2)" fill="#d2d2d2" stroke="#222" stroke-width="1.1"/><ellipse cx="8.2" cy="2.9" rx="6.3" ry="3.9" transform="rotate(30 8.2 2.9)" fill="#d2d2d2" stroke="#222" stroke-width="1.1"/><ellipse cx="15.6" cy="37.4" rx="8.6" ry="5.3" transform="rotate(34 15.6 37.4)" fill="#d2d2d2" stroke="#222" stroke-width="1.1"/><ellipse cx="47.6" cy="56.9" rx="7.8" ry="4.8" transform="rotate(21 47.6 56.9)" fill="#d2d2d2" stroke="#222" stroke-width="1.1"/><ellipse cx="42.8" cy="63.6" rx="7.9" ry="4.9" transform="rotate(28 42.8 63.6)" fill="#d2d2d2" stroke="#222" stroke-width="1.1"/><ellipse cx="51.0" cy="28.3" rx="8.7" ry="5.4" transform="rotate(25 51.0 28.3)" fill="#d2d2d2" stroke="#222" stroke-width="1.1"/><ellipse cx="33.9" cy="65.3" rx="7.1" ry="4.4" transform="rotate(30 33.9 65.3)" fill="#d2d2d2" stroke="#222" stroke-width="1.1"/><ellipse cx="32.7" cy="17.1" rx="6.1" ry="3.8" transform="rotate(35 32.7 17.1)" fill="#d2d2d2" stroke="#222" stroke-width="1.1"/><ellipse cx="3.9" cy="74.1" rx="8.7" ry="5.4" transform="rotate(24 3.9 74.1)" fill="#d2d2d2" stroke="#222" stroke-width="1.1"/><ellipse cx="4.1" cy="18.9" rx="6.8" ry="4.2" transform="rotate(20 4.1 18.9)" fill="#d2d2d2" stroke="#222" stroke-width="1.1"/></g>
<g transform="translate(80 80)"><ellipse cx="75.6" cy="1.2" rx="7.6" ry="4.7" transform="rotate(29 75.6 1.2)" fill="#d2d2d2" stroke="#222" stroke-width="1.1"/><ellipse cx="8.2" cy="2.9" rx="6.3" ry="3.9" transform="rotate(30 8.2 2.9)" fill="#d2d2d2" stroke="#222" stroke-width="1.1"/><ellipse cx="15.6" cy="37.4" rx="8.6" ry="5.3" transform="rotate(34 15.6 37.4)" fill="#d2d2d2" stroke="#222" stroke-width="1.1"/><ellipse cx="47.6" cy="56.9" rx="7.8" ry="4.8" transform="rotate(21 47.6 56.9)" fill="#d2d2d2" stroke="#222" stroke-width="1.1"/><ellipse cx="42.8" cy="63.6" rx="7.9" ry="4.9" transform="rotate(28 42.8 63.6)" fill="#d2d2d2" stroke="#222" stroke-width="1.1"/><ellipse cx="51.0" cy="28.3" rx="8.7" ry="5.4" transform="rotate(25 51.0 28.3)" fill="#d2d2d2" stroke="#222" stroke-width="1.1"/><ellipse cx="33.9" cy="65.3" rx="7.1" ry="4.4" transform="rotate(30 33.9 65.3)" fill="#d2d2d2" stroke="#222" stroke-width="1.1"/><ellipse cx="32.7" cy="17.1" rx="6.1" ry="3.8" transform="rotate(35 32.7 17.1)" fill="#d2d2d2" stroke="#222" stroke-width="1.1"/><ellipse cx="3.9" cy="74.1" rx="8.7" ry="5.4" transform="rotate(24 3.9 74.1)" fill="#d2d2d2" stroke="#222" stroke-width="1.1"/><ellipse cx="4.1" cy="18.9" rx="6.8" ry="4.2" transform="rotate(20 4.1 18.9)" fill="#d2d2d2" stroke="#222" stroke-width="1.1"/></g></pattern></defs>
<rect width="120" height="120" fill="url(#pat_Cdm)" stroke="black" stroke-width="1"/>
</svg>
