<svg xmlns="http://www.w3.org/2000/svg" width="120" height="120" viewBox="0 0 120 120">
<defs><clipPath id="clip88"><rect width="88" height="88"/></clipPath><pattern id="pat_Dcm" patternUnits="userSpaceOnUse" width="88" height="88"><rect width="88" height="88" fill="white"/><g transform="translate(-88 -88)"><polygon points="34.7,15.5 32.2,19.6 27.0,20.5 26.4,14.9 30.8,11.1" fill="#d2d2d2" stroke="#222" stroke-width="1.1"/>
<polygon points="17.1,37.1 16.8,42.5 10.8,42.6 8.7,37.8 10.0,32.6 15.7,32.3" fill="#d2d2d2" stroke="#222" stroke-width="1.1"/>
<ellipse cx="62.0" cy="40.6" rx="5.7" ry="3.5" transform="rotate(3 62.0 40.6)" fill="#d2d2d2" stroke="#222" stroke-width="1.1"/>
<polygon points="75.3,24.7 75.1,31.8 68.9,33.5 63.3,31.1 62.7,24.1 69.3,21.1" fill="#d2d2d2" stroke="#222" stroke-width="1.1"/>
<ellipse cx="44.8" cy="4.0" rx="6.8" ry="4.2" transform="rotate(21 44.8 4.0)" fill="#d2d2d2" stroke="#222" stroke-width="1.1"/>
<polygon points="42.6,8.3 41.3,14.2 38.7,18.8 32.5,19.4 30.2,13.7 30.6,7.6 36.6,7.4" fill="#d2d2d2" stroke="#222" stroke-width="1.1"/>
<ellipse cx="81.4" cy="87.9" rx="7.1" ry="4.4" transform="rotate(2 81.4 87.9)" fill="#d2d2d2" stroke="#222" stroke-width="1.1"/>
<ellipse cx="28.6" cy="78.6" rx="7.3" ry="4.5" transform="rotate(-3 28.6 78.6)" fill="#d2d2d2" stroke="#222" stroke-width="1.1"/>
<polygon points="51.6,64.7 48.3,69.5 41.8,69.7 38.9,63.3 42.6,56.6 50.6,57.7" fill="#d2d2d2" stroke="#222" stroke-width="1.1"/>
<polygon points="57.0,77.3 52.5,84.5 44.5,80.8 44.0,73.4 48.3,67.0 56.2,69.7" fill="#d2d2d2" stroke="#222" stroke-width="1.1"/>
<polygon points="32.8,8.9 29.6,15.0 23.0,16.4 17.6,12.3 16.2,4.8 22.8,0.2 28.7,4.0" fill="#d2d2d2" stroke="#222" stroke-width="1.1"/>
<polygon points="43.1,26.7 35.3,33.4 26.5,32.7 27.7,24.2 35.0,18.7" fill="#d2d2d2" stroke="#222" stroke-width="1.1"/>
<ellipse cx="54.2" cy="69.8" rx="9.4" ry="5.8" transform="rotate(-14 54.2 69.8)" fill="#d2d2d2" stroke="#222" stroke-width="1.1"/>
<ellipse cx="66.9" cy="12.7" rx="9.6" ry="5.9" transform="rotate(-34 66.9 12.7)" fill="#d2d2d2" stroke="#222" stroke-width="1.1"/>
<polygon points="14.1,23.5 12.7,36.5 2.0,36.2 -6.1,29.4 2.1,21.7" fill="#d2d2d2" stroke="#222" stroke-width="1.1"/>
<polygon points="20.6,49.4 14.5,55.3 6.6,53.0 2.2,44.7 10.1,39.3 19.8,39.5" fill="#d2d2d2" stroke="#222" stroke-width="1.1"/>
<ellipse cx="68.0" cy="2.1" rx="10.8" ry="6.7" transform="rotate(-7 68.0 2.1)" fill="#d2d2d2" stroke="#222" stroke-width="1.1"/>
<polygon points="43.2,85.7 34.9,90.9 24.3,93.1 24.9,82.4 29.0,74.5 40.2,74.5" fill="#d2d2d2" stroke="#222" stroke-width="1.1"/>
<ellipse cx="62.8" cy="0.1" rx="11.5" ry="7.1" transform="rotate(-30 62.8 0.1)" fill="#d2d2d2" stroke="#222" stroke-width="1.1"/>
<polygon points="96.2,5.5 91.1,13.9 82.8,8.8 77.8,2.4 79.5,-7.5 89.9,-10.0 95.6,-2.3" fill="#d2d2d2" stroke="#222" stroke-width="1.1"/></g>
<g transform="translate(-88 0)"><polygon points="34.7,15.5 32.2,19.6 27.0,20.5 26.4,14.9 30.8,11.1" fill="#d2d2d2" stroke="#222" stroke-width="1.1"/>
<polygon points="17.1,37.1 16.8,42.5 10.8,42.6 8.7,37.8 10.0,32.6 15.7,32.3" fill="#d2d2d2" stroke="#222" stroke-width="1.1"/>
<ellipse cx="62.0" cy="40.6" rx="5.7" ry="3.5" transform="rotate(3 62.0 40.6)" fill="#d2d2d2" stroke="#222" stroke-width="1.1"/>
<polygon points="75.3,24.7 75.1,31.8 68.9,33.5 63.3,31.1 62.7,24.1 69.3,21.1" fill="#d2d2d2" stroke="#222" stroke-width="1.1"/>
<ellipse cx="44.8" cy="4.0" rx="6.8" ry="4.2" transform="rotate(21 44.8 4.0)" fill="#d2d2d2" stroke="#222" stroke-width="1.1"/>
<polygon points="42.6,8.3 41.3,14.2 38.7,18.8 32.5,19.4 30.2,13.7 30.6,7.6 36.6,7.4" fill="#d2d2d2" stroke="#222" stroke-width="1.1"/>
<ellipse cx="81.4" cy="87.9" rx="7.1" ry="4.4" transform="rotate(2 81.4 87.9)" fill="#d2d2d2" stroke="#222" stroke-width="1.1"/>
<ellipse cx="28.6" cy="78.6" rx="7.3" ry="4.5" transform="rotate(-3 28.6 78.6)" fill="#d2d2d2" stroke="#222" stroke-width="1.1"/>
<polygon points="51.6,64.7 48.3,69.5 41.8,69.7 38.9,63.3 42.6,56.6 50.6,57.7" fill="#d2d2d2" stroke="#222" stroke-width="1.1"/>
<polygon points="57.0,77.3 52.5,84.5 44.5,80.8 44.0,73.4 48.3,67.0 56.2,69.7" fill="#d2d2d2" stroke="#222" stroke-width="1.1"/>
<polygon points="32.8,8.9 29.6,15.0 23.0,16.4 17.6,12.3 16.2,4.8 22.8,0.2 28.7,4.0" fill="#d2d2d2" stroke="#222" stroke-width="1.1"/>
<polygon points="43.1,26.7 35.3,33.4 26.5,32.7 27.7,24.2 35.0,18.7" fill="#d2d2d2" stroke="#222" stroke-width="1.1"/>
<ellipse cx="54.2" cy="69.8" rx="9.4" ry="5.8" transform="rotate(-14 54.2 69.8)" fill="#d2d2d2" stroke="#222" stroke-width="1.1"/>
<ellipse cx="66.9" cy="12.7" rx="9.6" ry="5.9" transform="rotate(-34 66.9 12.7)" fill="#d2d2d2" stroke="#222" stroke-width="1.1"/>
<polygon points="14.1,23.5 12.7,36.5 2.0,36.2 -6.1,29.4 2.1,21.7" fill="#d2d2d2" stroke="#222" stroke-width="1.1"/>
<polygon points="20.6,49.4 14.5,55.3 6.6,53.0 2.2,44.7 10.1,39.3 19.8,39.5" fill="#d2d2d2" stroke="#222" stroke-width="1.1"/>
<ellipse cx="68.0" cy="2.1" rx="10.8" ry="6.7" transform="rotate(-7 68.0 2.1)" fill="#d2d2d2" stroke="#222" stroke-width="1.1"/>
<polygon points="43.2,85.7 34.9,90.9 24.3,93.1 24.9,82.4 29.0,74.5 40.2,74.5" fill="#d2d2d2" stroke="#222" stroke-width="1.1"/>
<ellipse cx="62.8" cy="0.1" rx="11.5" ry="7.1" transform="rotate(-30 62.8 0.1)" fill="#d2d2d2" stroke="#222" stroke-width="1.1"/>
<polygon points="96.2,5.5 91.1,13.9 82.8,8.8 77.8,2.4 79.5,-7.5 89.9,-10.0 95.6,-2.3" fill="#d2d2d2" stroke="#222" stroke-width="1.1"/></g>
<g transform="translate(-88 88)"><polygon points="34.7,15.5 32.2,19.6 27.0,20.5 26.4,14.9 30.8,11.1" fill="#d2d2d2" stroke="#222" stroke-width="1.1"/>
<polygon points="17.1,37.1 16.8,42.5 10.8,42.6 8.7,37.8 10.0,32.6 15.7,32.3" fill="#d2d2d2" stroke="#222" stroke-width="1.1"/>
<ellipse cx="62.0" cy="40.6" rx="5.7" ry="3.5" transform="rotate(3 62.0 40.6)" fill="#d2d2d2" stroke="#222" stroke-width="1.1"/>
<polygon points="75.3,24.7 75.1,31.8 68.9,33.5 63.3,31.1 62.7,24.1 69.3,21.1" fill="#d2d2d2" stroke="#222" stroke-width="1.1"/>
<ellipse cx="44.8" cy="4.0" rx="6.8" ry="4.2" transform="rotate(21 44.8 4.0)" fill="#d2d2d2" stroke="#222" stroke-width="1.1"/>
<polygon points="42.6,8.3 41.3,14.2 38.7,18.8 32.5,19.4 30.2,13.7 30.6,7.6 36.6,7.4" fill="#d2d2d2" stroke="#222" stroke-width="1.1"/>
<ellipse cx="81.4" cy="87.9" rx="7.1" ry="4.4" transform="rotate(2 81.4 87.9)" fill="#d2d2d2" stroke="#222" stroke-width="1.1"/>
<ellipse cx="28.6" cy="78.6" rx="7.3" ry="4.5" transform="rotate(-3 28.6 78.6)" fill="#d2d2d2" stroke="#222" stroke-width="1.1"/>
<polygon points="51.6,64.7 48.3,69.5 41.8,69.7 38.9,63.3 42.6,56.6 50.6,57.7" fill="#d2d2d2" stroke="#222" stroke-width="1.1"/>
<polygon points="57.0,77.3 52.5,84.5 44.5,80.8 44.0,73.4 48.3,67.0 56.2,69.7" fill="#d2d2d2" stroke="#222" stroke-width="1.1"/>
<polygon points="32.8,8.9 29.6,15.0 23.0,16.4 17.6,12.3 16.2,4.8 22.8,0.2 28.7,4.0" fill="#d2d2d2" stroke="#222" stroke-width="1.1"/>
<polygon points="43.1,26.7 35.3,33.4 26.5,32.7 27.7,24.2 35.0,18.7" fill="#d2d2d2" stroke="#222" stroke-width="1.1"/>
<ellipse cx="54.2" cy="69.8" rx="9.4" ry="5.8" transform="rotate(-14 54.2 69.8)" fill="#d2d2d2" stroke="#222" stroke-width="1.1"/>
<ellipse cx="66.9" cy="12.7" rx="9.6" ry="5.9" transform="rotate(-34 66.9 12.7)" fill="#d2d2d2" stroke="#222" stroke-width="1.1"/>
<polygon points="14.1,23.5 12.7,36.5 2.0,36.2 -6.1,29.4 2.1,21.7" fill="#d2d2d2" stroke="#222" stroke-width="1.1"/>
<polygon points="20.6,49.4 14.5,55.3 6.6,53.0 2.2,44.7 10.1,39.3 19.8,39.5" fill="#d2d2d2" stroke="#222" stroke-width="1.1"/>
<ellipse cx="68.0" cy="2.1" rx="10.8" ry="6.7" transform="rotate(-7 68.0 2.1)" fill="#d2d2d2" stroke="#222" stroke-width="1.1"/>
<polygon points="43.2,85.7 34.9,90.9 24.3,93.1 24.9,82.4 29.0,74.5 40.2,74.5" fill="#d2d2d2" stroke="#222" stroke-width="1.1"/>
<ellipse cx="62.8" cy="0.1" rx="11.5" ry="7.1" transform="rotate(-30 62.8 0.1)" fill="#d2d2d2" stroke="#222" stroke-width="1.1"/>
<polygon points="96.2,5.5 91.1,13.9 82.8,8.8 77.8,2.4 79.5,-7.5 89.9,-10.0 95.6,-2.3" fill="#d2d2d2" stroke="#222" stroke-width="1.1"/></g>
<g transform="translate(0 -88)"><polygon points="34.7,15.5 32.2,19.6 27.0,20.5 26.4,14.9 30.8,11.1" fill="#d2d2d2" stroke="#222" stroke-width="1.1"/>
<polygon points="17.1,37.1 16.8,42.5 10.8,42.6 8.7,37.8 10.0,32.6 15.7,32.3" fill="#d2d2d2" stroke="#222" stroke-width="1.1"/>
<ellipse cx="62.0" cy="40.6" rx="5.7" ry="3.5" transform="rotate(3 62.0 40.6)" fill="#d2d2d2" stroke="#222" stroke-width="1.1"/>
<polygon points="75.3,24.7 75.1,31.8 68.9,33.5 63.3,31.1 62.7,24.1 69.3,21.1" fill="#d2d2d2" stroke="#222" stroke-width="1.1"/>
<ellipse cx="44.8" cy="4.0" rx="6.8" ry="4.2" transform="rotate(21 44.8 4.0)" fill="#d2d2d2" stroke="#222" stroke-width="1.1"/>
<polygon points="42.6,8.3 41.3,14.2 38.7,18.8 32.5,19.4 30.2,13.7 30.6,7.6 36.6,7.4" fill="#d2d2d2" stroke="#222" stroke-width="1.1"/>
<ellipse cx="81.4" cy="87.9" rx="7.1" ry="4.4" transform="rotate(2 81.4 87.9)" fill="#d2d2d2" stroke="#222" stroke-width="1.1"/>
<ellipse cx="28.6" cy="78.6" rx="7.3" ry="4.5" transform="rotate(-3 28.6 78.6)" fill="#d2d2d2" stroke="#222" stroke-width="1.1"/>
<polygon points="51.6,64.7 48.3,69.5 41.8,69.7 38.9,63.3 42.6,56.6 50.6,57.7" fill="#d2d2d2" stroke="#222" stroke-width="1.1"/>
<polygon points="57.0,77.3 52.5,84.5 44.5,80.8 44.0,73.4 48.3,67.0 56.2,69.7" fill="#d2d2d2" stroke="#222" stroke-width="1.1"/>
<polygon points="32.8,8.9 29.6,15.0 23.0,16.4 17.6,12.3 16.2,4.8 22.8,0.2 28.7,4.0" fill="#d2d2d2" stroke="#222" stroke-width="1.1"/>
<polygon points="43.1,26.7 35.3,33.4 26.5,32.7 27.7,24.2 35.0,18.7" fill="#d2d2d2" stroke="#222" stroke-width="1.1"/>
<ellipse cx="54.2" cy="69.8" rx="9.4" ry="5.8" transform="rotate(-14 54.2 69.8)" fill="#d2d2d2" stroke="#222" stroke-width="1.1"/>
<ellipse cx="66.9" cy="12.7" rx="9.6" ry="5.9" transform="rotate(-34 66.9 12.7)" fill="#d2d2d2" stroke="#222" stroke-width="1.1"/>
<polygon points="14.1,23.5 12.7,36.5 2.0,36.2 -6.1,29.4 2.1,21.7" fill="#d2d2d2" stroke="#222" stroke-width="1.1"/>
<polygon points="20.6,49.4 14.5,55.3 6.6,53.0 2.2,44.7 10.1,39.3 19.8,39.5" fill="#d2d2d2" stroke="#222" stroke-width="1.1"/>
<ellipse cx="68.0" cy="2.1" rx="10.8" ry="6.7" transform="rotate(-7 68.0 2.1)" fill="#d2d2d2" stroke="#222" stroke-width="1.1"/>
<polygon points="43.2,85.7 34.9,90.9 24.3,93.1 24.9,82.4 29.0,74.5 40.2,74.5" fill="#d2d2d2" stroke="#222" stroke-width="1.1"/>
<ellipse cx="62.8" cy="0.1" rx="11.5" ry="7.1" transform="rotate(-30 62.8 0.1)" fill="#d2d2d2" stroke="#222" stroke-width="1.1"/>
<polygon points="96.2,5.5 91.1,13.9 82.8,8.8 77.8,2.4 79.5,-7.5 89.9,-10.0 95.6,-2.3" fill="#d2d2d2" stroke="#222" stroke-width="1.1"/></g>
<g transform="translate(0 0)"><polygon points="34.7,15.5 32.2,19.6 27.0,20.5 26.4,14.9 30.8,11.1" fill="#d2d2d2" stroke="#222" stroke-width="1.1"/>
<polygon points="17.1,37.1 16.8,42.5 10.8,42.6 8.7,37.8 10.0,32.6 15.7,32.3" fill="#d2d2d2" stroke="#222" stroke-width="1.1"/>
<ellipse cx="62.0" cy="40.6" rx="5.7" ry="3.5" transform="rotate(3 62.0 40.6)" fill="#d2d2d2" stroke="#222" stroke-width="1.1"/>
<polygon points="75.3,24.7 75.1,31.8 68.9,33.5 63.3,31.1 62.7,24.1 69.3,21.1" fill="#d2d2d2" stroke="#222" stroke-width="1.1"/>
<ellipse cx="44.8" cy="4.0" rx="6.8" ry="4.2" transform="rotate(21 44.8 4.0)" fill="#d2d2d2" stroke="#222" stroke-width="1.1"/>
<polygon points="42.6,8.3 41.3,14.2 38.7,18.8 32.5,19.4 30.2,13.7 30.6,7.6 36.6,7.4" fill="#d2d2d2" stroke="#222" stroke-width="1.1"/>
<ellipse cx="81.4" cy="87.9" rx="7.1" ry="4.4" transform="rotate(2 81.4 87.9)" fill="#d2d2d2" stroke="#222" stroke-width="1.1"/>
<ellipse cx="28.6" cy="78.6" rx="7.3" ry="4.5" transform="rotate(-3 28.6 78.6)" fill="#d2d2d2" stroke="#222" stroke-width="1.1"/>
<polygon points="51.6,64.7 48.3,69.5 41.8,69.7 38.9,63.3 42.6,56.6 50.6,57.7" fill="#d2d2d2" stroke="#222" stroke-width="1.1"/>
<polygon points="57.0,77.3 52.5,84.5 44.5,80.8 44.0,73.4 48.3,67.0 56.2,69.7" fill="#d2d2d2" stroke="#222" stroke-width="1.1"/>
<polygon points="32.8,8.9 29.6,15.0 23.0,16.4 17.6,12.3 16.2,4.8 22.8,0.2 28.7,4.0" fill="#d2d2d2" stroke="#222" stroke-width="1.1"/>
<polygon points="43.1,26.7 35.3,33.4 26.5,32.7 27.7,24.2 35.0,18.7" fill="#d2d2d2" stroke="#222" stroke-width="1.1"/>
<ellipse cx="54.2" cy="69.8" rx="9.4" ry="5.8" transform="rotate(-14 54.2 69.8)" fill="#d2d2d2" stroke="#222" stroke-width="1.1"/>
<ellipse cx="66.9" cy="12.7" rx="9.6" ry="5.9" transform="rotate(-34 66.9 12.7)" fill="#d2d2d2" stroke="#222" stroke-width="1.1"/>
<polygon points="14.1,23.5 12.7,36.5 2.0,36.2 -6.1,29.4 2.1,21.7" fill="#d2d2d2" stroke="#222" stroke-width="1.1"/>
<polygon points="20.6,49.4 14.5,55.3 6.6,53.0 2.2,44.7 10.1,39.3 19.8,39.5" fill="#d2d2d2" stroke="#222" stroke-width="1.1"/>
<ellipse cx="68.0" cy="2.1" rx="10.8" ry="6.7" transform="rotate(-7 68.0 2.1)" fill="#d2d2d2" stroke="#222" stroke-width="1.1"/>
<polygon points="43.2,85.7 34.9,90.9 24.3,93.1 24.9,82.4 29.0,74.5 40.2,74.5" fill="#d2d2d2" stroke="#222" stroke-width="1.1"/>
<ellipse cx="62.8" cy="0.1" rx="11.5" ry="7.1" transform="rotate(-30 62.8 0.1)" fill="#d2d2d2" stroke="#222" stroke-width="1.1"/>
<polygon points="96.2,5.5 91.1,13.9 82.8,8.8 77.8,2.4 79.5,-7.5 89.9,-10.0 95.6,-2.3" fill="#d2d2d2" stroke="#222" stroke-width="1.1"/></g>
<g transform="translate(0 88)"><polygon points="34.7,15.5 32.2,19.6 27.0,20.5 26.4,14.9 30.8,11.1" fill="#d2d2d2" stroke="#222" stroke-width="1.1"/>
<polygon points="17.1,37.1 16.8,42.5 10.8,42.6 8.7,37.8 10.0,32.6 15.7,32.3" fill="#d2d2d2" stroke="#222" stroke-width="1.1"/>
<ellipse cx="62.0" cy="40.6" rx="5.7" ry="3.5" transform="rotate(3 62.0 40.6)" fill="#d2d2d2" stroke="#222" stroke-width="1.1"/>
<polygon points="75.3,24.7 75.1,31.8 68.9,33.5 63.3,31.1 62.7,24.1 69.3,21.1" fill="#d2d2d2" stroke="#222" stroke-width="1.1"/>
<ellipse cx="44.8" cy="4.0" rx="6.8" ry="4.2" transform="rotate(21 44.8 4.0)" fill="#d2d2d2" stroke="#222" stroke-width="1.1"/>
<polygon points="42.6,8.3 41.3,14.2 38.7,18.8 32.5,19.4 30.2,13.7 30.6,7.6 36.6,7.4" fill="#d2d2d2" stroke="#222" stroke-width="1.1"/>
<ellipse cx="81.4" cy="87.9" rx="7.1" ry="4.4" transform="rotate(2 81.4 87.9)" fill="#d2d2d2" stroke="#222" stroke-width="1.1"/>
<ellipse cx="28.6" cy="78.6" rx="7.3" ry="4.5" transform="rotate(-3 28.6 78.6)" fill="#d2d2d2" stroke="#222" stroke-width="1.1"/>
<polygon points="51.6,64.7 48.3,69.5 41.8,69.7 38.9,63.3 42.6,56.6 50.6,57.7" fill="#d2d2d2" stroke="#222" stroke-width="1.1"/>
<polygon points="57.0,77.3 52.5,84.5 44.5,80.8 44.0,73.4 48.3,67.0 56.2,69.7" fill="#d2d2d2" stroke="#222" stroke-width="1.1"/>
<polygon points="32.8,8.9 29.6,15.0 23.0,16.4 17.6,12.3 16.2,4.8 22.8,0.2 28.7,4.0" fill="#d2d2d2" stroke="#222" stroke-width="1.1"/>
<polygon points="43.1,26.7 35.3,33.4 26.5,32.7 27.7,24.2 35.0,18.7" fill="#d2d2d2" stroke="#222" stroke-width="1.1"/>
<ellipse cx="54.2" cy="69.8" rx="9.4" ry="5.8" transform="rotate(-14 54.2 69.8)" fill="#d2d2d2" stroke="#222" stroke-width="1.1"/>
<ellipse cx="66.9" cy="12.7" rx="9.6" ry="5.9" transform="rotate(-34 66.9 12.7)" fill="#d2d2d2" stroke="#222" stroke-width="1.1"/>
<polygon points="14.1,23.5 12.7,36.5 2.0,36.2 -6.1,29.4 2.1,21.7" fill="#d2d2d2" stroke="#222" stroke-width="1.1"/>
<polygon points="20.6,49.4 14.5,55.3 6.6,53.0 2.2,44.7 10.1,39.3 19.8,39.5" fill="#d2d2d2" stroke="#222" stroke-width="1.1"/>
<ellipse cx="68.0" cy="2.1" rx="10.8" ry="6.7" transform="rotate(-7 68.0 2.1)" fill="#d2d2d2" stroke="#222" stroke-width="1.1"/>
<polygon points="43.2,85.7 34.9,90.9 24.3,93.1 24.9,82.4 29.0,74.5 40.2,74.5" fill="#d2d2d2" stroke="#222" stroke-width="1.1"/>
<ellipse cx="62.8" cy="0.1" rx="11.5" ry="7.1" transform="rotate(-30 62.8 0.1)" fill="#d2d2d2" stroke="#222" stroke-width="1.1"/>
<polygon points="96.2,5.5 91.1,13.9 82.8,8.8 77.8,2.4 79.5,-7.5 89.9,-10.0 95.6,-2.3" fill="#d2d2d2" stroke="#222" stroke-width="1.1"/></g>
<g transform="translate(88 -88)"><polygon points="34.7,15.5 32.2,19.6 27.0,20.5 26.4,14.9 30.8,11.1" fill="#d2d2d2" stroke="#222" stroke-width="1.1"/>
<polygon points="17.1,37.1 16.8,42.5 10.8,42.6 8.7,37.8 10.0,32.6 15.7,32.3" fill="#d2d2d2" stroke="#222" stroke-width="1.1"/>
<ellipse cx="62.0" cy="40.6" rx="5.7" ry="3.5" transform="rotate(3 62.0 40.6)" fill="#d2d2d2" stroke="#222" stroke-width="1.1"/>
<polygon points="75.3,24.7 75.1,31.8 68.9,33.5 63.3,31.1 62.7,24.1 69.3,21.1" fill="#d2d2d2" stroke="#222" stroke-width="1.1"/>
<ellipse cx="44.8" cy="4.0" rx="6.8" ry="4.2" transform="rotate(21 44.8 4.0)" fill="#d2d2d2" stroke="#222" stroke-width="1.1"/>
<polygon points="42.6,8.3 41.3,14.2 38.7,18.8 32.5,19.4 30.2,13.7 30.6,7.6 36.6,7.4" fill="#d2d2d2" stroke="#222" stroke-width="1.1"/>
<ellipse cx="81.4" cy="87.9" rx="7.1" ry="4.4" transform="rotate(2 81.4 87.9)" fill="#d2d2d2" stroke="#222" stroke-width="1.1"/>
<ellipse cx="28.6" cy="78.6" rx="7.3" ry="4.5" transform="rotate(-3 28.6 78.6)" fill="#d2d2d2" stroke="#222" stroke-width="1.1"/>
<polygon points="51.6,64.7 48.3,69.5 41.8,69.7 38.9,63.3 42.6,56.6 50.6,57.7" fill="#d2d2d2" stroke="#222" stroke-width="1.1"/>
<polygon points="57.0,77.3 52.5,84.5 44.5,80.8 44.0,73.4 48.3,67.0 56.2,69.7" fill="#d2d2d2" stroke="#222" stroke-width="1.1"/>
<polygon points="32.8,8.9 29.6,15.0 23.0,16.4 17.6,12.3 16.2,4.8 22.8,0.2 28.7,4.0" fill="#d2d2d2" stroke="#222" stroke-width="1.1"/>
<polygon points="43.1,26.7 35.3,33.4 26.5,32.7 27.7,24.2 35.0,18.7" fill="#d2d2d2" stroke="#222" stroke-width="1.1"/>
<ellipse cx="54.2" cy="69.8" rx="9.4" ry="5.8" transform="rotate(-14 54.2 69.8)" fill="#d2d2d2" stroke="#222" stroke-width="1.1"/>
<ellipse cx="66.9" cy="12.7" rx="9.6" ry="5.9" transform="rotate(-34 66.9 12.7)" fill="#d2d2d2" stroke="#222" stroke-width="1.1"/>
<polygon points="14.1,23.5 12.7,36.5 2.0,36.2 -6.1,29.4 2.1,21.7" fill="#d2d2d2" stroke="#222" stroke-width="1.1"/>
<polygon points="20.6,49.4 14.5,55.3 6.6,53.0 2.2,44.7 10.1,39.3 19.8,39.5" fill="#d2d2d2" stroke="#222" stroke-width="1.1"/>
<ellipse cx="68.0" cy="2.1" rx="10.8" ry="6.7" transform="rotate(-7 68.0 2.1)" fill="#d2d2d2" stroke="#222" stroke-width="1.1"/>
<polygon points="43.2,85.7 34.9,90.9 24.3,93.1 24.9,82.4 29.0,74.5 40.2,74.5" fill="#d2d2d2" stroke="#222" stroke-width="1.1"/>
<ellipse cx="62.8" cy="0.1" rx="11.5" ry="7.1" transform="rotate(-30 62.8 0.1)" fill="#d2d2d2" stroke="#222" stroke-width="1.1"/>
<polygon points="96.2,5.5 91.1,13.9 82.8,8.8 77.8,2.4 79.5,-7.5 89.9,-10.0 95.6,-2.3" fill="#d2d2d2" stroke="#222" stroke-width="1.1"/></g>
<g transform="translate(88 0)"><polygon points="34.7,15.5 32.2,19.6 27.0,20.5 26.4,14.9 30.8,11.1" fill="#d2d2d2" stroke="#222" stroke-width="1.1"/>
<polygon points="17.1,37.1 16.8,42.5 10.8,42.6 8.7,37.8 10.0,32.6 15.7,32.3" fill="#d2d2d2" stroke="#222" stroke-width="1.1"/>
<ellipse cx="62.0" cy="40.6" rx="5.7" ry="3.5" transform="rotate(3 62.0 40.6)" fill="#d2d2d2" stroke="#222" stroke-width="1.1"/>
<polygon points="75.3,24.7 75.1,31.8 68.9,33.5 63.3,31.1 62.7,24.1 69.3,21.1" fill="#d2d2d2" stroke="#222" stroke-width="1.1"/>
<ellipse cx="44.8" cy="4.0" rx="6.8" ry="4.2" transform="rotate(21 44.8 4.0)" fill="#d2d2d2" stroke="#222" stroke-width="1.1"/>
<polygon points="42.6,8.3 41.3,14.2 38.7,18.8 32.5,19.4 30.2,13.7 30.6,7.6 36.6,7.4" fill="#d2d2d2" stroke="#222" stroke-width="1.1"/>
<ellipse cx="81.4" cy="87.9" rx="7.1" ry="4.4" transform="rotate(2 81.4 87.9)" fill="#d2d2d2" stroke="#222" stroke-width="1.1"/>
<ellipse cx="28.6" cy="78.6" rx="7.3" ry="4.5" transform="rotate(-3 28.6 78.6)" fill="#d2d2d2" stroke="#222" stroke-width="1.1"/>
<polygon points="51.6,64.7 48.3,69.5 41.8,69.7 38.9,63.3 42.6,56.6 50.6,57.7" fill="#d2d2d2" stroke="#222" stroke-width="1.1"/>
<polygon points="57.0,77.3 52.5,84.5 44.5,80.8 44.0,73.4 48.3,67.0 56.2,69.7" fill="#d2d2d2" stroke="#222" stroke-width="1.1"/>
<polygon points="32.8,8.9 29.6,15.0 23.0,16.4 17.6,12.3 16.2,4.8 22.8,0.2 28.7,4.0" fill="#d2d2d2" stroke="#222" stroke-width="1.1"/>
<polygon points="43.1,26.7 35.3,33.4 26.5,32.7 27.7,24.2 35.0,18.7" fill="#d2d2d2" stroke="#222" stroke-width="1.1"/>
<ellipse cx="54.2" cy="69.8" rx="9.4" ry="5.8" transform="rotate(-14 54.2 69.8)" fill="#d2d2d2" stroke="#222" stroke-width="1.1"/>
<ellipse cx="66.9" cy="12.7" rx="9.6" ry="5.9" transform="rotate(-34 66.9 12.7)" fill="#d2d2d2" stroke="#222" stroke-width="1.1"/>
<polygon points="14.1,23.5 12.7,36.5 2.0,36.2 -6.1,29.4 2.1,21.7" fill="#d2d2d2" stroke="#222" stroke-width="1.1"/>
<polygon points="20.6,49.4 14.5,55.3 6.6,53.0 2.2,44.7 10.1,39.3 19.8,39.5" fill="#d2d2d2" stroke="#222" stroke-width="1.1"/>
<ellipse cx="68.0" cy="2.1" rx="10.8" ry="6.7" transform="rotate(-7 68.0 2.1)" fill="#d2d2d2" stroke="#222" stroke-width="1.1"/>
<polygon points="43.2,85.7 34.9,90.9 24.3,93.1 24.9,82.4 29.0,74.5 40.2,74.5" fill="#d2d2d2" stroke="#222" stroke-width="1.1"/>
<ellipse cx="62.8" cy="0.1" rx="11.5" ry="7.1" transform="rotate(-30 62.8 0.1)" fill="#d2d2d2" stroke="#222" stroke-width="1.1"/>
<polygon points="96.2,5.5 91.1,13.9 82.8,8.8 77.8,2.4 79.5,-7.5 89.9,-10.0 95.6,-2.3" fill="#d2d2d2" stroke="#222" stroke-width="1.1"/></g>
<g transform="translate(88 88)"><polygon points="34.7,15.5 32.2,19.6 27.0,20.5 26.4,14.9 30.8,11.1" fill="#d2d2d2" stroke="#222" stroke-width="1.1"/>
<polygon points="17.1,37.1 16.8,42.5 10.8,42.6 8.7,37.8 10.0,32.6 15.7,32.3" fill="#d2d2d2" stroke="#222" stroke-width="1.1"/>
<ellipse cx="62.0" cy="40.6" rx="5.7" ry="3.5" transform="rotate(3 62.0 40.6)" fill="#d2d2d2" stroke="#222" stroke-width="1.1"/>
<polygon points="75.3,24.7 75.1,31.8 68.9,33.5 63.3,31.1 62.7,24.1 69.3,21.1" fill="#d2d2d2" stroke="#222" stroke-width="1.1"/>
<ellipse cx="44.8" cy="4.0" rx="6.8" ry="4.2" transform="rotate(21 44.8 4.0)" fill="#d2d2d2" stroke="#222" stroke-width="1.1"/>
<polygon points="42.6,8.3 41.3,14.2 38.7,18.8 32.5,19.4 30.2,13.7 30.6,7.6 36.6,7.4" fill="#d2d2d2" stroke="#222" stroke-width="1.1"/>
<ellipse cx="81.4" cy="87.9" rx="7.1" ry="4.4" transform="rotate(2 81.4 87.9)" fill="#d2d2d2" stroke="#222" stroke-width="1.1"/>
<ellipse cx="28.6" cy="78.6" rx="7.3" ry="4.5" transform="rotate(-3 28.6 78.6)" fill="#d2d2d2" stroke="#222" stroke-width="1.1"/>
<polygon points="51.6,64.7 48.3,69.5 41.8,69.7 38.9,63.3 42.6,56.6 50.6,57.7" fill="#d2d2d2" stroke="#222" stroke-width="1.1"/>
<polygon points="57.0,77.3 52.5,84.5 44.5,80.8 44.0,73.4 48.3,67.0 56.2,69.7" fill="#d2d2d2" stroke="#222" stroke-width="1.1"/>
<polygon points="32.8,8.9 29.6,15.0 23.0,16.4 17.6,12.3 16.2,4.8 22.8,0.2 28.7,4.0" fill="#d2d2d2" stroke="#222" stroke-width="1.1"/>
<polygon points="43.1,26.7 35.3,33.4 26.5,32.7 27.7,24.2 35.0,18.7" fill="#d2d2d2" stroke="#222" stroke-width="1.1"/>
<ellipse cx="54.2" cy="69.8" rx="9.4" ry="5.8" transform="rotate(-14 54.2 69.8)" fill="#d2d2d2" stroke="#222" stroke-width="1.1"/>
<ellipse cx="66.9" cy="12.7" rx="9.6" ry="5.9" transform="rotate(-34 66.9 12.7)" fill="#d2d2d2" stroke="#222" stroke-width="1.1"/>
<polygon points="14.1,23.5 12.7,36.5 2.0,36.2 -6.1,29.4 2.1,21.7" fill="#d2d2d2" stroke="#222" stroke-width="1.1"/>
<polygon points="20.6,49.4 14.5,55.3 6.6,53.0 2.2,44.7 10.1,39.3 19.8,39.5" fill="#d2d2d2" stroke="#222" stroke-width="1.1"/>
<ellipse cx="68.0" cy="2.1" rx="10.8" ry="6.7" transform="rotate(-7 68.0 2.1)" fill="#d2d2d2" stroke="#222" stroke-width="1.1"/>
<polygon points="43.2,85.7 34.9,90.9 24.3,93.1 24.9,82.4 29.0,74.5 40.2,74.5" fill="#d2d2d2" stroke="#222" stroke-width="1.1"/>
<ellipse cx="62.8" cy="0.1" rx="11.5" ry="7.1" transform="rotate(-30 62.8 0.1)" fill="#d2d2d2" stroke="#222" stroke-width="1.1"/>
<polygon points="96.2,5.5 91.1,13.9 82.8,8.8 77.8,2.4 79.5,-7.5 89.9,-10.0 95.6,-2.3" fill="#d2d2d2" stroke="#222" stroke-width="1.1"/></g></pattern></defs>
<rect width="120" height="120" fill="url(#pat_Dcm)" stroke="black" stroke-width="1"/>
</svg>
