<svg xmlns="http://www.w3.org/2000/svg" width="120" height="120" viewBox="0 0 120 120">
<defs><clipPath id="clip84"><rect width="84" height="84"/></clipPath><pattern id="pat_Dcm" patternUnits="userSpaceOnUse" width="84" height="84"><rect width="84" height="84" fill="white"/><g transform="translate(-84 -84)"><polygon points="94.0,5.5 83.6,9.7 72.7,5.1 78.9,-5.3 90.1,-6.2" fill="#d2d2d2" stroke="#222" stroke-width="1.1"/>
<ellipse cx="77.7" cy="83.9" rx="8.1" ry="5.0" transform="rotate(1 77.7 83.9)" fill="#d2d2d2" stroke="#222" stroke-width="1.1"/>
<polygon points="19.5,35.2 14.5,40.3 7.1,40.4 8.1,32.8 14.3,29.5" fill="#d2d2d2" stroke="#222" stroke-width="1.1"/>
<polygon points="21.4,47.2 12.4,52.2 2.0,49.3 6.4,39.1 16.4,37.0" fill="#d2d2d2" stroke="#222" stroke-width="1.1"/>
<polygon points="73.1,23.6 69.7,31.0 61.8,34.0 59.8,25.5 65.2,19.5" fill="#d2d2d2" stroke="#222" stroke-width="1.1"/>
<polygon points="32.6,8.5 25.6,14.7 15.8,14.1 17.8,4.2 26.3,0.4" fill="#d2d2d2" stroke="#222" stroke-width="1.1"/>
<ellipse cx="65.0" cy="2.0" rx="10.4" ry="6.4" transform="rotate(-6 65.0 2.0)" fill="#d2d2d2" stroke="#222" stroke-width="1.1"/>
<polygon points="12.9,23.7 9.4,33.4 -0.3,38.0 -3.7,27.5 2.4,19.4" fill="#d2d2d2" stroke="#222" stroke-width="1.1"/>
<ellipse cx="42.7" cy="3.8" rx="7.9" ry="4.9" transform="rotate(18 42.7 3.8)" fill="#d2d2d2" stroke="#222" stroke-width="1.1"/>
<polygon points="40.7,25.6 33.8,32.4 23.7,32.5 25.1,22.1 33.6,17.6" fill="#d2d2d2" stroke="#222" stroke-width="1.1"/>
<polygon points="56.6,74.0 48.5,78.2 39.4,75.4 43.5,66.5 52.4,64.8" fill="#d2d2d2" stroke="#222" stroke-width="1.1"/>
<ellipse cx="27.3" cy="75.1" rx="8.2" ry="5.1" transform="rotate(-3 27.3 75.1)" fill="#d2d2d2" stroke="#222" stroke-width="1.1"/>
<polygon points="41.6,8.1 38.9,16.0 31.1,20.0 28.2,11.5 33.0,4.7" fill="#d2d2d2" stroke="#222" stroke-width="1.1"/>
<polygon points="41.1,81.5 32.0,87.3 21.0,85.0 24.9,74.0 35.3,71.2" fill="#d2d2d2" stroke="#222" stroke-width="1.1"/>
<polygon points="52.2,62.0 45.2,67.1 36.2,65.7 38.8,56.7 47.0,54.0" fill="#d2d2d2" stroke="#222" stroke-width="1.1"/></g>
<g transform="translate(-84 0)"><polygon points="94.0,5.5 83.6,9.7 72.7,5.1 78.9,-5.3 90.1,-6.2" fill="#d2d2d2" stroke="#222" stroke-width="1.1"/>
<ellipse cx="77.7" cy="83.9" rx="8.1" ry="5.0" transform="rotate(1 77.7 83.9)" fill="#d2d2d2" stroke="#222" stroke-width="1.1"/>
<polygon points="19.5,35.2 14.5,40.3 7.1,40.4 8.1,32.8 14.3,29.5" fill="#d2d2d2" stroke="#222" stroke-width="1.1"/>
<polygon points="21.4,47.2 12.4,52.2 2.0,49.3 6.4,39.1 16.4,37.0" fill="#d2d2d2" stroke="#222" stroke-width="1.1"/>
<polygon points="73.1,23.6 69.7,31.0 61.8,34.0 59.8,25.5 65.2,19.5" fill="#d2d2d2" stroke="#222" stroke-width="1.1"/>
<polygon points="32.6,8.5 25.6,14.7 15.8,14.1 17.8,4.2 26.3,0.4" fill="#d2d2d2" stroke="#222" stroke-width="1.1"/>
<ellipse cx="65.0" cy="2.0" rx="10.4" ry="6.4" transform="rotate(-6 65.0 2.0)" fill="#d2d2d2" stroke="#222" stroke-width="1.1"/>
<polygon points="12.9,23.7 9.4,33.4 -0.3,38.0 -3.7,27.5 2.4,19.4" fill="#d2d2d2" stroke="#222" stroke-width="1.1"/>
<ellipse cx="42.7" cy="3.8" rx="7.9" ry="4.9" transform="rotate(18 42.7 3.8)" fill="#d2d2d2" stroke="#222" stroke-width="1.1"/>
<polygon points="40.7,25.6 33.8,32.4 23.7,32.5 25.1,22.1 33.6,17.6" fill="#d2d2d2" stroke="#222" stroke-width="1.1"/>
<polygon points="56.6,74.0 48.5,78.2 39.4,75.4 43.5,66.5 52.4,64.8" fill="#d2d2d2" stroke="#222" stroke-width="1.1"/>
<ellipse cx="27.3" cy="75.1" rx="8.2" ry="5.1" transform="rotate(-3 27.3 75.1)" fill="#d2d2d2" stroke="#222" stroke-width="1.1"/>
<polygon points="41.6,8.1 38.9,16.0 31.1,20.0 28.2,11.5 33.0,4.7" fill="#d2d2d2" stroke="#222" stroke-width="1.1"/>
<polygon points="41.1,81.5 32.0,87.3 21.0,85.0 24.9,74.0 35.3,71.2" fill="#d2d2d2" stroke="#222" stroke-width="1.1"/>
<polygon points="52.2,62.0 45.2,67.1 36.2,65.7 38.8,56.7 47.0,54.0" fill="#d2d2d2" stroke="#222" stroke-width="1.1"/></g>
<g transform="translate(-84 84)"><polygon points="94.0,5.5 83.6,9.7 72.7,5.1 78.9,-5.3 90.1,-6.2" fill="#d2d2d2" stroke="#222" stroke-width="1.1"/>
<ellipse cx="77.7" cy="83.9" rx="8.1" ry="5.0" transform="rotate(1 77.7 83.9)" fill="#d2d2d2" stroke="#222" stroke-width="1.1"/>
<polygon points="19.5,35.2 14.5,40.3 7.1,40.4 8.1,32.8 14.3,29.5" fill="#d2d2d2" stroke="#222" stroke-width="1.1"/>
<polygon points="21.4,47.2 12.4,52.2 2.0,49.3 6.4,39.1 16.4,37.0" fill="#d2d2d2" stroke="#222" stroke-width="1.1"/>
<polygon points="73.1,23.6 69.7,31.0 61.8,34.0 59.8,25.5 65.2,19.5" fill="#d2d2d2" stroke="#222" stroke-width="1.1"/>
<polygon points="32.6,8.5 25.6,14.7 15.8,14.1 17.8,4.2 26.3,0.4" fill="#d2d2d2" stroke="#222" stroke-width="1.1"/>
<ellipse cx="65.0" cy="2.0" rx="10.4" ry="6.4" transform="rotate(-6 65.0 2.0)" fill="#d2d2d2" stroke="#222" stroke-width="1.1"/>
<polygon points="12.9,23.7 9.4,33.4 -0.3,38.0 -3.7,27.5 2.4,19.4" fill="#d2d2d2" stroke="#222" stroke-width="1.1"/>
<ellipse cx="42.7" cy="3.8" rx="7.9" ry="4.9" transform="rotate(18 42.7 3.8)" fill="#d2d2d2" stroke="#222" stroke-width="1.1"/>
<polygon points="40.7,25.6 33.8,32.4 23.7,32.5 25.1,22.1 33.6,17.6" fill="#d2d2d2" stroke="#222" stroke-width="1.1"/>
<polygon points="56.6,74.0 48.5,78.2 39.4,75.4 43.5,66.5 52.4,64.8" fill="#d2d2d2" stroke="#222" stroke-width="1.1"/>
<ellipse cx="27.3" cy="75.1" rx="8.2" ry="5.1" transform="rotate(-3 27.3 75.1)" fill="#d2d2d2" stroke="#222" stroke-width="1.1"/>
<polygon points="41.6,8.1 38.9,16.0 31.1,20.0 28.2,11.5 33.0,4.7" fill="#d2d2d2" stroke="#222" stroke-width="1.1"/>
<polygon points="41.1,81.5 32.0,87.3 21.0,85.0 24.9,74.0 35.3,71.2" fill="#d2d2d2" stroke="#222" stroke-width="1.1"/>
<polygon points="52.2,62.0 45.2,67.1 36.2,65.7 38.8,56.7 47.0,54.0" fill="#d2d2d2" stroke="#222" stroke-width="1.1"/></g>
<g transform="translate(0 -84)"><polygon points="94.0,5.5 83.6,9.7 72.7,5.1 78.9,-5.3 90.1,-6.2" fill="#d2d2d2" stroke="#222" stroke-width="1.1"/>
<ellipse cx="77.7" cy="83.9" rx="8.1" ry="5.0" transform="rotate(1 77.7 83.9)" fill="#d2d2d2" stroke="#222" stroke-width="1.1"/>
<polygon points="19.5,35.2 14.5,40.3 7.1,40.4 8.1,32.8 14.3,29.5" fill="#d2d2d2" stroke="#222" stroke-width="1.1"/>
<polygon points="21.4,47.2 12.4,52.2 2.0,49.3 6.4,39.1 16.4,37.0" fill="#d2d2d2" stroke="#222" stroke-width="1.1"/>
<polygon points="73.1,23.6 69.7,31.0 61.8,34.0 59.8,25.5 65.2,19.5" fill="#d2d2d2" stroke="#222" stroke-width="1.1"/>
<polygon points="32.6,8.5 25.6,14.7 15.8,14.1 17.8,4.2 26.3,0.4" fill="#d2d2d2" stroke="#222" stroke-width="1.1"/>
<ellipse cx="65.0" cy="2.0" rx="10.4" ry="6.4" transform="rotate(-6 65.0 2.0)" fill="#d2d2d2" stroke="#222" stroke-width="1.1"/>
<polygon points="12.9,23.7 9.4,33.4 -0.3,38.0 -3.7,27.5 2.4,19.4" fill="#d2d2d2" stroke="#222" stroke-width="1.1"/>
<ellipse cx="42.7" cy="3.8" rx="7.9" ry="4.9" transform="rotate(18 42.7 3.8)" fill="#d2d2d2" stroke="#222" stroke-width="1.1"/>
<polygon points="40.7,25.6 33.8,32.4 23.7,32.5 25.1,22.1 33.6,17.6" fill="#d2d2d2" stroke="#222" stroke-width="1.1"/>
<polygon points="56.6,74.0 48.5,78.2 39.4,75.4 43.5,66.5 52.4,64.8" fill="#d2d2d2" stroke="#222" stroke-width="1.1"/>
<ellipse cx="27.3" cy="75.1" rx="8.2" ry="5.1" transform="rotate(-3 27.3 75.1)" fill="#d2d2d2" stroke="#222" stroke-width="1.1"/>
<polygon points="41.6,8.1 38.9,16.0 31.1,20.0 28.2,11.5 33.0,4.7" fill="#d2d2d2" stroke="#222" stroke-width="1.1"/>
<polygon points="41.1,81.5 32.0,87.3 21.0,85.0 24.9,74.0 35.3,71.2" fill="#d2d2d2" stroke="#222" stroke-width="1.1"/>
<polygon points="52.2,62.0 45.2,67.1 36.2,65.7 38.8,56.7 47.0,54.0" fill="#d2d2d2" stroke="#222" stroke-width="1.1"/></g>
<g transform="translate(0 0)"><polygon points="94.0,5.5 83.6,9.7 72.7,5.1 78.9,-5.3 90.1,-6.2" fill="#d2d2d2" stroke="#222" stroke-width="1.1"/>
<ellipse cx="77.7" cy="83.9" rx="8.1" ry="5.0" transform="rotate(1 77.7 83.9)" fill="#d2d2d2" stroke="#222" stroke-width="1.1"/>
<polygon points="19.5,35.2 14.5,40.3 7.1,40.4 8.1,32.8 14.3,29.5" fill="#d2d2d2" stroke="#222" stroke-width="1.1"/>
<polygon points="21.4,47.2 12.4,52.2 2.0,49.3 6.4,39.1 16.4,37.0" fill="#d2d2d2" stroke="#222" stroke-width="1.1"/>
<polygon points="73.1,23.6 69.7,31.0 61.8,34.0 59.8,25.5 65.2,19.5" fill="#d2d2d2" stroke="#222" stroke-width="1.1"/>
<polygon points="32.6,8.5 25.6,14.7 15.8,14.1 17.8,4.2 26.3,0.4" fill="#d2d2d2" stroke="#222" stroke-width="1.1"/>
<ellipse cx="65.0" cy="2.0" rx="10.4" ry="6.4" transform="rotate(-6 65.0 2.0)" fill="#d2d2d2" stroke="#222" stroke-width="1.1"/>
<polygon points="12.9,23.7 9.4,33.4 -0.3,38.0 -3.7,27.5 2.4,19.4" fill="#d2d2d2" stroke="#222" stroke-width="1.1"/>
<ellipse cx="42.7" cy="3.8" rx="7.9" ry="4.9" transform="rotate(18 42.7 3.8)" fill="#d2d2d2" stroke="#222" stroke-width="1.1"/>
<polygon points="40.7,25.6 33.8,32.4 23.7,32.5 25.1,22.1 33.6,17.6" fill="#d2d2d2" stroke="#222" stroke-width="1.1"/>
<polygon points="56.6,74.0 48.5,78.2 39.4,75.4 43.5,66.5 52.4,64.8" fill="#d2d2d2" stroke="#222" stroke-width="1.1"/>
<ellipse cx="27.3" cy="75.1" rx="8.2" ry="5.1" transform="rotate(-3 27.3 75.1)" fill="#d2d2d2" stroke="#222" stroke-width="1.1"/>
<polygon points="41.6,8.1 38.9,16.0 31.1,20.0 28.2,11.5 33.0,4.7" fill="#d2d2d2" stroke="#222" stroke-width="1.1"/>
<polygon points="41.1,81.5 32.0,87.3 21.0,85.0 24.9,74.0 35.3,71.2" fill="#d2d2d2" stroke="#222" stroke-width="1.1"/>
<polygon points="52.2,62.0 45.2,67.1 36.2,65.7 38.8,56.7 47.0,54.0" fill="#d2d2d2" stroke="#222" stroke-width="1.1"/></g>
<g transform="translate(0 84)"><polygon points="94.0,5.5 83.6,9.7 72.7,5.1 78.9,-5.3 90.1,-6.2" fill="#d2d2d2" stroke="#222" stroke-width="1.1"/>
<ellipse cx="77.7" cy="83.9" rx="8.1" ry="5.0" transform="rotate(1 77.7 83.9)" fill="#d2d2d2" stroke="#222" stroke-width="1.1"/>
<polygon points="19.5,35.2 14.5,40.3 7.1,40.4 8.1,32.8 14.3,29.5" fill="#d2d2d2" stroke="#222" stroke-width="1.1"/>
<polygon points="21.4,47.2 12.4,52.2 2.0,49.3 6.4,39.1 16.4,37.0" fill="#d2d2d2" stroke="#222" stroke-width="1.1"/>
<polygon points="73.1,23.6 69.7,31.0 61.8,34.0 59.8,25.5 65.2,19.5" fill="#d2d2d2" stroke="#222" stroke-width="1.1"/>
<polygon points="32.6,8.5 25.6,14.7 15.8,14.1 17.8,4.2 26.3,0.4" fill="#d2d2d2" stroke="#222" stroke-width="1.1"/>
<ellipse cx="65.0" cy="2.0" rx="10.4" ry="6.4" transform="rotate(-6 65.0 2.0)" fill="#d2d2d2" stroke="#222" stroke-width="1.1"/>
<polygon points="12.9,23.7 9.4,33.4 -0.3,38.0 -3.7,27.5 2.4,19.4" fill="#d2d2d2" stroke="#222" stroke-width="1.1"/>
<ellipse cx="42.7" cy="3.8" rx="7.9" ry="4.9" transform="rotate(18 42.7 3.8)" fill="#d2d2d2" stroke="#222" stroke-width="1.1"/>
<polygon points="40.7,25.6 33.8,32.4 23.7,32.5 25.1,22.1 33.6,17.6" fill="#d2d2d2" stroke="#222" stroke-width="1.1"/>
<polygon points="56.6,74.0 48.5,78.2 39.4,75.4 43.5,66.5 52.4,64.8" fill="#d2d2d2" stroke="#222" stroke-width="1.1"/>
<ellipse cx="27.3" cy="75.1" rx="8.2" ry="5.1" transform="rotate(-3 27.3 75.1)" fill="#d2d2d2" stroke="#222" stroke-width="1.1"/>
<polygon points="41.6,8.1 38.9,16.0 31.1,20.0 28.2,11.5 33.0,4.7" fill="#d2d2d2" stroke="#222" stroke-width="1.1"/>
<polygon points="41.1,81.5 32.0,87.3 21.0,85.0 24.9,74.0 35.3,71.2" fill="#d2d2d2" stroke="#222" stroke-width="1.1"/>
<polygon points="52.2,62.0 45.2,67.1 36.2,65.7 38.8,56.7 47.0,54.0" fill="#d2d2d2" stroke="#222" stroke-width="1.1"/></g>
<g transform="translate(84 -84)"><polygon points="94.0,5.5 83.6,9.7 72.7,5.1 78.9,-5.3 90.1,-6.2" fill="#d2d2d2" stroke="#222" stroke-width="1.1"/>
<ellipse cx="77.7" cy="83.9" rx="8.1" ry="5.0" transform="rotate(1 77.7 83.9)" fill="#d2d2d2" stroke="#222" stroke-width="1.1"/>
<polygon points="19.5,35.2 14.5,40.3 7.1,40.4 8.1,32.8 14.3,29.5" fill="#d2d2d2" stroke="#222" stroke-width="1.1"/>
<polygon points="21.4,47.2 12.4,52.2 2.0,49.3 6.4,39.1 16.4,37.0" fill="#d2d2d2" stroke="#222" stroke-width="1.1"/>
<polygon points="73.1,23.6 69.7,31.0 61.8,34.0 59.8,25.5 65.2,19.5" fill="#d2d2d2" stroke="#222" stroke-width="1.1"/>
<polygon points="32.6,8.5 25.6,14.7 15.8,14.1 17.8,4.2 26.3,0.4" fill="#d2d2d2" stroke="#222" stroke-width="1.1"/>
<ellipse cx="65.0" cy="2.0" rx="10.4" ry="6.4" transform="rotate(-6 65.0 2.0)" fill="#d2d2d2" stroke="#222" stroke-width="1.1"/>
<polygon points="12.9,23.7 9.4,33.4 -0.3,38.0 -3.7,27.5 2.4,19.4" fill="#d2d2d2" stroke="#222" stroke-width="1.1"/>
<ellipse cx="42.7" cy="3.8" rx="7.9" ry="4.9" transform="rotate(18 42.7 3.8)" fill="#d2d2d2" stroke="#222" stroke-width="1.1"/>
<polygon points="40.7,25.6 33.8,32.4 23.7,32.5 25.1,22.1 33.6,17.6" fill="#d2d2d2" stroke="#222" stroke-width="1.1"/>
<polygon points="56.6,74.0 48.5,78.2 39.4,75.4 43.5,66.5 52.4,64.8" fill="#d2d2d2" stroke="#222" stroke-width="1.1"/>
<ellipse cx="27.3" cy="75.1" rx="8.2" ry="5.1" transform="rotate(-3 27.3 75.1)" fill="#d2d2d2" stroke="#222" stroke-width="1.1"/>
<polygon points="41.6,8.1 38.9,16.0 31.1,20.0 28.2,11.5 33.0,4.7" fill="#d2d2d2" stroke="#222" stroke-width="1.1"/>
<polygon points="41.1,81.5 32.0,87.3 21.0,85.0 24.9,74.0 35.3,71.2" fill="#d2d2d2" stroke="#222" stroke-width="1.1"/>
<polygon points="52.2,62.0 45.2,67.1 36.2,65.7 38.8,56.7 47.0,54.0" fill="#d2d2d2" stroke="#222" stroke-width="1.1"/></g>
<g transform="translate(84 0)"><polygon points="94.0,5.5 83.6,9.7 72.7,5.1 78.9,-5.3 90.1,-6.2" fill="#d2d2d2" stroke="#222" stroke-width="1.1"/>
<ellipse cx="77.7" cy="83.9" rx="8.1" ry="5.0" transform="rotate(1 77.7 83.9)" fill="#d2d2d2" stroke="#222" stroke-width="1.1"/>
<polygon points="19.5,35.2 14.5,40.3 7.1,40.4 8.1,32.8 14.3,29.5" fill="#d2d2d2" stroke="#222" stroke-width="1.1"/>
<polygon points="21.4,47.2 12.4,52.2 2.0,49.3 6.4,39.1 16.4,37.0" fill="#d2d2d2" stroke="#222" stroke-width="1.1"/>
<polygon points="73.1,23.6 69.7,31.0 61.8,34.0 59.8,25.5 65.2,19.5" fill="#d2d2d2" stroke="#222" stroke-width="1.1"/>
<polygon points="32.6,8.5 25.6,14.7 15.8,14.1 17.8,4.2 26.3,0.4" fill="#d2d2d2" stroke="#222" stroke-width="1.1"/>
<ellipse cx="65.0" cy="2.0" rx="10.4" ry="6.4" transform="rotate(-6 65.0 2.0)" fill="#d2d2d2" stroke="#222" stroke-width="1.1"/>
<polygon points="12.9,23.7 9.4,33.4 -0.3,38.0 -3.7,27.5 2.4,19.4" fill="#d2d2d2" stroke="#222" stroke-width="1.1"/>
<ellipse cx="42.7" cy="3.8" rx="7.9" ry="4.9" transform="rotate(18 42.7 3.8)" fill="#d2d2d2" stroke="#222" stroke-width="1.1"/>
<polygon points="40.7,25.6 33.8,32.4 23.7,32.5 25.1,22.1 33.6,17.6" fill="#d2d2d2" stroke="#222" stroke-width="1.1"/>
<polygon points="56.6,74.0 48.5,78.2 39.4,75.4 43.5,66.5 52.4,64.8" fill="#d2d2d2" stroke="#222" stroke-width="1.1"/>
<ellipse cx="27.3" cy="75.1" rx="8.2" ry="5.1" transform="rotate(-3 27.3 75.1)" fill="#d2d2d2" stroke="#222" stroke-width="1.1"/>
<polygon points="41.6,8.1 38.9,16.0 31.1,20.0 28.2,11.5 33.0,4.7" fill="#d2d2d2" stroke="#222" stroke-width="1.1"/>
<polygon points="41.1,81.5 32.0,87.3 21.0,85.0 24.9,74.0 35.3,71.2" fill="#d2d2d2" stroke="#222" stroke-width="1.1"/>
<polygon points="52.2,62.0 45.2,67.1 36.2,65.7 38.8,56.7 47.0,54.0" fill="#d2d2d2" stroke="#222" stroke-width="1.1"/></g>
<g transform="translate(84 84)"><polygon points="94.0,5.5 83.6,9.7 72.7,5.1 78.9,-5.3 90.1,-6.2" fill="#d2d2d2" stroke="#222" stroke-width="1.1"/>
<ellipse cx="77.7" cy="83.9" rx="8.1" ry="5.0" transform="rotate(1 77.7 83.9)" fill="#d2d2d2" stroke="#222" stroke-width="1.1"/>
<polygon points="19.5,35.2 14.5,40.3 7.1,40.4 8.1,32.8 14.3,29.5" fill="#d2d2d2" stroke="#222" stroke-width="1.1"/>
<polygon points="21.4,47.2 12.4,52.2 2.0,49.3 6.4,39.1 16.4,37.0" fill="#d2d2d2" stroke="#222" stroke-width="1.1"/>
<polygon points="73.1,23.6 69.7,31.0 61.8,34.0 59.8,25.5 65.2,19.5" fill="#d2d2d2" stroke="#222" stroke-width="1.1"/>
<polygon points="32.6,8.5 25.6,14.7 15.8,14.1 17.8,4.2 26.3,0.4" fill="#d2d2d2" stroke="#222" stroke-width="1.1"/>
<ellipse cx="65.0" cy="2.0" rx="10.4" ry="6.4" transform="rotate(-6 65.0 2.0)" fill="#d2d2d2" stroke="#222" stroke-width="1.1"/>
<polygon points="12.9,23.7 9.4,33.4 -0.3,38.0 -3.7,27.5 2.4,19.4" fill="#d2d2d2" stroke="#222" stroke-width="1.1"/>
<ellipse cx="42.7" cy="3.8" rx="7.9" ry="4.9" transform="rotate(18 42.7 3.8)" fill="#d2d2d2" stroke="#222" stroke-width="1.1"/>
<polygon points="40.7,25.6 33.8,32.4 23.7,32.5 25.1,22.1 33.6,17.6" fill="#d2d2d2" stroke="#222" stroke-width="1.1"/>
<polygon points="56.6,74.0 48.5,78.2 39.4,75.4 43.5,66.5 52.4,64.8" fill="#d2d2d2" stroke="#222" stroke-width="1.1"/>
<ellipse cx="27.3" cy="75.1" rx="8.2" ry="5.1" transform="rotate(-3 27.3 75.1)" fill="#d2d2d2" stroke="#222" stroke-width="1.1"/>
<polygon points="41.6,8.1 38.9,16.0 31.1,20.0 28.2,11.5 33.0,4.7" fill="#d2d2d2" stroke="#222" stroke-width="1.1"/>
<polygon points="41.1,81.5 32.0,87.3 21.0,85.0 24.9,74.0 35.3,71.2" fill="#d2d2d2" stroke="#222" stroke-width="1.1"/>
<polygon points="52.2,62.0 45.2,67.1 36.2,65.7 38.8,56.7 47.0,54.0" fill="#d2d2d2" stroke="#222" stroke-width="1.1"/></g></pattern></defs>
<rect width="120" height="120" fill="url(#pat_Dcm)" stroke="black" stroke-width="1"/>
</svg>
