<svg xmlns="http://www.w3.org/2000/svg" width="120" height="120" viewBox="0 0 120 120">
<defs><clipPath id="clip84"><rect width="84" height="84"/></clipPath><pattern id="pat_Dmm" patternUnits="userSpaceOnUse" width="84" height="84"><rect width="84" height="84" fill="white"/><g transform="translate(-84 -84)"><polygon points="24.8,22.4 21.5,27.7 15.3,29.2 14.6,22.6 19.2,18.5" fill="#d2d2d2" stroke="#222" stroke-width="1.1"/>
<polygon points="25.6,83.2 20.1,84.4 15.2,81.2 19.2,76.6 24.7,77.2" fill="#d2d2d2" stroke="#222" stroke-width="1.1"/>
<ellipse cx="6.7" cy="40.0" rx="7.2" ry="4.5" transform="rotate(-28 6.7 40.0)" fill="#d2d2d2" stroke="#222" stroke-width="1.1"/>
<ellipse cx="29.5" cy="10.2" rx="5.4" ry="3.4" transform="rotate(3 29.5 10.2)" fill="#d2d2d2" stroke="#222" stroke-width="1.1"/>
<ellipse cx="8.6" cy="30.8" rx="7.3" ry="4.5" transform="rotate(-22 8.6 30.8)" fill="#d2d2d2" stroke="#222" stroke-width="1.1"/>
<polygon points="57.2,73.0 50.8,74.8 44.6,71.5 48.9,65.7 55.5,65.8" fill="#d2d2d2" stroke="#222" stroke-width="1.1"/>
<ellipse cx="76.5" cy="63.9" rx="6.9" ry="4.3" transform="rotate(0 76.5 63.9)" fill="#d2d2d2" stroke="#222" stroke-width="1.1"/>
<ellipse cx="61.1" cy="38.9" rx="7.2" ry="4.5" transform="rotate(-14 61.1 38.9)" fill="#d2d2d2" stroke="#222" stroke-width="1.1"/><circle cx="74.9" cy="31.3" r="1.7" fill="#333"/>
<circle cx="33.0" cy="21.3" r="1.7" fill="#333"/>
<circle cx="24.0" cy="77.1" r="1.7" fill="#333"/>
<circle cx="80.3" cy="46.4" r="1.7" fill="#333"/>
<circle cx="83.6" cy="84.0" r="1.7" fill="#333"/>
<circle cx="72.2" cy="72.5" r="1.7" fill="#333"/>
<circle cx="31.0" cy="75.0" r="1.7" fill="#333"/>
<circle cx="17.2" cy="26.8" r="1.7" fill="#333"/>
<circle cx="5.9" cy="73.7" r="1.7" fill="#333"/>
<circle cx="76.1" cy="71.2" r="1.7" fill="#333"/>
<circle cx="24.4" cy="21.5" r="1.7" fill="#333"/>
<circle cx="20.5" cy="37.9" r="1.7" fill="#333"/></g>
<g transform="translate(-84 0)"><polygon points="24.8,22.4 21.5,27.7 15.3,29.2 14.6,22.6 19.2,18.5" fill="#d2d2d2" stroke="#222" stroke-width="1.1"/>
<polygon points="25.6,83.2 20.1,84.4 15.2,81.2 19.2,76.6 24.7,77.2" fill="#d2d2d2" stroke="#222" stroke-width="1.1"/>
<ellipse cx="6.7" cy="40.0" rx="7.2" ry="4.5" transform="rotate(-28 6.7 40.0)" fill="#d2d2d2" stroke="#222" stroke-width="1.1"/>
<ellipse cx="29.5" cy="10.2" rx="5.4" ry="3.4" transform="rotate(3 29.5 10.2)" fill="#d2d2d2" stroke="#222" stroke-width="1.1"/>
<ellipse cx="8.6" cy="30.8" rx="7.3" ry="4.5" transform="rotate(-22 8.6 30.8)" fill="#d2d2d2" stroke="#222" stroke-width="1.1"/>
<polygon points="57.2,73.0 50.8,74.8 44.6,71.5 48.9,65.7 55.5,65.8" fill="#d2d2d2" stroke="#222" stroke-width="1.1"/>
<ellipse cx="76.5" cy="63.9" rx="6.9" ry="4.3" transform="rotate(0 76.5 63.9)" fill="#d2d2d2" stroke="#222" stroke-width="1.1"/>
<ellipse cx="61.1" cy="38.9" rx="7.2" ry="4.5" transform="rotate(-14 61.1 38.9)" fill="#d2d2d2" stroke="#222" stroke-width="1.1"/><circle cx="74.9" cy="31.3" r="1.7" fill="#333"/>
<circle cx="33.0" cy="21.3" r="1.7" fill="#333"/>
<circle cx="24.0" cy="77.1" r="1.7" fill="#333"/>
<circle cx="80.3" cy="46.4" r="1.7" fill="#333"/>
<circle cx="83.6" cy="84.0" r="1.7" fill="#333"/>
<circle cx="72.2" cy="72.5" r="1.7" fill="#333"/>
<circle cx="31.0" cy="75.0" r="1.7" fill="#333"/>
<circle cx="17.2" cy="26.8" r="1.7" fill="#333"/>
<circle cx="5.9" cy="73.7" r="1.7" fill="#333"/>
<circle cx="76.1" cy="71.2" r="1.7" fill="#333"/>
<circle cx="24.4" cy="21.5" r="1.7" fill="#333"/>
<circle cx="20.5" cy="37.9" r="1.7" fill="#333"/></g>
<g transform="translate(-84 84)"><polygon points="24.8,22.4 21.5,27.7 15.3,29.2 14.6,22.6 19.2,18.5" fill="#d2d2d2" stroke="#222" stroke-width="1.1"/>
<polygon points="25.6,83.2 20.1,84.4 15.2,81.2 19.2,76.6 24.7,77.2" fill="#d2d2d2" stroke="#222" stroke-width="1.1"/>
<ellipse cx="6.7" cy="40.0" rx="7.2" ry="4.5" transform="rotate(-28 6.7 40.0)" fill="#d2d2d2" stroke="#222" stroke-width="1.1"/>
<ellipse cx="29.5" cy="10.2" rx="5.4" ry="3.4" transform="rotate(3 29.5 10.2)" fill="#d2d2d2" stroke="#222" stroke-width="1.1"/>
<ellipse cx="8.6" cy="30.8" rx="7.3" ry="4.5" transform="rotate(-22 8.6 30.8)" fill="#d2d2d2" stroke="#222" stroke-width="1.1"/>
<polygon points="57.2,73.0 50.8,74.8 44.6,71.5 48.9,65.7 55.5,65.8" fill="#d2d2d2" stroke="#222" stroke-width="1.1"/>
<ellipse cx="76.5" cy="63.9" rx="6.9" ry="4.3" transform="rotate(0 76.5 63.9)" fill="#d2d2d2" stroke="#222" stroke-width="1.1"/>
<ellipse cx="61.1" cy="38.9" rx="7.2" ry="4.5" transform="rotate(-14 61.1 38.9)" fill="#d2d2d2" stroke="#222" stroke-width="1.1"/><circle cx="74.9" cy="31.3" r="1.7" fill="#333"/>
<circle cx="33.0" cy="21.3" r="1.7" fill="#333"/>
<circle cx="24.0" cy="77.1" r="1.7" fill="#333"/>
<circle cx="80.3" cy="46.4" r="1.7" fill="#333"/>
<circle cx="83.6" cy="84.0" r="1.7" fill="#333"/>
<circle cx="72.2" cy="72.5" r="1.7" fill="#333"/>
<circle cx="31.0" cy="75.0" r="1.7" fill="#333"/>
<circle cx="17.2" cy="26.8" r="1.7" fill="#333"/>
<circle cx="5.9" cy="73.7" r="1.7" fill="#333"/>
<circle cx="76.1" cy="71.2" r="1.7" fill="#333"/>
<circle cx="24.4" cy="21.5" r="1.7" fill="#333"/>
<circle cx="20.5" cy="37.9" r="1.7" fill="#333"/></g>
<g transform="translate(0 -84)"><polygon points="24.8,22.4 21.5,27.7 15.3,29.2 14.6,22.6 19.2,18.5" fill="#d2d2d2" stroke="#222" stroke-width="1.1"/>
<polygon points="25.6,83.2 20.1,84.4 15.2,81.2 19.2,76.6 24.7,77.2" fill="#d2d2d2" stroke="#222" stroke-width="1.1"/>
<ellipse cx="6.7" cy="40.0" rx="7.2" ry="4.5" transform="rotate(-28 6.7 40.0)" fill="#d2d2d2" stroke="#222" stroke-width="1.1"/>
<ellipse cx="29.5" cy="10.2" rx="5.4" ry="3.4" transform="rotate(3 29.5 10.2)" fill="#d2d2d2" stroke="#222" stroke-width="1.1"/>
<ellipse cx="8.6" cy="30.8" rx="7.3" ry="4.5" transform="rotate(-22 8.6 30.8)" fill="#d2d2d2" stroke="#222" stroke-width="1.1"/>
<polygon points="57.2,73.0 50.8,74.8 44.6,71.5 48.9,65.7 55.5,65.8" fill="#d2d2d2" stroke="#222" stroke-width="1.1"/>
<ellipse cx="76.5" cy="63.9" rx="6.9" ry="4.3" transform="rotate(0 76.5 63.9)" fill="#d2d2d2" stroke="#222" stroke-width="1.1"/>
<ellipse cx="61.1" cy="38.9" rx="7.2" ry="4.5" transform="rotate(-14 61.1 38.9)" fill="#d2d2d2" stroke="#222" stroke-width="1.1"/><circle cx="74.9" cy="31.3" r="1.7" fill="#333"/>
<circle cx="33.0" cy="21.3" r="1.7" fill="#333"/>
<circle cx="24.0" cy="77.1" r="1.7" fill="#333"/>
<circle cx="80.3" cy="46.4" r="1.7" fill="#333"/>
<circle cx="83.6" cy="84.0" r="1.7" fill="#333"/>
<circle cx="72.2" cy="72.5" r="1.7" fill="#333"/>
<circle cx="31.0" cy="75.0" r="1.7" fill="#333"/>
<circle cx="17.2" cy="26.8" r="1.7" fill="#333"/>
<circle cx="5.9" cy="73.7" r="1.7" fill="#333"/>
<circle cx="76.1" cy="71.2" r="1.7" fill="#333"/>
<circle cx="24.4" cy="21.5" r="1.7" fill="#333"/>
<circle cx="20.5" cy="37.9" r="1.7" fill="#333"/></g>
<g transform="translate(0 0)"><polygon points="24.8,22.4 21.5,27.7 15.3,29.2 14.6,22.6 19.2,18.5" fill="#d2d2d2" stroke="#222" stroke-width="1.1"/>
<polygon points="25.6,83.2 20.1,84.4 15.2,81.2 19.2,76.6 24.7,77.2" fill="#d2d2d2" stroke="#222" stroke-width="1.1"/>
<ellipse cx="6.7" cy="40.0" rx="7.2" ry="4.5" transform="rotate(-28 6.7 40.0)" fill="#d2d2d2" stroke="#222" stroke-width="1.1"/>
<ellipse cx="29.5" cy="10.2" rx="5.4" ry="3.4" transform="rotate(3 29.5 10.2)" fill="#d2d2d2" stroke="#222" stroke-width="1.1"/>
<ellipse cx="8.6" cy="30.8" rx="7.3" ry="4.5" transform="rotate(-22 8.6 30.8)" fill="#d2d2d2" stroke="#222" stroke-width="1.1"/>
<polygon points="57.2,73.0 50.8,74.8 44.6,71.5 48.9,65.7 55.5,65.8" fill="#d2d2d2" stroke="#222" stroke-width="1.1"/>
<ellipse cx="76.5" cy="63.9" rx="6.9" ry="4.3" transform="rotate(0 76.5 63.9)" fill="#d2d2d2" stroke="#222" stroke-width="1.1"/>
<ellipse cx="61.1" cy="38.9" rx="7.2" ry="4.5" transform="rotate(-14 61.1 38.9)" fill="#d2d2d2" stroke="#222" stroke-width="1.1"/><circle cx="74.9" cy="31.3" r="1.7" fill="#333"/>
<circle cx="33.0" cy="21.3" r="1.7" fill="#333"/>
<circle cx="24.0" cy="77.1" r="1.7" fill="#333"/>
<circle cx="80.3" cy="46.4" r="1.7" fill="#333"/>
<circle cx="83.6" cy="84.0" r="1.7" fill="#333"/>
<circle cx="72.2" cy="72.5" r="1.7" fill="#333"/>
<circle cx="31.0" cy="75.0" r="1.7" fill="#333"/>
<circle cx="17.2" cy="26.8" r="1.7" fill="#333"/>
<circle cx="5.9" cy="73.7" r="1.7" fill="#333"/>
<circle cx="76.1" cy="71.2" r="1.7" fill="#333"/>
<circle cx="24.4" cy="21.5" r="1.7" fill="#333"/>
<circle cx="20.5" cy="37.9" r="1.7" fill="#333"/></g>
<g transform="translate(0 84)"><polygon points="24.8,22.4 21.5,27.7 15.3,29.2 14.6,22.6 19.2,18.5" fill="#d2d2d2" stroke="#222" stroke-width="1.1"/>
<polygon points="25.6,83.2 20.1,84.4 15.2,81.2 19.2,76.6 24.7,77.2" fill="#d2d2d2" stroke="#222" stroke-width="1.1"/>
<ellipse cx="6.7" cy="40.0" rx="7.2" ry="4.5" transform="rotate(-28 6.7 40.0)" fill="#d2d2d2" stroke="#222" stroke-width="1.1"/>
<ellipse cx="29.5" cy="10.2" rx="5.4" ry="3.4" transform="rotate(3 29.5 10.2)" fill="#d2d2d2" stroke="#222" stroke-width="1.1"/>
<ellipse cx="8.6" cy="30.8" rx="7.3" ry="4.5" transform="rotate(-22 8.6 30.8)" fill="#d2d2d2" stroke="#222" stroke-width="1.1"/>
<polygon points="57.2,73.0 50.8,74.8 44.6,71.5 48.9,65.7 55.5,65.8" fill="#d2d2d2" stroke="#222" stroke-width="1.1"/>
<ellipse cx="76.5" cy="63.9" rx="6.9" ry="4.3" transform="rotate(0 76.5 63.9)" fill="#d2d2d2" stroke="#222" stroke-width="1.1"/>
<ellipse cx="61.1" cy="38.9" rx="7.2" ry="4.5" transform="rotate(-14 61.1 38.9)" fill="#d2d2d2" stroke="#222" stroke-width="1.1"/><circle cx="74.9" cy="31.3" r="1.7" fill="#333"/>
<circle cx="33.0" cy="21.3" r="1.7" fill="#333"/>
<circle cx="24.0" cy="77.1" r="1.7" fill="#333"/>
<circle cx="80.3" cy="46.4" r="1.7" fill="#333"/>
<circle cx="83.6" cy="84.0" r="1.7" fill="#333"/>
<circle cx="72.2" cy="72.5" r="1.7" fill="#333"/>
<circle cx="31.0" cy="75.0" r="1.7" fill="#333"/>
<circle cx="17.2" cy="26.8" r="1.7" fill="#333"/>
<circle cx="5.9" cy="73.7" r="1.7" fill="#333"/>
<circle cx="76.1" cy="71.2" r="1.7" fill="#333"/>
<circle cx="24.4" cy="21.5" r="1.7" fill="#333"/>
<circle cx="20.5" cy="37.9" r="1.7" fill="#333"/></g>
<g transform="translate(84 -84)"><polygon points="24.8,22.4 21.5,27.7 15.3,29.2 14.6,22.6 19.2,18.5" fill="#d2d2d2" stroke="#222" stroke-width="1.1"/>
<polygon points="25.6,83.2 20.1,84.4 15.2,81.2 19.2,76.6 24.7,77.2" fill="#d2d2d2" stroke="#222" stroke-width="1.1"/>
<ellipse cx="6.7" cy="40.0" rx="7.2" ry="4.5" transform="rotate(-28 6.7 40.0)" fill="#d2d2d2" stroke="#222" stroke-width="1.1"/>
<ellipse cx="29.5" cy="10.2" rx="5.4" ry="3.4" transform="rotate(3 29.5 10.2)" fill="#d2d2d2" stroke="#222" stroke-width="1.1"/>
<ellipse cx="8.6" cy="30.8" rx="7.3" ry="4.5" transform="rotate(-22 8.6 30.8)" fill="#d2d2d2" stroke="#222" stroke-width="1.1"/>
<polygon points="57.2,73.0 50.8,74.8 44.6,71.5 48.9,65.7 55.5,65.8" fill="#d2d2d2" stroke="#222" stroke-width="1.1"/>
<ellipse cx="76.5" cy="63.9" rx="6.9" ry="4.3" transform="rotate(0 76.5 63.9)" fill="#d2d2d2" stroke="#222" stroke-width="1.1"/>
<ellipse cx="61.1" cy="38.9" rx="7.2" ry="4.5" transform="rotate(-14 61.1 38.9)" fill="#d2d2d2" stroke="#222" stroke-width="1.1"/><circle cx="74.9" cy="31.3" r="1.7" fill="#333"/>
<circle cx="33.0" cy="21.3" r="1.7" fill="#333"/>
<circle cx="24.0" cy="77.1" r="1.7" fill="#333"/>
<circle cx="80.3" cy="46.4" r="1.7" fill="#333"/>
<circle cx="83.6" cy="84.0" r="1.7" fill="#333"/>
<circle cx="72.2" cy="72.5" r="1.7" fill="#333"/>
<circle cx="31.0" cy="75.0" r="1.7" fill="#333"/>
<circle cx="17.2" cy="26.8" r="1.7" fill="#333"/>
<circle cx="5.9" cy="73.7" r="1.7" fill="#333"/>
<circle cx="76.1" cy="71.2" r="1.7" fill="#333"/>
<circle cx="24.4" cy="21.5" r="1.7" fill="#333"/>
<circle cx="20.5" cy="37.9" r="1.7" fill="#333"/></g>
<g transform="translate(84 0)"><polygon points="24.8,22.4 21.5,27.7 15.3,29.2 14.6,22.6 19.2,18.5" fill="#d2d2d2" stroke="#222" stroke-width="1.1"/>
<polygon points="25.6,83.2 20.1,84.4 15.2,81.2 19.2,76.6 24.7,77.2" fill="#d2d2d2" stroke="#222" stroke-width="1.1"/>
<ellipse cx="6.7" cy="40.0" rx="7.2" ry="4.5" transform="rotate(-28 6.7 40.0)" fill="#d2d2d2" stroke="#222" stroke-width="1.1"/>
<ellipse cx="29.5" cy="10.2" rx="5.4" ry="3.4" transform="rotate(3 29.5 10.2)" fill="#d2d2d2" stroke="#222" stroke-width="1.1"/>
<ellipse cx="8.6" cy="30.8" rx="7.3" ry="4.5" transform="rotate(-22 8.6 30.8)" fill="#d2d2d2" stroke="#222" stroke-width="1.1"/>
<polygon points="57.2,73.0 50.8,74.8 44.6,71.5 48.9,65.7 55.5,65.8" fill="#d2d2d2" stroke="#222" stroke-width="1.1"/>
<ellipse cx="76.5" cy="63.9" rx="6.9" ry="4.3" transform="rotate(0 76.5 63.9)" fill="#d2d2d2" stroke="#222" stroke-width="1.1"/>
<ellipse cx="61.1" cy="38.9" rx="7.2" ry="4.5" transform="rotate(-14 61.1 38.9)" fill="#d2d2d2" stroke="#222" stroke-width="1.1"/><circle cx="74.9" cy="31.3" r="1.7" fill="#333"/>
<circle cx="33.0" cy="21.3" r="1.7" fill="#333"/>
<circle cx="24.0" cy="77.1" r="1.7" fill="#333"/>
<circle cx="80.3" cy="46.4" r="1.7" fill="#333"/>
<circle cx="83.6" cy="84.0" r="1.7" fill="#333"/>
<circle cx="72.2" cy="72.5" r="1.7" fill="#333"/>
<circle cx="31.0" cy="75.0" r="1.7" fill="#333"/>
<circle cx="17.2" cy="26.8" r="1.7" fill="#333"/>
<circle cx="5.9" cy="73.7" r="1.7" fill="#333"/>
<circle cx="76.1" cy="71.2" r="1.7" fill="#333"/>
<circle cx="24.4" cy="21.5" r="1.7" fill="#333"/>
<circle cx="20.5" cy="37.9" r="1.7" fill="#333"/></g>
<g transform="translate(84 84)"><polygon points="24.8,22.4 21.5,27.7 15.3,29.2 14.6,22.6 19.2,18.5" fill="#d2d2d2" stroke="#222" stroke-width="1.1"/>
<polygon points="25.6,83.2 20.1,84.4 15.2,81.2 19.2,76.6 24.7,77.2" fill="#d2d2d2" stroke="#222" stroke-width="1.1"/>
<ellipse cx="6.7" cy="40.0" rx="7.2" ry="4.5" transform="rotate(-28 6.7 40.0)" fill="#d2d2d2" stroke="#222" stroke-width="1.1"/>
<ellipse cx="29.5" cy="10.2" rx="5.4" ry="3.4" transform="rotate(3 29.5 10.2)" fill="#d2d2d2" stroke="#222" stroke-width="1.1"/>
<ellipse cx="8.6" cy="30.8" rx="7.3" ry="4.5" transform="rotate(-22 8.6 30.8)" fill="#d2d2d2" stroke="#222" stroke-width="1.1"/>
<polygon points="57.2,73.0 50.8,74.8 44.6,71.5 48.9,65.7 55.5,65.8" fill="#d2d2d2" stroke="#222" stroke-width="1.1"/>
<ellipse cx="76.5" cy="63.9" rx="6.9" ry="4.3" transform="rotate(0 76.5 63.9)" fill="#d2d2d2" stroke="#222" stroke-width="1.1"/>
<ellipse cx="61.1" cy="38.9" rx="7.2" ry="4.5" transform="rotate(-14 61.1 38.9)" fill="#d2d2d2" stroke="#222" stroke-width="1.1"/><circle cx="74.9" cy="31.3" r="1.7" fill="#333"/>
<circle cx="33.0" cy="21.3" r="1.7" fill="#333"/>
<circle cx="24.0" cy="77.1" r="1.7" fill="#333"/>
<circle cx="80.3" cy="46.4" r="1.7" fill="#333"/>
<circle cx="83.6" cy="84.0" r="1.7" fill="#333"/>
<circle cx="72.2" cy="72.5" r="1.7" fill="#333"/>
<circle cx="31.0" cy="75.0" r="1.7" fill="#333"/>
<circle cx="17.2" cy="26.8" r="1.7" fill="#333"/>
<circle cx="5.9" cy="73.7" r="1.7" fill="#333"/>
<circle cx="76.1" cy="71.2" r="1.7" fill="#333"/>
<circle cx="24.4" cy="21.5" r="1.7" fill="#333"/>
<circle cx="20.5" cy="37.9" r="1.7" fill="#333"/></g></pattern></defs>
<rect width="120" height="120" fill="url(#pat_Dmm)" stroke="black" stroke-width="1"/>
</svg>
