<svg xmlns="http://www.w3.org/2000/svg" width="120" height="120" viewBox="0 0 120 120">
<defs><clipPath id="clip88"><rect width="88" height="88"/></clipPath><pattern id="pat_Dmm" patternUnits="userSpaceOnUse" width="88" height="88"><rect width="88" height="88" fill="white"/><g transform="translate(-88 -88)"><circle cx="78.5" cy="32.8" r="0.98" fill="#3a3a3a"/>
<circle cx="22.3" cy="25.2" r="1.34" fill="#3a3a3a"/>
<circle cx="84.1" cy="48.6" r="1.40" fill="#3a3a3a"/>
<circle cx="88.0" cy="75.6" r="1.30" fill="#3a3a3a"/>
<circle cx="32.4" cy="78.6" r="0.84" fill="#3a3a3a"/>
<circle cx="28.1" cy="6.1" r="1.31" fill="#3a3a3a"/>
<circle cx="79.8" cy="74.6" r="0.90" fill="#3a3a3a"/>
<circle cx="22.5" cy="21.5" r="1.02" fill="#3a3a3a"/>
<circle cx="11.4" cy="16.3" r="1.20" fill="#3a3a3a"/>
<circle cx="54.5" cy="57.6" r="0.75" fill="#3a3a3a"/>
<circle cx="31.1" cy="15.8" r="0.92" fill="#3a3a3a"/>
<circle cx="26.5" cy="14.0" r="1.09" fill="#3a3a3a"/>
<circle cx="23.7" cy="35.1" r="1.16" fill="#3a3a3a"/>
<circle cx="46.1" cy="74.1" r="1.27" fill="#3a3a3a"/>
<circle cx="22.6" cy="43.8" r="1.15" fill="#3a3a3a"/>
<circle cx="41.7" cy="16.5" r="1.07" fill="#3a3a3a"/>
<circle cx="65.9" cy="41.3" r="1.24" fill="#3a3a3a"/>
<circle cx="77.8" cy="3.3" r="0.82" fill="#3a3a3a"/><polygon points="24.2,86.0 21.2,86.9 19.3,84.5 21.0,81.7 24.6,82.4" fill="#d2d2d2" stroke="#222" stroke-width="1.1"/>
<ellipse cx="30.9" cy="10.6" rx="3.0" ry="1.9" transform="rotate(4 30.9 10.6)" fill="#d2d2d2" stroke="#222" stroke-width="1.1"/>
<ellipse cx="30.8" cy="71.7" rx="3.0" ry="1.9" transform="rotate(12 30.8 71.7)" fill="#d2d2d2" stroke="#222" stroke-width="1.1"/>
<polygon points="23.3,24.1 22.1,26.6 20.4,29.1 18.4,26.9 17.0,25.0 18.0,22.2 20.8,22.8" fill="#d2d2d2" stroke="#222" stroke-width="1.1"/>
<polygon points="57.6,75.7 54.4,77.5 52.1,75.5 49.8,73.3 52.0,70.9 54.9,69.7 56.5,72.4" fill="#d2d2d2" stroke="#222" stroke-width="1.1"/>
<polygon points="85.0,66.9 81.5,71.1 77.3,69.0 76.5,64.2 81.4,63.4" fill="#d2d2d2" stroke="#222" stroke-width="1.1"/>
<ellipse cx="7.0" cy="41.9" rx="5.2" ry="3.2" transform="rotate(-33 7.0 41.9)" fill="#d2d2d2" stroke="#222" stroke-width="1.1"/>
<polygon points="66.6,21.0 63.6,23.3 60.1,22.3 57.4,19.0 60.2,15.7 64.1,13.7 66.4,17.4" fill="#d2d2d2" stroke="#222" stroke-width="1.1"/>
<ellipse cx="64.0" cy="40.8" rx="5.2" ry="3.3" transform="rotate(-16 64.0 40.8)" fill="#d2d2d2" stroke="#222" stroke-width="1.1"/>
<polygon points="13.6,30.1 12.7,36.2 6.4,37.2 5.3,31.5 8.4,27.2" fill="#d2d2d2" stroke="#222" stroke-width="1.1"/>
<ellipse cx="60.0" cy="59.0" rx="6.1" ry="3.8" transform="rotate(-19 60.0 59.0)" fill="#d2d2d2" stroke="#222" stroke-width="1.1"/>
<ellipse cx="49.7" cy="7.8" rx="9.2" ry="5.7" transform="rotate(17 49.7 7.8)" fill="#d2d2d2" stroke="#222" stroke-width="1.1"/>
<polygon points="82.6,44.1 77.0,48.2 71.3,48.4 66.8,44.2 66.9,36.9 73.8,31.9 79.6,37.7" fill="#d2d2d2" stroke="#222" stroke-width="1.1"/></g>
<g transform="translate(-88 0)"><circle cx="78.5" cy="32.8" r="0.98" fill="#3a3a3a"/>
<circle cx="22.3" cy="25.2" r="1.34" fill="#3a3a3a"/>
<circle cx="84.1" cy="48.6" r="1.40" fill="#3a3a3a"/>
<circle cx="88.0" cy="75.6" r="1.30" fill="#3a3a3a"/>
<circle cx="32.4" cy="78.6" r="0.84" fill="#3a3a3a"/>
<circle cx="28.1" cy="6.1" r="1.31" fill="#3a3a3a"/>
<circle cx="79.8" cy="74.6" r="0.90" fill="#3a3a3a"/>
<circle cx="22.5" cy="21.5" r="1.02" fill="#3a3a3a"/>
<circle cx="11.4" cy="16.3" r="1.20" fill="#3a3a3a"/>
<circle cx="54.5" cy="57.6" r="0.75" fill="#3a3a3a"/>
<circle cx="31.1" cy="15.8" r="0.92" fill="#3a3a3a"/>
<circle cx="26.5" cy="14.0" r="1.09" fill="#3a3a3a"/>
<circle cx="23.7" cy="35.1" r="1.16" fill="#3a3a3a"/>
<circle cx="46.1" cy="74.1" r="1.27" fill="#3a3a3a"/>
<circle cx="22.6" cy="43.8" r="1.15" fill="#3a3a3a"/>
<circle cx="41.7" cy="16.5" r="1.07" fill="#3a3a3a"/>
<circle cx="65.9" cy="41.3" r="1.24" fill="#3a3a3a"/>
<circle cx="77.8" cy="3.3" r="0.82" fill="#3a3a3a"/><polygon points="24.2,86.0 21.2,86.9 19.3,84.5 21.0,81.7 24.6,82.4" fill="#d2d2d2" stroke="#222" stroke-width="1.1"/>
<ellipse cx="30.9" cy="10.6" rx="3.0" ry="1.9" transform="rotate(4 30.9 10.6)" fill="#d2d2d2" stroke="#222" stroke-width="1.1"/>
<ellipse cx="30.8" cy="71.7" rx="3.0" ry="1.9" transform="rotate(12 30.8 71.7)" fill="#d2d2d2" stroke="#222" stroke-width="1.1"/>
<polygon points="23.3,24.1 22.1,26.6 20.4,29.1 18.4,26.9 17.0,25.0 18.0,22.2 20.8,22.8" fill="#d2d2d2" stroke="#222" stroke-width="1.1"/>
<polygon points="57.6,75.7 54.4,77.5 52.1,75.5 49.8,73.3 52.0,70.9 54.9,69.7 56.5,72.4" fill="#d2d2d2" stroke="#222" stroke-width="1.1"/>
<polygon points="85.0,66.9 81.5,71.1 77.3,69.0 76.5,64.2 81.4,63.4" fill="#d2d2d2" stroke="#222" stroke-width="1.1"/>
<ellipse cx="7.0" cy="41.9" rx="5.2" ry="3.2" transform="rotate(-33 7.0 41.9)" fill="#d2d2d2" stroke="#222" stroke-width="1.1"/>
<polygon points="66.6,21.0 63.6,23.3 60.1,22.3 57.4,19.0 60.2,15.7 64.1,13.7 66.4,17.4" fill="#d2d2d2" stroke="#222" stroke-width="1.1"/>
<ellipse cx="64.0" cy="40.8" rx="5.2" ry="3.3" transform="rotate(-16 64.0 40.8)" fill="#d2d2d2" stroke="#222" stroke-width="1.1"/>
<polygon points="13.6,30.1 12.7,36.2 6.4,37.2 5.3,31.5 8.4,27.2" fill="#d2d2d2" stroke="#222" stroke-width="1.1"/>
<ellipse cx="60.0" cy="59.0" rx="6.1" ry="3.8" transform="rotate(-19 60.0 59.0)" fill="#d2d2d2" stroke="#222" stroke-width="1.1"/>
<ellipse cx="49.7" cy="7.8" rx="9.2" ry="5.7" transform="rotate(17 49.7 7.8)" fill="#d2d2d2" stroke="#222" stroke-width="1.1"/>
<polygon points="82.6,44.1 77.0,48.2 71.3,48.4 66.8,44.2 66.9,36.9 73.8,31.9 79.6,37.7" fill="#d2d2d2" stroke="#222" stroke-width="1.1"/></g>
<g transform="translate(-88 88)"><circle cx="78.5" cy="32.8" r="0.98" fill="#3a3a3a"/>
<circle cx="22.3" cy="25.2" r="1.34" fill="#3a3a3a"/>
<circle cx="84.1" cy="48.6" r="1.40" fill="#3a3a3a"/>
<circle cx="88.0" cy="75.6" r="1.30" fill="#3a3a3a"/>
<circle cx="32.4" cy="78.6" r="0.84" fill="#3a3a3a"/>
<circle cx="28.1" cy="6.1" r="1.31" fill="#3a3a3a"/>
<circle cx="79.8" cy="74.6" r="0.90" fill="#3a3a3a"/>
<circle cx="22.5" cy="21.5" r="1.02" fill="#3a3a3a"/>
<circle cx="11.4" cy="16.3" r="1.20" fill="#3a3a3a"/>
<circle cx="54.5" cy="57.6" r="0.75" fill="#3a3a3a"/>
<circle cx="31.1" cy="15.8" r="0.92" fill="#3a3a3a"/>
<circle cx="26.5" cy="14.0" r="1.09" fill="#3a3a3a"/>
<circle cx="23.7" cy="35.1" r="1.16" fill="#3a3a3a"/>
<circle cx="46.1" cy="74.1" r="1.27" fill="#3a3a3a"/>
<circle cx="22.6" cy="43.8" r="1.15" fill="#3a3a3a"/>
<circle cx="41.7" cy="16.5" r="1.07" fill="#3a3a3a"/>
<circle cx="65.9" cy="41.3" r="1.24" fill="#3a3a3a"/>
<circle cx="77.8" cy="3.3" r="0.82" fill="#3a3a3a"/><polygon points="24.2,86.0 21.2,86.9 19.3,84.5 21.0,81.7 24.6,82.4" fill="#d2d2d2" stroke="#222" stroke-width="1.1"/>
<ellipse cx="30.9" cy="10.6" rx="3.0" ry="1.9" transform="rotate(4 30.9 10.6)" fill="#d2d2d2" stroke="#222" stroke-width="1.1"/>
<ellipse cx="30.8" cy="71.7" rx="3.0" ry="1.9" transform="rotate(12 30.8 71.7)" fill="#d2d2d2" stroke="#222" stroke-width="1.1"/>
<polygon points="23.3,24.1 22.1,26.6 20.4,29.1 18.4,26.9 17.0,25.0 18.0,22.2 20.8,22.8" fill="#d2d2d2" stroke="#222" stroke-width="1.1"/>
<polygon points="57.6,75.7 54.4,77.5 52.1,75.5 49.8,73.3 52.0,70.9 54.9,69.7 56.5,72.4" fill="#d2d2d2" stroke="#222" stroke-width="1.1"/>
<polygon points="85.0,66.9 81.5,71.1 77.3,69.0 76.5,64.2 81.4,63.4" fill="#d2d2d2" stroke="#222" stroke-width="1.1"/>
<ellipse cx="7.0" cy="41.9" rx="5.2" ry="3.2" transform="rotate(-33 7.0 41.9)" fill="#d2d2d2" stroke="#222" stroke-width="1.1"/>
<polygon points="66.6,21.0 63.6,23.3 60.1,22.3 57.4,19.0 60.2,15.7 64.1,13.7 66.4,17.4" fill="#d2d2d2" stroke="#222" stroke-width="1.1"/>
<ellipse cx="64.0" cy="40.8" rx="5.2" ry="3.3" transform="rotate(-16 64.0 40.8)" fill="#d2d2d2" stroke="#222" stroke-width="1.1"/>
<polygon points="13.6,30.1 12.7,36.2 6.4,37.2 5.3,31.5 8.4,27.2" fill="#d2d2d2" stroke="#222" stroke-width="1.1"/>
<ellipse cx="60.0" cy="59.0" rx="6.1" ry="3.8" transform="rotate(-19 60.0 59.0)" fill="#d2d2d2" stroke="#222" stroke-width="1.1"/>
<ellipse cx="49.7" cy="7.8" rx="9.2" ry="5.7" transform="rotate(17 49.7 7.8)" fill="#d2d2d2" stroke="#222" stroke-width="1.1"/>
<polygon points="82.6,44.1 77.0,48.2 71.3,48.4 66.8,44.2 66.9,36.9 73.8,31.9 79.6,37.7" fill="#d2d2d2" stroke="#222" stroke-width="1.1"/></g>
<g transform="translate(0 -88)"><circle cx="78.5" cy="32.8" r="0.98" fill="#3a3a3a"/>
<circle cx="22.3" cy="25.2" r="1.34" fill="#3a3a3a"/>
<circle cx="84.1" cy="48.6" r="1.40" fill="#3a3a3a"/>
<circle cx="88.0" cy="75.6" r="1.30" fill="#3a3a3a"/>
<circle cx="32.4" cy="78.6" r="0.84" fill="#3a3a3a"/>
<circle cx="28.1" cy="6.1" r="1.31" fill="#3a3a3a"/>
<circle cx="79.8" cy="74.6" r="0.90" fill="#3a3a3a"/>
<circle cx="22.5" cy="21.5" r="1.02" fill="#3a3a3a"/>
<circle cx="11.4" cy="16.3" r="1.20" fill="#3a3a3a"/>
<circle cx="54.5" cy="57.6" r="0.75" fill="#3a3a3a"/>
<circle cx="31.1" cy="15.8" r="0.92" fill="#3a3a3a"/>
<circle cx="26.5" cy="14.0" r="1.09" fill="#3a3a3a"/>
<circle cx="23.7" cy="35.1" r="1.16" fill="#3a3a3a"/>
<circle cx="46.1" cy="74.1" r="1.27" fill="#3a3a3a"/>
<circle cx="22.6" cy="43.8" r="1.15" fill="#3a3a3a"/>
<circle cx="41.7" cy="16.5" r="1.07" fill="#3a3a3a"/>
<circle cx="65.9" cy="41.3" r="1.24" fill="#3a3a3a"/>
<circle cx="77.8" cy="3.3" r="0.82" fill="#3a3a3a"/><polygon points="24.2,86.0 21.2,86.9 19.3,84.5 21.0,81.7 24.6,82.4" fill="#d2d2d2" stroke="#222" stroke-width="1.1"/>
<ellipse cx="30.9" cy="10.6" rx="3.0" ry="1.9" transform="rotate(4 30.9 10.6)" fill="#d2d2d2" stroke="#222" stroke-width="1.1"/>
<ellipse cx="30.8" cy="71.7" rx="3.0" ry="1.9" transform="rotate(12 30.8 71.7)" fill="#d2d2d2" stroke="#222" stroke-width="1.1"/>
<polygon points="23.3,24.1 22.1,26.6 20.4,29.1 18.4,26.9 17.0,25.0 18.0,22.2 20.8,22.8" fill="#d2d2d2" stroke="#222" stroke-width="1.1"/>
<polygon points="57.6,75.7 54.4,77.5 52.1,75.5 49.8,73.3 52.0,70.9 54.9,69.7 56.5,72.4" fill="#d2d2d2" stroke="#222" stroke-width="1.1"/>
<polygon points="85.0,66.9 81.5,71.1 77.3,69.0 76.5,64.2 81.4,63.4" fill="#d2d2d2" stroke="#222" stroke-width="1.1"/>
<ellipse cx="7.0" cy="41.9" rx="5.2" ry="3.2" transform="rotate(-33 7.0 41.9)" fill="#d2d2d2" stroke="#222" stroke-width="1.1"/>
<polygon points="66.6,21.0 63.6,23.3 60.1,22.3 57.4,19.0 60.2,15.7 64.1,13.7 66.4,17.4" fill="#d2d2d2" stroke="#222" stroke-width="1.1"/>
<ellipse cx="64.0" cy="40.8" rx="5.2" ry="3.3" transform="rotate(-16 64.0 40.8)" fill="#d2d2d2" stroke="#222" stroke-width="1.1"/>
<polygon points="13.6,30.1 12.7,36.2 6.4,37.2 5.3,31.5 8.4,27.2" fill="#d2d2d2" stroke="#222" stroke-width="1.1"/>
<ellipse cx="60.0" cy="59.0" rx="6.1" ry="3.8" transform="rotate(-19 60.0 59.0)" fill="#d2d2d2" stroke="#222" stroke-width="1.1"/>
<ellipse cx="49.7" cy="7.8" rx="9.2" ry="5.7" transform="rotate(17 49.7 7.8)" fill="#d2d2d2" stroke="#222" stroke-width="1.1"/>
<polygon points="82.6,44.1 77.0,48.2 71.3,48.4 66.8,44.2 66.9,36.9 73.8,31.9 79.6,37.7" fill="#d2d2d2" stroke="#222" stroke-width="1.1"/></g>
<g transform="translate(0 0)"><circle cx="78.5" cy="32.8" r="0.98" fill="#3a3a3a"/>
<circle cx="22.3" cy="25.2" r="1.34" fill="#3a3a3a"/>
<circle cx="84.1" cy="48.6" r="1.40" fill="#3a3a3a"/>
<circle cx="88.0" cy="75.6" r="1.30" fill="#3a3a3a"/>
<circle cx="32.4" cy="78.6" r="0.84" fill="#3a3a3a"/>
<circle cx="28.1" cy="6.1" r="1.31" fill="#3a3a3a"/>
<circle cx="79.8" cy="74.6" r="0.90" fill="#3a3a3a"/>
<circle cx="22.5" cy="21.5" r="1.02" fill="#3a3a3a"/>
<circle cx="11.4" cy="16.3" r="1.20" fill="#3a3a3a"/>
<circle cx="54.5" cy="57.6" r="0.75" fill="#3a3a3a"/>
<circle cx="31.1" cy="15.8" r="0.92" fill="#3a3a3a"/>
<circle cx="26.5" cy="14.0" r="1.09" fill="#3a3a3a"/>
<circle cx="23.7" cy="35.1" r="1.16" fill="#3a3a3a"/>
<circle cx="46.1" cy="74.1" r="1.27" fill="#3a3a3a"/>
<circle cx="22.6" cy="43.8" r="1.15" fill="#3a3a3a"/>
<circle cx="41.7" cy="16.5" r="1.07" fill="#3a3a3a"/>
<circle cx="65.9" cy="41.3" r="1.24" fill="#3a3a3a"/>
<circle cx="77.8" cy="3.3" r="0.82" fill="#3a3a3a"/><polygon points="24.2,86.0 21.2,86.9 19.3,84.5 21.0,81.7 24.6,82.4" fill="#d2d2d2" stroke="#222" stroke-width="1.1"/>
<ellipse cx="30.9" cy="10.6" rx="3.0" ry="1.9" transform="rotate(4 30.9 10.6)" fill="#d2d2d2" stroke="#222" stroke-width="1.1"/>
<ellipse cx="30.8" cy="71.7" rx="3.0" ry="1.9" transform="rotate(12 30.8 71.7)" fill="#d2d2d2" stroke="#222" stroke-width="1.1"/>
<polygon points="23.3,24.1 22.1,26.6 20.4,29.1 18.4,26.9 17.0,25.0 18.0,22.2 20.8,22.8" fill="#d2d2d2" stroke="#222" stroke-width="1.1"/>
<polygon points="57.6,75.7 54.4,77.5 52.1,75.5 49.8,73.3 52.0,70.9 54.9,69.7 56.5,72.4" fill="#d2d2d2" stroke="#222" stroke-width="1.1"/>
<polygon points="85.0,66.9 81.5,71.1 77.3,69.0 76.5,64.2 81.4,63.4" fill="#d2d2d2" stroke="#222" stroke-width="1.1"/>
<ellipse cx="7.0" cy="41.9" rx="5.2" ry="3.2" transform="rotate(-33 7.0 41.9)" fill="#d2d2d2" stroke="#222" stroke-width="1.1"/>
<polygon points="66.6,21.0 63.6,23.3 60.1,22.3 57.4,19.0 60.2,15.7 64.1,13.7 66.4,17.4" fill="#d2d2d2" stroke="#222" stroke-width="1.1"/>
<ellipse cx="64.0" cy="40.8" rx="5.2" ry="3.3" transform="rotate(-16 64.0 40.8)" fill="#d2d2d2" stroke="#222" stroke-width="1.1"/>
<polygon points="13.6,30.1 12.7,36.2 6.4,37.2 5.3,31.5 8.4,27.2" fill="#d2d2d2" stroke="#222" stroke-width="1.1"/>
<ellipse cx="60.0" cy="59.0" rx="6.1" ry="3.8" transform="rotate(-19 60.0 59.0)" fill="#d2d2d2" stroke="#222" stroke-width="1.1"/>
<ellipse cx="49.7" cy="7.8" rx="9.2" ry="5.7" transform="rotate(17 49.7 7.8)" fill="#d2d2d2" stroke="#222" stroke-width="1.1"/>
<polygon points="82.6,44.1 77.0,48.2 71.3,48.4 66.8,44.2 66.9,36.9 73.8,31.9 79.6,37.7" fill="#d2d2d2" stroke="#222" stroke-width="1.1"/></g>
<g transform="translate(0 88)"><circle cx="78.5" cy="32.8" r="0.98" fill="#3a3a3a"/>
<circle cx="22.3" cy="25.2" r="1.34" fill="#3a3a3a"/>
<circle cx="84.1" cy="48.6" r="1.40" fill="#3a3a3a"/>
<circle cx="88.0" cy="75.6" r="1.30" fill="#3a3a3a"/>
<circle cx="32.4" cy="78.6" r="0.84" fill="#3a3a3a"/>
<circle cx="28.1" cy="6.1" r="1.31" fill="#3a3a3a"/>
<circle cx="79.8" cy="74.6" r="0.90" fill="#3a3a3a"/>
<circle cx="22.5" cy="21.5" r="1.02" fill="#3a3a3a"/>
<circle cx="11.4" cy="16.3" r="1.20" fill="#3a3a3a"/>
<circle cx="54.5" cy="57.6" r="0.75" fill="#3a3a3a"/>
<circle cx="31.1" cy="15.8" r="0.92" fill="#3a3a3a"/>
<circle cx="26.5" cy="14.0" r="1.09" fill="#3a3a3a"/>
<circle cx="23.7" cy="35.1" r="1.16" fill="#3a3a3a"/>
<circle cx="46.1" cy="74.1" r="1.27" fill="#3a3a3a"/>
<circle cx="22.6" cy="43.8" r="1.15" fill="#3a3a3a"/>
<circle cx="41.7" cy="16.5" r="1.07" fill="#3a3a3a"/>
<circle cx="65.9" cy="41.3" r="1.24" fill="#3a3a3a"/>
<circle cx="77.8" cy="3.3" r="0.82" fill="#3a3a3a"/><polygon points="24.2,86.0 21.2,86.9 19.3,84.5 21.0,81.7 24.6,82.4" fill="#d2d2d2" stroke="#222" stroke-width="1.1"/>
<ellipse cx="30.9" cy="10.6" rx="3.0" ry="1.9" transform="rotate(4 30.9 10.6)" fill="#d2d2d2" stroke="#222" stroke-width="1.1"/>
<ellipse cx="30.8" cy="71.7" rx="3.0" ry="1.9" transform="rotate(12 30.8 71.7)" fill="#d2d2d2" stroke="#222" stroke-width="1.1"/>
<polygon points="23.3,24.1 22.1,26.6 20.4,29.1 18.4,26.9 17.0,25.0 18.0,22.2 20.8,22.8" fill="#d2d2d2" stroke="#222" stroke-width="1.1"/>
<polygon points="57.6,75.7 54.4,77.5 52.1,75.5 49.8,73.3 52.0,70.9 54.9,69.7 56.5,72.4" fill="#d2d2d2" stroke="#222" stroke-width="1.1"/>
<polygon points="85.0,66.9 81.5,71.1 77.3,69.0 76.5,64.2 81.4,63.4" fill="#d2d2d2" stroke="#222" stroke-width="1.1"/>
<ellipse cx="7.0" cy="41.9" rx="5.2" ry="3.2" transform="rotate(-33 7.0 41.9)" fill="#d2d2d2" stroke="#222" stroke-width="1.1"/>
<polygon points="66.6,21.0 63.6,23.3 60.1,22.3 57.4,19.0 60.2,15.7 64.1,13.7 66.4,17.4" fill="#d2d2d2" stroke="#222" stroke-width="1.1"/>
<ellipse cx="64.0" cy="40.8" rx="5.2" ry="3.3" transform="rotate(-16 64.0 40.8)" fill="#d2d2d2" stroke="#222" stroke-width="1.1"/>
<polygon points="13.6,30.1 12.7,36.2 6.4,37.2 5.3,31.5 8.4,27.2" fill="#d2d2d2" stroke="#222" stroke-width="1.1"/>
<ellipse cx="60.0" cy="59.0" rx="6.1" ry="3.8" transform="rotate(-19 60.0 59.0)" fill="#d2d2d2" stroke="#222" stroke-width="1.1"/>
<ellipse cx="49.7" cy="7.8" rx="9.2" ry="5.7" transform="rotate(17 49.7 7.8)" fill="#d2d2d2" stroke="#222" stroke-width="1.1"/>
<polygon points="82.6,44.1 77.0,48.2 71.3,48.4 66.8,44.2 66.9,36.9 73.8,31.9 79.6,37.7" fill="#d2d2d2" stroke="#222" stroke-width="1.1"/></g>
<g transform="translate(88 -88)"><circle cx="78.5" cy="32.8" r="0.98" fill="#3a3a3a"/>
<circle cx="22.3" cy="25.2" r="1.34" fill="#3a3a3a"/>
<circle cx="84.1" cy="48.6" r="1.40" fill="#3a3a3a"/>
<circle cx="88.0" cy="75.6" r="1.30" fill="#3a3a3a"/>
<circle cx="32.4" cy="78.6" r="0.84" fill="#3a3a3a"/>
<circle cx="28.1" cy="6.1" r="1.31" fill="#3a3a3a"/>
<circle cx="79.8" cy="74.6" r="0.90" fill="#3a3a3a"/>
<circle cx="22.5" cy="21.5" r="1.02" fill="#3a3a3a"/>
<circle cx="11.4" cy="16.3" r="1.20" fill="#3a3a3a"/>
<circle cx="54.5" cy="57.6" r="0.75" fill="#3a3a3a"/>
<circle cx="31.1" cy="15.8" r="0.92" fill="#3a3a3a"/>
<circle cx="26.5" cy="14.0" r="1.09" fill="#3a3a3a"/>
<circle cx="23.7" cy="35.1" r="1.16" fill="#3a3a3a"/>
<circle cx="46.1" cy="74.1" r="1.27" fill="#3a3a3a"/>
<circle cx="22.6" cy="43.8" r="1.15" fill="#3a3a3a"/>
<circle cx="41.7" cy="16.5" r="1.07" fill="#3a3a3a"/>
<circle cx="65.9" cy="41.3" r="1.24" fill="#3a3a3a"/>
<circle cx="77.8" cy="3.3" r="0.82" fill="#3a3a3a"/><polygon points="24.2,86.0 21.2,86.9 19.3,84.5 21.0,81.7 24.6,82.4" fill="#d2d2d2" stroke="#222" stroke-width="1.1"/>
<ellipse cx="30.9" cy="10.6" rx="3.0" ry="1.9" transform="rotate(4 30.9 10.6)" fill="#d2d2d2" stroke="#222" stroke-width="1.1"/>
<ellipse cx="30.8" cy="71.7" rx="3.0" ry="1.9" transform="rotate(12 30.8 71.7)" fill="#d2d2d2" stroke="#222" stroke-width="1.1"/>
<polygon points="23.3,24.1 22.1,26.6 20.4,29.1 18.4,26.9 17.0,25.0 18.0,22.2 20.8,22.8" fill="#d2d2d2" stroke="#222" stroke-width="1.1"/>
<polygon points="57.6,75.7 54.4,77.5 52.1,75.5 49.8,73.3 52.0,70.9 54.9,69.7 56.5,72.4" fill="#d2d2d2" stroke="#222" stroke-width="1.1"/>
<polygon points="85.0,66.9 81.5,71.1 77.3,69.0 76.5,64.2 81.4,63.4" fill="#d2d2d2" stroke="#222" stroke-width="1.1"/>
<ellipse cx="7.0" cy="41.9" rx="5.2" ry="3.2" transform="rotate(-33 7.0 41.9)" fill="#d2d2d2" stroke="#222" stroke-width="1.1"/>
<polygon points="66.6,21.0 63.6,23.3 60.1,22.3 57.4,19.0 60.2,15.7 64.1,13.7 66.4,17.4" fill="#d2d2d2" stroke="#222" stroke-width="1.1"/>
<ellipse cx="64.0" cy="40.8" rx="5.2" ry="3.3" transform="rotate(-16 64.0 40.8)" fill="#d2d2d2" stroke="#222" stroke-width="1.1"/>
<polygon points="13.6,30.1 12.7,36.2 6.4,37.2 5.3,31.5 8.4,27.2" fill="#d2d2d2" stroke="#222" stroke-width="1.1"/>
<ellipse cx="60.0" cy="59.0" rx="6.1" ry="3.8" transform="rotate(-19 60.0 59.0)" fill="#d2d2d2" stroke="#222" stroke-width="1.1"/>
<ellipse cx="49.7" cy="7.8" rx="9.2" ry="5.7" transform="rotate(17 49.7 7.8)" fill="#d2d2d2" stroke="#222" stroke-width="1.1"/>
<polygon points="82.6,44.1 77.0,48.2 71.3,48.4 66.8,44.2 66.9,36.9 73.8,31.9 79.6,37.7" fill="#d2d2d2" stroke="#222" stroke-width="1.1"/></g>
<g transform="translate(88 0)"><circle cx="78.5" cy="32.8" r="0.98" fill="#3a3a3a"/>
<circle cx="22.3" cy="25.2" r="1.34" fill="#3a3a3a"/>
<circle cx="84.1" cy="48.6" r="1.40" fill="#3a3a3a"/>
<circle cx="88.0" cy="75.6" r="1.30" fill="#3a3a3a"/>
<circle cx="32.4" cy="78.6" r="0.84" fill="#3a3a3a"/>
<circle cx="28.1" cy="6.1" r="1.31" fill="#3a3a3a"/>
<circle cx="79.8" cy="74.6" r="0.90" fill="#3a3a3a"/>
<circle cx="22.5" cy="21.5" r="1.02" fill="#3a3a3a"/>
<circle cx="11.4" cy="16.3" r="1.20" fill="#3a3a3a"/>
<circle cx="54.5" cy="57.6" r="0.75" fill="#3a3a3a"/>
<circle cx="31.1" cy="15.8" r="0.92" fill="#3a3a3a"/>
<circle cx="26.5" cy="14.0" r="1.09" fill="#3a3a3a"/>
<circle cx="23.7" cy="35.1" r="1.16" fill="#3a3a3a"/>
<circle cx="46.1" cy="74.1" r="1.27" fill="#3a3a3a"/>
<circle cx="22.6" cy="43.8" r="1.15" fill="#3a3a3a"/>
<circle cx="41.7" cy="16.5" r="1.07" fill="#3a3a3a"/>
<circle cx="65.9" cy="41.3" r="1.24" fill="#3a3a3a"/>
<circle cx="77.8" cy="3.3" r="0.82" fill="#3a3a3a"/><polygon points="24.2,86.0 21.2,86.9 19.3,84.5 21.0,81.7 24.6,82.4" fill="#d2d2d2" stroke="#222" stroke-width="1.1"/>
<ellipse cx="30.9" cy="10.6" rx="3.0" ry="1.9" transform="rotate(4 30.9 10.6)" fill="#d2d2d2" stroke="#222" stroke-width="1.1"/>
<ellipse cx="30.8" cy="71.7" rx="3.0" ry="1.9" transform="rotate(12 30.8 71.7)" fill="#d2d2d2" stroke="#222" stroke-width="1.1"/>
<polygon points="23.3,24.1 22.1,26.6 20.4,29.1 18.4,26.9 17.0,25.0 18.0,22.2 20.8,22.8" fill="#d2d2d2" stroke="#222" stroke-width="1.1"/>
<polygon points="57.6,75.7 54.4,77.5 52.1,75.5 49.8,73.3 52.0,70.9 54.9,69.7 56.5,72.4" fill="#d2d2d2" stroke="#222" stroke-width="1.1"/>
<polygon points="85.0,66.9 81.5,71.1 77.3,69.0 76.5,64.2 81.4,63.4" fill="#d2d2d2" stroke="#222" stroke-width="1.1"/>
<ellipse cx="7.0" cy="41.9" rx="5.2" ry="3.2" transform="rotate(-33 7.0 41.9)" fill="#d2d2d2" stroke="#222" stroke-width="1.1"/>
<polygon points="66.6,21.0 63.6,23.3 60.1,22.3 57.4,19.0 60.2,15.7 64.1,13.7 66.4,17.4" fill="#d2d2d2" stroke="#222" stroke-width="1.1"/>
<ellipse cx="64.0" cy="40.8" rx="5.2" ry="3.3" transform="rotate(-16 64.0 40.8)" fill="#d2d2d2" stroke="#222" stroke-width="1.1"/>
<polygon points="13.6,30.1 12.7,36.2 6.4,37.2 5.3,31.5 8.4,27.2" fill="#d2d2d2" stroke="#222" stroke-width="1.1"/>
<ellipse cx="60.0" cy="59.0" rx="6.1" ry="3.8" transform="rotate(-19 60.0 59.0)" fill="#d2d2d2" stroke="#222" stroke-width="1.1"/>
<ellipse cx="49.7" cy="7.8" rx="9.2" ry="5.7" transform="rotate(17 49.7 7.8)" fill="#d2d2d2" stroke="#222" stroke-width="1.1"/>
<polygon points="82.6,44.1 77.0,48.2 71.3,48.4 66.8,44.2 66.9,36.9 73.8,31.9 79.6,37.7" fill="#d2d2d2" stroke="#222" stroke-width="1.1"/></g>
<g transform="translate(88 88)"><circle cx="78.5" cy="32.8" r="0.98" fill="#3a3a3a"/>
<circle cx="22.3" cy="25.2" r="1.34" fill="#3a3a3a"/>
<circle cx="84.1" cy="48.6" r="1.40" fill="#3a3a3a"/>
<circle cx="88.0" cy="75.6" r="1.30" fill="#3a3a3a"/>
<circle cx="32.4" cy="78.6" r="0.84" fill="#3a3a3a"/>
<circle cx="28.1" cy="6.1" r="1.31" fill="#3a3a3a"/>
<circle cx="79.8" cy="74.6" r="0.90" fill="#3a3a3a"/>
<circle cx="22.5" cy="21.5" r="1.02" fill="#3a3a3a"/>
<circle cx="11.4" cy="16.3" r="1.20" fill="#3a3a3a"/>
<circle cx="54.5" cy="57.6" r="0.75" fill="#3a3a3a"/>
<circle cx="31.1" cy="15.8" r="0.92" fill="#3a3a3a"/>
<circle cx="26.5" cy="14.0" r="1.09" fill="#3a3a3a"/>
<circle cx="23.7" cy="35.1" r="1.16" fill="#3a3a3a"/>
<circle cx="46.1" cy="74.1" r="1.27" fill="#3a3a3a"/>
<circle cx="22.6" cy="43.8" r="1.15" fill="#3a3a3a"/>
<circle cx="41.7" cy="16.5" r="1.07" fill="#3a3a3a"/>
<circle cx="65.9" cy="41.3" r="1.24" fill="#3a3a3a"/>
<circle cx="77.8" cy="3.3" r="0.82" fill="#3a3a3a"/><polygon points="24.2,86.0 21.2,86.9 19.3,84.5 21.0,81.7 24.6,82.4" fill="#d2d2d2" stroke="#222" stroke-width="1.1"/>
<ellipse cx="30.9" cy="10.6" rx="3.0" ry="1.9" transform="rotate(4 30.9 10.6)" fill="#d2d2d2" stroke="#222" stroke-width="1.1"/>
<ellipse cx="30.8" cy="71.7" rx="3.0" ry="1.9" transform="rotate(12 30.8 71.7)" fill="#d2d2d2" stroke="#222" stroke-width="1.1"/>
<polygon points="23.3,24.1 22.1,26.6 20.4,29.1 18.4,26.9 17.0,25.0 18.0,22.2 20.8,22.8" fill="#d2d2d2" stroke="#222" stroke-width="1.1"/>
<polygon points="57.6,75.7 54.4,77.5 52.1,75.5 49.8,73.3 52.0,70.9 54.9,69.7 56.5,72.4" fill="#d2d2d2" stroke="#222" stroke-width="1.1"/>
<polygon points="85.0,66.9 81.5,71.1 77.3,69.0 76.5,64.2 81.4,63.4" fill="#d2d2d2" stroke="#222" stroke-width="1.1"/>
<ellipse cx="7.0" cy="41.9" rx="5.2" ry="3.2" transform="rotate(-33 7.0 41.9)" fill="#d2d2d2" stroke="#222" stroke-width="1.1"/>
<polygon points="66.6,21.0 63.6,23.3 60.1,22.3 57.4,19.0 60.2,15.7 64.1,13.7 66.4,17.4" fill="#d2d2d2" stroke="#222" stroke-width="1.1"/>
<ellipse cx="64.0" cy="40.8" rx="5.2" ry="3.3" transform="rotate(-16 64.0 40.8)" fill="#d2d2d2" stroke="#222" stroke-width="1.1"/>
<polygon points="13.6,30.1 12.7,36.2 6.4,37.2 5.3,31.5 8.4,27.2" fill="#d2d2d2" stroke="#222" stroke-width="1.1"/>
<ellipse cx="60.0" cy="59.0" rx="6.1" ry="3.8" transform="rotate(-19 60.0 59.0)" fill="#d2d2d2" stroke="#222" stroke-width="1.1"/>
<ellipse cx="49.7" cy="7.8" rx="9.2" ry="5.7" transform="rotate(17 49.7 7.8)" fill="#d2d2d2" stroke="#222" stroke-width="1.1"/>
<polygon points="82.6,44.1 77.0,48.2 71.3,48.4 66.8,44.2 66.9,36.9 73.8,31.9 79.6,37.7" fill="#d2d2d2" stroke="#222" stroke-width="1.1"/></g></pattern></defs>
<rect width="120" height="120" fill="url(#pat_Dmm)" stroke="black" stroke-width="1"/>
</svg>
