<svg xmlns="http://www.w3.org/2000/svg" width="120" height="120" viewBox="0 0 120 120">
<defs><clipPath id="clip30"><rect width="30" height="30"/></clipPath><pattern id="pat_Em" patternUnits="userSpaceOnUse" width="30" height="30"><rect width="30" height="30" fill="white"/><g transform="translate(-30 -30)"><circle cx="1.2" cy="1.2" r="0.9" fill="#333"/>
<circle cx="2.4" cy="6.2" r="0.9" fill="#333"/>
<circle cx="1.6" cy="11.2" r="0.9" fill="#333"/>
<circle cx="2.8" cy="16.2" r="0.9" fill="#333"/>
<circle cx="2.0" cy="21.2" r="0.9" fill="#333"/>
<circle cx="1.2" cy="26.2" r="0.9" fill="#333"/>
<circle cx="7.0" cy="1.6" r="0.9" fill="#333"/>
<circle cx="6.2" cy="6.6" r="0.9" fill="#333"/>
<circle cx="7.4" cy="11.6" r="0.9" fill="#333"/>
<circle cx="6.6" cy="16.6" r="0.9" fill="#333"/>
<circle cx="7.8" cy="21.6" r="0.9" fill="#333"/>
<circle cx="7.0" cy="26.6" r="0.9" fill="#333"/>
<circle cx="12.8" cy="2.0" r="0.9" fill="#333"/>
<circle cx="12.0" cy="7.0" r="0.9" fill="#333"/>
<circle cx="11.2" cy="12.0" r="0.9" fill="#333"/>
<circle cx="12.4" cy="17.0" r="0.9" fill="#333"/>
<circle cx="11.6" cy="22.0" r="0.9" fill="#333"/>
<circle cx="12.8" cy="27.0" r="0.9" fill="#333"/>
<circle cx="16.6" cy="2.4" r="0.9" fill="#333"/>
<circle cx="17.8" cy="7.4" r="0.9" fill="#333"/>
<circle cx="17.0" cy="12.4" r="0.9" fill="#333"/>
<circle cx="16.2" cy="17.4" r="0.9" fill="#333"/>
<circle cx="17.4" cy="22.4" r="0.9" fill="#333"/>
<circle cx="16.6" cy="27.4" r="0.9" fill="#333"/>
<circle cx="22.4" cy="2.8" r="0.9" fill="#333"/>
<circle cx="21.6" cy="7.8" r="0.9" fill="#333"/>
<circle cx="22.8" cy="12.8" r="0.9" fill="#333"/>
<circle cx="22.0" cy="17.8" r="0.9" fill="#333"/>
<circle cx="21.2" cy="22.8" r="0.9" fill="#333"/>
<circle cx="22.4" cy="27.8" r="0.9" fill="#333"/>
<circle cx="26.2" cy="1.2" r="0.9" fill="#333"/>
<circle cx="27.4" cy="6.2" r="0.9" fill="#333"/>
<circle cx="26.6" cy="11.2" r="0.9" fill="#333"/>
<circle cx="27.8" cy="16.2" r="0.9" fill="#333"/>
<circle cx="27.0" cy="21.2" r="0.9" fill="#333"/>
<circle cx="26.2" cy="26.2" r="0.9" fill="#333"/></g>
<g transform="translate(-30 0)"><circle cx="1.2" cy="1.2" r="0.9" fill="#333"/>
<circle cx="2.4" cy="6.2" r="0.9" fill="#333"/>
<circle cx="1.6" cy="11.2" r="0.9" fill="#333"/>
<circle cx="2.8" cy="16.2" r="0.9" fill="#333"/>
<circle cx="2.0" cy="21.2" r="0.9" fill="#333"/>
<circle cx="1.2" cy="26.2" r="0.9" fill="#333"/>
<circle cx="7.0" cy="1.6" r="0.9" fill="#333"/>
<circle cx="6.2" cy="6.6" r="0.9" fill="#333"/>
<circle cx="7.4" cy="11.6" r="0.9" fill="#333"/>
<circle cx="6.6" cy="16.6" r="0.9" fill="#333"/>
<circle cx="7.8" cy="21.6" r="0.9" fill="#333"/>
<circle cx="7.0" cy="26.6" r="0.9" fill="#333"/>
<circle cx="12.8" cy="2.0" r="0.9" fill="#333"/>
<circle cx="12.0" cy="7.0" r="0.9" fill="#333"/>
<circle cx="11.2" cy="12.0" r="0.9" fill="#333"/>
<circle cx="12.4" cy="17.0" r="0.9" fill="#333"/>
<circle cx="11.6" cy="22.0" r="0.9" fill="#333"/>
<circle cx="12.8" cy="27.0" r="0.9" fill="#333"/>
<circle cx="16.6" cy="2.4" r="0.9" fill="#333"/>
<circle cx="17.8" cy="7.4" r="0.9" fill="#333"/>
<circle cx="17.0" cy="12.4" r="0.9" fill="#333"/>
<circle cx="16.2" cy="17.4" r="0.9" fill="#333"/>
<circle cx="17.4" cy="22.4" r="0.9" fill="#333"/>
<circle cx="16.6" cy="27.4" r="0.9" fill="#333"/>
<circle cx="22.4" cy="2.8" r="0.9" fill="#333"/>
<circle cx="21.6" cy="7.8" r="0.9" fill="#333"/>
<circle cx="22.8" cy="12.8" r="0.9" fill="#333"/>
<circle cx="22.0" cy="17.8" r="0.9" fill="#333"/>
<circle cx="21.2" cy="22.8" r="0.9" fill="#333"/>
<circle cx="22.4" cy="27.8" r="0.9" fill="#333"/>
<circle cx="26.2" cy="1.2" r="0.9" fill="#333"/>
<circle cx="27.4" cy="6.2" r="0.9" fill="#333"/>
<circle cx="26.6" cy="11.2" r="0.9" fill="#333"/>
<circle cx="27.8" cy="16.2" r="0.9" fill="#333"/>
<circle cx="27.0" cy="21.2" r="0.9" fill="#333"/>
<circle cx="26.2" cy="26.2" r="0.9" fill="#333"/></g>
<g transform="translate(-30 30)"><circle cx="1.2" cy="1.2" r="0.9" fill="#333"/>
<circle cx="2.4" cy="6.2" r="0.9" fill="#333"/>
<circle cx="1.6" cy="11.2" r="0.9" fill="#333"/>
<circle cx="2.8" cy="16.2" r="0.9" fill="#333"/>
<circle cx="2.0" cy="21.2" r="0.9" fill="#333"/>
<circle cx="1.2" cy="26.2" r="0.9" fill="#333"/>
<circle cx="7.0" cy="1.6" r="0.9" fill="#333"/>
<circle cx="6.2" cy="6.6" r="0.9" fill="#333"/>
<circle cx="7.4" cy="11.6" r="0.9" fill="#333"/>
<circle cx="6.6" cy="16.6" r="0.9" fill="#333"/>
<circle cx="7.8" cy="21.6" r="0.9" fill="#333"/>
<circle cx="7.0" cy="26.6" r="0.9" fill="#333"/>
<circle cx="12.8" cy="2.0" r="0.9" fill="#333"/>
<circle cx="12.0" cy="7.0" r="0.9" fill="#333"/>
<circle cx="11.2" cy="12.0" r="0.9" fill="#333"/>
<circle cx="12.4" cy="17.0" r="0.9" fill="#333"/>
<circle cx="11.6" cy="22.0" r="0.9" fill="#333"/>
<circle cx="12.8" cy="27.0" r="0.9" fill="#333"/>
<circle cx="16.6" cy="2.4" r="0.9" fill="#333"/>
<circle cx="17.8" cy="7.4" r="0.9" fill="#333"/>
<circle cx="17.0" cy="12.4" r="0.9" fill="#333"/>
<circle cx="16.2" cy="17.4" r="0.9" fill="#333"/>
<circle cx="17.4" cy="22.4" r="0.9" fill="#333"/>
<circle cx="16.6" cy="27.4" r="0.9" fill="#333"/>
<circle cx="22.4" cy="2.8" r="0.9" fill="#333"/>
<circle cx="21.6" cy="7.8" r="0.9" fill="#333"/>
<circle cx="22.8" cy="12.8" r="0.9" fill="#333"/>
<circle cx="22.0" cy="17.8" r="0.9" fill="#333"/>
<circle cx="21.2" cy="22.8" r="0.9" fill="#333"/>
<circle cx="22.4" cy="27.8" r="0.9" fill="#333"/>
<circle cx="26.2" cy="1.2" r="0.9" fill="#333"/>
<circle cx="27.4" cy="6.2" r="0.9" fill="#333"/>
<circle cx="26.6" cy="11.2" r="0.9" fill="#333"/>
<circle cx="27.8" cy="16.2" r="0.9" fill="#333"/>
<circle cx="27.0" cy="21.2" r="0.9" fill="#333"/>
<circle cx="26.2" cy="26.2" r="0.9" fill="#333"/></g>
<g transform="translate(0 -30)"><circle cx="1.2" cy="1.2" r="0.9" fill="#333"/>
<circle cx="2.4" cy="6.2" r="0.9" fill="#333"/>
<circle cx="1.6" cy="11.2" r="0.9" fill="#333"/>
<circle cx="2.8" cy="16.2" r="0.9" fill="#333"/>
<circle cx="2.0" cy="21.2" r="0.9" fill="#333"/>
<circle cx="1.2" cy="26.2" r="0.9" fill="#333"/>
<circle cx="7.0" cy="1.6" r="0.9" fill="#333"/>
<circle cx="6.2" cy="6.6" r="0.9" fill="#333"/>
<circle cx="7.4" cy="11.6" r="0.9" fill="#333"/>
<circle cx="6.6" cy="16.6" r="0.9" fill="#333"/>
<circle cx="7.8" cy="21.6" r="0.9" fill="#333"/>
<circle cx="7.0" cy="26.6" r="0.9" fill="#333"/>
<circle cx="12.8" cy="2.0" r="0.9" fill="#333"/>
<circle cx="12.0" cy="7.0" r="0.9" fill="#333"/>
<circle cx="11.2" cy="12.0" r="0.9" fill="#333"/>
<circle cx="12.4" cy="17.0" r="0.9" fill="#333"/>
<circle cx="11.6" cy="22.0" r="0.9" fill="#333"/>
<circle cx="12.8" cy="27.0" r="0.9" fill="#333"/>
<circle cx="16.6" cy="2.4" r="0.9" fill="#333"/>
<circle cx="17.8" cy="7.4" r="0.9" fill="#333"/>
<circle cx="17.0" cy="12.4" r="0.9" fill="#333"/>
<circle cx="16.2" cy="17.4" r="0.9" fill="#333"/>
<circle cx="17.4" cy="22.4" r="0.9" fill="#333"/>
<circle cx="16.6" cy="27.4" r="0.9" fill="#333"/>
<circle cx="22.4" cy="2.8" r="0.9" fill="#333"/>
<circle cx="21.6" cy="7.8" r="0.9" fill="#333"/>
<circle cx="22.8" cy="12.8" r="0.9" fill="#333"/>
<circle cx="22.0" cy="17.8" r="0.9" fill="#333"/>
<circle cx="21.2" cy="22.8" r="0.9" fill="#333"/>
<circle cx="22.4" cy="27.8" r="0.9" fill="#333"/>
<circle cx="26.2" cy="1.2" r="0.9" fill="#333"/>
<circle cx="27.4" cy="6.2" r="0.9" fill="#333"/>
<circle cx="26.6" cy="11.2" r="0.9" fill="#333"/>
<circle cx="27.8" cy="16.2" r="0.9" fill="#333"/>
<circle cx="27.0" cy="21.2" r="0.9" fill="#333"/>
<circle cx="26.2" cy="26.2" r="0.9" fill="#333"/></g>
<g transform="translate(0 0)"><circle cx="1.2" cy="1.2" r="0.9" fill="#333"/>
<circle cx="2.4" cy="6.2" r="0.9" fill="#333"/>
<circle cx="1.6" cy="11.2" r="0.9" fill="#333"/>
<circle cx="2.8" cy="16.2" r="0.9" fill="#333"/>
<circle cx="2.0" cy="21.2" r="0.9" fill="#333"/>
<circle cx="1.2" cy="26.2" r="0.9" fill="#333"/>
<circle cx="7.0" cy="1.6" r="0.9" fill="#333"/>
<circle cx="6.2" cy="6.6" r="0.9" fill="#333"/>
<circle cx="7.4" cy="11.6" r="0.9" fill="#333"/>
<circle cx="6.6" cy="16.6" r="0.9" fill="#333"/>
<circle cx="7.8" cy="21.6" r="0.9" fill="#333"/>
<circle cx="7.0" cy="26.6" r="0.9" fill="#333"/>
<circle cx="12.8" cy="2.0" r="0.9" fill="#333"/>
<circle cx="12.0" cy="7.0" r="0.9" fill="#333"/>
<circle cx="11.2" cy="12.0" r="0.9" fill="#333"/>
<circle cx="12.4" cy="17.0" r="0.9" fill="#333"/>
<circle cx="11.6" cy="22.0" r="0.9" fill="#333"/>
<circle cx="12.8" cy="27.0" r="0.9" fill="#333"/>
<circle cx="16.6" cy="2.4" r="0.9" fill="#333"/>
<circle cx="17.8" cy="7.4" r="0.9" fill="#333"/>
<circle cx="17.0" cy="12.4" r="0.9" fill="#333"/>
<circle cx="16.2" cy="17.4" r="0.9" fill="#333"/>
<circle cx="17.4" cy="22.4" r="0.9" fill="#333"/>
<circle cx="16.6" cy="27.4" r="0.9" fill="#333"/>
<circle cx="22.4" cy="2.8" r="0.9" fill="#333"/>
<circle cx="21.6" cy="7.8" r="0.9" fill="#333"/>
<circle cx="22.8" cy="12.8" r="0.9" fill="#333"/>
<circle cx="22.0" cy="17.8" r="0.9" fill="#333"/>
<circle cx="21.2" cy="22.8" r="0.9" fill="#333"/>
<circle cx="22.4" cy="27.8" r="0.9" fill="#333"/>
<circle cx="26.2" cy="1.2" r="0.9" fill="#333"/>
<circle cx="27.4" cy="6.2" r="0.9" fill="#333"/>
<circle cx="26.6" cy="11.2" r="0.9" fill="#333"/>
<circle cx="27.8" cy="16.2" r="0.9" fill="#333"/>
<circle cx="27.0" cy="21.2" r="0.9" fill="#333"/>
<circle cx="26.2" cy="26.2" r="0.9" fill="#333"/></g>
<g transform="translate(0 30)"><circle cx="1.2" cy="1.2" r="0.9" fill="#333"/>
<circle cx="2.4" cy="6.2" r="0.9" fill="#333"/>
<circle cx="1.6" cy="11.2" r="0.9" fill="#333"/>
<circle cx="2.8" cy="16.2" r="0.9" fill="#333"/>
<circle cx="2.0" cy="21.2" r="0.9" fill="#333"/>
<circle cx="1.2" cy="26.2" r="0.9" fill="#333"/>
<circle cx="7.0" cy="1.6" r="0.9" fill="#333"/>
<circle cx="6.2" cy="6.6" r="0.9" fill="#333"/>
<circle cx="7.4" cy="11.6" r="0.9" fill="#333"/>
<circle cx="6.6" cy="16.6" r="0.9" fill="#333"/>
<circle cx="7.8" cy="21.6" r="0.9" fill="#333"/>
<circle cx="7.0" cy="26.6" r="0.9" fill="#333"/>
<circle cx="12.8" cy="2.0" r="0.9" fill="#333"/>
<circle cx="12.0" cy="7.0" r="0.9" fill="#333"/>
<circle cx="11.2" cy="12.0" r="0.9" fill="#333"/>
<circle cx="12.4" cy="17.0" r="0.9" fill="#333"/>
<circle cx="11.6" cy="22.0" r="0.9" fill="#333"/>
<circle cx="12.8" cy="27.0" r="0.9" fill="#333"/>
<circle cx="16.6" cy="2.4" r="0.9" fill="#333"/>
<circle cx="17.8" cy="7.4" r="0.9" fill="#333"/>
<circle cx="17.0" cy="12.4" r="0.9" fill="#333"/>
<circle cx="16.2" cy="17.4" r="0.9" fill="#333"/>
<circle cx="17.4" cy="22.4" r="0.9" fill="#333"/>
<circle cx="16.6" cy="27.4" r="0.9" fill="#333"/>
<circle cx="22.4" cy="2.8" r="0.9" fill="#333"/>
<circle cx="21.6" cy="7.8" r="0.9" fill="#333"/>
<circle cx="22.8" cy="12.8" r="0.9" fill="#333"/>
<circle cx="22.0" cy="17.8" r="0.9" fill="#333"/>
<circle cx="21.2" cy="22.8" r="0.9" fill="#333"/>
<circle cx="22.4" cy="27.8" r="0.9" fill="#333"/>
<circle cx="26.2" cy="1.2" r="0.9" fill="#333"/>
<circle cx="27.4" cy="6.2" r="0.9" fill="#333"/>
<circle cx="26.6" cy="11.2" r="0.9" fill="#333"/>
<circle cx="27.8" cy="16.2" r="0.9" fill="#333"/>
<circle cx="27.0" cy="21.2" r="0.9" fill="#333"/>
<circle cx="26.2" cy="26.2" r="0.9" fill="#333"/></g>
<g transform="translate(30 -30)"><circle cx="1.2" cy="1.2" r="0.9" fill="#333"/>
<circle cx="2.4" cy="6.2" r="0.9" fill="#333"/>
<circle cx="1.6" cy="11.2" r="0.9" fill="#333"/>
<circle cx="2.8" cy="16.2" r="0.9" fill="#333"/>
<circle cx="2.0" cy="21.2" r="0.9" fill="#333"/>
<circle cx="1.2" cy="26.2" r="0.9" fill="#333"/>
<circle cx="7.0" cy="1.6" r="0.9" fill="#333"/>
<circle cx="6.2" cy="6.6" r="0.9" fill="#333"/>
<circle cx="7.4" cy="11.6" r="0.9" fill="#333"/>
<circle cx="6.6" cy="16.6" r="0.9" fill="#333"/>
<circle cx="7.8" cy="21.6" r="0.9" fill="#333"/>
<circle cx="7.0" cy="26.6" r="0.9" fill="#333"/>
<circle cx="12.8" cy="2.0" r="0.9" fill="#333"/>
<circle cx="12.0" cy="7.0" r="0.9" fill="#333"/>
<circle cx="11.2" cy="12.0" r="0.9" fill="#333"/>
<circle cx="12.4" cy="17.0" r="0.9" fill="#333"/>
<circle cx="11.6" cy="22.0" r="0.9" fill="#333"/>
<circle cx="12.8" cy="27.0" r="0.9" fill="#333"/>
<circle cx="16.6" cy="2.4" r="0.9" fill="#333"/>
<circle cx="17.8" cy="7.4" r="0.9" fill="#333"/>
<circle cx="17.0" cy="12.4" r="0.9" fill="#333"/>
<circle cx="16.2" cy="17.4" r="0.9" fill="#333"/>
<circle cx="17.4" cy="22.4" r="0.9" fill="#333"/>
<circle cx="16.6" cy="27.4" r="0.9" fill="#333"/>
<circle cx="22.4" cy="2.8" r="0.9" fill="#333"/>
<circle cx="21.6" cy="7.8" r="0.9" fill="#333"/>
<circle cx="22.8" cy="12.8" r="0.9" fill="#333"/>
<circle cx="22.0" cy="17.8" r="0.9" fill="#333"/>
<circle cx="21.2" cy="22.8" r="0.9" fill="#333"/>
<circle cx="22.4" cy="27.8" r="0.9" fill="#333"/>
<circle cx="26.2" cy="1.2" r="0.9" fill="#333"/>
<circle cx="27.4" cy="6.2" r="0.9" fill="#333"/>
<circle cx="26.6" cy="11.2" r="0.9" fill="#333"/>
<circle cx="27.8" cy="16.2" r="0.9" fill="#333"/>
<circle cx="27.0" cy="21.2" r="0.9" fill="#333"/>
<circle cx="26.2" cy="26.2" r="0.9" fill="#333"/></g>
<g transform="translate(30 0)"><circle cx="1.2" cy="1.2" r="0.9" fill="#333"/>
<circle cx="2.4" cy="6.2" r="0.9" fill="#333"/>
<circle cx="1.6" cy="11.2" r="0.9" fill="#333"/>
<circle cx="2.8" cy="16.2" r="0.9" fill="#333"/>
<circle cx="2.0" cy="21.2" r="0.9" fill="#333"/>
<circle cx="1.2" cy="26.2" r="0.9" fill="#333"/>
<circle cx="7.0" cy="1.6" r="0.9" fill="#333"/>
<circle cx="6.2" cy="6.6" r="0.9" fill="#333"/>
<circle cx="7.4" cy="11.6" r="0.9" fill="#333"/>
<circle cx="6.6" cy="16.6" r="0.9" fill="#333"/>
<circle cx="7.8" cy="21.6" r="0.9" fill="#333"/>
<circle cx="7.0" cy="26.6" r="0.9" fill="#333"/>
<circle cx="12.8" cy="2.0" r="0.9" fill="#333"/>
<circle cx="12.0" cy="7.0" r="0.9" fill="#333"/>
<circle cx="11.2" cy="12.0" r="0.9" fill="#333"/>
<circle cx="12.4" cy="17.0" r="0.9" fill="#333"/>
<circle cx="11.6" cy="22.0" r="0.9" fill="#333"/>
<circle cx="12.8" cy="27.0" r="0.9" fill="#333"/>
<circle cx="16.6" cy="2.4" r="0.9" fill="#333"/>
<circle cx="17.8" cy="7.4" r="0.9" fill="#333"/>
<circle cx="17.0" cy="12.4" r="0.9" fill="#333"/>
<circle cx="16.2" cy="17.4" r="0.9" fill="#333"/>
<circle cx="17.4" cy="22.4" r="0.9" fill="#333"/>
<circle cx="16.6" cy="27.4" r="0.9" fill="#333"/>
<circle cx="22.4" cy="2.8" r="0.9" fill="#333"/>
<circle cx="21.6" cy="7.8" r="0.9" fill="#333"/>
<circle cx="22.8" cy="12.8" r="0.9" fill="#333"/>
<circle cx="22.0" cy="17.8" r="0.9" fill="#333"/>
<circle cx="21.2" cy="22.8" r="0.9" fill="#333"/>
<circle cx="22.4" cy="27.8" r="0.9" fill="#333"/>
<circle cx="26.2" cy="1.2" r="0.9" fill="#333"/>
<circle cx="27.4" cy="6.2" r="0.9" fill="#333"/>
<circle cx="26.6" cy="11.2" r="0.9" fill="#333"/>
<circle cx="27.8" cy="16.2" r="0.9" fill="#333"/>
<circle cx="27.0" cy="21.2" r="0.9" fill="#333"/>
<circle cx="26.2" cy="26.2" r="0.9" fill="#333"/></g>
<g transform="translate(30 30)"><circle cx="1.2" cy="1.2" r="0.9" fill="#333"/>
<circle cx="2.4" cy="6.2" r="0.9" fill="#333"/>
<circle cx="1.6" cy="11.2" r="0.9" fill="#333"/>
<circle cx="2.8" cy="16.2" r="0.9" fill="#333"/>
<circle cx="2.0" cy="21.2" r="0.9" fill="#333"/>
<circle cx="1.2" cy="26.2" r="0.9" fill="#333"/>
<circle cx="7.0" cy="1.6" r="0.9" fill="#333"/>
<circle cx="6.2" cy="6.6" r="0.9" fill="#333"/>
<circle cx="7.4" cy="11.6" r="0.9" fill="#333"/>
<circle cx="6.6" cy="16.6" r="0.9" fill="#333"/>
<circle cx="7.8" cy="21.6" r="0.9" fill="#333"/>
<circle cx="7.0" cy="26.6" r="0.9" fill="#333"/>
<circle cx="12.8" cy="2.0" r="0.9" fill="#333"/>
<circle cx="12.0" cy="7.0" r="0.9" fill="#333"/>
<circle cx="11.2" cy="12.0" r="0.9" fill="#333"/>
<circle cx="12.4" cy="17.0" r="0.9" fill="#333"/>
<circle cx="11.6" cy="22.0" r="0.9" fill="#333"/>
<circle cx="12.8" cy="27.0" r="0.9" fill="#333"/>
<circle cx="16.6" cy="2.4" r="0.9" fill="#333"/>
<circle cx="17.8" cy="7.4" r="0.9" fill="#333"/>
<circle cx="17.0" cy="12.4" r="0.9" fill="#333"/>
<circle cx="16.2" cy="17.4" r="0.9" fill="#333"/>
<circle cx="17.4" cy="22.4" r="0.9" fill="#333"/>
<circle cx="16.6" cy="27.4" r="0.9" fill="#333"/>
<circle cx="22.4" cy="2.8" r="0.9" fill="#333"/>
<circle cx="21.6" cy="7.8" r="0.9" fill="#333"/>
<circle cx="22.8" cy="12.8" r="0.9" fill="#333"/>
<circle cx="22.0" cy="17.8" r="0.9" fill="#333"/>
<circle cx="21.2" cy="22.8" r="0.9" fill="#333"/>
<circle cx="22.4" cy="27.8" r="0.9" fill="#333"/>
<circle cx="26.2" cy="1.2" r="0.9" fill="#333"/>
<circle cx="27.4" cy="6.2" r="0.9" fill="#333"/>
<circle cx="26.6" cy="11.2" r="0.9" fill="#333"/>
<circle cx="27.8" cy="16.2" r="0.9" fill="#333"/>
<circle cx="27.0" cy="21.2" r="0.9" fill="#333"/>
<circle cx="26.2" cy="26.2" r="0.9" fill="#333"/></g></pattern></defs>
<rect width="120" height="120" fill="url(#pat_Em)" stroke="black" stroke-width="1"/>
</svg>
