<svg xmlns="http://www.w3.org/2000/svg" width="120" height="120" viewBox="0 0 120 120">
<defs><clipPath id="clip34"><rect width="34" height="34"/></clipPath><pattern id="pat_Em" patternUnits="userSpaceOnUse" width="34" height="34"><rect width="34" height="34" fill="white"/><g transform="translate(-34 -34)"><circle cx="17.4" cy="18.9" r="0.68" fill="#3a3a3a"/>
<circle cx="11.8" cy="23.9" r="0.63" fill="#3a3a3a"/>
<circle cx="33.1" cy="32.9" r="0.64" fill="#3a3a3a"/>
<circle cx="3.7" cy="13.9" r="0.80" fill="#3a3a3a"/>
<circle cx="7.7" cy="0.9" r="0.88" fill="#3a3a3a"/>
<circle cx="11.4" cy="2.6" r="0.90" fill="#3a3a3a"/>
<circle cx="12.1" cy="27.1" r="0.95" fill="#3a3a3a"/>
<circle cx="5.9" cy="15.9" r="0.69" fill="#3a3a3a"/>
<circle cx="28.7" cy="8.9" r="0.83" fill="#3a3a3a"/>
<circle cx="33.9" cy="10.8" r="0.63" fill="#3a3a3a"/>
<circle cx="0.7" cy="8.5" r="0.58" fill="#3a3a3a"/>
<circle cx="16.8" cy="0.9" r="0.94" fill="#3a3a3a"/>
<circle cx="28.5" cy="3.5" r="1.00" fill="#3a3a3a"/>
<circle cx="4.1" cy="6.4" r="0.80" fill="#3a3a3a"/>
<circle cx="29.8" cy="12.6" r="0.63" fill="#3a3a3a"/>
<circle cx="7.8" cy="17.2" r="0.96" fill="#3a3a3a"/>
<circle cx="1.3" cy="23.7" r="0.97" fill="#3a3a3a"/>
<circle cx="25.2" cy="27.2" r="0.72" fill="#3a3a3a"/>
<circle cx="24.0" cy="21.4" r="0.74" fill="#3a3a3a"/>
<circle cx="0.7" cy="26.5" r="0.67" fill="#3a3a3a"/>
<circle cx="2.8" cy="10.0" r="0.92" fill="#3a3a3a"/>
<circle cx="32.9" cy="10.0" r="0.62" fill="#3a3a3a"/>
<circle cx="28.6" cy="32.1" r="0.66" fill="#3a3a3a"/>
<circle cx="2.1" cy="28.5" r="0.56" fill="#3a3a3a"/>
<circle cx="27.3" cy="9.4" r="0.55" fill="#3a3a3a"/>
<circle cx="27.8" cy="5.3" r="1.00" fill="#3a3a3a"/>
<circle cx="2.0" cy="16.3" r="0.92" fill="#3a3a3a"/>
<circle cx="28.7" cy="26.6" r="0.57" fill="#3a3a3a"/>
<circle cx="6.6" cy="3.8" r="0.67" fill="#3a3a3a"/>
<circle cx="1.0" cy="1.0" r="0.96" fill="#3a3a3a"/>
<circle cx="18.1" cy="3.7" r="0.80" fill="#3a3a3a"/>
<circle cx="6.1" cy="33.1" r="0.65" fill="#3a3a3a"/>
<circle cx="21.1" cy="5.3" r="0.86" fill="#3a3a3a"/>
<circle cx="30.9" cy="26.5" r="0.91" fill="#3a3a3a"/>
<circle cx="29.5" cy="21.1" r="0.81" fill="#3a3a3a"/>
<circle cx="6.2" cy="11.2" r="0.87" fill="#3a3a3a"/>
<circle cx="7.1" cy="30.4" r="0.69" fill="#3a3a3a"/>
<circle cx="17.2" cy="29.6" r="0.73" fill="#3a3a3a"/>
<circle cx="26.6" cy="6.1" r="0.95" fill="#3a3a3a"/>
<circle cx="16.4" cy="4.4" r="0.91" fill="#3a3a3a"/>
<circle cx="18.4" cy="1.9" r="0.96" fill="#3a3a3a"/>
<circle cx="10.2" cy="18.1" r="0.62" fill="#3a3a3a"/>
<circle cx="21.7" cy="16.9" r="0.86" fill="#3a3a3a"/>
<circle cx="30.6" cy="13.7" r="0.85" fill="#3a3a3a"/>
<circle cx="17.8" cy="16.6" r="0.60" fill="#3a3a3a"/>
<circle cx="11.4" cy="11.7" r="0.78" fill="#3a3a3a"/>
<circle cx="2.6" cy="2.7" r="0.78" fill="#3a3a3a"/>
<circle cx="25.6" cy="4.3" r="0.95" fill="#3a3a3a"/>
<circle cx="33.3" cy="22.6" r="0.68" fill="#3a3a3a"/>
<circle cx="27.6" cy="1.8" r="0.63" fill="#3a3a3a"/>
<circle cx="23.0" cy="13.3" r="0.68" fill="#3a3a3a"/>
<circle cx="15.9" cy="23.7" r="0.90" fill="#3a3a3a"/>
<circle cx="26.0" cy="29.7" r="0.57" fill="#3a3a3a"/>
<circle cx="12.9" cy="32.0" r="0.84" fill="#3a3a3a"/>
<circle cx="9.6" cy="32.2" r="0.59" fill="#3a3a3a"/>
<circle cx="26.5" cy="12.8" r="0.76" fill="#3a3a3a"/>
<circle cx="1.1" cy="13.7" r="0.84" fill="#3a3a3a"/>
<circle cx="32.8" cy="13.5" r="0.93" fill="#3a3a3a"/>
<circle cx="29.3" cy="25.3" r="0.78" fill="#3a3a3a"/>
<circle cx="30.4" cy="21.4" r="0.71" fill="#3a3a3a"/></g>
<g transform="translate(-34 0)"><circle cx="17.4" cy="18.9" r="0.68" fill="#3a3a3a"/>
<circle cx="11.8" cy="23.9" r="0.63" fill="#3a3a3a"/>
<circle cx="33.1" cy="32.9" r="0.64" fill="#3a3a3a"/>
<circle cx="3.7" cy="13.9" r="0.80" fill="#3a3a3a"/>
<circle cx="7.7" cy="0.9" r="0.88" fill="#3a3a3a"/>
<circle cx="11.4" cy="2.6" r="0.90" fill="#3a3a3a"/>
<circle cx="12.1" cy="27.1" r="0.95" fill="#3a3a3a"/>
<circle cx="5.9" cy="15.9" r="0.69" fill="#3a3a3a"/>
<circle cx="28.7" cy="8.9" r="0.83" fill="#3a3a3a"/>
<circle cx="33.9" cy="10.8" r="0.63" fill="#3a3a3a"/>
<circle cx="0.7" cy="8.5" r="0.58" fill="#3a3a3a"/>
<circle cx="16.8" cy="0.9" r="0.94" fill="#3a3a3a"/>
<circle cx="28.5" cy="3.5" r="1.00" fill="#3a3a3a"/>
<circle cx="4.1" cy="6.4" r="0.80" fill="#3a3a3a"/>
<circle cx="29.8" cy="12.6" r="0.63" fill="#3a3a3a"/>
<circle cx="7.8" cy="17.2" r="0.96" fill="#3a3a3a"/>
<circle cx="1.3" cy="23.7" r="0.97" fill="#3a3a3a"/>
<circle cx="25.2" cy="27.2" r="0.72" fill="#3a3a3a"/>
<circle cx="24.0" cy="21.4" r="0.74" fill="#3a3a3a"/>
<circle cx="0.7" cy="26.5" r="0.67" fill="#3a3a3a"/>
<circle cx="2.8" cy="10.0" r="0.92" fill="#3a3a3a"/>
<circle cx="32.9" cy="10.0" r="0.62" fill="#3a3a3a"/>
<circle cx="28.6" cy="32.1" r="0.66" fill="#3a3a3a"/>
<circle cx="2.1" cy="28.5" r="0.56" fill="#3a3a3a"/>
<circle cx="27.3" cy="9.4" r="0.55" fill="#3a3a3a"/>
<circle cx="27.8" cy="5.3" r="1.00" fill="#3a3a3a"/>
<circle cx="2.0" cy="16.3" r="0.92" fill="#3a3a3a"/>
<circle cx="28.7" cy="26.6" r="0.57" fill="#3a3a3a"/>
<circle cx="6.6" cy="3.8" r="0.67" fill="#3a3a3a"/>
<circle cx="1.0" cy="1.0" r="0.96" fill="#3a3a3a"/>
<circle cx="18.1" cy="3.7" r="0.80" fill="#3a3a3a"/>
<circle cx="6.1" cy="33.1" r="0.65" fill="#3a3a3a"/>
<circle cx="21.1" cy="5.3" r="0.86" fill="#3a3a3a"/>
<circle cx="30.9" cy="26.5" r="0.91" fill="#3a3a3a"/>
<circle cx="29.5" cy="21.1" r="0.81" fill="#3a3a3a"/>
<circle cx="6.2" cy="11.2" r="0.87" fill="#3a3a3a"/>
<circle cx="7.1" cy="30.4" r="0.69" fill="#3a3a3a"/>
<circle cx="17.2" cy="29.6" r="0.73" fill="#3a3a3a"/>
<circle cx="26.6" cy="6.1" r="0.95" fill="#3a3a3a"/>
<circle cx="16.4" cy="4.4" r="0.91" fill="#3a3a3a"/>
<circle cx="18.4" cy="1.9" r="0.96" fill="#3a3a3a"/>
<circle cx="10.2" cy="18.1" r="0.62" fill="#3a3a3a"/>
<circle cx="21.7" cy="16.9" r="0.86" fill="#3a3a3a"/>
<circle cx="30.6" cy="13.7" r="0.85" fill="#3a3a3a"/>
<circle cx="17.8" cy="16.6" r="0.60" fill="#3a3a3a"/>
<circle cx="11.4" cy="11.7" r="0.78" fill="#3a3a3a"/>
<circle cx="2.6" cy="2.7" r="0.78" fill="#3a3a3a"/>
<circle cx="25.6" cy="4.3" r="0.95" fill="#3a3a3a"/>
<circle cx="33.3" cy="22.6" r="0.68" fill="#3a3a3a"/>
<circle cx="27.6" cy="1.8" r="0.63" fill="#3a3a3a"/>
<circle cx="23.0" cy="13.3" r="0.68" fill="#3a3a3a"/>
<circle cx="15.9" cy="23.7" r="0.90" fill="#3a3a3a"/>
<circle cx="26.0" cy="29.7" r="0.57" fill="#3a3a3a"/>
<circle cx="12.9" cy="32.0" r="0.84" fill="#3a3a3a"/>
<circle cx="9.6" cy="32.2" r="0.59" fill="#3a3a3a"/>
<circle cx="26.5" cy="12.8" r="0.76" fill="#3a3a3a"/>
<circle cx="1.1" cy="13.7" r="0.84" fill="#3a3a3a"/>
<circle cx="32.8" cy="13.5" r="0.93" fill="#3a3a3a"/>
<circle cx="29.3" cy="25.3" r="0.78" fill="#3a3a3a"/>
<circle cx="30.4" cy="21.4" r="0.71" fill="#3a3a3a"/></g>
<g transform="translate(-34 34)"><circle cx="17.4" cy="18.9" r="0.68" fill="#3a3a3a"/>
<circle cx="11.8" cy="23.9" r="0.63" fill="#3a3a3a"/>
<circle cx="33.1" cy="32.9" r="0.64" fill="#3a3a3a"/>
<circle cx="3.7" cy="13.9" r="0.80" fill="#3a3a3a"/>
<circle cx="7.7" cy="0.9" r="0.88" fill="#3a3a3a"/>
<circle cx="11.4" cy="2.6" r="0.90" fill="#3a3a3a"/>
<circle cx="12.1" cy="27.1" r="0.95" fill="#3a3a3a"/>
<circle cx="5.9" cy="15.9" r="0.69" fill="#3a3a3a"/>
<circle cx="28.7" cy="8.9" r="0.83" fill="#3a3a3a"/>
<circle cx="33.9" cy="10.8" r="0.63" fill="#3a3a3a"/>
<circle cx="0.7" cy="8.5" r="0.58" fill="#3a3a3a"/>
<circle cx="16.8" cy="0.9" r="0.94" fill="#3a3a3a"/>
<circle cx="28.5" cy="3.5" r="1.00" fill="#3a3a3a"/>
<circle cx="4.1" cy="6.4" r="0.80" fill="#3a3a3a"/>
<circle cx="29.8" cy="12.6" r="0.63" fill="#3a3a3a"/>
<circle cx="7.8" cy="17.2" r="0.96" fill="#3a3a3a"/>
<circle cx="1.3" cy="23.7" r="0.97" fill="#3a3a3a"/>
<circle cx="25.2" cy="27.2" r="0.72" fill="#3a3a3a"/>
<circle cx="24.0" cy="21.4" r="0.74" fill="#3a3a3a"/>
<circle cx="0.7" cy="26.5" r="0.67" fill="#3a3a3a"/>
<circle cx="2.8" cy="10.0" r="0.92" fill="#3a3a3a"/>
<circle cx="32.9" cy="10.0" r="0.62" fill="#3a3a3a"/>
<circle cx="28.6" cy="32.1" r="0.66" fill="#3a3a3a"/>
<circle cx="2.1" cy="28.5" r="0.56" fill="#3a3a3a"/>
<circle cx="27.3" cy="9.4" r="0.55" fill="#3a3a3a"/>
<circle cx="27.8" cy="5.3" r="1.00" fill="#3a3a3a"/>
<circle cx="2.0" cy="16.3" r="0.92" fill="#3a3a3a"/>
<circle cx="28.7" cy="26.6" r="0.57" fill="#3a3a3a"/>
<circle cx="6.6" cy="3.8" r="0.67" fill="#3a3a3a"/>
<circle cx="1.0" cy="1.0" r="0.96" fill="#3a3a3a"/>
<circle cx="18.1" cy="3.7" r="0.80" fill="#3a3a3a"/>
<circle cx="6.1" cy="33.1" r="0.65" fill="#3a3a3a"/>
<circle cx="21.1" cy="5.3" r="0.86" fill="#3a3a3a"/>
<circle cx="30.9" cy="26.5" r="0.91" fill="#3a3a3a"/>
<circle cx="29.5" cy="21.1" r="0.81" fill="#3a3a3a"/>
<circle cx="6.2" cy="11.2" r="0.87" fill="#3a3a3a"/>
<circle cx="7.1" cy="30.4" r="0.69" fill="#3a3a3a"/>
<circle cx="17.2" cy="29.6" r="0.73" fill="#3a3a3a"/>
<circle cx="26.6" cy="6.1" r="0.95" fill="#3a3a3a"/>
<circle cx="16.4" cy="4.4" r="0.91" fill="#3a3a3a"/>
<circle cx="18.4" cy="1.9" r="0.96" fill="#3a3a3a"/>
<circle cx="10.2" cy="18.1" r="0.62" fill="#3a3a3a"/>
<circle cx="21.7" cy="16.9" r="0.86" fill="#3a3a3a"/>
<circle cx="30.6" cy="13.7" r="0.85" fill="#3a3a3a"/>
<circle cx="17.8" cy="16.6" r="0.60" fill="#3a3a3a"/>
<circle cx="11.4" cy="11.7" r="0.78" fill="#3a3a3a"/>
<circle cx="2.6" cy="2.7" r="0.78" fill="#3a3a3a"/>
<circle cx="25.6" cy="4.3" r="0.95" fill="#3a3a3a"/>
<circle cx="33.3" cy="22.6" r="0.68" fill="#3a3a3a"/>
<circle cx="27.6" cy="1.8" r="0.63" fill="#3a3a3a"/>
<circle cx="23.0" cy="13.3" r="0.68" fill="#3a3a3a"/>
<circle cx="15.9" cy="23.7" r="0.90" fill="#3a3a3a"/>
<circle cx="26.0" cy="29.7" r="0.57" fill="#3a3a3a"/>
<circle cx="12.9" cy="32.0" r="0.84" fill="#3a3a3a"/>
<circle cx="9.6" cy="32.2" r="0.59" fill="#3a3a3a"/>
<circle cx="26.5" cy="12.8" r="0.76" fill="#3a3a3a"/>
<circle cx="1.1" cy="13.7" r="0.84" fill="#3a3a3a"/>
<circle cx="32.8" cy="13.5" r="0.93" fill="#3a3a3a"/>
<circle cx="29.3" cy="25.3" r="0.78" fill="#3a3a3a"/>
<circle cx="30.4" cy="21.4" r="0.71" fill="#3a3a3a"/></g>
<g transform="translate(0 -34)"><circle cx="17.4" cy="18.9" r="0.68" fill="#3a3a3a"/>
<circle cx="11.8" cy="23.9" r="0.63" fill="#3a3a3a"/>
<circle cx="33.1" cy="32.9" r="0.64" fill="#3a3a3a"/>
<circle cx="3.7" cy="13.9" r="0.80" fill="#3a3a3a"/>
<circle cx="7.7" cy="0.9" r="0.88" fill="#3a3a3a"/>
<circle cx="11.4" cy="2.6" r="0.90" fill="#3a3a3a"/>
<circle cx="12.1" cy="27.1" r="0.95" fill="#3a3a3a"/>
<circle cx="5.9" cy="15.9" r="0.69" fill="#3a3a3a"/>
<circle cx="28.7" cy="8.9" r="0.83" fill="#3a3a3a"/>
<circle cx="33.9" cy="10.8" r="0.63" fill="#3a3a3a"/>
<circle cx="0.7" cy="8.5" r="0.58" fill="#3a3a3a"/>
<circle cx="16.8" cy="0.9" r="0.94" fill="#3a3a3a"/>
<circle cx="28.5" cy="3.5" r="1.00" fill="#3a3a3a"/>
<circle cx="4.1" cy="6.4" r="0.80" fill="#3a3a3a"/>
<circle cx="29.8" cy="12.6" r="0.63" fill="#3a3a3a"/>
<circle cx="7.8" cy="17.2" r="0.96" fill="#3a3a3a"/>
<circle cx="1.3" cy="23.7" r="0.97" fill="#3a3a3a"/>
<circle cx="25.2" cy="27.2" r="0.72" fill="#3a3a3a"/>
<circle cx="24.0" cy="21.4" r="0.74" fill="#3a3a3a"/>
<circle cx="0.7" cy="26.5" r="0.67" fill="#3a3a3a"/>
<circle cx="2.8" cy="10.0" r="0.92" fill="#3a3a3a"/>
<circle cx="32.9" cy="10.0" r="0.62" fill="#3a3a3a"/>
<circle cx="28.6" cy="32.1" r="0.66" fill="#3a3a3a"/>
<circle cx="2.1" cy="28.5" r="0.56" fill="#3a3a3a"/>
<circle cx="27.3" cy="9.4" r="0.55" fill="#3a3a3a"/>
<circle cx="27.8" cy="5.3" r="1.00" fill="#3a3a3a"/>
<circle cx="2.0" cy="16.3" r="0.92" fill="#3a3a3a"/>
<circle cx="28.7" cy="26.6" r="0.57" fill="#3a3a3a"/>
<circle cx="6.6" cy="3.8" r="0.67" fill="#3a3a3a"/>
<circle cx="1.0" cy="1.0" r="0.96" fill="#3a3a3a"/>
<circle cx="18.1" cy="3.7" r="0.80" fill="#3a3a3a"/>
<circle cx="6.1" cy="33.1" r="0.65" fill="#3a3a3a"/>
<circle cx="21.1" cy="5.3" r="0.86" fill="#3a3a3a"/>
<circle cx="30.9" cy="26.5" r="0.91" fill="#3a3a3a"/>
<circle cx="29.5" cy="21.1" r="0.81" fill="#3a3a3a"/>
<circle cx="6.2" cy="11.2" r="0.87" fill="#3a3a3a"/>
<circle cx="7.1" cy="30.4" r="0.69" fill="#3a3a3a"/>
<circle cx="17.2" cy="29.6" r="0.73" fill="#3a3a3a"/>
<circle cx="26.6" cy="6.1" r="0.95" fill="#3a3a3a"/>
<circle cx="16.4" cy="4.4" r="0.91" fill="#3a3a3a"/>
<circle cx="18.4" cy="1.9" r="0.96" fill="#3a3a3a"/>
<circle cx="10.2" cy="18.1" r="0.62" fill="#3a3a3a"/>
<circle cx="21.7" cy="16.9" r="0.86" fill="#3a3a3a"/>
<circle cx="30.6" cy="13.7" r="0.85" fill="#3a3a3a"/>
<circle cx="17.8" cy="16.6" r="0.60" fill="#3a3a3a"/>
<circle cx="11.4" cy="11.7" r="0.78" fill="#3a3a3a"/>
<circle cx="2.6" cy="2.7" r="0.78" fill="#3a3a3a"/>
<circle cx="25.6" cy="4.3" r="0.95" fill="#3a3a3a"/>
<circle cx="33.3" cy="22.6" r="0.68" fill="#3a3a3a"/>
<circle cx="27.6" cy="1.8" r="0.63" fill="#3a3a3a"/>
<circle cx="23.0" cy="13.3" r="0.68" fill="#3a3a3a"/>
<circle cx="15.9" cy="23.7" r="0.90" fill="#3a3a3a"/>
<circle cx="26.0" cy="29.7" r="0.57" fill="#3a3a3a"/>
<circle cx="12.9" cy="32.0" r="0.84" fill="#3a3a3a"/>
<circle cx="9.6" cy="32.2" r="0.59" fill="#3a3a3a"/>
<circle cx="26.5" cy="12.8" r="0.76" fill="#3a3a3a"/>
<circle cx="1.1" cy="13.7" r="0.84" fill="#3a3a3a"/>
<circle cx="32.8" cy="13.5" r="0.93" fill="#3a3a3a"/>
<circle cx="29.3" cy="25.3" r="0.78" fill="#3a3a3a"/>
<circle cx="30.4" cy="21.4" r="0.71" fill="#3a3a3a"/></g>
<g transform="translate(0 0)"><circle cx="17.4" cy="18.9" r="0.68" fill="#3a3a3a"/>
<circle cx="11.8" cy="23.9" r="0.63" fill="#3a3a3a"/>
<circle cx="33.1" cy="32.9" r="0.64" fill="#3a3a3a"/>
<circle cx="3.7" cy="13.9" r="0.80" fill="#3a3a3a"/>
<circle cx="7.7" cy="0.9" r="0.88" fill="#3a3a3a"/>
<circle cx="11.4" cy="2.6" r="0.90" fill="#3a3a3a"/>
<circle cx="12.1" cy="27.1" r="0.95" fill="#3a3a3a"/>
<circle cx="5.9" cy="15.9" r="0.69" fill="#3a3a3a"/>
<circle cx="28.7" cy="8.9" r="0.83" fill="#3a3a3a"/>
<circle cx="33.9" cy="10.8" r="0.63" fill="#3a3a3a"/>
<circle cx="0.7" cy="8.5" r="0.58" fill="#3a3a3a"/>
<circle cx="16.8" cy="0.9" r="0.94" fill="#3a3a3a"/>
<circle cx="28.5" cy="3.5" r="1.00" fill="#3a3a3a"/>
<circle cx="4.1" cy="6.4" r="0.80" fill="#3a3a3a"/>
<circle cx="29.8" cy="12.6" r="0.63" fill="#3a3a3a"/>
<circle cx="7.8" cy="17.2" r="0.96" fill="#3a3a3a"/>
<circle cx="1.3" cy="23.7" r="0.97" fill="#3a3a3a"/>
<circle cx="25.2" cy="27.2" r="0.72" fill="#3a3a3a"/>
<circle cx="24.0" cy="21.4" r="0.74" fill="#3a3a3a"/>
<circle cx="0.7" cy="26.5" r="0.67" fill="#3a3a3a"/>
<circle cx="2.8" cy="10.0" r="0.92" fill="#3a3a3a"/>
<circle cx="32.9" cy="10.0" r="0.62" fill="#3a3a3a"/>
<circle cx="28.6" cy="32.1" r="0.66" fill="#3a3a3a"/>
<circle cx="2.1" cy="28.5" r="0.56" fill="#3a3a3a"/>
<circle cx="27.3" cy="9.4" r="0.55" fill="#3a3a3a"/>
<circle cx="27.8" cy="5.3" r="1.00" fill="#3a3a3a"/>
<circle cx="2.0" cy="16.3" r="0.92" fill="#3a3a3a"/>
<circle cx="28.7" cy="26.6" r="0.57" fill="#3a3a3a"/>
<circle cx="6.6" cy="3.8" r="0.67" fill="#3a3a3a"/>
<circle cx="1.0" cy="1.0" r="0.96" fill="#3a3a3a"/>
<circle cx="18.1" cy="3.7" r="0.80" fill="#3a3a3a"/>
<circle cx="6.1" cy="33.1" r="0.65" fill="#3a3a3a"/>
<circle cx="21.1" cy="5.3" r="0.86" fill="#3a3a3a"/>
<circle cx="30.9" cy="26.5" r="0.91" fill="#3a3a3a"/>
<circle cx="29.5" cy="21.1" r="0.81" fill="#3a3a3a"/>
<circle cx="6.2" cy="11.2" r="0.87" fill="#3a3a3a"/>
<circle cx="7.1" cy="30.4" r="0.69" fill="#3a3a3a"/>
<circle cx="17.2" cy="29.6" r="0.73" fill="#3a3a3a"/>
<circle cx="26.6" cy="6.1" r="0.95" fill="#3a3a3a"/>
<circle cx="16.4" cy="4.4" r="0.91" fill="#3a3a3a"/>
<circle cx="18.4" cy="1.9" r="0.96" fill="#3a3a3a"/>
<circle cx="10.2" cy="18.1" r="0.62" fill="#3a3a3a"/>
<circle cx="21.7" cy="16.9" r="0.86" fill="#3a3a3a"/>
<circle cx="30.6" cy="13.7" r="0.85" fill="#3a3a3a"/>
<circle cx="17.8" cy="16.6" r="0.60" fill="#3a3a3a"/>
<circle cx="11.4" cy="11.7" r="0.78" fill="#3a3a3a"/>
<circle cx="2.6" cy="2.7" r="0.78" fill="#3a3a3a"/>
<circle cx="25.6" cy="4.3" r="0.95" fill="#3a3a3a"/>
<circle cx="33.3" cy="22.6" r="0.68" fill="#3a3a3a"/>
<circle cx="27.6" cy="1.8" r="0.63" fill="#3a3a3a"/>
<circle cx="23.0" cy="13.3" r="0.68" fill="#3a3a3a"/>
<circle cx="15.9" cy="23.7" r="0.90" fill="#3a3a3a"/>
<circle cx="26.0" cy="29.7" r="0.57" fill="#3a3a3a"/>
<circle cx="12.9" cy="32.0" r="0.84" fill="#3a3a3a"/>
<circle cx="9.6" cy="32.2" r="0.59" fill="#3a3a3a"/>
<circle cx="26.5" cy="12.8" r="0.76" fill="#3a3a3a"/>
<circle cx="1.1" cy="13.7" r="0.84" fill="#3a3a3a"/>
<circle cx="32.8" cy="13.5" r="0.93" fill="#3a3a3a"/>
<circle cx="29.3" cy="25.3" r="0.78" fill="#3a3a3a"/>
<circle cx="30.4" cy="21.4" r="0.71" fill="#3a3a3a"/></g>
<g transform="translate(0 34)"><circle cx="17.4" cy="18.9" r="0.68" fill="#3a3a3a"/>
<circle cx="11.8" cy="23.9" r="0.63" fill="#3a3a3a"/>
<circle cx="33.1" cy="32.9" r="0.64" fill="#3a3a3a"/>
<circle cx="3.7" cy="13.9" r="0.80" fill="#3a3a3a"/>
<circle cx="7.7" cy="0.9" r="0.88" fill="#3a3a3a"/>
<circle cx="11.4" cy="2.6" r="0.90" fill="#3a3a3a"/>
<circle cx="12.1" cy="27.1" r="0.95" fill="#3a3a3a"/>
<circle cx="5.9" cy="15.9" r="0.69" fill="#3a3a3a"/>
<circle cx="28.7" cy="8.9" r="0.83" fill="#3a3a3a"/>
<circle cx="33.9" cy="10.8" r="0.63" fill="#3a3a3a"/>
<circle cx="0.7" cy="8.5" r="0.58" fill="#3a3a3a"/>
<circle cx="16.8" cy="0.9" r="0.94" fill="#3a3a3a"/>
<circle cx="28.5" cy="3.5" r="1.00" fill="#3a3a3a"/>
<circle cx="4.1" cy="6.4" r="0.80" fill="#3a3a3a"/>
<circle cx="29.8" cy="12.6" r="0.63" fill="#3a3a3a"/>
<circle cx="7.8" cy="17.2" r="0.96" fill="#3a3a3a"/>
<circle cx="1.3" cy="23.7" r="0.97" fill="#3a3a3a"/>
<circle cx="25.2" cy="27.2" r="0.72" fill="#3a3a3a"/>
<circle cx="24.0" cy="21.4" r="0.74" fill="#3a3a3a"/>
<circle cx="0.7" cy="26.5" r="0.67" fill="#3a3a3a"/>
<circle cx="2.8" cy="10.0" r="0.92" fill="#3a3a3a"/>
<circle cx="32.9" cy="10.0" r="0.62" fill="#3a3a3a"/>
<circle cx="28.6" cy="32.1" r="0.66" fill="#3a3a3a"/>
<circle cx="2.1" cy="28.5" r="0.56" fill="#3a3a3a"/>
<circle cx="27.3" cy="9.4" r="0.55" fill="#3a3a3a"/>
<circle cx="27.8" cy="5.3" r="1.00" fill="#3a3a3a"/>
<circle cx="2.0" cy="16.3" r="0.92" fill="#3a3a3a"/>
<circle cx="28.7" cy="26.6" r="0.57" fill="#3a3a3a"/>
<circle cx="6.6" cy="3.8" r="0.67" fill="#3a3a3a"/>
<circle cx="1.0" cy="1.0" r="0.96" fill="#3a3a3a"/>
<circle cx="18.1" cy="3.7" r="0.80" fill="#3a3a3a"/>
<circle cx="6.1" cy="33.1" r="0.65" fill="#3a3a3a"/>
<circle cx="21.1" cy="5.3" r="0.86" fill="#3a3a3a"/>
<circle cx="30.9" cy="26.5" r="0.91" fill="#3a3a3a"/>
<circle cx="29.5" cy="21.1" r="0.81" fill="#3a3a3a"/>
<circle cx="6.2" cy="11.2" r="0.87" fill="#3a3a3a"/>
<circle cx="7.1" cy="30.4" r="0.69" fill="#3a3a3a"/>
<circle cx="17.2" cy="29.6" r="0.73" fill="#3a3a3a"/>
<circle cx="26.6" cy="6.1" r="0.95" fill="#3a3a3a"/>
<circle cx="16.4" cy="4.4" r="0.91" fill="#3a3a3a"/>
<circle cx="18.4" cy="1.9" r="0.96" fill="#3a3a3a"/>
<circle cx="10.2" cy="18.1" r="0.62" fill="#3a3a3a"/>
<circle cx="21.7" cy="16.9" r="0.86" fill="#3a3a3a"/>
<circle cx="30.6" cy="13.7" r="0.85" fill="#3a3a3a"/>
<circle cx="17.8" cy="16.6" r="0.60" fill="#3a3a3a"/>
<circle cx="11.4" cy="11.7" r="0.78" fill="#3a3a3a"/>
<circle cx="2.6" cy="2.7" r="0.78" fill="#3a3a3a"/>
<circle cx="25.6" cy="4.3" r="0.95" fill="#3a3a3a"/>
<circle cx="33.3" cy="22.6" r="0.68" fill="#3a3a3a"/>
<circle cx="27.6" cy="1.8" r="0.63" fill="#3a3a3a"/>
<circle cx="23.0" cy="13.3" r="0.68" fill="#3a3a3a"/>
<circle cx="15.9" cy="23.7" r="0.90" fill="#3a3a3a"/>
<circle cx="26.0" cy="29.7" r="0.57" fill="#3a3a3a"/>
<circle cx="12.9" cy="32.0" r="0.84" fill="#3a3a3a"/>
<circle cx="9.6" cy="32.2" r="0.59" fill="#3a3a3a"/>
<circle cx="26.5" cy="12.8" r="0.76" fill="#3a3a3a"/>
<circle cx="1.1" cy="13.7" r="0.84" fill="#3a3a3a"/>
<circle cx="32.8" cy="13.5" r="0.93" fill="#3a3a3a"/>
<circle cx="29.3" cy="25.3" r="0.78" fill="#3a3a3a"/>
<circle cx="30.4" cy="21.4" r="0.71" fill="#3a3a3a"/></g>
<g transform="translate(34 -34)"><circle cx="17.4" cy="18.9" r="0.68" fill="#3a3a3a"/>
<circle cx="11.8" cy="23.9" r="0.63" fill="#3a3a3a"/>
<circle cx="33.1" cy="32.9" r="0.64" fill="#3a3a3a"/>
<circle cx="3.7" cy="13.9" r="0.80" fill="#3a3a3a"/>
<circle cx="7.7" cy="0.9" r="0.88" fill="#3a3a3a"/>
<circle cx="11.4" cy="2.6" r="0.90" fill="#3a3a3a"/>
<circle cx="12.1" cy="27.1" r="0.95" fill="#3a3a3a"/>
<circle cx="5.9" cy="15.9" r="0.69" fill="#3a3a3a"/>
<circle cx="28.7" cy="8.9" r="0.83" fill="#3a3a3a"/>
<circle cx="33.9" cy="10.8" r="0.63" fill="#3a3a3a"/>
<circle cx="0.7" cy="8.5" r="0.58" fill="#3a3a3a"/>
<circle cx="16.8" cy="0.9" r="0.94" fill="#3a3a3a"/>
<circle cx="28.5" cy="3.5" r="1.00" fill="#3a3a3a"/>
<circle cx="4.1" cy="6.4" r="0.80" fill="#3a3a3a"/>
<circle cx="29.8" cy="12.6" r="0.63" fill="#3a3a3a"/>
<circle cx="7.8" cy="17.2" r="0.96" fill="#3a3a3a"/>
<circle cx="1.3" cy="23.7" r="0.97" fill="#3a3a3a"/>
<circle cx="25.2" cy="27.2" r="0.72" fill="#3a3a3a"/>
<circle cx="24.0" cy="21.4" r="0.74" fill="#3a3a3a"/>
<circle cx="0.7" cy="26.5" r="0.67" fill="#3a3a3a"/>
<circle cx="2.8" cy="10.0" r="0.92" fill="#3a3a3a"/>
<circle cx="32.9" cy="10.0" r="0.62" fill="#3a3a3a"/>
<circle cx="28.6" cy="32.1" r="0.66" fill="#3a3a3a"/>
<circle cx="2.1" cy="28.5" r="0.56" fill="#3a3a3a"/>
<circle cx="27.3" cy="9.4" r="0.55" fill="#3a3a3a"/>
<circle cx="27.8" cy="5.3" r="1.00" fill="#3a3a3a"/>
<circle cx="2.0" cy="16.3" r="0.92" fill="#3a3a3a"/>
<circle cx="28.7" cy="26.6" r="0.57" fill="#3a3a3a"/>
<circle cx="6.6" cy="3.8" r="0.67" fill="#3a3a3a"/>
<circle cx="1.0" cy="1.0" r="0.96" fill="#3a3a3a"/>
<circle cx="18.1" cy="3.7" r="0.80" fill="#3a3a3a"/>
<circle cx="6.1" cy="33.1" r="0.65" fill="#3a3a3a"/>
<circle cx="21.1" cy="5.3" r="0.86" fill="#3a3a3a"/>
<circle cx="30.9" cy="26.5" r="0.91" fill="#3a3a3a"/>
<circle cx="29.5" cy="21.1" r="0.81" fill="#3a3a3a"/>
<circle cx="6.2" cy="11.2" r="0.87" fill="#3a3a3a"/>
<circle cx="7.1" cy="30.4" r="0.69" fill="#3a3a3a"/>
<circle cx="17.2" cy="29.6" r="0.73" fill="#3a3a3a"/>
<circle cx="26.6" cy="6.1" r="0.95" fill="#3a3a3a"/>
<circle cx="16.4" cy="4.4" r="0.91" fill="#3a3a3a"/>
<circle cx="18.4" cy="1.9" r="0.96" fill="#3a3a3a"/>
<circle cx="10.2" cy="18.1" r="0.62" fill="#3a3a3a"/>
<circle cx="21.7" cy="16.9" r="0.86" fill="#3a3a3a"/>
<circle cx="30.6" cy="13.7" r="0.85" fill="#3a3a3a"/>
<circle cx="17.8" cy="16.6" r="0.60" fill="#3a3a3a"/>
<circle cx="11.4" cy="11.7" r="0.78" fill="#3a3a3a"/>
<circle cx="2.6" cy="2.7" r="0.78" fill="#3a3a3a"/>
<circle cx="25.6" cy="4.3" r="0.95" fill="#3a3a3a"/>
<circle cx="33.3" cy="22.6" r="0.68" fill="#3a3a3a"/>
<circle cx="27.6" cy="1.8" r="0.63" fill="#3a3a3a"/>
<circle cx="23.0" cy="13.3" r="0.68" fill="#3a3a3a"/>
<circle cx="15.9" cy="23.7" r="0.90" fill="#3a3a3a"/>
<circle cx="26.0" cy="29.7" r="0.57" fill="#3a3a3a"/>
<circle cx="12.9" cy="32.0" r="0.84" fill="#3a3a3a"/>
<circle cx="9.6" cy="32.2" r="0.59" fill="#3a3a3a"/>
<circle cx="26.5" cy="12.8" r="0.76" fill="#3a3a3a"/>
<circle cx="1.1" cy="13.7" r="0.84" fill="#3a3a3a"/>
<circle cx="32.8" cy="13.5" r="0.93" fill="#3a3a3a"/>
<circle cx="29.3" cy="25.3" r="0.78" fill="#3a3a3a"/>
<circle cx="30.4" cy="21.4" r="0.71" fill="#3a3a3a"/></g>
<g transform="translate(34 0)"><circle cx="17.4" cy="18.9" r="0.68" fill="#3a3a3a"/>
<circle cx="11.8" cy="23.9" r="0.63" fill="#3a3a3a"/>
<circle cx="33.1" cy="32.9" r="0.64" fill="#3a3a3a"/>
<circle cx="3.7" cy="13.9" r="0.80" fill="#3a3a3a"/>
<circle cx="7.7" cy="0.9" r="0.88" fill="#3a3a3a"/>
<circle cx="11.4" cy="2.6" r="0.90" fill="#3a3a3a"/>
<circle cx="12.1" cy="27.1" r="0.95" fill="#3a3a3a"/>
<circle cx="5.9" cy="15.9" r="0.69" fill="#3a3a3a"/>
<circle cx="28.7" cy="8.9" r="0.83" fill="#3a3a3a"/>
<circle cx="33.9" cy="10.8" r="0.63" fill="#3a3a3a"/>
<circle cx="0.7" cy="8.5" r="0.58" fill="#3a3a3a"/>
<circle cx="16.8" cy="0.9" r="0.94" fill="#3a3a3a"/>
<circle cx="28.5" cy="3.5" r="1.00" fill="#3a3a3a"/>
<circle cx="4.1" cy="6.4" r="0.80" fill="#3a3a3a"/>
<circle cx="29.8" cy="12.6" r="0.63" fill="#3a3a3a"/>
<circle cx="7.8" cy="17.2" r="0.96" fill="#3a3a3a"/>
<circle cx="1.3" cy="23.7" r="0.97" fill="#3a3a3a"/>
<circle cx="25.2" cy="27.2" r="0.72" fill="#3a3a3a"/>
<circle cx="24.0" cy="21.4" r="0.74" fill="#3a3a3a"/>
<circle cx="0.7" cy="26.5" r="0.67" fill="#3a3a3a"/>
<circle cx="2.8" cy="10.0" r="0.92" fill="#3a3a3a"/>
<circle cx="32.9" cy="10.0" r="0.62" fill="#3a3a3a"/>
<circle cx="28.6" cy="32.1" r="0.66" fill="#3a3a3a"/>
<circle cx="2.1" cy="28.5" r="0.56" fill="#3a3a3a"/>
<circle cx="27.3" cy="9.4" r="0.55" fill="#3a3a3a"/>
<circle cx="27.8" cy="5.3" r="1.00" fill="#3a3a3a"/>
<circle cx="2.0" cy="16.3" r="0.92" fill="#3a3a3a"/>
<circle cx="28.7" cy="26.6" r="0.57" fill="#3a3a3a"/>
<circle cx="6.6" cy="3.8" r="0.67" fill="#3a3a3a"/>
<circle cx="1.0" cy="1.0" r="0.96" fill="#3a3a3a"/>
<circle cx="18.1" cy="3.7" r="0.80" fill="#3a3a3a"/>
<circle cx="6.1" cy="33.1" r="0.65" fill="#3a3a3a"/>
<circle cx="21.1" cy="5.3" r="0.86" fill="#3a3a3a"/>
<circle cx="30.9" cy="26.5" r="0.91" fill="#3a3a3a"/>
<circle cx="29.5" cy="21.1" r="0.81" fill="#3a3a3a"/>
<circle cx="6.2" cy="11.2" r="0.87" fill="#3a3a3a"/>
<circle cx="7.1" cy="30.4" r="0.69" fill="#3a3a3a"/>
<circle cx="17.2" cy="29.6" r="0.73" fill="#3a3a3a"/>
<circle cx="26.6" cy="6.1" r="0.95" fill="#3a3a3a"/>
<circle cx="16.4" cy="4.4" r="0.91" fill="#3a3a3a"/>
<circle cx="18.4" cy="1.9" r="0.96" fill="#3a3a3a"/>
<circle cx="10.2" cy="18.1" r="0.62" fill="#3a3a3a"/>
<circle cx="21.7" cy="16.9" r="0.86" fill="#3a3a3a"/>
<circle cx="30.6" cy="13.7" r="0.85" fill="#3a3a3a"/>
<circle cx="17.8" cy="16.6" r="0.60" fill="#3a3a3a"/>
<circle cx="11.4" cy="11.7" r="0.78" fill="#3a3a3a"/>
<circle cx="2.6" cy="2.7" r="0.78" fill="#3a3a3a"/>
<circle cx="25.6" cy="4.3" r="0.95" fill="#3a3a3a"/>
<circle cx="33.3" cy="22.6" r="0.68" fill="#3a3a3a"/>
<circle cx="27.6" cy="1.8" r="0.63" fill="#3a3a3a"/>
<circle cx="23.0" cy="13.3" r="0.68" fill="#3a3a3a"/>
<circle cx="15.9" cy="23.7" r="0.90" fill="#3a3a3a"/>
<circle cx="26.0" cy="29.7" r="0.57" fill="#3a3a3a"/>
<circle cx="12.9" cy="32.0" r="0.84" fill="#3a3a3a"/>
<circle cx="9.6" cy="32.2" r="0.59" fill="#3a3a3a"/>
<circle cx="26.5" cy="12.8" r="0.76" fill="#3a3a3a"/>
<circle cx="1.1" cy="13.7" r="0.84" fill="#3a3a3a"/>
<circle cx="32.8" cy="13.5" r="0.93" fill="#3a3a3a"/>
<circle cx="29.3" cy="25.3" r="0.78" fill="#3a3a3a"/>
<circle cx="30.4" cy="21.4" r="0.71" fill="#3a3a3a"/></g>
<g transform="translate(34 34)"><circle cx="17.4" cy="18.9" r="0.68" fill="#3a3a3a"/>
<circle cx="11.8" cy="23.9" r="0.63" fill="#3a3a3a"/>
<circle cx="33.1" cy="32.9" r="0.64" fill="#3a3a3a"/>
<circle cx="3.7" cy="13.9" r="0.80" fill="#3a3a3a"/>
<circle cx="7.7" cy="0.9" r="0.88" fill="#3a3a3a"/>
<circle cx="11.4" cy="2.6" r="0.90" fill="#3a3a3a"/>
<circle cx="12.1" cy="27.1" r="0.95" fill="#3a3a3a"/>
<circle cx="5.9" cy="15.9" r="0.69" fill="#3a3a3a"/>
<circle cx="28.7" cy="8.9" r="0.83" fill="#3a3a3a"/>
<circle cx="33.9" cy="10.8" r="0.63" fill="#3a3a3a"/>
<circle cx="0.7" cy="8.5" r="0.58" fill="#3a3a3a"/>
<circle cx="16.8" cy="0.9" r="0.94" fill="#3a3a3a"/>
<circle cx="28.5" cy="3.5" r="1.00" fill="#3a3a3a"/>
<circle cx="4.1" cy="6.4" r="0.80" fill="#3a3a3a"/>
<circle cx="29.8" cy="12.6" r="0.63" fill="#3a3a3a"/>
<circle cx="7.8" cy="17.2" r="0.96" fill="#3a3a3a"/>
<circle cx="1.3" cy="23.7" r="0.97" fill="#3a3a3a"/>
<circle cx="25.2" cy="27.2" r="0.72" fill="#3a3a3a"/>
<circle cx="24.0" cy="21.4" r="0.74" fill="#3a3a3a"/>
<circle cx="0.7" cy="26.5" r="0.67" fill="#3a3a3a"/>
<circle cx="2.8" cy="10.0" r="0.92" fill="#3a3a3a"/>
<circle cx="32.9" cy="10.0" r="0.62" fill="#3a3a3a"/>
<circle cx="28.6" cy="32.1" r="0.66" fill="#3a3a3a"/>
<circle cx="2.1" cy="28.5" r="0.56" fill="#3a3a3a"/>
<circle cx="27.3" cy="9.4" r="0.55" fill="#3a3a3a"/>
<circle cx="27.8" cy="5.3" r="1.00" fill="#3a3a3a"/>
<circle cx="2.0" cy="16.3" r="0.92" fill="#3a3a3a"/>
<circle cx="28.7" cy="26.6" r="0.57" fill="#3a3a3a"/>
<circle cx="6.6" cy="3.8" r="0.67" fill="#3a3a3a"/>
<circle cx="1.0" cy="1.0" r="0.96" fill="#3a3a3a"/>
<circle cx="18.1" cy="3.7" r="0.80" fill="#3a3a3a"/>
<circle cx="6.1" cy="33.1" r="0.65" fill="#3a3a3a"/>
<circle cx="21.1" cy="5.3" r="0.86" fill="#3a3a3a"/>
<circle cx="30.9" cy="26.5" r="0.91" fill="#3a3a3a"/>
<circle cx="29.5" cy="21.1" r="0.81" fill="#3a3a3a"/>
<circle cx="6.2" cy="11.2" r="0.87" fill="#3a3a3a"/>
<circle cx="7.1" cy="30.4" r="0.69" fill="#3a3a3a"/>
<circle cx="17.2" cy="29.6" r="0.73" fill="#3a3a3a"/>
<circle cx="26.6" cy="6.1" r="0.95" fill="#3a3a3a"/>
<circle cx="16.4" cy="4.4" r="0.91" fill="#3a3a3a"/>
<circle cx="18.4" cy="1.9" r="0.96" fill="#3a3a3a"/>
<circle cx="10.2" cy="18.1" r="0.62" fill="#3a3a3a"/>
<circle cx="21.7" cy="16.9" r="0.86" fill="#3a3a3a"/>
<circle cx="30.6" cy="13.7" r="0.85" fill="#3a3a3a"/>
<circle cx="17.8" cy="16.6" r="0.60" fill="#3a3a3a"/>
<circle cx="11.4" cy="11.7" r="0.78" fill="#3a3a3a"/>
<circle cx="2.6" cy="2.7" r="0.78" fill="#3a3a3a"/>
<circle cx="25.6" cy="4.3" r="0.95" fill="#3a3a3a"/>
<circle cx="33.3" cy="22.6" r="0.68" fill="#3a3a3a"/>
<circle cx="27.6" cy="1.8" r="0.63" fill="#3a3a3a"/>
<circle cx="23.0" cy="13.3" r="0.68" fill="#3a3a3a"/>
<circle cx="15.9" cy="23.7" r="0.90" fill="#3a3a3a"/>
<circle cx="26.0" cy="29.7" r="0.57" fill="#3a3a3a"/>
<circle cx="12.9" cy="32.0" r="0.84" fill="#3a3a3a"/>
<circle cx="9.6" cy="32.2" r="0.59" fill="#3a3a3a"/>
<circle cx="26.5" cy="12.8" r="0.76" fill="#3a3a3a"/>
<circle cx="1.1" cy="13.7" r="0.84" fill="#3a3a3a"/>
<circle cx="32.8" cy="13.5" r="0.93" fill="#3a3a3a"/>
<circle cx="29.3" cy="25.3" r="0.78" fill="#3a3a3a"/>
<circle cx="30.4" cy="21.4" r="0.71" fill="#3a3a3a"/></g></pattern></defs>
<rect width="120" height="120" fill="url(#pat_Em)" stroke="black" stroke-width="1"/>
</svg>
