<svg xmlns="http://www.w3.org/2000/svg" width="120" height="120" viewBox="0 0 120 120">
<defs><clipPath id="clip72"><rect width="72" height="72"/></clipPath><pattern id="pat_Fd" patternUnits="userSpaceOnUse" width="72" height="72"><rect width="72" height="72" fill="white"/><g clip-path="url(#clip72)"><path d="M 0,4.0 Q 0.5,-3.2 6.0,4.0 Q 6.5,-3.2 12.0,4.0 Q 17.5,9.0 18.0,4.0 Q 23.5,9.0 24.0,4.0 Q 24.5,-3.2 30.0,4.0 Q 30.5,-3.2 36.0,4.0 Q 41.5,9.0 42.0,4.0 Q 47.5,9.0 48.0,4.0 Q 48.5,-3.2 54.0,4.0 Q 54.5,-3.2 60.0,4.0 Q 65.5,9.0 66.0,4.0 Q 71.5,9.0 72.0,4.0" fill="none" stroke="#555" stroke-width="0.85"/>
<path d="M 0,10.0 Q 0.5,0.6 6.0,10.0 Q 6.5,0.6 12.0,10.0 Q 17.5,16.6 18.0,10.0 Q 23.5,16.6 24.0,10.0 Q 24.5,0.6 30.0,10.0 Q 30.5,0.6 36.0,10.0 Q 41.5,16.6 42.0,10.0 Q 47.5,16.6 48.0,10.0 Q 48.5,0.6 54.0,10.0 Q 54.5,0.6 60.0,10.0 Q 65.5,16.6 66.0,10.0 Q 71.5,16.6 72.0,10.0" fill="none" stroke="#555" stroke-width="0.85"/>
<path d="M 0,16.0 Q 0.5,7.6 6.0,16.0 Q 6.5,7.6 12.0,16.0 Q 17.5,21.9 18.0,16.0 Q 23.5,21.9 24.0,16.0 Q 24.5,7.6 30.0,16.0 Q 30.5,7.6 36.0,16.0 Q 41.5,21.9 42.0,16.0 Q 47.5,21.9 48.0,16.0 Q 48.5,7.6 54.0,16.0 Q 54.5,7.6 60.0,16.0 Q 65.5,21.9 66.0,16.0 Q 71.5,21.9 72.0,16.0" fill="none" stroke="#555" stroke-width="0.85"/>
<path d="M 0,22.0 Q 0.5,16.3 6.0,22.0 Q 6.5,16.3 12.0,22.0 Q 17.5,26.0 18.0,22.0 Q 23.5,26.0 24.0,22.0 Q 24.5,16.3 30.0,22.0 Q 30.5,16.3 36.0,22.0 Q 41.5,26.0 42.0,22.0 Q 47.5,26.0 48.0,22.0 Q 48.5,16.3 54.0,22.0 Q 54.5,16.3 60.0,22.0 Q 65.5,26.0 66.0,22.0 Q 71.5,26.0 72.0,22.0" fill="none" stroke="#555" stroke-width="0.85"/>
<path d="M 0,28.0 Q 0.5,22.8 6.0,28.0 Q 6.5,22.8 12.0,28.0 Q 17.5,31.6 18.0,28.0 Q 23.5,31.6 24.0,28.0 Q 24.5,22.8 30.0,28.0 Q 30.5,22.8 36.0,28.0 Q 41.5,31.6 42.0,28.0 Q 47.5,31.6 48.0,28.0 Q 48.5,22.8 54.0,28.0 Q 54.5,22.8 60.0,28.0 Q 65.5,31.6 66.0,28.0 Q 71.5,31.6 72.0,28.0" fill="none" stroke="#555" stroke-width="0.85"/>
<path d="M 0,34.0 Q 0.5,26.3 6.0,34.0 Q 6.5,26.3 12.0,34.0 Q 17.5,39.4 18.0,34.0 Q 23.5,39.4 24.0,34.0 Q 24.5,26.3 30.0,34.0 Q 30.5,26.3 36.0,34.0 Q 41.5,39.4 42.0,34.0 Q 47.5,39.4 48.0,34.0 Q 48.5,26.3 54.0,34.0 Q 54.5,26.3 60.0,34.0 Q 65.5,39.4 66.0,34.0 Q 71.5,39.4 72.0,34.0" fill="none" stroke="#555" stroke-width="0.85"/>
<path d="M 0,40.0 Q 0.5,30.6 6.0,40.0 Q 6.5,30.6 12.0,40.0 Q 17.5,46.6 18.0,40.0 Q 23.5,46.6 24.0,40.0 Q 24.5,30.6 30.0,40.0 Q 30.5,30.6 36.0,40.0 Q 41.5,46.6 42.0,40.0 Q 47.5,46.6 48.0,40.0 Q 48.5,30.6 54.0,40.0 Q 54.5,30.6 60.0,40.0 Q 65.5,46.6 66.0,40.0 Q 71.5,46.6 72.0,40.0" fill="none" stroke="#555" stroke-width="0.85"/>
<path d="M 0,46.0 Q 0.5,38.1 6.0,46.0 Q 6.5,38.1 12.0,46.0 Q 17.5,51.5 18.0,46.0 Q 23.5,51.5 24.0,46.0 Q 24.5,38.1 30.0,46.0 Q 30.5,38.1 36.0,46.0 Q 41.5,51.5 42.0,46.0 Q 47.5,51.5 48.0,46.0 Q 48.5,38.1 54.0,46.0 Q 54.5,38.1 60.0,46.0 Q 65.5,51.5 66.0,46.0 Q 71.5,51.5 72.0,46.0" fill="none" stroke="#555" stroke-width="0.85"/>
<path d="M 0,52.0 Q 0.5,46.7 6.0,52.0 Q 6.5,46.7 12.0,52.0 Q 17.5,55.7 18.0,52.0 Q 23.5,55.7 24.0,52.0 Q 24.5,46.7 30.0,52.0 Q 30.5,46.7 36.0,52.0 Q 41.5,55.7 42.0,52.0 Q 47.5,55.7 48.0,52.0 Q 48.5,46.7 54.0,52.0 Q 54.5,46.7 60.0,52.0 Q 65.5,55.7 66.0,52.0 Q 71.5,55.7 72.0,52.0" fill="none" stroke="#555" stroke-width="0.85"/>
<path d="M 0,58.0 Q 0.5,52.5 6.0,58.0 Q 6.5,52.5 12.0,58.0 Q 17.5,61.8 18.0,58.0 Q 23.5,61.8 24.0,58.0 Q 24.5,52.5 30.0,58.0 Q 30.5,52.5 36.0,58.0 Q 41.5,61.8 42.0,58.0 Q 47.5,61.8 48.0,58.0 Q 48.5,52.5 54.0,58.0 Q 54.5,52.5 60.0,58.0 Q 65.5,61.8 66.0,58.0 Q 71.5,61.8 72.0,58.0" fill="none" stroke="#555" stroke-width="0.85"/>
<path d="M 0,64.0 Q 0.5,55.9 6.0,64.0 Q 6.5,55.9 12.0,64.0 Q 17.5,69.7 18.0,64.0 Q 23.5,69.7 24.0,64.0 Q 24.5,55.9 30.0,64.0 Q 30.5,55.9 36.0,64.0 Q 41.5,69.7 42.0,64.0 Q 47.5,69.7 48.0,64.0 Q 48.5,55.9 54.0,64.0 Q 54.5,55.9 60.0,64.0 Q 65.5,69.7 66.0,64.0 Q 71.5,69.7 72.0,64.0" fill="none" stroke="#555" stroke-width="0.85"/>
<path d="M 0,70.0 Q 0.5,60.6 6.0,70.0 Q 6.5,60.6 12.0,70.0 Q 17.5,76.6 18.0,70.0 Q 23.5,76.6 24.0,70.0 Q 24.5,60.6 30.0,70.0 Q 30.5,60.6 36.0,70.0 Q 41.5,76.6 42.0,70.0 Q 47.5,76.6 48.0,70.0 Q 48.5,60.6 54.0,70.0 Q 54.5,60.6 60.0,70.0 Q 65.5,76.6 66.0,70.0 Q 71.5,76.6 72.0,70.0" fill="none" stroke="#555" stroke-width="0.85"/>
<path d="M 5,36 C 5,26 18,26 17,34 C 16,40 9,40 9,34" fill="none" stroke="#333" stroke-width="1.0"/>
<path d="M 28,24 C 28,13 43,13 42,22 C 42,29 33,28 34,22" fill="none" stroke="#333" stroke-width="1.0"/>
<path d="M 53,45 C 53,35 66,35 65,43 C 65,49 57,48 58,43" fill="none" stroke="#333" stroke-width="1.0"/></g></pattern></defs>
<rect width="120" height="120" fill="url(#pat_Fd)" stroke="black" stroke-width="1"/>
</svg>
