<svg xmlns="http://www.w3.org/2000/svg" width="120" height="120" viewBox="0 0 120 120">
<defs><clipPath id="clip64"><rect width="64" height="64"/></clipPath><pattern id="pat_Fd" patternUnits="userSpaceOnUse" width="64" height="64"><rect width="64" height="64" fill="white"/><polyline points="0,0.0 3,0.9 6,1.7 9,2.3 12,2.8 15,3.0 18,2.9 21,2.6 24,2.1 27,1.4 30,0.6 33,-0.3 36,-1.1 39,-1.9 42,-2.5 45,-2.9 48,-3.0 51,-2.9 54,-2.5 57,-1.9 60,-1.1 63,-0.3 66,0.6" fill="none" stroke="#555" stroke-width="0.9"/>
<polyline points="0,10.9 3,11.0 6,10.7 9,10.1 12,9.2 15,8.2 18,7.0 21,5.8 24,4.8 27,3.9 30,3.3 33,3.0 36,3.1 39,3.5 42,4.2 45,5.1 48,6.2 51,7.4 54,8.5 57,9.5 60,10.3 63,10.8 66,11.0" fill="none" stroke="#555" stroke-width="0.9"/>
<polyline points="0,15.7 3,14.4 6,13.1 9,11.9 12,10.8 15,10.0 18,9.6 21,9.5 24,9.9 27,10.5 30,11.5 33,12.7 36,14.0 39,15.3 42,16.5 45,17.5 48,18.1 51,18.5 54,18.4 57,18.0 60,17.2 63,16.1 66,14.9" fill="none" stroke="#555" stroke-width="0.9"/>
<polyline points="0,17.5 3,16.9 6,16.7 9,16.9 12,17.5 15,18.3 18,19.4 21,20.6 24,21.8 27,23.0 30,24.0 33,24.8 36,25.2 39,25.2 42,24.9 45,24.3 48,23.4 51,22.2 54,21.0 57,19.8 60,18.6 63,17.7 66,17.1" fill="none" stroke="#555" stroke-width="0.9"/>
<polyline points="0,25.6 3,26.4 6,27.3 9,28.3 12,29.3 15,30.2 18,30.8 21,31.3 24,31.4 27,31.3 30,30.8 33,30.2 36,29.3 39,28.3 42,27.3 45,26.4 48,25.6 51,25.0 54,24.7 57,24.6 60,24.9 63,25.4 66,26.1" fill="none" stroke="#555" stroke-width="0.9"/>
<polyline points="0,36.3 3,36.8 6,37.2 9,37.3 12,37.3 15,37.1 18,36.7 21,36.1 24,35.5 27,34.8 30,34.1 33,33.5 36,33.0 39,32.7 42,32.6 45,32.7 48,33.0 51,33.5 54,34.1 57,34.8 60,35.5 63,36.1 66,36.7" fill="none" stroke="#555" stroke-width="0.9"/>
<polyline points="0,43.5 3,43.3 6,42.9 9,42.5 12,42.0 15,41.5 18,41.1 21,40.7 24,40.5 27,40.4 30,40.4 33,40.6 36,40.9 39,41.2 42,41.7 45,42.2 48,42.6 51,43.0 54,43.4 57,43.6 60,43.6 63,43.6 66,43.4" fill="none" stroke="#555" stroke-width="0.9"/>
<polyline points="0,48.7 3,48.3 6,47.9 9,47.6 12,47.5 15,47.4 18,47.6 21,47.8 24,48.1 27,48.5 30,49.0 33,49.5 36,49.9 39,50.2 42,50.4 45,50.6 48,50.5 51,50.4 54,50.1 57,49.7 60,49.3 63,48.8 66,48.4" fill="none" stroke="#555" stroke-width="0.9"/>
<polyline points="0,53.8 3,53.9 6,54.2 9,54.6 12,55.2 15,55.8 18,56.4 21,57.0 24,57.6 27,58.0 30,58.2 33,58.2 36,58.0 39,57.7 42,57.2 45,56.6 48,56.0 51,55.4 54,54.8 57,54.3 60,54.0 63,53.8 66,53.8" fill="none" stroke="#555" stroke-width="0.9"/>
<polyline points="0,62.4 3,63.3 6,64.2 9,65.1 12,65.7 15,66.1 18,66.3 21,66.1 24,65.7 27,65.1 30,64.2 33,63.3 36,62.4 39,61.5 42,60.7 45,60.1 48,59.8 51,59.8 54,60.0 57,60.5 60,61.2 63,62.1 66,63.0" fill="none" stroke="#555" stroke-width="0.9"/></pattern></defs>
<rect width="120" height="120" fill="url(#pat_Fd)" stroke="black" stroke-width="1"/>
</svg>
