<svg xmlns="http://www.w3.org/2000/svg" width="120" height="120" viewBox="0 0 120 120">
<defs><clipPath id="clip55"><rect width="55" height="55"/></clipPath><pattern id="pat_Fl" patternUnits="userSpaceOnUse" width="55" height="55"><rect width="55" height="55" fill="white"/><polygon points="0,0.0 3,0.4 6,0.6 9,0.6 12,0.4 15,0.2 18,0.2 21,0.2 24,0.2 27,0.0 30,-0.1 33,-0.2 36,-0.2 39,-0.2 42,-0.3 45,-0.5 48,-0.6 51,-0.5 54,-0.1 57,0.3 55,1.8 52,1.4 49,1.2 46,1.2 43,1.4 40,1.6 37,1.6 34,1.6 31,1.6 28,1.8 25,1.9 22,2.0 19,2.0 16,2.0 13,2.1 10,2.3 7,2.4 4,2.3 1,1.9 -2,1.5" fill="#555"/>
<polyline points="0,4.8 3,5.2 6,5.4 9,5.4 12,5.2 15,5.0 18,5.0 21,5.0 24,5.0 27,4.8 30,4.7 33,4.6 36,4.6 39,4.6 42,4.5 45,4.3 48,4.2 51,4.3 54,4.7 57,5.1" fill="none" stroke="#9a9a9a" stroke-width="0.6"/>
<polyline points="0,7.8 3,8.2 6,8.4 9,8.4 12,8.2 15,8.0 18,8.0 21,8.0 24,8.0 27,7.8 30,7.7 33,7.6 36,7.6 39,7.6 42,7.5 45,7.3 48,7.2 51,7.3 54,7.7 57,8.1" fill="none" stroke="#b4b4b4" stroke-width="0.5"/>
<polygon points="0,11.5 3,12.1 6,12.3 9,12.0 12,11.5 15,11.2 18,11.3 21,11.7 24,11.9 27,11.6 30,10.9 33,10.2 36,9.7 39,9.6 42,9.7 45,9.9 48,10.1 51,10.6 54,11.3 57,12.0 55,14.9 52,14.2 49,13.6 46,13.3 43,13.1 40,13.0 37,13.0 34,13.3 31,14.0 28,14.8 25,15.2 22,15.2 19,14.8 16,14.5 13,14.7 10,15.2 7,15.6 4,15.6 1,15.1 -2,14.4" fill="#555"/>
<polyline points="0,17.9 3,18.5 6,18.7 9,18.3 12,17.8 15,17.5 18,17.7 21,18.1 24,18.3 27,18.0 30,17.3 33,16.5 36,16.0 39,15.9 42,16.1 45,16.2 48,16.5 51,17.0 54,17.6 57,18.3" fill="none" stroke="#9a9a9a" stroke-width="0.6"/>
<polyline points="0,20.9 3,21.5 6,21.7 9,21.3 12,20.8 15,20.5 18,20.7 21,21.1 24,21.3 27,21.0 30,20.3 33,19.5 36,19.0 39,18.9 42,19.1 45,19.2 48,19.5 51,20.0 54,20.6 57,21.3" fill="none" stroke="#b4b4b4" stroke-width="0.5"/>
<polygon points="0,22.7 3,22.9 6,22.9 9,22.7 12,22.7 15,22.6 18,22.4 21,21.8 24,21.2 27,20.8 30,20.9 33,21.5 36,22.0 39,22.1 42,21.8 45,21.5 48,21.5 51,22.0 54,22.5 57,22.9 55,25.8 52,25.3 49,24.7 46,24.6 43,24.8 40,25.1 37,25.1 34,24.7 31,24.2 28,23.9 25,24.1 22,24.7 19,25.3 16,25.7 13,25.8 10,25.8 7,25.9 4,26.0 1,25.9 -2,25.5" fill="#555"/>
<polyline points="0,28.8 3,29.0 6,29.0 9,28.8 12,28.8 15,28.7 18,28.5 21,27.9 24,27.3 27,26.9 30,27.0 33,27.6 36,28.0 39,28.2 42,27.9 45,27.6 48,27.6 51,28.1 54,28.6 57,29.0" fill="none" stroke="#9a9a9a" stroke-width="0.6"/>
<polyline points="0,31.8 3,32.0 6,32.0 9,31.8 12,31.8 15,31.7 18,31.5 21,30.9 24,30.3 27,29.9 30,30.0 33,30.6 36,31.0 39,31.2 42,30.9 45,30.6 48,30.6 51,31.1 54,31.6 57,32.0" fill="none" stroke="#b4b4b4" stroke-width="0.5"/>
<polygon points="0,33.1 3,33.2 6,33.1 9,33.2 12,33.4 15,33.8 18,33.9 21,33.7 24,33.1 27,32.5 30,32.2 33,32.3 36,32.6 39,32.8 42,32.8 45,32.7 48,32.7 51,32.9 54,33.1 57,33.2 55,36.0 52,35.8 49,35.6 46,35.5 43,35.6 40,35.7 37,35.6 34,35.3 31,35.1 28,35.2 25,35.7 22,36.3 19,36.7 16,36.7 13,36.4 10,36.1 7,36.0 4,36.0 1,36.0 -2,35.9" fill="#555"/>
<polyline points="0,39.0 3,39.0 6,39.0 9,39.0 12,39.3 15,39.6 18,39.8 21,39.5 24,38.9 27,38.3 30,38.1 33,38.2 36,38.5 39,38.7 42,38.6 45,38.5 48,38.5 51,38.7 54,38.9 57,39.0" fill="none" stroke="#9a9a9a" stroke-width="0.6"/>
<polyline points="0,42.0 3,42.0 6,42.0 9,42.0 12,42.3 15,42.6 18,42.8 21,42.5 24,41.9 27,41.3 30,41.1 33,41.2 36,41.5 39,41.7 42,41.6 45,41.5 48,41.5 51,41.7 54,41.9 57,42.0" fill="none" stroke="#b4b4b4" stroke-width="0.5"/>
<polygon points="0,45.0 3,44.8 6,44.5 9,44.1 12,43.5 15,43.1 18,43.1 21,43.4 24,43.7 27,43.6 30,43.2 33,42.8 36,42.9 39,43.5 42,44.5 45,45.2 48,45.5 51,45.4 54,45.1 57,44.9 55,47.6 52,47.9 49,48.1 46,48.0 43,47.4 40,46.5 37,45.6 34,45.4 31,45.6 28,46.1 25,46.3 22,46.1 19,45.8 16,45.7 13,45.9 10,46.5 7,47.0 4,47.3 1,47.6 -2,47.8" fill="#555"/>
<polyline points="0,50.6 3,50.4 6,50.1 9,49.7 12,49.1 15,48.7 18,48.7 21,49.0 24,49.3 27,49.2 30,48.8 33,48.4 36,48.5 39,49.1 42,50.1 45,50.8 48,51.1 51,51.0 54,50.7 57,50.5" fill="none" stroke="#9a9a9a" stroke-width="0.6"/>
<polyline points="0,53.6 3,53.4 6,53.1 9,52.7 12,52.1 15,51.7 18,51.7 21,52.0 24,52.3 27,52.2 30,51.8 33,51.4 36,51.5 39,52.1 42,53.1 45,53.8 48,54.1 51,54.0 54,53.7 57,53.5" fill="none" stroke="#b4b4b4" stroke-width="0.5"/></pattern></defs>
<rect width="120" height="120" fill="url(#pat_Fl)" stroke="black" stroke-width="1"/>
</svg>
