<svg xmlns="http://www.w3.org/2000/svg" width="120" height="120" viewBox="0 0 120 120">
<defs><clipPath id="clip54"><rect width="54" height="54"/></clipPath><pattern id="pat_Fm" patternUnits="userSpaceOnUse" width="54" height="54"><rect width="54" height="54" fill="white"/><g transform="translate(-54 -54)"><circle cx="38.9" cy="28.5" r="0.72" fill="#3a3a3a"/>
<circle cx="53.6" cy="41.9" r="0.95" fill="#3a3a3a"/>
<circle cx="38.6" cy="47.9" r="0.81" fill="#3a3a3a"/>
<circle cx="46.3" cy="1.3" r="0.69" fill="#3a3a3a"/>
<circle cx="22.1" cy="46.8" r="0.62" fill="#3a3a3a"/>
<circle cx="6.9" cy="36.7" r="0.78" fill="#3a3a3a"/>
<circle cx="51.5" cy="11.3" r="0.72" fill="#3a3a3a"/>
<circle cx="25.6" cy="44.2" r="0.93" fill="#3a3a3a"/>
<circle cx="10.8" cy="11.2" r="0.99" fill="#3a3a3a"/></g>
<g transform="translate(-54 0)"><circle cx="38.9" cy="28.5" r="0.72" fill="#3a3a3a"/>
<circle cx="53.6" cy="41.9" r="0.95" fill="#3a3a3a"/>
<circle cx="38.6" cy="47.9" r="0.81" fill="#3a3a3a"/>
<circle cx="46.3" cy="1.3" r="0.69" fill="#3a3a3a"/>
<circle cx="22.1" cy="46.8" r="0.62" fill="#3a3a3a"/>
<circle cx="6.9" cy="36.7" r="0.78" fill="#3a3a3a"/>
<circle cx="51.5" cy="11.3" r="0.72" fill="#3a3a3a"/>
<circle cx="25.6" cy="44.2" r="0.93" fill="#3a3a3a"/>
<circle cx="10.8" cy="11.2" r="0.99" fill="#3a3a3a"/></g>
<g transform="translate(-54 54)"><circle cx="38.9" cy="28.5" r="0.72" fill="#3a3a3a"/>
<circle cx="53.6" cy="41.9" r="0.95" fill="#3a3a3a"/>
<circle cx="38.6" cy="47.9" r="0.81" fill="#3a3a3a"/>
<circle cx="46.3" cy="1.3" r="0.69" fill="#3a3a3a"/>
<circle cx="22.1" cy="46.8" r="0.62" fill="#3a3a3a"/>
<circle cx="6.9" cy="36.7" r="0.78" fill="#3a3a3a"/>
<circle cx="51.5" cy="11.3" r="0.72" fill="#3a3a3a"/>
<circle cx="25.6" cy="44.2" r="0.93" fill="#3a3a3a"/>
<circle cx="10.8" cy="11.2" r="0.99" fill="#3a3a3a"/></g>
<g transform="translate(0 -54)"><circle cx="38.9" cy="28.5" r="0.72" fill="#3a3a3a"/>
<circle cx="53.6" cy="41.9" r="0.95" fill="#3a3a3a"/>
<circle cx="38.6" cy="47.9" r="0.81" fill="#3a3a3a"/>
<circle cx="46.3" cy="1.3" r="0.69" fill="#3a3a3a"/>
<circle cx="22.1" cy="46.8" r="0.62" fill="#3a3a3a"/>
<circle cx="6.9" cy="36.7" r="0.78" fill="#3a3a3a"/>
<circle cx="51.5" cy="11.3" r="0.72" fill="#3a3a3a"/>
<circle cx="25.6" cy="44.2" r="0.93" fill="#3a3a3a"/>
<circle cx="10.8" cy="11.2" r="0.99" fill="#3a3a3a"/></g>
<g transform="translate(0 0)"><circle cx="38.9" cy="28.5" r="0.72" fill="#3a3a3a"/>
<circle cx="53.6" cy="41.9" r="0.95" fill="#3a3a3a"/>
<circle cx="38.6" cy="47.9" r="0.81" fill="#3a3a3a"/>
<circle cx="46.3" cy="1.3" r="0.69" fill="#3a3a3a"/>
<circle cx="22.1" cy="46.8" r="0.62" fill="#3a3a3a"/>
<circle cx="6.9" cy="36.7" r="0.78" fill="#3a3a3a"/>
<circle cx="51.5" cy="11.3" r="0.72" fill="#3a3a3a"/>
<circle cx="25.6" cy="44.2" r="0.93" fill="#3a3a3a"/>
<circle cx="10.8" cy="11.2" r="0.99" fill="#3a3a3a"/></g>
<g transform="translate(0 54)"><circle cx="38.9" cy="28.5" r="0.72" fill="#3a3a3a"/>
<circle cx="53.6" cy="41.9" r="0.95" fill="#3a3a3a"/>
<circle cx="38.6" cy="47.9" r="0.81" fill="#3a3a3a"/>
<circle cx="46.3" cy="1.3" r="0.69" fill="#3a3a3a"/>
<circle cx="22.1" cy="46.8" r="0.62" fill="#3a3a3a"/>
<circle cx="6.9" cy="36.7" r="0.78" fill="#3a3a3a"/>
<circle cx="51.5" cy="11.3" r="0.72" fill="#3a3a3a"/>
<circle cx="25.6" cy="44.2" r="0.93" fill="#3a3a3a"/>
<circle cx="10.8" cy="11.2" r="0.99" fill="#3a3a3a"/></g>
<g transform="translate(54 -54)"><circle cx="38.9" cy="28.5" r="0.72" fill="#3a3a3a"/>
<circle cx="53.6" cy="41.9" r="0.95" fill="#3a3a3a"/>
<circle cx="38.6" cy="47.9" r="0.81" fill="#3a3a3a"/>
<circle cx="46.3" cy="1.3" r="0.69" fill="#3a3a3a"/>
<circle cx="22.1" cy="46.8" r="0.62" fill="#3a3a3a"/>
<circle cx="6.9" cy="36.7" r="0.78" fill="#3a3a3a"/>
<circle cx="51.5" cy="11.3" r="0.72" fill="#3a3a3a"/>
<circle cx="25.6" cy="44.2" r="0.93" fill="#3a3a3a"/>
<circle cx="10.8" cy="11.2" r="0.99" fill="#3a3a3a"/></g>
<g transform="translate(54 0)"><circle cx="38.9" cy="28.5" r="0.72" fill="#3a3a3a"/>
<circle cx="53.6" cy="41.9" r="0.95" fill="#3a3a3a"/>
<circle cx="38.6" cy="47.9" r="0.81" fill="#3a3a3a"/>
<circle cx="46.3" cy="1.3" r="0.69" fill="#3a3a3a"/>
<circle cx="22.1" cy="46.8" r="0.62" fill="#3a3a3a"/>
<circle cx="6.9" cy="36.7" r="0.78" fill="#3a3a3a"/>
<circle cx="51.5" cy="11.3" r="0.72" fill="#3a3a3a"/>
<circle cx="25.6" cy="44.2" r="0.93" fill="#3a3a3a"/>
<circle cx="10.8" cy="11.2" r="0.99" fill="#3a3a3a"/></g>
<g transform="translate(54 54)"><circle cx="38.9" cy="28.5" r="0.72" fill="#3a3a3a"/>
<circle cx="53.6" cy="41.9" r="0.95" fill="#3a3a3a"/>
<circle cx="38.6" cy="47.9" r="0.81" fill="#3a3a3a"/>
<circle cx="46.3" cy="1.3" r="0.69" fill="#3a3a3a"/>
<circle cx="22.1" cy="46.8" r="0.62" fill="#3a3a3a"/>
<circle cx="6.9" cy="36.7" r="0.78" fill="#3a3a3a"/>
<circle cx="51.5" cy="11.3" r="0.72" fill="#3a3a3a"/>
<circle cx="25.6" cy="44.2" r="0.93" fill="#3a3a3a"/>
<circle cx="10.8" cy="11.2" r="0.99" fill="#3a3a3a"/></g></pattern></defs>
<rect width="120" height="120" fill="url(#pat_Fm)" stroke="black" stroke-width="1"/>
</svg>
