<svg xmlns="http://www.w3.org/2000/svg" width="120" height="120" viewBox="0 0 120 120">
<defs><clipPath id="clip48"><rect width="48" height="48"/></clipPath><pattern id="pat_Fm" patternUnits="userSpaceOnUse" width="48" height="48"><rect width="48" height="48" fill="white"/><g transform="translate(-48 -48)"><line x1="-8.6" y1="6" x2="1.1" y2="6" stroke="#555" stroke-width="1.0"/>
<line x1="10.1" y1="6" x2="23.0" y2="6" stroke="#555" stroke-width="1.0"/>
<line x1="35.5" y1="6" x2="47.5" y2="6" stroke="#555" stroke-width="1.0"/>
<line x1="-10.6" y1="14" x2="-1.0" y2="14" stroke="#555" stroke-width="1.0"/>
<line x1="12.0" y1="14" x2="18.2" y2="14" stroke="#555" stroke-width="1.0"/>
<line x1="26.7" y1="14" x2="35.6" y2="14" stroke="#555" stroke-width="1.0"/>
<line x1="48.6" y1="14" x2="54.9" y2="14" stroke="#555" stroke-width="1.0"/>
<line x1="-8.2" y1="22" x2="1.0" y2="22" stroke="#555" stroke-width="1.0"/>
<line x1="14.7" y1="22" x2="22.2" y2="22" stroke="#555" stroke-width="1.0"/>
<line x1="31.4" y1="22" x2="40.7" y2="22" stroke="#555" stroke-width="1.0"/>
<line x1="-10.0" y1="30" x2="-2.6" y2="30" stroke="#555" stroke-width="1.0"/>
<line x1="5.9" y1="30" x2="18.8" y2="30" stroke="#555" stroke-width="1.0"/>
<line x1="31.6" y1="30" x2="42.6" y2="30" stroke="#555" stroke-width="1.0"/>
<line x1="-11.5" y1="38" x2="-4.8" y2="38" stroke="#555" stroke-width="1.0"/>
<line x1="5.6" y1="38" x2="17.2" y2="38" stroke="#555" stroke-width="1.0"/>
<line x1="25.3" y1="38" x2="36.9" y2="38" stroke="#555" stroke-width="1.0"/>
<line x1="48.5" y1="38" x2="57.5" y2="38" stroke="#555" stroke-width="1.0"/>
<line x1="-8.2" y1="46" x2="2.0" y2="46" stroke="#555" stroke-width="1.0"/>
<line x1="11.2" y1="46" x2="22.9" y2="46" stroke="#555" stroke-width="1.0"/>
<line x1="31.0" y1="46" x2="39.5" y2="46" stroke="#555" stroke-width="1.0"/>
<line x1="47.8" y1="46" x2="58.5" y2="46" stroke="#555" stroke-width="1.0"/></g>
<g transform="translate(-48 0)"><line x1="-8.6" y1="6" x2="1.1" y2="6" stroke="#555" stroke-width="1.0"/>
<line x1="10.1" y1="6" x2="23.0" y2="6" stroke="#555" stroke-width="1.0"/>
<line x1="35.5" y1="6" x2="47.5" y2="6" stroke="#555" stroke-width="1.0"/>
<line x1="-10.6" y1="14" x2="-1.0" y2="14" stroke="#555" stroke-width="1.0"/>
<line x1="12.0" y1="14" x2="18.2" y2="14" stroke="#555" stroke-width="1.0"/>
<line x1="26.7" y1="14" x2="35.6" y2="14" stroke="#555" stroke-width="1.0"/>
<line x1="48.6" y1="14" x2="54.9" y2="14" stroke="#555" stroke-width="1.0"/>
<line x1="-8.2" y1="22" x2="1.0" y2="22" stroke="#555" stroke-width="1.0"/>
<line x1="14.7" y1="22" x2="22.2" y2="22" stroke="#555" stroke-width="1.0"/>
<line x1="31.4" y1="22" x2="40.7" y2="22" stroke="#555" stroke-width="1.0"/>
<line x1="-10.0" y1="30" x2="-2.6" y2="30" stroke="#555" stroke-width="1.0"/>
<line x1="5.9" y1="30" x2="18.8" y2="30" stroke="#555" stroke-width="1.0"/>
<line x1="31.6" y1="30" x2="42.6" y2="30" stroke="#555" stroke-width="1.0"/>
<line x1="-11.5" y1="38" x2="-4.8" y2="38" stroke="#555" stroke-width="1.0"/>
<line x1="5.6" y1="38" x2="17.2" y2="38" stroke="#555" stroke-width="1.0"/>
<line x1="25.3" y1="38" x2="36.9" y2="38" stroke="#555" stroke-width="1.0"/>
<line x1="48.5" y1="38" x2="57.5" y2="38" stroke="#555" stroke-width="1.0"/>
<line x1="-8.2" y1="46" x2="2.0" y2="46" stroke="#555" stroke-width="1.0"/>
<line x1="11.2" y1="46" x2="22.9" y2="46" stroke="#555" stroke-width="1.0"/>
<line x1="31.0" y1="46" x2="39.5" y2="46" stroke="#555" stroke-width="1.0"/>
<line x1="47.8" y1="46" x2="58.5" y2="46" stroke="#555" stroke-width="1.0"/></g>
<g transform="translate(-48 48)"><line x1="-8.6" y1="6" x2="1.1" y2="6" stroke="#555" stroke-width="1.0"/>
<line x1="10.1" y1="6" x2="23.0" y2="6" stroke="#555" stroke-width="1.0"/>
<line x1="35.5" y1="6" x2="47.5" y2="6" stroke="#555" stroke-width="1.0"/>
<line x1="-10.6" y1="14" x2="-1.0" y2="14" stroke="#555" stroke-width="1.0"/>
<line x1="12.0" y1="14" x2="18.2" y2="14" stroke="#555" stroke-width="1.0"/>
<line x1="26.7" y1="14" x2="35.6" y2="14" stroke="#555" stroke-width="1.0"/>
<line x1="48.6" y1="14" x2="54.9" y2="14" stroke="#555" stroke-width="1.0"/>
<line x1="-8.2" y1="22" x2="1.0" y2="22" stroke="#555" stroke-width="1.0"/>
<line x1="14.7" y1="22" x2="22.2" y2="22" stroke="#555" stroke-width="1.0"/>
<line x1="31.4" y1="22" x2="40.7" y2="22" stroke="#555" stroke-width="1.0"/>
<line x1="-10.0" y1="30" x2="-2.6" y2="30" stroke="#555" stroke-width="1.0"/>
<line x1="5.9" y1="30" x2="18.8" y2="30" stroke="#555" stroke-width="1.0"/>
<line x1="31.6" y1="30" x2="42.6" y2="30" stroke="#555" stroke-width="1.0"/>
<line x1="-11.5" y1="38" x2="-4.8" y2="38" stroke="#555" stroke-width="1.0"/>
<line x1="5.6" y1="38" x2="17.2" y2="38" stroke="#555" stroke-width="1.0"/>
<line x1="25.3" y1="38" x2="36.9" y2="38" stroke="#555" stroke-width="1.0"/>
<line x1="48.5" y1="38" x2="57.5" y2="38" stroke="#555" stroke-width="1.0"/>
<line x1="-8.2" y1="46" x2="2.0" y2="46" stroke="#555" stroke-width="1.0"/>
<line x1="11.2" y1="46" x2="22.9" y2="46" stroke="#555" stroke-width="1.0"/>
<line x1="31.0" y1="46" x2="39.5" y2="46" stroke="#555" stroke-width="1.0"/>
<line x1="47.8" y1="46" x2="58.5" y2="46" stroke="#555" stroke-width="1.0"/></g>
<g transform="translate(0 -48)"><line x1="-8.6" y1="6" x2="1.1" y2="6" stroke="#555" stroke-width="1.0"/>
<line x1="10.1" y1="6" x2="23.0" y2="6" stroke="#555" stroke-width="1.0"/>
<line x1="35.5" y1="6" x2="47.5" y2="6" stroke="#555" stroke-width="1.0"/>
<line x1="-10.6" y1="14" x2="-1.0" y2="14" stroke="#555" stroke-width="1.0"/>
<line x1="12.0" y1="14" x2="18.2" y2="14" stroke="#555" stroke-width="1.0"/>
<line x1="26.7" y1="14" x2="35.6" y2="14" stroke="#555" stroke-width="1.0"/>
<line x1="48.6" y1="14" x2="54.9" y2="14" stroke="#555" stroke-width="1.0"/>
<line x1="-8.2" y1="22" x2="1.0" y2="22" stroke="#555" stroke-width="1.0"/>
<line x1="14.7" y1="22" x2="22.2" y2="22" stroke="#555" stroke-width="1.0"/>
<line x1="31.4" y1="22" x2="40.7" y2="22" stroke="#555" stroke-width="1.0"/>
<line x1="-10.0" y1="30" x2="-2.6" y2="30" stroke="#555" stroke-width="1.0"/>
<line x1="5.9" y1="30" x2="18.8" y2="30" stroke="#555" stroke-width="1.0"/>
<line x1="31.6" y1="30" x2="42.6" y2="30" stroke="#555" stroke-width="1.0"/>
<line x1="-11.5" y1="38" x2="-4.8" y2="38" stroke="#555" stroke-width="1.0"/>
<line x1="5.6" y1="38" x2="17.2" y2="38" stroke="#555" stroke-width="1.0"/>
<line x1="25.3" y1="38" x2="36.9" y2="38" stroke="#555" stroke-width="1.0"/>
<line x1="48.5" y1="38" x2="57.5" y2="38" stroke="#555" stroke-width="1.0"/>
<line x1="-8.2" y1="46" x2="2.0" y2="46" stroke="#555" stroke-width="1.0"/>
<line x1="11.2" y1="46" x2="22.9" y2="46" stroke="#555" stroke-width="1.0"/>
<line x1="31.0" y1="46" x2="39.5" y2="46" stroke="#555" stroke-width="1.0"/>
<line x1="47.8" y1="46" x2="58.5" y2="46" stroke="#555" stroke-width="1.0"/></g>
<g transform="translate(0 0)"><line x1="-8.6" y1="6" x2="1.1" y2="6" stroke="#555" stroke-width="1.0"/>
<line x1="10.1" y1="6" x2="23.0" y2="6" stroke="#555" stroke-width="1.0"/>
<line x1="35.5" y1="6" x2="47.5" y2="6" stroke="#555" stroke-width="1.0"/>
<line x1="-10.6" y1="14" x2="-1.0" y2="14" stroke="#555" stroke-width="1.0"/>
<line x1="12.0" y1="14" x2="18.2" y2="14" stroke="#555" stroke-width="1.0"/>
<line x1="26.7" y1="14" x2="35.6" y2="14" stroke="#555" stroke-width="1.0"/>
<line x1="48.6" y1="14" x2="54.9" y2="14" stroke="#555" stroke-width="1.0"/>
<line x1="-8.2" y1="22" x2="1.0" y2="22" stroke="#555" stroke-width="1.0"/>
<line x1="14.7" y1="22" x2="22.2" y2="22" stroke="#555" stroke-width="1.0"/>
<line x1="31.4" y1="22" x2="40.7" y2="22" stroke="#555" stroke-width="1.0"/>
<line x1="-10.0" y1="30" x2="-2.6" y2="30" stroke="#555" stroke-width="1.0"/>
<line x1="5.9" y1="30" x2="18.8" y2="30" stroke="#555" stroke-width="1.0"/>
<line x1="31.6" y1="30" x2="42.6" y2="30" stroke="#555" stroke-width="1.0"/>
<line x1="-11.5" y1="38" x2="-4.8" y2="38" stroke="#555" stroke-width="1.0"/>
<line x1="5.6" y1="38" x2="17.2" y2="38" stroke="#555" stroke-width="1.0"/>
<line x1="25.3" y1="38" x2="36.9" y2="38" stroke="#555" stroke-width="1.0"/>
<line x1="48.5" y1="38" x2="57.5" y2="38" stroke="#555" stroke-width="1.0"/>
<line x1="-8.2" y1="46" x2="2.0" y2="46" stroke="#555" stroke-width="1.0"/>
<line x1="11.2" y1="46" x2="22.9" y2="46" stroke="#555" stroke-width="1.0"/>
<line x1="31.0" y1="46" x2="39.5" y2="46" stroke="#555" stroke-width="1.0"/>
<line x1="47.8" y1="46" x2="58.5" y2="46" stroke="#555" stroke-width="1.0"/></g>
<g transform="translate(0 48)"><line x1="-8.6" y1="6" x2="1.1" y2="6" stroke="#555" stroke-width="1.0"/>
<line x1="10.1" y1="6" x2="23.0" y2="6" stroke="#555" stroke-width="1.0"/>
<line x1="35.5" y1="6" x2="47.5" y2="6" stroke="#555" stroke-width="1.0"/>
<line x1="-10.6" y1="14" x2="-1.0" y2="14" stroke="#555" stroke-width="1.0"/>
<line x1="12.0" y1="14" x2="18.2" y2="14" stroke="#555" stroke-width="1.0"/>
<line x1="26.7" y1="14" x2="35.6" y2="14" stroke="#555" stroke-width="1.0"/>
<line x1="48.6" y1="14" x2="54.9" y2="14" stroke="#555" stroke-width="1.0"/>
<line x1="-8.2" y1="22" x2="1.0" y2="22" stroke="#555" stroke-width="1.0"/>
<line x1="14.7" y1="22" x2="22.2" y2="22" stroke="#555" stroke-width="1.0"/>
<line x1="31.4" y1="22" x2="40.7" y2="22" stroke="#555" stroke-width="1.0"/>
<line x1="-10.0" y1="30" x2="-2.6" y2="30" stroke="#555" stroke-width="1.0"/>
<line x1="5.9" y1="30" x2="18.8" y2="30" stroke="#555" stroke-width="1.0"/>
<line x1="31.6" y1="30" x2="42.6" y2="30" stroke="#555" stroke-width="1.0"/>
<line x1="-11.5" y1="38" x2="-4.8" y2="38" stroke="#555" stroke-width="1.0"/>
<line x1="5.6" y1="38" x2="17.2" y2="38" stroke="#555" stroke-width="1.0"/>
<line x1="25.3" y1="38" x2="36.9" y2="38" stroke="#555" stroke-width="1.0"/>
<line x1="48.5" y1="38" x2="57.5" y2="38" stroke="#555" stroke-width="1.0"/>
<line x1="-8.2" y1="46" x2="2.0" y2="46" stroke="#555" stroke-width="1.0"/>
<line x1="11.2" y1="46" x2="22.9" y2="46" stroke="#555" stroke-width="1.0"/>
<line x1="31.0" y1="46" x2="39.5" y2="46" stroke="#555" stroke-width="1.0"/>
<line x1="47.8" y1="46" x2="58.5" y2="46" stroke="#555" stroke-width="1.0"/></g>
<g transform="translate(48 -48)"><line x1="-8.6" y1="6" x2="1.1" y2="6" stroke="#555" stroke-width="1.0"/>
<line x1="10.1" y1="6" x2="23.0" y2="6" stroke="#555" stroke-width="1.0"/>
<line x1="35.5" y1="6" x2="47.5" y2="6" stroke="#555" stroke-width="1.0"/>
<line x1="-10.6" y1="14" x2="-1.0" y2="14" stroke="#555" stroke-width="1.0"/>
<line x1="12.0" y1="14" x2="18.2" y2="14" stroke="#555" stroke-width="1.0"/>
<line x1="26.7" y1="14" x2="35.6" y2="14" stroke="#555" stroke-width="1.0"/>
<line x1="48.6" y1="14" x2="54.9" y2="14" stroke="#555" stroke-width="1.0"/>
<line x1="-8.2" y1="22" x2="1.0" y2="22" stroke="#555" stroke-width="1.0"/>
<line x1="14.7" y1="22" x2="22.2" y2="22" stroke="#555" stroke-width="1.0"/>
<line x1="31.4" y1="22" x2="40.7" y2="22" stroke="#555" stroke-width="1.0"/>
<line x1="-10.0" y1="30" x2="-2.6" y2="30" stroke="#555" stroke-width="1.0"/>
<line x1="5.9" y1="30" x2="18.8" y2="30" stroke="#555" stroke-width="1.0"/>
<line x1="31.6" y1="30" x2="42.6" y2="30" stroke="#555" stroke-width="1.0"/>
<line x1="-11.5" y1="38" x2="-4.8" y2="38" stroke="#555" stroke-width="1.0"/>
<line x1="5.6" y1="38" x2="17.2" y2="38" stroke="#555" stroke-width="1.0"/>
<line x1="25.3" y1="38" x2="36.9" y2="38" stroke="#555" stroke-width="1.0"/>
<line x1="48.5" y1="38" x2="57.5" y2="38" stroke="#555" stroke-width="1.0"/>
<line x1="-8.2" y1="46" x2="2.0" y2="46" stroke="#555" stroke-width="1.0"/>
<line x1="11.2" y1="46" x2="22.9" y2="46" stroke="#555" stroke-width="1.0"/>
<line x1="31.0" y1="46" x2="39.5" y2="46" stroke="#555" stroke-width="1.0"/>
<line x1="47.8" y1="46" x2="58.5" y2="46" stroke="#555" stroke-width="1.0"/></g>
<g transform="translate(48 0)"><line x1="-8.6" y1="6" x2="1.1" y2="6" stroke="#555" stroke-width="1.0"/>
<line x1="10.1" y1="6" x2="23.0" y2="6" stroke="#555" stroke-width="1.0"/>
<line x1="35.5" y1="6" x2="47.5" y2="6" stroke="#555" stroke-width="1.0"/>
<line x1="-10.6" y1="14" x2="-1.0" y2="14" stroke="#555" stroke-width="1.0"/>
<line x1="12.0" y1="14" x2="18.2" y2="14" stroke="#555" stroke-width="1.0"/>
<line x1="26.7" y1="14" x2="35.6" y2="14" stroke="#555" stroke-width="1.0"/>
<line x1="48.6" y1="14" x2="54.9" y2="14" stroke="#555" stroke-width="1.0"/>
<line x1="-8.2" y1="22" x2="1.0" y2="22" stroke="#555" stroke-width="1.0"/>
<line x1="14.7" y1="22" x2="22.2" y2="22" stroke="#555" stroke-width="1.0"/>
<line x1="31.4" y1="22" x2="40.7" y2="22" stroke="#555" stroke-width="1.0"/>
<line x1="-10.0" y1="30" x2="-2.6" y2="30" stroke="#555" stroke-width="1.0"/>
<line x1="5.9" y1="30" x2="18.8" y2="30" stroke="#555" stroke-width="1.0"/>
<line x1="31.6" y1="30" x2="42.6" y2="30" stroke="#555" stroke-width="1.0"/>
<line x1="-11.5" y1="38" x2="-4.8" y2="38" stroke="#555" stroke-width="1.0"/>
<line x1="5.6" y1="38" x2="17.2" y2="38" stroke="#555" stroke-width="1.0"/>
<line x1="25.3" y1="38" x2="36.9" y2="38" stroke="#555" stroke-width="1.0"/>
<line x1="48.5" y1="38" x2="57.5" y2="38" stroke="#555" stroke-width="1.0"/>
<line x1="-8.2" y1="46" x2="2.0" y2="46" stroke="#555" stroke-width="1.0"/>
<line x1="11.2" y1="46" x2="22.9" y2="46" stroke="#555" stroke-width="1.0"/>
<line x1="31.0" y1="46" x2="39.5" y2="46" stroke="#555" stroke-width="1.0"/>
<line x1="47.8" y1="46" x2="58.5" y2="46" stroke="#555" stroke-width="1.0"/></g>
<g transform="translate(48 48)"><line x1="-8.6" y1="6" x2="1.1" y2="6" stroke="#555" stroke-width="1.0"/>
<line x1="10.1" y1="6" x2="23.0" y2="6" stroke="#555" stroke-width="1.0"/>
<line x1="35.5" y1="6" x2="47.5" y2="6" stroke="#555" stroke-width="1.0"/>
<line x1="-10.6" y1="14" x2="-1.0" y2="14" stroke="#555" stroke-width="1.0"/>
<line x1="12.0" y1="14" x2="18.2" y2="14" stroke="#555" stroke-width="1.0"/>
<line x1="26.7" y1="14" x2="35.6" y2="14" stroke="#555" stroke-width="1.0"/>
<line x1="48.6" y1="14" x2="54.9" y2="14" stroke="#555" stroke-width="1.0"/>
<line x1="-8.2" y1="22" x2="1.0" y2="22" stroke="#555" stroke-width="1.0"/>
<line x1="14.7" y1="22" x2="22.2" y2="22" stroke="#555" stroke-width="1.0"/>
<line x1="31.4" y1="22" x2="40.7" y2="22" stroke="#555" stroke-width="1.0"/>
<line x1="-10.0" y1="30" x2="-2.6" y2="30" stroke="#555" stroke-width="1.0"/>
<line x1="5.9" y1="30" x2="18.8" y2="30" stroke="#555" stroke-width="1.0"/>
<line x1="31.6" y1="30" x2="42.6" y2="30" stroke="#555" stroke-width="1.0"/>
<line x1="-11.5" y1="38" x2="-4.8" y2="38" stroke="#555" stroke-width="1.0"/>
<line x1="5.6" y1="38" x2="17.2" y2="38" stroke="#555" stroke-width="1.0"/>
<line x1="25.3" y1="38" x2="36.9" y2="38" stroke="#555" stroke-width="1.0"/>
<line x1="48.5" y1="38" x2="57.5" y2="38" stroke="#555" stroke-width="1.0"/>
<line x1="-8.2" y1="46" x2="2.0" y2="46" stroke="#555" stroke-width="1.0"/>
<line x1="11.2" y1="46" x2="22.9" y2="46" stroke="#555" stroke-width="1.0"/>
<line x1="31.0" y1="46" x2="39.5" y2="46" stroke="#555" stroke-width="1.0"/>
<line x1="47.8" y1="46" x2="58.5" y2="46" stroke="#555" stroke-width="1.0"/></g></pattern></defs>
<rect width="120" height="120" fill="url(#pat_Fm)" stroke="black" stroke-width="1"/>
</svg>
