<svg xmlns="http://www.w3.org/2000/svg" width="120" height="120" viewBox="0 0 120 120">
<defs><clipPath id="clip54"><rect width="54" height="54"/></clipPath><pattern id="pat_Fm" patternUnits="userSpaceOnUse" width="54" height="54"><rect width="54" height="54" fill="white"/><g transform="translate(-54 -54)"><circle cx="38.9" cy="28.5" r="0.8" fill="#333"/>
<circle cx="15.6" cy="53.6" r="0.8" fill="#333"/>
<circle cx="41.9" cy="46.6" r="0.8" fill="#333"/>
<circle cx="38.6" cy="47.9" r="0.8" fill="#333"/>
<circle cx="27.9" cy="46.3" r="0.8" fill="#333"/>
<circle cx="1.3" cy="11.9" r="0.8" fill="#333"/>
<circle cx="22.1" cy="46.8" r="0.8" fill="#333"/>
<circle cx="2.2" cy="6.9" r="0.8" fill="#333"/></g>
<g transform="translate(-54 0)"><circle cx="38.9" cy="28.5" r="0.8" fill="#333"/>
<circle cx="15.6" cy="53.6" r="0.8" fill="#333"/>
<circle cx="41.9" cy="46.6" r="0.8" fill="#333"/>
<circle cx="38.6" cy="47.9" r="0.8" fill="#333"/>
<circle cx="27.9" cy="46.3" r="0.8" fill="#333"/>
<circle cx="1.3" cy="11.9" r="0.8" fill="#333"/>
<circle cx="22.1" cy="46.8" r="0.8" fill="#333"/>
<circle cx="2.2" cy="6.9" r="0.8" fill="#333"/></g>
<g transform="translate(-54 54)"><circle cx="38.9" cy="28.5" r="0.8" fill="#333"/>
<circle cx="15.6" cy="53.6" r="0.8" fill="#333"/>
<circle cx="41.9" cy="46.6" r="0.8" fill="#333"/>
<circle cx="38.6" cy="47.9" r="0.8" fill="#333"/>
<circle cx="27.9" cy="46.3" r="0.8" fill="#333"/>
<circle cx="1.3" cy="11.9" r="0.8" fill="#333"/>
<circle cx="22.1" cy="46.8" r="0.8" fill="#333"/>
<circle cx="2.2" cy="6.9" r="0.8" fill="#333"/></g>
<g transform="translate(0 -54)"><circle cx="38.9" cy="28.5" r="0.8" fill="#333"/>
<circle cx="15.6" cy="53.6" r="0.8" fill="#333"/>
<circle cx="41.9" cy="46.6" r="0.8" fill="#333"/>
<circle cx="38.6" cy="47.9" r="0.8" fill="#333"/>
<circle cx="27.9" cy="46.3" r="0.8" fill="#333"/>
<circle cx="1.3" cy="11.9" r="0.8" fill="#333"/>
<circle cx="22.1" cy="46.8" r="0.8" fill="#333"/>
<circle cx="2.2" cy="6.9" r="0.8" fill="#333"/></g>
<g transform="translate(0 0)"><circle cx="38.9" cy="28.5" r="0.8" fill="#333"/>
<circle cx="15.6" cy="53.6" r="0.8" fill="#333"/>
<circle cx="41.9" cy="46.6" r="0.8" fill="#333"/>
<circle cx="38.6" cy="47.9" r="0.8" fill="#333"/>
<circle cx="27.9" cy="46.3" r="0.8" fill="#333"/>
<circle cx="1.3" cy="11.9" r="0.8" fill="#333"/>
<circle cx="22.1" cy="46.8" r="0.8" fill="#333"/>
<circle cx="2.2" cy="6.9" r="0.8" fill="#333"/></g>
<g transform="translate(0 54)"><circle cx="38.9" cy="28.5" r="0.8" fill="#333"/>
<circle cx="15.6" cy="53.6" r="0.8" fill="#333"/>
<circle cx="41.9" cy="46.6" r="0.8" fill="#333"/>
<circle cx="38.6" cy="47.9" r="0.8" fill="#333"/>
<circle cx="27.9" cy="46.3" r="0.8" fill="#333"/>
<circle cx="1.3" cy="11.9" r="0.8" fill="#333"/>
<circle cx="22.1" cy="46.8" r="0.8" fill="#333"/>
<circle cx="2.2" cy="6.9" r="0.8" fill="#333"/></g>
<g transform="translate(54 -54)"><circle cx="38.9" cy="28.5" r="0.8" fill="#333"/>
<circle cx="15.6" cy="53.6" r="0.8" fill="#333"/>
<circle cx="41.9" cy="46.6" r="0.8" fill="#333"/>
<circle cx="38.6" cy="47.9" r="0.8" fill="#333"/>
<circle cx="27.9" cy="46.3" r="0.8" fill="#333"/>
<circle cx="1.3" cy="11.9" r="0.8" fill="#333"/>
<circle cx="22.1" cy="46.8" r="0.8" fill="#333"/>
<circle cx="2.2" cy="6.9" r="0.8" fill="#333"/></g>
<g transform="translate(54 0)"><circle cx="38.9" cy="28.5" r="0.8" fill="#333"/>
<circle cx="15.6" cy="53.6" r="0.8" fill="#333"/>
<circle cx="41.9" cy="46.6" r="0.8" fill="#333"/>
<circle cx="38.6" cy="47.9" r="0.8" fill="#333"/>
<circle cx="27.9" cy="46.3" r="0.8" fill="#333"/>
<circle cx="1.3" cy="11.9" r="0.8" fill="#333"/>
<circle cx="22.1" cy="46.8" r="0.8" fill="#333"/>
<circle cx="2.2" cy="6.9" r="0.8" fill="#333"/></g>
<g transform="translate(54 54)"><circle cx="38.9" cy="28.5" r="0.8" fill="#333"/>
<circle cx="15.6" cy="53.6" r="0.8" fill="#333"/>
<circle cx="41.9" cy="46.6" r="0.8" fill="#333"/>
<circle cx="38.6" cy="47.9" r="0.8" fill="#333"/>
<circle cx="27.9" cy="46.3" r="0.8" fill="#333"/>
<circle cx="1.3" cy="11.9" r="0.8" fill="#333"/>
<circle cx="22.1" cy="46.8" r="0.8" fill="#333"/>
<circle cx="2.2" cy="6.9" r="0.8" fill="#333"/></g></pattern></defs>
<rect width="120" height="120" fill="url(#pat_Fm)" stroke="black" stroke-width="1"/>
</svg>
