<svg xmlns="http://www.w3.org/2000/svg" width="120" height="120" viewBox="0 0 120 120">
<defs><clipPath id="clip84"><rect width="84" height="84"/></clipPath><pattern id="pat_Gh" patternUnits="userSpaceOnUse" width="84" height="84"><rect width="84" height="84" fill="white"/><g transform="translate(-84 -84)"><ellipse cx="4.0" cy="7.0" rx="9.3" ry="5.8" transform="rotate(1 4.0 7.0)" fill="#d2d2d2" stroke="#222" stroke-width="1.1"/>
<ellipse cx="19.8" cy="7.0" rx="8.3" ry="5.1" transform="rotate(-9 19.8 7.0)" fill="#d2d2d2" stroke="#222" stroke-width="1.1"/>
<ellipse cx="34.0" cy="7.0" rx="8.0" ry="4.9" transform="rotate(-20 34.0 7.0)" fill="#d2d2d2" stroke="#222" stroke-width="1.1"/>
<ellipse cx="47.5" cy="7.0" rx="7.5" ry="4.6" transform="rotate(12 47.5 7.0)" fill="#d2d2d2" stroke="#222" stroke-width="1.1"/>
<ellipse cx="60.2" cy="7.0" rx="6.2" ry="3.9" transform="rotate(-2 60.2 7.0)" fill="#d2d2d2" stroke="#222" stroke-width="1.1"/>
<ellipse cx="70.8" cy="7.0" rx="9.1" ry="5.6" transform="rotate(15 70.8 7.0)" fill="#d2d2d2" stroke="#222" stroke-width="1.1"/>
<ellipse cx="86.2" cy="7.0" rx="9.9" ry="6.1" transform="rotate(-10 86.2 7.0)" fill="#d2d2d2" stroke="#222" stroke-width="1.1"/>
<ellipse cx="11.0" cy="22.0" rx="7.7" ry="4.8" transform="rotate(-15 11.0 22.0)" fill="#d2d2d2" stroke="#222" stroke-width="1.1"/>
<ellipse cx="24.1" cy="22.0" rx="8.9" ry="5.5" transform="rotate(14 24.1 22.0)" fill="#d2d2d2" stroke="#222" stroke-width="1.1"/>
<ellipse cx="39.2" cy="22.0" rx="7.9" ry="4.9" transform="rotate(-4 39.2 22.0)" fill="#d2d2d2" stroke="#222" stroke-width="1.1"/>
<ellipse cx="52.6" cy="22.0" rx="7.3" ry="4.5" transform="rotate(-3 52.6 22.0)" fill="#d2d2d2" stroke="#222" stroke-width="1.1"/>
<ellipse cx="65.0" cy="22.0" rx="7.7" ry="4.8" transform="rotate(-12 65.0 22.0)" fill="#d2d2d2" stroke="#222" stroke-width="1.1"/>
<ellipse cx="78.0" cy="22.0" rx="7.4" ry="4.6" transform="rotate(-9 78.0 22.0)" fill="#d2d2d2" stroke="#222" stroke-width="1.1"/>
<ellipse cx="4.0" cy="33.0" rx="9.6" ry="5.9" transform="rotate(0 4.0 33.0)" fill="#d2d2d2" stroke="#222" stroke-width="1.1"/>
<ellipse cx="20.2" cy="33.0" rx="7.7" ry="4.8" transform="rotate(11 20.2 33.0)" fill="#d2d2d2" stroke="#222" stroke-width="1.1"/>
<ellipse cx="33.3" cy="33.0" rx="6.5" ry="4.0" transform="rotate(-15 33.3 33.0)" fill="#d2d2d2" stroke="#222" stroke-width="1.1"/>
<ellipse cx="44.4" cy="33.0" rx="7.2" ry="4.5" transform="rotate(-6 44.4 33.0)" fill="#d2d2d2" stroke="#222" stroke-width="1.1"/>
<ellipse cx="56.7" cy="33.0" rx="6.6" ry="4.1" transform="rotate(-7 56.7 33.0)" fill="#d2d2d2" stroke="#222" stroke-width="1.1"/>
<ellipse cx="67.8" cy="33.0" rx="8.9" ry="5.5" transform="rotate(-13 67.8 33.0)" fill="#d2d2d2" stroke="#222" stroke-width="1.1"/>
<ellipse cx="83.0" cy="33.0" rx="9.9" ry="6.1" transform="rotate(-7 83.0 33.0)" fill="#d2d2d2" stroke="#222" stroke-width="1.1"/>
<ellipse cx="11.0" cy="48.0" rx="7.7" ry="4.8" transform="rotate(6 11.0 48.0)" fill="#d2d2d2" stroke="#222" stroke-width="1.1"/>
<ellipse cx="24.2" cy="48.0" rx="6.4" ry="4.0" transform="rotate(-13 24.2 48.0)" fill="#d2d2d2" stroke="#222" stroke-width="1.1"/>
<ellipse cx="35.1" cy="48.0" rx="7.5" ry="4.7" transform="rotate(13 35.1 48.0)" fill="#d2d2d2" stroke="#222" stroke-width="1.1"/>
<ellipse cx="47.9" cy="48.0" rx="9.5" ry="5.9" transform="rotate(-15 47.9 48.0)" fill="#d2d2d2" stroke="#222" stroke-width="1.1"/>
<ellipse cx="64.0" cy="48.0" rx="6.4" ry="3.9" transform="rotate(-9 64.0 48.0)" fill="#d2d2d2" stroke="#222" stroke-width="1.1"/>
<ellipse cx="74.9" cy="48.0" rx="9.4" ry="5.8" transform="rotate(-4 74.9 48.0)" fill="#d2d2d2" stroke="#222" stroke-width="1.1"/>
<ellipse cx="4.0" cy="59.0" rx="7.2" ry="4.4" transform="rotate(-5 4.0 59.0)" fill="#d2d2d2" stroke="#222" stroke-width="1.1"/>
<ellipse cx="16.2" cy="59.0" rx="6.6" ry="4.1" transform="rotate(19 16.2 59.0)" fill="#d2d2d2" stroke="#222" stroke-width="1.1"/>
<ellipse cx="27.4" cy="59.0" rx="8.6" ry="5.3" transform="rotate(-15 27.4 59.0)" fill="#d2d2d2" stroke="#222" stroke-width="1.1"/>
<ellipse cx="42.0" cy="59.0" rx="7.4" ry="4.6" transform="rotate(0 42.0 59.0)" fill="#d2d2d2" stroke="#222" stroke-width="1.1"/>
<ellipse cx="54.5" cy="59.0" rx="6.6" ry="4.1" transform="rotate(-6 54.5 59.0)" fill="#d2d2d2" stroke="#222" stroke-width="1.1"/>
<ellipse cx="65.8" cy="59.0" rx="9.0" ry="5.6" transform="rotate(20 65.8 59.0)" fill="#d2d2d2" stroke="#222" stroke-width="1.1"/>
<ellipse cx="81.1" cy="59.0" rx="6.2" ry="3.8" transform="rotate(6 81.1 59.0)" fill="#d2d2d2" stroke="#222" stroke-width="1.1"/>
<ellipse cx="11.0" cy="74.0" rx="8.4" ry="5.2" transform="rotate(-4 11.0 74.0)" fill="#d2d2d2" stroke="#222" stroke-width="1.1"/>
<ellipse cx="25.2" cy="74.0" rx="9.8" ry="6.1" transform="rotate(11 25.2 74.0)" fill="#d2d2d2" stroke="#222" stroke-width="1.1"/>
<ellipse cx="41.9" cy="74.0" rx="6.9" ry="4.3" transform="rotate(7 41.9 74.0)" fill="#d2d2d2" stroke="#222" stroke-width="1.1"/>
<ellipse cx="53.5" cy="74.0" rx="8.4" ry="5.2" transform="rotate(-16 53.5 74.0)" fill="#d2d2d2" stroke="#222" stroke-width="1.1"/>
<ellipse cx="67.8" cy="74.0" rx="7.6" ry="4.7" transform="rotate(-6 67.8 74.0)" fill="#d2d2d2" stroke="#222" stroke-width="1.1"/>
<ellipse cx="80.7" cy="74.0" rx="8.2" ry="5.1" transform="rotate(-10 80.7 74.0)" fill="#d2d2d2" stroke="#222" stroke-width="1.1"/></g>
<g transform="translate(-84 0)"><ellipse cx="4.0" cy="7.0" rx="9.3" ry="5.8" transform="rotate(1 4.0 7.0)" fill="#d2d2d2" stroke="#222" stroke-width="1.1"/>
<ellipse cx="19.8" cy="7.0" rx="8.3" ry="5.1" transform="rotate(-9 19.8 7.0)" fill="#d2d2d2" stroke="#222" stroke-width="1.1"/>
<ellipse cx="34.0" cy="7.0" rx="8.0" ry="4.9" transform="rotate(-20 34.0 7.0)" fill="#d2d2d2" stroke="#222" stroke-width="1.1"/>
<ellipse cx="47.5" cy="7.0" rx="7.5" ry="4.6" transform="rotate(12 47.5 7.0)" fill="#d2d2d2" stroke="#222" stroke-width="1.1"/>
<ellipse cx="60.2" cy="7.0" rx="6.2" ry="3.9" transform="rotate(-2 60.2 7.0)" fill="#d2d2d2" stroke="#222" stroke-width="1.1"/>
<ellipse cx="70.8" cy="7.0" rx="9.1" ry="5.6" transform="rotate(15 70.8 7.0)" fill="#d2d2d2" stroke="#222" stroke-width="1.1"/>
<ellipse cx="86.2" cy="7.0" rx="9.9" ry="6.1" transform="rotate(-10 86.2 7.0)" fill="#d2d2d2" stroke="#222" stroke-width="1.1"/>
<ellipse cx="11.0" cy="22.0" rx="7.7" ry="4.8" transform="rotate(-15 11.0 22.0)" fill="#d2d2d2" stroke="#222" stroke-width="1.1"/>
<ellipse cx="24.1" cy="22.0" rx="8.9" ry="5.5" transform="rotate(14 24.1 22.0)" fill="#d2d2d2" stroke="#222" stroke-width="1.1"/>
<ellipse cx="39.2" cy="22.0" rx="7.9" ry="4.9" transform="rotate(-4 39.2 22.0)" fill="#d2d2d2" stroke="#222" stroke-width="1.1"/>
<ellipse cx="52.6" cy="22.0" rx="7.3" ry="4.5" transform="rotate(-3 52.6 22.0)" fill="#d2d2d2" stroke="#222" stroke-width="1.1"/>
<ellipse cx="65.0" cy="22.0" rx="7.7" ry="4.8" transform="rotate(-12 65.0 22.0)" fill="#d2d2d2" stroke="#222" stroke-width="1.1"/>
<ellipse cx="78.0" cy="22.0" rx="7.4" ry="4.6" transform="rotate(-9 78.0 22.0)" fill="#d2d2d2" stroke="#222" stroke-width="1.1"/>
<ellipse cx="4.0" cy="33.0" rx="9.6" ry="5.9" transform="rotate(0 4.0 33.0)" fill="#d2d2d2" stroke="#222" stroke-width="1.1"/>
<ellipse cx="20.2" cy="33.0" rx="7.7" ry="4.8" transform="rotate(11 20.2 33.0)" fill="#d2d2d2" stroke="#222" stroke-width="1.1"/>
<ellipse cx="33.3" cy="33.0" rx="6.5" ry="4.0" transform="rotate(-15 33.3 33.0)" fill="#d2d2d2" stroke="#222" stroke-width="1.1"/>
<ellipse cx="44.4" cy="33.0" rx="7.2" ry="4.5" transform="rotate(-6 44.4 33.0)" fill="#d2d2d2" stroke="#222" stroke-width="1.1"/>
<ellipse cx="56.7" cy="33.0" rx="6.6" ry="4.1" transform="rotate(-7 56.7 33.0)" fill="#d2d2d2" stroke="#222" stroke-width="1.1"/>
<ellipse cx="67.8" cy="33.0" rx="8.9" ry="5.5" transform="rotate(-13 67.8 33.0)" fill="#d2d2d2" stroke="#222" stroke-width="1.1"/>
<ellipse cx="83.0" cy="33.0" rx="9.9" ry="6.1" transform="rotate(-7 83.0 33.0)" fill="#d2d2d2" stroke="#222" stroke-width="1.1"/>
<ellipse cx="11.0" cy="48.0" rx="7.7" ry="4.8" transform="rotate(6 11.0 48.0)" fill="#d2d2d2" stroke="#222" stroke-width="1.1"/>
<ellipse cx="24.2" cy="48.0" rx="6.4" ry="4.0" transform="rotate(-13 24.2 48.0)" fill="#d2d2d2" stroke="#222" stroke-width="1.1"/>
<ellipse cx="35.1" cy="48.0" rx="7.5" ry="4.7" transform="rotate(13 35.1 48.0)" fill="#d2d2d2" stroke="#222" stroke-width="1.1"/>
<ellipse cx="47.9" cy="48.0" rx="9.5" ry="5.9" transform="rotate(-15 47.9 48.0)" fill="#d2d2d2" stroke="#222" stroke-width="1.1"/>
<ellipse cx="64.0" cy="48.0" rx="6.4" ry="3.9" transform="rotate(-9 64.0 48.0)" fill="#d2d2d2" stroke="#222" stroke-width="1.1"/>
<ellipse cx="74.9" cy="48.0" rx="9.4" ry="5.8" transform="rotate(-4 74.9 48.0)" fill="#d2d2d2" stroke="#222" stroke-width="1.1"/>
<ellipse cx="4.0" cy="59.0" rx="7.2" ry="4.4" transform="rotate(-5 4.0 59.0)" fill="#d2d2d2" stroke="#222" stroke-width="1.1"/>
<ellipse cx="16.2" cy="59.0" rx="6.6" ry="4.1" transform="rotate(19 16.2 59.0)" fill="#d2d2d2" stroke="#222" stroke-width="1.1"/>
<ellipse cx="27.4" cy="59.0" rx="8.6" ry="5.3" transform="rotate(-15 27.4 59.0)" fill="#d2d2d2" stroke="#222" stroke-width="1.1"/>
<ellipse cx="42.0" cy="59.0" rx="7.4" ry="4.6" transform="rotate(0 42.0 59.0)" fill="#d2d2d2" stroke="#222" stroke-width="1.1"/>
<ellipse cx="54.5" cy="59.0" rx="6.6" ry="4.1" transform="rotate(-6 54.5 59.0)" fill="#d2d2d2" stroke="#222" stroke-width="1.1"/>
<ellipse cx="65.8" cy="59.0" rx="9.0" ry="5.6" transform="rotate(20 65.8 59.0)" fill="#d2d2d2" stroke="#222" stroke-width="1.1"/>
<ellipse cx="81.1" cy="59.0" rx="6.2" ry="3.8" transform="rotate(6 81.1 59.0)" fill="#d2d2d2" stroke="#222" stroke-width="1.1"/>
<ellipse cx="11.0" cy="74.0" rx="8.4" ry="5.2" transform="rotate(-4 11.0 74.0)" fill="#d2d2d2" stroke="#222" stroke-width="1.1"/>
<ellipse cx="25.2" cy="74.0" rx="9.8" ry="6.1" transform="rotate(11 25.2 74.0)" fill="#d2d2d2" stroke="#222" stroke-width="1.1"/>
<ellipse cx="41.9" cy="74.0" rx="6.9" ry="4.3" transform="rotate(7 41.9 74.0)" fill="#d2d2d2" stroke="#222" stroke-width="1.1"/>
<ellipse cx="53.5" cy="74.0" rx="8.4" ry="5.2" transform="rotate(-16 53.5 74.0)" fill="#d2d2d2" stroke="#222" stroke-width="1.1"/>
<ellipse cx="67.8" cy="74.0" rx="7.6" ry="4.7" transform="rotate(-6 67.8 74.0)" fill="#d2d2d2" stroke="#222" stroke-width="1.1"/>
<ellipse cx="80.7" cy="74.0" rx="8.2" ry="5.1" transform="rotate(-10 80.7 74.0)" fill="#d2d2d2" stroke="#222" stroke-width="1.1"/></g>
<g transform="translate(-84 84)"><ellipse cx="4.0" cy="7.0" rx="9.3" ry="5.8" transform="rotate(1 4.0 7.0)" fill="#d2d2d2" stroke="#222" stroke-width="1.1"/>
<ellipse cx="19.8" cy="7.0" rx="8.3" ry="5.1" transform="rotate(-9 19.8 7.0)" fill="#d2d2d2" stroke="#222" stroke-width="1.1"/>
<ellipse cx="34.0" cy="7.0" rx="8.0" ry="4.9" transform="rotate(-20 34.0 7.0)" fill="#d2d2d2" stroke="#222" stroke-width="1.1"/>
<ellipse cx="47.5" cy="7.0" rx="7.5" ry="4.6" transform="rotate(12 47.5 7.0)" fill="#d2d2d2" stroke="#222" stroke-width="1.1"/>
<ellipse cx="60.2" cy="7.0" rx="6.2" ry="3.9" transform="rotate(-2 60.2 7.0)" fill="#d2d2d2" stroke="#222" stroke-width="1.1"/>
<ellipse cx="70.8" cy="7.0" rx="9.1" ry="5.6" transform="rotate(15 70.8 7.0)" fill="#d2d2d2" stroke="#222" stroke-width="1.1"/>
<ellipse cx="86.2" cy="7.0" rx="9.9" ry="6.1" transform="rotate(-10 86.2 7.0)" fill="#d2d2d2" stroke="#222" stroke-width="1.1"/>
<ellipse cx="11.0" cy="22.0" rx="7.7" ry="4.8" transform="rotate(-15 11.0 22.0)" fill="#d2d2d2" stroke="#222" stroke-width="1.1"/>
<ellipse cx="24.1" cy="22.0" rx="8.9" ry="5.5" transform="rotate(14 24.1 22.0)" fill="#d2d2d2" stroke="#222" stroke-width="1.1"/>
<ellipse cx="39.2" cy="22.0" rx="7.9" ry="4.9" transform="rotate(-4 39.2 22.0)" fill="#d2d2d2" stroke="#222" stroke-width="1.1"/>
<ellipse cx="52.6" cy="22.0" rx="7.3" ry="4.5" transform="rotate(-3 52.6 22.0)" fill="#d2d2d2" stroke="#222" stroke-width="1.1"/>
<ellipse cx="65.0" cy="22.0" rx="7.7" ry="4.8" transform="rotate(-12 65.0 22.0)" fill="#d2d2d2" stroke="#222" stroke-width="1.1"/>
<ellipse cx="78.0" cy="22.0" rx="7.4" ry="4.6" transform="rotate(-9 78.0 22.0)" fill="#d2d2d2" stroke="#222" stroke-width="1.1"/>
<ellipse cx="4.0" cy="33.0" rx="9.6" ry="5.9" transform="rotate(0 4.0 33.0)" fill="#d2d2d2" stroke="#222" stroke-width="1.1"/>
<ellipse cx="20.2" cy="33.0" rx="7.7" ry="4.8" transform="rotate(11 20.2 33.0)" fill="#d2d2d2" stroke="#222" stroke-width="1.1"/>
<ellipse cx="33.3" cy="33.0" rx="6.5" ry="4.0" transform="rotate(-15 33.3 33.0)" fill="#d2d2d2" stroke="#222" stroke-width="1.1"/>
<ellipse cx="44.4" cy="33.0" rx="7.2" ry="4.5" transform="rotate(-6 44.4 33.0)" fill="#d2d2d2" stroke="#222" stroke-width="1.1"/>
<ellipse cx="56.7" cy="33.0" rx="6.6" ry="4.1" transform="rotate(-7 56.7 33.0)" fill="#d2d2d2" stroke="#222" stroke-width="1.1"/>
<ellipse cx="67.8" cy="33.0" rx="8.9" ry="5.5" transform="rotate(-13 67.8 33.0)" fill="#d2d2d2" stroke="#222" stroke-width="1.1"/>
<ellipse cx="83.0" cy="33.0" rx="9.9" ry="6.1" transform="rotate(-7 83.0 33.0)" fill="#d2d2d2" stroke="#222" stroke-width="1.1"/>
<ellipse cx="11.0" cy="48.0" rx="7.7" ry="4.8" transform="rotate(6 11.0 48.0)" fill="#d2d2d2" stroke="#222" stroke-width="1.1"/>
<ellipse cx="24.2" cy="48.0" rx="6.4" ry="4.0" transform="rotate(-13 24.2 48.0)" fill="#d2d2d2" stroke="#222" stroke-width="1.1"/>
<ellipse cx="35.1" cy="48.0" rx="7.5" ry="4.7" transform="rotate(13 35.1 48.0)" fill="#d2d2d2" stroke="#222" stroke-width="1.1"/>
<ellipse cx="47.9" cy="48.0" rx="9.5" ry="5.9" transform="rotate(-15 47.9 48.0)" fill="#d2d2d2" stroke="#222" stroke-width="1.1"/>
<ellipse cx="64.0" cy="48.0" rx="6.4" ry="3.9" transform="rotate(-9 64.0 48.0)" fill="#d2d2d2" stroke="#222" stroke-width="1.1"/>
<ellipse cx="74.9" cy="48.0" rx="9.4" ry="5.8" transform="rotate(-4 74.9 48.0)" fill="#d2d2d2" stroke="#222" stroke-width="1.1"/>
<ellipse cx="4.0" cy="59.0" rx="7.2" ry="4.4" transform="rotate(-5 4.0 59.0)" fill="#d2d2d2" stroke="#222" stroke-width="1.1"/>
<ellipse cx="16.2" cy="59.0" rx="6.6" ry="4.1" transform="rotate(19 16.2 59.0)" fill="#d2d2d2" stroke="#222" stroke-width="1.1"/>
<ellipse cx="27.4" cy="59.0" rx="8.6" ry="5.3" transform="rotate(-15 27.4 59.0)" fill="#d2d2d2" stroke="#222" stroke-width="1.1"/>
<ellipse cx="42.0" cy="59.0" rx="7.4" ry="4.6" transform="rotate(0 42.0 59.0)" fill="#d2d2d2" stroke="#222" stroke-width="1.1"/>
<ellipse cx="54.5" cy="59.0" rx="6.6" ry="4.1" transform="rotate(-6 54.5 59.0)" fill="#d2d2d2" stroke="#222" stroke-width="1.1"/>
<ellipse cx="65.8" cy="59.0" rx="9.0" ry="5.6" transform="rotate(20 65.8 59.0)" fill="#d2d2d2" stroke="#222" stroke-width="1.1"/>
<ellipse cx="81.1" cy="59.0" rx="6.2" ry="3.8" transform="rotate(6 81.1 59.0)" fill="#d2d2d2" stroke="#222" stroke-width="1.1"/>
<ellipse cx="11.0" cy="74.0" rx="8.4" ry="5.2" transform="rotate(-4 11.0 74.0)" fill="#d2d2d2" stroke="#222" stroke-width="1.1"/>
<ellipse cx="25.2" cy="74.0" rx="9.8" ry="6.1" transform="rotate(11 25.2 74.0)" fill="#d2d2d2" stroke="#222" stroke-width="1.1"/>
<ellipse cx="41.9" cy="74.0" rx="6.9" ry="4.3" transform="rotate(7 41.9 74.0)" fill="#d2d2d2" stroke="#222" stroke-width="1.1"/>
<ellipse cx="53.5" cy="74.0" rx="8.4" ry="5.2" transform="rotate(-16 53.5 74.0)" fill="#d2d2d2" stroke="#222" stroke-width="1.1"/>
<ellipse cx="67.8" cy="74.0" rx="7.6" ry="4.7" transform="rotate(-6 67.8 74.0)" fill="#d2d2d2" stroke="#222" stroke-width="1.1"/>
<ellipse cx="80.7" cy="74.0" rx="8.2" ry="5.1" transform="rotate(-10 80.7 74.0)" fill="#d2d2d2" stroke="#222" stroke-width="1.1"/></g>
<g transform="translate(0 -84)"><ellipse cx="4.0" cy="7.0" rx="9.3" ry="5.8" transform="rotate(1 4.0 7.0)" fill="#d2d2d2" stroke="#222" stroke-width="1.1"/>
<ellipse cx="19.8" cy="7.0" rx="8.3" ry="5.1" transform="rotate(-9 19.8 7.0)" fill="#d2d2d2" stroke="#222" stroke-width="1.1"/>
<ellipse cx="34.0" cy="7.0" rx="8.0" ry="4.9" transform="rotate(-20 34.0 7.0)" fill="#d2d2d2" stroke="#222" stroke-width="1.1"/>
<ellipse cx="47.5" cy="7.0" rx="7.5" ry="4.6" transform="rotate(12 47.5 7.0)" fill="#d2d2d2" stroke="#222" stroke-width="1.1"/>
<ellipse cx="60.2" cy="7.0" rx="6.2" ry="3.9" transform="rotate(-2 60.2 7.0)" fill="#d2d2d2" stroke="#222" stroke-width="1.1"/>
<ellipse cx="70.8" cy="7.0" rx="9.1" ry="5.6" transform="rotate(15 70.8 7.0)" fill="#d2d2d2" stroke="#222" stroke-width="1.1"/>
<ellipse cx="86.2" cy="7.0" rx="9.9" ry="6.1" transform="rotate(-10 86.2 7.0)" fill="#d2d2d2" stroke="#222" stroke-width="1.1"/>
<ellipse cx="11.0" cy="22.0" rx="7.7" ry="4.8" transform="rotate(-15 11.0 22.0)" fill="#d2d2d2" stroke="#222" stroke-width="1.1"/>
<ellipse cx="24.1" cy="22.0" rx="8.9" ry="5.5" transform="rotate(14 24.1 22.0)" fill="#d2d2d2" stroke="#222" stroke-width="1.1"/>
<ellipse cx="39.2" cy="22.0" rx="7.9" ry="4.9" transform="rotate(-4 39.2 22.0)" fill="#d2d2d2" stroke="#222" stroke-width="1.1"/>
<ellipse cx="52.6" cy="22.0" rx="7.3" ry="4.5" transform="rotate(-3 52.6 22.0)" fill="#d2d2d2" stroke="#222" stroke-width="1.1"/>
<ellipse cx="65.0" cy="22.0" rx="7.7" ry="4.8" transform="rotate(-12 65.0 22.0)" fill="#d2d2d2" stroke="#222" stroke-width="1.1"/>
<ellipse cx="78.0" cy="22.0" rx="7.4" ry="4.6" transform="rotate(-9 78.0 22.0)" fill="#d2d2d2" stroke="#222" stroke-width="1.1"/>
<ellipse cx="4.0" cy="33.0" rx="9.6" ry="5.9" transform="rotate(0 4.0 33.0)" fill="#d2d2d2" stroke="#222" stroke-width="1.1"/>
<ellipse cx="20.2" cy="33.0" rx="7.7" ry="4.8" transform="rotate(11 20.2 33.0)" fill="#d2d2d2" stroke="#222" stroke-width="1.1"/>
<ellipse cx="33.3" cy="33.0" rx="6.5" ry="4.0" transform="rotate(-15 33.3 33.0)" fill="#d2d2d2" stroke="#222" stroke-width="1.1"/>
<ellipse cx="44.4" cy="33.0" rx="7.2" ry="4.5" transform="rotate(-6 44.4 33.0)" fill="#d2d2d2" stroke="#222" stroke-width="1.1"/>
<ellipse cx="56.7" cy="33.0" rx="6.6" ry="4.1" transform="rotate(-7 56.7 33.0)" fill="#d2d2d2" stroke="#222" stroke-width="1.1"/>
<ellipse cx="67.8" cy="33.0" rx="8.9" ry="5.5" transform="rotate(-13 67.8 33.0)" fill="#d2d2d2" stroke="#222" stroke-width="1.1"/>
<ellipse cx="83.0" cy="33.0" rx="9.9" ry="6.1" transform="rotate(-7 83.0 33.0)" fill="#d2d2d2" stroke="#222" stroke-width="1.1"/>
<ellipse cx="11.0" cy="48.0" rx="7.7" ry="4.8" transform="rotate(6 11.0 48.0)" fill="#d2d2d2" stroke="#222" stroke-width="1.1"/>
<ellipse cx="24.2" cy="48.0" rx="6.4" ry="4.0" transform="rotate(-13 24.2 48.0)" fill="#d2d2d2" stroke="#222" stroke-width="1.1"/>
<ellipse cx="35.1" cy="48.0" rx="7.5" ry="4.7" transform="rotate(13 35.1 48.0)" fill="#d2d2d2" stroke="#222" stroke-width="1.1"/>
<ellipse cx="47.9" cy="48.0" rx="9.5" ry="5.9" transform="rotate(-15 47.9 48.0)" fill="#d2d2d2" stroke="#222" stroke-width="1.1"/>
<ellipse cx="64.0" cy="48.0" rx="6.4" ry="3.9" transform="rotate(-9 64.0 48.0)" fill="#d2d2d2" stroke="#222" stroke-width="1.1"/>
<ellipse cx="74.9" cy="48.0" rx="9.4" ry="5.8" transform="rotate(-4 74.9 48.0)" fill="#d2d2d2" stroke="#222" stroke-width="1.1"/>
<ellipse cx="4.0" cy="59.0" rx="7.2" ry="4.4" transform="rotate(-5 4.0 59.0)" fill="#d2d2d2" stroke="#222" stroke-width="1.1"/>
<ellipse cx="16.2" cy="59.0" rx="6.6" ry="4.1" transform="rotate(19 16.2 59.0)" fill="#d2d2d2" stroke="#222" stroke-width="1.1"/>
<ellipse cx="27.4" cy="59.0" rx="8.6" ry="5.3" transform="rotate(-15 27.4 59.0)" fill="#d2d2d2" stroke="#222" stroke-width="1.1"/>
<ellipse cx="42.0" cy="59.0" rx="7.4" ry="4.6" transform="rotate(0 42.0 59.0)" fill="#d2d2d2" stroke="#222" stroke-width="1.1"/>
<ellipse cx="54.5" cy="59.0" rx="6.6" ry="4.1" transform="rotate(-6 54.5 59.0)" fill="#d2d2d2" stroke="#222" stroke-width="1.1"/>
<ellipse cx="65.8" cy="59.0" rx="9.0" ry="5.6" transform="rotate(20 65.8 59.0)" fill="#d2d2d2" stroke="#222" stroke-width="1.1"/>
<ellipse cx="81.1" cy="59.0" rx="6.2" ry="3.8" transform="rotate(6 81.1 59.0)" fill="#d2d2d2" stroke="#222" stroke-width="1.1"/>
<ellipse cx="11.0" cy="74.0" rx="8.4" ry="5.2" transform="rotate(-4 11.0 74.0)" fill="#d2d2d2" stroke="#222" stroke-width="1.1"/>
<ellipse cx="25.2" cy="74.0" rx="9.8" ry="6.1" transform="rotate(11 25.2 74.0)" fill="#d2d2d2" stroke="#222" stroke-width="1.1"/>
<ellipse cx="41.9" cy="74.0" rx="6.9" ry="4.3" transform="rotate(7 41.9 74.0)" fill="#d2d2d2" stroke="#222" stroke-width="1.1"/>
<ellipse cx="53.5" cy="74.0" rx="8.4" ry="5.2" transform="rotate(-16 53.5 74.0)" fill="#d2d2d2" stroke="#222" stroke-width="1.1"/>
<ellipse cx="67.8" cy="74.0" rx="7.6" ry="4.7" transform="rotate(-6 67.8 74.0)" fill="#d2d2d2" stroke="#222" stroke-width="1.1"/>
<ellipse cx="80.7" cy="74.0" rx="8.2" ry="5.1" transform="rotate(-10 80.7 74.0)" fill="#d2d2d2" stroke="#222" stroke-width="1.1"/></g>
<g transform="translate(0 0)"><ellipse cx="4.0" cy="7.0" rx="9.3" ry="5.8" transform="rotate(1 4.0 7.0)" fill="#d2d2d2" stroke="#222" stroke-width="1.1"/>
<ellipse cx="19.8" cy="7.0" rx="8.3" ry="5.1" transform="rotate(-9 19.8 7.0)" fill="#d2d2d2" stroke="#222" stroke-width="1.1"/>
<ellipse cx="34.0" cy="7.0" rx="8.0" ry="4.9" transform="rotate(-20 34.0 7.0)" fill="#d2d2d2" stroke="#222" stroke-width="1.1"/>
<ellipse cx="47.5" cy="7.0" rx="7.5" ry="4.6" transform="rotate(12 47.5 7.0)" fill="#d2d2d2" stroke="#222" stroke-width="1.1"/>
<ellipse cx="60.2" cy="7.0" rx="6.2" ry="3.9" transform="rotate(-2 60.2 7.0)" fill="#d2d2d2" stroke="#222" stroke-width="1.1"/>
<ellipse cx="70.8" cy="7.0" rx="9.1" ry="5.6" transform="rotate(15 70.8 7.0)" fill="#d2d2d2" stroke="#222" stroke-width="1.1"/>
<ellipse cx="86.2" cy="7.0" rx="9.9" ry="6.1" transform="rotate(-10 86.2 7.0)" fill="#d2d2d2" stroke="#222" stroke-width="1.1"/>
<ellipse cx="11.0" cy="22.0" rx="7.7" ry="4.8" transform="rotate(-15 11.0 22.0)" fill="#d2d2d2" stroke="#222" stroke-width="1.1"/>
<ellipse cx="24.1" cy="22.0" rx="8.9" ry="5.5" transform="rotate(14 24.1 22.0)" fill="#d2d2d2" stroke="#222" stroke-width="1.1"/>
<ellipse cx="39.2" cy="22.0" rx="7.9" ry="4.9" transform="rotate(-4 39.2 22.0)" fill="#d2d2d2" stroke="#222" stroke-width="1.1"/>
<ellipse cx="52.6" cy="22.0" rx="7.3" ry="4.5" transform="rotate(-3 52.6 22.0)" fill="#d2d2d2" stroke="#222" stroke-width="1.1"/>
<ellipse cx="65.0" cy="22.0" rx="7.7" ry="4.8" transform="rotate(-12 65.0 22.0)" fill="#d2d2d2" stroke="#222" stroke-width="1.1"/>
<ellipse cx="78.0" cy="22.0" rx="7.4" ry="4.6" transform="rotate(-9 78.0 22.0)" fill="#d2d2d2" stroke="#222" stroke-width="1.1"/>
<ellipse cx="4.0" cy="33.0" rx="9.6" ry="5.9" transform="rotate(0 4.0 33.0)" fill="#d2d2d2" stroke="#222" stroke-width="1.1"/>
<ellipse cx="20.2" cy="33.0" rx="7.7" ry="4.8" transform="rotate(11 20.2 33.0)" fill="#d2d2d2" stroke="#222" stroke-width="1.1"/>
<ellipse cx="33.3" cy="33.0" rx="6.5" ry="4.0" transform="rotate(-15 33.3 33.0)" fill="#d2d2d2" stroke="#222" stroke-width="1.1"/>
<ellipse cx="44.4" cy="33.0" rx="7.2" ry="4.5" transform="rotate(-6 44.4 33.0)" fill="#d2d2d2" stroke="#222" stroke-width="1.1"/>
<ellipse cx="56.7" cy="33.0" rx="6.6" ry="4.1" transform="rotate(-7 56.7 33.0)" fill="#d2d2d2" stroke="#222" stroke-width="1.1"/>
<ellipse cx="67.8" cy="33.0" rx="8.9" ry="5.5" transform="rotate(-13 67.8 33.0)" fill="#d2d2d2" stroke="#222" stroke-width="1.1"/>
<ellipse cx="83.0" cy="33.0" rx="9.9" ry="6.1" transform="rotate(-7 83.0 33.0)" fill="#d2d2d2" stroke="#222" stroke-width="1.1"/>
<ellipse cx="11.0" cy="48.0" rx="7.7" ry="4.8" transform="rotate(6 11.0 48.0)" fill="#d2d2d2" stroke="#222" stroke-width="1.1"/>
<ellipse cx="24.2" cy="48.0" rx="6.4" ry="4.0" transform="rotate(-13 24.2 48.0)" fill="#d2d2d2" stroke="#222" stroke-width="1.1"/>
<ellipse cx="35.1" cy="48.0" rx="7.5" ry="4.7" transform="rotate(13 35.1 48.0)" fill="#d2d2d2" stroke="#222" stroke-width="1.1"/>
<ellipse cx="47.9" cy="48.0" rx="9.5" ry="5.9" transform="rotate(-15 47.9 48.0)" fill="#d2d2d2" stroke="#222" stroke-width="1.1"/>
<ellipse cx="64.0" cy="48.0" rx="6.4" ry="3.9" transform="rotate(-9 64.0 48.0)" fill="#d2d2d2" stroke="#222" stroke-width="1.1"/>
<ellipse cx="74.9" cy="48.0" rx="9.4" ry="5.8" transform="rotate(-4 74.9 48.0)" fill="#d2d2d2" stroke="#222" stroke-width="1.1"/>
<ellipse cx="4.0" cy="59.0" rx="7.2" ry="4.4" transform="rotate(-5 4.0 59.0)" fill="#d2d2d2" stroke="#222" stroke-width="1.1"/>
<ellipse cx="16.2" cy="59.0" rx="6.6" ry="4.1" transform="rotate(19 16.2 59.0)" fill="#d2d2d2" stroke="#222" stroke-width="1.1"/>
<ellipse cx="27.4" cy="59.0" rx="8.6" ry="5.3" transform="rotate(-15 27.4 59.0)" fill="#d2d2d2" stroke="#222" stroke-width="1.1"/>
<ellipse cx="42.0" cy="59.0" rx="7.4" ry="4.6" transform="rotate(0 42.0 59.0)" fill="#d2d2d2" stroke="#222" stroke-width="1.1"/>
<ellipse cx="54.5" cy="59.0" rx="6.6" ry="4.1" transform="rotate(-6 54.5 59.0)" fill="#d2d2d2" stroke="#222" stroke-width="1.1"/>
<ellipse cx="65.8" cy="59.0" rx="9.0" ry="5.6" transform="rotate(20 65.8 59.0)" fill="#d2d2d2" stroke="#222" stroke-width="1.1"/>
<ellipse cx="81.1" cy="59.0" rx="6.2" ry="3.8" transform="rotate(6 81.1 59.0)" fill="#d2d2d2" stroke="#222" stroke-width="1.1"/>
<ellipse cx="11.0" cy="74.0" rx="8.4" ry="5.2" transform="rotate(-4 11.0 74.0)" fill="#d2d2d2" stroke="#222" stroke-width="1.1"/>
<ellipse cx="25.2" cy="74.0" rx="9.8" ry="6.1" transform="rotate(11 25.2 74.0)" fill="#d2d2d2" stroke="#222" stroke-width="1.1"/>
<ellipse cx="41.9" cy="74.0" rx="6.9" ry="4.3" transform="rotate(7 41.9 74.0)" fill="#d2d2d2" stroke="#222" stroke-width="1.1"/>
<ellipse cx="53.5" cy="74.0" rx="8.4" ry="5.2" transform="rotate(-16 53.5 74.0)" fill="#d2d2d2" stroke="#222" stroke-width="1.1"/>
<ellipse cx="67.8" cy="74.0" rx="7.6" ry="4.7" transform="rotate(-6 67.8 74.0)" fill="#d2d2d2" stroke="#222" stroke-width="1.1"/>
<ellipse cx="80.7" cy="74.0" rx="8.2" ry="5.1" transform="rotate(-10 80.7 74.0)" fill="#d2d2d2" stroke="#222" stroke-width="1.1"/></g>
<g transform="translate(0 84)"><ellipse cx="4.0" cy="7.0" rx="9.3" ry="5.8" transform="rotate(1 4.0 7.0)" fill="#d2d2d2" stroke="#222" stroke-width="1.1"/>
<ellipse cx="19.8" cy="7.0" rx="8.3" ry="5.1" transform="rotate(-9 19.8 7.0)" fill="#d2d2d2" stroke="#222" stroke-width="1.1"/>
<ellipse cx="34.0" cy="7.0" rx="8.0" ry="4.9" transform="rotate(-20 34.0 7.0)" fill="#d2d2d2" stroke="#222" stroke-width="1.1"/>
<ellipse cx="47.5" cy="7.0" rx="7.5" ry="4.6" transform="rotate(12 47.5 7.0)" fill="#d2d2d2" stroke="#222" stroke-width="1.1"/>
<ellipse cx="60.2" cy="7.0" rx="6.2" ry="3.9" transform="rotate(-2 60.2 7.0)" fill="#d2d2d2" stroke="#222" stroke-width="1.1"/>
<ellipse cx="70.8" cy="7.0" rx="9.1" ry="5.6" transform="rotate(15 70.8 7.0)" fill="#d2d2d2" stroke="#222" stroke-width="1.1"/>
<ellipse cx="86.2" cy="7.0" rx="9.9" ry="6.1" transform="rotate(-10 86.2 7.0)" fill="#d2d2d2" stroke="#222" stroke-width="1.1"/>
<ellipse cx="11.0" cy="22.0" rx="7.7" ry="4.8" transform="rotate(-15 11.0 22.0)" fill="#d2d2d2" stroke="#222" stroke-width="1.1"/>
<ellipse cx="24.1" cy="22.0" rx="8.9" ry="5.5" transform="rotate(14 24.1 22.0)" fill="#d2d2d2" stroke="#222" stroke-width="1.1"/>
<ellipse cx="39.2" cy="22.0" rx="7.9" ry="4.9" transform="rotate(-4 39.2 22.0)" fill="#d2d2d2" stroke="#222" stroke-width="1.1"/>
<ellipse cx="52.6" cy="22.0" rx="7.3" ry="4.5" transform="rotate(-3 52.6 22.0)" fill="#d2d2d2" stroke="#222" stroke-width="1.1"/>
<ellipse cx="65.0" cy="22.0" rx="7.7" ry="4.8" transform="rotate(-12 65.0 22.0)" fill="#d2d2d2" stroke="#222" stroke-width="1.1"/>
<ellipse cx="78.0" cy="22.0" rx="7.4" ry="4.6" transform="rotate(-9 78.0 22.0)" fill="#d2d2d2" stroke="#222" stroke-width="1.1"/>
<ellipse cx="4.0" cy="33.0" rx="9.6" ry="5.9" transform="rotate(0 4.0 33.0)" fill="#d2d2d2" stroke="#222" stroke-width="1.1"/>
<ellipse cx="20.2" cy="33.0" rx="7.7" ry="4.8" transform="rotate(11 20.2 33.0)" fill="#d2d2d2" stroke="#222" stroke-width="1.1"/>
<ellipse cx="33.3" cy="33.0" rx="6.5" ry="4.0" transform="rotate(-15 33.3 33.0)" fill="#d2d2d2" stroke="#222" stroke-width="1.1"/>
<ellipse cx="44.4" cy="33.0" rx="7.2" ry="4.5" transform="rotate(-6 44.4 33.0)" fill="#d2d2d2" stroke="#222" stroke-width="1.1"/>
<ellipse cx="56.7" cy="33.0" rx="6.6" ry="4.1" transform="rotate(-7 56.7 33.0)" fill="#d2d2d2" stroke="#222" stroke-width="1.1"/>
<ellipse cx="67.8" cy="33.0" rx="8.9" ry="5.5" transform="rotate(-13 67.8 33.0)" fill="#d2d2d2" stroke="#222" stroke-width="1.1"/>
<ellipse cx="83.0" cy="33.0" rx="9.9" ry="6.1" transform="rotate(-7 83.0 33.0)" fill="#d2d2d2" stroke="#222" stroke-width="1.1"/>
<ellipse cx="11.0" cy="48.0" rx="7.7" ry="4.8" transform="rotate(6 11.0 48.0)" fill="#d2d2d2" stroke="#222" stroke-width="1.1"/>
<ellipse cx="24.2" cy="48.0" rx="6.4" ry="4.0" transform="rotate(-13 24.2 48.0)" fill="#d2d2d2" stroke="#222" stroke-width="1.1"/>
<ellipse cx="35.1" cy="48.0" rx="7.5" ry="4.7" transform="rotate(13 35.1 48.0)" fill="#d2d2d2" stroke="#222" stroke-width="1.1"/>
<ellipse cx="47.9" cy="48.0" rx="9.5" ry="5.9" transform="rotate(-15 47.9 48.0)" fill="#d2d2d2" stroke="#222" stroke-width="1.1"/>
<ellipse cx="64.0" cy="48.0" rx="6.4" ry="3.9" transform="rotate(-9 64.0 48.0)" fill="#d2d2d2" stroke="#222" stroke-width="1.1"/>
<ellipse cx="74.9" cy="48.0" rx="9.4" ry="5.8" transform="rotate(-4 74.9 48.0)" fill="#d2d2d2" stroke="#222" stroke-width="1.1"/>
<ellipse cx="4.0" cy="59.0" rx="7.2" ry="4.4" transform="rotate(-5 4.0 59.0)" fill="#d2d2d2" stroke="#222" stroke-width="1.1"/>
<ellipse cx="16.2" cy="59.0" rx="6.6" ry="4.1" transform="rotate(19 16.2 59.0)" fill="#d2d2d2" stroke="#222" stroke-width="1.1"/>
<ellipse cx="27.4" cy="59.0" rx="8.6" ry="5.3" transform="rotate(-15 27.4 59.0)" fill="#d2d2d2" stroke="#222" stroke-width="1.1"/>
<ellipse cx="42.0" cy="59.0" rx="7.4" ry="4.6" transform="rotate(0 42.0 59.0)" fill="#d2d2d2" stroke="#222" stroke-width="1.1"/>
<ellipse cx="54.5" cy="59.0" rx="6.6" ry="4.1" transform="rotate(-6 54.5 59.0)" fill="#d2d2d2" stroke="#222" stroke-width="1.1"/>
<ellipse cx="65.8" cy="59.0" rx="9.0" ry="5.6" transform="rotate(20 65.8 59.0)" fill="#d2d2d2" stroke="#222" stroke-width="1.1"/>
<ellipse cx="81.1" cy="59.0" rx="6.2" ry="3.8" transform="rotate(6 81.1 59.0)" fill="#d2d2d2" stroke="#222" stroke-width="1.1"/>
<ellipse cx="11.0" cy="74.0" rx="8.4" ry="5.2" transform="rotate(-4 11.0 74.0)" fill="#d2d2d2" stroke="#222" stroke-width="1.1"/>
<ellipse cx="25.2" cy="74.0" rx="9.8" ry="6.1" transform="rotate(11 25.2 74.0)" fill="#d2d2d2" stroke="#222" stroke-width="1.1"/>
<ellipse cx="41.9" cy="74.0" rx="6.9" ry="4.3" transform="rotate(7 41.9 74.0)" fill="#d2d2d2" stroke="#222" stroke-width="1.1"/>
<ellipse cx="53.5" cy="74.0" rx="8.4" ry="5.2" transform="rotate(-16 53.5 74.0)" fill="#d2d2d2" stroke="#222" stroke-width="1.1"/>
<ellipse cx="67.8" cy="74.0" rx="7.6" ry="4.7" transform="rotate(-6 67.8 74.0)" fill="#d2d2d2" stroke="#222" stroke-width="1.1"/>
<ellipse cx="80.7" cy="74.0" rx="8.2" ry="5.1" transform="rotate(-10 80.7 74.0)" fill="#d2d2d2" stroke="#222" stroke-width="1.1"/></g>
<g transform="translate(84 -84)"><ellipse cx="4.0" cy="7.0" rx="9.3" ry="5.8" transform="rotate(1 4.0 7.0)" fill="#d2d2d2" stroke="#222" stroke-width="1.1"/>
<ellipse cx="19.8" cy="7.0" rx="8.3" ry="5.1" transform="rotate(-9 19.8 7.0)" fill="#d2d2d2" stroke="#222" stroke-width="1.1"/>
<ellipse cx="34.0" cy="7.0" rx="8.0" ry="4.9" transform="rotate(-20 34.0 7.0)" fill="#d2d2d2" stroke="#222" stroke-width="1.1"/>
<ellipse cx="47.5" cy="7.0" rx="7.5" ry="4.6" transform="rotate(12 47.5 7.0)" fill="#d2d2d2" stroke="#222" stroke-width="1.1"/>
<ellipse cx="60.2" cy="7.0" rx="6.2" ry="3.9" transform="rotate(-2 60.2 7.0)" fill="#d2d2d2" stroke="#222" stroke-width="1.1"/>
<ellipse cx="70.8" cy="7.0" rx="9.1" ry="5.6" transform="rotate(15 70.8 7.0)" fill="#d2d2d2" stroke="#222" stroke-width="1.1"/>
<ellipse cx="86.2" cy="7.0" rx="9.9" ry="6.1" transform="rotate(-10 86.2 7.0)" fill="#d2d2d2" stroke="#222" stroke-width="1.1"/>
<ellipse cx="11.0" cy="22.0" rx="7.7" ry="4.8" transform="rotate(-15 11.0 22.0)" fill="#d2d2d2" stroke="#222" stroke-width="1.1"/>
<ellipse cx="24.1" cy="22.0" rx="8.9" ry="5.5" transform="rotate(14 24.1 22.0)" fill="#d2d2d2" stroke="#222" stroke-width="1.1"/>
<ellipse cx="39.2" cy="22.0" rx="7.9" ry="4.9" transform="rotate(-4 39.2 22.0)" fill="#d2d2d2" stroke="#222" stroke-width="1.1"/>
<ellipse cx="52.6" cy="22.0" rx="7.3" ry="4.5" transform="rotate(-3 52.6 22.0)" fill="#d2d2d2" stroke="#222" stroke-width="1.1"/>
<ellipse cx="65.0" cy="22.0" rx="7.7" ry="4.8" transform="rotate(-12 65.0 22.0)" fill="#d2d2d2" stroke="#222" stroke-width="1.1"/>
<ellipse cx="78.0" cy="22.0" rx="7.4" ry="4.6" transform="rotate(-9 78.0 22.0)" fill="#d2d2d2" stroke="#222" stroke-width="1.1"/>
<ellipse cx="4.0" cy="33.0" rx="9.6" ry="5.9" transform="rotate(0 4.0 33.0)" fill="#d2d2d2" stroke="#222" stroke-width="1.1"/>
<ellipse cx="20.2" cy="33.0" rx="7.7" ry="4.8" transform="rotate(11 20.2 33.0)" fill="#d2d2d2" stroke="#222" stroke-width="1.1"/>
<ellipse cx="33.3" cy="33.0" rx="6.5" ry="4.0" transform="rotate(-15 33.3 33.0)" fill="#d2d2d2" stroke="#222" stroke-width="1.1"/>
<ellipse cx="44.4" cy="33.0" rx="7.2" ry="4.5" transform="rotate(-6 44.4 33.0)" fill="#d2d2d2" stroke="#222" stroke-width="1.1"/>
<ellipse cx="56.7" cy="33.0" rx="6.6" ry="4.1" transform="rotate(-7 56.7 33.0)" fill="#d2d2d2" stroke="#222" stroke-width="1.1"/>
<ellipse cx="67.8" cy="33.0" rx="8.9" ry="5.5" transform="rotate(-13 67.8 33.0)" fill="#d2d2d2" stroke="#222" stroke-width="1.1"/>
<ellipse cx="83.0" cy="33.0" rx="9.9" ry="6.1" transform="rotate(-7 83.0 33.0)" fill="#d2d2d2" stroke="#222" stroke-width="1.1"/>
<ellipse cx="11.0" cy="48.0" rx="7.7" ry="4.8" transform="rotate(6 11.0 48.0)" fill="#d2d2d2" stroke="#222" stroke-width="1.1"/>
<ellipse cx="24.2" cy="48.0" rx="6.4" ry="4.0" transform="rotate(-13 24.2 48.0)" fill="#d2d2d2" stroke="#222" stroke-width="1.1"/>
<ellipse cx="35.1" cy="48.0" rx="7.5" ry="4.7" transform="rotate(13 35.1 48.0)" fill="#d2d2d2" stroke="#222" stroke-width="1.1"/>
<ellipse cx="47.9" cy="48.0" rx="9.5" ry="5.9" transform="rotate(-15 47.9 48.0)" fill="#d2d2d2" stroke="#222" stroke-width="1.1"/>
<ellipse cx="64.0" cy="48.0" rx="6.4" ry="3.9" transform="rotate(-9 64.0 48.0)" fill="#d2d2d2" stroke="#222" stroke-width="1.1"/>
<ellipse cx="74.9" cy="48.0" rx="9.4" ry="5.8" transform="rotate(-4 74.9 48.0)" fill="#d2d2d2" stroke="#222" stroke-width="1.1"/>
<ellipse cx="4.0" cy="59.0" rx="7.2" ry="4.4" transform="rotate(-5 4.0 59.0)" fill="#d2d2d2" stroke="#222" stroke-width="1.1"/>
<ellipse cx="16.2" cy="59.0" rx="6.6" ry="4.1" transform="rotate(19 16.2 59.0)" fill="#d2d2d2" stroke="#222" stroke-width="1.1"/>
<ellipse cx="27.4" cy="59.0" rx="8.6" ry="5.3" transform="rotate(-15 27.4 59.0)" fill="#d2d2d2" stroke="#222" stroke-width="1.1"/>
<ellipse cx="42.0" cy="59.0" rx="7.4" ry="4.6" transform="rotate(0 42.0 59.0)" fill="#d2d2d2" stroke="#222" stroke-width="1.1"/>
<ellipse cx="54.5" cy="59.0" rx="6.6" ry="4.1" transform="rotate(-6 54.5 59.0)" fill="#d2d2d2" stroke="#222" stroke-width="1.1"/>
<ellipse cx="65.8" cy="59.0" rx="9.0" ry="5.6" transform="rotate(20 65.8 59.0)" fill="#d2d2d2" stroke="#222" stroke-width="1.1"/>
<ellipse cx="81.1" cy="59.0" rx="6.2" ry="3.8" transform="rotate(6 81.1 59.0)" fill="#d2d2d2" stroke="#222" stroke-width="1.1"/>
<ellipse cx="11.0" cy="74.0" rx="8.4" ry="5.2" transform="rotate(-4 11.0 74.0)" fill="#d2d2d2" stroke="#222" stroke-width="1.1"/>
<ellipse cx="25.2" cy="74.0" rx="9.8" ry="6.1" transform="rotate(11 25.2 74.0)" fill="#d2d2d2" stroke="#222" stroke-width="1.1"/>
<ellipse cx="41.9" cy="74.0" rx="6.9" ry="4.3" transform="rotate(7 41.9 74.0)" fill="#d2d2d2" stroke="#222" stroke-width="1.1"/>
<ellipse cx="53.5" cy="74.0" rx="8.4" ry="5.2" transform="rotate(-16 53.5 74.0)" fill="#d2d2d2" stroke="#222" stroke-width="1.1"/>
<ellipse cx="67.8" cy="74.0" rx="7.6" ry="4.7" transform="rotate(-6 67.8 74.0)" fill="#d2d2d2" stroke="#222" stroke-width="1.1"/>
<ellipse cx="80.7" cy="74.0" rx="8.2" ry="5.1" transform="rotate(-10 80.7 74.0)" fill="#d2d2d2" stroke="#222" stroke-width="1.1"/></g>
<g transform="translate(84 0)"><ellipse cx="4.0" cy="7.0" rx="9.3" ry="5.8" transform="rotate(1 4.0 7.0)" fill="#d2d2d2" stroke="#222" stroke-width="1.1"/>
<ellipse cx="19.8" cy="7.0" rx="8.3" ry="5.1" transform="rotate(-9 19.8 7.0)" fill="#d2d2d2" stroke="#222" stroke-width="1.1"/>
<ellipse cx="34.0" cy="7.0" rx="8.0" ry="4.9" transform="rotate(-20 34.0 7.0)" fill="#d2d2d2" stroke="#222" stroke-width="1.1"/>
<ellipse cx="47.5" cy="7.0" rx="7.5" ry="4.6" transform="rotate(12 47.5 7.0)" fill="#d2d2d2" stroke="#222" stroke-width="1.1"/>
<ellipse cx="60.2" cy="7.0" rx="6.2" ry="3.9" transform="rotate(-2 60.2 7.0)" fill="#d2d2d2" stroke="#222" stroke-width="1.1"/>
<ellipse cx="70.8" cy="7.0" rx="9.1" ry="5.6" transform="rotate(15 70.8 7.0)" fill="#d2d2d2" stroke="#222" stroke-width="1.1"/>
<ellipse cx="86.2" cy="7.0" rx="9.9" ry="6.1" transform="rotate(-10 86.2 7.0)" fill="#d2d2d2" stroke="#222" stroke-width="1.1"/>
<ellipse cx="11.0" cy="22.0" rx="7.7" ry="4.8" transform="rotate(-15 11.0 22.0)" fill="#d2d2d2" stroke="#222" stroke-width="1.1"/>
<ellipse cx="24.1" cy="22.0" rx="8.9" ry="5.5" transform="rotate(14 24.1 22.0)" fill="#d2d2d2" stroke="#222" stroke-width="1.1"/>
<ellipse cx="39.2" cy="22.0" rx="7.9" ry="4.9" transform="rotate(-4 39.2 22.0)" fill="#d2d2d2" stroke="#222" stroke-width="1.1"/>
<ellipse cx="52.6" cy="22.0" rx="7.3" ry="4.5" transform="rotate(-3 52.6 22.0)" fill="#d2d2d2" stroke="#222" stroke-width="1.1"/>
<ellipse cx="65.0" cy="22.0" rx="7.7" ry="4.8" transform="rotate(-12 65.0 22.0)" fill="#d2d2d2" stroke="#222" stroke-width="1.1"/>
<ellipse cx="78.0" cy="22.0" rx="7.4" ry="4.6" transform="rotate(-9 78.0 22.0)" fill="#d2d2d2" stroke="#222" stroke-width="1.1"/>
<ellipse cx="4.0" cy="33.0" rx="9.6" ry="5.9" transform="rotate(0 4.0 33.0)" fill="#d2d2d2" stroke="#222" stroke-width="1.1"/>
<ellipse cx="20.2" cy="33.0" rx="7.7" ry="4.8" transform="rotate(11 20.2 33.0)" fill="#d2d2d2" stroke="#222" stroke-width="1.1"/>
<ellipse cx="33.3" cy="33.0" rx="6.5" ry="4.0" transform="rotate(-15 33.3 33.0)" fill="#d2d2d2" stroke="#222" stroke-width="1.1"/>
<ellipse cx="44.4" cy="33.0" rx="7.2" ry="4.5" transform="rotate(-6 44.4 33.0)" fill="#d2d2d2" stroke="#222" stroke-width="1.1"/>
<ellipse cx="56.7" cy="33.0" rx="6.6" ry="4.1" transform="rotate(-7 56.7 33.0)" fill="#d2d2d2" stroke="#222" stroke-width="1.1"/>
<ellipse cx="67.8" cy="33.0" rx="8.9" ry="5.5" transform="rotate(-13 67.8 33.0)" fill="#d2d2d2" stroke="#222" stroke-width="1.1"/>
<ellipse cx="83.0" cy="33.0" rx="9.9" ry="6.1" transform="rotate(-7 83.0 33.0)" fill="#d2d2d2" stroke="#222" stroke-width="1.1"/>
<ellipse cx="11.0" cy="48.0" rx="7.7" ry="4.8" transform="rotate(6 11.0 48.0)" fill="#d2d2d2" stroke="#222" stroke-width="1.1"/>
<ellipse cx="24.2" cy="48.0" rx="6.4" ry="4.0" transform="rotate(-13 24.2 48.0)" fill="#d2d2d2" stroke="#222" stroke-width="1.1"/>
<ellipse cx="35.1" cy="48.0" rx="7.5" ry="4.7" transform="rotate(13 35.1 48.0)" fill="#d2d2d2" stroke="#222" stroke-width="1.1"/>
<ellipse cx="47.9" cy="48.0" rx="9.5" ry="5.9" transform="rotate(-15 47.9 48.0)" fill="#d2d2d2" stroke="#222" stroke-width="1.1"/>
<ellipse cx="64.0" cy="48.0" rx="6.4" ry="3.9" transform="rotate(-9 64.0 48.0)" fill="#d2d2d2" stroke="#222" stroke-width="1.1"/>
<ellipse cx="74.9" cy="48.0" rx="9.4" ry="5.8" transform="rotate(-4 74.9 48.0)" fill="#d2d2d2" stroke="#222" stroke-width="1.1"/>
<ellipse cx="4.0" cy="59.0" rx="7.2" ry="4.4" transform="rotate(-5 4.0 59.0)" fill="#d2d2d2" stroke="#222" stroke-width="1.1"/>
<ellipse cx="16.2" cy="59.0" rx="6.6" ry="4.1" transform="rotate(19 16.2 59.0)" fill="#d2d2d2" stroke="#222" stroke-width="1.1"/>
<ellipse cx="27.4" cy="59.0" rx="8.6" ry="5.3" transform="rotate(-15 27.4 59.0)" fill="#d2d2d2" stroke="#222" stroke-width="1.1"/>
<ellipse cx="42.0" cy="59.0" rx="7.4" ry="4.6" transform="rotate(0 42.0 59.0)" fill="#d2d2d2" stroke="#222" stroke-width="1.1"/>
<ellipse cx="54.5" cy="59.0" rx="6.6" ry="4.1" transform="rotate(-6 54.5 59.0)" fill="#d2d2d2" stroke="#222" stroke-width="1.1"/>
<ellipse cx="65.8" cy="59.0" rx="9.0" ry="5.6" transform="rotate(20 65.8 59.0)" fill="#d2d2d2" stroke="#222" stroke-width="1.1"/>
<ellipse cx="81.1" cy="59.0" rx="6.2" ry="3.8" transform="rotate(6 81.1 59.0)" fill="#d2d2d2" stroke="#222" stroke-width="1.1"/>
<ellipse cx="11.0" cy="74.0" rx="8.4" ry="5.2" transform="rotate(-4 11.0 74.0)" fill="#d2d2d2" stroke="#222" stroke-width="1.1"/>
<ellipse cx="25.2" cy="74.0" rx="9.8" ry="6.1" transform="rotate(11 25.2 74.0)" fill="#d2d2d2" stroke="#222" stroke-width="1.1"/>
<ellipse cx="41.9" cy="74.0" rx="6.9" ry="4.3" transform="rotate(7 41.9 74.0)" fill="#d2d2d2" stroke="#222" stroke-width="1.1"/>
<ellipse cx="53.5" cy="74.0" rx="8.4" ry="5.2" transform="rotate(-16 53.5 74.0)" fill="#d2d2d2" stroke="#222" stroke-width="1.1"/>
<ellipse cx="67.8" cy="74.0" rx="7.6" ry="4.7" transform="rotate(-6 67.8 74.0)" fill="#d2d2d2" stroke="#222" stroke-width="1.1"/>
<ellipse cx="80.7" cy="74.0" rx="8.2" ry="5.1" transform="rotate(-10 80.7 74.0)" fill="#d2d2d2" stroke="#222" stroke-width="1.1"/></g>
<g transform="translate(84 84)"><ellipse cx="4.0" cy="7.0" rx="9.3" ry="5.8" transform="rotate(1 4.0 7.0)" fill="#d2d2d2" stroke="#222" stroke-width="1.1"/>
<ellipse cx="19.8" cy="7.0" rx="8.3" ry="5.1" transform="rotate(-9 19.8 7.0)" fill="#d2d2d2" stroke="#222" stroke-width="1.1"/>
<ellipse cx="34.0" cy="7.0" rx="8.0" ry="4.9" transform="rotate(-20 34.0 7.0)" fill="#d2d2d2" stroke="#222" stroke-width="1.1"/>
<ellipse cx="47.5" cy="7.0" rx="7.5" ry="4.6" transform="rotate(12 47.5 7.0)" fill="#d2d2d2" stroke="#222" stroke-width="1.1"/>
<ellipse cx="60.2" cy="7.0" rx="6.2" ry="3.9" transform="rotate(-2 60.2 7.0)" fill="#d2d2d2" stroke="#222" stroke-width="1.1"/>
<ellipse cx="70.8" cy="7.0" rx="9.1" ry="5.6" transform="rotate(15 70.8 7.0)" fill="#d2d2d2" stroke="#222" stroke-width="1.1"/>
<ellipse cx="86.2" cy="7.0" rx="9.9" ry="6.1" transform="rotate(-10 86.2 7.0)" fill="#d2d2d2" stroke="#222" stroke-width="1.1"/>
<ellipse cx="11.0" cy="22.0" rx="7.7" ry="4.8" transform="rotate(-15 11.0 22.0)" fill="#d2d2d2" stroke="#222" stroke-width="1.1"/>
<ellipse cx="24.1" cy="22.0" rx="8.9" ry="5.5" transform="rotate(14 24.1 22.0)" fill="#d2d2d2" stroke="#222" stroke-width="1.1"/>
<ellipse cx="39.2" cy="22.0" rx="7.9" ry="4.9" transform="rotate(-4 39.2 22.0)" fill="#d2d2d2" stroke="#222" stroke-width="1.1"/>
<ellipse cx="52.6" cy="22.0" rx="7.3" ry="4.5" transform="rotate(-3 52.6 22.0)" fill="#d2d2d2" stroke="#222" stroke-width="1.1"/>
<ellipse cx="65.0" cy="22.0" rx="7.7" ry="4.8" transform="rotate(-12 65.0 22.0)" fill="#d2d2d2" stroke="#222" stroke-width="1.1"/>
<ellipse cx="78.0" cy="22.0" rx="7.4" ry="4.6" transform="rotate(-9 78.0 22.0)" fill="#d2d2d2" stroke="#222" stroke-width="1.1"/>
<ellipse cx="4.0" cy="33.0" rx="9.6" ry="5.9" transform="rotate(0 4.0 33.0)" fill="#d2d2d2" stroke="#222" stroke-width="1.1"/>
<ellipse cx="20.2" cy="33.0" rx="7.7" ry="4.8" transform="rotate(11 20.2 33.0)" fill="#d2d2d2" stroke="#222" stroke-width="1.1"/>
<ellipse cx="33.3" cy="33.0" rx="6.5" ry="4.0" transform="rotate(-15 33.3 33.0)" fill="#d2d2d2" stroke="#222" stroke-width="1.1"/>
<ellipse cx="44.4" cy="33.0" rx="7.2" ry="4.5" transform="rotate(-6 44.4 33.0)" fill="#d2d2d2" stroke="#222" stroke-width="1.1"/>
<ellipse cx="56.7" cy="33.0" rx="6.6" ry="4.1" transform="rotate(-7 56.7 33.0)" fill="#d2d2d2" stroke="#222" stroke-width="1.1"/>
<ellipse cx="67.8" cy="33.0" rx="8.9" ry="5.5" transform="rotate(-13 67.8 33.0)" fill="#d2d2d2" stroke="#222" stroke-width="1.1"/>
<ellipse cx="83.0" cy="33.0" rx="9.9" ry="6.1" transform="rotate(-7 83.0 33.0)" fill="#d2d2d2" stroke="#222" stroke-width="1.1"/>
<ellipse cx="11.0" cy="48.0" rx="7.7" ry="4.8" transform="rotate(6 11.0 48.0)" fill="#d2d2d2" stroke="#222" stroke-width="1.1"/>
<ellipse cx="24.2" cy="48.0" rx="6.4" ry="4.0" transform="rotate(-13 24.2 48.0)" fill="#d2d2d2" stroke="#222" stroke-width="1.1"/>
<ellipse cx="35.1" cy="48.0" rx="7.5" ry="4.7" transform="rotate(13 35.1 48.0)" fill="#d2d2d2" stroke="#222" stroke-width="1.1"/>
<ellipse cx="47.9" cy="48.0" rx="9.5" ry="5.9" transform="rotate(-15 47.9 48.0)" fill="#d2d2d2" stroke="#222" stroke-width="1.1"/>
<ellipse cx="64.0" cy="48.0" rx="6.4" ry="3.9" transform="rotate(-9 64.0 48.0)" fill="#d2d2d2" stroke="#222" stroke-width="1.1"/>
<ellipse cx="74.9" cy="48.0" rx="9.4" ry="5.8" transform="rotate(-4 74.9 48.0)" fill="#d2d2d2" stroke="#222" stroke-width="1.1"/>
<ellipse cx="4.0" cy="59.0" rx="7.2" ry="4.4" transform="rotate(-5 4.0 59.0)" fill="#d2d2d2" stroke="#222" stroke-width="1.1"/>
<ellipse cx="16.2" cy="59.0" rx="6.6" ry="4.1" transform="rotate(19 16.2 59.0)" fill="#d2d2d2" stroke="#222" stroke-width="1.1"/>
<ellipse cx="27.4" cy="59.0" rx="8.6" ry="5.3" transform="rotate(-15 27.4 59.0)" fill="#d2d2d2" stroke="#222" stroke-width="1.1"/>
<ellipse cx="42.0" cy="59.0" rx="7.4" ry="4.6" transform="rotate(0 42.0 59.0)" fill="#d2d2d2" stroke="#222" stroke-width="1.1"/>
<ellipse cx="54.5" cy="59.0" rx="6.6" ry="4.1" transform="rotate(-6 54.5 59.0)" fill="#d2d2d2" stroke="#222" stroke-width="1.1"/>
<ellipse cx="65.8" cy="59.0" rx="9.0" ry="5.6" transform="rotate(20 65.8 59.0)" fill="#d2d2d2" stroke="#222" stroke-width="1.1"/>
<ellipse cx="81.1" cy="59.0" rx="6.2" ry="3.8" transform="rotate(6 81.1 59.0)" fill="#d2d2d2" stroke="#222" stroke-width="1.1"/>
<ellipse cx="11.0" cy="74.0" rx="8.4" ry="5.2" transform="rotate(-4 11.0 74.0)" fill="#d2d2d2" stroke="#222" stroke-width="1.1"/>
<ellipse cx="25.2" cy="74.0" rx="9.8" ry="6.1" transform="rotate(11 25.2 74.0)" fill="#d2d2d2" stroke="#222" stroke-width="1.1"/>
<ellipse cx="41.9" cy="74.0" rx="6.9" ry="4.3" transform="rotate(7 41.9 74.0)" fill="#d2d2d2" stroke="#222" stroke-width="1.1"/>
<ellipse cx="53.5" cy="74.0" rx="8.4" ry="5.2" transform="rotate(-16 53.5 74.0)" fill="#d2d2d2" stroke="#222" stroke-width="1.1"/>
<ellipse cx="67.8" cy="74.0" rx="7.6" ry="4.7" transform="rotate(-6 67.8 74.0)" fill="#d2d2d2" stroke="#222" stroke-width="1.1"/>
<ellipse cx="80.7" cy="74.0" rx="8.2" ry="5.1" transform="rotate(-10 80.7 74.0)" fill="#d2d2d2" stroke="#222" stroke-width="1.1"/></g></pattern></defs>
<rect width="120" height="120" fill="url(#pat_Gh)" stroke="black" stroke-width="1"/>
</svg>
