<svg xmlns="http://www.w3.org/2000/svg" width="120" height="120" viewBox="0 0 120 120">
<defs><clipPath id="clip88"><rect width="88" height="88"/></clipPath><pattern id="pat_Gms" patternUnits="userSpaceOnUse" width="88" height="88"><rect width="88" height="88" fill="white"/><g transform="translate(-88 -88)"><circle cx="43.6" cy="13.2" r="0.85" fill="#3a3a3a"/>
<circle cx="77.4" cy="80.8" r="0.71" fill="#3a3a3a"/>
<circle cx="10.3" cy="18.2" r="0.73" fill="#3a3a3a"/>
<circle cx="10.5" cy="5.5" r="0.94" fill="#3a3a3a"/>
<circle cx="44.3" cy="53.0" r="0.99" fill="#3a3a3a"/>
<circle cx="69.6" cy="58.3" r="0.91" fill="#3a3a3a"/>
<circle cx="38.1" cy="75.1" r="0.95" fill="#3a3a3a"/>
<circle cx="73.6" cy="15.7" r="0.81" fill="#3a3a3a"/>
<circle cx="77.7" cy="86.0" r="0.84" fill="#3a3a3a"/>
<circle cx="49.3" cy="27.2" r="0.65" fill="#3a3a3a"/>
<circle cx="17.3" cy="30.9" r="0.63" fill="#3a3a3a"/>
<circle cx="54.0" cy="34.2" r="0.83" fill="#3a3a3a"/>
<circle cx="30.6" cy="10.7" r="0.96" fill="#3a3a3a"/>
<circle cx="31.1" cy="17.0" r="0.92" fill="#3a3a3a"/>
<circle cx="69.7" cy="3.5" r="0.68" fill="#3a3a3a"/>
<circle cx="18.6" cy="54.6" r="0.62" fill="#3a3a3a"/>
<circle cx="75.5" cy="0.9" r="0.75" fill="#3a3a3a"/>
<circle cx="2.9" cy="55.3" r="1.07" fill="#3a3a3a"/>
<circle cx="40.8" cy="59.0" r="1.03" fill="#3a3a3a"/>
<circle cx="80.4" cy="7.9" r="0.82" fill="#3a3a3a"/>
<circle cx="47.4" cy="85.8" r="0.96" fill="#3a3a3a"/>
<circle cx="77.0" cy="52.9" r="0.97" fill="#3a3a3a"/>
<circle cx="1.8" cy="77.5" r="1.09" fill="#3a3a3a"/>
<circle cx="76.2" cy="20.9" r="1.05" fill="#3a3a3a"/>
<circle cx="48.7" cy="22.0" r="0.83" fill="#3a3a3a"/>
<circle cx="79.6" cy="40.9" r="0.99" fill="#3a3a3a"/>
<circle cx="68.2" cy="31.8" r="0.79" fill="#3a3a3a"/>
<circle cx="20.0" cy="73.4" r="0.94" fill="#3a3a3a"/>
<circle cx="5.6" cy="17.8" r="1.07" fill="#3a3a3a"/>
<circle cx="43.5" cy="10.5" r="0.85" fill="#3a3a3a"/>
<circle cx="10.9" cy="20.3" r="1.00" fill="#3a3a3a"/>
<circle cx="56.2" cy="36.0" r="0.87" fill="#3a3a3a"/>
<circle cx="33.9" cy="63.0" r="0.70" fill="#3a3a3a"/>
<circle cx="84.3" cy="10.5" r="0.75" fill="#3a3a3a"/>
<circle cx="83.0" cy="83.0" r="0.70" fill="#3a3a3a"/>
<circle cx="83.3" cy="50.3" r="0.97" fill="#3a3a3a"/>
<circle cx="13.7" cy="33.9" r="0.77" fill="#3a3a3a"/>
<circle cx="60.6" cy="72.4" r="1.02" fill="#3a3a3a"/>
<circle cx="44.9" cy="2.3" r="1.04" fill="#3a3a3a"/>
<circle cx="74.8" cy="86.3" r="1.00" fill="#3a3a3a"/>
<circle cx="30.6" cy="69.1" r="0.78" fill="#3a3a3a"/>
<circle cx="48.7" cy="6.5" r="0.76" fill="#3a3a3a"/>
<circle cx="83.3" cy="58.0" r="1.04" fill="#3a3a3a"/>
<circle cx="82.8" cy="60.6" r="0.67" fill="#3a3a3a"/>
<circle cx="6.7" cy="62.7" r="1.01" fill="#3a3a3a"/>
<circle cx="18.6" cy="72.1" r="0.70" fill="#3a3a3a"/><ellipse cx="80.5" cy="55.7" rx="4.0" ry="2.5" transform="rotate(26 80.5 55.7)" fill="#d2d2d2" stroke="#222" stroke-width="1.1"/>
<ellipse cx="12.5" cy="41.7" rx="4.0" ry="2.5" transform="rotate(23 12.5 41.7)" fill="#d2d2d2" stroke="#222" stroke-width="1.1"/>
<ellipse cx="59.8" cy="28.9" rx="4.6" ry="2.8" transform="rotate(-20 59.8 28.9)" fill="#d2d2d2" stroke="#222" stroke-width="1.1"/>
<ellipse cx="53.1" cy="18.6" rx="4.6" ry="2.9" transform="rotate(25 53.1 18.6)" fill="#d2d2d2" stroke="#222" stroke-width="1.1"/>
<polygon points="86.3,80.2 83.7,84.2 79.2,82.5 78.2,77.0 83.7,76.2" fill="#d2d2d2" stroke="#222" stroke-width="1.1"/>
<polygon points="36.6,40.1 34.1,44.6 29.1,43.3 26.6,39.0 30.2,35.8 35.0,35.3" fill="#d2d2d2" stroke="#222" stroke-width="1.1"/>
<ellipse cx="32.8" cy="85.1" rx="5.3" ry="3.3" transform="rotate(15 32.8 85.1)" fill="#d2d2d2" stroke="#222" stroke-width="1.1"/>
<polygon points="88.0,15.4 86.6,20.2 82.5,22.4 78.2,20.6 75.8,15.9 79.3,11.6 84.0,13.0" fill="#d2d2d2" stroke="#222" stroke-width="1.1"/>
<ellipse cx="17.1" cy="78.1" rx="7.3" ry="4.5" transform="rotate(-22 17.1 78.1)" fill="#d2d2d2" stroke="#222" stroke-width="1.1"/>
<polygon points="11.8,69.2 5.9,76.0 0.1,69.4 1.5,62.1 10.4,60.4" fill="#d2d2d2" stroke="#222" stroke-width="1.1"/>
<ellipse cx="26.9" cy="61.9" rx="8.8" ry="5.5" transform="rotate(15 26.9 61.9)" fill="#d2d2d2" stroke="#222" stroke-width="1.1"/>
<ellipse cx="16.3" cy="79.2" rx="9.7" ry="6.0" transform="rotate(28 16.3 79.2)" fill="#d2d2d2" stroke="#222" stroke-width="1.1"/>
<ellipse cx="20.7" cy="18.7" rx="9.7" ry="6.0" transform="rotate(-19 20.7 18.7)" fill="#d2d2d2" stroke="#222" stroke-width="1.1"/></g>
<g transform="translate(-88 0)"><circle cx="43.6" cy="13.2" r="0.85" fill="#3a3a3a"/>
<circle cx="77.4" cy="80.8" r="0.71" fill="#3a3a3a"/>
<circle cx="10.3" cy="18.2" r="0.73" fill="#3a3a3a"/>
<circle cx="10.5" cy="5.5" r="0.94" fill="#3a3a3a"/>
<circle cx="44.3" cy="53.0" r="0.99" fill="#3a3a3a"/>
<circle cx="69.6" cy="58.3" r="0.91" fill="#3a3a3a"/>
<circle cx="38.1" cy="75.1" r="0.95" fill="#3a3a3a"/>
<circle cx="73.6" cy="15.7" r="0.81" fill="#3a3a3a"/>
<circle cx="77.7" cy="86.0" r="0.84" fill="#3a3a3a"/>
<circle cx="49.3" cy="27.2" r="0.65" fill="#3a3a3a"/>
<circle cx="17.3" cy="30.9" r="0.63" fill="#3a3a3a"/>
<circle cx="54.0" cy="34.2" r="0.83" fill="#3a3a3a"/>
<circle cx="30.6" cy="10.7" r="0.96" fill="#3a3a3a"/>
<circle cx="31.1" cy="17.0" r="0.92" fill="#3a3a3a"/>
<circle cx="69.7" cy="3.5" r="0.68" fill="#3a3a3a"/>
<circle cx="18.6" cy="54.6" r="0.62" fill="#3a3a3a"/>
<circle cx="75.5" cy="0.9" r="0.75" fill="#3a3a3a"/>
<circle cx="2.9" cy="55.3" r="1.07" fill="#3a3a3a"/>
<circle cx="40.8" cy="59.0" r="1.03" fill="#3a3a3a"/>
<circle cx="80.4" cy="7.9" r="0.82" fill="#3a3a3a"/>
<circle cx="47.4" cy="85.8" r="0.96" fill="#3a3a3a"/>
<circle cx="77.0" cy="52.9" r="0.97" fill="#3a3a3a"/>
<circle cx="1.8" cy="77.5" r="1.09" fill="#3a3a3a"/>
<circle cx="76.2" cy="20.9" r="1.05" fill="#3a3a3a"/>
<circle cx="48.7" cy="22.0" r="0.83" fill="#3a3a3a"/>
<circle cx="79.6" cy="40.9" r="0.99" fill="#3a3a3a"/>
<circle cx="68.2" cy="31.8" r="0.79" fill="#3a3a3a"/>
<circle cx="20.0" cy="73.4" r="0.94" fill="#3a3a3a"/>
<circle cx="5.6" cy="17.8" r="1.07" fill="#3a3a3a"/>
<circle cx="43.5" cy="10.5" r="0.85" fill="#3a3a3a"/>
<circle cx="10.9" cy="20.3" r="1.00" fill="#3a3a3a"/>
<circle cx="56.2" cy="36.0" r="0.87" fill="#3a3a3a"/>
<circle cx="33.9" cy="63.0" r="0.70" fill="#3a3a3a"/>
<circle cx="84.3" cy="10.5" r="0.75" fill="#3a3a3a"/>
<circle cx="83.0" cy="83.0" r="0.70" fill="#3a3a3a"/>
<circle cx="83.3" cy="50.3" r="0.97" fill="#3a3a3a"/>
<circle cx="13.7" cy="33.9" r="0.77" fill="#3a3a3a"/>
<circle cx="60.6" cy="72.4" r="1.02" fill="#3a3a3a"/>
<circle cx="44.9" cy="2.3" r="1.04" fill="#3a3a3a"/>
<circle cx="74.8" cy="86.3" r="1.00" fill="#3a3a3a"/>
<circle cx="30.6" cy="69.1" r="0.78" fill="#3a3a3a"/>
<circle cx="48.7" cy="6.5" r="0.76" fill="#3a3a3a"/>
<circle cx="83.3" cy="58.0" r="1.04" fill="#3a3a3a"/>
<circle cx="82.8" cy="60.6" r="0.67" fill="#3a3a3a"/>
<circle cx="6.7" cy="62.7" r="1.01" fill="#3a3a3a"/>
<circle cx="18.6" cy="72.1" r="0.70" fill="#3a3a3a"/><ellipse cx="80.5" cy="55.7" rx="4.0" ry="2.5" transform="rotate(26 80.5 55.7)" fill="#d2d2d2" stroke="#222" stroke-width="1.1"/>
<ellipse cx="12.5" cy="41.7" rx="4.0" ry="2.5" transform="rotate(23 12.5 41.7)" fill="#d2d2d2" stroke="#222" stroke-width="1.1"/>
<ellipse cx="59.8" cy="28.9" rx="4.6" ry="2.8" transform="rotate(-20 59.8 28.9)" fill="#d2d2d2" stroke="#222" stroke-width="1.1"/>
<ellipse cx="53.1" cy="18.6" rx="4.6" ry="2.9" transform="rotate(25 53.1 18.6)" fill="#d2d2d2" stroke="#222" stroke-width="1.1"/>
<polygon points="86.3,80.2 83.7,84.2 79.2,82.5 78.2,77.0 83.7,76.2" fill="#d2d2d2" stroke="#222" stroke-width="1.1"/>
<polygon points="36.6,40.1 34.1,44.6 29.1,43.3 26.6,39.0 30.2,35.8 35.0,35.3" fill="#d2d2d2" stroke="#222" stroke-width="1.1"/>
<ellipse cx="32.8" cy="85.1" rx="5.3" ry="3.3" transform="rotate(15 32.8 85.1)" fill="#d2d2d2" stroke="#222" stroke-width="1.1"/>
<polygon points="88.0,15.4 86.6,20.2 82.5,22.4 78.2,20.6 75.8,15.9 79.3,11.6 84.0,13.0" fill="#d2d2d2" stroke="#222" stroke-width="1.1"/>
<ellipse cx="17.1" cy="78.1" rx="7.3" ry="4.5" transform="rotate(-22 17.1 78.1)" fill="#d2d2d2" stroke="#222" stroke-width="1.1"/>
<polygon points="11.8,69.2 5.9,76.0 0.1,69.4 1.5,62.1 10.4,60.4" fill="#d2d2d2" stroke="#222" stroke-width="1.1"/>
<ellipse cx="26.9" cy="61.9" rx="8.8" ry="5.5" transform="rotate(15 26.9 61.9)" fill="#d2d2d2" stroke="#222" stroke-width="1.1"/>
<ellipse cx="16.3" cy="79.2" rx="9.7" ry="6.0" transform="rotate(28 16.3 79.2)" fill="#d2d2d2" stroke="#222" stroke-width="1.1"/>
<ellipse cx="20.7" cy="18.7" rx="9.7" ry="6.0" transform="rotate(-19 20.7 18.7)" fill="#d2d2d2" stroke="#222" stroke-width="1.1"/></g>
<g transform="translate(-88 88)"><circle cx="43.6" cy="13.2" r="0.85" fill="#3a3a3a"/>
<circle cx="77.4" cy="80.8" r="0.71" fill="#3a3a3a"/>
<circle cx="10.3" cy="18.2" r="0.73" fill="#3a3a3a"/>
<circle cx="10.5" cy="5.5" r="0.94" fill="#3a3a3a"/>
<circle cx="44.3" cy="53.0" r="0.99" fill="#3a3a3a"/>
<circle cx="69.6" cy="58.3" r="0.91" fill="#3a3a3a"/>
<circle cx="38.1" cy="75.1" r="0.95" fill="#3a3a3a"/>
<circle cx="73.6" cy="15.7" r="0.81" fill="#3a3a3a"/>
<circle cx="77.7" cy="86.0" r="0.84" fill="#3a3a3a"/>
<circle cx="49.3" cy="27.2" r="0.65" fill="#3a3a3a"/>
<circle cx="17.3" cy="30.9" r="0.63" fill="#3a3a3a"/>
<circle cx="54.0" cy="34.2" r="0.83" fill="#3a3a3a"/>
<circle cx="30.6" cy="10.7" r="0.96" fill="#3a3a3a"/>
<circle cx="31.1" cy="17.0" r="0.92" fill="#3a3a3a"/>
<circle cx="69.7" cy="3.5" r="0.68" fill="#3a3a3a"/>
<circle cx="18.6" cy="54.6" r="0.62" fill="#3a3a3a"/>
<circle cx="75.5" cy="0.9" r="0.75" fill="#3a3a3a"/>
<circle cx="2.9" cy="55.3" r="1.07" fill="#3a3a3a"/>
<circle cx="40.8" cy="59.0" r="1.03" fill="#3a3a3a"/>
<circle cx="80.4" cy="7.9" r="0.82" fill="#3a3a3a"/>
<circle cx="47.4" cy="85.8" r="0.96" fill="#3a3a3a"/>
<circle cx="77.0" cy="52.9" r="0.97" fill="#3a3a3a"/>
<circle cx="1.8" cy="77.5" r="1.09" fill="#3a3a3a"/>
<circle cx="76.2" cy="20.9" r="1.05" fill="#3a3a3a"/>
<circle cx="48.7" cy="22.0" r="0.83" fill="#3a3a3a"/>
<circle cx="79.6" cy="40.9" r="0.99" fill="#3a3a3a"/>
<circle cx="68.2" cy="31.8" r="0.79" fill="#3a3a3a"/>
<circle cx="20.0" cy="73.4" r="0.94" fill="#3a3a3a"/>
<circle cx="5.6" cy="17.8" r="1.07" fill="#3a3a3a"/>
<circle cx="43.5" cy="10.5" r="0.85" fill="#3a3a3a"/>
<circle cx="10.9" cy="20.3" r="1.00" fill="#3a3a3a"/>
<circle cx="56.2" cy="36.0" r="0.87" fill="#3a3a3a"/>
<circle cx="33.9" cy="63.0" r="0.70" fill="#3a3a3a"/>
<circle cx="84.3" cy="10.5" r="0.75" fill="#3a3a3a"/>
<circle cx="83.0" cy="83.0" r="0.70" fill="#3a3a3a"/>
<circle cx="83.3" cy="50.3" r="0.97" fill="#3a3a3a"/>
<circle cx="13.7" cy="33.9" r="0.77" fill="#3a3a3a"/>
<circle cx="60.6" cy="72.4" r="1.02" fill="#3a3a3a"/>
<circle cx="44.9" cy="2.3" r="1.04" fill="#3a3a3a"/>
<circle cx="74.8" cy="86.3" r="1.00" fill="#3a3a3a"/>
<circle cx="30.6" cy="69.1" r="0.78" fill="#3a3a3a"/>
<circle cx="48.7" cy="6.5" r="0.76" fill="#3a3a3a"/>
<circle cx="83.3" cy="58.0" r="1.04" fill="#3a3a3a"/>
<circle cx="82.8" cy="60.6" r="0.67" fill="#3a3a3a"/>
<circle cx="6.7" cy="62.7" r="1.01" fill="#3a3a3a"/>
<circle cx="18.6" cy="72.1" r="0.70" fill="#3a3a3a"/><ellipse cx="80.5" cy="55.7" rx="4.0" ry="2.5" transform="rotate(26 80.5 55.7)" fill="#d2d2d2" stroke="#222" stroke-width="1.1"/>
<ellipse cx="12.5" cy="41.7" rx="4.0" ry="2.5" transform="rotate(23 12.5 41.7)" fill="#d2d2d2" stroke="#222" stroke-width="1.1"/>
<ellipse cx="59.8" cy="28.9" rx="4.6" ry="2.8" transform="rotate(-20 59.8 28.9)" fill="#d2d2d2" stroke="#222" stroke-width="1.1"/>
<ellipse cx="53.1" cy="18.6" rx="4.6" ry="2.9" transform="rotate(25 53.1 18.6)" fill="#d2d2d2" stroke="#222" stroke-width="1.1"/>
<polygon points="86.3,80.2 83.7,84.2 79.2,82.5 78.2,77.0 83.7,76.2" fill="#d2d2d2" stroke="#222" stroke-width="1.1"/>
<polygon points="36.6,40.1 34.1,44.6 29.1,43.3 26.6,39.0 30.2,35.8 35.0,35.3" fill="#d2d2d2" stroke="#222" stroke-width="1.1"/>
<ellipse cx="32.8" cy="85.1" rx="5.3" ry="3.3" transform="rotate(15 32.8 85.1)" fill="#d2d2d2" stroke="#222" stroke-width="1.1"/>
<polygon points="88.0,15.4 86.6,20.2 82.5,22.4 78.2,20.6 75.8,15.9 79.3,11.6 84.0,13.0" fill="#d2d2d2" stroke="#222" stroke-width="1.1"/>
<ellipse cx="17.1" cy="78.1" rx="7.3" ry="4.5" transform="rotate(-22 17.1 78.1)" fill="#d2d2d2" stroke="#222" stroke-width="1.1"/>
<polygon points="11.8,69.2 5.9,76.0 0.1,69.4 1.5,62.1 10.4,60.4" fill="#d2d2d2" stroke="#222" stroke-width="1.1"/>
<ellipse cx="26.9" cy="61.9" rx="8.8" ry="5.5" transform="rotate(15 26.9 61.9)" fill="#d2d2d2" stroke="#222" stroke-width="1.1"/>
<ellipse cx="16.3" cy="79.2" rx="9.7" ry="6.0" transform="rotate(28 16.3 79.2)" fill="#d2d2d2" stroke="#222" stroke-width="1.1"/>
<ellipse cx="20.7" cy="18.7" rx="9.7" ry="6.0" transform="rotate(-19 20.7 18.7)" fill="#d2d2d2" stroke="#222" stroke-width="1.1"/></g>
<g transform="translate(0 -88)"><circle cx="43.6" cy="13.2" r="0.85" fill="#3a3a3a"/>
<circle cx="77.4" cy="80.8" r="0.71" fill="#3a3a3a"/>
<circle cx="10.3" cy="18.2" r="0.73" fill="#3a3a3a"/>
<circle cx="10.5" cy="5.5" r="0.94" fill="#3a3a3a"/>
<circle cx="44.3" cy="53.0" r="0.99" fill="#3a3a3a"/>
<circle cx="69.6" cy="58.3" r="0.91" fill="#3a3a3a"/>
<circle cx="38.1" cy="75.1" r="0.95" fill="#3a3a3a"/>
<circle cx="73.6" cy="15.7" r="0.81" fill="#3a3a3a"/>
<circle cx="77.7" cy="86.0" r="0.84" fill="#3a3a3a"/>
<circle cx="49.3" cy="27.2" r="0.65" fill="#3a3a3a"/>
<circle cx="17.3" cy="30.9" r="0.63" fill="#3a3a3a"/>
<circle cx="54.0" cy="34.2" r="0.83" fill="#3a3a3a"/>
<circle cx="30.6" cy="10.7" r="0.96" fill="#3a3a3a"/>
<circle cx="31.1" cy="17.0" r="0.92" fill="#3a3a3a"/>
<circle cx="69.7" cy="3.5" r="0.68" fill="#3a3a3a"/>
<circle cx="18.6" cy="54.6" r="0.62" fill="#3a3a3a"/>
<circle cx="75.5" cy="0.9" r="0.75" fill="#3a3a3a"/>
<circle cx="2.9" cy="55.3" r="1.07" fill="#3a3a3a"/>
<circle cx="40.8" cy="59.0" r="1.03" fill="#3a3a3a"/>
<circle cx="80.4" cy="7.9" r="0.82" fill="#3a3a3a"/>
<circle cx="47.4" cy="85.8" r="0.96" fill="#3a3a3a"/>
<circle cx="77.0" cy="52.9" r="0.97" fill="#3a3a3a"/>
<circle cx="1.8" cy="77.5" r="1.09" fill="#3a3a3a"/>
<circle cx="76.2" cy="20.9" r="1.05" fill="#3a3a3a"/>
<circle cx="48.7" cy="22.0" r="0.83" fill="#3a3a3a"/>
<circle cx="79.6" cy="40.9" r="0.99" fill="#3a3a3a"/>
<circle cx="68.2" cy="31.8" r="0.79" fill="#3a3a3a"/>
<circle cx="20.0" cy="73.4" r="0.94" fill="#3a3a3a"/>
<circle cx="5.6" cy="17.8" r="1.07" fill="#3a3a3a"/>
<circle cx="43.5" cy="10.5" r="0.85" fill="#3a3a3a"/>
<circle cx="10.9" cy="20.3" r="1.00" fill="#3a3a3a"/>
<circle cx="56.2" cy="36.0" r="0.87" fill="#3a3a3a"/>
<circle cx="33.9" cy="63.0" r="0.70" fill="#3a3a3a"/>
<circle cx="84.3" cy="10.5" r="0.75" fill="#3a3a3a"/>
<circle cx="83.0" cy="83.0" r="0.70" fill="#3a3a3a"/>
<circle cx="83.3" cy="50.3" r="0.97" fill="#3a3a3a"/>
<circle cx="13.7" cy="33.9" r="0.77" fill="#3a3a3a"/>
<circle cx="60.6" cy="72.4" r="1.02" fill="#3a3a3a"/>
<circle cx="44.9" cy="2.3" r="1.04" fill="#3a3a3a"/>
<circle cx="74.8" cy="86.3" r="1.00" fill="#3a3a3a"/>
<circle cx="30.6" cy="69.1" r="0.78" fill="#3a3a3a"/>
<circle cx="48.7" cy="6.5" r="0.76" fill="#3a3a3a"/>
<circle cx="83.3" cy="58.0" r="1.04" fill="#3a3a3a"/>
<circle cx="82.8" cy="60.6" r="0.67" fill="#3a3a3a"/>
<circle cx="6.7" cy="62.7" r="1.01" fill="#3a3a3a"/>
<circle cx="18.6" cy="72.1" r="0.70" fill="#3a3a3a"/><ellipse cx="80.5" cy="55.7" rx="4.0" ry="2.5" transform="rotate(26 80.5 55.7)" fill="#d2d2d2" stroke="#222" stroke-width="1.1"/>
<ellipse cx="12.5" cy="41.7" rx="4.0" ry="2.5" transform="rotate(23 12.5 41.7)" fill="#d2d2d2" stroke="#222" stroke-width="1.1"/>
<ellipse cx="59.8" cy="28.9" rx="4.6" ry="2.8" transform="rotate(-20 59.8 28.9)" fill="#d2d2d2" stroke="#222" stroke-width="1.1"/>
<ellipse cx="53.1" cy="18.6" rx="4.6" ry="2.9" transform="rotate(25 53.1 18.6)" fill="#d2d2d2" stroke="#222" stroke-width="1.1"/>
<polygon points="86.3,80.2 83.7,84.2 79.2,82.5 78.2,77.0 83.7,76.2" fill="#d2d2d2" stroke="#222" stroke-width="1.1"/>
<polygon points="36.6,40.1 34.1,44.6 29.1,43.3 26.6,39.0 30.2,35.8 35.0,35.3" fill="#d2d2d2" stroke="#222" stroke-width="1.1"/>
<ellipse cx="32.8" cy="85.1" rx="5.3" ry="3.3" transform="rotate(15 32.8 85.1)" fill="#d2d2d2" stroke="#222" stroke-width="1.1"/>
<polygon points="88.0,15.4 86.6,20.2 82.5,22.4 78.2,20.6 75.8,15.9 79.3,11.6 84.0,13.0" fill="#d2d2d2" stroke="#222" stroke-width="1.1"/>
<ellipse cx="17.1" cy="78.1" rx="7.3" ry="4.5" transform="rotate(-22 17.1 78.1)" fill="#d2d2d2" stroke="#222" stroke-width="1.1"/>
<polygon points="11.8,69.2 5.9,76.0 0.1,69.4 1.5,62.1 10.4,60.4" fill="#d2d2d2" stroke="#222" stroke-width="1.1"/>
<ellipse cx="26.9" cy="61.9" rx="8.8" ry="5.5" transform="rotate(15 26.9 61.9)" fill="#d2d2d2" stroke="#222" stroke-width="1.1"/>
<ellipse cx="16.3" cy="79.2" rx="9.7" ry="6.0" transform="rotate(28 16.3 79.2)" fill="#d2d2d2" stroke="#222" stroke-width="1.1"/>
<ellipse cx="20.7" cy="18.7" rx="9.7" ry="6.0" transform="rotate(-19 20.7 18.7)" fill="#d2d2d2" stroke="#222" stroke-width="1.1"/></g>
<g transform="translate(0 0)"><circle cx="43.6" cy="13.2" r="0.85" fill="#3a3a3a"/>
<circle cx="77.4" cy="80.8" r="0.71" fill="#3a3a3a"/>
<circle cx="10.3" cy="18.2" r="0.73" fill="#3a3a3a"/>
<circle cx="10.5" cy="5.5" r="0.94" fill="#3a3a3a"/>
<circle cx="44.3" cy="53.0" r="0.99" fill="#3a3a3a"/>
<circle cx="69.6" cy="58.3" r="0.91" fill="#3a3a3a"/>
<circle cx="38.1" cy="75.1" r="0.95" fill="#3a3a3a"/>
<circle cx="73.6" cy="15.7" r="0.81" fill="#3a3a3a"/>
<circle cx="77.7" cy="86.0" r="0.84" fill="#3a3a3a"/>
<circle cx="49.3" cy="27.2" r="0.65" fill="#3a3a3a"/>
<circle cx="17.3" cy="30.9" r="0.63" fill="#3a3a3a"/>
<circle cx="54.0" cy="34.2" r="0.83" fill="#3a3a3a"/>
<circle cx="30.6" cy="10.7" r="0.96" fill="#3a3a3a"/>
<circle cx="31.1" cy="17.0" r="0.92" fill="#3a3a3a"/>
<circle cx="69.7" cy="3.5" r="0.68" fill="#3a3a3a"/>
<circle cx="18.6" cy="54.6" r="0.62" fill="#3a3a3a"/>
<circle cx="75.5" cy="0.9" r="0.75" fill="#3a3a3a"/>
<circle cx="2.9" cy="55.3" r="1.07" fill="#3a3a3a"/>
<circle cx="40.8" cy="59.0" r="1.03" fill="#3a3a3a"/>
<circle cx="80.4" cy="7.9" r="0.82" fill="#3a3a3a"/>
<circle cx="47.4" cy="85.8" r="0.96" fill="#3a3a3a"/>
<circle cx="77.0" cy="52.9" r="0.97" fill="#3a3a3a"/>
<circle cx="1.8" cy="77.5" r="1.09" fill="#3a3a3a"/>
<circle cx="76.2" cy="20.9" r="1.05" fill="#3a3a3a"/>
<circle cx="48.7" cy="22.0" r="0.83" fill="#3a3a3a"/>
<circle cx="79.6" cy="40.9" r="0.99" fill="#3a3a3a"/>
<circle cx="68.2" cy="31.8" r="0.79" fill="#3a3a3a"/>
<circle cx="20.0" cy="73.4" r="0.94" fill="#3a3a3a"/>
<circle cx="5.6" cy="17.8" r="1.07" fill="#3a3a3a"/>
<circle cx="43.5" cy="10.5" r="0.85" fill="#3a3a3a"/>
<circle cx="10.9" cy="20.3" r="1.00" fill="#3a3a3a"/>
<circle cx="56.2" cy="36.0" r="0.87" fill="#3a3a3a"/>
<circle cx="33.9" cy="63.0" r="0.70" fill="#3a3a3a"/>
<circle cx="84.3" cy="10.5" r="0.75" fill="#3a3a3a"/>
<circle cx="83.0" cy="83.0" r="0.70" fill="#3a3a3a"/>
<circle cx="83.3" cy="50.3" r="0.97" fill="#3a3a3a"/>
<circle cx="13.7" cy="33.9" r="0.77" fill="#3a3a3a"/>
<circle cx="60.6" cy="72.4" r="1.02" fill="#3a3a3a"/>
<circle cx="44.9" cy="2.3" r="1.04" fill="#3a3a3a"/>
<circle cx="74.8" cy="86.3" r="1.00" fill="#3a3a3a"/>
<circle cx="30.6" cy="69.1" r="0.78" fill="#3a3a3a"/>
<circle cx="48.7" cy="6.5" r="0.76" fill="#3a3a3a"/>
<circle cx="83.3" cy="58.0" r="1.04" fill="#3a3a3a"/>
<circle cx="82.8" cy="60.6" r="0.67" fill="#3a3a3a"/>
<circle cx="6.7" cy="62.7" r="1.01" fill="#3a3a3a"/>
<circle cx="18.6" cy="72.1" r="0.70" fill="#3a3a3a"/><ellipse cx="80.5" cy="55.7" rx="4.0" ry="2.5" transform="rotate(26 80.5 55.7)" fill="#d2d2d2" stroke="#222" stroke-width="1.1"/>
<ellipse cx="12.5" cy="41.7" rx="4.0" ry="2.5" transform="rotate(23 12.5 41.7)" fill="#d2d2d2" stroke="#222" stroke-width="1.1"/>
<ellipse cx="59.8" cy="28.9" rx="4.6" ry="2.8" transform="rotate(-20 59.8 28.9)" fill="#d2d2d2" stroke="#222" stroke-width="1.1"/>
<ellipse cx="53.1" cy="18.6" rx="4.6" ry="2.9" transform="rotate(25 53.1 18.6)" fill="#d2d2d2" stroke="#222" stroke-width="1.1"/>
<polygon points="86.3,80.2 83.7,84.2 79.2,82.5 78.2,77.0 83.7,76.2" fill="#d2d2d2" stroke="#222" stroke-width="1.1"/>
<polygon points="36.6,40.1 34.1,44.6 29.1,43.3 26.6,39.0 30.2,35.8 35.0,35.3" fill="#d2d2d2" stroke="#222" stroke-width="1.1"/>
<ellipse cx="32.8" cy="85.1" rx="5.3" ry="3.3" transform="rotate(15 32.8 85.1)" fill="#d2d2d2" stroke="#222" stroke-width="1.1"/>
<polygon points="88.0,15.4 86.6,20.2 82.5,22.4 78.2,20.6 75.8,15.9 79.3,11.6 84.0,13.0" fill="#d2d2d2" stroke="#222" stroke-width="1.1"/>
<ellipse cx="17.1" cy="78.1" rx="7.3" ry="4.5" transform="rotate(-22 17.1 78.1)" fill="#d2d2d2" stroke="#222" stroke-width="1.1"/>
<polygon points="11.8,69.2 5.9,76.0 0.1,69.4 1.5,62.1 10.4,60.4" fill="#d2d2d2" stroke="#222" stroke-width="1.1"/>
<ellipse cx="26.9" cy="61.9" rx="8.8" ry="5.5" transform="rotate(15 26.9 61.9)" fill="#d2d2d2" stroke="#222" stroke-width="1.1"/>
<ellipse cx="16.3" cy="79.2" rx="9.7" ry="6.0" transform="rotate(28 16.3 79.2)" fill="#d2d2d2" stroke="#222" stroke-width="1.1"/>
<ellipse cx="20.7" cy="18.7" rx="9.7" ry="6.0" transform="rotate(-19 20.7 18.7)" fill="#d2d2d2" stroke="#222" stroke-width="1.1"/></g>
<g transform="translate(0 88)"><circle cx="43.6" cy="13.2" r="0.85" fill="#3a3a3a"/>
<circle cx="77.4" cy="80.8" r="0.71" fill="#3a3a3a"/>
<circle cx="10.3" cy="18.2" r="0.73" fill="#3a3a3a"/>
<circle cx="10.5" cy="5.5" r="0.94" fill="#3a3a3a"/>
<circle cx="44.3" cy="53.0" r="0.99" fill="#3a3a3a"/>
<circle cx="69.6" cy="58.3" r="0.91" fill="#3a3a3a"/>
<circle cx="38.1" cy="75.1" r="0.95" fill="#3a3a3a"/>
<circle cx="73.6" cy="15.7" r="0.81" fill="#3a3a3a"/>
<circle cx="77.7" cy="86.0" r="0.84" fill="#3a3a3a"/>
<circle cx="49.3" cy="27.2" r="0.65" fill="#3a3a3a"/>
<circle cx="17.3" cy="30.9" r="0.63" fill="#3a3a3a"/>
<circle cx="54.0" cy="34.2" r="0.83" fill="#3a3a3a"/>
<circle cx="30.6" cy="10.7" r="0.96" fill="#3a3a3a"/>
<circle cx="31.1" cy="17.0" r="0.92" fill="#3a3a3a"/>
<circle cx="69.7" cy="3.5" r="0.68" fill="#3a3a3a"/>
<circle cx="18.6" cy="54.6" r="0.62" fill="#3a3a3a"/>
<circle cx="75.5" cy="0.9" r="0.75" fill="#3a3a3a"/>
<circle cx="2.9" cy="55.3" r="1.07" fill="#3a3a3a"/>
<circle cx="40.8" cy="59.0" r="1.03" fill="#3a3a3a"/>
<circle cx="80.4" cy="7.9" r="0.82" fill="#3a3a3a"/>
<circle cx="47.4" cy="85.8" r="0.96" fill="#3a3a3a"/>
<circle cx="77.0" cy="52.9" r="0.97" fill="#3a3a3a"/>
<circle cx="1.8" cy="77.5" r="1.09" fill="#3a3a3a"/>
<circle cx="76.2" cy="20.9" r="1.05" fill="#3a3a3a"/>
<circle cx="48.7" cy="22.0" r="0.83" fill="#3a3a3a"/>
<circle cx="79.6" cy="40.9" r="0.99" fill="#3a3a3a"/>
<circle cx="68.2" cy="31.8" r="0.79" fill="#3a3a3a"/>
<circle cx="20.0" cy="73.4" r="0.94" fill="#3a3a3a"/>
<circle cx="5.6" cy="17.8" r="1.07" fill="#3a3a3a"/>
<circle cx="43.5" cy="10.5" r="0.85" fill="#3a3a3a"/>
<circle cx="10.9" cy="20.3" r="1.00" fill="#3a3a3a"/>
<circle cx="56.2" cy="36.0" r="0.87" fill="#3a3a3a"/>
<circle cx="33.9" cy="63.0" r="0.70" fill="#3a3a3a"/>
<circle cx="84.3" cy="10.5" r="0.75" fill="#3a3a3a"/>
<circle cx="83.0" cy="83.0" r="0.70" fill="#3a3a3a"/>
<circle cx="83.3" cy="50.3" r="0.97" fill="#3a3a3a"/>
<circle cx="13.7" cy="33.9" r="0.77" fill="#3a3a3a"/>
<circle cx="60.6" cy="72.4" r="1.02" fill="#3a3a3a"/>
<circle cx="44.9" cy="2.3" r="1.04" fill="#3a3a3a"/>
<circle cx="74.8" cy="86.3" r="1.00" fill="#3a3a3a"/>
<circle cx="30.6" cy="69.1" r="0.78" fill="#3a3a3a"/>
<circle cx="48.7" cy="6.5" r="0.76" fill="#3a3a3a"/>
<circle cx="83.3" cy="58.0" r="1.04" fill="#3a3a3a"/>
<circle cx="82.8" cy="60.6" r="0.67" fill="#3a3a3a"/>
<circle cx="6.7" cy="62.7" r="1.01" fill="#3a3a3a"/>
<circle cx="18.6" cy="72.1" r="0.70" fill="#3a3a3a"/><ellipse cx="80.5" cy="55.7" rx="4.0" ry="2.5" transform="rotate(26 80.5 55.7)" fill="#d2d2d2" stroke="#222" stroke-width="1.1"/>
<ellipse cx="12.5" cy="41.7" rx="4.0" ry="2.5" transform="rotate(23 12.5 41.7)" fill="#d2d2d2" stroke="#222" stroke-width="1.1"/>
<ellipse cx="59.8" cy="28.9" rx="4.6" ry="2.8" transform="rotate(-20 59.8 28.9)" fill="#d2d2d2" stroke="#222" stroke-width="1.1"/>
<ellipse cx="53.1" cy="18.6" rx="4.6" ry="2.9" transform="rotate(25 53.1 18.6)" fill="#d2d2d2" stroke="#222" stroke-width="1.1"/>
<polygon points="86.3,80.2 83.7,84.2 79.2,82.5 78.2,77.0 83.7,76.2" fill="#d2d2d2" stroke="#222" stroke-width="1.1"/>
<polygon points="36.6,40.1 34.1,44.6 29.1,43.3 26.6,39.0 30.2,35.8 35.0,35.3" fill="#d2d2d2" stroke="#222" stroke-width="1.1"/>
<ellipse cx="32.8" cy="85.1" rx="5.3" ry="3.3" transform="rotate(15 32.8 85.1)" fill="#d2d2d2" stroke="#222" stroke-width="1.1"/>
<polygon points="88.0,15.4 86.6,20.2 82.5,22.4 78.2,20.6 75.8,15.9 79.3,11.6 84.0,13.0" fill="#d2d2d2" stroke="#222" stroke-width="1.1"/>
<ellipse cx="17.1" cy="78.1" rx="7.3" ry="4.5" transform="rotate(-22 17.1 78.1)" fill="#d2d2d2" stroke="#222" stroke-width="1.1"/>
<polygon points="11.8,69.2 5.9,76.0 0.1,69.4 1.5,62.1 10.4,60.4" fill="#d2d2d2" stroke="#222" stroke-width="1.1"/>
<ellipse cx="26.9" cy="61.9" rx="8.8" ry="5.5" transform="rotate(15 26.9 61.9)" fill="#d2d2d2" stroke="#222" stroke-width="1.1"/>
<ellipse cx="16.3" cy="79.2" rx="9.7" ry="6.0" transform="rotate(28 16.3 79.2)" fill="#d2d2d2" stroke="#222" stroke-width="1.1"/>
<ellipse cx="20.7" cy="18.7" rx="9.7" ry="6.0" transform="rotate(-19 20.7 18.7)" fill="#d2d2d2" stroke="#222" stroke-width="1.1"/></g>
<g transform="translate(88 -88)"><circle cx="43.6" cy="13.2" r="0.85" fill="#3a3a3a"/>
<circle cx="77.4" cy="80.8" r="0.71" fill="#3a3a3a"/>
<circle cx="10.3" cy="18.2" r="0.73" fill="#3a3a3a"/>
<circle cx="10.5" cy="5.5" r="0.94" fill="#3a3a3a"/>
<circle cx="44.3" cy="53.0" r="0.99" fill="#3a3a3a"/>
<circle cx="69.6" cy="58.3" r="0.91" fill="#3a3a3a"/>
<circle cx="38.1" cy="75.1" r="0.95" fill="#3a3a3a"/>
<circle cx="73.6" cy="15.7" r="0.81" fill="#3a3a3a"/>
<circle cx="77.7" cy="86.0" r="0.84" fill="#3a3a3a"/>
<circle cx="49.3" cy="27.2" r="0.65" fill="#3a3a3a"/>
<circle cx="17.3" cy="30.9" r="0.63" fill="#3a3a3a"/>
<circle cx="54.0" cy="34.2" r="0.83" fill="#3a3a3a"/>
<circle cx="30.6" cy="10.7" r="0.96" fill="#3a3a3a"/>
<circle cx="31.1" cy="17.0" r="0.92" fill="#3a3a3a"/>
<circle cx="69.7" cy="3.5" r="0.68" fill="#3a3a3a"/>
<circle cx="18.6" cy="54.6" r="0.62" fill="#3a3a3a"/>
<circle cx="75.5" cy="0.9" r="0.75" fill="#3a3a3a"/>
<circle cx="2.9" cy="55.3" r="1.07" fill="#3a3a3a"/>
<circle cx="40.8" cy="59.0" r="1.03" fill="#3a3a3a"/>
<circle cx="80.4" cy="7.9" r="0.82" fill="#3a3a3a"/>
<circle cx="47.4" cy="85.8" r="0.96" fill="#3a3a3a"/>
<circle cx="77.0" cy="52.9" r="0.97" fill="#3a3a3a"/>
<circle cx="1.8" cy="77.5" r="1.09" fill="#3a3a3a"/>
<circle cx="76.2" cy="20.9" r="1.05" fill="#3a3a3a"/>
<circle cx="48.7" cy="22.0" r="0.83" fill="#3a3a3a"/>
<circle cx="79.6" cy="40.9" r="0.99" fill="#3a3a3a"/>
<circle cx="68.2" cy="31.8" r="0.79" fill="#3a3a3a"/>
<circle cx="20.0" cy="73.4" r="0.94" fill="#3a3a3a"/>
<circle cx="5.6" cy="17.8" r="1.07" fill="#3a3a3a"/>
<circle cx="43.5" cy="10.5" r="0.85" fill="#3a3a3a"/>
<circle cx="10.9" cy="20.3" r="1.00" fill="#3a3a3a"/>
<circle cx="56.2" cy="36.0" r="0.87" fill="#3a3a3a"/>
<circle cx="33.9" cy="63.0" r="0.70" fill="#3a3a3a"/>
<circle cx="84.3" cy="10.5" r="0.75" fill="#3a3a3a"/>
<circle cx="83.0" cy="83.0" r="0.70" fill="#3a3a3a"/>
<circle cx="83.3" cy="50.3" r="0.97" fill="#3a3a3a"/>
<circle cx="13.7" cy="33.9" r="0.77" fill="#3a3a3a"/>
<circle cx="60.6" cy="72.4" r="1.02" fill="#3a3a3a"/>
<circle cx="44.9" cy="2.3" r="1.04" fill="#3a3a3a"/>
<circle cx="74.8" cy="86.3" r="1.00" fill="#3a3a3a"/>
<circle cx="30.6" cy="69.1" r="0.78" fill="#3a3a3a"/>
<circle cx="48.7" cy="6.5" r="0.76" fill="#3a3a3a"/>
<circle cx="83.3" cy="58.0" r="1.04" fill="#3a3a3a"/>
<circle cx="82.8" cy="60.6" r="0.67" fill="#3a3a3a"/>
<circle cx="6.7" cy="62.7" r="1.01" fill="#3a3a3a"/>
<circle cx="18.6" cy="72.1" r="0.70" fill="#3a3a3a"/><ellipse cx="80.5" cy="55.7" rx="4.0" ry="2.5" transform="rotate(26 80.5 55.7)" fill="#d2d2d2" stroke="#222" stroke-width="1.1"/>
<ellipse cx="12.5" cy="41.7" rx="4.0" ry="2.5" transform="rotate(23 12.5 41.7)" fill="#d2d2d2" stroke="#222" stroke-width="1.1"/>
<ellipse cx="59.8" cy="28.9" rx="4.6" ry="2.8" transform="rotate(-20 59.8 28.9)" fill="#d2d2d2" stroke="#222" stroke-width="1.1"/>
<ellipse cx="53.1" cy="18.6" rx="4.6" ry="2.9" transform="rotate(25 53.1 18.6)" fill="#d2d2d2" stroke="#222" stroke-width="1.1"/>
<polygon points="86.3,80.2 83.7,84.2 79.2,82.5 78.2,77.0 83.7,76.2" fill="#d2d2d2" stroke="#222" stroke-width="1.1"/>
<polygon points="36.6,40.1 34.1,44.6 29.1,43.3 26.6,39.0 30.2,35.8 35.0,35.3" fill="#d2d2d2" stroke="#222" stroke-width="1.1"/>
<ellipse cx="32.8" cy="85.1" rx="5.3" ry="3.3" transform="rotate(15 32.8 85.1)" fill="#d2d2d2" stroke="#222" stroke-width="1.1"/>
<polygon points="88.0,15.4 86.6,20.2 82.5,22.4 78.2,20.6 75.8,15.9 79.3,11.6 84.0,13.0" fill="#d2d2d2" stroke="#222" stroke-width="1.1"/>
<ellipse cx="17.1" cy="78.1" rx="7.3" ry="4.5" transform="rotate(-22 17.1 78.1)" fill="#d2d2d2" stroke="#222" stroke-width="1.1"/>
<polygon points="11.8,69.2 5.9,76.0 0.1,69.4 1.5,62.1 10.4,60.4" fill="#d2d2d2" stroke="#222" stroke-width="1.1"/>
<ellipse cx="26.9" cy="61.9" rx="8.8" ry="5.5" transform="rotate(15 26.9 61.9)" fill="#d2d2d2" stroke="#222" stroke-width="1.1"/>
<ellipse cx="16.3" cy="79.2" rx="9.7" ry="6.0" transform="rotate(28 16.3 79.2)" fill="#d2d2d2" stroke="#222" stroke-width="1.1"/>
<ellipse cx="20.7" cy="18.7" rx="9.7" ry="6.0" transform="rotate(-19 20.7 18.7)" fill="#d2d2d2" stroke="#222" stroke-width="1.1"/></g>
<g transform="translate(88 0)"><circle cx="43.6" cy="13.2" r="0.85" fill="#3a3a3a"/>
<circle cx="77.4" cy="80.8" r="0.71" fill="#3a3a3a"/>
<circle cx="10.3" cy="18.2" r="0.73" fill="#3a3a3a"/>
<circle cx="10.5" cy="5.5" r="0.94" fill="#3a3a3a"/>
<circle cx="44.3" cy="53.0" r="0.99" fill="#3a3a3a"/>
<circle cx="69.6" cy="58.3" r="0.91" fill="#3a3a3a"/>
<circle cx="38.1" cy="75.1" r="0.95" fill="#3a3a3a"/>
<circle cx="73.6" cy="15.7" r="0.81" fill="#3a3a3a"/>
<circle cx="77.7" cy="86.0" r="0.84" fill="#3a3a3a"/>
<circle cx="49.3" cy="27.2" r="0.65" fill="#3a3a3a"/>
<circle cx="17.3" cy="30.9" r="0.63" fill="#3a3a3a"/>
<circle cx="54.0" cy="34.2" r="0.83" fill="#3a3a3a"/>
<circle cx="30.6" cy="10.7" r="0.96" fill="#3a3a3a"/>
<circle cx="31.1" cy="17.0" r="0.92" fill="#3a3a3a"/>
<circle cx="69.7" cy="3.5" r="0.68" fill="#3a3a3a"/>
<circle cx="18.6" cy="54.6" r="0.62" fill="#3a3a3a"/>
<circle cx="75.5" cy="0.9" r="0.75" fill="#3a3a3a"/>
<circle cx="2.9" cy="55.3" r="1.07" fill="#3a3a3a"/>
<circle cx="40.8" cy="59.0" r="1.03" fill="#3a3a3a"/>
<circle cx="80.4" cy="7.9" r="0.82" fill="#3a3a3a"/>
<circle cx="47.4" cy="85.8" r="0.96" fill="#3a3a3a"/>
<circle cx="77.0" cy="52.9" r="0.97" fill="#3a3a3a"/>
<circle cx="1.8" cy="77.5" r="1.09" fill="#3a3a3a"/>
<circle cx="76.2" cy="20.9" r="1.05" fill="#3a3a3a"/>
<circle cx="48.7" cy="22.0" r="0.83" fill="#3a3a3a"/>
<circle cx="79.6" cy="40.9" r="0.99" fill="#3a3a3a"/>
<circle cx="68.2" cy="31.8" r="0.79" fill="#3a3a3a"/>
<circle cx="20.0" cy="73.4" r="0.94" fill="#3a3a3a"/>
<circle cx="5.6" cy="17.8" r="1.07" fill="#3a3a3a"/>
<circle cx="43.5" cy="10.5" r="0.85" fill="#3a3a3a"/>
<circle cx="10.9" cy="20.3" r="1.00" fill="#3a3a3a"/>
<circle cx="56.2" cy="36.0" r="0.87" fill="#3a3a3a"/>
<circle cx="33.9" cy="63.0" r="0.70" fill="#3a3a3a"/>
<circle cx="84.3" cy="10.5" r="0.75" fill="#3a3a3a"/>
<circle cx="83.0" cy="83.0" r="0.70" fill="#3a3a3a"/>
<circle cx="83.3" cy="50.3" r="0.97" fill="#3a3a3a"/>
<circle cx="13.7" cy="33.9" r="0.77" fill="#3a3a3a"/>
<circle cx="60.6" cy="72.4" r="1.02" fill="#3a3a3a"/>
<circle cx="44.9" cy="2.3" r="1.04" fill="#3a3a3a"/>
<circle cx="74.8" cy="86.3" r="1.00" fill="#3a3a3a"/>
<circle cx="30.6" cy="69.1" r="0.78" fill="#3a3a3a"/>
<circle cx="48.7" cy="6.5" r="0.76" fill="#3a3a3a"/>
<circle cx="83.3" cy="58.0" r="1.04" fill="#3a3a3a"/>
<circle cx="82.8" cy="60.6" r="0.67" fill="#3a3a3a"/>
<circle cx="6.7" cy="62.7" r="1.01" fill="#3a3a3a"/>
<circle cx="18.6" cy="72.1" r="0.70" fill="#3a3a3a"/><ellipse cx="80.5" cy="55.7" rx="4.0" ry="2.5" transform="rotate(26 80.5 55.7)" fill="#d2d2d2" stroke="#222" stroke-width="1.1"/>
<ellipse cx="12.5" cy="41.7" rx="4.0" ry="2.5" transform="rotate(23 12.5 41.7)" fill="#d2d2d2" stroke="#222" stroke-width="1.1"/>
<ellipse cx="59.8" cy="28.9" rx="4.6" ry="2.8" transform="rotate(-20 59.8 28.9)" fill="#d2d2d2" stroke="#222" stroke-width="1.1"/>
<ellipse cx="53.1" cy="18.6" rx="4.6" ry="2.9" transform="rotate(25 53.1 18.6)" fill="#d2d2d2" stroke="#222" stroke-width="1.1"/>
<polygon points="86.3,80.2 83.7,84.2 79.2,82.5 78.2,77.0 83.7,76.2" fill="#d2d2d2" stroke="#222" stroke-width="1.1"/>
<polygon points="36.6,40.1 34.1,44.6 29.1,43.3 26.6,39.0 30.2,35.8 35.0,35.3" fill="#d2d2d2" stroke="#222" stroke-width="1.1"/>
<ellipse cx="32.8" cy="85.1" rx="5.3" ry="3.3" transform="rotate(15 32.8 85.1)" fill="#d2d2d2" stroke="#222" stroke-width="1.1"/>
<polygon points="88.0,15.4 86.6,20.2 82.5,22.4 78.2,20.6 75.8,15.9 79.3,11.6 84.0,13.0" fill="#d2d2d2" stroke="#222" stroke-width="1.1"/>
<ellipse cx="17.1" cy="78.1" rx="7.3" ry="4.5" transform="rotate(-22 17.1 78.1)" fill="#d2d2d2" stroke="#222" stroke-width="1.1"/>
<polygon points="11.8,69.2 5.9,76.0 0.1,69.4 1.5,62.1 10.4,60.4" fill="#d2d2d2" stroke="#222" stroke-width="1.1"/>
<ellipse cx="26.9" cy="61.9" rx="8.8" ry="5.5" transform="rotate(15 26.9 61.9)" fill="#d2d2d2" stroke="#222" stroke-width="1.1"/>
<ellipse cx="16.3" cy="79.2" rx="9.7" ry="6.0" transform="rotate(28 16.3 79.2)" fill="#d2d2d2" stroke="#222" stroke-width="1.1"/>
<ellipse cx="20.7" cy="18.7" rx="9.7" ry="6.0" transform="rotate(-19 20.7 18.7)" fill="#d2d2d2" stroke="#222" stroke-width="1.1"/></g>
<g transform="translate(88 88)"><circle cx="43.6" cy="13.2" r="0.85" fill="#3a3a3a"/>
<circle cx="77.4" cy="80.8" r="0.71" fill="#3a3a3a"/>
<circle cx="10.3" cy="18.2" r="0.73" fill="#3a3a3a"/>
<circle cx="10.5" cy="5.5" r="0.94" fill="#3a3a3a"/>
<circle cx="44.3" cy="53.0" r="0.99" fill="#3a3a3a"/>
<circle cx="69.6" cy="58.3" r="0.91" fill="#3a3a3a"/>
<circle cx="38.1" cy="75.1" r="0.95" fill="#3a3a3a"/>
<circle cx="73.6" cy="15.7" r="0.81" fill="#3a3a3a"/>
<circle cx="77.7" cy="86.0" r="0.84" fill="#3a3a3a"/>
<circle cx="49.3" cy="27.2" r="0.65" fill="#3a3a3a"/>
<circle cx="17.3" cy="30.9" r="0.63" fill="#3a3a3a"/>
<circle cx="54.0" cy="34.2" r="0.83" fill="#3a3a3a"/>
<circle cx="30.6" cy="10.7" r="0.96" fill="#3a3a3a"/>
<circle cx="31.1" cy="17.0" r="0.92" fill="#3a3a3a"/>
<circle cx="69.7" cy="3.5" r="0.68" fill="#3a3a3a"/>
<circle cx="18.6" cy="54.6" r="0.62" fill="#3a3a3a"/>
<circle cx="75.5" cy="0.9" r="0.75" fill="#3a3a3a"/>
<circle cx="2.9" cy="55.3" r="1.07" fill="#3a3a3a"/>
<circle cx="40.8" cy="59.0" r="1.03" fill="#3a3a3a"/>
<circle cx="80.4" cy="7.9" r="0.82" fill="#3a3a3a"/>
<circle cx="47.4" cy="85.8" r="0.96" fill="#3a3a3a"/>
<circle cx="77.0" cy="52.9" r="0.97" fill="#3a3a3a"/>
<circle cx="1.8" cy="77.5" r="1.09" fill="#3a3a3a"/>
<circle cx="76.2" cy="20.9" r="1.05" fill="#3a3a3a"/>
<circle cx="48.7" cy="22.0" r="0.83" fill="#3a3a3a"/>
<circle cx="79.6" cy="40.9" r="0.99" fill="#3a3a3a"/>
<circle cx="68.2" cy="31.8" r="0.79" fill="#3a3a3a"/>
<circle cx="20.0" cy="73.4" r="0.94" fill="#3a3a3a"/>
<circle cx="5.6" cy="17.8" r="1.07" fill="#3a3a3a"/>
<circle cx="43.5" cy="10.5" r="0.85" fill="#3a3a3a"/>
<circle cx="10.9" cy="20.3" r="1.00" fill="#3a3a3a"/>
<circle cx="56.2" cy="36.0" r="0.87" fill="#3a3a3a"/>
<circle cx="33.9" cy="63.0" r="0.70" fill="#3a3a3a"/>
<circle cx="84.3" cy="10.5" r="0.75" fill="#3a3a3a"/>
<circle cx="83.0" cy="83.0" r="0.70" fill="#3a3a3a"/>
<circle cx="83.3" cy="50.3" r="0.97" fill="#3a3a3a"/>
<circle cx="13.7" cy="33.9" r="0.77" fill="#3a3a3a"/>
<circle cx="60.6" cy="72.4" r="1.02" fill="#3a3a3a"/>
<circle cx="44.9" cy="2.3" r="1.04" fill="#3a3a3a"/>
<circle cx="74.8" cy="86.3" r="1.00" fill="#3a3a3a"/>
<circle cx="30.6" cy="69.1" r="0.78" fill="#3a3a3a"/>
<circle cx="48.7" cy="6.5" r="0.76" fill="#3a3a3a"/>
<circle cx="83.3" cy="58.0" r="1.04" fill="#3a3a3a"/>
<circle cx="82.8" cy="60.6" r="0.67" fill="#3a3a3a"/>
<circle cx="6.7" cy="62.7" r="1.01" fill="#3a3a3a"/>
<circle cx="18.6" cy="72.1" r="0.70" fill="#3a3a3a"/><ellipse cx="80.5" cy="55.7" rx="4.0" ry="2.5" transform="rotate(26 80.5 55.7)" fill="#d2d2d2" stroke="#222" stroke-width="1.1"/>
<ellipse cx="12.5" cy="41.7" rx="4.0" ry="2.5" transform="rotate(23 12.5 41.7)" fill="#d2d2d2" stroke="#222" stroke-width="1.1"/>
<ellipse cx="59.8" cy="28.9" rx="4.6" ry="2.8" transform="rotate(-20 59.8 28.9)" fill="#d2d2d2" stroke="#222" stroke-width="1.1"/>
<ellipse cx="53.1" cy="18.6" rx="4.6" ry="2.9" transform="rotate(25 53.1 18.6)" fill="#d2d2d2" stroke="#222" stroke-width="1.1"/>
<polygon points="86.3,80.2 83.7,84.2 79.2,82.5 78.2,77.0 83.7,76.2" fill="#d2d2d2" stroke="#222" stroke-width="1.1"/>
<polygon points="36.6,40.1 34.1,44.6 29.1,43.3 26.6,39.0 30.2,35.8 35.0,35.3" fill="#d2d2d2" stroke="#222" stroke-width="1.1"/>
<ellipse cx="32.8" cy="85.1" rx="5.3" ry="3.3" transform="rotate(15 32.8 85.1)" fill="#d2d2d2" stroke="#222" stroke-width="1.1"/>
<polygon points="88.0,15.4 86.6,20.2 82.5,22.4 78.2,20.6 75.8,15.9 79.3,11.6 84.0,13.0" fill="#d2d2d2" stroke="#222" stroke-width="1.1"/>
<ellipse cx="17.1" cy="78.1" rx="7.3" ry="4.5" transform="rotate(-22 17.1 78.1)" fill="#d2d2d2" stroke="#222" stroke-width="1.1"/>
<polygon points="11.8,69.2 5.9,76.0 0.1,69.4 1.5,62.1 10.4,60.4" fill="#d2d2d2" stroke="#222" stroke-width="1.1"/>
<ellipse cx="26.9" cy="61.9" rx="8.8" ry="5.5" transform="rotate(15 26.9 61.9)" fill="#d2d2d2" stroke="#222" stroke-width="1.1"/>
<ellipse cx="16.3" cy="79.2" rx="9.7" ry="6.0" transform="rotate(28 16.3 79.2)" fill="#d2d2d2" stroke="#222" stroke-width="1.1"/>
<ellipse cx="20.7" cy="18.7" rx="9.7" ry="6.0" transform="rotate(-19 20.7 18.7)" fill="#d2d2d2" stroke="#222" stroke-width="1.1"/></g></pattern></defs>
<rect width="120" height="120" fill="url(#pat_Gms)" stroke="black" stroke-width="1"/>
</svg>
