<svg xmlns="http://www.w3.org/2000/svg" width="120" height="120" viewBox="0 0 120 120">
<defs><clipPath id="clip48"><rect width="48" height="48"/></clipPath><pattern id="pat_P" patternUnits="userSpaceOnUse" width="48" height="48"><rect width="48" height="48" fill="white"/><g transform="translate(-48 -48)"><rect x="-10.8" y="7.1" width="14.6" height="2.6" rx="1.3" fill="#2b2b2b"/>
<rect x="18.5" y="5.7" width="10.9" height="2.6" rx="1.3" fill="#2b2b2b"/>
<rect x="36.2" y="6.6" width="14.0" height="2.6" rx="1.3" fill="#2b2b2b"/>
<rect x="-4.6" y="13.8" width="13.9" height="2.6" rx="1.3" fill="#2b2b2b"/>
<rect x="25.0" y="14.7" width="15.6" height="2.6" rx="1.3" fill="#2b2b2b"/>
<rect x="49.2" y="15.6" width="12.5" height="2.6" rx="1.3" fill="#2b2b2b"/>
<rect x="-4.4" y="24.4" width="13.5" height="2.6" rx="1.3" fill="#2b2b2b"/>
<rect x="18.8" y="23.4" width="12.9" height="2.6" rx="1.3" fill="#2b2b2b"/>
<rect x="46.1" y="24.5" width="8.5" height="2.6" rx="1.3" fill="#2b2b2b"/>
<rect x="-3.0" y="33.9" width="13.6" height="2.6" rx="1.3" fill="#2b2b2b"/>
<rect x="23.5" y="32.9" width="11.0" height="2.6" rx="1.3" fill="#2b2b2b"/>
<rect x="43.0" y="33.6" width="12.2" height="2.6" rx="1.3" fill="#2b2b2b"/>
<rect x="-5.8" y="43.1" width="17.4" height="2.6" rx="1.3" fill="#2b2b2b"/>
<rect x="17.7" y="40.8" width="14.6" height="2.6" rx="1.3" fill="#2b2b2b"/>
<rect x="48.3" y="40.9" width="18.2" height="2.6" rx="1.3" fill="#2b2b2b"/></g>
<g transform="translate(-48 0)"><rect x="-10.8" y="7.1" width="14.6" height="2.6" rx="1.3" fill="#2b2b2b"/>
<rect x="18.5" y="5.7" width="10.9" height="2.6" rx="1.3" fill="#2b2b2b"/>
<rect x="36.2" y="6.6" width="14.0" height="2.6" rx="1.3" fill="#2b2b2b"/>
<rect x="-4.6" y="13.8" width="13.9" height="2.6" rx="1.3" fill="#2b2b2b"/>
<rect x="25.0" y="14.7" width="15.6" height="2.6" rx="1.3" fill="#2b2b2b"/>
<rect x="49.2" y="15.6" width="12.5" height="2.6" rx="1.3" fill="#2b2b2b"/>
<rect x="-4.4" y="24.4" width="13.5" height="2.6" rx="1.3" fill="#2b2b2b"/>
<rect x="18.8" y="23.4" width="12.9" height="2.6" rx="1.3" fill="#2b2b2b"/>
<rect x="46.1" y="24.5" width="8.5" height="2.6" rx="1.3" fill="#2b2b2b"/>
<rect x="-3.0" y="33.9" width="13.6" height="2.6" rx="1.3" fill="#2b2b2b"/>
<rect x="23.5" y="32.9" width="11.0" height="2.6" rx="1.3" fill="#2b2b2b"/>
<rect x="43.0" y="33.6" width="12.2" height="2.6" rx="1.3" fill="#2b2b2b"/>
<rect x="-5.8" y="43.1" width="17.4" height="2.6" rx="1.3" fill="#2b2b2b"/>
<rect x="17.7" y="40.8" width="14.6" height="2.6" rx="1.3" fill="#2b2b2b"/>
<rect x="48.3" y="40.9" width="18.2" height="2.6" rx="1.3" fill="#2b2b2b"/></g>
<g transform="translate(-48 48)"><rect x="-10.8" y="7.1" width="14.6" height="2.6" rx="1.3" fill="#2b2b2b"/>
<rect x="18.5" y="5.7" width="10.9" height="2.6" rx="1.3" fill="#2b2b2b"/>
<rect x="36.2" y="6.6" width="14.0" height="2.6" rx="1.3" fill="#2b2b2b"/>
<rect x="-4.6" y="13.8" width="13.9" height="2.6" rx="1.3" fill="#2b2b2b"/>
<rect x="25.0" y="14.7" width="15.6" height="2.6" rx="1.3" fill="#2b2b2b"/>
<rect x="49.2" y="15.6" width="12.5" height="2.6" rx="1.3" fill="#2b2b2b"/>
<rect x="-4.4" y="24.4" width="13.5" height="2.6" rx="1.3" fill="#2b2b2b"/>
<rect x="18.8" y="23.4" width="12.9" height="2.6" rx="1.3" fill="#2b2b2b"/>
<rect x="46.1" y="24.5" width="8.5" height="2.6" rx="1.3" fill="#2b2b2b"/>
<rect x="-3.0" y="33.9" width="13.6" height="2.6" rx="1.3" fill="#2b2b2b"/>
<rect x="23.5" y="32.9" width="11.0" height="2.6" rx="1.3" fill="#2b2b2b"/>
<rect x="43.0" y="33.6" width="12.2" height="2.6" rx="1.3" fill="#2b2b2b"/>
<rect x="-5.8" y="43.1" width="17.4" height="2.6" rx="1.3" fill="#2b2b2b"/>
<rect x="17.7" y="40.8" width="14.6" height="2.6" rx="1.3" fill="#2b2b2b"/>
<rect x="48.3" y="40.9" width="18.2" height="2.6" rx="1.3" fill="#2b2b2b"/></g>
<g transform="translate(0 -48)"><rect x="-10.8" y="7.1" width="14.6" height="2.6" rx="1.3" fill="#2b2b2b"/>
<rect x="18.5" y="5.7" width="10.9" height="2.6" rx="1.3" fill="#2b2b2b"/>
<rect x="36.2" y="6.6" width="14.0" height="2.6" rx="1.3" fill="#2b2b2b"/>
<rect x="-4.6" y="13.8" width="13.9" height="2.6" rx="1.3" fill="#2b2b2b"/>
<rect x="25.0" y="14.7" width="15.6" height="2.6" rx="1.3" fill="#2b2b2b"/>
<rect x="49.2" y="15.6" width="12.5" height="2.6" rx="1.3" fill="#2b2b2b"/>
<rect x="-4.4" y="24.4" width="13.5" height="2.6" rx="1.3" fill="#2b2b2b"/>
<rect x="18.8" y="23.4" width="12.9" height="2.6" rx="1.3" fill="#2b2b2b"/>
<rect x="46.1" y="24.5" width="8.5" height="2.6" rx="1.3" fill="#2b2b2b"/>
<rect x="-3.0" y="33.9" width="13.6" height="2.6" rx="1.3" fill="#2b2b2b"/>
<rect x="23.5" y="32.9" width="11.0" height="2.6" rx="1.3" fill="#2b2b2b"/>
<rect x="43.0" y="33.6" width="12.2" height="2.6" rx="1.3" fill="#2b2b2b"/>
<rect x="-5.8" y="43.1" width="17.4" height="2.6" rx="1.3" fill="#2b2b2b"/>
<rect x="17.7" y="40.8" width="14.6" height="2.6" rx="1.3" fill="#2b2b2b"/>
<rect x="48.3" y="40.9" width="18.2" height="2.6" rx="1.3" fill="#2b2b2b"/></g>
<g transform="translate(0 0)"><rect x="-10.8" y="7.1" width="14.6" height="2.6" rx="1.3" fill="#2b2b2b"/>
<rect x="18.5" y="5.7" width="10.9" height="2.6" rx="1.3" fill="#2b2b2b"/>
<rect x="36.2" y="6.6" width="14.0" height="2.6" rx="1.3" fill="#2b2b2b"/>
<rect x="-4.6" y="13.8" width="13.9" height="2.6" rx="1.3" fill="#2b2b2b"/>
<rect x="25.0" y="14.7" width="15.6" height="2.6" rx="1.3" fill="#2b2b2b"/>
<rect x="49.2" y="15.6" width="12.5" height="2.6" rx="1.3" fill="#2b2b2b"/>
<rect x="-4.4" y="24.4" width="13.5" height="2.6" rx="1.3" fill="#2b2b2b"/>
<rect x="18.8" y="23.4" width="12.9" height="2.6" rx="1.3" fill="#2b2b2b"/>
<rect x="46.1" y="24.5" width="8.5" height="2.6" rx="1.3" fill="#2b2b2b"/>
<rect x="-3.0" y="33.9" width="13.6" height="2.6" rx="1.3" fill="#2b2b2b"/>
<rect x="23.5" y="32.9" width="11.0" height="2.6" rx="1.3" fill="#2b2b2b"/>
<rect x="43.0" y="33.6" width="12.2" height="2.6" rx="1.3" fill="#2b2b2b"/>
<rect x="-5.8" y="43.1" width="17.4" height="2.6" rx="1.3" fill="#2b2b2b"/>
<rect x="17.7" y="40.8" width="14.6" height="2.6" rx="1.3" fill="#2b2b2b"/>
<rect x="48.3" y="40.9" width="18.2" height="2.6" rx="1.3" fill="#2b2b2b"/></g>
<g transform="translate(0 48)"><rect x="-10.8" y="7.1" width="14.6" height="2.6" rx="1.3" fill="#2b2b2b"/>
<rect x="18.5" y="5.7" width="10.9" height="2.6" rx="1.3" fill="#2b2b2b"/>
<rect x="36.2" y="6.6" width="14.0" height="2.6" rx="1.3" fill="#2b2b2b"/>
<rect x="-4.6" y="13.8" width="13.9" height="2.6" rx="1.3" fill="#2b2b2b"/>
<rect x="25.0" y="14.7" width="15.6" height="2.6" rx="1.3" fill="#2b2b2b"/>
<rect x="49.2" y="15.6" width="12.5" height="2.6" rx="1.3" fill="#2b2b2b"/>
<rect x="-4.4" y="24.4" width="13.5" height="2.6" rx="1.3" fill="#2b2b2b"/>
<rect x="18.8" y="23.4" width="12.9" height="2.6" rx="1.3" fill="#2b2b2b"/>
<rect x="46.1" y="24.5" width="8.5" height="2.6" rx="1.3" fill="#2b2b2b"/>
<rect x="-3.0" y="33.9" width="13.6" height="2.6" rx="1.3" fill="#2b2b2b"/>
<rect x="23.5" y="32.9" width="11.0" height="2.6" rx="1.3" fill="#2b2b2b"/>
<rect x="43.0" y="33.6" width="12.2" height="2.6" rx="1.3" fill="#2b2b2b"/>
<rect x="-5.8" y="43.1" width="17.4" height="2.6" rx="1.3" fill="#2b2b2b"/>
<rect x="17.7" y="40.8" width="14.6" height="2.6" rx="1.3" fill="#2b2b2b"/>
<rect x="48.3" y="40.9" width="18.2" height="2.6" rx="1.3" fill="#2b2b2b"/></g>
<g transform="translate(48 -48)"><rect x="-10.8" y="7.1" width="14.6" height="2.6" rx="1.3" fill="#2b2b2b"/>
<rect x="18.5" y="5.7" width="10.9" height="2.6" rx="1.3" fill="#2b2b2b"/>
<rect x="36.2" y="6.6" width="14.0" height="2.6" rx="1.3" fill="#2b2b2b"/>
<rect x="-4.6" y="13.8" width="13.9" height="2.6" rx="1.3" fill="#2b2b2b"/>
<rect x="25.0" y="14.7" width="15.6" height="2.6" rx="1.3" fill="#2b2b2b"/>
<rect x="49.2" y="15.6" width="12.5" height="2.6" rx="1.3" fill="#2b2b2b"/>
<rect x="-4.4" y="24.4" width="13.5" height="2.6" rx="1.3" fill="#2b2b2b"/>
<rect x="18.8" y="23.4" width="12.9" height="2.6" rx="1.3" fill="#2b2b2b"/>
<rect x="46.1" y="24.5" width="8.5" height="2.6" rx="1.3" fill="#2b2b2b"/>
<rect x="-3.0" y="33.9" width="13.6" height="2.6" rx="1.3" fill="#2b2b2b"/>
<rect x="23.5" y="32.9" width="11.0" height="2.6" rx="1.3" fill="#2b2b2b"/>
<rect x="43.0" y="33.6" width="12.2" height="2.6" rx="1.3" fill="#2b2b2b"/>
<rect x="-5.8" y="43.1" width="17.4" height="2.6" rx="1.3" fill="#2b2b2b"/>
<rect x="17.7" y="40.8" width="14.6" height="2.6" rx="1.3" fill="#2b2b2b"/>
<rect x="48.3" y="40.9" width="18.2" height="2.6" rx="1.3" fill="#2b2b2b"/></g>
<g transform="translate(48 0)"><rect x="-10.8" y="7.1" width="14.6" height="2.6" rx="1.3" fill="#2b2b2b"/>
<rect x="18.5" y="5.7" width="10.9" height="2.6" rx="1.3" fill="#2b2b2b"/>
<rect x="36.2" y="6.6" width="14.0" height="2.6" rx="1.3" fill="#2b2b2b"/>
<rect x="-4.6" y="13.8" width="13.9" height="2.6" rx="1.3" fill="#2b2b2b"/>
<rect x="25.0" y="14.7" width="15.6" height="2.6" rx="1.3" fill="#2b2b2b"/>
<rect x="49.2" y="15.6" width="12.5" height="2.6" rx="1.3" fill="#2b2b2b"/>
<rect x="-4.4" y="24.4" width="13.5" height="2.6" rx="1.3" fill="#2b2b2b"/>
<rect x="18.8" y="23.4" width="12.9" height="2.6" rx="1.3" fill="#2b2b2b"/>
<rect x="46.1" y="24.5" width="8.5" height="2.6" rx="1.3" fill="#2b2b2b"/>
<rect x="-3.0" y="33.9" width="13.6" height="2.6" rx="1.3" fill="#2b2b2b"/>
<rect x="23.5" y="32.9" width="11.0" height="2.6" rx="1.3" fill="#2b2b2b"/>
<rect x="43.0" y="33.6" width="12.2" height="2.6" rx="1.3" fill="#2b2b2b"/>
<rect x="-5.8" y="43.1" width="17.4" height="2.6" rx="1.3" fill="#2b2b2b"/>
<rect x="17.7" y="40.8" width="14.6" height="2.6" rx="1.3" fill="#2b2b2b"/>
<rect x="48.3" y="40.9" width="18.2" height="2.6" rx="1.3" fill="#2b2b2b"/></g>
<g transform="translate(48 48)"><rect x="-10.8" y="7.1" width="14.6" height="2.6" rx="1.3" fill="#2b2b2b"/>
<rect x="18.5" y="5.7" width="10.9" height="2.6" rx="1.3" fill="#2b2b2b"/>
<rect x="36.2" y="6.6" width="14.0" height="2.6" rx="1.3" fill="#2b2b2b"/>
<rect x="-4.6" y="13.8" width="13.9" height="2.6" rx="1.3" fill="#2b2b2b"/>
<rect x="25.0" y="14.7" width="15.6" height="2.6" rx="1.3" fill="#2b2b2b"/>
<rect x="49.2" y="15.6" width="12.5" height="2.6" rx="1.3" fill="#2b2b2b"/>
<rect x="-4.4" y="24.4" width="13.5" height="2.6" rx="1.3" fill="#2b2b2b"/>
<rect x="18.8" y="23.4" width="12.9" height="2.6" rx="1.3" fill="#2b2b2b"/>
<rect x="46.1" y="24.5" width="8.5" height="2.6" rx="1.3" fill="#2b2b2b"/>
<rect x="-3.0" y="33.9" width="13.6" height="2.6" rx="1.3" fill="#2b2b2b"/>
<rect x="23.5" y="32.9" width="11.0" height="2.6" rx="1.3" fill="#2b2b2b"/>
<rect x="43.0" y="33.6" width="12.2" height="2.6" rx="1.3" fill="#2b2b2b"/>
<rect x="-5.8" y="43.1" width="17.4" height="2.6" rx="1.3" fill="#2b2b2b"/>
<rect x="17.7" y="40.8" width="14.6" height="2.6" rx="1.3" fill="#2b2b2b"/>
<rect x="48.3" y="40.9" width="18.2" height="2.6" rx="1.3" fill="#2b2b2b"/></g></pattern></defs>
<rect width="120" height="120" fill="url(#pat_P)" stroke="black" stroke-width="1"/>
</svg>
