<svg xmlns="http://www.w3.org/2000/svg" width="120" height="120" viewBox="0 0 120 120">
<defs><clipPath id="clip52"><rect width="52" height="52"/></clipPath><pattern id="pat_R" patternUnits="userSpaceOnUse" width="52" height="52"><rect width="52" height="52" fill="white"/><g transform="translate(-52 -52)"><line x1="21.5" y1="28.4" x2="12.2" y2="32.1" stroke="#333" stroke-width="1.1"/>
<line x1="15.9" y1="27.9" x2="17.7" y2="32.5" stroke="#333" stroke-width="1.1"/>
<line x1="46.3" y1="-0.4" x2="43.9" y2="9.4" stroke="#333" stroke-width="1.1"/>
<line x1="42.7" y1="3.9" x2="47.5" y2="5.1" stroke="#333" stroke-width="1.1"/>
<line x1="19.3" y1="19.0" x2="21.5" y2="28.7" stroke="#333" stroke-width="1.1"/>
<line x1="18.0" y1="24.4" x2="22.8" y2="23.3" stroke="#333" stroke-width="1.1"/>
<line x1="11.4" y1="26.9" x2="15.7" y2="35.9" stroke="#333" stroke-width="1.1"/>
<line x1="11.3" y1="32.5" x2="15.8" y2="30.3" stroke="#333" stroke-width="1.1"/>
<line x1="43.7" y1="9.2" x2="53.4" y2="11.8" stroke="#333" stroke-width="1.1"/>
<line x1="47.9" y1="12.9" x2="49.2" y2="8.1" stroke="#333" stroke-width="1.1"/>
<line x1="13.6" y1="1.2" x2="20.8" y2="8.1" stroke="#333" stroke-width="1.1"/>
<line x1="15.5" y1="6.5" x2="18.9" y2="2.9" stroke="#333" stroke-width="1.1"/>
<line x1="25.0" y1="39.6" x2="34.7" y2="42.1" stroke="#333" stroke-width="1.1"/>
<line x1="29.2" y1="43.2" x2="30.5" y2="38.4" stroke="#333" stroke-width="1.1"/>
<line x1="51.6" y1="0.5" x2="48.1" y2="9.8" stroke="#333" stroke-width="1.1"/>
<line x1="47.5" y1="4.3" x2="52.2" y2="6.0" stroke="#333" stroke-width="1.1"/>
<line x1="36.9" y1="7.6" x2="33.8" y2="17.2" stroke="#333" stroke-width="1.1"/>
<line x1="32.9" y1="11.6" x2="37.7" y2="13.2" stroke="#333" stroke-width="1.1"/>
<line x1="35.0" y1="30.9" x2="36.5" y2="40.8" stroke="#333" stroke-width="1.1"/>
<line x1="33.3" y1="36.2" x2="38.2" y2="35.5" stroke="#333" stroke-width="1.1"/>
<line x1="40.3" y1="-2.0" x2="34.6" y2="6.2" stroke="#333" stroke-width="1.1"/>
<line x1="35.4" y1="0.7" x2="39.5" y2="3.6" stroke="#333" stroke-width="1.1"/></g>
<g transform="translate(-52 0)"><line x1="21.5" y1="28.4" x2="12.2" y2="32.1" stroke="#333" stroke-width="1.1"/>
<line x1="15.9" y1="27.9" x2="17.7" y2="32.5" stroke="#333" stroke-width="1.1"/>
<line x1="46.3" y1="-0.4" x2="43.9" y2="9.4" stroke="#333" stroke-width="1.1"/>
<line x1="42.7" y1="3.9" x2="47.5" y2="5.1" stroke="#333" stroke-width="1.1"/>
<line x1="19.3" y1="19.0" x2="21.5" y2="28.7" stroke="#333" stroke-width="1.1"/>
<line x1="18.0" y1="24.4" x2="22.8" y2="23.3" stroke="#333" stroke-width="1.1"/>
<line x1="11.4" y1="26.9" x2="15.7" y2="35.9" stroke="#333" stroke-width="1.1"/>
<line x1="11.3" y1="32.5" x2="15.8" y2="30.3" stroke="#333" stroke-width="1.1"/>
<line x1="43.7" y1="9.2" x2="53.4" y2="11.8" stroke="#333" stroke-width="1.1"/>
<line x1="47.9" y1="12.9" x2="49.2" y2="8.1" stroke="#333" stroke-width="1.1"/>
<line x1="13.6" y1="1.2" x2="20.8" y2="8.1" stroke="#333" stroke-width="1.1"/>
<line x1="15.5" y1="6.5" x2="18.9" y2="2.9" stroke="#333" stroke-width="1.1"/>
<line x1="25.0" y1="39.6" x2="34.7" y2="42.1" stroke="#333" stroke-width="1.1"/>
<line x1="29.2" y1="43.2" x2="30.5" y2="38.4" stroke="#333" stroke-width="1.1"/>
<line x1="51.6" y1="0.5" x2="48.1" y2="9.8" stroke="#333" stroke-width="1.1"/>
<line x1="47.5" y1="4.3" x2="52.2" y2="6.0" stroke="#333" stroke-width="1.1"/>
<line x1="36.9" y1="7.6" x2="33.8" y2="17.2" stroke="#333" stroke-width="1.1"/>
<line x1="32.9" y1="11.6" x2="37.7" y2="13.2" stroke="#333" stroke-width="1.1"/>
<line x1="35.0" y1="30.9" x2="36.5" y2="40.8" stroke="#333" stroke-width="1.1"/>
<line x1="33.3" y1="36.2" x2="38.2" y2="35.5" stroke="#333" stroke-width="1.1"/>
<line x1="40.3" y1="-2.0" x2="34.6" y2="6.2" stroke="#333" stroke-width="1.1"/>
<line x1="35.4" y1="0.7" x2="39.5" y2="3.6" stroke="#333" stroke-width="1.1"/></g>
<g transform="translate(-52 52)"><line x1="21.5" y1="28.4" x2="12.2" y2="32.1" stroke="#333" stroke-width="1.1"/>
<line x1="15.9" y1="27.9" x2="17.7" y2="32.5" stroke="#333" stroke-width="1.1"/>
<line x1="46.3" y1="-0.4" x2="43.9" y2="9.4" stroke="#333" stroke-width="1.1"/>
<line x1="42.7" y1="3.9" x2="47.5" y2="5.1" stroke="#333" stroke-width="1.1"/>
<line x1="19.3" y1="19.0" x2="21.5" y2="28.7" stroke="#333" stroke-width="1.1"/>
<line x1="18.0" y1="24.4" x2="22.8" y2="23.3" stroke="#333" stroke-width="1.1"/>
<line x1="11.4" y1="26.9" x2="15.7" y2="35.9" stroke="#333" stroke-width="1.1"/>
<line x1="11.3" y1="32.5" x2="15.8" y2="30.3" stroke="#333" stroke-width="1.1"/>
<line x1="43.7" y1="9.2" x2="53.4" y2="11.8" stroke="#333" stroke-width="1.1"/>
<line x1="47.9" y1="12.9" x2="49.2" y2="8.1" stroke="#333" stroke-width="1.1"/>
<line x1="13.6" y1="1.2" x2="20.8" y2="8.1" stroke="#333" stroke-width="1.1"/>
<line x1="15.5" y1="6.5" x2="18.9" y2="2.9" stroke="#333" stroke-width="1.1"/>
<line x1="25.0" y1="39.6" x2="34.7" y2="42.1" stroke="#333" stroke-width="1.1"/>
<line x1="29.2" y1="43.2" x2="30.5" y2="38.4" stroke="#333" stroke-width="1.1"/>
<line x1="51.6" y1="0.5" x2="48.1" y2="9.8" stroke="#333" stroke-width="1.1"/>
<line x1="47.5" y1="4.3" x2="52.2" y2="6.0" stroke="#333" stroke-width="1.1"/>
<line x1="36.9" y1="7.6" x2="33.8" y2="17.2" stroke="#333" stroke-width="1.1"/>
<line x1="32.9" y1="11.6" x2="37.7" y2="13.2" stroke="#333" stroke-width="1.1"/>
<line x1="35.0" y1="30.9" x2="36.5" y2="40.8" stroke="#333" stroke-width="1.1"/>
<line x1="33.3" y1="36.2" x2="38.2" y2="35.5" stroke="#333" stroke-width="1.1"/>
<line x1="40.3" y1="-2.0" x2="34.6" y2="6.2" stroke="#333" stroke-width="1.1"/>
<line x1="35.4" y1="0.7" x2="39.5" y2="3.6" stroke="#333" stroke-width="1.1"/></g>
<g transform="translate(0 -52)"><line x1="21.5" y1="28.4" x2="12.2" y2="32.1" stroke="#333" stroke-width="1.1"/>
<line x1="15.9" y1="27.9" x2="17.7" y2="32.5" stroke="#333" stroke-width="1.1"/>
<line x1="46.3" y1="-0.4" x2="43.9" y2="9.4" stroke="#333" stroke-width="1.1"/>
<line x1="42.7" y1="3.9" x2="47.5" y2="5.1" stroke="#333" stroke-width="1.1"/>
<line x1="19.3" y1="19.0" x2="21.5" y2="28.7" stroke="#333" stroke-width="1.1"/>
<line x1="18.0" y1="24.4" x2="22.8" y2="23.3" stroke="#333" stroke-width="1.1"/>
<line x1="11.4" y1="26.9" x2="15.7" y2="35.9" stroke="#333" stroke-width="1.1"/>
<line x1="11.3" y1="32.5" x2="15.8" y2="30.3" stroke="#333" stroke-width="1.1"/>
<line x1="43.7" y1="9.2" x2="53.4" y2="11.8" stroke="#333" stroke-width="1.1"/>
<line x1="47.9" y1="12.9" x2="49.2" y2="8.1" stroke="#333" stroke-width="1.1"/>
<line x1="13.6" y1="1.2" x2="20.8" y2="8.1" stroke="#333" stroke-width="1.1"/>
<line x1="15.5" y1="6.5" x2="18.9" y2="2.9" stroke="#333" stroke-width="1.1"/>
<line x1="25.0" y1="39.6" x2="34.7" y2="42.1" stroke="#333" stroke-width="1.1"/>
<line x1="29.2" y1="43.2" x2="30.5" y2="38.4" stroke="#333" stroke-width="1.1"/>
<line x1="51.6" y1="0.5" x2="48.1" y2="9.8" stroke="#333" stroke-width="1.1"/>
<line x1="47.5" y1="4.3" x2="52.2" y2="6.0" stroke="#333" stroke-width="1.1"/>
<line x1="36.9" y1="7.6" x2="33.8" y2="17.2" stroke="#333" stroke-width="1.1"/>
<line x1="32.9" y1="11.6" x2="37.7" y2="13.2" stroke="#333" stroke-width="1.1"/>
<line x1="35.0" y1="30.9" x2="36.5" y2="40.8" stroke="#333" stroke-width="1.1"/>
<line x1="33.3" y1="36.2" x2="38.2" y2="35.5" stroke="#333" stroke-width="1.1"/>
<line x1="40.3" y1="-2.0" x2="34.6" y2="6.2" stroke="#333" stroke-width="1.1"/>
<line x1="35.4" y1="0.7" x2="39.5" y2="3.6" stroke="#333" stroke-width="1.1"/></g>
<g transform="translate(0 0)"><line x1="21.5" y1="28.4" x2="12.2" y2="32.1" stroke="#333" stroke-width="1.1"/>
<line x1="15.9" y1="27.9" x2="17.7" y2="32.5" stroke="#333" stroke-width="1.1"/>
<line x1="46.3" y1="-0.4" x2="43.9" y2="9.4" stroke="#333" stroke-width="1.1"/>
<line x1="42.7" y1="3.9" x2="47.5" y2="5.1" stroke="#333" stroke-width="1.1"/>
<line x1="19.3" y1="19.0" x2="21.5" y2="28.7" stroke="#333" stroke-width="1.1"/>
<line x1="18.0" y1="24.4" x2="22.8" y2="23.3" stroke="#333" stroke-width="1.1"/>
<line x1="11.4" y1="26.9" x2="15.7" y2="35.9" stroke="#333" stroke-width="1.1"/>
<line x1="11.3" y1="32.5" x2="15.8" y2="30.3" stroke="#333" stroke-width="1.1"/>
<line x1="43.7" y1="9.2" x2="53.4" y2="11.8" stroke="#333" stroke-width="1.1"/>
<line x1="47.9" y1="12.9" x2="49.2" y2="8.1" stroke="#333" stroke-width="1.1"/>
<line x1="13.6" y1="1.2" x2="20.8" y2="8.1" stroke="#333" stroke-width="1.1"/>
<line x1="15.5" y1="6.5" x2="18.9" y2="2.9" stroke="#333" stroke-width="1.1"/>
<line x1="25.0" y1="39.6" x2="34.7" y2="42.1" stroke="#333" stroke-width="1.1"/>
<line x1="29.2" y1="43.2" x2="30.5" y2="38.4" stroke="#333" stroke-width="1.1"/>
<line x1="51.6" y1="0.5" x2="48.1" y2="9.8" stroke="#333" stroke-width="1.1"/>
<line x1="47.5" y1="4.3" x2="52.2" y2="6.0" stroke="#333" stroke-width="1.1"/>
<line x1="36.9" y1="7.6" x2="33.8" y2="17.2" stroke="#333" stroke-width="1.1"/>
<line x1="32.9" y1="11.6" x2="37.7" y2="13.2" stroke="#333" stroke-width="1.1"/>
<line x1="35.0" y1="30.9" x2="36.5" y2="40.8" stroke="#333" stroke-width="1.1"/>
<line x1="33.3" y1="36.2" x2="38.2" y2="35.5" stroke="#333" stroke-width="1.1"/>
<line x1="40.3" y1="-2.0" x2="34.6" y2="6.2" stroke="#333" stroke-width="1.1"/>
<line x1="35.4" y1="0.7" x2="39.5" y2="3.6" stroke="#333" stroke-width="1.1"/></g>
<g transform="translate(0 52)"><line x1="21.5" y1="28.4" x2="12.2" y2="32.1" stroke="#333" stroke-width="1.1"/>
<line x1="15.9" y1="27.9" x2="17.7" y2="32.5" stroke="#333" stroke-width="1.1"/>
<line x1="46.3" y1="-0.4" x2="43.9" y2="9.4" stroke="#333" stroke-width="1.1"/>
<line x1="42.7" y1="3.9" x2="47.5" y2="5.1" stroke="#333" stroke-width="1.1"/>
<line x1="19.3" y1="19.0" x2="21.5" y2="28.7" stroke="#333" stroke-width="1.1"/>
<line x1="18.0" y1="24.4" x2="22.8" y2="23.3" stroke="#333" stroke-width="1.1"/>
<line x1="11.4" y1="26.9" x2="15.7" y2="35.9" stroke="#333" stroke-width="1.1"/>
<line x1="11.3" y1="32.5" x2="15.8" y2="30.3" stroke="#333" stroke-width="1.1"/>
<line x1="43.7" y1="9.2" x2="53.4" y2="11.8" stroke="#333" stroke-width="1.1"/>
<line x1="47.9" y1="12.9" x2="49.2" y2="8.1" stroke="#333" stroke-width="1.1"/>
<line x1="13.6" y1="1.2" x2="20.8" y2="8.1" stroke="#333" stroke-width="1.1"/>
<line x1="15.5" y1="6.5" x2="18.9" y2="2.9" stroke="#333" stroke-width="1.1"/>
<line x1="25.0" y1="39.6" x2="34.7" y2="42.1" stroke="#333" stroke-width="1.1"/>
<line x1="29.2" y1="43.2" x2="30.5" y2="38.4" stroke="#333" stroke-width="1.1"/>
<line x1="51.6" y1="0.5" x2="48.1" y2="9.8" stroke="#333" stroke-width="1.1"/>
<line x1="47.5" y1="4.3" x2="52.2" y2="6.0" stroke="#333" stroke-width="1.1"/>
<line x1="36.9" y1="7.6" x2="33.8" y2="17.2" stroke="#333" stroke-width="1.1"/>
<line x1="32.9" y1="11.6" x2="37.7" y2="13.2" stroke="#333" stroke-width="1.1"/>
<line x1="35.0" y1="30.9" x2="36.5" y2="40.8" stroke="#333" stroke-width="1.1"/>
<line x1="33.3" y1="36.2" x2="38.2" y2="35.5" stroke="#333" stroke-width="1.1"/>
<line x1="40.3" y1="-2.0" x2="34.6" y2="6.2" stroke="#333" stroke-width="1.1"/>
<line x1="35.4" y1="0.7" x2="39.5" y2="3.6" stroke="#333" stroke-width="1.1"/></g>
<g transform="translate(52 -52)"><line x1="21.5" y1="28.4" x2="12.2" y2="32.1" stroke="#333" stroke-width="1.1"/>
<line x1="15.9" y1="27.9" x2="17.7" y2="32.5" stroke="#333" stroke-width="1.1"/>
<line x1="46.3" y1="-0.4" x2="43.9" y2="9.4" stroke="#333" stroke-width="1.1"/>
<line x1="42.7" y1="3.9" x2="47.5" y2="5.1" stroke="#333" stroke-width="1.1"/>
<line x1="19.3" y1="19.0" x2="21.5" y2="28.7" stroke="#333" stroke-width="1.1"/>
<line x1="18.0" y1="24.4" x2="22.8" y2="23.3" stroke="#333" stroke-width="1.1"/>
<line x1="11.4" y1="26.9" x2="15.7" y2="35.9" stroke="#333" stroke-width="1.1"/>
<line x1="11.3" y1="32.5" x2="15.8" y2="30.3" stroke="#333" stroke-width="1.1"/>
<line x1="43.7" y1="9.2" x2="53.4" y2="11.8" stroke="#333" stroke-width="1.1"/>
<line x1="47.9" y1="12.9" x2="49.2" y2="8.1" stroke="#333" stroke-width="1.1"/>
<line x1="13.6" y1="1.2" x2="20.8" y2="8.1" stroke="#333" stroke-width="1.1"/>
<line x1="15.5" y1="6.5" x2="18.9" y2="2.9" stroke="#333" stroke-width="1.1"/>
<line x1="25.0" y1="39.6" x2="34.7" y2="42.1" stroke="#333" stroke-width="1.1"/>
<line x1="29.2" y1="43.2" x2="30.5" y2="38.4" stroke="#333" stroke-width="1.1"/>
<line x1="51.6" y1="0.5" x2="48.1" y2="9.8" stroke="#333" stroke-width="1.1"/>
<line x1="47.5" y1="4.3" x2="52.2" y2="6.0" stroke="#333" stroke-width="1.1"/>
<line x1="36.9" y1="7.6" x2="33.8" y2="17.2" stroke="#333" stroke-width="1.1"/>
<line x1="32.9" y1="11.6" x2="37.7" y2="13.2" stroke="#333" stroke-width="1.1"/>
<line x1="35.0" y1="30.9" x2="36.5" y2="40.8" stroke="#333" stroke-width="1.1"/>
<line x1="33.3" y1="36.2" x2="38.2" y2="35.5" stroke="#333" stroke-width="1.1"/>
<line x1="40.3" y1="-2.0" x2="34.6" y2="6.2" stroke="#333" stroke-width="1.1"/>
<line x1="35.4" y1="0.7" x2="39.5" y2="3.6" stroke="#333" stroke-width="1.1"/></g>
<g transform="translate(52 0)"><line x1="21.5" y1="28.4" x2="12.2" y2="32.1" stroke="#333" stroke-width="1.1"/>
<line x1="15.9" y1="27.9" x2="17.7" y2="32.5" stroke="#333" stroke-width="1.1"/>
<line x1="46.3" y1="-0.4" x2="43.9" y2="9.4" stroke="#333" stroke-width="1.1"/>
<line x1="42.7" y1="3.9" x2="47.5" y2="5.1" stroke="#333" stroke-width="1.1"/>
<line x1="19.3" y1="19.0" x2="21.5" y2="28.7" stroke="#333" stroke-width="1.1"/>
<line x1="18.0" y1="24.4" x2="22.8" y2="23.3" stroke="#333" stroke-width="1.1"/>
<line x1="11.4" y1="26.9" x2="15.7" y2="35.9" stroke="#333" stroke-width="1.1"/>
<line x1="11.3" y1="32.5" x2="15.8" y2="30.3" stroke="#333" stroke-width="1.1"/>
<line x1="43.7" y1="9.2" x2="53.4" y2="11.8" stroke="#333" stroke-width="1.1"/>
<line x1="47.9" y1="12.9" x2="49.2" y2="8.1" stroke="#333" stroke-width="1.1"/>
<line x1="13.6" y1="1.2" x2="20.8" y2="8.1" stroke="#333" stroke-width="1.1"/>
<line x1="15.5" y1="6.5" x2="18.9" y2="2.9" stroke="#333" stroke-width="1.1"/>
<line x1="25.0" y1="39.6" x2="34.7" y2="42.1" stroke="#333" stroke-width="1.1"/>
<line x1="29.2" y1="43.2" x2="30.5" y2="38.4" stroke="#333" stroke-width="1.1"/>
<line x1="51.6" y1="0.5" x2="48.1" y2="9.8" stroke="#333" stroke-width="1.1"/>
<line x1="47.5" y1="4.3" x2="52.2" y2="6.0" stroke="#333" stroke-width="1.1"/>
<line x1="36.9" y1="7.6" x2="33.8" y2="17.2" stroke="#333" stroke-width="1.1"/>
<line x1="32.9" y1="11.6" x2="37.7" y2="13.2" stroke="#333" stroke-width="1.1"/>
<line x1="35.0" y1="30.9" x2="36.5" y2="40.8" stroke="#333" stroke-width="1.1"/>
<line x1="33.3" y1="36.2" x2="38.2" y2="35.5" stroke="#333" stroke-width="1.1"/>
<line x1="40.3" y1="-2.0" x2="34.6" y2="6.2" stroke="#333" stroke-width="1.1"/>
<line x1="35.4" y1="0.7" x2="39.5" y2="3.6" stroke="#333" stroke-width="1.1"/></g>
<g transform="translate(52 52)"><line x1="21.5" y1="28.4" x2="12.2" y2="32.1" stroke="#333" stroke-width="1.1"/>
<line x1="15.9" y1="27.9" x2="17.7" y2="32.5" stroke="#333" stroke-width="1.1"/>
<line x1="46.3" y1="-0.4" x2="43.9" y2="9.4" stroke="#333" stroke-width="1.1"/>
<line x1="42.7" y1="3.9" x2="47.5" y2="5.1" stroke="#333" stroke-width="1.1"/>
<line x1="19.3" y1="19.0" x2="21.5" y2="28.7" stroke="#333" stroke-width="1.1"/>
<line x1="18.0" y1="24.4" x2="22.8" y2="23.3" stroke="#333" stroke-width="1.1"/>
<line x1="11.4" y1="26.9" x2="15.7" y2="35.9" stroke="#333" stroke-width="1.1"/>
<line x1="11.3" y1="32.5" x2="15.8" y2="30.3" stroke="#333" stroke-width="1.1"/>
<line x1="43.7" y1="9.2" x2="53.4" y2="11.8" stroke="#333" stroke-width="1.1"/>
<line x1="47.9" y1="12.9" x2="49.2" y2="8.1" stroke="#333" stroke-width="1.1"/>
<line x1="13.6" y1="1.2" x2="20.8" y2="8.1" stroke="#333" stroke-width="1.1"/>
<line x1="15.5" y1="6.5" x2="18.9" y2="2.9" stroke="#333" stroke-width="1.1"/>
<line x1="25.0" y1="39.6" x2="34.7" y2="42.1" stroke="#333" stroke-width="1.1"/>
<line x1="29.2" y1="43.2" x2="30.5" y2="38.4" stroke="#333" stroke-width="1.1"/>
<line x1="51.6" y1="0.5" x2="48.1" y2="9.8" stroke="#333" stroke-width="1.1"/>
<line x1="47.5" y1="4.3" x2="52.2" y2="6.0" stroke="#333" stroke-width="1.1"/>
<line x1="36.9" y1="7.6" x2="33.8" y2="17.2" stroke="#333" stroke-width="1.1"/>
<line x1="32.9" y1="11.6" x2="37.7" y2="13.2" stroke="#333" stroke-width="1.1"/>
<line x1="35.0" y1="30.9" x2="36.5" y2="40.8" stroke="#333" stroke-width="1.1"/>
<line x1="33.3" y1="36.2" x2="38.2" y2="35.5" stroke="#333" stroke-width="1.1"/>
<line x1="40.3" y1="-2.0" x2="34.6" y2="6.2" stroke="#333" stroke-width="1.1"/>
<line x1="35.4" y1="0.7" x2="39.5" y2="3.6" stroke="#333" stroke-width="1.1"/></g></pattern></defs>
<rect width="120" height="120" fill="url(#pat_R)" stroke="black" stroke-width="1"/>
</svg>
