<svg xmlns="http://www.w3.org/2000/svg" width="120" height="120" viewBox="0 0 120 120">
<defs><clipPath id="clip90"><rect width="90" height="90"/></clipPath><pattern id="pat_SGc" patternUnits="userSpaceOnUse" width="90" height="90"><rect width="90" height="90" fill="white"/><path d="M 0 6 L 29 6 L 29 10 L 61 10 L 61 6 L 90 6" fill="none" stroke="#666" stroke-width="0.8"/>
<path d="M 0 14 L 29 14 L 29 18 L 61 18 L 61 14 L 90 14" fill="none" stroke="#666" stroke-width="0.8"/>
<path d="M 0 22 L 29 22 L 29 26 L 61 26 L 61 22 L 90 22" fill="none" stroke="#666" stroke-width="0.8"/>
<path d="M 0 30 L 29 30 L 29 34 L 61 34 L 61 30 L 90 30" fill="none" stroke="#666" stroke-width="0.8"/>
<path d="M 0 38 L 29 38 L 29 42 L 61 42 L 61 38 L 90 38" fill="none" stroke="#666" stroke-width="0.8"/>
<path d="M 0 46 L 29 46 L 29 50 L 61 50 L 61 46 L 90 46" fill="none" stroke="#666" stroke-width="0.8"/>
<path d="M 0 54 L 29 54 L 29 58 L 61 58 L 61 54 L 90 54" fill="none" stroke="#666" stroke-width="0.8"/>
<path d="M 0 62 L 29 62 L 29 66 L 61 66 L 61 62 L 90 62" fill="none" stroke="#666" stroke-width="0.8"/>
<path d="M 0 70 L 29 70 L 29 74 L 61 74 L 61 70 L 90 70" fill="none" stroke="#666" stroke-width="0.8"/>
<path d="M 0 78 L 29 78 L 29 82 L 61 82 L 61 78 L 90 78" fill="none" stroke="#666" stroke-width="0.8"/>
<path d="M 0 86 L 29 86 L 29 90 L 61 90 L 61 86 L 90 86" fill="none" stroke="#666" stroke-width="0.8"/>
<line x1="29" y1="0" x2="29" y2="90" stroke="#222" stroke-width="1.1"/>
<line x1="61" y1="0" x2="61" y2="90" stroke="#222" stroke-width="1.1"/></pattern></defs>
<rect width="120" height="120" fill="url(#pat_SGc)" stroke="black" stroke-width="1"/>
</svg>
