<svg xmlns="http://www.w3.org/2000/svg" width="120" height="120" viewBox="0 0 120 120">
<defs><clipPath id="clip90"><rect width="90" height="90"/></clipPath><pattern id="pat_SGp" patternUnits="userSpaceOnUse" width="90" height="90"><rect width="90" height="90" fill="white"/><g clip-path="url(#clip90)"><line x1="0" y1="0" x2="90" y2="0" stroke="#222" stroke-width="1.4"/>
<line x1="-90.0" y1="30" x2="-22.6" y2="0" stroke="#6a6a6a" stroke-width="0.8"/>
<line x1="-79.0" y1="30" x2="-11.6" y2="0" stroke="#6a6a6a" stroke-width="0.8"/>
<line x1="-68.0" y1="30" x2="-0.6" y2="0" stroke="#6a6a6a" stroke-width="0.8"/>
<line x1="-57.0" y1="30" x2="10.4" y2="0" stroke="#6a6a6a" stroke-width="0.8"/>
<line x1="-46.0" y1="30" x2="21.4" y2="0" stroke="#6a6a6a" stroke-width="0.8"/>
<line x1="-35.0" y1="30" x2="32.4" y2="0" stroke="#6a6a6a" stroke-width="0.8"/>
<line x1="-24.0" y1="30" x2="43.4" y2="0" stroke="#6a6a6a" stroke-width="0.8"/>
<line x1="-13.0" y1="30" x2="54.4" y2="0" stroke="#6a6a6a" stroke-width="0.8"/>
<line x1="-2.0" y1="30" x2="65.4" y2="0" stroke="#6a6a6a" stroke-width="0.8"/>
<line x1="9.0" y1="30" x2="76.4" y2="0" stroke="#6a6a6a" stroke-width="0.8"/>
<line x1="20.0" y1="30" x2="87.4" y2="0" stroke="#6a6a6a" stroke-width="0.8"/>
<line x1="31.0" y1="30" x2="98.4" y2="0" stroke="#6a6a6a" stroke-width="0.8"/>
<line x1="42.0" y1="30" x2="109.4" y2="0" stroke="#6a6a6a" stroke-width="0.8"/>
<line x1="53.0" y1="30" x2="120.4" y2="0" stroke="#6a6a6a" stroke-width="0.8"/>
<line x1="64.0" y1="30" x2="131.4" y2="0" stroke="#6a6a6a" stroke-width="0.8"/>
<line x1="75.0" y1="30" x2="142.4" y2="0" stroke="#6a6a6a" stroke-width="0.8"/>
<line x1="86.0" y1="30" x2="153.4" y2="0" stroke="#6a6a6a" stroke-width="0.8"/>
<line x1="97.0" y1="30" x2="164.4" y2="0" stroke="#6a6a6a" stroke-width="0.8"/>
<line x1="108.0" y1="30" x2="175.4" y2="0" stroke="#6a6a6a" stroke-width="0.8"/>
<line x1="119.0" y1="30" x2="186.4" y2="0" stroke="#6a6a6a" stroke-width="0.8"/>
<line x1="130.0" y1="30" x2="197.4" y2="0" stroke="#6a6a6a" stroke-width="0.8"/>
<line x1="141.0" y1="30" x2="208.4" y2="0" stroke="#6a6a6a" stroke-width="0.8"/>
<line x1="152.0" y1="30" x2="219.4" y2="0" stroke="#6a6a6a" stroke-width="0.8"/>
<line x1="163.0" y1="30" x2="230.4" y2="0" stroke="#6a6a6a" stroke-width="0.8"/>
<line x1="174.0" y1="30" x2="241.4" y2="0" stroke="#6a6a6a" stroke-width="0.8"/>
<line x1="0" y1="30" x2="90" y2="30" stroke="#222" stroke-width="1.4"/>
<line x1="-90.0" y1="60" x2="-22.6" y2="30" stroke="#6a6a6a" stroke-width="0.8"/>
<line x1="-79.0" y1="60" x2="-11.6" y2="30" stroke="#6a6a6a" stroke-width="0.8"/>
<line x1="-68.0" y1="60" x2="-0.6" y2="30" stroke="#6a6a6a" stroke-width="0.8"/>
<line x1="-57.0" y1="60" x2="10.4" y2="30" stroke="#6a6a6a" stroke-width="0.8"/>
<line x1="-46.0" y1="60" x2="21.4" y2="30" stroke="#6a6a6a" stroke-width="0.8"/>
<line x1="-35.0" y1="60" x2="32.4" y2="30" stroke="#6a6a6a" stroke-width="0.8"/>
<line x1="-24.0" y1="60" x2="43.4" y2="30" stroke="#6a6a6a" stroke-width="0.8"/>
<line x1="-13.0" y1="60" x2="54.4" y2="30" stroke="#6a6a6a" stroke-width="0.8"/>
<line x1="-2.0" y1="60" x2="65.4" y2="30" stroke="#6a6a6a" stroke-width="0.8"/>
<line x1="9.0" y1="60" x2="76.4" y2="30" stroke="#6a6a6a" stroke-width="0.8"/>
<line x1="20.0" y1="60" x2="87.4" y2="30" stroke="#6a6a6a" stroke-width="0.8"/>
<line x1="31.0" y1="60" x2="98.4" y2="30" stroke="#6a6a6a" stroke-width="0.8"/>
<line x1="42.0" y1="60" x2="109.4" y2="30" stroke="#6a6a6a" stroke-width="0.8"/>
<line x1="53.0" y1="60" x2="120.4" y2="30" stroke="#6a6a6a" stroke-width="0.8"/>
<line x1="64.0" y1="60" x2="131.4" y2="30" stroke="#6a6a6a" stroke-width="0.8"/>
<line x1="75.0" y1="60" x2="142.4" y2="30" stroke="#6a6a6a" stroke-width="0.8"/>
<line x1="86.0" y1="60" x2="153.4" y2="30" stroke="#6a6a6a" stroke-width="0.8"/>
<line x1="97.0" y1="60" x2="164.4" y2="30" stroke="#6a6a6a" stroke-width="0.8"/>
<line x1="108.0" y1="60" x2="175.4" y2="30" stroke="#6a6a6a" stroke-width="0.8"/>
<line x1="119.0" y1="60" x2="186.4" y2="30" stroke="#6a6a6a" stroke-width="0.8"/>
<line x1="130.0" y1="60" x2="197.4" y2="30" stroke="#6a6a6a" stroke-width="0.8"/>
<line x1="141.0" y1="60" x2="208.4" y2="30" stroke="#6a6a6a" stroke-width="0.8"/>
<line x1="152.0" y1="60" x2="219.4" y2="30" stroke="#6a6a6a" stroke-width="0.8"/>
<line x1="163.0" y1="60" x2="230.4" y2="30" stroke="#6a6a6a" stroke-width="0.8"/>
<line x1="174.0" y1="60" x2="241.4" y2="30" stroke="#6a6a6a" stroke-width="0.8"/>
<line x1="0" y1="60" x2="90" y2="60" stroke="#222" stroke-width="1.4"/>
<line x1="-90.0" y1="90" x2="-22.6" y2="60" stroke="#6a6a6a" stroke-width="0.8"/>
<line x1="-79.0" y1="90" x2="-11.6" y2="60" stroke="#6a6a6a" stroke-width="0.8"/>
<line x1="-68.0" y1="90" x2="-0.6" y2="60" stroke="#6a6a6a" stroke-width="0.8"/>
<line x1="-57.0" y1="90" x2="10.4" y2="60" stroke="#6a6a6a" stroke-width="0.8"/>
<line x1="-46.0" y1="90" x2="21.4" y2="60" stroke="#6a6a6a" stroke-width="0.8"/>
<line x1="-35.0" y1="90" x2="32.4" y2="60" stroke="#6a6a6a" stroke-width="0.8"/>
<line x1="-24.0" y1="90" x2="43.4" y2="60" stroke="#6a6a6a" stroke-width="0.8"/>
<line x1="-13.0" y1="90" x2="54.4" y2="60" stroke="#6a6a6a" stroke-width="0.8"/>
<line x1="-2.0" y1="90" x2="65.4" y2="60" stroke="#6a6a6a" stroke-width="0.8"/>
<line x1="9.0" y1="90" x2="76.4" y2="60" stroke="#6a6a6a" stroke-width="0.8"/>
<line x1="20.0" y1="90" x2="87.4" y2="60" stroke="#6a6a6a" stroke-width="0.8"/>
<line x1="31.0" y1="90" x2="98.4" y2="60" stroke="#6a6a6a" stroke-width="0.8"/>
<line x1="42.0" y1="90" x2="109.4" y2="60" stroke="#6a6a6a" stroke-width="0.8"/>
<line x1="53.0" y1="90" x2="120.4" y2="60" stroke="#6a6a6a" stroke-width="0.8"/>
<line x1="64.0" y1="90" x2="131.4" y2="60" stroke="#6a6a6a" stroke-width="0.8"/>
<line x1="75.0" y1="90" x2="142.4" y2="60" stroke="#6a6a6a" stroke-width="0.8"/>
<line x1="86.0" y1="90" x2="153.4" y2="60" stroke="#6a6a6a" stroke-width="0.8"/>
<line x1="97.0" y1="90" x2="164.4" y2="60" stroke="#6a6a6a" stroke-width="0.8"/>
<line x1="108.0" y1="90" x2="175.4" y2="60" stroke="#6a6a6a" stroke-width="0.8"/>
<line x1="119.0" y1="90" x2="186.4" y2="60" stroke="#6a6a6a" stroke-width="0.8"/>
<line x1="130.0" y1="90" x2="197.4" y2="60" stroke="#6a6a6a" stroke-width="0.8"/>
<line x1="141.0" y1="90" x2="208.4" y2="60" stroke="#6a6a6a" stroke-width="0.8"/>
<line x1="152.0" y1="90" x2="219.4" y2="60" stroke="#6a6a6a" stroke-width="0.8"/>
<line x1="163.0" y1="90" x2="230.4" y2="60" stroke="#6a6a6a" stroke-width="0.8"/>
<line x1="174.0" y1="90" x2="241.4" y2="60" stroke="#6a6a6a" stroke-width="0.8"/></g></pattern></defs>
<rect width="120" height="120" fill="url(#pat_SGp)" stroke="black" stroke-width="1"/>
</svg>
