<svg xmlns="http://www.w3.org/2000/svg" width="120" height="120" viewBox="0 0 120 120">
<defs><clipPath id="clip96"><rect width="96" height="96"/></clipPath><pattern id="pat_SGp" patternUnits="userSpaceOnUse" width="96" height="96"><rect width="96" height="96" fill="white"/><g clip-path="url(#clip96)"><g transform="translate(-96 -96)"><circle cx="69.1" cy="50.7" r="0.62" fill="#9a9a9a"/>
<circle cx="95.3" cy="74.5" r="0.85" fill="#9a9a9a"/>
<circle cx="68.6" cy="85.1" r="0.71" fill="#9a9a9a"/>
<circle cx="82.4" cy="2.3" r="0.59" fill="#9a9a9a"/>
<circle cx="39.4" cy="83.2" r="0.52" fill="#9a9a9a"/>
<circle cx="12.3" cy="65.3" r="0.68" fill="#9a9a9a"/>
<circle cx="91.6" cy="20.1" r="0.62" fill="#9a9a9a"/>
<circle cx="45.5" cy="78.6" r="0.83" fill="#9a9a9a"/>
<circle cx="19.2" cy="19.9" r="0.89" fill="#9a9a9a"/>
<circle cx="79.4" cy="69.4" r="0.80" fill="#9a9a9a"/>
<circle cx="91.9" cy="8.9" r="0.70" fill="#9a9a9a"/>
<circle cx="76.5" cy="15.8" r="0.82" fill="#9a9a9a"/>
<circle cx="62.4" cy="41.1" r="0.58" fill="#9a9a9a"/>
<circle cx="65.4" cy="57.6" r="0.62" fill="#9a9a9a"/>
<circle cx="78.6" cy="15.5" r="0.64" fill="#9a9a9a"/>
<circle cx="17.1" cy="64.9" r="0.77" fill="#9a9a9a"/>
<circle cx="29.8" cy="17.6" r="0.59" fill="#9a9a9a"/>
<circle cx="56.8" cy="68.3" r="0.77" fill="#9a9a9a"/>
<circle cx="20.0" cy="24.6" r="0.63" fill="#9a9a9a"/>
<circle cx="10.9" cy="74.1" r="0.55" fill="#9a9a9a"/>
<circle cx="28.7" cy="6.2" r="0.87" fill="#9a9a9a"/>
<circle cx="10.2" cy="60.0" r="0.83" fill="#9a9a9a"/>
<circle cx="0.4" cy="90.8" r="0.65" fill="#9a9a9a"/>
<circle cx="19.9" cy="4.6" r="0.72" fill="#9a9a9a"/>
<circle cx="92.0" cy="61.9" r="0.88" fill="#9a9a9a"/>
<circle cx="35.9" cy="71.8" r="0.66" fill="#9a9a9a"/>
<circle cx="61.4" cy="44.5" r="0.86" fill="#9a9a9a"/>
<circle cx="50.4" cy="11.5" r="0.59" fill="#9a9a9a"/>
<circle cx="44.1" cy="88.6" r="0.61" fill="#9a9a9a"/>
<circle cx="67.6" cy="23.5" r="0.77" fill="#9a9a9a"/>
<circle cx="63.1" cy="7.5" r="0.51" fill="#9a9a9a"/>
<circle cx="62.4" cy="86.6" r="0.56" fill="#9a9a9a"/>
<circle cx="79.8" cy="76.2" r="0.74" fill="#9a9a9a"/>
<circle cx="14.6" cy="31.5" r="0.61" fill="#9a9a9a"/>
<circle cx="74.4" cy="52.8" r="0.73" fill="#9a9a9a"/>
<circle cx="69.9" cy="73.5" r="0.55" fill="#9a9a9a"/>
<circle cx="52.5" cy="29.8" r="0.62" fill="#9a9a9a"/>
<circle cx="11.6" cy="62.3" r="0.52" fill="#9a9a9a"/>
<circle cx="30.8" cy="5.6" r="0.87" fill="#9a9a9a"/>
<circle cx="75.5" cy="3.3" r="0.59" fill="#9a9a9a"/>
<circle cx="94.3" cy="31.8" r="0.89" fill="#9a9a9a"/>
<circle cx="74.4" cy="70.5" r="0.70" fill="#9a9a9a"/>
<circle cx="8.7" cy="88.1" r="0.71" fill="#9a9a9a"/>
<circle cx="29.0" cy="65.4" r="0.75" fill="#9a9a9a"/>
<circle cx="78.5" cy="55.4" r="0.85" fill="#9a9a9a"/>
<circle cx="52.9" cy="27.7" r="0.84" fill="#9a9a9a"/>
<circle cx="21.8" cy="85.9" r="0.67" fill="#9a9a9a"/>
<circle cx="61.0" cy="47.0" r="0.65" fill="#9a9a9a"/>
<circle cx="2.9" cy="21.6" r="0.54" fill="#9a9a9a"/>
<circle cx="33.8" cy="20.7" r="0.73" fill="#9a9a9a"/>
<circle cx="81.5" cy="61.6" r="0.60" fill="#9a9a9a"/>
<circle cx="71.6" cy="28.7" r="0.63" fill="#9a9a9a"/>
<circle cx="86.4" cy="51.2" r="0.75" fill="#9a9a9a"/>
<circle cx="62.6" cy="42.9" r="0.75" fill="#9a9a9a"/>
<circle cx="70.5" cy="80.3" r="0.66" fill="#9a9a9a"/></g>
<g transform="translate(-96 0)"><circle cx="69.1" cy="50.7" r="0.62" fill="#9a9a9a"/>
<circle cx="95.3" cy="74.5" r="0.85" fill="#9a9a9a"/>
<circle cx="68.6" cy="85.1" r="0.71" fill="#9a9a9a"/>
<circle cx="82.4" cy="2.3" r="0.59" fill="#9a9a9a"/>
<circle cx="39.4" cy="83.2" r="0.52" fill="#9a9a9a"/>
<circle cx="12.3" cy="65.3" r="0.68" fill="#9a9a9a"/>
<circle cx="91.6" cy="20.1" r="0.62" fill="#9a9a9a"/>
<circle cx="45.5" cy="78.6" r="0.83" fill="#9a9a9a"/>
<circle cx="19.2" cy="19.9" r="0.89" fill="#9a9a9a"/>
<circle cx="79.4" cy="69.4" r="0.80" fill="#9a9a9a"/>
<circle cx="91.9" cy="8.9" r="0.70" fill="#9a9a9a"/>
<circle cx="76.5" cy="15.8" r="0.82" fill="#9a9a9a"/>
<circle cx="62.4" cy="41.1" r="0.58" fill="#9a9a9a"/>
<circle cx="65.4" cy="57.6" r="0.62" fill="#9a9a9a"/>
<circle cx="78.6" cy="15.5" r="0.64" fill="#9a9a9a"/>
<circle cx="17.1" cy="64.9" r="0.77" fill="#9a9a9a"/>
<circle cx="29.8" cy="17.6" r="0.59" fill="#9a9a9a"/>
<circle cx="56.8" cy="68.3" r="0.77" fill="#9a9a9a"/>
<circle cx="20.0" cy="24.6" r="0.63" fill="#9a9a9a"/>
<circle cx="10.9" cy="74.1" r="0.55" fill="#9a9a9a"/>
<circle cx="28.7" cy="6.2" r="0.87" fill="#9a9a9a"/>
<circle cx="10.2" cy="60.0" r="0.83" fill="#9a9a9a"/>
<circle cx="0.4" cy="90.8" r="0.65" fill="#9a9a9a"/>
<circle cx="19.9" cy="4.6" r="0.72" fill="#9a9a9a"/>
<circle cx="92.0" cy="61.9" r="0.88" fill="#9a9a9a"/>
<circle cx="35.9" cy="71.8" r="0.66" fill="#9a9a9a"/>
<circle cx="61.4" cy="44.5" r="0.86" fill="#9a9a9a"/>
<circle cx="50.4" cy="11.5" r="0.59" fill="#9a9a9a"/>
<circle cx="44.1" cy="88.6" r="0.61" fill="#9a9a9a"/>
<circle cx="67.6" cy="23.5" r="0.77" fill="#9a9a9a"/>
<circle cx="63.1" cy="7.5" r="0.51" fill="#9a9a9a"/>
<circle cx="62.4" cy="86.6" r="0.56" fill="#9a9a9a"/>
<circle cx="79.8" cy="76.2" r="0.74" fill="#9a9a9a"/>
<circle cx="14.6" cy="31.5" r="0.61" fill="#9a9a9a"/>
<circle cx="74.4" cy="52.8" r="0.73" fill="#9a9a9a"/>
<circle cx="69.9" cy="73.5" r="0.55" fill="#9a9a9a"/>
<circle cx="52.5" cy="29.8" r="0.62" fill="#9a9a9a"/>
<circle cx="11.6" cy="62.3" r="0.52" fill="#9a9a9a"/>
<circle cx="30.8" cy="5.6" r="0.87" fill="#9a9a9a"/>
<circle cx="75.5" cy="3.3" r="0.59" fill="#9a9a9a"/>
<circle cx="94.3" cy="31.8" r="0.89" fill="#9a9a9a"/>
<circle cx="74.4" cy="70.5" r="0.70" fill="#9a9a9a"/>
<circle cx="8.7" cy="88.1" r="0.71" fill="#9a9a9a"/>
<circle cx="29.0" cy="65.4" r="0.75" fill="#9a9a9a"/>
<circle cx="78.5" cy="55.4" r="0.85" fill="#9a9a9a"/>
<circle cx="52.9" cy="27.7" r="0.84" fill="#9a9a9a"/>
<circle cx="21.8" cy="85.9" r="0.67" fill="#9a9a9a"/>
<circle cx="61.0" cy="47.0" r="0.65" fill="#9a9a9a"/>
<circle cx="2.9" cy="21.6" r="0.54" fill="#9a9a9a"/>
<circle cx="33.8" cy="20.7" r="0.73" fill="#9a9a9a"/>
<circle cx="81.5" cy="61.6" r="0.60" fill="#9a9a9a"/>
<circle cx="71.6" cy="28.7" r="0.63" fill="#9a9a9a"/>
<circle cx="86.4" cy="51.2" r="0.75" fill="#9a9a9a"/>
<circle cx="62.6" cy="42.9" r="0.75" fill="#9a9a9a"/>
<circle cx="70.5" cy="80.3" r="0.66" fill="#9a9a9a"/></g>
<g transform="translate(-96 96)"><circle cx="69.1" cy="50.7" r="0.62" fill="#9a9a9a"/>
<circle cx="95.3" cy="74.5" r="0.85" fill="#9a9a9a"/>
<circle cx="68.6" cy="85.1" r="0.71" fill="#9a9a9a"/>
<circle cx="82.4" cy="2.3" r="0.59" fill="#9a9a9a"/>
<circle cx="39.4" cy="83.2" r="0.52" fill="#9a9a9a"/>
<circle cx="12.3" cy="65.3" r="0.68" fill="#9a9a9a"/>
<circle cx="91.6" cy="20.1" r="0.62" fill="#9a9a9a"/>
<circle cx="45.5" cy="78.6" r="0.83" fill="#9a9a9a"/>
<circle cx="19.2" cy="19.9" r="0.89" fill="#9a9a9a"/>
<circle cx="79.4" cy="69.4" r="0.80" fill="#9a9a9a"/>
<circle cx="91.9" cy="8.9" r="0.70" fill="#9a9a9a"/>
<circle cx="76.5" cy="15.8" r="0.82" fill="#9a9a9a"/>
<circle cx="62.4" cy="41.1" r="0.58" fill="#9a9a9a"/>
<circle cx="65.4" cy="57.6" r="0.62" fill="#9a9a9a"/>
<circle cx="78.6" cy="15.5" r="0.64" fill="#9a9a9a"/>
<circle cx="17.1" cy="64.9" r="0.77" fill="#9a9a9a"/>
<circle cx="29.8" cy="17.6" r="0.59" fill="#9a9a9a"/>
<circle cx="56.8" cy="68.3" r="0.77" fill="#9a9a9a"/>
<circle cx="20.0" cy="24.6" r="0.63" fill="#9a9a9a"/>
<circle cx="10.9" cy="74.1" r="0.55" fill="#9a9a9a"/>
<circle cx="28.7" cy="6.2" r="0.87" fill="#9a9a9a"/>
<circle cx="10.2" cy="60.0" r="0.83" fill="#9a9a9a"/>
<circle cx="0.4" cy="90.8" r="0.65" fill="#9a9a9a"/>
<circle cx="19.9" cy="4.6" r="0.72" fill="#9a9a9a"/>
<circle cx="92.0" cy="61.9" r="0.88" fill="#9a9a9a"/>
<circle cx="35.9" cy="71.8" r="0.66" fill="#9a9a9a"/>
<circle cx="61.4" cy="44.5" r="0.86" fill="#9a9a9a"/>
<circle cx="50.4" cy="11.5" r="0.59" fill="#9a9a9a"/>
<circle cx="44.1" cy="88.6" r="0.61" fill="#9a9a9a"/>
<circle cx="67.6" cy="23.5" r="0.77" fill="#9a9a9a"/>
<circle cx="63.1" cy="7.5" r="0.51" fill="#9a9a9a"/>
<circle cx="62.4" cy="86.6" r="0.56" fill="#9a9a9a"/>
<circle cx="79.8" cy="76.2" r="0.74" fill="#9a9a9a"/>
<circle cx="14.6" cy="31.5" r="0.61" fill="#9a9a9a"/>
<circle cx="74.4" cy="52.8" r="0.73" fill="#9a9a9a"/>
<circle cx="69.9" cy="73.5" r="0.55" fill="#9a9a9a"/>
<circle cx="52.5" cy="29.8" r="0.62" fill="#9a9a9a"/>
<circle cx="11.6" cy="62.3" r="0.52" fill="#9a9a9a"/>
<circle cx="30.8" cy="5.6" r="0.87" fill="#9a9a9a"/>
<circle cx="75.5" cy="3.3" r="0.59" fill="#9a9a9a"/>
<circle cx="94.3" cy="31.8" r="0.89" fill="#9a9a9a"/>
<circle cx="74.4" cy="70.5" r="0.70" fill="#9a9a9a"/>
<circle cx="8.7" cy="88.1" r="0.71" fill="#9a9a9a"/>
<circle cx="29.0" cy="65.4" r="0.75" fill="#9a9a9a"/>
<circle cx="78.5" cy="55.4" r="0.85" fill="#9a9a9a"/>
<circle cx="52.9" cy="27.7" r="0.84" fill="#9a9a9a"/>
<circle cx="21.8" cy="85.9" r="0.67" fill="#9a9a9a"/>
<circle cx="61.0" cy="47.0" r="0.65" fill="#9a9a9a"/>
<circle cx="2.9" cy="21.6" r="0.54" fill="#9a9a9a"/>
<circle cx="33.8" cy="20.7" r="0.73" fill="#9a9a9a"/>
<circle cx="81.5" cy="61.6" r="0.60" fill="#9a9a9a"/>
<circle cx="71.6" cy="28.7" r="0.63" fill="#9a9a9a"/>
<circle cx="86.4" cy="51.2" r="0.75" fill="#9a9a9a"/>
<circle cx="62.6" cy="42.9" r="0.75" fill="#9a9a9a"/>
<circle cx="70.5" cy="80.3" r="0.66" fill="#9a9a9a"/></g>
<g transform="translate(0 -96)"><circle cx="69.1" cy="50.7" r="0.62" fill="#9a9a9a"/>
<circle cx="95.3" cy="74.5" r="0.85" fill="#9a9a9a"/>
<circle cx="68.6" cy="85.1" r="0.71" fill="#9a9a9a"/>
<circle cx="82.4" cy="2.3" r="0.59" fill="#9a9a9a"/>
<circle cx="39.4" cy="83.2" r="0.52" fill="#9a9a9a"/>
<circle cx="12.3" cy="65.3" r="0.68" fill="#9a9a9a"/>
<circle cx="91.6" cy="20.1" r="0.62" fill="#9a9a9a"/>
<circle cx="45.5" cy="78.6" r="0.83" fill="#9a9a9a"/>
<circle cx="19.2" cy="19.9" r="0.89" fill="#9a9a9a"/>
<circle cx="79.4" cy="69.4" r="0.80" fill="#9a9a9a"/>
<circle cx="91.9" cy="8.9" r="0.70" fill="#9a9a9a"/>
<circle cx="76.5" cy="15.8" r="0.82" fill="#9a9a9a"/>
<circle cx="62.4" cy="41.1" r="0.58" fill="#9a9a9a"/>
<circle cx="65.4" cy="57.6" r="0.62" fill="#9a9a9a"/>
<circle cx="78.6" cy="15.5" r="0.64" fill="#9a9a9a"/>
<circle cx="17.1" cy="64.9" r="0.77" fill="#9a9a9a"/>
<circle cx="29.8" cy="17.6" r="0.59" fill="#9a9a9a"/>
<circle cx="56.8" cy="68.3" r="0.77" fill="#9a9a9a"/>
<circle cx="20.0" cy="24.6" r="0.63" fill="#9a9a9a"/>
<circle cx="10.9" cy="74.1" r="0.55" fill="#9a9a9a"/>
<circle cx="28.7" cy="6.2" r="0.87" fill="#9a9a9a"/>
<circle cx="10.2" cy="60.0" r="0.83" fill="#9a9a9a"/>
<circle cx="0.4" cy="90.8" r="0.65" fill="#9a9a9a"/>
<circle cx="19.9" cy="4.6" r="0.72" fill="#9a9a9a"/>
<circle cx="92.0" cy="61.9" r="0.88" fill="#9a9a9a"/>
<circle cx="35.9" cy="71.8" r="0.66" fill="#9a9a9a"/>
<circle cx="61.4" cy="44.5" r="0.86" fill="#9a9a9a"/>
<circle cx="50.4" cy="11.5" r="0.59" fill="#9a9a9a"/>
<circle cx="44.1" cy="88.6" r="0.61" fill="#9a9a9a"/>
<circle cx="67.6" cy="23.5" r="0.77" fill="#9a9a9a"/>
<circle cx="63.1" cy="7.5" r="0.51" fill="#9a9a9a"/>
<circle cx="62.4" cy="86.6" r="0.56" fill="#9a9a9a"/>
<circle cx="79.8" cy="76.2" r="0.74" fill="#9a9a9a"/>
<circle cx="14.6" cy="31.5" r="0.61" fill="#9a9a9a"/>
<circle cx="74.4" cy="52.8" r="0.73" fill="#9a9a9a"/>
<circle cx="69.9" cy="73.5" r="0.55" fill="#9a9a9a"/>
<circle cx="52.5" cy="29.8" r="0.62" fill="#9a9a9a"/>
<circle cx="11.6" cy="62.3" r="0.52" fill="#9a9a9a"/>
<circle cx="30.8" cy="5.6" r="0.87" fill="#9a9a9a"/>
<circle cx="75.5" cy="3.3" r="0.59" fill="#9a9a9a"/>
<circle cx="94.3" cy="31.8" r="0.89" fill="#9a9a9a"/>
<circle cx="74.4" cy="70.5" r="0.70" fill="#9a9a9a"/>
<circle cx="8.7" cy="88.1" r="0.71" fill="#9a9a9a"/>
<circle cx="29.0" cy="65.4" r="0.75" fill="#9a9a9a"/>
<circle cx="78.5" cy="55.4" r="0.85" fill="#9a9a9a"/>
<circle cx="52.9" cy="27.7" r="0.84" fill="#9a9a9a"/>
<circle cx="21.8" cy="85.9" r="0.67" fill="#9a9a9a"/>
<circle cx="61.0" cy="47.0" r="0.65" fill="#9a9a9a"/>
<circle cx="2.9" cy="21.6" r="0.54" fill="#9a9a9a"/>
<circle cx="33.8" cy="20.7" r="0.73" fill="#9a9a9a"/>
<circle cx="81.5" cy="61.6" r="0.60" fill="#9a9a9a"/>
<circle cx="71.6" cy="28.7" r="0.63" fill="#9a9a9a"/>
<circle cx="86.4" cy="51.2" r="0.75" fill="#9a9a9a"/>
<circle cx="62.6" cy="42.9" r="0.75" fill="#9a9a9a"/>
<circle cx="70.5" cy="80.3" r="0.66" fill="#9a9a9a"/></g>
<g transform="translate(0 0)"><circle cx="69.1" cy="50.7" r="0.62" fill="#9a9a9a"/>
<circle cx="95.3" cy="74.5" r="0.85" fill="#9a9a9a"/>
<circle cx="68.6" cy="85.1" r="0.71" fill="#9a9a9a"/>
<circle cx="82.4" cy="2.3" r="0.59" fill="#9a9a9a"/>
<circle cx="39.4" cy="83.2" r="0.52" fill="#9a9a9a"/>
<circle cx="12.3" cy="65.3" r="0.68" fill="#9a9a9a"/>
<circle cx="91.6" cy="20.1" r="0.62" fill="#9a9a9a"/>
<circle cx="45.5" cy="78.6" r="0.83" fill="#9a9a9a"/>
<circle cx="19.2" cy="19.9" r="0.89" fill="#9a9a9a"/>
<circle cx="79.4" cy="69.4" r="0.80" fill="#9a9a9a"/>
<circle cx="91.9" cy="8.9" r="0.70" fill="#9a9a9a"/>
<circle cx="76.5" cy="15.8" r="0.82" fill="#9a9a9a"/>
<circle cx="62.4" cy="41.1" r="0.58" fill="#9a9a9a"/>
<circle cx="65.4" cy="57.6" r="0.62" fill="#9a9a9a"/>
<circle cx="78.6" cy="15.5" r="0.64" fill="#9a9a9a"/>
<circle cx="17.1" cy="64.9" r="0.77" fill="#9a9a9a"/>
<circle cx="29.8" cy="17.6" r="0.59" fill="#9a9a9a"/>
<circle cx="56.8" cy="68.3" r="0.77" fill="#9a9a9a"/>
<circle cx="20.0" cy="24.6" r="0.63" fill="#9a9a9a"/>
<circle cx="10.9" cy="74.1" r="0.55" fill="#9a9a9a"/>
<circle cx="28.7" cy="6.2" r="0.87" fill="#9a9a9a"/>
<circle cx="10.2" cy="60.0" r="0.83" fill="#9a9a9a"/>
<circle cx="0.4" cy="90.8" r="0.65" fill="#9a9a9a"/>
<circle cx="19.9" cy="4.6" r="0.72" fill="#9a9a9a"/>
<circle cx="92.0" cy="61.9" r="0.88" fill="#9a9a9a"/>
<circle cx="35.9" cy="71.8" r="0.66" fill="#9a9a9a"/>
<circle cx="61.4" cy="44.5" r="0.86" fill="#9a9a9a"/>
<circle cx="50.4" cy="11.5" r="0.59" fill="#9a9a9a"/>
<circle cx="44.1" cy="88.6" r="0.61" fill="#9a9a9a"/>
<circle cx="67.6" cy="23.5" r="0.77" fill="#9a9a9a"/>
<circle cx="63.1" cy="7.5" r="0.51" fill="#9a9a9a"/>
<circle cx="62.4" cy="86.6" r="0.56" fill="#9a9a9a"/>
<circle cx="79.8" cy="76.2" r="0.74" fill="#9a9a9a"/>
<circle cx="14.6" cy="31.5" r="0.61" fill="#9a9a9a"/>
<circle cx="74.4" cy="52.8" r="0.73" fill="#9a9a9a"/>
<circle cx="69.9" cy="73.5" r="0.55" fill="#9a9a9a"/>
<circle cx="52.5" cy="29.8" r="0.62" fill="#9a9a9a"/>
<circle cx="11.6" cy="62.3" r="0.52" fill="#9a9a9a"/>
<circle cx="30.8" cy="5.6" r="0.87" fill="#9a9a9a"/>
<circle cx="75.5" cy="3.3" r="0.59" fill="#9a9a9a"/>
<circle cx="94.3" cy="31.8" r="0.89" fill="#9a9a9a"/>
<circle cx="74.4" cy="70.5" r="0.70" fill="#9a9a9a"/>
<circle cx="8.7" cy="88.1" r="0.71" fill="#9a9a9a"/>
<circle cx="29.0" cy="65.4" r="0.75" fill="#9a9a9a"/>
<circle cx="78.5" cy="55.4" r="0.85" fill="#9a9a9a"/>
<circle cx="52.9" cy="27.7" r="0.84" fill="#9a9a9a"/>
<circle cx="21.8" cy="85.9" r="0.67" fill="#9a9a9a"/>
<circle cx="61.0" cy="47.0" r="0.65" fill="#9a9a9a"/>
<circle cx="2.9" cy="21.6" r="0.54" fill="#9a9a9a"/>
<circle cx="33.8" cy="20.7" r="0.73" fill="#9a9a9a"/>
<circle cx="81.5" cy="61.6" r="0.60" fill="#9a9a9a"/>
<circle cx="71.6" cy="28.7" r="0.63" fill="#9a9a9a"/>
<circle cx="86.4" cy="51.2" r="0.75" fill="#9a9a9a"/>
<circle cx="62.6" cy="42.9" r="0.75" fill="#9a9a9a"/>
<circle cx="70.5" cy="80.3" r="0.66" fill="#9a9a9a"/></g>
<g transform="translate(0 96)"><circle cx="69.1" cy="50.7" r="0.62" fill="#9a9a9a"/>
<circle cx="95.3" cy="74.5" r="0.85" fill="#9a9a9a"/>
<circle cx="68.6" cy="85.1" r="0.71" fill="#9a9a9a"/>
<circle cx="82.4" cy="2.3" r="0.59" fill="#9a9a9a"/>
<circle cx="39.4" cy="83.2" r="0.52" fill="#9a9a9a"/>
<circle cx="12.3" cy="65.3" r="0.68" fill="#9a9a9a"/>
<circle cx="91.6" cy="20.1" r="0.62" fill="#9a9a9a"/>
<circle cx="45.5" cy="78.6" r="0.83" fill="#9a9a9a"/>
<circle cx="19.2" cy="19.9" r="0.89" fill="#9a9a9a"/>
<circle cx="79.4" cy="69.4" r="0.80" fill="#9a9a9a"/>
<circle cx="91.9" cy="8.9" r="0.70" fill="#9a9a9a"/>
<circle cx="76.5" cy="15.8" r="0.82" fill="#9a9a9a"/>
<circle cx="62.4" cy="41.1" r="0.58" fill="#9a9a9a"/>
<circle cx="65.4" cy="57.6" r="0.62" fill="#9a9a9a"/>
<circle cx="78.6" cy="15.5" r="0.64" fill="#9a9a9a"/>
<circle cx="17.1" cy="64.9" r="0.77" fill="#9a9a9a"/>
<circle cx="29.8" cy="17.6" r="0.59" fill="#9a9a9a"/>
<circle cx="56.8" cy="68.3" r="0.77" fill="#9a9a9a"/>
<circle cx="20.0" cy="24.6" r="0.63" fill="#9a9a9a"/>
<circle cx="10.9" cy="74.1" r="0.55" fill="#9a9a9a"/>
<circle cx="28.7" cy="6.2" r="0.87" fill="#9a9a9a"/>
<circle cx="10.2" cy="60.0" r="0.83" fill="#9a9a9a"/>
<circle cx="0.4" cy="90.8" r="0.65" fill="#9a9a9a"/>
<circle cx="19.9" cy="4.6" r="0.72" fill="#9a9a9a"/>
<circle cx="92.0" cy="61.9" r="0.88" fill="#9a9a9a"/>
<circle cx="35.9" cy="71.8" r="0.66" fill="#9a9a9a"/>
<circle cx="61.4" cy="44.5" r="0.86" fill="#9a9a9a"/>
<circle cx="50.4" cy="11.5" r="0.59" fill="#9a9a9a"/>
<circle cx="44.1" cy="88.6" r="0.61" fill="#9a9a9a"/>
<circle cx="67.6" cy="23.5" r="0.77" fill="#9a9a9a"/>
<circle cx="63.1" cy="7.5" r="0.51" fill="#9a9a9a"/>
<circle cx="62.4" cy="86.6" r="0.56" fill="#9a9a9a"/>
<circle cx="79.8" cy="76.2" r="0.74" fill="#9a9a9a"/>
<circle cx="14.6" cy="31.5" r="0.61" fill="#9a9a9a"/>
<circle cx="74.4" cy="52.8" r="0.73" fill="#9a9a9a"/>
<circle cx="69.9" cy="73.5" r="0.55" fill="#9a9a9a"/>
<circle cx="52.5" cy="29.8" r="0.62" fill="#9a9a9a"/>
<circle cx="11.6" cy="62.3" r="0.52" fill="#9a9a9a"/>
<circle cx="30.8" cy="5.6" r="0.87" fill="#9a9a9a"/>
<circle cx="75.5" cy="3.3" r="0.59" fill="#9a9a9a"/>
<circle cx="94.3" cy="31.8" r="0.89" fill="#9a9a9a"/>
<circle cx="74.4" cy="70.5" r="0.70" fill="#9a9a9a"/>
<circle cx="8.7" cy="88.1" r="0.71" fill="#9a9a9a"/>
<circle cx="29.0" cy="65.4" r="0.75" fill="#9a9a9a"/>
<circle cx="78.5" cy="55.4" r="0.85" fill="#9a9a9a"/>
<circle cx="52.9" cy="27.7" r="0.84" fill="#9a9a9a"/>
<circle cx="21.8" cy="85.9" r="0.67" fill="#9a9a9a"/>
<circle cx="61.0" cy="47.0" r="0.65" fill="#9a9a9a"/>
<circle cx="2.9" cy="21.6" r="0.54" fill="#9a9a9a"/>
<circle cx="33.8" cy="20.7" r="0.73" fill="#9a9a9a"/>
<circle cx="81.5" cy="61.6" r="0.60" fill="#9a9a9a"/>
<circle cx="71.6" cy="28.7" r="0.63" fill="#9a9a9a"/>
<circle cx="86.4" cy="51.2" r="0.75" fill="#9a9a9a"/>
<circle cx="62.6" cy="42.9" r="0.75" fill="#9a9a9a"/>
<circle cx="70.5" cy="80.3" r="0.66" fill="#9a9a9a"/></g>
<g transform="translate(96 -96)"><circle cx="69.1" cy="50.7" r="0.62" fill="#9a9a9a"/>
<circle cx="95.3" cy="74.5" r="0.85" fill="#9a9a9a"/>
<circle cx="68.6" cy="85.1" r="0.71" fill="#9a9a9a"/>
<circle cx="82.4" cy="2.3" r="0.59" fill="#9a9a9a"/>
<circle cx="39.4" cy="83.2" r="0.52" fill="#9a9a9a"/>
<circle cx="12.3" cy="65.3" r="0.68" fill="#9a9a9a"/>
<circle cx="91.6" cy="20.1" r="0.62" fill="#9a9a9a"/>
<circle cx="45.5" cy="78.6" r="0.83" fill="#9a9a9a"/>
<circle cx="19.2" cy="19.9" r="0.89" fill="#9a9a9a"/>
<circle cx="79.4" cy="69.4" r="0.80" fill="#9a9a9a"/>
<circle cx="91.9" cy="8.9" r="0.70" fill="#9a9a9a"/>
<circle cx="76.5" cy="15.8" r="0.82" fill="#9a9a9a"/>
<circle cx="62.4" cy="41.1" r="0.58" fill="#9a9a9a"/>
<circle cx="65.4" cy="57.6" r="0.62" fill="#9a9a9a"/>
<circle cx="78.6" cy="15.5" r="0.64" fill="#9a9a9a"/>
<circle cx="17.1" cy="64.9" r="0.77" fill="#9a9a9a"/>
<circle cx="29.8" cy="17.6" r="0.59" fill="#9a9a9a"/>
<circle cx="56.8" cy="68.3" r="0.77" fill="#9a9a9a"/>
<circle cx="20.0" cy="24.6" r="0.63" fill="#9a9a9a"/>
<circle cx="10.9" cy="74.1" r="0.55" fill="#9a9a9a"/>
<circle cx="28.7" cy="6.2" r="0.87" fill="#9a9a9a"/>
<circle cx="10.2" cy="60.0" r="0.83" fill="#9a9a9a"/>
<circle cx="0.4" cy="90.8" r="0.65" fill="#9a9a9a"/>
<circle cx="19.9" cy="4.6" r="0.72" fill="#9a9a9a"/>
<circle cx="92.0" cy="61.9" r="0.88" fill="#9a9a9a"/>
<circle cx="35.9" cy="71.8" r="0.66" fill="#9a9a9a"/>
<circle cx="61.4" cy="44.5" r="0.86" fill="#9a9a9a"/>
<circle cx="50.4" cy="11.5" r="0.59" fill="#9a9a9a"/>
<circle cx="44.1" cy="88.6" r="0.61" fill="#9a9a9a"/>
<circle cx="67.6" cy="23.5" r="0.77" fill="#9a9a9a"/>
<circle cx="63.1" cy="7.5" r="0.51" fill="#9a9a9a"/>
<circle cx="62.4" cy="86.6" r="0.56" fill="#9a9a9a"/>
<circle cx="79.8" cy="76.2" r="0.74" fill="#9a9a9a"/>
<circle cx="14.6" cy="31.5" r="0.61" fill="#9a9a9a"/>
<circle cx="74.4" cy="52.8" r="0.73" fill="#9a9a9a"/>
<circle cx="69.9" cy="73.5" r="0.55" fill="#9a9a9a"/>
<circle cx="52.5" cy="29.8" r="0.62" fill="#9a9a9a"/>
<circle cx="11.6" cy="62.3" r="0.52" fill="#9a9a9a"/>
<circle cx="30.8" cy="5.6" r="0.87" fill="#9a9a9a"/>
<circle cx="75.5" cy="3.3" r="0.59" fill="#9a9a9a"/>
<circle cx="94.3" cy="31.8" r="0.89" fill="#9a9a9a"/>
<circle cx="74.4" cy="70.5" r="0.70" fill="#9a9a9a"/>
<circle cx="8.7" cy="88.1" r="0.71" fill="#9a9a9a"/>
<circle cx="29.0" cy="65.4" r="0.75" fill="#9a9a9a"/>
<circle cx="78.5" cy="55.4" r="0.85" fill="#9a9a9a"/>
<circle cx="52.9" cy="27.7" r="0.84" fill="#9a9a9a"/>
<circle cx="21.8" cy="85.9" r="0.67" fill="#9a9a9a"/>
<circle cx="61.0" cy="47.0" r="0.65" fill="#9a9a9a"/>
<circle cx="2.9" cy="21.6" r="0.54" fill="#9a9a9a"/>
<circle cx="33.8" cy="20.7" r="0.73" fill="#9a9a9a"/>
<circle cx="81.5" cy="61.6" r="0.60" fill="#9a9a9a"/>
<circle cx="71.6" cy="28.7" r="0.63" fill="#9a9a9a"/>
<circle cx="86.4" cy="51.2" r="0.75" fill="#9a9a9a"/>
<circle cx="62.6" cy="42.9" r="0.75" fill="#9a9a9a"/>
<circle cx="70.5" cy="80.3" r="0.66" fill="#9a9a9a"/></g>
<g transform="translate(96 0)"><circle cx="69.1" cy="50.7" r="0.62" fill="#9a9a9a"/>
<circle cx="95.3" cy="74.5" r="0.85" fill="#9a9a9a"/>
<circle cx="68.6" cy="85.1" r="0.71" fill="#9a9a9a"/>
<circle cx="82.4" cy="2.3" r="0.59" fill="#9a9a9a"/>
<circle cx="39.4" cy="83.2" r="0.52" fill="#9a9a9a"/>
<circle cx="12.3" cy="65.3" r="0.68" fill="#9a9a9a"/>
<circle cx="91.6" cy="20.1" r="0.62" fill="#9a9a9a"/>
<circle cx="45.5" cy="78.6" r="0.83" fill="#9a9a9a"/>
<circle cx="19.2" cy="19.9" r="0.89" fill="#9a9a9a"/>
<circle cx="79.4" cy="69.4" r="0.80" fill="#9a9a9a"/>
<circle cx="91.9" cy="8.9" r="0.70" fill="#9a9a9a"/>
<circle cx="76.5" cy="15.8" r="0.82" fill="#9a9a9a"/>
<circle cx="62.4" cy="41.1" r="0.58" fill="#9a9a9a"/>
<circle cx="65.4" cy="57.6" r="0.62" fill="#9a9a9a"/>
<circle cx="78.6" cy="15.5" r="0.64" fill="#9a9a9a"/>
<circle cx="17.1" cy="64.9" r="0.77" fill="#9a9a9a"/>
<circle cx="29.8" cy="17.6" r="0.59" fill="#9a9a9a"/>
<circle cx="56.8" cy="68.3" r="0.77" fill="#9a9a9a"/>
<circle cx="20.0" cy="24.6" r="0.63" fill="#9a9a9a"/>
<circle cx="10.9" cy="74.1" r="0.55" fill="#9a9a9a"/>
<circle cx="28.7" cy="6.2" r="0.87" fill="#9a9a9a"/>
<circle cx="10.2" cy="60.0" r="0.83" fill="#9a9a9a"/>
<circle cx="0.4" cy="90.8" r="0.65" fill="#9a9a9a"/>
<circle cx="19.9" cy="4.6" r="0.72" fill="#9a9a9a"/>
<circle cx="92.0" cy="61.9" r="0.88" fill="#9a9a9a"/>
<circle cx="35.9" cy="71.8" r="0.66" fill="#9a9a9a"/>
<circle cx="61.4" cy="44.5" r="0.86" fill="#9a9a9a"/>
<circle cx="50.4" cy="11.5" r="0.59" fill="#9a9a9a"/>
<circle cx="44.1" cy="88.6" r="0.61" fill="#9a9a9a"/>
<circle cx="67.6" cy="23.5" r="0.77" fill="#9a9a9a"/>
<circle cx="63.1" cy="7.5" r="0.51" fill="#9a9a9a"/>
<circle cx="62.4" cy="86.6" r="0.56" fill="#9a9a9a"/>
<circle cx="79.8" cy="76.2" r="0.74" fill="#9a9a9a"/>
<circle cx="14.6" cy="31.5" r="0.61" fill="#9a9a9a"/>
<circle cx="74.4" cy="52.8" r="0.73" fill="#9a9a9a"/>
<circle cx="69.9" cy="73.5" r="0.55" fill="#9a9a9a"/>
<circle cx="52.5" cy="29.8" r="0.62" fill="#9a9a9a"/>
<circle cx="11.6" cy="62.3" r="0.52" fill="#9a9a9a"/>
<circle cx="30.8" cy="5.6" r="0.87" fill="#9a9a9a"/>
<circle cx="75.5" cy="3.3" r="0.59" fill="#9a9a9a"/>
<circle cx="94.3" cy="31.8" r="0.89" fill="#9a9a9a"/>
<circle cx="74.4" cy="70.5" r="0.70" fill="#9a9a9a"/>
<circle cx="8.7" cy="88.1" r="0.71" fill="#9a9a9a"/>
<circle cx="29.0" cy="65.4" r="0.75" fill="#9a9a9a"/>
<circle cx="78.5" cy="55.4" r="0.85" fill="#9a9a9a"/>
<circle cx="52.9" cy="27.7" r="0.84" fill="#9a9a9a"/>
<circle cx="21.8" cy="85.9" r="0.67" fill="#9a9a9a"/>
<circle cx="61.0" cy="47.0" r="0.65" fill="#9a9a9a"/>
<circle cx="2.9" cy="21.6" r="0.54" fill="#9a9a9a"/>
<circle cx="33.8" cy="20.7" r="0.73" fill="#9a9a9a"/>
<circle cx="81.5" cy="61.6" r="0.60" fill="#9a9a9a"/>
<circle cx="71.6" cy="28.7" r="0.63" fill="#9a9a9a"/>
<circle cx="86.4" cy="51.2" r="0.75" fill="#9a9a9a"/>
<circle cx="62.6" cy="42.9" r="0.75" fill="#9a9a9a"/>
<circle cx="70.5" cy="80.3" r="0.66" fill="#9a9a9a"/></g>
<g transform="translate(96 96)"><circle cx="69.1" cy="50.7" r="0.62" fill="#9a9a9a"/>
<circle cx="95.3" cy="74.5" r="0.85" fill="#9a9a9a"/>
<circle cx="68.6" cy="85.1" r="0.71" fill="#9a9a9a"/>
<circle cx="82.4" cy="2.3" r="0.59" fill="#9a9a9a"/>
<circle cx="39.4" cy="83.2" r="0.52" fill="#9a9a9a"/>
<circle cx="12.3" cy="65.3" r="0.68" fill="#9a9a9a"/>
<circle cx="91.6" cy="20.1" r="0.62" fill="#9a9a9a"/>
<circle cx="45.5" cy="78.6" r="0.83" fill="#9a9a9a"/>
<circle cx="19.2" cy="19.9" r="0.89" fill="#9a9a9a"/>
<circle cx="79.4" cy="69.4" r="0.80" fill="#9a9a9a"/>
<circle cx="91.9" cy="8.9" r="0.70" fill="#9a9a9a"/>
<circle cx="76.5" cy="15.8" r="0.82" fill="#9a9a9a"/>
<circle cx="62.4" cy="41.1" r="0.58" fill="#9a9a9a"/>
<circle cx="65.4" cy="57.6" r="0.62" fill="#9a9a9a"/>
<circle cx="78.6" cy="15.5" r="0.64" fill="#9a9a9a"/>
<circle cx="17.1" cy="64.9" r="0.77" fill="#9a9a9a"/>
<circle cx="29.8" cy="17.6" r="0.59" fill="#9a9a9a"/>
<circle cx="56.8" cy="68.3" r="0.77" fill="#9a9a9a"/>
<circle cx="20.0" cy="24.6" r="0.63" fill="#9a9a9a"/>
<circle cx="10.9" cy="74.1" r="0.55" fill="#9a9a9a"/>
<circle cx="28.7" cy="6.2" r="0.87" fill="#9a9a9a"/>
<circle cx="10.2" cy="60.0" r="0.83" fill="#9a9a9a"/>
<circle cx="0.4" cy="90.8" r="0.65" fill="#9a9a9a"/>
<circle cx="19.9" cy="4.6" r="0.72" fill="#9a9a9a"/>
<circle cx="92.0" cy="61.9" r="0.88" fill="#9a9a9a"/>
<circle cx="35.9" cy="71.8" r="0.66" fill="#9a9a9a"/>
<circle cx="61.4" cy="44.5" r="0.86" fill="#9a9a9a"/>
<circle cx="50.4" cy="11.5" r="0.59" fill="#9a9a9a"/>
<circle cx="44.1" cy="88.6" r="0.61" fill="#9a9a9a"/>
<circle cx="67.6" cy="23.5" r="0.77" fill="#9a9a9a"/>
<circle cx="63.1" cy="7.5" r="0.51" fill="#9a9a9a"/>
<circle cx="62.4" cy="86.6" r="0.56" fill="#9a9a9a"/>
<circle cx="79.8" cy="76.2" r="0.74" fill="#9a9a9a"/>
<circle cx="14.6" cy="31.5" r="0.61" fill="#9a9a9a"/>
<circle cx="74.4" cy="52.8" r="0.73" fill="#9a9a9a"/>
<circle cx="69.9" cy="73.5" r="0.55" fill="#9a9a9a"/>
<circle cx="52.5" cy="29.8" r="0.62" fill="#9a9a9a"/>
<circle cx="11.6" cy="62.3" r="0.52" fill="#9a9a9a"/>
<circle cx="30.8" cy="5.6" r="0.87" fill="#9a9a9a"/>
<circle cx="75.5" cy="3.3" r="0.59" fill="#9a9a9a"/>
<circle cx="94.3" cy="31.8" r="0.89" fill="#9a9a9a"/>
<circle cx="74.4" cy="70.5" r="0.70" fill="#9a9a9a"/>
<circle cx="8.7" cy="88.1" r="0.71" fill="#9a9a9a"/>
<circle cx="29.0" cy="65.4" r="0.75" fill="#9a9a9a"/>
<circle cx="78.5" cy="55.4" r="0.85" fill="#9a9a9a"/>
<circle cx="52.9" cy="27.7" r="0.84" fill="#9a9a9a"/>
<circle cx="21.8" cy="85.9" r="0.67" fill="#9a9a9a"/>
<circle cx="61.0" cy="47.0" r="0.65" fill="#9a9a9a"/>
<circle cx="2.9" cy="21.6" r="0.54" fill="#9a9a9a"/>
<circle cx="33.8" cy="20.7" r="0.73" fill="#9a9a9a"/>
<circle cx="81.5" cy="61.6" r="0.60" fill="#9a9a9a"/>
<circle cx="71.6" cy="28.7" r="0.63" fill="#9a9a9a"/>
<circle cx="86.4" cy="51.2" r="0.75" fill="#9a9a9a"/>
<circle cx="62.6" cy="42.9" r="0.75" fill="#9a9a9a"/>
<circle cx="70.5" cy="80.3" r="0.66" fill="#9a9a9a"/></g>
<line x1="0" y1="32" x2="96" y2="32" stroke="#222" stroke-width="1.4"/>
<path d="M -54.4,0 C -44.6,14.4 -16.3,32.0 0.0,32.0" fill="none" stroke="#6a6a6a" stroke-width="0.9"/>
<path d="M -46.4,0 C -36.6,14.4 -8.3,32.0 8.0,32.0" fill="none" stroke="#6a6a6a" stroke-width="0.9"/>
<path d="M -38.4,0 C -28.6,14.4 -0.3,32.0 16.0,32.0" fill="none" stroke="#6a6a6a" stroke-width="0.9"/>
<path d="M -30.4,0 C -20.6,14.4 7.7,32.0 24.0,32.0" fill="none" stroke="#6a6a6a" stroke-width="0.9"/>
<path d="M -22.4,0 C -12.6,14.4 15.7,32.0 32.0,32.0" fill="none" stroke="#6a6a6a" stroke-width="0.9"/>
<path d="M -14.4,0 C -4.6,14.4 23.7,32.0 40.0,32.0" fill="none" stroke="#6a6a6a" stroke-width="0.9"/>
<path d="M -6.4,0 C 3.4,14.4 31.7,32.0 48.0,32.0" fill="none" stroke="#6a6a6a" stroke-width="0.9"/>
<path d="M 1.6,0 C 11.4,14.4 39.7,32.0 56.0,32.0" fill="none" stroke="#6a6a6a" stroke-width="0.9"/>
<path d="M 9.6,0 C 19.4,14.4 47.7,32.0 64.0,32.0" fill="none" stroke="#6a6a6a" stroke-width="0.9"/>
<path d="M 17.6,0 C 27.4,14.4 55.7,32.0 72.0,32.0" fill="none" stroke="#6a6a6a" stroke-width="0.9"/>
<path d="M 25.6,0 C 35.4,14.4 63.7,32.0 80.0,32.0" fill="none" stroke="#6a6a6a" stroke-width="0.9"/>
<path d="M 33.6,0 C 43.4,14.4 71.7,32.0 88.0,32.0" fill="none" stroke="#6a6a6a" stroke-width="0.9"/>
<path d="M 41.6,0 C 51.4,14.4 79.7,32.0 96.0,32.0" fill="none" stroke="#6a6a6a" stroke-width="0.9"/>
<path d="M 49.6,0 C 59.4,14.4 87.7,32.0 104.0,32.0" fill="none" stroke="#6a6a6a" stroke-width="0.9"/>
<path d="M 57.6,0 C 67.4,14.4 95.7,32.0 112.0,32.0" fill="none" stroke="#6a6a6a" stroke-width="0.9"/>
<path d="M 65.6,0 C 75.4,14.4 103.7,32.0 120.0,32.0" fill="none" stroke="#6a6a6a" stroke-width="0.9"/>
<path d="M 73.6,0 C 83.4,14.4 111.7,32.0 128.0,32.0" fill="none" stroke="#6a6a6a" stroke-width="0.9"/>
<path d="M 81.6,0 C 91.4,14.4 119.7,32.0 136.0,32.0" fill="none" stroke="#6a6a6a" stroke-width="0.9"/>
<path d="M 89.6,0 C 99.4,14.4 127.7,32.0 144.0,32.0" fill="none" stroke="#6a6a6a" stroke-width="0.9"/>
<path d="M 97.6,0 C 107.4,14.4 135.7,32.0 152.0,32.0" fill="none" stroke="#6a6a6a" stroke-width="0.9"/>
<path d="M 105.6,0 C 115.4,14.4 143.7,32.0 160.0,32.0" fill="none" stroke="#6a6a6a" stroke-width="0.9"/>
<path d="M 113.6,0 C 123.4,14.4 151.7,32.0 168.0,32.0" fill="none" stroke="#6a6a6a" stroke-width="0.9"/>
<path d="M 121.6,0 C 131.4,14.4 159.7,32.0 176.0,32.0" fill="none" stroke="#6a6a6a" stroke-width="0.9"/>
<path d="M 129.6,0 C 139.4,14.4 167.7,32.0 184.0,32.0" fill="none" stroke="#6a6a6a" stroke-width="0.9"/>
<path d="M 137.6,0 C 147.4,14.4 175.7,32.0 192.0,32.0" fill="none" stroke="#6a6a6a" stroke-width="0.9"/>
<path d="M 145.6,0 C 155.4,14.4 183.7,32.0 200.0,32.0" fill="none" stroke="#6a6a6a" stroke-width="0.9"/>
<line x1="0" y1="64" x2="96" y2="64" stroke="#222" stroke-width="1.4"/>
<path d="M -54.4,32 C -44.6,46.4 -16.3,64.0 0.0,64.0" fill="none" stroke="#6a6a6a" stroke-width="0.9"/>
<path d="M -46.4,32 C -36.6,46.4 -8.3,64.0 8.0,64.0" fill="none" stroke="#6a6a6a" stroke-width="0.9"/>
<path d="M -38.4,32 C -28.6,46.4 -0.3,64.0 16.0,64.0" fill="none" stroke="#6a6a6a" stroke-width="0.9"/>
<path d="M -30.4,32 C -20.6,46.4 7.7,64.0 24.0,64.0" fill="none" stroke="#6a6a6a" stroke-width="0.9"/>
<path d="M -22.4,32 C -12.6,46.4 15.7,64.0 32.0,64.0" fill="none" stroke="#6a6a6a" stroke-width="0.9"/>
<path d="M -14.4,32 C -4.6,46.4 23.7,64.0 40.0,64.0" fill="none" stroke="#6a6a6a" stroke-width="0.9"/>
<path d="M -6.4,32 C 3.4,46.4 31.7,64.0 48.0,64.0" fill="none" stroke="#6a6a6a" stroke-width="0.9"/>
<path d="M 1.6,32 C 11.4,46.4 39.7,64.0 56.0,64.0" fill="none" stroke="#6a6a6a" stroke-width="0.9"/>
<path d="M 9.6,32 C 19.4,46.4 47.7,64.0 64.0,64.0" fill="none" stroke="#6a6a6a" stroke-width="0.9"/>
<path d="M 17.6,32 C 27.4,46.4 55.7,64.0 72.0,64.0" fill="none" stroke="#6a6a6a" stroke-width="0.9"/>
<path d="M 25.6,32 C 35.4,46.4 63.7,64.0 80.0,64.0" fill="none" stroke="#6a6a6a" stroke-width="0.9"/>
<path d="M 33.6,32 C 43.4,46.4 71.7,64.0 88.0,64.0" fill="none" stroke="#6a6a6a" stroke-width="0.9"/>
<path d="M 41.6,32 C 51.4,46.4 79.7,64.0 96.0,64.0" fill="none" stroke="#6a6a6a" stroke-width="0.9"/>
<path d="M 49.6,32 C 59.4,46.4 87.7,64.0 104.0,64.0" fill="none" stroke="#6a6a6a" stroke-width="0.9"/>
<path d="M 57.6,32 C 67.4,46.4 95.7,64.0 112.0,64.0" fill="none" stroke="#6a6a6a" stroke-width="0.9"/>
<path d="M 65.6,32 C 75.4,46.4 103.7,64.0 120.0,64.0" fill="none" stroke="#6a6a6a" stroke-width="0.9"/>
<path d="M 73.6,32 C 83.4,46.4 111.7,64.0 128.0,64.0" fill="none" stroke="#6a6a6a" stroke-width="0.9"/>
<path d="M 81.6,32 C 91.4,46.4 119.7,64.0 136.0,64.0" fill="none" stroke="#6a6a6a" stroke-width="0.9"/>
<path d="M 89.6,32 C 99.4,46.4 127.7,64.0 144.0,64.0" fill="none" stroke="#6a6a6a" stroke-width="0.9"/>
<path d="M 97.6,32 C 107.4,46.4 135.7,64.0 152.0,64.0" fill="none" stroke="#6a6a6a" stroke-width="0.9"/>
<path d="M 105.6,32 C 115.4,46.4 143.7,64.0 160.0,64.0" fill="none" stroke="#6a6a6a" stroke-width="0.9"/>
<path d="M 113.6,32 C 123.4,46.4 151.7,64.0 168.0,64.0" fill="none" stroke="#6a6a6a" stroke-width="0.9"/>
<path d="M 121.6,32 C 131.4,46.4 159.7,64.0 176.0,64.0" fill="none" stroke="#6a6a6a" stroke-width="0.9"/>
<path d="M 129.6,32 C 139.4,46.4 167.7,64.0 184.0,64.0" fill="none" stroke="#6a6a6a" stroke-width="0.9"/>
<path d="M 137.6,32 C 147.4,46.4 175.7,64.0 192.0,64.0" fill="none" stroke="#6a6a6a" stroke-width="0.9"/>
<path d="M 145.6,32 C 155.4,46.4 183.7,64.0 200.0,64.0" fill="none" stroke="#6a6a6a" stroke-width="0.9"/>
<line x1="0" y1="96" x2="96" y2="96" stroke="#222" stroke-width="1.4"/>
<path d="M -54.4,64 C -44.6,78.4 -16.3,96.0 0.0,96.0" fill="none" stroke="#6a6a6a" stroke-width="0.9"/>
<path d="M -46.4,64 C -36.6,78.4 -8.3,96.0 8.0,96.0" fill="none" stroke="#6a6a6a" stroke-width="0.9"/>
<path d="M -38.4,64 C -28.6,78.4 -0.3,96.0 16.0,96.0" fill="none" stroke="#6a6a6a" stroke-width="0.9"/>
<path d="M -30.4,64 C -20.6,78.4 7.7,96.0 24.0,96.0" fill="none" stroke="#6a6a6a" stroke-width="0.9"/>
<path d="M -22.4,64 C -12.6,78.4 15.7,96.0 32.0,96.0" fill="none" stroke="#6a6a6a" stroke-width="0.9"/>
<path d="M -14.4,64 C -4.6,78.4 23.7,96.0 40.0,96.0" fill="none" stroke="#6a6a6a" stroke-width="0.9"/>
<path d="M -6.4,64 C 3.4,78.4 31.7,96.0 48.0,96.0" fill="none" stroke="#6a6a6a" stroke-width="0.9"/>
<path d="M 1.6,64 C 11.4,78.4 39.7,96.0 56.0,96.0" fill="none" stroke="#6a6a6a" stroke-width="0.9"/>
<path d="M 9.6,64 C 19.4,78.4 47.7,96.0 64.0,96.0" fill="none" stroke="#6a6a6a" stroke-width="0.9"/>
<path d="M 17.6,64 C 27.4,78.4 55.7,96.0 72.0,96.0" fill="none" stroke="#6a6a6a" stroke-width="0.9"/>
<path d="M 25.6,64 C 35.4,78.4 63.7,96.0 80.0,96.0" fill="none" stroke="#6a6a6a" stroke-width="0.9"/>
<path d="M 33.6,64 C 43.4,78.4 71.7,96.0 88.0,96.0" fill="none" stroke="#6a6a6a" stroke-width="0.9"/>
<path d="M 41.6,64 C 51.4,78.4 79.7,96.0 96.0,96.0" fill="none" stroke="#6a6a6a" stroke-width="0.9"/>
<path d="M 49.6,64 C 59.4,78.4 87.7,96.0 104.0,96.0" fill="none" stroke="#6a6a6a" stroke-width="0.9"/>
<path d="M 57.6,64 C 67.4,78.4 95.7,96.0 112.0,96.0" fill="none" stroke="#6a6a6a" stroke-width="0.9"/>
<path d="M 65.6,64 C 75.4,78.4 103.7,96.0 120.0,96.0" fill="none" stroke="#6a6a6a" stroke-width="0.9"/>
<path d="M 73.6,64 C 83.4,78.4 111.7,96.0 128.0,96.0" fill="none" stroke="#6a6a6a" stroke-width="0.9"/>
<path d="M 81.6,64 C 91.4,78.4 119.7,96.0 136.0,96.0" fill="none" stroke="#6a6a6a" stroke-width="0.9"/>
<path d="M 89.6,64 C 99.4,78.4 127.7,96.0 144.0,96.0" fill="none" stroke="#6a6a6a" stroke-width="0.9"/>
<path d="M 97.6,64 C 107.4,78.4 135.7,96.0 152.0,96.0" fill="none" stroke="#6a6a6a" stroke-width="0.9"/>
<path d="M 105.6,64 C 115.4,78.4 143.7,96.0 160.0,96.0" fill="none" stroke="#6a6a6a" stroke-width="0.9"/>
<path d="M 113.6,64 C 123.4,78.4 151.7,96.0 168.0,96.0" fill="none" stroke="#6a6a6a" stroke-width="0.9"/>
<path d="M 121.6,64 C 131.4,78.4 159.7,96.0 176.0,96.0" fill="none" stroke="#6a6a6a" stroke-width="0.9"/>
<path d="M 129.6,64 C 139.4,78.4 167.7,96.0 184.0,96.0" fill="none" stroke="#6a6a6a" stroke-width="0.9"/>
<path d="M 137.6,64 C 147.4,78.4 175.7,96.0 192.0,96.0" fill="none" stroke="#6a6a6a" stroke-width="0.9"/>
<path d="M 145.6,64 C 155.4,78.4 183.7,96.0 200.0,96.0" fill="none" stroke="#6a6a6a" stroke-width="0.9"/></g></pattern></defs>
<rect width="120" height="120" fill="url(#pat_SGp)" stroke="black" stroke-width="1"/>
</svg>
