<svg xmlns="http://www.w3.org/2000/svg" width="120" height="120" viewBox="0 0 120 120">
<defs><clipPath id="clip96"><rect width="96" height="96"/></clipPath><pattern id="pat_SGp" patternUnits="userSpaceOnUse" width="96" height="96"><rect width="96" height="96" fill="white"/><g clip-path="url(#clip96)"><line x1="0" y1="32" x2="96" y2="32" stroke="#222" stroke-width="1.4"/>
<path d="M -54.4,0 C -44.6,14.4 -16.3,32.0 0.0,32.0" fill="none" stroke="#6a6a6a" stroke-width="0.9"/>
<path d="M -46.4,0 C -36.6,14.4 -8.3,32.0 8.0,32.0" fill="none" stroke="#6a6a6a" stroke-width="0.9"/>
<path d="M -38.4,0 C -28.6,14.4 -0.3,32.0 16.0,32.0" fill="none" stroke="#6a6a6a" stroke-width="0.9"/>
<path d="M -30.4,0 C -20.6,14.4 7.7,32.0 24.0,32.0" fill="none" stroke="#6a6a6a" stroke-width="0.9"/>
<path d="M -22.4,0 C -12.6,14.4 15.7,32.0 32.0,32.0" fill="none" stroke="#6a6a6a" stroke-width="0.9"/>
<path d="M -14.4,0 C -4.6,14.4 23.7,32.0 40.0,32.0" fill="none" stroke="#6a6a6a" stroke-width="0.9"/>
<path d="M -6.4,0 C 3.4,14.4 31.7,32.0 48.0,32.0" fill="none" stroke="#6a6a6a" stroke-width="0.9"/>
<path d="M 1.6,0 C 11.4,14.4 39.7,32.0 56.0,32.0" fill="none" stroke="#6a6a6a" stroke-width="0.9"/>
<path d="M 9.6,0 C 19.4,14.4 47.7,32.0 64.0,32.0" fill="none" stroke="#6a6a6a" stroke-width="0.9"/>
<path d="M 17.6,0 C 27.4,14.4 55.7,32.0 72.0,32.0" fill="none" stroke="#6a6a6a" stroke-width="0.9"/>
<path d="M 25.6,0 C 35.4,14.4 63.7,32.0 80.0,32.0" fill="none" stroke="#6a6a6a" stroke-width="0.9"/>
<path d="M 33.6,0 C 43.4,14.4 71.7,32.0 88.0,32.0" fill="none" stroke="#6a6a6a" stroke-width="0.9"/>
<path d="M 41.6,0 C 51.4,14.4 79.7,32.0 96.0,32.0" fill="none" stroke="#6a6a6a" stroke-width="0.9"/>
<path d="M 49.6,0 C 59.4,14.4 87.7,32.0 104.0,32.0" fill="none" stroke="#6a6a6a" stroke-width="0.9"/>
<path d="M 57.6,0 C 67.4,14.4 95.7,32.0 112.0,32.0" fill="none" stroke="#6a6a6a" stroke-width="0.9"/>
<path d="M 65.6,0 C 75.4,14.4 103.7,32.0 120.0,32.0" fill="none" stroke="#6a6a6a" stroke-width="0.9"/>
<path d="M 73.6,0 C 83.4,14.4 111.7,32.0 128.0,32.0" fill="none" stroke="#6a6a6a" stroke-width="0.9"/>
<path d="M 81.6,0 C 91.4,14.4 119.7,32.0 136.0,32.0" fill="none" stroke="#6a6a6a" stroke-width="0.9"/>
<path d="M 89.6,0 C 99.4,14.4 127.7,32.0 144.0,32.0" fill="none" stroke="#6a6a6a" stroke-width="0.9"/>
<path d="M 97.6,0 C 107.4,14.4 135.7,32.0 152.0,32.0" fill="none" stroke="#6a6a6a" stroke-width="0.9"/>
<path d="M 105.6,0 C 115.4,14.4 143.7,32.0 160.0,32.0" fill="none" stroke="#6a6a6a" stroke-width="0.9"/>
<path d="M 113.6,0 C 123.4,14.4 151.7,32.0 168.0,32.0" fill="none" stroke="#6a6a6a" stroke-width="0.9"/>
<path d="M 121.6,0 C 131.4,14.4 159.7,32.0 176.0,32.0" fill="none" stroke="#6a6a6a" stroke-width="0.9"/>
<path d="M 129.6,0 C 139.4,14.4 167.7,32.0 184.0,32.0" fill="none" stroke="#6a6a6a" stroke-width="0.9"/>
<path d="M 137.6,0 C 147.4,14.4 175.7,32.0 192.0,32.0" fill="none" stroke="#6a6a6a" stroke-width="0.9"/>
<path d="M 145.6,0 C 155.4,14.4 183.7,32.0 200.0,32.0" fill="none" stroke="#6a6a6a" stroke-width="0.9"/>
<line x1="0" y1="64" x2="96" y2="64" stroke="#222" stroke-width="1.4"/>
<path d="M -54.4,32 C -44.6,46.4 -16.3,64.0 0.0,64.0" fill="none" stroke="#6a6a6a" stroke-width="0.9"/>
<path d="M -46.4,32 C -36.6,46.4 -8.3,64.0 8.0,64.0" fill="none" stroke="#6a6a6a" stroke-width="0.9"/>
<path d="M -38.4,32 C -28.6,46.4 -0.3,64.0 16.0,64.0" fill="none" stroke="#6a6a6a" stroke-width="0.9"/>
<path d="M -30.4,32 C -20.6,46.4 7.7,64.0 24.0,64.0" fill="none" stroke="#6a6a6a" stroke-width="0.9"/>
<path d="M -22.4,32 C -12.6,46.4 15.7,64.0 32.0,64.0" fill="none" stroke="#6a6a6a" stroke-width="0.9"/>
<path d="M -14.4,32 C -4.6,46.4 23.7,64.0 40.0,64.0" fill="none" stroke="#6a6a6a" stroke-width="0.9"/>
<path d="M -6.4,32 C 3.4,46.4 31.7,64.0 48.0,64.0" fill="none" stroke="#6a6a6a" stroke-width="0.9"/>
<path d="M 1.6,32 C 11.4,46.4 39.7,64.0 56.0,64.0" fill="none" stroke="#6a6a6a" stroke-width="0.9"/>
<path d="M 9.6,32 C 19.4,46.4 47.7,64.0 64.0,64.0" fill="none" stroke="#6a6a6a" stroke-width="0.9"/>
<path d="M 17.6,32 C 27.4,46.4 55.7,64.0 72.0,64.0" fill="none" stroke="#6a6a6a" stroke-width="0.9"/>
<path d="M 25.6,32 C 35.4,46.4 63.7,64.0 80.0,64.0" fill="none" stroke="#6a6a6a" stroke-width="0.9"/>
<path d="M 33.6,32 C 43.4,46.4 71.7,64.0 88.0,64.0" fill="none" stroke="#6a6a6a" stroke-width="0.9"/>
<path d="M 41.6,32 C 51.4,46.4 79.7,64.0 96.0,64.0" fill="none" stroke="#6a6a6a" stroke-width="0.9"/>
<path d="M 49.6,32 C 59.4,46.4 87.7,64.0 104.0,64.0" fill="none" stroke="#6a6a6a" stroke-width="0.9"/>
<path d="M 57.6,32 C 67.4,46.4 95.7,64.0 112.0,64.0" fill="none" stroke="#6a6a6a" stroke-width="0.9"/>
<path d="M 65.6,32 C 75.4,46.4 103.7,64.0 120.0,64.0" fill="none" stroke="#6a6a6a" stroke-width="0.9"/>
<path d="M 73.6,32 C 83.4,46.4 111.7,64.0 128.0,64.0" fill="none" stroke="#6a6a6a" stroke-width="0.9"/>
<path d="M 81.6,32 C 91.4,46.4 119.7,64.0 136.0,64.0" fill="none" stroke="#6a6a6a" stroke-width="0.9"/>
<path d="M 89.6,32 C 99.4,46.4 127.7,64.0 144.0,64.0" fill="none" stroke="#6a6a6a" stroke-width="0.9"/>
<path d="M 97.6,32 C 107.4,46.4 135.7,64.0 152.0,64.0" fill="none" stroke="#6a6a6a" stroke-width="0.9"/>
<path d="M 105.6,32 C 115.4,46.4 143.7,64.0 160.0,64.0" fill="none" stroke="#6a6a6a" stroke-width="0.9"/>
<path d="M 113.6,32 C 123.4,46.4 151.7,64.0 168.0,64.0" fill="none" stroke="#6a6a6a" stroke-width="0.9"/>
<path d="M 121.6,32 C 131.4,46.4 159.7,64.0 176.0,64.0" fill="none" stroke="#6a6a6a" stroke-width="0.9"/>
<path d="M 129.6,32 C 139.4,46.4 167.7,64.0 184.0,64.0" fill="none" stroke="#6a6a6a" stroke-width="0.9"/>
<path d="M 137.6,32 C 147.4,46.4 175.7,64.0 192.0,64.0" fill="none" stroke="#6a6a6a" stroke-width="0.9"/>
<path d="M 145.6,32 C 155.4,46.4 183.7,64.0 200.0,64.0" fill="none" stroke="#6a6a6a" stroke-width="0.9"/>
<line x1="0" y1="96" x2="96" y2="96" stroke="#222" stroke-width="1.4"/>
<path d="M -54.4,64 C -44.6,78.4 -16.3,96.0 0.0,96.0" fill="none" stroke="#6a6a6a" stroke-width="0.9"/>
<path d="M -46.4,64 C -36.6,78.4 -8.3,96.0 8.0,96.0" fill="none" stroke="#6a6a6a" stroke-width="0.9"/>
<path d="M -38.4,64 C -28.6,78.4 -0.3,96.0 16.0,96.0" fill="none" stroke="#6a6a6a" stroke-width="0.9"/>
<path d="M -30.4,64 C -20.6,78.4 7.7,96.0 24.0,96.0" fill="none" stroke="#6a6a6a" stroke-width="0.9"/>
<path d="M -22.4,64 C -12.6,78.4 15.7,96.0 32.0,96.0" fill="none" stroke="#6a6a6a" stroke-width="0.9"/>
<path d="M -14.4,64 C -4.6,78.4 23.7,96.0 40.0,96.0" fill="none" stroke="#6a6a6a" stroke-width="0.9"/>
<path d="M -6.4,64 C 3.4,78.4 31.7,96.0 48.0,96.0" fill="none" stroke="#6a6a6a" stroke-width="0.9"/>
<path d="M 1.6,64 C 11.4,78.4 39.7,96.0 56.0,96.0" fill="none" stroke="#6a6a6a" stroke-width="0.9"/>
<path d="M 9.6,64 C 19.4,78.4 47.7,96.0 64.0,96.0" fill="none" stroke="#6a6a6a" stroke-width="0.9"/>
<path d="M 17.6,64 C 27.4,78.4 55.7,96.0 72.0,96.0" fill="none" stroke="#6a6a6a" stroke-width="0.9"/>
<path d="M 25.6,64 C 35.4,78.4 63.7,96.0 80.0,96.0" fill="none" stroke="#6a6a6a" stroke-width="0.9"/>
<path d="M 33.6,64 C 43.4,78.4 71.7,96.0 88.0,96.0" fill="none" stroke="#6a6a6a" stroke-width="0.9"/>
<path d="M 41.6,64 C 51.4,78.4 79.7,96.0 96.0,96.0" fill="none" stroke="#6a6a6a" stroke-width="0.9"/>
<path d="M 49.6,64 C 59.4,78.4 87.7,96.0 104.0,96.0" fill="none" stroke="#6a6a6a" stroke-width="0.9"/>
<path d="M 57.6,64 C 67.4,78.4 95.7,96.0 112.0,96.0" fill="none" stroke="#6a6a6a" stroke-width="0.9"/>
<path d="M 65.6,64 C 75.4,78.4 103.7,96.0 120.0,96.0" fill="none" stroke="#6a6a6a" stroke-width="0.9"/>
<path d="M 73.6,64 C 83.4,78.4 111.7,96.0 128.0,96.0" fill="none" stroke="#6a6a6a" stroke-width="0.9"/>
<path d="M 81.6,64 C 91.4,78.4 119.7,96.0 136.0,96.0" fill="none" stroke="#6a6a6a" stroke-width="0.9"/>
<path d="M 89.6,64 C 99.4,78.4 127.7,96.0 144.0,96.0" fill="none" stroke="#6a6a6a" stroke-width="0.9"/>
<path d="M 97.6,64 C 107.4,78.4 135.7,96.0 152.0,96.0" fill="none" stroke="#6a6a6a" stroke-width="0.9"/>
<path d="M 105.6,64 C 115.4,78.4 143.7,96.0 160.0,96.0" fill="none" stroke="#6a6a6a" stroke-width="0.9"/>
<path d="M 113.6,64 C 123.4,78.4 151.7,96.0 168.0,96.0" fill="none" stroke="#6a6a6a" stroke-width="0.9"/>
<path d="M 121.6,64 C 131.4,78.4 159.7,96.0 176.0,96.0" fill="none" stroke="#6a6a6a" stroke-width="0.9"/>
<path d="M 129.6,64 C 139.4,78.4 167.7,96.0 184.0,96.0" fill="none" stroke="#6a6a6a" stroke-width="0.9"/>
<path d="M 137.6,64 C 147.4,78.4 175.7,96.0 192.0,96.0" fill="none" stroke="#6a6a6a" stroke-width="0.9"/>
<path d="M 145.6,64 C 155.4,78.4 183.7,96.0 200.0,96.0" fill="none" stroke="#6a6a6a" stroke-width="0.9"/></g></pattern></defs>
<rect width="120" height="120" fill="url(#pat_SGp)" stroke="black" stroke-width="1"/>
</svg>
