<svg xmlns="http://www.w3.org/2000/svg" width="120" height="120" viewBox="0 0 120 120">
<defs><clipPath id="clip96"><rect width="96" height="96"/></clipPath><pattern id="pat_SGt" patternUnits="userSpaceOnUse" width="96" height="96"><rect width="96" height="96" fill="white"/><g clip-path="url(#clip96)"><line x1="0" y1="0" x2="96" y2="0" stroke="#222" stroke-width="1.3"/>
<path d="M -56.0 8 Q -48.0 3 -40.0 8" fill="none" stroke="#6a6a6a" stroke-width="0.8"/>
<path d="M -64.0 8 Q -48.0 1 -32.0 8" fill="none" stroke="#6a6a6a" stroke-width="0.8"/>
<path d="M -72.0 8 Q -48.0 -1 -24.0 8" fill="none" stroke="#6a6a6a" stroke-width="0.8"/>
<path d="M -8.0 8 Q 0.0 3 8.0 8" fill="none" stroke="#6a6a6a" stroke-width="0.8"/>
<path d="M -16.0 8 Q 0.0 1 16.0 8" fill="none" stroke="#6a6a6a" stroke-width="0.8"/>
<path d="M -24.0 8 Q 0.0 -1 24.0 8" fill="none" stroke="#6a6a6a" stroke-width="0.8"/>
<path d="M 40.0 8 Q 48.0 3 56.0 8" fill="none" stroke="#6a6a6a" stroke-width="0.8"/>
<path d="M 32.0 8 Q 48.0 1 64.0 8" fill="none" stroke="#6a6a6a" stroke-width="0.8"/>
<path d="M 24.0 8 Q 48.0 -1 72.0 8" fill="none" stroke="#6a6a6a" stroke-width="0.8"/>
<path d="M 88.0 8 Q 96.0 3 104.0 8" fill="none" stroke="#6a6a6a" stroke-width="0.8"/>
<path d="M 80.0 8 Q 96.0 1 112.0 8" fill="none" stroke="#6a6a6a" stroke-width="0.8"/>
<path d="M 72.0 8 Q 96.0 -1 120.0 8" fill="none" stroke="#6a6a6a" stroke-width="0.8"/>
<path d="M 136.0 8 Q 144.0 3 152.0 8" fill="none" stroke="#6a6a6a" stroke-width="0.8"/>
<path d="M 128.0 8 Q 144.0 1 160.0 8" fill="none" stroke="#6a6a6a" stroke-width="0.8"/>
<path d="M 120.0 8 Q 144.0 -1 168.0 8" fill="none" stroke="#6a6a6a" stroke-width="0.8"/>
<path d="M -32.0 17 Q -24.0 12 -16.0 17" fill="none" stroke="#6a6a6a" stroke-width="0.8"/>
<path d="M -40.0 17 Q -24.0 10 -8.0 17" fill="none" stroke="#6a6a6a" stroke-width="0.8"/>
<path d="M -48.0 17 Q -24.0 8 0.0 17" fill="none" stroke="#6a6a6a" stroke-width="0.8"/>
<path d="M 16.0 17 Q 24.0 12 32.0 17" fill="none" stroke="#6a6a6a" stroke-width="0.8"/>
<path d="M 8.0 17 Q 24.0 10 40.0 17" fill="none" stroke="#6a6a6a" stroke-width="0.8"/>
<path d="M 0.0 17 Q 24.0 8 48.0 17" fill="none" stroke="#6a6a6a" stroke-width="0.8"/>
<path d="M 64.0 17 Q 72.0 12 80.0 17" fill="none" stroke="#6a6a6a" stroke-width="0.8"/>
<path d="M 56.0 17 Q 72.0 10 88.0 17" fill="none" stroke="#6a6a6a" stroke-width="0.8"/>
<path d="M 48.0 17 Q 72.0 8 96.0 17" fill="none" stroke="#6a6a6a" stroke-width="0.8"/>
<path d="M 112.0 17 Q 120.0 12 128.0 17" fill="none" stroke="#6a6a6a" stroke-width="0.8"/>
<path d="M 104.0 17 Q 120.0 10 136.0 17" fill="none" stroke="#6a6a6a" stroke-width="0.8"/>
<path d="M 96.0 17 Q 120.0 8 144.0 17" fill="none" stroke="#6a6a6a" stroke-width="0.8"/>
<path d="M 160.0 17 Q 168.0 12 176.0 17" fill="none" stroke="#6a6a6a" stroke-width="0.8"/>
<path d="M 152.0 17 Q 168.0 10 184.0 17" fill="none" stroke="#6a6a6a" stroke-width="0.8"/>
<path d="M 144.0 17 Q 168.0 8 192.0 17" fill="none" stroke="#6a6a6a" stroke-width="0.8"/>
<path d="M -56.0 26 Q -48.0 21 -40.0 26" fill="none" stroke="#6a6a6a" stroke-width="0.8"/>
<path d="M -64.0 26 Q -48.0 19 -32.0 26" fill="none" stroke="#6a6a6a" stroke-width="0.8"/>
<path d="M -72.0 26 Q -48.0 17 -24.0 26" fill="none" stroke="#6a6a6a" stroke-width="0.8"/>
<path d="M -8.0 26 Q 0.0 21 8.0 26" fill="none" stroke="#6a6a6a" stroke-width="0.8"/>
<path d="M -16.0 26 Q 0.0 19 16.0 26" fill="none" stroke="#6a6a6a" stroke-width="0.8"/>
<path d="M -24.0 26 Q 0.0 17 24.0 26" fill="none" stroke="#6a6a6a" stroke-width="0.8"/>
<path d="M 40.0 26 Q 48.0 21 56.0 26" fill="none" stroke="#6a6a6a" stroke-width="0.8"/>
<path d="M 32.0 26 Q 48.0 19 64.0 26" fill="none" stroke="#6a6a6a" stroke-width="0.8"/>
<path d="M 24.0 26 Q 48.0 17 72.0 26" fill="none" stroke="#6a6a6a" stroke-width="0.8"/>
<path d="M 88.0 26 Q 96.0 21 104.0 26" fill="none" stroke="#6a6a6a" stroke-width="0.8"/>
<path d="M 80.0 26 Q 96.0 19 112.0 26" fill="none" stroke="#6a6a6a" stroke-width="0.8"/>
<path d="M 72.0 26 Q 96.0 17 120.0 26" fill="none" stroke="#6a6a6a" stroke-width="0.8"/>
<path d="M 136.0 26 Q 144.0 21 152.0 26" fill="none" stroke="#6a6a6a" stroke-width="0.8"/>
<path d="M 128.0 26 Q 144.0 19 160.0 26" fill="none" stroke="#6a6a6a" stroke-width="0.8"/>
<path d="M 120.0 26 Q 144.0 17 168.0 26" fill="none" stroke="#6a6a6a" stroke-width="0.8"/>
<path d="M -32.0 35 Q -24.0 30 -16.0 35" fill="none" stroke="#6a6a6a" stroke-width="0.8"/>
<path d="M -40.0 35 Q -24.0 28 -8.0 35" fill="none" stroke="#6a6a6a" stroke-width="0.8"/>
<path d="M -48.0 35 Q -24.0 26 0.0 35" fill="none" stroke="#6a6a6a" stroke-width="0.8"/>
<path d="M 16.0 35 Q 24.0 30 32.0 35" fill="none" stroke="#6a6a6a" stroke-width="0.8"/>
<path d="M 8.0 35 Q 24.0 28 40.0 35" fill="none" stroke="#6a6a6a" stroke-width="0.8"/>
<path d="M 0.0 35 Q 24.0 26 48.0 35" fill="none" stroke="#6a6a6a" stroke-width="0.8"/>
<path d="M 64.0 35 Q 72.0 30 80.0 35" fill="none" stroke="#6a6a6a" stroke-width="0.8"/>
<path d="M 56.0 35 Q 72.0 28 88.0 35" fill="none" stroke="#6a6a6a" stroke-width="0.8"/>
<path d="M 48.0 35 Q 72.0 26 96.0 35" fill="none" stroke="#6a6a6a" stroke-width="0.8"/>
<path d="M 112.0 35 Q 120.0 30 128.0 35" fill="none" stroke="#6a6a6a" stroke-width="0.8"/>
<path d="M 104.0 35 Q 120.0 28 136.0 35" fill="none" stroke="#6a6a6a" stroke-width="0.8"/>
<path d="M 96.0 35 Q 120.0 26 144.0 35" fill="none" stroke="#6a6a6a" stroke-width="0.8"/>
<path d="M 160.0 35 Q 168.0 30 176.0 35" fill="none" stroke="#6a6a6a" stroke-width="0.8"/>
<path d="M 152.0 35 Q 168.0 28 184.0 35" fill="none" stroke="#6a6a6a" stroke-width="0.8"/>
<path d="M 144.0 35 Q 168.0 26 192.0 35" fill="none" stroke="#6a6a6a" stroke-width="0.8"/>
<line x1="0" y1="30" x2="96" y2="30" stroke="#222" stroke-width="1.3"/>
<path d="M -32.0 38 Q -24.0 33 -16.0 38" fill="none" stroke="#6a6a6a" stroke-width="0.8"/>
<path d="M -40.0 38 Q -24.0 31 -8.0 38" fill="none" stroke="#6a6a6a" stroke-width="0.8"/>
<path d="M -48.0 38 Q -24.0 29 0.0 38" fill="none" stroke="#6a6a6a" stroke-width="0.8"/>
<path d="M 16.0 38 Q 24.0 33 32.0 38" fill="none" stroke="#6a6a6a" stroke-width="0.8"/>
<path d="M 8.0 38 Q 24.0 31 40.0 38" fill="none" stroke="#6a6a6a" stroke-width="0.8"/>
<path d="M 0.0 38 Q 24.0 29 48.0 38" fill="none" stroke="#6a6a6a" stroke-width="0.8"/>
<path d="M 64.0 38 Q 72.0 33 80.0 38" fill="none" stroke="#6a6a6a" stroke-width="0.8"/>
<path d="M 56.0 38 Q 72.0 31 88.0 38" fill="none" stroke="#6a6a6a" stroke-width="0.8"/>
<path d="M 48.0 38 Q 72.0 29 96.0 38" fill="none" stroke="#6a6a6a" stroke-width="0.8"/>
<path d="M 112.0 38 Q 120.0 33 128.0 38" fill="none" stroke="#6a6a6a" stroke-width="0.8"/>
<path d="M 104.0 38 Q 120.0 31 136.0 38" fill="none" stroke="#6a6a6a" stroke-width="0.8"/>
<path d="M 96.0 38 Q 120.0 29 144.0 38" fill="none" stroke="#6a6a6a" stroke-width="0.8"/>
<path d="M 160.0 38 Q 168.0 33 176.0 38" fill="none" stroke="#6a6a6a" stroke-width="0.8"/>
<path d="M 152.0 38 Q 168.0 31 184.0 38" fill="none" stroke="#6a6a6a" stroke-width="0.8"/>
<path d="M 144.0 38 Q 168.0 29 192.0 38" fill="none" stroke="#6a6a6a" stroke-width="0.8"/>
<path d="M -56.0 47 Q -48.0 42 -40.0 47" fill="none" stroke="#6a6a6a" stroke-width="0.8"/>
<path d="M -64.0 47 Q -48.0 40 -32.0 47" fill="none" stroke="#6a6a6a" stroke-width="0.8"/>
<path d="M -72.0 47 Q -48.0 38 -24.0 47" fill="none" stroke="#6a6a6a" stroke-width="0.8"/>
<path d="M -8.0 47 Q 0.0 42 8.0 47" fill="none" stroke="#6a6a6a" stroke-width="0.8"/>
<path d="M -16.0 47 Q 0.0 40 16.0 47" fill="none" stroke="#6a6a6a" stroke-width="0.8"/>
<path d="M -24.0 47 Q 0.0 38 24.0 47" fill="none" stroke="#6a6a6a" stroke-width="0.8"/>
<path d="M 40.0 47 Q 48.0 42 56.0 47" fill="none" stroke="#6a6a6a" stroke-width="0.8"/>
<path d="M 32.0 47 Q 48.0 40 64.0 47" fill="none" stroke="#6a6a6a" stroke-width="0.8"/>
<path d="M 24.0 47 Q 48.0 38 72.0 47" fill="none" stroke="#6a6a6a" stroke-width="0.8"/>
<path d="M 88.0 47 Q 96.0 42 104.0 47" fill="none" stroke="#6a6a6a" stroke-width="0.8"/>
<path d="M 80.0 47 Q 96.0 40 112.0 47" fill="none" stroke="#6a6a6a" stroke-width="0.8"/>
<path d="M 72.0 47 Q 96.0 38 120.0 47" fill="none" stroke="#6a6a6a" stroke-width="0.8"/>
<path d="M 136.0 47 Q 144.0 42 152.0 47" fill="none" stroke="#6a6a6a" stroke-width="0.8"/>
<path d="M 128.0 47 Q 144.0 40 160.0 47" fill="none" stroke="#6a6a6a" stroke-width="0.8"/>
<path d="M 120.0 47 Q 144.0 38 168.0 47" fill="none" stroke="#6a6a6a" stroke-width="0.8"/>
<path d="M -32.0 56 Q -24.0 51 -16.0 56" fill="none" stroke="#6a6a6a" stroke-width="0.8"/>
<path d="M -40.0 56 Q -24.0 49 -8.0 56" fill="none" stroke="#6a6a6a" stroke-width="0.8"/>
<path d="M -48.0 56 Q -24.0 47 0.0 56" fill="none" stroke="#6a6a6a" stroke-width="0.8"/>
<path d="M 16.0 56 Q 24.0 51 32.0 56" fill="none" stroke="#6a6a6a" stroke-width="0.8"/>
<path d="M 8.0 56 Q 24.0 49 40.0 56" fill="none" stroke="#6a6a6a" stroke-width="0.8"/>
<path d="M 0.0 56 Q 24.0 47 48.0 56" fill="none" stroke="#6a6a6a" stroke-width="0.8"/>
<path d="M 64.0 56 Q 72.0 51 80.0 56" fill="none" stroke="#6a6a6a" stroke-width="0.8"/>
<path d="M 56.0 56 Q 72.0 49 88.0 56" fill="none" stroke="#6a6a6a" stroke-width="0.8"/>
<path d="M 48.0 56 Q 72.0 47 96.0 56" fill="none" stroke="#6a6a6a" stroke-width="0.8"/>
<path d="M 112.0 56 Q 120.0 51 128.0 56" fill="none" stroke="#6a6a6a" stroke-width="0.8"/>
<path d="M 104.0 56 Q 120.0 49 136.0 56" fill="none" stroke="#6a6a6a" stroke-width="0.8"/>
<path d="M 96.0 56 Q 120.0 47 144.0 56" fill="none" stroke="#6a6a6a" stroke-width="0.8"/>
<path d="M 160.0 56 Q 168.0 51 176.0 56" fill="none" stroke="#6a6a6a" stroke-width="0.8"/>
<path d="M 152.0 56 Q 168.0 49 184.0 56" fill="none" stroke="#6a6a6a" stroke-width="0.8"/>
<path d="M 144.0 56 Q 168.0 47 192.0 56" fill="none" stroke="#6a6a6a" stroke-width="0.8"/>
<path d="M -56.0 65 Q -48.0 60 -40.0 65" fill="none" stroke="#6a6a6a" stroke-width="0.8"/>
<path d="M -64.0 65 Q -48.0 58 -32.0 65" fill="none" stroke="#6a6a6a" stroke-width="0.8"/>
<path d="M -72.0 65 Q -48.0 56 -24.0 65" fill="none" stroke="#6a6a6a" stroke-width="0.8"/>
<path d="M -8.0 65 Q 0.0 60 8.0 65" fill="none" stroke="#6a6a6a" stroke-width="0.8"/>
<path d="M -16.0 65 Q 0.0 58 16.0 65" fill="none" stroke="#6a6a6a" stroke-width="0.8"/>
<path d="M -24.0 65 Q 0.0 56 24.0 65" fill="none" stroke="#6a6a6a" stroke-width="0.8"/>
<path d="M 40.0 65 Q 48.0 60 56.0 65" fill="none" stroke="#6a6a6a" stroke-width="0.8"/>
<path d="M 32.0 65 Q 48.0 58 64.0 65" fill="none" stroke="#6a6a6a" stroke-width="0.8"/>
<path d="M 24.0 65 Q 48.0 56 72.0 65" fill="none" stroke="#6a6a6a" stroke-width="0.8"/>
<path d="M 88.0 65 Q 96.0 60 104.0 65" fill="none" stroke="#6a6a6a" stroke-width="0.8"/>
<path d="M 80.0 65 Q 96.0 58 112.0 65" fill="none" stroke="#6a6a6a" stroke-width="0.8"/>
<path d="M 72.0 65 Q 96.0 56 120.0 65" fill="none" stroke="#6a6a6a" stroke-width="0.8"/>
<path d="M 136.0 65 Q 144.0 60 152.0 65" fill="none" stroke="#6a6a6a" stroke-width="0.8"/>
<path d="M 128.0 65 Q 144.0 58 160.0 65" fill="none" stroke="#6a6a6a" stroke-width="0.8"/>
<path d="M 120.0 65 Q 144.0 56 168.0 65" fill="none" stroke="#6a6a6a" stroke-width="0.8"/>
<line x1="0" y1="60" x2="96" y2="60" stroke="#222" stroke-width="1.3"/>
<path d="M -56.0 68 Q -48.0 63 -40.0 68" fill="none" stroke="#6a6a6a" stroke-width="0.8"/>
<path d="M -64.0 68 Q -48.0 61 -32.0 68" fill="none" stroke="#6a6a6a" stroke-width="0.8"/>
<path d="M -72.0 68 Q -48.0 59 -24.0 68" fill="none" stroke="#6a6a6a" stroke-width="0.8"/>
<path d="M -8.0 68 Q 0.0 63 8.0 68" fill="none" stroke="#6a6a6a" stroke-width="0.8"/>
<path d="M -16.0 68 Q 0.0 61 16.0 68" fill="none" stroke="#6a6a6a" stroke-width="0.8"/>
<path d="M -24.0 68 Q 0.0 59 24.0 68" fill="none" stroke="#6a6a6a" stroke-width="0.8"/>
<path d="M 40.0 68 Q 48.0 63 56.0 68" fill="none" stroke="#6a6a6a" stroke-width="0.8"/>
<path d="M 32.0 68 Q 48.0 61 64.0 68" fill="none" stroke="#6a6a6a" stroke-width="0.8"/>
<path d="M 24.0 68 Q 48.0 59 72.0 68" fill="none" stroke="#6a6a6a" stroke-width="0.8"/>
<path d="M 88.0 68 Q 96.0 63 104.0 68" fill="none" stroke="#6a6a6a" stroke-width="0.8"/>
<path d="M 80.0 68 Q 96.0 61 112.0 68" fill="none" stroke="#6a6a6a" stroke-width="0.8"/>
<path d="M 72.0 68 Q 96.0 59 120.0 68" fill="none" stroke="#6a6a6a" stroke-width="0.8"/>
<path d="M 136.0 68 Q 144.0 63 152.0 68" fill="none" stroke="#6a6a6a" stroke-width="0.8"/>
<path d="M 128.0 68 Q 144.0 61 160.0 68" fill="none" stroke="#6a6a6a" stroke-width="0.8"/>
<path d="M 120.0 68 Q 144.0 59 168.0 68" fill="none" stroke="#6a6a6a" stroke-width="0.8"/>
<path d="M -32.0 77 Q -24.0 72 -16.0 77" fill="none" stroke="#6a6a6a" stroke-width="0.8"/>
<path d="M -40.0 77 Q -24.0 70 -8.0 77" fill="none" stroke="#6a6a6a" stroke-width="0.8"/>
<path d="M -48.0 77 Q -24.0 68 0.0 77" fill="none" stroke="#6a6a6a" stroke-width="0.8"/>
<path d="M 16.0 77 Q 24.0 72 32.0 77" fill="none" stroke="#6a6a6a" stroke-width="0.8"/>
<path d="M 8.0 77 Q 24.0 70 40.0 77" fill="none" stroke="#6a6a6a" stroke-width="0.8"/>
<path d="M 0.0 77 Q 24.0 68 48.0 77" fill="none" stroke="#6a6a6a" stroke-width="0.8"/>
<path d="M 64.0 77 Q 72.0 72 80.0 77" fill="none" stroke="#6a6a6a" stroke-width="0.8"/>
<path d="M 56.0 77 Q 72.0 70 88.0 77" fill="none" stroke="#6a6a6a" stroke-width="0.8"/>
<path d="M 48.0 77 Q 72.0 68 96.0 77" fill="none" stroke="#6a6a6a" stroke-width="0.8"/>
<path d="M 112.0 77 Q 120.0 72 128.0 77" fill="none" stroke="#6a6a6a" stroke-width="0.8"/>
<path d="M 104.0 77 Q 120.0 70 136.0 77" fill="none" stroke="#6a6a6a" stroke-width="0.8"/>
<path d="M 96.0 77 Q 120.0 68 144.0 77" fill="none" stroke="#6a6a6a" stroke-width="0.8"/>
<path d="M 160.0 77 Q 168.0 72 176.0 77" fill="none" stroke="#6a6a6a" stroke-width="0.8"/>
<path d="M 152.0 77 Q 168.0 70 184.0 77" fill="none" stroke="#6a6a6a" stroke-width="0.8"/>
<path d="M 144.0 77 Q 168.0 68 192.0 77" fill="none" stroke="#6a6a6a" stroke-width="0.8"/>
<path d="M -56.0 86 Q -48.0 81 -40.0 86" fill="none" stroke="#6a6a6a" stroke-width="0.8"/>
<path d="M -64.0 86 Q -48.0 79 -32.0 86" fill="none" stroke="#6a6a6a" stroke-width="0.8"/>
<path d="M -72.0 86 Q -48.0 77 -24.0 86" fill="none" stroke="#6a6a6a" stroke-width="0.8"/>
<path d="M -8.0 86 Q 0.0 81 8.0 86" fill="none" stroke="#6a6a6a" stroke-width="0.8"/>
<path d="M -16.0 86 Q 0.0 79 16.0 86" fill="none" stroke="#6a6a6a" stroke-width="0.8"/>
<path d="M -24.0 86 Q 0.0 77 24.0 86" fill="none" stroke="#6a6a6a" stroke-width="0.8"/>
<path d="M 40.0 86 Q 48.0 81 56.0 86" fill="none" stroke="#6a6a6a" stroke-width="0.8"/>
<path d="M 32.0 86 Q 48.0 79 64.0 86" fill="none" stroke="#6a6a6a" stroke-width="0.8"/>
<path d="M 24.0 86 Q 48.0 77 72.0 86" fill="none" stroke="#6a6a6a" stroke-width="0.8"/>
<path d="M 88.0 86 Q 96.0 81 104.0 86" fill="none" stroke="#6a6a6a" stroke-width="0.8"/>
<path d="M 80.0 86 Q 96.0 79 112.0 86" fill="none" stroke="#6a6a6a" stroke-width="0.8"/>
<path d="M 72.0 86 Q 96.0 77 120.0 86" fill="none" stroke="#6a6a6a" stroke-width="0.8"/>
<path d="M 136.0 86 Q 144.0 81 152.0 86" fill="none" stroke="#6a6a6a" stroke-width="0.8"/>
<path d="M 128.0 86 Q 144.0 79 160.0 86" fill="none" stroke="#6a6a6a" stroke-width="0.8"/>
<path d="M 120.0 86 Q 144.0 77 168.0 86" fill="none" stroke="#6a6a6a" stroke-width="0.8"/>
<path d="M -32.0 95 Q -24.0 90 -16.0 95" fill="none" stroke="#6a6a6a" stroke-width="0.8"/>
<path d="M -40.0 95 Q -24.0 88 -8.0 95" fill="none" stroke="#6a6a6a" stroke-width="0.8"/>
<path d="M -48.0 95 Q -24.0 86 0.0 95" fill="none" stroke="#6a6a6a" stroke-width="0.8"/>
<path d="M 16.0 95 Q 24.0 90 32.0 95" fill="none" stroke="#6a6a6a" stroke-width="0.8"/>
<path d="M 8.0 95 Q 24.0 88 40.0 95" fill="none" stroke="#6a6a6a" stroke-width="0.8"/>
<path d="M 0.0 95 Q 24.0 86 48.0 95" fill="none" stroke="#6a6a6a" stroke-width="0.8"/>
<path d="M 64.0 95 Q 72.0 90 80.0 95" fill="none" stroke="#6a6a6a" stroke-width="0.8"/>
<path d="M 56.0 95 Q 72.0 88 88.0 95" fill="none" stroke="#6a6a6a" stroke-width="0.8"/>
<path d="M 48.0 95 Q 72.0 86 96.0 95" fill="none" stroke="#6a6a6a" stroke-width="0.8"/>
<path d="M 112.0 95 Q 120.0 90 128.0 95" fill="none" stroke="#6a6a6a" stroke-width="0.8"/>
<path d="M 104.0 95 Q 120.0 88 136.0 95" fill="none" stroke="#6a6a6a" stroke-width="0.8"/>
<path d="M 96.0 95 Q 120.0 86 144.0 95" fill="none" stroke="#6a6a6a" stroke-width="0.8"/>
<path d="M 160.0 95 Q 168.0 90 176.0 95" fill="none" stroke="#6a6a6a" stroke-width="0.8"/>
<path d="M 152.0 95 Q 168.0 88 184.0 95" fill="none" stroke="#6a6a6a" stroke-width="0.8"/>
<path d="M 144.0 95 Q 168.0 86 192.0 95" fill="none" stroke="#6a6a6a" stroke-width="0.8"/>
<line x1="0" y1="90" x2="96" y2="90" stroke="#222" stroke-width="1.3"/>
<path d="M -32.0 98 Q -24.0 93 -16.0 98" fill="none" stroke="#6a6a6a" stroke-width="0.8"/>
<path d="M -40.0 98 Q -24.0 91 -8.0 98" fill="none" stroke="#6a6a6a" stroke-width="0.8"/>
<path d="M -48.0 98 Q -24.0 89 0.0 98" fill="none" stroke="#6a6a6a" stroke-width="0.8"/>
<path d="M 16.0 98 Q 24.0 93 32.0 98" fill="none" stroke="#6a6a6a" stroke-width="0.8"/>
<path d="M 8.0 98 Q 24.0 91 40.0 98" fill="none" stroke="#6a6a6a" stroke-width="0.8"/>
<path d="M 0.0 98 Q 24.0 89 48.0 98" fill="none" stroke="#6a6a6a" stroke-width="0.8"/>
<path d="M 64.0 98 Q 72.0 93 80.0 98" fill="none" stroke="#6a6a6a" stroke-width="0.8"/>
<path d="M 56.0 98 Q 72.0 91 88.0 98" fill="none" stroke="#6a6a6a" stroke-width="0.8"/>
<path d="M 48.0 98 Q 72.0 89 96.0 98" fill="none" stroke="#6a6a6a" stroke-width="0.8"/>
<path d="M 112.0 98 Q 120.0 93 128.0 98" fill="none" stroke="#6a6a6a" stroke-width="0.8"/>
<path d="M 104.0 98 Q 120.0 91 136.0 98" fill="none" stroke="#6a6a6a" stroke-width="0.8"/>
<path d="M 96.0 98 Q 120.0 89 144.0 98" fill="none" stroke="#6a6a6a" stroke-width="0.8"/>
<path d="M 160.0 98 Q 168.0 93 176.0 98" fill="none" stroke="#6a6a6a" stroke-width="0.8"/>
<path d="M 152.0 98 Q 168.0 91 184.0 98" fill="none" stroke="#6a6a6a" stroke-width="0.8"/>
<path d="M 144.0 98 Q 168.0 89 192.0 98" fill="none" stroke="#6a6a6a" stroke-width="0.8"/>
<path d="M -56.0 107 Q -48.0 102 -40.0 107" fill="none" stroke="#6a6a6a" stroke-width="0.8"/>
<path d="M -64.0 107 Q -48.0 100 -32.0 107" fill="none" stroke="#6a6a6a" stroke-width="0.8"/>
<path d="M -72.0 107 Q -48.0 98 -24.0 107" fill="none" stroke="#6a6a6a" stroke-width="0.8"/>
<path d="M -8.0 107 Q 0.0 102 8.0 107" fill="none" stroke="#6a6a6a" stroke-width="0.8"/>
<path d="M -16.0 107 Q 0.0 100 16.0 107" fill="none" stroke="#6a6a6a" stroke-width="0.8"/>
<path d="M -24.0 107 Q 0.0 98 24.0 107" fill="none" stroke="#6a6a6a" stroke-width="0.8"/>
<path d="M 40.0 107 Q 48.0 102 56.0 107" fill="none" stroke="#6a6a6a" stroke-width="0.8"/>
<path d="M 32.0 107 Q 48.0 100 64.0 107" fill="none" stroke="#6a6a6a" stroke-width="0.8"/>
<path d="M 24.0 107 Q 48.0 98 72.0 107" fill="none" stroke="#6a6a6a" stroke-width="0.8"/>
<path d="M 88.0 107 Q 96.0 102 104.0 107" fill="none" stroke="#6a6a6a" stroke-width="0.8"/>
<path d="M 80.0 107 Q 96.0 100 112.0 107" fill="none" stroke="#6a6a6a" stroke-width="0.8"/>
<path d="M 72.0 107 Q 96.0 98 120.0 107" fill="none" stroke="#6a6a6a" stroke-width="0.8"/>
<path d="M 136.0 107 Q 144.0 102 152.0 107" fill="none" stroke="#6a6a6a" stroke-width="0.8"/>
<path d="M 128.0 107 Q 144.0 100 160.0 107" fill="none" stroke="#6a6a6a" stroke-width="0.8"/>
<path d="M 120.0 107 Q 144.0 98 168.0 107" fill="none" stroke="#6a6a6a" stroke-width="0.8"/>
<path d="M -32.0 116 Q -24.0 111 -16.0 116" fill="none" stroke="#6a6a6a" stroke-width="0.8"/>
<path d="M -40.0 116 Q -24.0 109 -8.0 116" fill="none" stroke="#6a6a6a" stroke-width="0.8"/>
<path d="M -48.0 116 Q -24.0 107 0.0 116" fill="none" stroke="#6a6a6a" stroke-width="0.8"/>
<path d="M 16.0 116 Q 24.0 111 32.0 116" fill="none" stroke="#6a6a6a" stroke-width="0.8"/>
<path d="M 8.0 116 Q 24.0 109 40.0 116" fill="none" stroke="#6a6a6a" stroke-width="0.8"/>
<path d="M 0.0 116 Q 24.0 107 48.0 116" fill="none" stroke="#6a6a6a" stroke-width="0.8"/>
<path d="M 64.0 116 Q 72.0 111 80.0 116" fill="none" stroke="#6a6a6a" stroke-width="0.8"/>
<path d="M 56.0 116 Q 72.0 109 88.0 116" fill="none" stroke="#6a6a6a" stroke-width="0.8"/>
<path d="M 48.0 116 Q 72.0 107 96.0 116" fill="none" stroke="#6a6a6a" stroke-width="0.8"/>
<path d="M 112.0 116 Q 120.0 111 128.0 116" fill="none" stroke="#6a6a6a" stroke-width="0.8"/>
<path d="M 104.0 116 Q 120.0 109 136.0 116" fill="none" stroke="#6a6a6a" stroke-width="0.8"/>
<path d="M 96.0 116 Q 120.0 107 144.0 116" fill="none" stroke="#6a6a6a" stroke-width="0.8"/>
<path d="M 160.0 116 Q 168.0 111 176.0 116" fill="none" stroke="#6a6a6a" stroke-width="0.8"/>
<path d="M 152.0 116 Q 168.0 109 184.0 116" fill="none" stroke="#6a6a6a" stroke-width="0.8"/>
<path d="M 144.0 116 Q 168.0 107 192.0 116" fill="none" stroke="#6a6a6a" stroke-width="0.8"/>
<path d="M -56.0 125 Q -48.0 120 -40.0 125" fill="none" stroke="#6a6a6a" stroke-width="0.8"/>
<path d="M -64.0 125 Q -48.0 118 -32.0 125" fill="none" stroke="#6a6a6a" stroke-width="0.8"/>
<path d="M -72.0 125 Q -48.0 116 -24.0 125" fill="none" stroke="#6a6a6a" stroke-width="0.8"/>
<path d="M -8.0 125 Q 0.0 120 8.0 125" fill="none" stroke="#6a6a6a" stroke-width="0.8"/>
<path d="M -16.0 125 Q 0.0 118 16.0 125" fill="none" stroke="#6a6a6a" stroke-width="0.8"/>
<path d="M -24.0 125 Q 0.0 116 24.0 125" fill="none" stroke="#6a6a6a" stroke-width="0.8"/>
<path d="M 40.0 125 Q 48.0 120 56.0 125" fill="none" stroke="#6a6a6a" stroke-width="0.8"/>
<path d="M 32.0 125 Q 48.0 118 64.0 125" fill="none" stroke="#6a6a6a" stroke-width="0.8"/>
<path d="M 24.0 125 Q 48.0 116 72.0 125" fill="none" stroke="#6a6a6a" stroke-width="0.8"/>
<path d="M 88.0 125 Q 96.0 120 104.0 125" fill="none" stroke="#6a6a6a" stroke-width="0.8"/>
<path d="M 80.0 125 Q 96.0 118 112.0 125" fill="none" stroke="#6a6a6a" stroke-width="0.8"/>
<path d="M 72.0 125 Q 96.0 116 120.0 125" fill="none" stroke="#6a6a6a" stroke-width="0.8"/>
<path d="M 136.0 125 Q 144.0 120 152.0 125" fill="none" stroke="#6a6a6a" stroke-width="0.8"/>
<path d="M 128.0 125 Q 144.0 118 160.0 125" fill="none" stroke="#6a6a6a" stroke-width="0.8"/>
<path d="M 120.0 125 Q 144.0 116 168.0 125" fill="none" stroke="#6a6a6a" stroke-width="0.8"/></g></pattern></defs>
<rect width="120" height="120" fill="url(#pat_SGt)" stroke="black" stroke-width="1"/>
</svg>
