<svg xmlns="http://www.w3.org/2000/svg" width="120" height="120" viewBox="0 0 120 120">
<defs><clipPath id="clip96"><rect width="96" height="96"/></clipPath><pattern id="pat_SGt" patternUnits="userSpaceOnUse" width="96" height="96"><rect width="96" height="96" fill="white"/><g clip-path="url(#clip96)"><path d="M -72.0,0 Q -48.0,35.0 -24.0,0" fill="none" stroke="#222" stroke-width="1.2"/>
<path d="M -69.1,3.8 Q -40.6,28.7 -26.9,1.6" fill="none" stroke="#6a6a6a" stroke-width="0.75"/>
<path d="M -66.2,7.7 Q -41.6,23.3 -29.8,3.2" fill="none" stroke="#6a6a6a" stroke-width="0.75"/>
<path d="M -63.4,11.5 Q -42.6,18.0 -32.6,4.8" fill="none" stroke="#6a6a6a" stroke-width="0.75"/>
<path d="M -60.5,15.4 Q -43.6,12.7 -35.5,6.4" fill="none" stroke="#6a6a6a" stroke-width="0.75"/>
<path d="M -57.6,19.2 Q -44.6,7.3 -38.4,8.0" fill="none" stroke="#6a6a6a" stroke-width="0.75"/>
<path d="M -24.0,0 Q 0.0,35.0 24.0,0" fill="none" stroke="#222" stroke-width="1.2"/>
<path d="M -21.1,3.8 Q 7.4,28.7 21.1,1.6" fill="none" stroke="#6a6a6a" stroke-width="0.75"/>
<path d="M -18.2,7.7 Q 6.4,23.3 18.2,3.2" fill="none" stroke="#6a6a6a" stroke-width="0.75"/>
<path d="M -15.4,11.5 Q 5.4,18.0 15.4,4.8" fill="none" stroke="#6a6a6a" stroke-width="0.75"/>
<path d="M -12.5,15.4 Q 4.4,12.7 12.5,6.4" fill="none" stroke="#6a6a6a" stroke-width="0.75"/>
<path d="M -9.6,19.2 Q 3.4,7.3 9.6,8.0" fill="none" stroke="#6a6a6a" stroke-width="0.75"/>
<path d="M 24.0,0 Q 48.0,35.0 72.0,0" fill="none" stroke="#222" stroke-width="1.2"/>
<path d="M 26.9,3.8 Q 55.4,28.7 69.1,1.6" fill="none" stroke="#6a6a6a" stroke-width="0.75"/>
<path d="M 29.8,7.7 Q 54.4,23.3 66.2,3.2" fill="none" stroke="#6a6a6a" stroke-width="0.75"/>
<path d="M 32.6,11.5 Q 53.4,18.0 63.4,4.8" fill="none" stroke="#6a6a6a" stroke-width="0.75"/>
<path d="M 35.5,15.4 Q 52.4,12.7 60.5,6.4" fill="none" stroke="#6a6a6a" stroke-width="0.75"/>
<path d="M 38.4,19.2 Q 51.4,7.3 57.6,8.0" fill="none" stroke="#6a6a6a" stroke-width="0.75"/>
<path d="M 72.0,0 Q 96.0,35.0 120.0,0" fill="none" stroke="#222" stroke-width="1.2"/>
<path d="M 74.9,3.8 Q 103.4,28.7 117.1,1.6" fill="none" stroke="#6a6a6a" stroke-width="0.75"/>
<path d="M 77.8,7.7 Q 102.4,23.3 114.2,3.2" fill="none" stroke="#6a6a6a" stroke-width="0.75"/>
<path d="M 80.6,11.5 Q 101.4,18.0 111.4,4.8" fill="none" stroke="#6a6a6a" stroke-width="0.75"/>
<path d="M 83.5,15.4 Q 100.4,12.7 108.5,6.4" fill="none" stroke="#6a6a6a" stroke-width="0.75"/>
<path d="M 86.4,19.2 Q 99.4,7.3 105.6,8.0" fill="none" stroke="#6a6a6a" stroke-width="0.75"/>
<path d="M 120.0,0 Q 144.0,35.0 168.0,0" fill="none" stroke="#222" stroke-width="1.2"/>
<path d="M 122.9,3.8 Q 151.4,28.7 165.1,1.6" fill="none" stroke="#6a6a6a" stroke-width="0.75"/>
<path d="M 125.8,7.7 Q 150.4,23.3 162.2,3.2" fill="none" stroke="#6a6a6a" stroke-width="0.75"/>
<path d="M 128.6,11.5 Q 149.4,18.0 159.4,4.8" fill="none" stroke="#6a6a6a" stroke-width="0.75"/>
<path d="M 131.5,15.4 Q 148.4,12.7 156.5,6.4" fill="none" stroke="#6a6a6a" stroke-width="0.75"/>
<path d="M 134.4,19.2 Q 147.4,7.3 153.6,8.0" fill="none" stroke="#6a6a6a" stroke-width="0.75"/>
<path d="M -48.0,32 Q -24.0,67.0 0.0,32" fill="none" stroke="#222" stroke-width="1.2"/>
<path d="M -45.1,35.8 Q -16.6,60.7 -2.9,33.6" fill="none" stroke="#6a6a6a" stroke-width="0.75"/>
<path d="M -42.2,39.7 Q -17.6,55.3 -5.8,35.2" fill="none" stroke="#6a6a6a" stroke-width="0.75"/>
<path d="M -39.4,43.5 Q -18.6,50.0 -8.6,36.8" fill="none" stroke="#6a6a6a" stroke-width="0.75"/>
<path d="M -36.5,47.4 Q -19.6,44.7 -11.5,38.4" fill="none" stroke="#6a6a6a" stroke-width="0.75"/>
<path d="M -33.6,51.2 Q -20.6,39.3 -14.4,40.0" fill="none" stroke="#6a6a6a" stroke-width="0.75"/>
<path d="M 0.0,32 Q 24.0,67.0 48.0,32" fill="none" stroke="#222" stroke-width="1.2"/>
<path d="M 2.9,35.8 Q 31.4,60.7 45.1,33.6" fill="none" stroke="#6a6a6a" stroke-width="0.75"/>
<path d="M 5.8,39.7 Q 30.4,55.3 42.2,35.2" fill="none" stroke="#6a6a6a" stroke-width="0.75"/>
<path d="M 8.6,43.5 Q 29.4,50.0 39.4,36.8" fill="none" stroke="#6a6a6a" stroke-width="0.75"/>
<path d="M 11.5,47.4 Q 28.4,44.7 36.5,38.4" fill="none" stroke="#6a6a6a" stroke-width="0.75"/>
<path d="M 14.4,51.2 Q 27.4,39.3 33.6,40.0" fill="none" stroke="#6a6a6a" stroke-width="0.75"/>
<path d="M 48.0,32 Q 72.0,67.0 96.0,32" fill="none" stroke="#222" stroke-width="1.2"/>
<path d="M 50.9,35.8 Q 79.4,60.7 93.1,33.6" fill="none" stroke="#6a6a6a" stroke-width="0.75"/>
<path d="M 53.8,39.7 Q 78.4,55.3 90.2,35.2" fill="none" stroke="#6a6a6a" stroke-width="0.75"/>
<path d="M 56.6,43.5 Q 77.4,50.0 87.4,36.8" fill="none" stroke="#6a6a6a" stroke-width="0.75"/>
<path d="M 59.5,47.4 Q 76.4,44.7 84.5,38.4" fill="none" stroke="#6a6a6a" stroke-width="0.75"/>
<path d="M 62.4,51.2 Q 75.4,39.3 81.6,40.0" fill="none" stroke="#6a6a6a" stroke-width="0.75"/>
<path d="M 96.0,32 Q 120.0,67.0 144.0,32" fill="none" stroke="#222" stroke-width="1.2"/>
<path d="M 98.9,35.8 Q 127.4,60.7 141.1,33.6" fill="none" stroke="#6a6a6a" stroke-width="0.75"/>
<path d="M 101.8,39.7 Q 126.4,55.3 138.2,35.2" fill="none" stroke="#6a6a6a" stroke-width="0.75"/>
<path d="M 104.6,43.5 Q 125.4,50.0 135.4,36.8" fill="none" stroke="#6a6a6a" stroke-width="0.75"/>
<path d="M 107.5,47.4 Q 124.4,44.7 132.5,38.4" fill="none" stroke="#6a6a6a" stroke-width="0.75"/>
<path d="M 110.4,51.2 Q 123.4,39.3 129.6,40.0" fill="none" stroke="#6a6a6a" stroke-width="0.75"/>
<path d="M 144.0,32 Q 168.0,67.0 192.0,32" fill="none" stroke="#222" stroke-width="1.2"/>
<path d="M 146.9,35.8 Q 175.4,60.7 189.1,33.6" fill="none" stroke="#6a6a6a" stroke-width="0.75"/>
<path d="M 149.8,39.7 Q 174.4,55.3 186.2,35.2" fill="none" stroke="#6a6a6a" stroke-width="0.75"/>
<path d="M 152.6,43.5 Q 173.4,50.0 183.4,36.8" fill="none" stroke="#6a6a6a" stroke-width="0.75"/>
<path d="M 155.5,47.4 Q 172.4,44.7 180.5,38.4" fill="none" stroke="#6a6a6a" stroke-width="0.75"/>
<path d="M 158.4,51.2 Q 171.4,39.3 177.6,40.0" fill="none" stroke="#6a6a6a" stroke-width="0.75"/>
<path d="M -72.0,64 Q -48.0,99.0 -24.0,64" fill="none" stroke="#222" stroke-width="1.2"/>
<path d="M -69.1,67.8 Q -40.6,92.7 -26.9,65.6" fill="none" stroke="#6a6a6a" stroke-width="0.75"/>
<path d="M -66.2,71.7 Q -41.6,87.3 -29.8,67.2" fill="none" stroke="#6a6a6a" stroke-width="0.75"/>
<path d="M -63.4,75.5 Q -42.6,82.0 -32.6,68.8" fill="none" stroke="#6a6a6a" stroke-width="0.75"/>
<path d="M -60.5,79.4 Q -43.6,76.7 -35.5,70.4" fill="none" stroke="#6a6a6a" stroke-width="0.75"/>
<path d="M -57.6,83.2 Q -44.6,71.3 -38.4,72.0" fill="none" stroke="#6a6a6a" stroke-width="0.75"/>
<path d="M -24.0,64 Q 0.0,99.0 24.0,64" fill="none" stroke="#222" stroke-width="1.2"/>
<path d="M -21.1,67.8 Q 7.4,92.7 21.1,65.6" fill="none" stroke="#6a6a6a" stroke-width="0.75"/>
<path d="M -18.2,71.7 Q 6.4,87.3 18.2,67.2" fill="none" stroke="#6a6a6a" stroke-width="0.75"/>
<path d="M -15.4,75.5 Q 5.4,82.0 15.4,68.8" fill="none" stroke="#6a6a6a" stroke-width="0.75"/>
<path d="M -12.5,79.4 Q 4.4,76.7 12.5,70.4" fill="none" stroke="#6a6a6a" stroke-width="0.75"/>
<path d="M -9.6,83.2 Q 3.4,71.3 9.6,72.0" fill="none" stroke="#6a6a6a" stroke-width="0.75"/>
<path d="M 24.0,64 Q 48.0,99.0 72.0,64" fill="none" stroke="#222" stroke-width="1.2"/>
<path d="M 26.9,67.8 Q 55.4,92.7 69.1,65.6" fill="none" stroke="#6a6a6a" stroke-width="0.75"/>
<path d="M 29.8,71.7 Q 54.4,87.3 66.2,67.2" fill="none" stroke="#6a6a6a" stroke-width="0.75"/>
<path d="M 32.6,75.5 Q 53.4,82.0 63.4,68.8" fill="none" stroke="#6a6a6a" stroke-width="0.75"/>
<path d="M 35.5,79.4 Q 52.4,76.7 60.5,70.4" fill="none" stroke="#6a6a6a" stroke-width="0.75"/>
<path d="M 38.4,83.2 Q 51.4,71.3 57.6,72.0" fill="none" stroke="#6a6a6a" stroke-width="0.75"/>
<path d="M 72.0,64 Q 96.0,99.0 120.0,64" fill="none" stroke="#222" stroke-width="1.2"/>
<path d="M 74.9,67.8 Q 103.4,92.7 117.1,65.6" fill="none" stroke="#6a6a6a" stroke-width="0.75"/>
<path d="M 77.8,71.7 Q 102.4,87.3 114.2,67.2" fill="none" stroke="#6a6a6a" stroke-width="0.75"/>
<path d="M 80.6,75.5 Q 101.4,82.0 111.4,68.8" fill="none" stroke="#6a6a6a" stroke-width="0.75"/>
<path d="M 83.5,79.4 Q 100.4,76.7 108.5,70.4" fill="none" stroke="#6a6a6a" stroke-width="0.75"/>
<path d="M 86.4,83.2 Q 99.4,71.3 105.6,72.0" fill="none" stroke="#6a6a6a" stroke-width="0.75"/>
<path d="M 120.0,64 Q 144.0,99.0 168.0,64" fill="none" stroke="#222" stroke-width="1.2"/>
<path d="M 122.9,67.8 Q 151.4,92.7 165.1,65.6" fill="none" stroke="#6a6a6a" stroke-width="0.75"/>
<path d="M 125.8,71.7 Q 150.4,87.3 162.2,67.2" fill="none" stroke="#6a6a6a" stroke-width="0.75"/>
<path d="M 128.6,75.5 Q 149.4,82.0 159.4,68.8" fill="none" stroke="#6a6a6a" stroke-width="0.75"/>
<path d="M 131.5,79.4 Q 148.4,76.7 156.5,70.4" fill="none" stroke="#6a6a6a" stroke-width="0.75"/>
<path d="M 134.4,83.2 Q 147.4,71.3 153.6,72.0" fill="none" stroke="#6a6a6a" stroke-width="0.75"/></g></pattern></defs>
<rect width="120" height="120" fill="url(#pat_SGt)" stroke="black" stroke-width="1"/>
</svg>
