<svg xmlns="http://www.w3.org/2000/svg" width="120" height="120" viewBox="0 0 120 120">
<defs><clipPath id="clip96"><rect width="96" height="96"/></clipPath><pattern id="pat_SGt" patternUnits="userSpaceOnUse" width="96" height="96"><rect width="96" height="96" fill="white"/><g clip-path="url(#clip96)"><g transform="translate(-96 -96)"><circle cx="49.1" cy="53.5" r="0.62" fill="#9a9a9a"/>
<circle cx="33.2" cy="67.5" r="0.57" fill="#9a9a9a"/>
<circle cx="93.6" cy="92.8" r="0.58" fill="#9a9a9a"/>
<circle cx="10.6" cy="39.3" r="0.72" fill="#9a9a9a"/>
<circle cx="21.7" cy="2.6" r="0.79" fill="#9a9a9a"/>
<circle cx="32.1" cy="7.3" r="0.81" fill="#9a9a9a"/>
<circle cx="34.3" cy="76.4" r="0.85" fill="#9a9a9a"/>
<circle cx="16.6" cy="44.9" r="0.63" fill="#9a9a9a"/>
<circle cx="80.9" cy="25.1" r="0.75" fill="#9a9a9a"/>
<circle cx="95.8" cy="30.4" r="0.57" fill="#9a9a9a"/>
<circle cx="2.0" cy="24.1" r="0.53" fill="#9a9a9a"/>
<circle cx="47.4" cy="2.6" r="0.85" fill="#9a9a9a"/>
<circle cx="80.4" cy="10.0" r="0.90" fill="#9a9a9a"/>
<circle cx="11.5" cy="18.1" r="0.72" fill="#9a9a9a"/>
<circle cx="84.2" cy="35.5" r="0.57" fill="#9a9a9a"/>
<circle cx="21.9" cy="48.6" r="0.86" fill="#9a9a9a"/>
<circle cx="3.7" cy="67.0" r="0.87" fill="#9a9a9a"/>
<circle cx="71.0" cy="76.9" r="0.65" fill="#9a9a9a"/>
<circle cx="67.8" cy="60.5" r="0.67" fill="#9a9a9a"/>
<circle cx="1.9" cy="74.8" r="0.61" fill="#9a9a9a"/>
<circle cx="8.0" cy="28.2" r="0.83" fill="#9a9a9a"/>
<circle cx="92.9" cy="28.4" r="0.56" fill="#9a9a9a"/>
<circle cx="80.8" cy="90.7" r="0.60" fill="#9a9a9a"/>
<circle cx="5.9" cy="80.5" r="0.51" fill="#9a9a9a"/>
<circle cx="77.2" cy="26.5" r="0.50" fill="#9a9a9a"/>
<circle cx="78.6" cy="15.0" r="0.90" fill="#9a9a9a"/>
<circle cx="5.5" cy="46.2" r="0.83" fill="#9a9a9a"/>
<circle cx="80.9" cy="75.0" r="0.52" fill="#9a9a9a"/>
<circle cx="18.6" cy="10.8" r="0.61" fill="#9a9a9a"/>
<circle cx="2.7" cy="2.9" r="0.87" fill="#9a9a9a"/>
<circle cx="51.1" cy="10.4" r="0.73" fill="#9a9a9a"/>
<circle cx="17.3" cy="93.4" r="0.59" fill="#9a9a9a"/>
<circle cx="59.7" cy="15.0" r="0.77" fill="#9a9a9a"/>
<circle cx="87.1" cy="74.9" r="0.82" fill="#9a9a9a"/>
<circle cx="83.4" cy="59.6" r="0.73" fill="#9a9a9a"/>
<circle cx="17.4" cy="31.8" r="0.79" fill="#9a9a9a"/>
<circle cx="20.1" cy="85.9" r="0.62" fill="#9a9a9a"/>
<circle cx="48.5" cy="83.5" r="0.66" fill="#9a9a9a"/>
<circle cx="75.2" cy="17.2" r="0.86" fill="#9a9a9a"/>
<circle cx="46.2" cy="12.5" r="0.82" fill="#9a9a9a"/>
<circle cx="52.0" cy="5.4" r="0.87" fill="#9a9a9a"/>
<circle cx="28.8" cy="51.2" r="0.56" fill="#9a9a9a"/>
<circle cx="61.1" cy="47.8" r="0.78" fill="#9a9a9a"/>
<circle cx="86.5" cy="38.7" r="0.77" fill="#9a9a9a"/>
<circle cx="50.3" cy="46.9" r="0.54" fill="#9a9a9a"/>
<circle cx="32.1" cy="32.9" r="0.70" fill="#9a9a9a"/>
<circle cx="7.3" cy="7.5" r="0.71" fill="#9a9a9a"/>
<circle cx="72.2" cy="12.3" r="0.85" fill="#9a9a9a"/>
<circle cx="94.0" cy="63.9" r="0.61" fill="#9a9a9a"/>
<circle cx="77.9" cy="5.0" r="0.58" fill="#9a9a9a"/>
<circle cx="65.0" cy="37.6" r="0.61" fill="#9a9a9a"/>
<circle cx="45.0" cy="67.1" r="0.81" fill="#9a9a9a"/>
<circle cx="73.3" cy="83.8" r="0.52" fill="#9a9a9a"/>
<circle cx="36.3" cy="90.4" r="0.75" fill="#9a9a9a"/>
<circle cx="27.1" cy="91.0" r="0.53" fill="#9a9a9a"/></g>
<g transform="translate(-96 0)"><circle cx="49.1" cy="53.5" r="0.62" fill="#9a9a9a"/>
<circle cx="33.2" cy="67.5" r="0.57" fill="#9a9a9a"/>
<circle cx="93.6" cy="92.8" r="0.58" fill="#9a9a9a"/>
<circle cx="10.6" cy="39.3" r="0.72" fill="#9a9a9a"/>
<circle cx="21.7" cy="2.6" r="0.79" fill="#9a9a9a"/>
<circle cx="32.1" cy="7.3" r="0.81" fill="#9a9a9a"/>
<circle cx="34.3" cy="76.4" r="0.85" fill="#9a9a9a"/>
<circle cx="16.6" cy="44.9" r="0.63" fill="#9a9a9a"/>
<circle cx="80.9" cy="25.1" r="0.75" fill="#9a9a9a"/>
<circle cx="95.8" cy="30.4" r="0.57" fill="#9a9a9a"/>
<circle cx="2.0" cy="24.1" r="0.53" fill="#9a9a9a"/>
<circle cx="47.4" cy="2.6" r="0.85" fill="#9a9a9a"/>
<circle cx="80.4" cy="10.0" r="0.90" fill="#9a9a9a"/>
<circle cx="11.5" cy="18.1" r="0.72" fill="#9a9a9a"/>
<circle cx="84.2" cy="35.5" r="0.57" fill="#9a9a9a"/>
<circle cx="21.9" cy="48.6" r="0.86" fill="#9a9a9a"/>
<circle cx="3.7" cy="67.0" r="0.87" fill="#9a9a9a"/>
<circle cx="71.0" cy="76.9" r="0.65" fill="#9a9a9a"/>
<circle cx="67.8" cy="60.5" r="0.67" fill="#9a9a9a"/>
<circle cx="1.9" cy="74.8" r="0.61" fill="#9a9a9a"/>
<circle cx="8.0" cy="28.2" r="0.83" fill="#9a9a9a"/>
<circle cx="92.9" cy="28.4" r="0.56" fill="#9a9a9a"/>
<circle cx="80.8" cy="90.7" r="0.60" fill="#9a9a9a"/>
<circle cx="5.9" cy="80.5" r="0.51" fill="#9a9a9a"/>
<circle cx="77.2" cy="26.5" r="0.50" fill="#9a9a9a"/>
<circle cx="78.6" cy="15.0" r="0.90" fill="#9a9a9a"/>
<circle cx="5.5" cy="46.2" r="0.83" fill="#9a9a9a"/>
<circle cx="80.9" cy="75.0" r="0.52" fill="#9a9a9a"/>
<circle cx="18.6" cy="10.8" r="0.61" fill="#9a9a9a"/>
<circle cx="2.7" cy="2.9" r="0.87" fill="#9a9a9a"/>
<circle cx="51.1" cy="10.4" r="0.73" fill="#9a9a9a"/>
<circle cx="17.3" cy="93.4" r="0.59" fill="#9a9a9a"/>
<circle cx="59.7" cy="15.0" r="0.77" fill="#9a9a9a"/>
<circle cx="87.1" cy="74.9" r="0.82" fill="#9a9a9a"/>
<circle cx="83.4" cy="59.6" r="0.73" fill="#9a9a9a"/>
<circle cx="17.4" cy="31.8" r="0.79" fill="#9a9a9a"/>
<circle cx="20.1" cy="85.9" r="0.62" fill="#9a9a9a"/>
<circle cx="48.5" cy="83.5" r="0.66" fill="#9a9a9a"/>
<circle cx="75.2" cy="17.2" r="0.86" fill="#9a9a9a"/>
<circle cx="46.2" cy="12.5" r="0.82" fill="#9a9a9a"/>
<circle cx="52.0" cy="5.4" r="0.87" fill="#9a9a9a"/>
<circle cx="28.8" cy="51.2" r="0.56" fill="#9a9a9a"/>
<circle cx="61.1" cy="47.8" r="0.78" fill="#9a9a9a"/>
<circle cx="86.5" cy="38.7" r="0.77" fill="#9a9a9a"/>
<circle cx="50.3" cy="46.9" r="0.54" fill="#9a9a9a"/>
<circle cx="32.1" cy="32.9" r="0.70" fill="#9a9a9a"/>
<circle cx="7.3" cy="7.5" r="0.71" fill="#9a9a9a"/>
<circle cx="72.2" cy="12.3" r="0.85" fill="#9a9a9a"/>
<circle cx="94.0" cy="63.9" r="0.61" fill="#9a9a9a"/>
<circle cx="77.9" cy="5.0" r="0.58" fill="#9a9a9a"/>
<circle cx="65.0" cy="37.6" r="0.61" fill="#9a9a9a"/>
<circle cx="45.0" cy="67.1" r="0.81" fill="#9a9a9a"/>
<circle cx="73.3" cy="83.8" r="0.52" fill="#9a9a9a"/>
<circle cx="36.3" cy="90.4" r="0.75" fill="#9a9a9a"/>
<circle cx="27.1" cy="91.0" r="0.53" fill="#9a9a9a"/></g>
<g transform="translate(-96 96)"><circle cx="49.1" cy="53.5" r="0.62" fill="#9a9a9a"/>
<circle cx="33.2" cy="67.5" r="0.57" fill="#9a9a9a"/>
<circle cx="93.6" cy="92.8" r="0.58" fill="#9a9a9a"/>
<circle cx="10.6" cy="39.3" r="0.72" fill="#9a9a9a"/>
<circle cx="21.7" cy="2.6" r="0.79" fill="#9a9a9a"/>
<circle cx="32.1" cy="7.3" r="0.81" fill="#9a9a9a"/>
<circle cx="34.3" cy="76.4" r="0.85" fill="#9a9a9a"/>
<circle cx="16.6" cy="44.9" r="0.63" fill="#9a9a9a"/>
<circle cx="80.9" cy="25.1" r="0.75" fill="#9a9a9a"/>
<circle cx="95.8" cy="30.4" r="0.57" fill="#9a9a9a"/>
<circle cx="2.0" cy="24.1" r="0.53" fill="#9a9a9a"/>
<circle cx="47.4" cy="2.6" r="0.85" fill="#9a9a9a"/>
<circle cx="80.4" cy="10.0" r="0.90" fill="#9a9a9a"/>
<circle cx="11.5" cy="18.1" r="0.72" fill="#9a9a9a"/>
<circle cx="84.2" cy="35.5" r="0.57" fill="#9a9a9a"/>
<circle cx="21.9" cy="48.6" r="0.86" fill="#9a9a9a"/>
<circle cx="3.7" cy="67.0" r="0.87" fill="#9a9a9a"/>
<circle cx="71.0" cy="76.9" r="0.65" fill="#9a9a9a"/>
<circle cx="67.8" cy="60.5" r="0.67" fill="#9a9a9a"/>
<circle cx="1.9" cy="74.8" r="0.61" fill="#9a9a9a"/>
<circle cx="8.0" cy="28.2" r="0.83" fill="#9a9a9a"/>
<circle cx="92.9" cy="28.4" r="0.56" fill="#9a9a9a"/>
<circle cx="80.8" cy="90.7" r="0.60" fill="#9a9a9a"/>
<circle cx="5.9" cy="80.5" r="0.51" fill="#9a9a9a"/>
<circle cx="77.2" cy="26.5" r="0.50" fill="#9a9a9a"/>
<circle cx="78.6" cy="15.0" r="0.90" fill="#9a9a9a"/>
<circle cx="5.5" cy="46.2" r="0.83" fill="#9a9a9a"/>
<circle cx="80.9" cy="75.0" r="0.52" fill="#9a9a9a"/>
<circle cx="18.6" cy="10.8" r="0.61" fill="#9a9a9a"/>
<circle cx="2.7" cy="2.9" r="0.87" fill="#9a9a9a"/>
<circle cx="51.1" cy="10.4" r="0.73" fill="#9a9a9a"/>
<circle cx="17.3" cy="93.4" r="0.59" fill="#9a9a9a"/>
<circle cx="59.7" cy="15.0" r="0.77" fill="#9a9a9a"/>
<circle cx="87.1" cy="74.9" r="0.82" fill="#9a9a9a"/>
<circle cx="83.4" cy="59.6" r="0.73" fill="#9a9a9a"/>
<circle cx="17.4" cy="31.8" r="0.79" fill="#9a9a9a"/>
<circle cx="20.1" cy="85.9" r="0.62" fill="#9a9a9a"/>
<circle cx="48.5" cy="83.5" r="0.66" fill="#9a9a9a"/>
<circle cx="75.2" cy="17.2" r="0.86" fill="#9a9a9a"/>
<circle cx="46.2" cy="12.5" r="0.82" fill="#9a9a9a"/>
<circle cx="52.0" cy="5.4" r="0.87" fill="#9a9a9a"/>
<circle cx="28.8" cy="51.2" r="0.56" fill="#9a9a9a"/>
<circle cx="61.1" cy="47.8" r="0.78" fill="#9a9a9a"/>
<circle cx="86.5" cy="38.7" r="0.77" fill="#9a9a9a"/>
<circle cx="50.3" cy="46.9" r="0.54" fill="#9a9a9a"/>
<circle cx="32.1" cy="32.9" r="0.70" fill="#9a9a9a"/>
<circle cx="7.3" cy="7.5" r="0.71" fill="#9a9a9a"/>
<circle cx="72.2" cy="12.3" r="0.85" fill="#9a9a9a"/>
<circle cx="94.0" cy="63.9" r="0.61" fill="#9a9a9a"/>
<circle cx="77.9" cy="5.0" r="0.58" fill="#9a9a9a"/>
<circle cx="65.0" cy="37.6" r="0.61" fill="#9a9a9a"/>
<circle cx="45.0" cy="67.1" r="0.81" fill="#9a9a9a"/>
<circle cx="73.3" cy="83.8" r="0.52" fill="#9a9a9a"/>
<circle cx="36.3" cy="90.4" r="0.75" fill="#9a9a9a"/>
<circle cx="27.1" cy="91.0" r="0.53" fill="#9a9a9a"/></g>
<g transform="translate(0 -96)"><circle cx="49.1" cy="53.5" r="0.62" fill="#9a9a9a"/>
<circle cx="33.2" cy="67.5" r="0.57" fill="#9a9a9a"/>
<circle cx="93.6" cy="92.8" r="0.58" fill="#9a9a9a"/>
<circle cx="10.6" cy="39.3" r="0.72" fill="#9a9a9a"/>
<circle cx="21.7" cy="2.6" r="0.79" fill="#9a9a9a"/>
<circle cx="32.1" cy="7.3" r="0.81" fill="#9a9a9a"/>
<circle cx="34.3" cy="76.4" r="0.85" fill="#9a9a9a"/>
<circle cx="16.6" cy="44.9" r="0.63" fill="#9a9a9a"/>
<circle cx="80.9" cy="25.1" r="0.75" fill="#9a9a9a"/>
<circle cx="95.8" cy="30.4" r="0.57" fill="#9a9a9a"/>
<circle cx="2.0" cy="24.1" r="0.53" fill="#9a9a9a"/>
<circle cx="47.4" cy="2.6" r="0.85" fill="#9a9a9a"/>
<circle cx="80.4" cy="10.0" r="0.90" fill="#9a9a9a"/>
<circle cx="11.5" cy="18.1" r="0.72" fill="#9a9a9a"/>
<circle cx="84.2" cy="35.5" r="0.57" fill="#9a9a9a"/>
<circle cx="21.9" cy="48.6" r="0.86" fill="#9a9a9a"/>
<circle cx="3.7" cy="67.0" r="0.87" fill="#9a9a9a"/>
<circle cx="71.0" cy="76.9" r="0.65" fill="#9a9a9a"/>
<circle cx="67.8" cy="60.5" r="0.67" fill="#9a9a9a"/>
<circle cx="1.9" cy="74.8" r="0.61" fill="#9a9a9a"/>
<circle cx="8.0" cy="28.2" r="0.83" fill="#9a9a9a"/>
<circle cx="92.9" cy="28.4" r="0.56" fill="#9a9a9a"/>
<circle cx="80.8" cy="90.7" r="0.60" fill="#9a9a9a"/>
<circle cx="5.9" cy="80.5" r="0.51" fill="#9a9a9a"/>
<circle cx="77.2" cy="26.5" r="0.50" fill="#9a9a9a"/>
<circle cx="78.6" cy="15.0" r="0.90" fill="#9a9a9a"/>
<circle cx="5.5" cy="46.2" r="0.83" fill="#9a9a9a"/>
<circle cx="80.9" cy="75.0" r="0.52" fill="#9a9a9a"/>
<circle cx="18.6" cy="10.8" r="0.61" fill="#9a9a9a"/>
<circle cx="2.7" cy="2.9" r="0.87" fill="#9a9a9a"/>
<circle cx="51.1" cy="10.4" r="0.73" fill="#9a9a9a"/>
<circle cx="17.3" cy="93.4" r="0.59" fill="#9a9a9a"/>
<circle cx="59.7" cy="15.0" r="0.77" fill="#9a9a9a"/>
<circle cx="87.1" cy="74.9" r="0.82" fill="#9a9a9a"/>
<circle cx="83.4" cy="59.6" r="0.73" fill="#9a9a9a"/>
<circle cx="17.4" cy="31.8" r="0.79" fill="#9a9a9a"/>
<circle cx="20.1" cy="85.9" r="0.62" fill="#9a9a9a"/>
<circle cx="48.5" cy="83.5" r="0.66" fill="#9a9a9a"/>
<circle cx="75.2" cy="17.2" r="0.86" fill="#9a9a9a"/>
<circle cx="46.2" cy="12.5" r="0.82" fill="#9a9a9a"/>
<circle cx="52.0" cy="5.4" r="0.87" fill="#9a9a9a"/>
<circle cx="28.8" cy="51.2" r="0.56" fill="#9a9a9a"/>
<circle cx="61.1" cy="47.8" r="0.78" fill="#9a9a9a"/>
<circle cx="86.5" cy="38.7" r="0.77" fill="#9a9a9a"/>
<circle cx="50.3" cy="46.9" r="0.54" fill="#9a9a9a"/>
<circle cx="32.1" cy="32.9" r="0.70" fill="#9a9a9a"/>
<circle cx="7.3" cy="7.5" r="0.71" fill="#9a9a9a"/>
<circle cx="72.2" cy="12.3" r="0.85" fill="#9a9a9a"/>
<circle cx="94.0" cy="63.9" r="0.61" fill="#9a9a9a"/>
<circle cx="77.9" cy="5.0" r="0.58" fill="#9a9a9a"/>
<circle cx="65.0" cy="37.6" r="0.61" fill="#9a9a9a"/>
<circle cx="45.0" cy="67.1" r="0.81" fill="#9a9a9a"/>
<circle cx="73.3" cy="83.8" r="0.52" fill="#9a9a9a"/>
<circle cx="36.3" cy="90.4" r="0.75" fill="#9a9a9a"/>
<circle cx="27.1" cy="91.0" r="0.53" fill="#9a9a9a"/></g>
<g transform="translate(0 0)"><circle cx="49.1" cy="53.5" r="0.62" fill="#9a9a9a"/>
<circle cx="33.2" cy="67.5" r="0.57" fill="#9a9a9a"/>
<circle cx="93.6" cy="92.8" r="0.58" fill="#9a9a9a"/>
<circle cx="10.6" cy="39.3" r="0.72" fill="#9a9a9a"/>
<circle cx="21.7" cy="2.6" r="0.79" fill="#9a9a9a"/>
<circle cx="32.1" cy="7.3" r="0.81" fill="#9a9a9a"/>
<circle cx="34.3" cy="76.4" r="0.85" fill="#9a9a9a"/>
<circle cx="16.6" cy="44.9" r="0.63" fill="#9a9a9a"/>
<circle cx="80.9" cy="25.1" r="0.75" fill="#9a9a9a"/>
<circle cx="95.8" cy="30.4" r="0.57" fill="#9a9a9a"/>
<circle cx="2.0" cy="24.1" r="0.53" fill="#9a9a9a"/>
<circle cx="47.4" cy="2.6" r="0.85" fill="#9a9a9a"/>
<circle cx="80.4" cy="10.0" r="0.90" fill="#9a9a9a"/>
<circle cx="11.5" cy="18.1" r="0.72" fill="#9a9a9a"/>
<circle cx="84.2" cy="35.5" r="0.57" fill="#9a9a9a"/>
<circle cx="21.9" cy="48.6" r="0.86" fill="#9a9a9a"/>
<circle cx="3.7" cy="67.0" r="0.87" fill="#9a9a9a"/>
<circle cx="71.0" cy="76.9" r="0.65" fill="#9a9a9a"/>
<circle cx="67.8" cy="60.5" r="0.67" fill="#9a9a9a"/>
<circle cx="1.9" cy="74.8" r="0.61" fill="#9a9a9a"/>
<circle cx="8.0" cy="28.2" r="0.83" fill="#9a9a9a"/>
<circle cx="92.9" cy="28.4" r="0.56" fill="#9a9a9a"/>
<circle cx="80.8" cy="90.7" r="0.60" fill="#9a9a9a"/>
<circle cx="5.9" cy="80.5" r="0.51" fill="#9a9a9a"/>
<circle cx="77.2" cy="26.5" r="0.50" fill="#9a9a9a"/>
<circle cx="78.6" cy="15.0" r="0.90" fill="#9a9a9a"/>
<circle cx="5.5" cy="46.2" r="0.83" fill="#9a9a9a"/>
<circle cx="80.9" cy="75.0" r="0.52" fill="#9a9a9a"/>
<circle cx="18.6" cy="10.8" r="0.61" fill="#9a9a9a"/>
<circle cx="2.7" cy="2.9" r="0.87" fill="#9a9a9a"/>
<circle cx="51.1" cy="10.4" r="0.73" fill="#9a9a9a"/>
<circle cx="17.3" cy="93.4" r="0.59" fill="#9a9a9a"/>
<circle cx="59.7" cy="15.0" r="0.77" fill="#9a9a9a"/>
<circle cx="87.1" cy="74.9" r="0.82" fill="#9a9a9a"/>
<circle cx="83.4" cy="59.6" r="0.73" fill="#9a9a9a"/>
<circle cx="17.4" cy="31.8" r="0.79" fill="#9a9a9a"/>
<circle cx="20.1" cy="85.9" r="0.62" fill="#9a9a9a"/>
<circle cx="48.5" cy="83.5" r="0.66" fill="#9a9a9a"/>
<circle cx="75.2" cy="17.2" r="0.86" fill="#9a9a9a"/>
<circle cx="46.2" cy="12.5" r="0.82" fill="#9a9a9a"/>
<circle cx="52.0" cy="5.4" r="0.87" fill="#9a9a9a"/>
<circle cx="28.8" cy="51.2" r="0.56" fill="#9a9a9a"/>
<circle cx="61.1" cy="47.8" r="0.78" fill="#9a9a9a"/>
<circle cx="86.5" cy="38.7" r="0.77" fill="#9a9a9a"/>
<circle cx="50.3" cy="46.9" r="0.54" fill="#9a9a9a"/>
<circle cx="32.1" cy="32.9" r="0.70" fill="#9a9a9a"/>
<circle cx="7.3" cy="7.5" r="0.71" fill="#9a9a9a"/>
<circle cx="72.2" cy="12.3" r="0.85" fill="#9a9a9a"/>
<circle cx="94.0" cy="63.9" r="0.61" fill="#9a9a9a"/>
<circle cx="77.9" cy="5.0" r="0.58" fill="#9a9a9a"/>
<circle cx="65.0" cy="37.6" r="0.61" fill="#9a9a9a"/>
<circle cx="45.0" cy="67.1" r="0.81" fill="#9a9a9a"/>
<circle cx="73.3" cy="83.8" r="0.52" fill="#9a9a9a"/>
<circle cx="36.3" cy="90.4" r="0.75" fill="#9a9a9a"/>
<circle cx="27.1" cy="91.0" r="0.53" fill="#9a9a9a"/></g>
<g transform="translate(0 96)"><circle cx="49.1" cy="53.5" r="0.62" fill="#9a9a9a"/>
<circle cx="33.2" cy="67.5" r="0.57" fill="#9a9a9a"/>
<circle cx="93.6" cy="92.8" r="0.58" fill="#9a9a9a"/>
<circle cx="10.6" cy="39.3" r="0.72" fill="#9a9a9a"/>
<circle cx="21.7" cy="2.6" r="0.79" fill="#9a9a9a"/>
<circle cx="32.1" cy="7.3" r="0.81" fill="#9a9a9a"/>
<circle cx="34.3" cy="76.4" r="0.85" fill="#9a9a9a"/>
<circle cx="16.6" cy="44.9" r="0.63" fill="#9a9a9a"/>
<circle cx="80.9" cy="25.1" r="0.75" fill="#9a9a9a"/>
<circle cx="95.8" cy="30.4" r="0.57" fill="#9a9a9a"/>
<circle cx="2.0" cy="24.1" r="0.53" fill="#9a9a9a"/>
<circle cx="47.4" cy="2.6" r="0.85" fill="#9a9a9a"/>
<circle cx="80.4" cy="10.0" r="0.90" fill="#9a9a9a"/>
<circle cx="11.5" cy="18.1" r="0.72" fill="#9a9a9a"/>
<circle cx="84.2" cy="35.5" r="0.57" fill="#9a9a9a"/>
<circle cx="21.9" cy="48.6" r="0.86" fill="#9a9a9a"/>
<circle cx="3.7" cy="67.0" r="0.87" fill="#9a9a9a"/>
<circle cx="71.0" cy="76.9" r="0.65" fill="#9a9a9a"/>
<circle cx="67.8" cy="60.5" r="0.67" fill="#9a9a9a"/>
<circle cx="1.9" cy="74.8" r="0.61" fill="#9a9a9a"/>
<circle cx="8.0" cy="28.2" r="0.83" fill="#9a9a9a"/>
<circle cx="92.9" cy="28.4" r="0.56" fill="#9a9a9a"/>
<circle cx="80.8" cy="90.7" r="0.60" fill="#9a9a9a"/>
<circle cx="5.9" cy="80.5" r="0.51" fill="#9a9a9a"/>
<circle cx="77.2" cy="26.5" r="0.50" fill="#9a9a9a"/>
<circle cx="78.6" cy="15.0" r="0.90" fill="#9a9a9a"/>
<circle cx="5.5" cy="46.2" r="0.83" fill="#9a9a9a"/>
<circle cx="80.9" cy="75.0" r="0.52" fill="#9a9a9a"/>
<circle cx="18.6" cy="10.8" r="0.61" fill="#9a9a9a"/>
<circle cx="2.7" cy="2.9" r="0.87" fill="#9a9a9a"/>
<circle cx="51.1" cy="10.4" r="0.73" fill="#9a9a9a"/>
<circle cx="17.3" cy="93.4" r="0.59" fill="#9a9a9a"/>
<circle cx="59.7" cy="15.0" r="0.77" fill="#9a9a9a"/>
<circle cx="87.1" cy="74.9" r="0.82" fill="#9a9a9a"/>
<circle cx="83.4" cy="59.6" r="0.73" fill="#9a9a9a"/>
<circle cx="17.4" cy="31.8" r="0.79" fill="#9a9a9a"/>
<circle cx="20.1" cy="85.9" r="0.62" fill="#9a9a9a"/>
<circle cx="48.5" cy="83.5" r="0.66" fill="#9a9a9a"/>
<circle cx="75.2" cy="17.2" r="0.86" fill="#9a9a9a"/>
<circle cx="46.2" cy="12.5" r="0.82" fill="#9a9a9a"/>
<circle cx="52.0" cy="5.4" r="0.87" fill="#9a9a9a"/>
<circle cx="28.8" cy="51.2" r="0.56" fill="#9a9a9a"/>
<circle cx="61.1" cy="47.8" r="0.78" fill="#9a9a9a"/>
<circle cx="86.5" cy="38.7" r="0.77" fill="#9a9a9a"/>
<circle cx="50.3" cy="46.9" r="0.54" fill="#9a9a9a"/>
<circle cx="32.1" cy="32.9" r="0.70" fill="#9a9a9a"/>
<circle cx="7.3" cy="7.5" r="0.71" fill="#9a9a9a"/>
<circle cx="72.2" cy="12.3" r="0.85" fill="#9a9a9a"/>
<circle cx="94.0" cy="63.9" r="0.61" fill="#9a9a9a"/>
<circle cx="77.9" cy="5.0" r="0.58" fill="#9a9a9a"/>
<circle cx="65.0" cy="37.6" r="0.61" fill="#9a9a9a"/>
<circle cx="45.0" cy="67.1" r="0.81" fill="#9a9a9a"/>
<circle cx="73.3" cy="83.8" r="0.52" fill="#9a9a9a"/>
<circle cx="36.3" cy="90.4" r="0.75" fill="#9a9a9a"/>
<circle cx="27.1" cy="91.0" r="0.53" fill="#9a9a9a"/></g>
<g transform="translate(96 -96)"><circle cx="49.1" cy="53.5" r="0.62" fill="#9a9a9a"/>
<circle cx="33.2" cy="67.5" r="0.57" fill="#9a9a9a"/>
<circle cx="93.6" cy="92.8" r="0.58" fill="#9a9a9a"/>
<circle cx="10.6" cy="39.3" r="0.72" fill="#9a9a9a"/>
<circle cx="21.7" cy="2.6" r="0.79" fill="#9a9a9a"/>
<circle cx="32.1" cy="7.3" r="0.81" fill="#9a9a9a"/>
<circle cx="34.3" cy="76.4" r="0.85" fill="#9a9a9a"/>
<circle cx="16.6" cy="44.9" r="0.63" fill="#9a9a9a"/>
<circle cx="80.9" cy="25.1" r="0.75" fill="#9a9a9a"/>
<circle cx="95.8" cy="30.4" r="0.57" fill="#9a9a9a"/>
<circle cx="2.0" cy="24.1" r="0.53" fill="#9a9a9a"/>
<circle cx="47.4" cy="2.6" r="0.85" fill="#9a9a9a"/>
<circle cx="80.4" cy="10.0" r="0.90" fill="#9a9a9a"/>
<circle cx="11.5" cy="18.1" r="0.72" fill="#9a9a9a"/>
<circle cx="84.2" cy="35.5" r="0.57" fill="#9a9a9a"/>
<circle cx="21.9" cy="48.6" r="0.86" fill="#9a9a9a"/>
<circle cx="3.7" cy="67.0" r="0.87" fill="#9a9a9a"/>
<circle cx="71.0" cy="76.9" r="0.65" fill="#9a9a9a"/>
<circle cx="67.8" cy="60.5" r="0.67" fill="#9a9a9a"/>
<circle cx="1.9" cy="74.8" r="0.61" fill="#9a9a9a"/>
<circle cx="8.0" cy="28.2" r="0.83" fill="#9a9a9a"/>
<circle cx="92.9" cy="28.4" r="0.56" fill="#9a9a9a"/>
<circle cx="80.8" cy="90.7" r="0.60" fill="#9a9a9a"/>
<circle cx="5.9" cy="80.5" r="0.51" fill="#9a9a9a"/>
<circle cx="77.2" cy="26.5" r="0.50" fill="#9a9a9a"/>
<circle cx="78.6" cy="15.0" r="0.90" fill="#9a9a9a"/>
<circle cx="5.5" cy="46.2" r="0.83" fill="#9a9a9a"/>
<circle cx="80.9" cy="75.0" r="0.52" fill="#9a9a9a"/>
<circle cx="18.6" cy="10.8" r="0.61" fill="#9a9a9a"/>
<circle cx="2.7" cy="2.9" r="0.87" fill="#9a9a9a"/>
<circle cx="51.1" cy="10.4" r="0.73" fill="#9a9a9a"/>
<circle cx="17.3" cy="93.4" r="0.59" fill="#9a9a9a"/>
<circle cx="59.7" cy="15.0" r="0.77" fill="#9a9a9a"/>
<circle cx="87.1" cy="74.9" r="0.82" fill="#9a9a9a"/>
<circle cx="83.4" cy="59.6" r="0.73" fill="#9a9a9a"/>
<circle cx="17.4" cy="31.8" r="0.79" fill="#9a9a9a"/>
<circle cx="20.1" cy="85.9" r="0.62" fill="#9a9a9a"/>
<circle cx="48.5" cy="83.5" r="0.66" fill="#9a9a9a"/>
<circle cx="75.2" cy="17.2" r="0.86" fill="#9a9a9a"/>
<circle cx="46.2" cy="12.5" r="0.82" fill="#9a9a9a"/>
<circle cx="52.0" cy="5.4" r="0.87" fill="#9a9a9a"/>
<circle cx="28.8" cy="51.2" r="0.56" fill="#9a9a9a"/>
<circle cx="61.1" cy="47.8" r="0.78" fill="#9a9a9a"/>
<circle cx="86.5" cy="38.7" r="0.77" fill="#9a9a9a"/>
<circle cx="50.3" cy="46.9" r="0.54" fill="#9a9a9a"/>
<circle cx="32.1" cy="32.9" r="0.70" fill="#9a9a9a"/>
<circle cx="7.3" cy="7.5" r="0.71" fill="#9a9a9a"/>
<circle cx="72.2" cy="12.3" r="0.85" fill="#9a9a9a"/>
<circle cx="94.0" cy="63.9" r="0.61" fill="#9a9a9a"/>
<circle cx="77.9" cy="5.0" r="0.58" fill="#9a9a9a"/>
<circle cx="65.0" cy="37.6" r="0.61" fill="#9a9a9a"/>
<circle cx="45.0" cy="67.1" r="0.81" fill="#9a9a9a"/>
<circle cx="73.3" cy="83.8" r="0.52" fill="#9a9a9a"/>
<circle cx="36.3" cy="90.4" r="0.75" fill="#9a9a9a"/>
<circle cx="27.1" cy="91.0" r="0.53" fill="#9a9a9a"/></g>
<g transform="translate(96 0)"><circle cx="49.1" cy="53.5" r="0.62" fill="#9a9a9a"/>
<circle cx="33.2" cy="67.5" r="0.57" fill="#9a9a9a"/>
<circle cx="93.6" cy="92.8" r="0.58" fill="#9a9a9a"/>
<circle cx="10.6" cy="39.3" r="0.72" fill="#9a9a9a"/>
<circle cx="21.7" cy="2.6" r="0.79" fill="#9a9a9a"/>
<circle cx="32.1" cy="7.3" r="0.81" fill="#9a9a9a"/>
<circle cx="34.3" cy="76.4" r="0.85" fill="#9a9a9a"/>
<circle cx="16.6" cy="44.9" r="0.63" fill="#9a9a9a"/>
<circle cx="80.9" cy="25.1" r="0.75" fill="#9a9a9a"/>
<circle cx="95.8" cy="30.4" r="0.57" fill="#9a9a9a"/>
<circle cx="2.0" cy="24.1" r="0.53" fill="#9a9a9a"/>
<circle cx="47.4" cy="2.6" r="0.85" fill="#9a9a9a"/>
<circle cx="80.4" cy="10.0" r="0.90" fill="#9a9a9a"/>
<circle cx="11.5" cy="18.1" r="0.72" fill="#9a9a9a"/>
<circle cx="84.2" cy="35.5" r="0.57" fill="#9a9a9a"/>
<circle cx="21.9" cy="48.6" r="0.86" fill="#9a9a9a"/>
<circle cx="3.7" cy="67.0" r="0.87" fill="#9a9a9a"/>
<circle cx="71.0" cy="76.9" r="0.65" fill="#9a9a9a"/>
<circle cx="67.8" cy="60.5" r="0.67" fill="#9a9a9a"/>
<circle cx="1.9" cy="74.8" r="0.61" fill="#9a9a9a"/>
<circle cx="8.0" cy="28.2" r="0.83" fill="#9a9a9a"/>
<circle cx="92.9" cy="28.4" r="0.56" fill="#9a9a9a"/>
<circle cx="80.8" cy="90.7" r="0.60" fill="#9a9a9a"/>
<circle cx="5.9" cy="80.5" r="0.51" fill="#9a9a9a"/>
<circle cx="77.2" cy="26.5" r="0.50" fill="#9a9a9a"/>
<circle cx="78.6" cy="15.0" r="0.90" fill="#9a9a9a"/>
<circle cx="5.5" cy="46.2" r="0.83" fill="#9a9a9a"/>
<circle cx="80.9" cy="75.0" r="0.52" fill="#9a9a9a"/>
<circle cx="18.6" cy="10.8" r="0.61" fill="#9a9a9a"/>
<circle cx="2.7" cy="2.9" r="0.87" fill="#9a9a9a"/>
<circle cx="51.1" cy="10.4" r="0.73" fill="#9a9a9a"/>
<circle cx="17.3" cy="93.4" r="0.59" fill="#9a9a9a"/>
<circle cx="59.7" cy="15.0" r="0.77" fill="#9a9a9a"/>
<circle cx="87.1" cy="74.9" r="0.82" fill="#9a9a9a"/>
<circle cx="83.4" cy="59.6" r="0.73" fill="#9a9a9a"/>
<circle cx="17.4" cy="31.8" r="0.79" fill="#9a9a9a"/>
<circle cx="20.1" cy="85.9" r="0.62" fill="#9a9a9a"/>
<circle cx="48.5" cy="83.5" r="0.66" fill="#9a9a9a"/>
<circle cx="75.2" cy="17.2" r="0.86" fill="#9a9a9a"/>
<circle cx="46.2" cy="12.5" r="0.82" fill="#9a9a9a"/>
<circle cx="52.0" cy="5.4" r="0.87" fill="#9a9a9a"/>
<circle cx="28.8" cy="51.2" r="0.56" fill="#9a9a9a"/>
<circle cx="61.1" cy="47.8" r="0.78" fill="#9a9a9a"/>
<circle cx="86.5" cy="38.7" r="0.77" fill="#9a9a9a"/>
<circle cx="50.3" cy="46.9" r="0.54" fill="#9a9a9a"/>
<circle cx="32.1" cy="32.9" r="0.70" fill="#9a9a9a"/>
<circle cx="7.3" cy="7.5" r="0.71" fill="#9a9a9a"/>
<circle cx="72.2" cy="12.3" r="0.85" fill="#9a9a9a"/>
<circle cx="94.0" cy="63.9" r="0.61" fill="#9a9a9a"/>
<circle cx="77.9" cy="5.0" r="0.58" fill="#9a9a9a"/>
<circle cx="65.0" cy="37.6" r="0.61" fill="#9a9a9a"/>
<circle cx="45.0" cy="67.1" r="0.81" fill="#9a9a9a"/>
<circle cx="73.3" cy="83.8" r="0.52" fill="#9a9a9a"/>
<circle cx="36.3" cy="90.4" r="0.75" fill="#9a9a9a"/>
<circle cx="27.1" cy="91.0" r="0.53" fill="#9a9a9a"/></g>
<g transform="translate(96 96)"><circle cx="49.1" cy="53.5" r="0.62" fill="#9a9a9a"/>
<circle cx="33.2" cy="67.5" r="0.57" fill="#9a9a9a"/>
<circle cx="93.6" cy="92.8" r="0.58" fill="#9a9a9a"/>
<circle cx="10.6" cy="39.3" r="0.72" fill="#9a9a9a"/>
<circle cx="21.7" cy="2.6" r="0.79" fill="#9a9a9a"/>
<circle cx="32.1" cy="7.3" r="0.81" fill="#9a9a9a"/>
<circle cx="34.3" cy="76.4" r="0.85" fill="#9a9a9a"/>
<circle cx="16.6" cy="44.9" r="0.63" fill="#9a9a9a"/>
<circle cx="80.9" cy="25.1" r="0.75" fill="#9a9a9a"/>
<circle cx="95.8" cy="30.4" r="0.57" fill="#9a9a9a"/>
<circle cx="2.0" cy="24.1" r="0.53" fill="#9a9a9a"/>
<circle cx="47.4" cy="2.6" r="0.85" fill="#9a9a9a"/>
<circle cx="80.4" cy="10.0" r="0.90" fill="#9a9a9a"/>
<circle cx="11.5" cy="18.1" r="0.72" fill="#9a9a9a"/>
<circle cx="84.2" cy="35.5" r="0.57" fill="#9a9a9a"/>
<circle cx="21.9" cy="48.6" r="0.86" fill="#9a9a9a"/>
<circle cx="3.7" cy="67.0" r="0.87" fill="#9a9a9a"/>
<circle cx="71.0" cy="76.9" r="0.65" fill="#9a9a9a"/>
<circle cx="67.8" cy="60.5" r="0.67" fill="#9a9a9a"/>
<circle cx="1.9" cy="74.8" r="0.61" fill="#9a9a9a"/>
<circle cx="8.0" cy="28.2" r="0.83" fill="#9a9a9a"/>
<circle cx="92.9" cy="28.4" r="0.56" fill="#9a9a9a"/>
<circle cx="80.8" cy="90.7" r="0.60" fill="#9a9a9a"/>
<circle cx="5.9" cy="80.5" r="0.51" fill="#9a9a9a"/>
<circle cx="77.2" cy="26.5" r="0.50" fill="#9a9a9a"/>
<circle cx="78.6" cy="15.0" r="0.90" fill="#9a9a9a"/>
<circle cx="5.5" cy="46.2" r="0.83" fill="#9a9a9a"/>
<circle cx="80.9" cy="75.0" r="0.52" fill="#9a9a9a"/>
<circle cx="18.6" cy="10.8" r="0.61" fill="#9a9a9a"/>
<circle cx="2.7" cy="2.9" r="0.87" fill="#9a9a9a"/>
<circle cx="51.1" cy="10.4" r="0.73" fill="#9a9a9a"/>
<circle cx="17.3" cy="93.4" r="0.59" fill="#9a9a9a"/>
<circle cx="59.7" cy="15.0" r="0.77" fill="#9a9a9a"/>
<circle cx="87.1" cy="74.9" r="0.82" fill="#9a9a9a"/>
<circle cx="83.4" cy="59.6" r="0.73" fill="#9a9a9a"/>
<circle cx="17.4" cy="31.8" r="0.79" fill="#9a9a9a"/>
<circle cx="20.1" cy="85.9" r="0.62" fill="#9a9a9a"/>
<circle cx="48.5" cy="83.5" r="0.66" fill="#9a9a9a"/>
<circle cx="75.2" cy="17.2" r="0.86" fill="#9a9a9a"/>
<circle cx="46.2" cy="12.5" r="0.82" fill="#9a9a9a"/>
<circle cx="52.0" cy="5.4" r="0.87" fill="#9a9a9a"/>
<circle cx="28.8" cy="51.2" r="0.56" fill="#9a9a9a"/>
<circle cx="61.1" cy="47.8" r="0.78" fill="#9a9a9a"/>
<circle cx="86.5" cy="38.7" r="0.77" fill="#9a9a9a"/>
<circle cx="50.3" cy="46.9" r="0.54" fill="#9a9a9a"/>
<circle cx="32.1" cy="32.9" r="0.70" fill="#9a9a9a"/>
<circle cx="7.3" cy="7.5" r="0.71" fill="#9a9a9a"/>
<circle cx="72.2" cy="12.3" r="0.85" fill="#9a9a9a"/>
<circle cx="94.0" cy="63.9" r="0.61" fill="#9a9a9a"/>
<circle cx="77.9" cy="5.0" r="0.58" fill="#9a9a9a"/>
<circle cx="65.0" cy="37.6" r="0.61" fill="#9a9a9a"/>
<circle cx="45.0" cy="67.1" r="0.81" fill="#9a9a9a"/>
<circle cx="73.3" cy="83.8" r="0.52" fill="#9a9a9a"/>
<circle cx="36.3" cy="90.4" r="0.75" fill="#9a9a9a"/>
<circle cx="27.1" cy="91.0" r="0.53" fill="#9a9a9a"/></g>
<path d="M -72.0,0 Q -48.0,35.0 -24.0,0" fill="none" stroke="#222" stroke-width="1.1"/>
<path d="M -68.4,2.0 Q -34.6,28.6 -25.2,2.0" fill="none" stroke="#6a6a6a" stroke-width="0.7"/>
<path d="M -64.8,2.0 Q -34.6,22.2 -26.4,2.0" fill="none" stroke="#6a6a6a" stroke-width="0.7"/>
<path d="M -61.2,2.0 Q -34.6,15.8 -27.6,2.0" fill="none" stroke="#6a6a6a" stroke-width="0.7"/>
<path d="M -57.6,2.0 Q -34.6,9.4 -28.8,2.0" fill="none" stroke="#6a6a6a" stroke-width="0.7"/>
<path d="M -24.0,0 Q 0.0,35.0 24.0,0" fill="none" stroke="#222" stroke-width="1.1"/>
<path d="M -20.4,2.0 Q 13.4,28.6 22.8,2.0" fill="none" stroke="#6a6a6a" stroke-width="0.7"/>
<path d="M -16.8,2.0 Q 13.4,22.2 21.6,2.0" fill="none" stroke="#6a6a6a" stroke-width="0.7"/>
<path d="M -13.2,2.0 Q 13.4,15.8 20.4,2.0" fill="none" stroke="#6a6a6a" stroke-width="0.7"/>
<path d="M -9.6,2.0 Q 13.4,9.4 19.2,2.0" fill="none" stroke="#6a6a6a" stroke-width="0.7"/>
<path d="M 24.0,0 Q 48.0,35.0 72.0,0" fill="none" stroke="#222" stroke-width="1.1"/>
<path d="M 27.6,2.0 Q 61.4,28.6 70.8,2.0" fill="none" stroke="#6a6a6a" stroke-width="0.7"/>
<path d="M 31.2,2.0 Q 61.4,22.2 69.6,2.0" fill="none" stroke="#6a6a6a" stroke-width="0.7"/>
<path d="M 34.8,2.0 Q 61.4,15.8 68.4,2.0" fill="none" stroke="#6a6a6a" stroke-width="0.7"/>
<path d="M 38.4,2.0 Q 61.4,9.4 67.2,2.0" fill="none" stroke="#6a6a6a" stroke-width="0.7"/>
<path d="M 72.0,0 Q 96.0,35.0 120.0,0" fill="none" stroke="#222" stroke-width="1.1"/>
<path d="M 75.6,2.0 Q 109.4,28.6 118.8,2.0" fill="none" stroke="#6a6a6a" stroke-width="0.7"/>
<path d="M 79.2,2.0 Q 109.4,22.2 117.6,2.0" fill="none" stroke="#6a6a6a" stroke-width="0.7"/>
<path d="M 82.8,2.0 Q 109.4,15.8 116.4,2.0" fill="none" stroke="#6a6a6a" stroke-width="0.7"/>
<path d="M 86.4,2.0 Q 109.4,9.4 115.2,2.0" fill="none" stroke="#6a6a6a" stroke-width="0.7"/>
<path d="M 120.0,0 Q 144.0,35.0 168.0,0" fill="none" stroke="#222" stroke-width="1.1"/>
<path d="M 123.6,2.0 Q 157.4,28.6 166.8,2.0" fill="none" stroke="#6a6a6a" stroke-width="0.7"/>
<path d="M 127.2,2.0 Q 157.4,22.2 165.6,2.0" fill="none" stroke="#6a6a6a" stroke-width="0.7"/>
<path d="M 130.8,2.0 Q 157.4,15.8 164.4,2.0" fill="none" stroke="#6a6a6a" stroke-width="0.7"/>
<path d="M 134.4,2.0 Q 157.4,9.4 163.2,2.0" fill="none" stroke="#6a6a6a" stroke-width="0.7"/>
<path d="M -48.0,32 Q -24.0,67.0 0.0,32" fill="none" stroke="#222" stroke-width="1.1"/>
<path d="M -44.4,34.0 Q -10.6,60.6 -1.2,34.0" fill="none" stroke="#6a6a6a" stroke-width="0.7"/>
<path d="M -40.8,34.0 Q -10.6,54.2 -2.4,34.0" fill="none" stroke="#6a6a6a" stroke-width="0.7"/>
<path d="M -37.2,34.0 Q -10.6,47.8 -3.6,34.0" fill="none" stroke="#6a6a6a" stroke-width="0.7"/>
<path d="M -33.6,34.0 Q -10.6,41.4 -4.8,34.0" fill="none" stroke="#6a6a6a" stroke-width="0.7"/>
<path d="M 0.0,32 Q 24.0,67.0 48.0,32" fill="none" stroke="#222" stroke-width="1.1"/>
<path d="M 3.6,34.0 Q 37.4,60.6 46.8,34.0" fill="none" stroke="#6a6a6a" stroke-width="0.7"/>
<path d="M 7.2,34.0 Q 37.4,54.2 45.6,34.0" fill="none" stroke="#6a6a6a" stroke-width="0.7"/>
<path d="M 10.8,34.0 Q 37.4,47.8 44.4,34.0" fill="none" stroke="#6a6a6a" stroke-width="0.7"/>
<path d="M 14.4,34.0 Q 37.4,41.4 43.2,34.0" fill="none" stroke="#6a6a6a" stroke-width="0.7"/>
<path d="M 48.0,32 Q 72.0,67.0 96.0,32" fill="none" stroke="#222" stroke-width="1.1"/>
<path d="M 51.6,34.0 Q 85.4,60.6 94.8,34.0" fill="none" stroke="#6a6a6a" stroke-width="0.7"/>
<path d="M 55.2,34.0 Q 85.4,54.2 93.6,34.0" fill="none" stroke="#6a6a6a" stroke-width="0.7"/>
<path d="M 58.8,34.0 Q 85.4,47.8 92.4,34.0" fill="none" stroke="#6a6a6a" stroke-width="0.7"/>
<path d="M 62.4,34.0 Q 85.4,41.4 91.2,34.0" fill="none" stroke="#6a6a6a" stroke-width="0.7"/>
<path d="M 96.0,32 Q 120.0,67.0 144.0,32" fill="none" stroke="#222" stroke-width="1.1"/>
<path d="M 99.6,34.0 Q 133.4,60.6 142.8,34.0" fill="none" stroke="#6a6a6a" stroke-width="0.7"/>
<path d="M 103.2,34.0 Q 133.4,54.2 141.6,34.0" fill="none" stroke="#6a6a6a" stroke-width="0.7"/>
<path d="M 106.8,34.0 Q 133.4,47.8 140.4,34.0" fill="none" stroke="#6a6a6a" stroke-width="0.7"/>
<path d="M 110.4,34.0 Q 133.4,41.4 139.2,34.0" fill="none" stroke="#6a6a6a" stroke-width="0.7"/>
<path d="M 144.0,32 Q 168.0,67.0 192.0,32" fill="none" stroke="#222" stroke-width="1.1"/>
<path d="M 147.6,34.0 Q 181.4,60.6 190.8,34.0" fill="none" stroke="#6a6a6a" stroke-width="0.7"/>
<path d="M 151.2,34.0 Q 181.4,54.2 189.6,34.0" fill="none" stroke="#6a6a6a" stroke-width="0.7"/>
<path d="M 154.8,34.0 Q 181.4,47.8 188.4,34.0" fill="none" stroke="#6a6a6a" stroke-width="0.7"/>
<path d="M 158.4,34.0 Q 181.4,41.4 187.2,34.0" fill="none" stroke="#6a6a6a" stroke-width="0.7"/>
<path d="M -72.0,64 Q -48.0,99.0 -24.0,64" fill="none" stroke="#222" stroke-width="1.1"/>
<path d="M -68.4,66.0 Q -34.6,92.6 -25.2,66.0" fill="none" stroke="#6a6a6a" stroke-width="0.7"/>
<path d="M -64.8,66.0 Q -34.6,86.2 -26.4,66.0" fill="none" stroke="#6a6a6a" stroke-width="0.7"/>
<path d="M -61.2,66.0 Q -34.6,79.8 -27.6,66.0" fill="none" stroke="#6a6a6a" stroke-width="0.7"/>
<path d="M -57.6,66.0 Q -34.6,73.4 -28.8,66.0" fill="none" stroke="#6a6a6a" stroke-width="0.7"/>
<path d="M -24.0,64 Q 0.0,99.0 24.0,64" fill="none" stroke="#222" stroke-width="1.1"/>
<path d="M -20.4,66.0 Q 13.4,92.6 22.8,66.0" fill="none" stroke="#6a6a6a" stroke-width="0.7"/>
<path d="M -16.8,66.0 Q 13.4,86.2 21.6,66.0" fill="none" stroke="#6a6a6a" stroke-width="0.7"/>
<path d="M -13.2,66.0 Q 13.4,79.8 20.4,66.0" fill="none" stroke="#6a6a6a" stroke-width="0.7"/>
<path d="M -9.6,66.0 Q 13.4,73.4 19.2,66.0" fill="none" stroke="#6a6a6a" stroke-width="0.7"/>
<path d="M 24.0,64 Q 48.0,99.0 72.0,64" fill="none" stroke="#222" stroke-width="1.1"/>
<path d="M 27.6,66.0 Q 61.4,92.6 70.8,66.0" fill="none" stroke="#6a6a6a" stroke-width="0.7"/>
<path d="M 31.2,66.0 Q 61.4,86.2 69.6,66.0" fill="none" stroke="#6a6a6a" stroke-width="0.7"/>
<path d="M 34.8,66.0 Q 61.4,79.8 68.4,66.0" fill="none" stroke="#6a6a6a" stroke-width="0.7"/>
<path d="M 38.4,66.0 Q 61.4,73.4 67.2,66.0" fill="none" stroke="#6a6a6a" stroke-width="0.7"/>
<path d="M 72.0,64 Q 96.0,99.0 120.0,64" fill="none" stroke="#222" stroke-width="1.1"/>
<path d="M 75.6,66.0 Q 109.4,92.6 118.8,66.0" fill="none" stroke="#6a6a6a" stroke-width="0.7"/>
<path d="M 79.2,66.0 Q 109.4,86.2 117.6,66.0" fill="none" stroke="#6a6a6a" stroke-width="0.7"/>
<path d="M 82.8,66.0 Q 109.4,79.8 116.4,66.0" fill="none" stroke="#6a6a6a" stroke-width="0.7"/>
<path d="M 86.4,66.0 Q 109.4,73.4 115.2,66.0" fill="none" stroke="#6a6a6a" stroke-width="0.7"/>
<path d="M 120.0,64 Q 144.0,99.0 168.0,64" fill="none" stroke="#222" stroke-width="1.1"/>
<path d="M 123.6,66.0 Q 157.4,92.6 166.8,66.0" fill="none" stroke="#6a6a6a" stroke-width="0.7"/>
<path d="M 127.2,66.0 Q 157.4,86.2 165.6,66.0" fill="none" stroke="#6a6a6a" stroke-width="0.7"/>
<path d="M 130.8,66.0 Q 157.4,79.8 164.4,66.0" fill="none" stroke="#6a6a6a" stroke-width="0.7"/>
<path d="M 134.4,66.0 Q 157.4,73.4 163.2,66.0" fill="none" stroke="#6a6a6a" stroke-width="0.7"/></g></pattern></defs>
<rect width="120" height="120" fill="url(#pat_SGt)" stroke="black" stroke-width="1"/>
</svg>
