<svg xmlns="http://www.w3.org/2000/svg" width="120" height="120" viewBox="0 0 120 120">
<defs><clipPath id="clip48"><rect width="48" height="48"/></clipPath><pattern id="pat_Sh" patternUnits="userSpaceOnUse" width="48" height="48"><rect width="48" height="48" fill="white"/><polyline points="0,3.9 3,4.1 6,4.3 9,4.2 12,4.1 15,4.1 18,4.3 21,4.5 24,4.5 27,4.2 30,3.8 33,3.6 36,3.5 39,3.6 42,3.6 45,3.7 48,3.9" fill="none" stroke="#666" stroke-width="0.8"/>
<polyline points="0,9.5 3,9.6 6,9.7 9,9.8 12,9.8 15,10.0 18,10.3 21,10.4 24,10.4 27,10.1 30,10.0 33,10.1 36,10.3 39,10.3 42,10.0 45,9.7 48,9.5" fill="none" stroke="#666" stroke-width="0.8"/>
<polyline points="0,15.9 3,16.0 6,16.1 9,16.2 12,16.4 15,16.5 18,16.5 21,16.2 24,15.8 27,15.6 30,15.6 33,15.9 36,16.0 39,15.9 42,15.8 45,15.8 48,15.9" fill="none" stroke="#666" stroke-width="0.8"/>
<polyline points="0,21.8 3,21.7 6,21.8 9,21.9 12,22.0 15,21.9 18,21.8 21,21.8 24,21.9 27,22.0 30,22.1 33,22.2 36,22.3 39,22.4 42,22.3 45,22.1 48,21.8" fill="none" stroke="#666" stroke-width="0.8"/>
<polyline points="0,28.1 3,28.3 6,28.5 9,28.5 12,28.3 15,28.1 18,27.9 21,27.8 24,27.7 27,27.6 30,27.6 33,27.7 36,27.9 39,28.0 42,28.0 45,28.0 48,28.1" fill="none" stroke="#666" stroke-width="0.8"/>
<polyline points="0,34.4 3,34.1 6,34.0 9,33.9 12,33.9 15,33.8 18,33.8 21,33.8 24,33.9 27,33.9 30,33.7 33,33.6 36,33.8 39,34.3 42,34.6 45,34.6 48,34.4" fill="none" stroke="#666" stroke-width="0.8"/>
<polyline points="0,40.2 3,40.2 6,40.2 9,40.0 12,39.9 15,39.9 18,39.9 21,39.7 24,39.5 27,39.3 30,39.5 33,40.0 36,40.4 39,40.5 42,40.4 45,40.3 48,40.2" fill="none" stroke="#666" stroke-width="0.8"/>
<polyline points="0,46.0 3,46.4 6,46.6 9,46.5 12,46.2 15,46.0 18,45.8 21,45.8 24,45.8 27,45.8 30,45.8 33,45.9 36,46.0 39,45.9 42,45.8 45,45.8 48,46.0" fill="none" stroke="#666" stroke-width="0.8"/></pattern></defs>
<rect width="120" height="120" fill="url(#pat_Sh)" stroke="black" stroke-width="1"/>
</svg>
