<svg xmlns="http://www.w3.org/2000/svg" width="120" height="120" viewBox="0 0 120 120">
<defs><clipPath id="clip40"><rect width="40" height="40"/></clipPath><pattern id="pat_Sm" patternUnits="userSpaceOnUse" width="40" height="40"><rect width="40" height="40" fill="white"/><g transform="translate(-40 -40)"><circle cx="24.4" cy="33.3" r="1.2" fill="#333"/>
<circle cx="17.7" cy="37.9" r="1.2" fill="#333"/>
<circle cx="34.4" cy="22.0" r="1.2" fill="#333"/>
<circle cx="13.3" cy="28.4" r="1.2" fill="#333"/>
<circle cx="7.5" cy="30.7" r="1.2" fill="#333"/>
<circle cx="33.4" cy="34.3" r="1.2" fill="#333"/>
<circle cx="28.9" cy="16.1" r="1.2" fill="#333"/>
<circle cx="4.9" cy="27.1" r="1.2" fill="#333"/>
<circle cx="12.4" cy="26.8" r="1.2" fill="#333"/>
<circle cx="19.6" cy="34.9" r="1.2" fill="#333"/>
<circle cx="7.1" cy="25.5" r="1.2" fill="#333"/>
<circle cx="38.1" cy="0.4" r="1.2" fill="#333"/>
<circle cx="15.4" cy="35.6" r="1.2" fill="#333"/>
<circle cx="31.2" cy="38.2" r="1.2" fill="#333"/>
<circle cx="21.3" cy="30.2" r="1.2" fill="#333"/>
<circle cx="18.0" cy="13.4" r="1.2" fill="#333"/>
<circle cx="8.8" cy="21.4" r="1.2" fill="#333"/>
<circle cx="30.2" cy="10.7" r="1.2" fill="#333"/>
<circle cx="4.9" cy="2.1" r="1.2" fill="#333"/>
<circle cx="20.0" cy="38.7" r="1.2" fill="#333"/>
<circle cx="38.0" cy="19.6" r="1.2" fill="#333"/>
<circle cx="14.4" cy="7.2" r="1.2" fill="#333"/>
<circle cx="0.0" cy="15.5" r="1.2" fill="#333"/>
<circle cx="4.2" cy="38.2" r="1.2" fill="#333"/>
<circle cx="15.8" cy="36.3" r="1.2" fill="#333"/>
<circle cx="20.9" cy="23.2" r="1.2" fill="#333"/></g>
<g transform="translate(-40 0)"><circle cx="24.4" cy="33.3" r="1.2" fill="#333"/>
<circle cx="17.7" cy="37.9" r="1.2" fill="#333"/>
<circle cx="34.4" cy="22.0" r="1.2" fill="#333"/>
<circle cx="13.3" cy="28.4" r="1.2" fill="#333"/>
<circle cx="7.5" cy="30.7" r="1.2" fill="#333"/>
<circle cx="33.4" cy="34.3" r="1.2" fill="#333"/>
<circle cx="28.9" cy="16.1" r="1.2" fill="#333"/>
<circle cx="4.9" cy="27.1" r="1.2" fill="#333"/>
<circle cx="12.4" cy="26.8" r="1.2" fill="#333"/>
<circle cx="19.6" cy="34.9" r="1.2" fill="#333"/>
<circle cx="7.1" cy="25.5" r="1.2" fill="#333"/>
<circle cx="38.1" cy="0.4" r="1.2" fill="#333"/>
<circle cx="15.4" cy="35.6" r="1.2" fill="#333"/>
<circle cx="31.2" cy="38.2" r="1.2" fill="#333"/>
<circle cx="21.3" cy="30.2" r="1.2" fill="#333"/>
<circle cx="18.0" cy="13.4" r="1.2" fill="#333"/>
<circle cx="8.8" cy="21.4" r="1.2" fill="#333"/>
<circle cx="30.2" cy="10.7" r="1.2" fill="#333"/>
<circle cx="4.9" cy="2.1" r="1.2" fill="#333"/>
<circle cx="20.0" cy="38.7" r="1.2" fill="#333"/>
<circle cx="38.0" cy="19.6" r="1.2" fill="#333"/>
<circle cx="14.4" cy="7.2" r="1.2" fill="#333"/>
<circle cx="0.0" cy="15.5" r="1.2" fill="#333"/>
<circle cx="4.2" cy="38.2" r="1.2" fill="#333"/>
<circle cx="15.8" cy="36.3" r="1.2" fill="#333"/>
<circle cx="20.9" cy="23.2" r="1.2" fill="#333"/></g>
<g transform="translate(-40 40)"><circle cx="24.4" cy="33.3" r="1.2" fill="#333"/>
<circle cx="17.7" cy="37.9" r="1.2" fill="#333"/>
<circle cx="34.4" cy="22.0" r="1.2" fill="#333"/>
<circle cx="13.3" cy="28.4" r="1.2" fill="#333"/>
<circle cx="7.5" cy="30.7" r="1.2" fill="#333"/>
<circle cx="33.4" cy="34.3" r="1.2" fill="#333"/>
<circle cx="28.9" cy="16.1" r="1.2" fill="#333"/>
<circle cx="4.9" cy="27.1" r="1.2" fill="#333"/>
<circle cx="12.4" cy="26.8" r="1.2" fill="#333"/>
<circle cx="19.6" cy="34.9" r="1.2" fill="#333"/>
<circle cx="7.1" cy="25.5" r="1.2" fill="#333"/>
<circle cx="38.1" cy="0.4" r="1.2" fill="#333"/>
<circle cx="15.4" cy="35.6" r="1.2" fill="#333"/>
<circle cx="31.2" cy="38.2" r="1.2" fill="#333"/>
<circle cx="21.3" cy="30.2" r="1.2" fill="#333"/>
<circle cx="18.0" cy="13.4" r="1.2" fill="#333"/>
<circle cx="8.8" cy="21.4" r="1.2" fill="#333"/>
<circle cx="30.2" cy="10.7" r="1.2" fill="#333"/>
<circle cx="4.9" cy="2.1" r="1.2" fill="#333"/>
<circle cx="20.0" cy="38.7" r="1.2" fill="#333"/>
<circle cx="38.0" cy="19.6" r="1.2" fill="#333"/>
<circle cx="14.4" cy="7.2" r="1.2" fill="#333"/>
<circle cx="0.0" cy="15.5" r="1.2" fill="#333"/>
<circle cx="4.2" cy="38.2" r="1.2" fill="#333"/>
<circle cx="15.8" cy="36.3" r="1.2" fill="#333"/>
<circle cx="20.9" cy="23.2" r="1.2" fill="#333"/></g>
<g transform="translate(0 -40)"><circle cx="24.4" cy="33.3" r="1.2" fill="#333"/>
<circle cx="17.7" cy="37.9" r="1.2" fill="#333"/>
<circle cx="34.4" cy="22.0" r="1.2" fill="#333"/>
<circle cx="13.3" cy="28.4" r="1.2" fill="#333"/>
<circle cx="7.5" cy="30.7" r="1.2" fill="#333"/>
<circle cx="33.4" cy="34.3" r="1.2" fill="#333"/>
<circle cx="28.9" cy="16.1" r="1.2" fill="#333"/>
<circle cx="4.9" cy="27.1" r="1.2" fill="#333"/>
<circle cx="12.4" cy="26.8" r="1.2" fill="#333"/>
<circle cx="19.6" cy="34.9" r="1.2" fill="#333"/>
<circle cx="7.1" cy="25.5" r="1.2" fill="#333"/>
<circle cx="38.1" cy="0.4" r="1.2" fill="#333"/>
<circle cx="15.4" cy="35.6" r="1.2" fill="#333"/>
<circle cx="31.2" cy="38.2" r="1.2" fill="#333"/>
<circle cx="21.3" cy="30.2" r="1.2" fill="#333"/>
<circle cx="18.0" cy="13.4" r="1.2" fill="#333"/>
<circle cx="8.8" cy="21.4" r="1.2" fill="#333"/>
<circle cx="30.2" cy="10.7" r="1.2" fill="#333"/>
<circle cx="4.9" cy="2.1" r="1.2" fill="#333"/>
<circle cx="20.0" cy="38.7" r="1.2" fill="#333"/>
<circle cx="38.0" cy="19.6" r="1.2" fill="#333"/>
<circle cx="14.4" cy="7.2" r="1.2" fill="#333"/>
<circle cx="0.0" cy="15.5" r="1.2" fill="#333"/>
<circle cx="4.2" cy="38.2" r="1.2" fill="#333"/>
<circle cx="15.8" cy="36.3" r="1.2" fill="#333"/>
<circle cx="20.9" cy="23.2" r="1.2" fill="#333"/></g>
<g transform="translate(0 0)"><circle cx="24.4" cy="33.3" r="1.2" fill="#333"/>
<circle cx="17.7" cy="37.9" r="1.2" fill="#333"/>
<circle cx="34.4" cy="22.0" r="1.2" fill="#333"/>
<circle cx="13.3" cy="28.4" r="1.2" fill="#333"/>
<circle cx="7.5" cy="30.7" r="1.2" fill="#333"/>
<circle cx="33.4" cy="34.3" r="1.2" fill="#333"/>
<circle cx="28.9" cy="16.1" r="1.2" fill="#333"/>
<circle cx="4.9" cy="27.1" r="1.2" fill="#333"/>
<circle cx="12.4" cy="26.8" r="1.2" fill="#333"/>
<circle cx="19.6" cy="34.9" r="1.2" fill="#333"/>
<circle cx="7.1" cy="25.5" r="1.2" fill="#333"/>
<circle cx="38.1" cy="0.4" r="1.2" fill="#333"/>
<circle cx="15.4" cy="35.6" r="1.2" fill="#333"/>
<circle cx="31.2" cy="38.2" r="1.2" fill="#333"/>
<circle cx="21.3" cy="30.2" r="1.2" fill="#333"/>
<circle cx="18.0" cy="13.4" r="1.2" fill="#333"/>
<circle cx="8.8" cy="21.4" r="1.2" fill="#333"/>
<circle cx="30.2" cy="10.7" r="1.2" fill="#333"/>
<circle cx="4.9" cy="2.1" r="1.2" fill="#333"/>
<circle cx="20.0" cy="38.7" r="1.2" fill="#333"/>
<circle cx="38.0" cy="19.6" r="1.2" fill="#333"/>
<circle cx="14.4" cy="7.2" r="1.2" fill="#333"/>
<circle cx="0.0" cy="15.5" r="1.2" fill="#333"/>
<circle cx="4.2" cy="38.2" r="1.2" fill="#333"/>
<circle cx="15.8" cy="36.3" r="1.2" fill="#333"/>
<circle cx="20.9" cy="23.2" r="1.2" fill="#333"/></g>
<g transform="translate(0 40)"><circle cx="24.4" cy="33.3" r="1.2" fill="#333"/>
<circle cx="17.7" cy="37.9" r="1.2" fill="#333"/>
<circle cx="34.4" cy="22.0" r="1.2" fill="#333"/>
<circle cx="13.3" cy="28.4" r="1.2" fill="#333"/>
<circle cx="7.5" cy="30.7" r="1.2" fill="#333"/>
<circle cx="33.4" cy="34.3" r="1.2" fill="#333"/>
<circle cx="28.9" cy="16.1" r="1.2" fill="#333"/>
<circle cx="4.9" cy="27.1" r="1.2" fill="#333"/>
<circle cx="12.4" cy="26.8" r="1.2" fill="#333"/>
<circle cx="19.6" cy="34.9" r="1.2" fill="#333"/>
<circle cx="7.1" cy="25.5" r="1.2" fill="#333"/>
<circle cx="38.1" cy="0.4" r="1.2" fill="#333"/>
<circle cx="15.4" cy="35.6" r="1.2" fill="#333"/>
<circle cx="31.2" cy="38.2" r="1.2" fill="#333"/>
<circle cx="21.3" cy="30.2" r="1.2" fill="#333"/>
<circle cx="18.0" cy="13.4" r="1.2" fill="#333"/>
<circle cx="8.8" cy="21.4" r="1.2" fill="#333"/>
<circle cx="30.2" cy="10.7" r="1.2" fill="#333"/>
<circle cx="4.9" cy="2.1" r="1.2" fill="#333"/>
<circle cx="20.0" cy="38.7" r="1.2" fill="#333"/>
<circle cx="38.0" cy="19.6" r="1.2" fill="#333"/>
<circle cx="14.4" cy="7.2" r="1.2" fill="#333"/>
<circle cx="0.0" cy="15.5" r="1.2" fill="#333"/>
<circle cx="4.2" cy="38.2" r="1.2" fill="#333"/>
<circle cx="15.8" cy="36.3" r="1.2" fill="#333"/>
<circle cx="20.9" cy="23.2" r="1.2" fill="#333"/></g>
<g transform="translate(40 -40)"><circle cx="24.4" cy="33.3" r="1.2" fill="#333"/>
<circle cx="17.7" cy="37.9" r="1.2" fill="#333"/>
<circle cx="34.4" cy="22.0" r="1.2" fill="#333"/>
<circle cx="13.3" cy="28.4" r="1.2" fill="#333"/>
<circle cx="7.5" cy="30.7" r="1.2" fill="#333"/>
<circle cx="33.4" cy="34.3" r="1.2" fill="#333"/>
<circle cx="28.9" cy="16.1" r="1.2" fill="#333"/>
<circle cx="4.9" cy="27.1" r="1.2" fill="#333"/>
<circle cx="12.4" cy="26.8" r="1.2" fill="#333"/>
<circle cx="19.6" cy="34.9" r="1.2" fill="#333"/>
<circle cx="7.1" cy="25.5" r="1.2" fill="#333"/>
<circle cx="38.1" cy="0.4" r="1.2" fill="#333"/>
<circle cx="15.4" cy="35.6" r="1.2" fill="#333"/>
<circle cx="31.2" cy="38.2" r="1.2" fill="#333"/>
<circle cx="21.3" cy="30.2" r="1.2" fill="#333"/>
<circle cx="18.0" cy="13.4" r="1.2" fill="#333"/>
<circle cx="8.8" cy="21.4" r="1.2" fill="#333"/>
<circle cx="30.2" cy="10.7" r="1.2" fill="#333"/>
<circle cx="4.9" cy="2.1" r="1.2" fill="#333"/>
<circle cx="20.0" cy="38.7" r="1.2" fill="#333"/>
<circle cx="38.0" cy="19.6" r="1.2" fill="#333"/>
<circle cx="14.4" cy="7.2" r="1.2" fill="#333"/>
<circle cx="0.0" cy="15.5" r="1.2" fill="#333"/>
<circle cx="4.2" cy="38.2" r="1.2" fill="#333"/>
<circle cx="15.8" cy="36.3" r="1.2" fill="#333"/>
<circle cx="20.9" cy="23.2" r="1.2" fill="#333"/></g>
<g transform="translate(40 0)"><circle cx="24.4" cy="33.3" r="1.2" fill="#333"/>
<circle cx="17.7" cy="37.9" r="1.2" fill="#333"/>
<circle cx="34.4" cy="22.0" r="1.2" fill="#333"/>
<circle cx="13.3" cy="28.4" r="1.2" fill="#333"/>
<circle cx="7.5" cy="30.7" r="1.2" fill="#333"/>
<circle cx="33.4" cy="34.3" r="1.2" fill="#333"/>
<circle cx="28.9" cy="16.1" r="1.2" fill="#333"/>
<circle cx="4.9" cy="27.1" r="1.2" fill="#333"/>
<circle cx="12.4" cy="26.8" r="1.2" fill="#333"/>
<circle cx="19.6" cy="34.9" r="1.2" fill="#333"/>
<circle cx="7.1" cy="25.5" r="1.2" fill="#333"/>
<circle cx="38.1" cy="0.4" r="1.2" fill="#333"/>
<circle cx="15.4" cy="35.6" r="1.2" fill="#333"/>
<circle cx="31.2" cy="38.2" r="1.2" fill="#333"/>
<circle cx="21.3" cy="30.2" r="1.2" fill="#333"/>
<circle cx="18.0" cy="13.4" r="1.2" fill="#333"/>
<circle cx="8.8" cy="21.4" r="1.2" fill="#333"/>
<circle cx="30.2" cy="10.7" r="1.2" fill="#333"/>
<circle cx="4.9" cy="2.1" r="1.2" fill="#333"/>
<circle cx="20.0" cy="38.7" r="1.2" fill="#333"/>
<circle cx="38.0" cy="19.6" r="1.2" fill="#333"/>
<circle cx="14.4" cy="7.2" r="1.2" fill="#333"/>
<circle cx="0.0" cy="15.5" r="1.2" fill="#333"/>
<circle cx="4.2" cy="38.2" r="1.2" fill="#333"/>
<circle cx="15.8" cy="36.3" r="1.2" fill="#333"/>
<circle cx="20.9" cy="23.2" r="1.2" fill="#333"/></g>
<g transform="translate(40 40)"><circle cx="24.4" cy="33.3" r="1.2" fill="#333"/>
<circle cx="17.7" cy="37.9" r="1.2" fill="#333"/>
<circle cx="34.4" cy="22.0" r="1.2" fill="#333"/>
<circle cx="13.3" cy="28.4" r="1.2" fill="#333"/>
<circle cx="7.5" cy="30.7" r="1.2" fill="#333"/>
<circle cx="33.4" cy="34.3" r="1.2" fill="#333"/>
<circle cx="28.9" cy="16.1" r="1.2" fill="#333"/>
<circle cx="4.9" cy="27.1" r="1.2" fill="#333"/>
<circle cx="12.4" cy="26.8" r="1.2" fill="#333"/>
<circle cx="19.6" cy="34.9" r="1.2" fill="#333"/>
<circle cx="7.1" cy="25.5" r="1.2" fill="#333"/>
<circle cx="38.1" cy="0.4" r="1.2" fill="#333"/>
<circle cx="15.4" cy="35.6" r="1.2" fill="#333"/>
<circle cx="31.2" cy="38.2" r="1.2" fill="#333"/>
<circle cx="21.3" cy="30.2" r="1.2" fill="#333"/>
<circle cx="18.0" cy="13.4" r="1.2" fill="#333"/>
<circle cx="8.8" cy="21.4" r="1.2" fill="#333"/>
<circle cx="30.2" cy="10.7" r="1.2" fill="#333"/>
<circle cx="4.9" cy="2.1" r="1.2" fill="#333"/>
<circle cx="20.0" cy="38.7" r="1.2" fill="#333"/>
<circle cx="38.0" cy="19.6" r="1.2" fill="#333"/>
<circle cx="14.4" cy="7.2" r="1.2" fill="#333"/>
<circle cx="0.0" cy="15.5" r="1.2" fill="#333"/>
<circle cx="4.2" cy="38.2" r="1.2" fill="#333"/>
<circle cx="15.8" cy="36.3" r="1.2" fill="#333"/>
<circle cx="20.9" cy="23.2" r="1.2" fill="#333"/></g></pattern></defs>
<rect width="120" height="120" fill="url(#pat_Sm)" stroke="black" stroke-width="1"/>
</svg>
