<svg xmlns="http://www.w3.org/2000/svg" width="120" height="120" viewBox="0 0 120 120">
<defs><clipPath id="clip44"><rect width="44" height="44"/></clipPath><pattern id="pat_Sm" patternUnits="userSpaceOnUse" width="44" height="44"><rect width="44" height="44" fill="white"/><g transform="translate(-44 -44)"><circle cx="26.8" cy="36.6" r="1.14" fill="#3a3a3a"/>
<circle cx="41.7" cy="37.9" r="1.25" fill="#3a3a3a"/>
<circle cx="14.6" cy="31.3" r="0.89" fill="#3a3a3a"/>
<circle cx="33.8" cy="36.7" r="1.56" fill="#3a3a3a"/>
<circle cx="31.8" cy="17.7" r="0.82" fill="#3a3a3a"/>
<circle cx="29.8" cy="13.6" r="1.37" fill="#3a3a3a"/>
<circle cx="21.5" cy="38.4" r="0.88" fill="#3a3a3a"/>
<circle cx="28.1" cy="41.9" r="0.71" fill="#3a3a3a"/>
<circle cx="16.9" cy="39.1" r="1.48" fill="#3a3a3a"/>
<circle cx="42.0" cy="23.4" r="1.46" fill="#3a3a3a"/>
<circle cx="19.8" cy="14.8" r="0.92" fill="#3a3a3a"/>
<circle cx="23.5" cy="33.2" r="0.97" fill="#3a3a3a"/>
<circle cx="5.4" cy="2.3" r="1.20" fill="#3a3a3a"/>
<circle cx="42.5" cy="41.8" r="1.19" fill="#3a3a3a"/>
<circle cx="15.8" cy="7.9" r="0.70" fill="#3a3a3a"/>
<circle cx="17.0" cy="4.6" r="1.66" fill="#3a3a3a"/>
<circle cx="17.4" cy="39.9" r="1.22" fill="#3a3a3a"/>
<circle cx="25.5" cy="28.4" r="0.84" fill="#3a3a3a"/>
<circle cx="9.5" cy="20.4" r="1.19" fill="#3a3a3a"/>
<circle cx="20.8" cy="25.7" r="1.36" fill="#3a3a3a"/>
<circle cx="9.2" cy="8.6" r="1.26" fill="#3a3a3a"/>
<circle cx="40.0" cy="29.9" r="0.78" fill="#3a3a3a"/>
<circle cx="34.3" cy="40.5" r="1.03" fill="#3a3a3a"/>
<circle cx="37.3" cy="11.8" r="1.63" fill="#3a3a3a"/>
<circle cx="0.6" cy="30.2" r="1.19" fill="#3a3a3a"/>
<circle cx="15.9" cy="19.1" r="1.05" fill="#3a3a3a"/>
<circle cx="30.4" cy="34.5" r="1.58" fill="#3a3a3a"/>
<circle cx="29.7" cy="5.9" r="0.86" fill="#3a3a3a"/>
<circle cx="41.9" cy="38.1" r="0.71" fill="#3a3a3a"/>
<circle cx="25.6" cy="40.1" r="0.81" fill="#3a3a3a"/>
<circle cx="18.8" cy="25.0" r="1.10" fill="#3a3a3a"/>
<circle cx="32.1" cy="25.6" r="1.13" fill="#3a3a3a"/>
<circle cx="31.4" cy="23.4" r="0.97" fill="#3a3a3a"/>
<circle cx="42.1" cy="33.5" r="1.58" fill="#3a3a3a"/></g>
<g transform="translate(-44 0)"><circle cx="26.8" cy="36.6" r="1.14" fill="#3a3a3a"/>
<circle cx="41.7" cy="37.9" r="1.25" fill="#3a3a3a"/>
<circle cx="14.6" cy="31.3" r="0.89" fill="#3a3a3a"/>
<circle cx="33.8" cy="36.7" r="1.56" fill="#3a3a3a"/>
<circle cx="31.8" cy="17.7" r="0.82" fill="#3a3a3a"/>
<circle cx="29.8" cy="13.6" r="1.37" fill="#3a3a3a"/>
<circle cx="21.5" cy="38.4" r="0.88" fill="#3a3a3a"/>
<circle cx="28.1" cy="41.9" r="0.71" fill="#3a3a3a"/>
<circle cx="16.9" cy="39.1" r="1.48" fill="#3a3a3a"/>
<circle cx="42.0" cy="23.4" r="1.46" fill="#3a3a3a"/>
<circle cx="19.8" cy="14.8" r="0.92" fill="#3a3a3a"/>
<circle cx="23.5" cy="33.2" r="0.97" fill="#3a3a3a"/>
<circle cx="5.4" cy="2.3" r="1.20" fill="#3a3a3a"/>
<circle cx="42.5" cy="41.8" r="1.19" fill="#3a3a3a"/>
<circle cx="15.8" cy="7.9" r="0.70" fill="#3a3a3a"/>
<circle cx="17.0" cy="4.6" r="1.66" fill="#3a3a3a"/>
<circle cx="17.4" cy="39.9" r="1.22" fill="#3a3a3a"/>
<circle cx="25.5" cy="28.4" r="0.84" fill="#3a3a3a"/>
<circle cx="9.5" cy="20.4" r="1.19" fill="#3a3a3a"/>
<circle cx="20.8" cy="25.7" r="1.36" fill="#3a3a3a"/>
<circle cx="9.2" cy="8.6" r="1.26" fill="#3a3a3a"/>
<circle cx="40.0" cy="29.9" r="0.78" fill="#3a3a3a"/>
<circle cx="34.3" cy="40.5" r="1.03" fill="#3a3a3a"/>
<circle cx="37.3" cy="11.8" r="1.63" fill="#3a3a3a"/>
<circle cx="0.6" cy="30.2" r="1.19" fill="#3a3a3a"/>
<circle cx="15.9" cy="19.1" r="1.05" fill="#3a3a3a"/>
<circle cx="30.4" cy="34.5" r="1.58" fill="#3a3a3a"/>
<circle cx="29.7" cy="5.9" r="0.86" fill="#3a3a3a"/>
<circle cx="41.9" cy="38.1" r="0.71" fill="#3a3a3a"/>
<circle cx="25.6" cy="40.1" r="0.81" fill="#3a3a3a"/>
<circle cx="18.8" cy="25.0" r="1.10" fill="#3a3a3a"/>
<circle cx="32.1" cy="25.6" r="1.13" fill="#3a3a3a"/>
<circle cx="31.4" cy="23.4" r="0.97" fill="#3a3a3a"/>
<circle cx="42.1" cy="33.5" r="1.58" fill="#3a3a3a"/></g>
<g transform="translate(-44 44)"><circle cx="26.8" cy="36.6" r="1.14" fill="#3a3a3a"/>
<circle cx="41.7" cy="37.9" r="1.25" fill="#3a3a3a"/>
<circle cx="14.6" cy="31.3" r="0.89" fill="#3a3a3a"/>
<circle cx="33.8" cy="36.7" r="1.56" fill="#3a3a3a"/>
<circle cx="31.8" cy="17.7" r="0.82" fill="#3a3a3a"/>
<circle cx="29.8" cy="13.6" r="1.37" fill="#3a3a3a"/>
<circle cx="21.5" cy="38.4" r="0.88" fill="#3a3a3a"/>
<circle cx="28.1" cy="41.9" r="0.71" fill="#3a3a3a"/>
<circle cx="16.9" cy="39.1" r="1.48" fill="#3a3a3a"/>
<circle cx="42.0" cy="23.4" r="1.46" fill="#3a3a3a"/>
<circle cx="19.8" cy="14.8" r="0.92" fill="#3a3a3a"/>
<circle cx="23.5" cy="33.2" r="0.97" fill="#3a3a3a"/>
<circle cx="5.4" cy="2.3" r="1.20" fill="#3a3a3a"/>
<circle cx="42.5" cy="41.8" r="1.19" fill="#3a3a3a"/>
<circle cx="15.8" cy="7.9" r="0.70" fill="#3a3a3a"/>
<circle cx="17.0" cy="4.6" r="1.66" fill="#3a3a3a"/>
<circle cx="17.4" cy="39.9" r="1.22" fill="#3a3a3a"/>
<circle cx="25.5" cy="28.4" r="0.84" fill="#3a3a3a"/>
<circle cx="9.5" cy="20.4" r="1.19" fill="#3a3a3a"/>
<circle cx="20.8" cy="25.7" r="1.36" fill="#3a3a3a"/>
<circle cx="9.2" cy="8.6" r="1.26" fill="#3a3a3a"/>
<circle cx="40.0" cy="29.9" r="0.78" fill="#3a3a3a"/>
<circle cx="34.3" cy="40.5" r="1.03" fill="#3a3a3a"/>
<circle cx="37.3" cy="11.8" r="1.63" fill="#3a3a3a"/>
<circle cx="0.6" cy="30.2" r="1.19" fill="#3a3a3a"/>
<circle cx="15.9" cy="19.1" r="1.05" fill="#3a3a3a"/>
<circle cx="30.4" cy="34.5" r="1.58" fill="#3a3a3a"/>
<circle cx="29.7" cy="5.9" r="0.86" fill="#3a3a3a"/>
<circle cx="41.9" cy="38.1" r="0.71" fill="#3a3a3a"/>
<circle cx="25.6" cy="40.1" r="0.81" fill="#3a3a3a"/>
<circle cx="18.8" cy="25.0" r="1.10" fill="#3a3a3a"/>
<circle cx="32.1" cy="25.6" r="1.13" fill="#3a3a3a"/>
<circle cx="31.4" cy="23.4" r="0.97" fill="#3a3a3a"/>
<circle cx="42.1" cy="33.5" r="1.58" fill="#3a3a3a"/></g>
<g transform="translate(0 -44)"><circle cx="26.8" cy="36.6" r="1.14" fill="#3a3a3a"/>
<circle cx="41.7" cy="37.9" r="1.25" fill="#3a3a3a"/>
<circle cx="14.6" cy="31.3" r="0.89" fill="#3a3a3a"/>
<circle cx="33.8" cy="36.7" r="1.56" fill="#3a3a3a"/>
<circle cx="31.8" cy="17.7" r="0.82" fill="#3a3a3a"/>
<circle cx="29.8" cy="13.6" r="1.37" fill="#3a3a3a"/>
<circle cx="21.5" cy="38.4" r="0.88" fill="#3a3a3a"/>
<circle cx="28.1" cy="41.9" r="0.71" fill="#3a3a3a"/>
<circle cx="16.9" cy="39.1" r="1.48" fill="#3a3a3a"/>
<circle cx="42.0" cy="23.4" r="1.46" fill="#3a3a3a"/>
<circle cx="19.8" cy="14.8" r="0.92" fill="#3a3a3a"/>
<circle cx="23.5" cy="33.2" r="0.97" fill="#3a3a3a"/>
<circle cx="5.4" cy="2.3" r="1.20" fill="#3a3a3a"/>
<circle cx="42.5" cy="41.8" r="1.19" fill="#3a3a3a"/>
<circle cx="15.8" cy="7.9" r="0.70" fill="#3a3a3a"/>
<circle cx="17.0" cy="4.6" r="1.66" fill="#3a3a3a"/>
<circle cx="17.4" cy="39.9" r="1.22" fill="#3a3a3a"/>
<circle cx="25.5" cy="28.4" r="0.84" fill="#3a3a3a"/>
<circle cx="9.5" cy="20.4" r="1.19" fill="#3a3a3a"/>
<circle cx="20.8" cy="25.7" r="1.36" fill="#3a3a3a"/>
<circle cx="9.2" cy="8.6" r="1.26" fill="#3a3a3a"/>
<circle cx="40.0" cy="29.9" r="0.78" fill="#3a3a3a"/>
<circle cx="34.3" cy="40.5" r="1.03" fill="#3a3a3a"/>
<circle cx="37.3" cy="11.8" r="1.63" fill="#3a3a3a"/>
<circle cx="0.6" cy="30.2" r="1.19" fill="#3a3a3a"/>
<circle cx="15.9" cy="19.1" r="1.05" fill="#3a3a3a"/>
<circle cx="30.4" cy="34.5" r="1.58" fill="#3a3a3a"/>
<circle cx="29.7" cy="5.9" r="0.86" fill="#3a3a3a"/>
<circle cx="41.9" cy="38.1" r="0.71" fill="#3a3a3a"/>
<circle cx="25.6" cy="40.1" r="0.81" fill="#3a3a3a"/>
<circle cx="18.8" cy="25.0" r="1.10" fill="#3a3a3a"/>
<circle cx="32.1" cy="25.6" r="1.13" fill="#3a3a3a"/>
<circle cx="31.4" cy="23.4" r="0.97" fill="#3a3a3a"/>
<circle cx="42.1" cy="33.5" r="1.58" fill="#3a3a3a"/></g>
<g transform="translate(0 0)"><circle cx="26.8" cy="36.6" r="1.14" fill="#3a3a3a"/>
<circle cx="41.7" cy="37.9" r="1.25" fill="#3a3a3a"/>
<circle cx="14.6" cy="31.3" r="0.89" fill="#3a3a3a"/>
<circle cx="33.8" cy="36.7" r="1.56" fill="#3a3a3a"/>
<circle cx="31.8" cy="17.7" r="0.82" fill="#3a3a3a"/>
<circle cx="29.8" cy="13.6" r="1.37" fill="#3a3a3a"/>
<circle cx="21.5" cy="38.4" r="0.88" fill="#3a3a3a"/>
<circle cx="28.1" cy="41.9" r="0.71" fill="#3a3a3a"/>
<circle cx="16.9" cy="39.1" r="1.48" fill="#3a3a3a"/>
<circle cx="42.0" cy="23.4" r="1.46" fill="#3a3a3a"/>
<circle cx="19.8" cy="14.8" r="0.92" fill="#3a3a3a"/>
<circle cx="23.5" cy="33.2" r="0.97" fill="#3a3a3a"/>
<circle cx="5.4" cy="2.3" r="1.20" fill="#3a3a3a"/>
<circle cx="42.5" cy="41.8" r="1.19" fill="#3a3a3a"/>
<circle cx="15.8" cy="7.9" r="0.70" fill="#3a3a3a"/>
<circle cx="17.0" cy="4.6" r="1.66" fill="#3a3a3a"/>
<circle cx="17.4" cy="39.9" r="1.22" fill="#3a3a3a"/>
<circle cx="25.5" cy="28.4" r="0.84" fill="#3a3a3a"/>
<circle cx="9.5" cy="20.4" r="1.19" fill="#3a3a3a"/>
<circle cx="20.8" cy="25.7" r="1.36" fill="#3a3a3a"/>
<circle cx="9.2" cy="8.6" r="1.26" fill="#3a3a3a"/>
<circle cx="40.0" cy="29.9" r="0.78" fill="#3a3a3a"/>
<circle cx="34.3" cy="40.5" r="1.03" fill="#3a3a3a"/>
<circle cx="37.3" cy="11.8" r="1.63" fill="#3a3a3a"/>
<circle cx="0.6" cy="30.2" r="1.19" fill="#3a3a3a"/>
<circle cx="15.9" cy="19.1" r="1.05" fill="#3a3a3a"/>
<circle cx="30.4" cy="34.5" r="1.58" fill="#3a3a3a"/>
<circle cx="29.7" cy="5.9" r="0.86" fill="#3a3a3a"/>
<circle cx="41.9" cy="38.1" r="0.71" fill="#3a3a3a"/>
<circle cx="25.6" cy="40.1" r="0.81" fill="#3a3a3a"/>
<circle cx="18.8" cy="25.0" r="1.10" fill="#3a3a3a"/>
<circle cx="32.1" cy="25.6" r="1.13" fill="#3a3a3a"/>
<circle cx="31.4" cy="23.4" r="0.97" fill="#3a3a3a"/>
<circle cx="42.1" cy="33.5" r="1.58" fill="#3a3a3a"/></g>
<g transform="translate(0 44)"><circle cx="26.8" cy="36.6" r="1.14" fill="#3a3a3a"/>
<circle cx="41.7" cy="37.9" r="1.25" fill="#3a3a3a"/>
<circle cx="14.6" cy="31.3" r="0.89" fill="#3a3a3a"/>
<circle cx="33.8" cy="36.7" r="1.56" fill="#3a3a3a"/>
<circle cx="31.8" cy="17.7" r="0.82" fill="#3a3a3a"/>
<circle cx="29.8" cy="13.6" r="1.37" fill="#3a3a3a"/>
<circle cx="21.5" cy="38.4" r="0.88" fill="#3a3a3a"/>
<circle cx="28.1" cy="41.9" r="0.71" fill="#3a3a3a"/>
<circle cx="16.9" cy="39.1" r="1.48" fill="#3a3a3a"/>
<circle cx="42.0" cy="23.4" r="1.46" fill="#3a3a3a"/>
<circle cx="19.8" cy="14.8" r="0.92" fill="#3a3a3a"/>
<circle cx="23.5" cy="33.2" r="0.97" fill="#3a3a3a"/>
<circle cx="5.4" cy="2.3" r="1.20" fill="#3a3a3a"/>
<circle cx="42.5" cy="41.8" r="1.19" fill="#3a3a3a"/>
<circle cx="15.8" cy="7.9" r="0.70" fill="#3a3a3a"/>
<circle cx="17.0" cy="4.6" r="1.66" fill="#3a3a3a"/>
<circle cx="17.4" cy="39.9" r="1.22" fill="#3a3a3a"/>
<circle cx="25.5" cy="28.4" r="0.84" fill="#3a3a3a"/>
<circle cx="9.5" cy="20.4" r="1.19" fill="#3a3a3a"/>
<circle cx="20.8" cy="25.7" r="1.36" fill="#3a3a3a"/>
<circle cx="9.2" cy="8.6" r="1.26" fill="#3a3a3a"/>
<circle cx="40.0" cy="29.9" r="0.78" fill="#3a3a3a"/>
<circle cx="34.3" cy="40.5" r="1.03" fill="#3a3a3a"/>
<circle cx="37.3" cy="11.8" r="1.63" fill="#3a3a3a"/>
<circle cx="0.6" cy="30.2" r="1.19" fill="#3a3a3a"/>
<circle cx="15.9" cy="19.1" r="1.05" fill="#3a3a3a"/>
<circle cx="30.4" cy="34.5" r="1.58" fill="#3a3a3a"/>
<circle cx="29.7" cy="5.9" r="0.86" fill="#3a3a3a"/>
<circle cx="41.9" cy="38.1" r="0.71" fill="#3a3a3a"/>
<circle cx="25.6" cy="40.1" r="0.81" fill="#3a3a3a"/>
<circle cx="18.8" cy="25.0" r="1.10" fill="#3a3a3a"/>
<circle cx="32.1" cy="25.6" r="1.13" fill="#3a3a3a"/>
<circle cx="31.4" cy="23.4" r="0.97" fill="#3a3a3a"/>
<circle cx="42.1" cy="33.5" r="1.58" fill="#3a3a3a"/></g>
<g transform="translate(44 -44)"><circle cx="26.8" cy="36.6" r="1.14" fill="#3a3a3a"/>
<circle cx="41.7" cy="37.9" r="1.25" fill="#3a3a3a"/>
<circle cx="14.6" cy="31.3" r="0.89" fill="#3a3a3a"/>
<circle cx="33.8" cy="36.7" r="1.56" fill="#3a3a3a"/>
<circle cx="31.8" cy="17.7" r="0.82" fill="#3a3a3a"/>
<circle cx="29.8" cy="13.6" r="1.37" fill="#3a3a3a"/>
<circle cx="21.5" cy="38.4" r="0.88" fill="#3a3a3a"/>
<circle cx="28.1" cy="41.9" r="0.71" fill="#3a3a3a"/>
<circle cx="16.9" cy="39.1" r="1.48" fill="#3a3a3a"/>
<circle cx="42.0" cy="23.4" r="1.46" fill="#3a3a3a"/>
<circle cx="19.8" cy="14.8" r="0.92" fill="#3a3a3a"/>
<circle cx="23.5" cy="33.2" r="0.97" fill="#3a3a3a"/>
<circle cx="5.4" cy="2.3" r="1.20" fill="#3a3a3a"/>
<circle cx="42.5" cy="41.8" r="1.19" fill="#3a3a3a"/>
<circle cx="15.8" cy="7.9" r="0.70" fill="#3a3a3a"/>
<circle cx="17.0" cy="4.6" r="1.66" fill="#3a3a3a"/>
<circle cx="17.4" cy="39.9" r="1.22" fill="#3a3a3a"/>
<circle cx="25.5" cy="28.4" r="0.84" fill="#3a3a3a"/>
<circle cx="9.5" cy="20.4" r="1.19" fill="#3a3a3a"/>
<circle cx="20.8" cy="25.7" r="1.36" fill="#3a3a3a"/>
<circle cx="9.2" cy="8.6" r="1.26" fill="#3a3a3a"/>
<circle cx="40.0" cy="29.9" r="0.78" fill="#3a3a3a"/>
<circle cx="34.3" cy="40.5" r="1.03" fill="#3a3a3a"/>
<circle cx="37.3" cy="11.8" r="1.63" fill="#3a3a3a"/>
<circle cx="0.6" cy="30.2" r="1.19" fill="#3a3a3a"/>
<circle cx="15.9" cy="19.1" r="1.05" fill="#3a3a3a"/>
<circle cx="30.4" cy="34.5" r="1.58" fill="#3a3a3a"/>
<circle cx="29.7" cy="5.9" r="0.86" fill="#3a3a3a"/>
<circle cx="41.9" cy="38.1" r="0.71" fill="#3a3a3a"/>
<circle cx="25.6" cy="40.1" r="0.81" fill="#3a3a3a"/>
<circle cx="18.8" cy="25.0" r="1.10" fill="#3a3a3a"/>
<circle cx="32.1" cy="25.6" r="1.13" fill="#3a3a3a"/>
<circle cx="31.4" cy="23.4" r="0.97" fill="#3a3a3a"/>
<circle cx="42.1" cy="33.5" r="1.58" fill="#3a3a3a"/></g>
<g transform="translate(44 0)"><circle cx="26.8" cy="36.6" r="1.14" fill="#3a3a3a"/>
<circle cx="41.7" cy="37.9" r="1.25" fill="#3a3a3a"/>
<circle cx="14.6" cy="31.3" r="0.89" fill="#3a3a3a"/>
<circle cx="33.8" cy="36.7" r="1.56" fill="#3a3a3a"/>
<circle cx="31.8" cy="17.7" r="0.82" fill="#3a3a3a"/>
<circle cx="29.8" cy="13.6" r="1.37" fill="#3a3a3a"/>
<circle cx="21.5" cy="38.4" r="0.88" fill="#3a3a3a"/>
<circle cx="28.1" cy="41.9" r="0.71" fill="#3a3a3a"/>
<circle cx="16.9" cy="39.1" r="1.48" fill="#3a3a3a"/>
<circle cx="42.0" cy="23.4" r="1.46" fill="#3a3a3a"/>
<circle cx="19.8" cy="14.8" r="0.92" fill="#3a3a3a"/>
<circle cx="23.5" cy="33.2" r="0.97" fill="#3a3a3a"/>
<circle cx="5.4" cy="2.3" r="1.20" fill="#3a3a3a"/>
<circle cx="42.5" cy="41.8" r="1.19" fill="#3a3a3a"/>
<circle cx="15.8" cy="7.9" r="0.70" fill="#3a3a3a"/>
<circle cx="17.0" cy="4.6" r="1.66" fill="#3a3a3a"/>
<circle cx="17.4" cy="39.9" r="1.22" fill="#3a3a3a"/>
<circle cx="25.5" cy="28.4" r="0.84" fill="#3a3a3a"/>
<circle cx="9.5" cy="20.4" r="1.19" fill="#3a3a3a"/>
<circle cx="20.8" cy="25.7" r="1.36" fill="#3a3a3a"/>
<circle cx="9.2" cy="8.6" r="1.26" fill="#3a3a3a"/>
<circle cx="40.0" cy="29.9" r="0.78" fill="#3a3a3a"/>
<circle cx="34.3" cy="40.5" r="1.03" fill="#3a3a3a"/>
<circle cx="37.3" cy="11.8" r="1.63" fill="#3a3a3a"/>
<circle cx="0.6" cy="30.2" r="1.19" fill="#3a3a3a"/>
<circle cx="15.9" cy="19.1" r="1.05" fill="#3a3a3a"/>
<circle cx="30.4" cy="34.5" r="1.58" fill="#3a3a3a"/>
<circle cx="29.7" cy="5.9" r="0.86" fill="#3a3a3a"/>
<circle cx="41.9" cy="38.1" r="0.71" fill="#3a3a3a"/>
<circle cx="25.6" cy="40.1" r="0.81" fill="#3a3a3a"/>
<circle cx="18.8" cy="25.0" r="1.10" fill="#3a3a3a"/>
<circle cx="32.1" cy="25.6" r="1.13" fill="#3a3a3a"/>
<circle cx="31.4" cy="23.4" r="0.97" fill="#3a3a3a"/>
<circle cx="42.1" cy="33.5" r="1.58" fill="#3a3a3a"/></g>
<g transform="translate(44 44)"><circle cx="26.8" cy="36.6" r="1.14" fill="#3a3a3a"/>
<circle cx="41.7" cy="37.9" r="1.25" fill="#3a3a3a"/>
<circle cx="14.6" cy="31.3" r="0.89" fill="#3a3a3a"/>
<circle cx="33.8" cy="36.7" r="1.56" fill="#3a3a3a"/>
<circle cx="31.8" cy="17.7" r="0.82" fill="#3a3a3a"/>
<circle cx="29.8" cy="13.6" r="1.37" fill="#3a3a3a"/>
<circle cx="21.5" cy="38.4" r="0.88" fill="#3a3a3a"/>
<circle cx="28.1" cy="41.9" r="0.71" fill="#3a3a3a"/>
<circle cx="16.9" cy="39.1" r="1.48" fill="#3a3a3a"/>
<circle cx="42.0" cy="23.4" r="1.46" fill="#3a3a3a"/>
<circle cx="19.8" cy="14.8" r="0.92" fill="#3a3a3a"/>
<circle cx="23.5" cy="33.2" r="0.97" fill="#3a3a3a"/>
<circle cx="5.4" cy="2.3" r="1.20" fill="#3a3a3a"/>
<circle cx="42.5" cy="41.8" r="1.19" fill="#3a3a3a"/>
<circle cx="15.8" cy="7.9" r="0.70" fill="#3a3a3a"/>
<circle cx="17.0" cy="4.6" r="1.66" fill="#3a3a3a"/>
<circle cx="17.4" cy="39.9" r="1.22" fill="#3a3a3a"/>
<circle cx="25.5" cy="28.4" r="0.84" fill="#3a3a3a"/>
<circle cx="9.5" cy="20.4" r="1.19" fill="#3a3a3a"/>
<circle cx="20.8" cy="25.7" r="1.36" fill="#3a3a3a"/>
<circle cx="9.2" cy="8.6" r="1.26" fill="#3a3a3a"/>
<circle cx="40.0" cy="29.9" r="0.78" fill="#3a3a3a"/>
<circle cx="34.3" cy="40.5" r="1.03" fill="#3a3a3a"/>
<circle cx="37.3" cy="11.8" r="1.63" fill="#3a3a3a"/>
<circle cx="0.6" cy="30.2" r="1.19" fill="#3a3a3a"/>
<circle cx="15.9" cy="19.1" r="1.05" fill="#3a3a3a"/>
<circle cx="30.4" cy="34.5" r="1.58" fill="#3a3a3a"/>
<circle cx="29.7" cy="5.9" r="0.86" fill="#3a3a3a"/>
<circle cx="41.9" cy="38.1" r="0.71" fill="#3a3a3a"/>
<circle cx="25.6" cy="40.1" r="0.81" fill="#3a3a3a"/>
<circle cx="18.8" cy="25.0" r="1.10" fill="#3a3a3a"/>
<circle cx="32.1" cy="25.6" r="1.13" fill="#3a3a3a"/>
<circle cx="31.4" cy="23.4" r="0.97" fill="#3a3a3a"/>
<circle cx="42.1" cy="33.5" r="1.58" fill="#3a3a3a"/></g></pattern></defs>
<rect width="120" height="120" fill="url(#pat_Sm)" stroke="black" stroke-width="1"/>
</svg>
