<svg xmlns="http://www.w3.org/2000/svg" width="120" height="120" viewBox="0 0 120 120">
<defs><clipPath id="clip52"><rect width="52" height="52"/></clipPath><pattern id="pat_Sr" patternUnits="userSpaceOnUse" width="52" height="52"><rect width="52" height="52" fill="white"/><g clip-path="url(#clip52)"><path d="M -4.0,10.0 Q -1.6,4.4 3.0,8.9" fill="none" stroke="#3f3f3f" stroke-width="1.0"/><path d="M -2.7,10.0 Q -1.3,7.2 0.2,6.5" fill="none" stroke="#8a8a8a" stroke-width="0.6"/><path d="M -1.5,10.0 Q -0.1,7.2 1.5,6.5" fill="none" stroke="#8a8a8a" stroke-width="0.6"/><path d="M -0.2,10.0 Q 1.2,7.2 2.7,6.5" fill="none" stroke="#8a8a8a" stroke-width="0.6"/>
<path d="M 12.0,10.0 Q 14.4,4.4 19.0,8.9" fill="none" stroke="#3f3f3f" stroke-width="1.0"/><path d="M 13.3,10.0 Q 14.7,7.2 16.2,6.5" fill="none" stroke="#8a8a8a" stroke-width="0.6"/><path d="M 14.5,10.0 Q 15.9,7.2 17.5,6.5" fill="none" stroke="#8a8a8a" stroke-width="0.6"/><path d="M 15.8,10.0 Q 17.2,7.2 18.7,6.5" fill="none" stroke="#8a8a8a" stroke-width="0.6"/>
<path d="M 28.0,10.0 Q 30.4,4.4 35.0,8.9" fill="none" stroke="#3f3f3f" stroke-width="1.0"/><path d="M 29.3,10.0 Q 30.7,7.2 32.2,6.5" fill="none" stroke="#8a8a8a" stroke-width="0.6"/><path d="M 30.5,10.0 Q 31.9,7.2 33.5,6.5" fill="none" stroke="#8a8a8a" stroke-width="0.6"/><path d="M 31.8,10.0 Q 33.2,7.2 34.7,6.5" fill="none" stroke="#8a8a8a" stroke-width="0.6"/>
<path d="M 44.0,10.0 Q 46.5,4.4 51.0,8.9" fill="none" stroke="#3f3f3f" stroke-width="1.0"/><path d="M 45.3,10.0 Q 46.7,7.2 48.2,6.5" fill="none" stroke="#8a8a8a" stroke-width="0.6"/><path d="M 46.5,10.0 Q 47.9,7.2 49.5,6.5" fill="none" stroke="#8a8a8a" stroke-width="0.6"/><path d="M 47.8,10.0 Q 49.2,7.2 50.7,6.5" fill="none" stroke="#8a8a8a" stroke-width="0.6"/>
<path d="M 60.0,10.0 Q 62.5,4.4 67.0,8.9" fill="none" stroke="#3f3f3f" stroke-width="1.0"/><path d="M 61.3,10.0 Q 62.7,7.2 64.2,6.5" fill="none" stroke="#8a8a8a" stroke-width="0.6"/><path d="M 62.5,10.0 Q 63.9,7.2 65.5,6.5" fill="none" stroke="#8a8a8a" stroke-width="0.6"/><path d="M 63.8,10.0 Q 65.2,7.2 66.7,6.5" fill="none" stroke="#8a8a8a" stroke-width="0.6"/>
<path d="M 2.0,21.0 Q 4.4,15.4 9.0,19.9" fill="none" stroke="#3f3f3f" stroke-width="1.0"/><path d="M 3.3,21.0 Q 4.7,18.2 6.2,17.5" fill="none" stroke="#8a8a8a" stroke-width="0.6"/><path d="M 4.5,21.0 Q 5.9,18.2 7.5,17.5" fill="none" stroke="#8a8a8a" stroke-width="0.6"/><path d="M 5.8,21.0 Q 7.2,18.2 8.7,17.5" fill="none" stroke="#8a8a8a" stroke-width="0.6"/>
<path d="M 18.0,21.0 Q 20.4,15.4 25.0,19.9" fill="none" stroke="#3f3f3f" stroke-width="1.0"/><path d="M 19.3,21.0 Q 20.7,18.2 22.2,17.5" fill="none" stroke="#8a8a8a" stroke-width="0.6"/><path d="M 20.5,21.0 Q 21.9,18.2 23.5,17.5" fill="none" stroke="#8a8a8a" stroke-width="0.6"/><path d="M 21.8,21.0 Q 23.2,18.2 24.7,17.5" fill="none" stroke="#8a8a8a" stroke-width="0.6"/>
<path d="M 34.0,21.0 Q 36.5,15.4 41.0,19.9" fill="none" stroke="#3f3f3f" stroke-width="1.0"/><path d="M 35.3,21.0 Q 36.7,18.2 38.2,17.5" fill="none" stroke="#8a8a8a" stroke-width="0.6"/><path d="M 36.5,21.0 Q 37.9,18.2 39.5,17.5" fill="none" stroke="#8a8a8a" stroke-width="0.6"/><path d="M 37.8,21.0 Q 39.2,18.2 40.7,17.5" fill="none" stroke="#8a8a8a" stroke-width="0.6"/>
<path d="M 50.0,21.0 Q 52.5,15.4 57.0,19.9" fill="none" stroke="#3f3f3f" stroke-width="1.0"/><path d="M 51.3,21.0 Q 52.7,18.2 54.2,17.5" fill="none" stroke="#8a8a8a" stroke-width="0.6"/><path d="M 52.5,21.0 Q 53.9,18.2 55.5,17.5" fill="none" stroke="#8a8a8a" stroke-width="0.6"/><path d="M 53.8,21.0 Q 55.2,18.2 56.7,17.5" fill="none" stroke="#8a8a8a" stroke-width="0.6"/>
<path d="M 66.0,21.0 Q 68.5,15.4 73.0,19.9" fill="none" stroke="#3f3f3f" stroke-width="1.0"/><path d="M 67.3,21.0 Q 68.7,18.2 70.2,17.5" fill="none" stroke="#8a8a8a" stroke-width="0.6"/><path d="M 68.5,21.0 Q 69.9,18.2 71.5,17.5" fill="none" stroke="#8a8a8a" stroke-width="0.6"/><path d="M 69.8,21.0 Q 71.2,18.2 72.7,17.5" fill="none" stroke="#8a8a8a" stroke-width="0.6"/>
<path d="M 8.0,32.0 Q 10.4,26.4 15.0,30.9" fill="none" stroke="#3f3f3f" stroke-width="1.0"/><path d="M 9.3,32.0 Q 10.7,29.2 12.2,28.5" fill="none" stroke="#8a8a8a" stroke-width="0.6"/><path d="M 10.5,32.0 Q 11.9,29.2 13.5,28.5" fill="none" stroke="#8a8a8a" stroke-width="0.6"/><path d="M 11.8,32.0 Q 13.2,29.2 14.7,28.5" fill="none" stroke="#8a8a8a" stroke-width="0.6"/>
<path d="M 24.0,32.0 Q 26.4,26.4 31.0,30.9" fill="none" stroke="#3f3f3f" stroke-width="1.0"/><path d="M 25.3,32.0 Q 26.7,29.2 28.2,28.5" fill="none" stroke="#8a8a8a" stroke-width="0.6"/><path d="M 26.5,32.0 Q 27.9,29.2 29.5,28.5" fill="none" stroke="#8a8a8a" stroke-width="0.6"/><path d="M 27.8,32.0 Q 29.2,29.2 30.7,28.5" fill="none" stroke="#8a8a8a" stroke-width="0.6"/>
<path d="M 40.0,32.0 Q 42.5,26.4 47.0,30.9" fill="none" stroke="#3f3f3f" stroke-width="1.0"/><path d="M 41.3,32.0 Q 42.7,29.2 44.2,28.5" fill="none" stroke="#8a8a8a" stroke-width="0.6"/><path d="M 42.5,32.0 Q 43.9,29.2 45.5,28.5" fill="none" stroke="#8a8a8a" stroke-width="0.6"/><path d="M 43.8,32.0 Q 45.2,29.2 46.7,28.5" fill="none" stroke="#8a8a8a" stroke-width="0.6"/>
<path d="M 56.0,32.0 Q 58.5,26.4 63.0,30.9" fill="none" stroke="#3f3f3f" stroke-width="1.0"/><path d="M 57.3,32.0 Q 58.7,29.2 60.2,28.5" fill="none" stroke="#8a8a8a" stroke-width="0.6"/><path d="M 58.5,32.0 Q 59.9,29.2 61.5,28.5" fill="none" stroke="#8a8a8a" stroke-width="0.6"/><path d="M 59.8,32.0 Q 61.2,29.2 62.7,28.5" fill="none" stroke="#8a8a8a" stroke-width="0.6"/>
<path d="M -2.0,43.0 Q 0.4,37.4 5.0,42.0" fill="none" stroke="#3f3f3f" stroke-width="1.0"/><path d="M -0.7,43.0 Q 0.7,40.2 2.2,39.5" fill="none" stroke="#8a8a8a" stroke-width="0.6"/><path d="M 0.5,43.0 Q 1.9,40.2 3.5,39.5" fill="none" stroke="#8a8a8a" stroke-width="0.6"/><path d="M 1.8,43.0 Q 3.2,40.2 4.7,39.5" fill="none" stroke="#8a8a8a" stroke-width="0.6"/>
<path d="M 14.0,43.0 Q 16.4,37.4 21.0,42.0" fill="none" stroke="#3f3f3f" stroke-width="1.0"/><path d="M 15.3,43.0 Q 16.7,40.2 18.2,39.5" fill="none" stroke="#8a8a8a" stroke-width="0.6"/><path d="M 16.5,43.0 Q 17.9,40.2 19.5,39.5" fill="none" stroke="#8a8a8a" stroke-width="0.6"/><path d="M 17.8,43.0 Q 19.2,40.2 20.7,39.5" fill="none" stroke="#8a8a8a" stroke-width="0.6"/>
<path d="M 30.0,43.0 Q 32.5,37.4 37.0,42.0" fill="none" stroke="#3f3f3f" stroke-width="1.0"/><path d="M 31.3,43.0 Q 32.7,40.2 34.2,39.5" fill="none" stroke="#8a8a8a" stroke-width="0.6"/><path d="M 32.5,43.0 Q 33.9,40.2 35.5,39.5" fill="none" stroke="#8a8a8a" stroke-width="0.6"/><path d="M 33.8,43.0 Q 35.2,40.2 36.7,39.5" fill="none" stroke="#8a8a8a" stroke-width="0.6"/>
<path d="M 46.0,43.0 Q 48.5,37.4 53.0,42.0" fill="none" stroke="#3f3f3f" stroke-width="1.0"/><path d="M 47.3,43.0 Q 48.7,40.2 50.2,39.5" fill="none" stroke="#8a8a8a" stroke-width="0.6"/><path d="M 48.5,43.0 Q 49.9,40.2 51.5,39.5" fill="none" stroke="#8a8a8a" stroke-width="0.6"/><path d="M 49.8,43.0 Q 51.2,40.2 52.7,39.5" fill="none" stroke="#8a8a8a" stroke-width="0.6"/>
<path d="M 62.0,43.0 Q 64.5,37.4 69.0,42.0" fill="none" stroke="#3f3f3f" stroke-width="1.0"/><path d="M 63.3,43.0 Q 64.7,40.2 66.2,39.5" fill="none" stroke="#8a8a8a" stroke-width="0.6"/><path d="M 64.5,43.0 Q 65.9,40.2 67.5,39.5" fill="none" stroke="#8a8a8a" stroke-width="0.6"/><path d="M 65.8,43.0 Q 67.2,40.2 68.7,39.5" fill="none" stroke="#8a8a8a" stroke-width="0.6"/>
<path d="M 4.0,54.0 Q 6.4,48.4 11.0,53.0" fill="none" stroke="#3f3f3f" stroke-width="1.0"/><path d="M 5.3,54.0 Q 6.7,51.2 8.2,50.5" fill="none" stroke="#8a8a8a" stroke-width="0.6"/><path d="M 6.5,54.0 Q 7.9,51.2 9.5,50.5" fill="none" stroke="#8a8a8a" stroke-width="0.6"/><path d="M 7.8,54.0 Q 9.2,51.2 10.7,50.5" fill="none" stroke="#8a8a8a" stroke-width="0.6"/>
<path d="M 20.0,54.0 Q 22.4,48.4 27.0,53.0" fill="none" stroke="#3f3f3f" stroke-width="1.0"/><path d="M 21.3,54.0 Q 22.7,51.2 24.2,50.5" fill="none" stroke="#8a8a8a" stroke-width="0.6"/><path d="M 22.5,54.0 Q 23.9,51.2 25.5,50.5" fill="none" stroke="#8a8a8a" stroke-width="0.6"/><path d="M 23.8,54.0 Q 25.2,51.2 26.7,50.5" fill="none" stroke="#8a8a8a" stroke-width="0.6"/>
<path d="M 36.0,54.0 Q 38.5,48.4 43.0,53.0" fill="none" stroke="#3f3f3f" stroke-width="1.0"/><path d="M 37.3,54.0 Q 38.7,51.2 40.2,50.5" fill="none" stroke="#8a8a8a" stroke-width="0.6"/><path d="M 38.5,54.0 Q 39.9,51.2 41.5,50.5" fill="none" stroke="#8a8a8a" stroke-width="0.6"/><path d="M 39.8,54.0 Q 41.2,51.2 42.7,50.5" fill="none" stroke="#8a8a8a" stroke-width="0.6"/>
<path d="M 52.0,54.0 Q 54.5,48.4 59.0,53.0" fill="none" stroke="#3f3f3f" stroke-width="1.0"/><path d="M 53.3,54.0 Q 54.7,51.2 56.2,50.5" fill="none" stroke="#8a8a8a" stroke-width="0.6"/><path d="M 54.5,54.0 Q 55.9,51.2 57.5,50.5" fill="none" stroke="#8a8a8a" stroke-width="0.6"/><path d="M 55.8,54.0 Q 57.2,51.2 58.7,50.5" fill="none" stroke="#8a8a8a" stroke-width="0.6"/></g></pattern></defs>
<rect width="120" height="120" fill="url(#pat_Sr)" stroke="black" stroke-width="1"/>
</svg>
