<svg xmlns="http://www.w3.org/2000/svg" width="120" height="120" viewBox="0 0 120 120">
<defs><clipPath id="clip54"><rect width="54" height="54"/></clipPath><pattern id="pat_Sr" patternUnits="userSpaceOnUse" width="54" height="54"><rect width="54" height="54" fill="white"/><g clip-path="url(#clip54)"><g transform="translate(-54 -54)"><circle cx="51.1" cy="0.8" r="0.72" fill="#9a9a9a"/>
<circle cx="30.7" cy="5.5" r="0.51" fill="#9a9a9a"/>
<circle cx="6.0" cy="32.2" r="0.58" fill="#9a9a9a"/>
<circle cx="25.2" cy="46.5" r="0.85" fill="#9a9a9a"/>
<circle cx="32.1" cy="38.4" r="0.73" fill="#9a9a9a"/>
<circle cx="4.8" cy="28.9" r="0.82" fill="#9a9a9a"/>
<circle cx="34.1" cy="28.1" r="0.76" fill="#9a9a9a"/>
<circle cx="19.1" cy="49.2" r="0.63" fill="#9a9a9a"/>
<circle cx="22.9" cy="44.1" r="0.64" fill="#9a9a9a"/>
<circle cx="32.4" cy="22.1" r="0.59" fill="#9a9a9a"/>
<circle cx="2.1" cy="51.2" r="0.52" fill="#9a9a9a"/>
<circle cx="50.0" cy="47.7" r="0.60" fill="#9a9a9a"/>
<circle cx="2.8" cy="12.7" r="0.60" fill="#9a9a9a"/>
<circle cx="0.6" cy="33.3" r="0.67" fill="#9a9a9a"/>
<circle cx="17.2" cy="31.3" r="0.72" fill="#9a9a9a"/>
<circle cx="44.6" cy="50.9" r="0.57" fill="#9a9a9a"/>
<circle cx="15.6" cy="31.7" r="0.89" fill="#9a9a9a"/>
<circle cx="47.0" cy="33.1" r="0.54" fill="#9a9a9a"/>
<circle cx="25.0" cy="35.4" r="0.59" fill="#9a9a9a"/>
<circle cx="11.1" cy="30.1" r="0.72" fill="#9a9a9a"/>
<circle cx="34.2" cy="36.0" r="0.72" fill="#9a9a9a"/>
<circle cx="4.6" cy="43.0" r="0.52" fill="#9a9a9a"/>
<circle cx="37.2" cy="45.0" r="0.66" fill="#9a9a9a"/>
<circle cx="14.3" cy="41.7" r="0.65" fill="#9a9a9a"/>
<circle cx="5.7" cy="35.9" r="0.83" fill="#9a9a9a"/>
<circle cx="26.3" cy="32.6" r="0.79" fill="#9a9a9a"/>
<circle cx="25.4" cy="49.5" r="0.85" fill="#9a9a9a"/>
<circle cx="49.7" cy="48.3" r="0.63" fill="#9a9a9a"/>
<circle cx="38.4" cy="17.6" r="0.76" fill="#9a9a9a"/>
<circle cx="42.8" cy="0.7" r="0.55" fill="#9a9a9a"/>
<circle cx="50.6" cy="51.3" r="0.85" fill="#9a9a9a"/>
<circle cx="5.9" cy="53.4" r="0.79" fill="#9a9a9a"/>
<circle cx="29.8" cy="13.6" r="0.59" fill="#9a9a9a"/>
<circle cx="20.5" cy="34.9" r="0.50" fill="#9a9a9a"/>
<circle cx="34.9" cy="4.1" r="0.56" fill="#9a9a9a"/>
<circle cx="23.9" cy="11.4" r="0.84" fill="#9a9a9a"/>
<circle cx="35.4" cy="50.6" r="0.84" fill="#9a9a9a"/>
<circle cx="22.3" cy="34.3" r="0.75" fill="#9a9a9a"/>
<circle cx="36.2" cy="46.5" r="0.90" fill="#9a9a9a"/>
<circle cx="16.9" cy="50.7" r="0.85" fill="#9a9a9a"/>
<circle cx="46.8" cy="48.8" r="0.69" fill="#9a9a9a"/>
<circle cx="1.4" cy="21.6" r="0.78" fill="#9a9a9a"/>
<circle cx="6.2" cy="9.8" r="0.70" fill="#9a9a9a"/>
<circle cx="32.5" cy="39.6" r="0.80" fill="#9a9a9a"/>
<circle cx="22.8" cy="27.0" r="0.70" fill="#9a9a9a"/>
<circle cx="41.0" cy="2.9" r="0.59" fill="#9a9a9a"/>
<circle cx="30.6" cy="26.6" r="0.76" fill="#9a9a9a"/>
<circle cx="11.0" cy="17.5" r="0.64" fill="#9a9a9a"/>
<circle cx="25.1" cy="27.7" r="0.51" fill="#9a9a9a"/>
<circle cx="47.2" cy="39.5" r="0.86" fill="#9a9a9a"/>
<circle cx="37.8" cy="36.9" r="0.76" fill="#9a9a9a"/>
<circle cx="31.7" cy="50.3" r="0.78" fill="#9a9a9a"/>
<circle cx="27.1" cy="9.7" r="0.63" fill="#9a9a9a"/>
<circle cx="35.8" cy="43.6" r="0.84" fill="#9a9a9a"/>
<circle cx="35.2" cy="12.5" r="0.84" fill="#9a9a9a"/></g>
<g transform="translate(-54 0)"><circle cx="51.1" cy="0.8" r="0.72" fill="#9a9a9a"/>
<circle cx="30.7" cy="5.5" r="0.51" fill="#9a9a9a"/>
<circle cx="6.0" cy="32.2" r="0.58" fill="#9a9a9a"/>
<circle cx="25.2" cy="46.5" r="0.85" fill="#9a9a9a"/>
<circle cx="32.1" cy="38.4" r="0.73" fill="#9a9a9a"/>
<circle cx="4.8" cy="28.9" r="0.82" fill="#9a9a9a"/>
<circle cx="34.1" cy="28.1" r="0.76" fill="#9a9a9a"/>
<circle cx="19.1" cy="49.2" r="0.63" fill="#9a9a9a"/>
<circle cx="22.9" cy="44.1" r="0.64" fill="#9a9a9a"/>
<circle cx="32.4" cy="22.1" r="0.59" fill="#9a9a9a"/>
<circle cx="2.1" cy="51.2" r="0.52" fill="#9a9a9a"/>
<circle cx="50.0" cy="47.7" r="0.60" fill="#9a9a9a"/>
<circle cx="2.8" cy="12.7" r="0.60" fill="#9a9a9a"/>
<circle cx="0.6" cy="33.3" r="0.67" fill="#9a9a9a"/>
<circle cx="17.2" cy="31.3" r="0.72" fill="#9a9a9a"/>
<circle cx="44.6" cy="50.9" r="0.57" fill="#9a9a9a"/>
<circle cx="15.6" cy="31.7" r="0.89" fill="#9a9a9a"/>
<circle cx="47.0" cy="33.1" r="0.54" fill="#9a9a9a"/>
<circle cx="25.0" cy="35.4" r="0.59" fill="#9a9a9a"/>
<circle cx="11.1" cy="30.1" r="0.72" fill="#9a9a9a"/>
<circle cx="34.2" cy="36.0" r="0.72" fill="#9a9a9a"/>
<circle cx="4.6" cy="43.0" r="0.52" fill="#9a9a9a"/>
<circle cx="37.2" cy="45.0" r="0.66" fill="#9a9a9a"/>
<circle cx="14.3" cy="41.7" r="0.65" fill="#9a9a9a"/>
<circle cx="5.7" cy="35.9" r="0.83" fill="#9a9a9a"/>
<circle cx="26.3" cy="32.6" r="0.79" fill="#9a9a9a"/>
<circle cx="25.4" cy="49.5" r="0.85" fill="#9a9a9a"/>
<circle cx="49.7" cy="48.3" r="0.63" fill="#9a9a9a"/>
<circle cx="38.4" cy="17.6" r="0.76" fill="#9a9a9a"/>
<circle cx="42.8" cy="0.7" r="0.55" fill="#9a9a9a"/>
<circle cx="50.6" cy="51.3" r="0.85" fill="#9a9a9a"/>
<circle cx="5.9" cy="53.4" r="0.79" fill="#9a9a9a"/>
<circle cx="29.8" cy="13.6" r="0.59" fill="#9a9a9a"/>
<circle cx="20.5" cy="34.9" r="0.50" fill="#9a9a9a"/>
<circle cx="34.9" cy="4.1" r="0.56" fill="#9a9a9a"/>
<circle cx="23.9" cy="11.4" r="0.84" fill="#9a9a9a"/>
<circle cx="35.4" cy="50.6" r="0.84" fill="#9a9a9a"/>
<circle cx="22.3" cy="34.3" r="0.75" fill="#9a9a9a"/>
<circle cx="36.2" cy="46.5" r="0.90" fill="#9a9a9a"/>
<circle cx="16.9" cy="50.7" r="0.85" fill="#9a9a9a"/>
<circle cx="46.8" cy="48.8" r="0.69" fill="#9a9a9a"/>
<circle cx="1.4" cy="21.6" r="0.78" fill="#9a9a9a"/>
<circle cx="6.2" cy="9.8" r="0.70" fill="#9a9a9a"/>
<circle cx="32.5" cy="39.6" r="0.80" fill="#9a9a9a"/>
<circle cx="22.8" cy="27.0" r="0.70" fill="#9a9a9a"/>
<circle cx="41.0" cy="2.9" r="0.59" fill="#9a9a9a"/>
<circle cx="30.6" cy="26.6" r="0.76" fill="#9a9a9a"/>
<circle cx="11.0" cy="17.5" r="0.64" fill="#9a9a9a"/>
<circle cx="25.1" cy="27.7" r="0.51" fill="#9a9a9a"/>
<circle cx="47.2" cy="39.5" r="0.86" fill="#9a9a9a"/>
<circle cx="37.8" cy="36.9" r="0.76" fill="#9a9a9a"/>
<circle cx="31.7" cy="50.3" r="0.78" fill="#9a9a9a"/>
<circle cx="27.1" cy="9.7" r="0.63" fill="#9a9a9a"/>
<circle cx="35.8" cy="43.6" r="0.84" fill="#9a9a9a"/>
<circle cx="35.2" cy="12.5" r="0.84" fill="#9a9a9a"/></g>
<g transform="translate(-54 54)"><circle cx="51.1" cy="0.8" r="0.72" fill="#9a9a9a"/>
<circle cx="30.7" cy="5.5" r="0.51" fill="#9a9a9a"/>
<circle cx="6.0" cy="32.2" r="0.58" fill="#9a9a9a"/>
<circle cx="25.2" cy="46.5" r="0.85" fill="#9a9a9a"/>
<circle cx="32.1" cy="38.4" r="0.73" fill="#9a9a9a"/>
<circle cx="4.8" cy="28.9" r="0.82" fill="#9a9a9a"/>
<circle cx="34.1" cy="28.1" r="0.76" fill="#9a9a9a"/>
<circle cx="19.1" cy="49.2" r="0.63" fill="#9a9a9a"/>
<circle cx="22.9" cy="44.1" r="0.64" fill="#9a9a9a"/>
<circle cx="32.4" cy="22.1" r="0.59" fill="#9a9a9a"/>
<circle cx="2.1" cy="51.2" r="0.52" fill="#9a9a9a"/>
<circle cx="50.0" cy="47.7" r="0.60" fill="#9a9a9a"/>
<circle cx="2.8" cy="12.7" r="0.60" fill="#9a9a9a"/>
<circle cx="0.6" cy="33.3" r="0.67" fill="#9a9a9a"/>
<circle cx="17.2" cy="31.3" r="0.72" fill="#9a9a9a"/>
<circle cx="44.6" cy="50.9" r="0.57" fill="#9a9a9a"/>
<circle cx="15.6" cy="31.7" r="0.89" fill="#9a9a9a"/>
<circle cx="47.0" cy="33.1" r="0.54" fill="#9a9a9a"/>
<circle cx="25.0" cy="35.4" r="0.59" fill="#9a9a9a"/>
<circle cx="11.1" cy="30.1" r="0.72" fill="#9a9a9a"/>
<circle cx="34.2" cy="36.0" r="0.72" fill="#9a9a9a"/>
<circle cx="4.6" cy="43.0" r="0.52" fill="#9a9a9a"/>
<circle cx="37.2" cy="45.0" r="0.66" fill="#9a9a9a"/>
<circle cx="14.3" cy="41.7" r="0.65" fill="#9a9a9a"/>
<circle cx="5.7" cy="35.9" r="0.83" fill="#9a9a9a"/>
<circle cx="26.3" cy="32.6" r="0.79" fill="#9a9a9a"/>
<circle cx="25.4" cy="49.5" r="0.85" fill="#9a9a9a"/>
<circle cx="49.7" cy="48.3" r="0.63" fill="#9a9a9a"/>
<circle cx="38.4" cy="17.6" r="0.76" fill="#9a9a9a"/>
<circle cx="42.8" cy="0.7" r="0.55" fill="#9a9a9a"/>
<circle cx="50.6" cy="51.3" r="0.85" fill="#9a9a9a"/>
<circle cx="5.9" cy="53.4" r="0.79" fill="#9a9a9a"/>
<circle cx="29.8" cy="13.6" r="0.59" fill="#9a9a9a"/>
<circle cx="20.5" cy="34.9" r="0.50" fill="#9a9a9a"/>
<circle cx="34.9" cy="4.1" r="0.56" fill="#9a9a9a"/>
<circle cx="23.9" cy="11.4" r="0.84" fill="#9a9a9a"/>
<circle cx="35.4" cy="50.6" r="0.84" fill="#9a9a9a"/>
<circle cx="22.3" cy="34.3" r="0.75" fill="#9a9a9a"/>
<circle cx="36.2" cy="46.5" r="0.90" fill="#9a9a9a"/>
<circle cx="16.9" cy="50.7" r="0.85" fill="#9a9a9a"/>
<circle cx="46.8" cy="48.8" r="0.69" fill="#9a9a9a"/>
<circle cx="1.4" cy="21.6" r="0.78" fill="#9a9a9a"/>
<circle cx="6.2" cy="9.8" r="0.70" fill="#9a9a9a"/>
<circle cx="32.5" cy="39.6" r="0.80" fill="#9a9a9a"/>
<circle cx="22.8" cy="27.0" r="0.70" fill="#9a9a9a"/>
<circle cx="41.0" cy="2.9" r="0.59" fill="#9a9a9a"/>
<circle cx="30.6" cy="26.6" r="0.76" fill="#9a9a9a"/>
<circle cx="11.0" cy="17.5" r="0.64" fill="#9a9a9a"/>
<circle cx="25.1" cy="27.7" r="0.51" fill="#9a9a9a"/>
<circle cx="47.2" cy="39.5" r="0.86" fill="#9a9a9a"/>
<circle cx="37.8" cy="36.9" r="0.76" fill="#9a9a9a"/>
<circle cx="31.7" cy="50.3" r="0.78" fill="#9a9a9a"/>
<circle cx="27.1" cy="9.7" r="0.63" fill="#9a9a9a"/>
<circle cx="35.8" cy="43.6" r="0.84" fill="#9a9a9a"/>
<circle cx="35.2" cy="12.5" r="0.84" fill="#9a9a9a"/></g>
<g transform="translate(0 -54)"><circle cx="51.1" cy="0.8" r="0.72" fill="#9a9a9a"/>
<circle cx="30.7" cy="5.5" r="0.51" fill="#9a9a9a"/>
<circle cx="6.0" cy="32.2" r="0.58" fill="#9a9a9a"/>
<circle cx="25.2" cy="46.5" r="0.85" fill="#9a9a9a"/>
<circle cx="32.1" cy="38.4" r="0.73" fill="#9a9a9a"/>
<circle cx="4.8" cy="28.9" r="0.82" fill="#9a9a9a"/>
<circle cx="34.1" cy="28.1" r="0.76" fill="#9a9a9a"/>
<circle cx="19.1" cy="49.2" r="0.63" fill="#9a9a9a"/>
<circle cx="22.9" cy="44.1" r="0.64" fill="#9a9a9a"/>
<circle cx="32.4" cy="22.1" r="0.59" fill="#9a9a9a"/>
<circle cx="2.1" cy="51.2" r="0.52" fill="#9a9a9a"/>
<circle cx="50.0" cy="47.7" r="0.60" fill="#9a9a9a"/>
<circle cx="2.8" cy="12.7" r="0.60" fill="#9a9a9a"/>
<circle cx="0.6" cy="33.3" r="0.67" fill="#9a9a9a"/>
<circle cx="17.2" cy="31.3" r="0.72" fill="#9a9a9a"/>
<circle cx="44.6" cy="50.9" r="0.57" fill="#9a9a9a"/>
<circle cx="15.6" cy="31.7" r="0.89" fill="#9a9a9a"/>
<circle cx="47.0" cy="33.1" r="0.54" fill="#9a9a9a"/>
<circle cx="25.0" cy="35.4" r="0.59" fill="#9a9a9a"/>
<circle cx="11.1" cy="30.1" r="0.72" fill="#9a9a9a"/>
<circle cx="34.2" cy="36.0" r="0.72" fill="#9a9a9a"/>
<circle cx="4.6" cy="43.0" r="0.52" fill="#9a9a9a"/>
<circle cx="37.2" cy="45.0" r="0.66" fill="#9a9a9a"/>
<circle cx="14.3" cy="41.7" r="0.65" fill="#9a9a9a"/>
<circle cx="5.7" cy="35.9" r="0.83" fill="#9a9a9a"/>
<circle cx="26.3" cy="32.6" r="0.79" fill="#9a9a9a"/>
<circle cx="25.4" cy="49.5" r="0.85" fill="#9a9a9a"/>
<circle cx="49.7" cy="48.3" r="0.63" fill="#9a9a9a"/>
<circle cx="38.4" cy="17.6" r="0.76" fill="#9a9a9a"/>
<circle cx="42.8" cy="0.7" r="0.55" fill="#9a9a9a"/>
<circle cx="50.6" cy="51.3" r="0.85" fill="#9a9a9a"/>
<circle cx="5.9" cy="53.4" r="0.79" fill="#9a9a9a"/>
<circle cx="29.8" cy="13.6" r="0.59" fill="#9a9a9a"/>
<circle cx="20.5" cy="34.9" r="0.50" fill="#9a9a9a"/>
<circle cx="34.9" cy="4.1" r="0.56" fill="#9a9a9a"/>
<circle cx="23.9" cy="11.4" r="0.84" fill="#9a9a9a"/>
<circle cx="35.4" cy="50.6" r="0.84" fill="#9a9a9a"/>
<circle cx="22.3" cy="34.3" r="0.75" fill="#9a9a9a"/>
<circle cx="36.2" cy="46.5" r="0.90" fill="#9a9a9a"/>
<circle cx="16.9" cy="50.7" r="0.85" fill="#9a9a9a"/>
<circle cx="46.8" cy="48.8" r="0.69" fill="#9a9a9a"/>
<circle cx="1.4" cy="21.6" r="0.78" fill="#9a9a9a"/>
<circle cx="6.2" cy="9.8" r="0.70" fill="#9a9a9a"/>
<circle cx="32.5" cy="39.6" r="0.80" fill="#9a9a9a"/>
<circle cx="22.8" cy="27.0" r="0.70" fill="#9a9a9a"/>
<circle cx="41.0" cy="2.9" r="0.59" fill="#9a9a9a"/>
<circle cx="30.6" cy="26.6" r="0.76" fill="#9a9a9a"/>
<circle cx="11.0" cy="17.5" r="0.64" fill="#9a9a9a"/>
<circle cx="25.1" cy="27.7" r="0.51" fill="#9a9a9a"/>
<circle cx="47.2" cy="39.5" r="0.86" fill="#9a9a9a"/>
<circle cx="37.8" cy="36.9" r="0.76" fill="#9a9a9a"/>
<circle cx="31.7" cy="50.3" r="0.78" fill="#9a9a9a"/>
<circle cx="27.1" cy="9.7" r="0.63" fill="#9a9a9a"/>
<circle cx="35.8" cy="43.6" r="0.84" fill="#9a9a9a"/>
<circle cx="35.2" cy="12.5" r="0.84" fill="#9a9a9a"/></g>
<g transform="translate(0 0)"><circle cx="51.1" cy="0.8" r="0.72" fill="#9a9a9a"/>
<circle cx="30.7" cy="5.5" r="0.51" fill="#9a9a9a"/>
<circle cx="6.0" cy="32.2" r="0.58" fill="#9a9a9a"/>
<circle cx="25.2" cy="46.5" r="0.85" fill="#9a9a9a"/>
<circle cx="32.1" cy="38.4" r="0.73" fill="#9a9a9a"/>
<circle cx="4.8" cy="28.9" r="0.82" fill="#9a9a9a"/>
<circle cx="34.1" cy="28.1" r="0.76" fill="#9a9a9a"/>
<circle cx="19.1" cy="49.2" r="0.63" fill="#9a9a9a"/>
<circle cx="22.9" cy="44.1" r="0.64" fill="#9a9a9a"/>
<circle cx="32.4" cy="22.1" r="0.59" fill="#9a9a9a"/>
<circle cx="2.1" cy="51.2" r="0.52" fill="#9a9a9a"/>
<circle cx="50.0" cy="47.7" r="0.60" fill="#9a9a9a"/>
<circle cx="2.8" cy="12.7" r="0.60" fill="#9a9a9a"/>
<circle cx="0.6" cy="33.3" r="0.67" fill="#9a9a9a"/>
<circle cx="17.2" cy="31.3" r="0.72" fill="#9a9a9a"/>
<circle cx="44.6" cy="50.9" r="0.57" fill="#9a9a9a"/>
<circle cx="15.6" cy="31.7" r="0.89" fill="#9a9a9a"/>
<circle cx="47.0" cy="33.1" r="0.54" fill="#9a9a9a"/>
<circle cx="25.0" cy="35.4" r="0.59" fill="#9a9a9a"/>
<circle cx="11.1" cy="30.1" r="0.72" fill="#9a9a9a"/>
<circle cx="34.2" cy="36.0" r="0.72" fill="#9a9a9a"/>
<circle cx="4.6" cy="43.0" r="0.52" fill="#9a9a9a"/>
<circle cx="37.2" cy="45.0" r="0.66" fill="#9a9a9a"/>
<circle cx="14.3" cy="41.7" r="0.65" fill="#9a9a9a"/>
<circle cx="5.7" cy="35.9" r="0.83" fill="#9a9a9a"/>
<circle cx="26.3" cy="32.6" r="0.79" fill="#9a9a9a"/>
<circle cx="25.4" cy="49.5" r="0.85" fill="#9a9a9a"/>
<circle cx="49.7" cy="48.3" r="0.63" fill="#9a9a9a"/>
<circle cx="38.4" cy="17.6" r="0.76" fill="#9a9a9a"/>
<circle cx="42.8" cy="0.7" r="0.55" fill="#9a9a9a"/>
<circle cx="50.6" cy="51.3" r="0.85" fill="#9a9a9a"/>
<circle cx="5.9" cy="53.4" r="0.79" fill="#9a9a9a"/>
<circle cx="29.8" cy="13.6" r="0.59" fill="#9a9a9a"/>
<circle cx="20.5" cy="34.9" r="0.50" fill="#9a9a9a"/>
<circle cx="34.9" cy="4.1" r="0.56" fill="#9a9a9a"/>
<circle cx="23.9" cy="11.4" r="0.84" fill="#9a9a9a"/>
<circle cx="35.4" cy="50.6" r="0.84" fill="#9a9a9a"/>
<circle cx="22.3" cy="34.3" r="0.75" fill="#9a9a9a"/>
<circle cx="36.2" cy="46.5" r="0.90" fill="#9a9a9a"/>
<circle cx="16.9" cy="50.7" r="0.85" fill="#9a9a9a"/>
<circle cx="46.8" cy="48.8" r="0.69" fill="#9a9a9a"/>
<circle cx="1.4" cy="21.6" r="0.78" fill="#9a9a9a"/>
<circle cx="6.2" cy="9.8" r="0.70" fill="#9a9a9a"/>
<circle cx="32.5" cy="39.6" r="0.80" fill="#9a9a9a"/>
<circle cx="22.8" cy="27.0" r="0.70" fill="#9a9a9a"/>
<circle cx="41.0" cy="2.9" r="0.59" fill="#9a9a9a"/>
<circle cx="30.6" cy="26.6" r="0.76" fill="#9a9a9a"/>
<circle cx="11.0" cy="17.5" r="0.64" fill="#9a9a9a"/>
<circle cx="25.1" cy="27.7" r="0.51" fill="#9a9a9a"/>
<circle cx="47.2" cy="39.5" r="0.86" fill="#9a9a9a"/>
<circle cx="37.8" cy="36.9" r="0.76" fill="#9a9a9a"/>
<circle cx="31.7" cy="50.3" r="0.78" fill="#9a9a9a"/>
<circle cx="27.1" cy="9.7" r="0.63" fill="#9a9a9a"/>
<circle cx="35.8" cy="43.6" r="0.84" fill="#9a9a9a"/>
<circle cx="35.2" cy="12.5" r="0.84" fill="#9a9a9a"/></g>
<g transform="translate(0 54)"><circle cx="51.1" cy="0.8" r="0.72" fill="#9a9a9a"/>
<circle cx="30.7" cy="5.5" r="0.51" fill="#9a9a9a"/>
<circle cx="6.0" cy="32.2" r="0.58" fill="#9a9a9a"/>
<circle cx="25.2" cy="46.5" r="0.85" fill="#9a9a9a"/>
<circle cx="32.1" cy="38.4" r="0.73" fill="#9a9a9a"/>
<circle cx="4.8" cy="28.9" r="0.82" fill="#9a9a9a"/>
<circle cx="34.1" cy="28.1" r="0.76" fill="#9a9a9a"/>
<circle cx="19.1" cy="49.2" r="0.63" fill="#9a9a9a"/>
<circle cx="22.9" cy="44.1" r="0.64" fill="#9a9a9a"/>
<circle cx="32.4" cy="22.1" r="0.59" fill="#9a9a9a"/>
<circle cx="2.1" cy="51.2" r="0.52" fill="#9a9a9a"/>
<circle cx="50.0" cy="47.7" r="0.60" fill="#9a9a9a"/>
<circle cx="2.8" cy="12.7" r="0.60" fill="#9a9a9a"/>
<circle cx="0.6" cy="33.3" r="0.67" fill="#9a9a9a"/>
<circle cx="17.2" cy="31.3" r="0.72" fill="#9a9a9a"/>
<circle cx="44.6" cy="50.9" r="0.57" fill="#9a9a9a"/>
<circle cx="15.6" cy="31.7" r="0.89" fill="#9a9a9a"/>
<circle cx="47.0" cy="33.1" r="0.54" fill="#9a9a9a"/>
<circle cx="25.0" cy="35.4" r="0.59" fill="#9a9a9a"/>
<circle cx="11.1" cy="30.1" r="0.72" fill="#9a9a9a"/>
<circle cx="34.2" cy="36.0" r="0.72" fill="#9a9a9a"/>
<circle cx="4.6" cy="43.0" r="0.52" fill="#9a9a9a"/>
<circle cx="37.2" cy="45.0" r="0.66" fill="#9a9a9a"/>
<circle cx="14.3" cy="41.7" r="0.65" fill="#9a9a9a"/>
<circle cx="5.7" cy="35.9" r="0.83" fill="#9a9a9a"/>
<circle cx="26.3" cy="32.6" r="0.79" fill="#9a9a9a"/>
<circle cx="25.4" cy="49.5" r="0.85" fill="#9a9a9a"/>
<circle cx="49.7" cy="48.3" r="0.63" fill="#9a9a9a"/>
<circle cx="38.4" cy="17.6" r="0.76" fill="#9a9a9a"/>
<circle cx="42.8" cy="0.7" r="0.55" fill="#9a9a9a"/>
<circle cx="50.6" cy="51.3" r="0.85" fill="#9a9a9a"/>
<circle cx="5.9" cy="53.4" r="0.79" fill="#9a9a9a"/>
<circle cx="29.8" cy="13.6" r="0.59" fill="#9a9a9a"/>
<circle cx="20.5" cy="34.9" r="0.50" fill="#9a9a9a"/>
<circle cx="34.9" cy="4.1" r="0.56" fill="#9a9a9a"/>
<circle cx="23.9" cy="11.4" r="0.84" fill="#9a9a9a"/>
<circle cx="35.4" cy="50.6" r="0.84" fill="#9a9a9a"/>
<circle cx="22.3" cy="34.3" r="0.75" fill="#9a9a9a"/>
<circle cx="36.2" cy="46.5" r="0.90" fill="#9a9a9a"/>
<circle cx="16.9" cy="50.7" r="0.85" fill="#9a9a9a"/>
<circle cx="46.8" cy="48.8" r="0.69" fill="#9a9a9a"/>
<circle cx="1.4" cy="21.6" r="0.78" fill="#9a9a9a"/>
<circle cx="6.2" cy="9.8" r="0.70" fill="#9a9a9a"/>
<circle cx="32.5" cy="39.6" r="0.80" fill="#9a9a9a"/>
<circle cx="22.8" cy="27.0" r="0.70" fill="#9a9a9a"/>
<circle cx="41.0" cy="2.9" r="0.59" fill="#9a9a9a"/>
<circle cx="30.6" cy="26.6" r="0.76" fill="#9a9a9a"/>
<circle cx="11.0" cy="17.5" r="0.64" fill="#9a9a9a"/>
<circle cx="25.1" cy="27.7" r="0.51" fill="#9a9a9a"/>
<circle cx="47.2" cy="39.5" r="0.86" fill="#9a9a9a"/>
<circle cx="37.8" cy="36.9" r="0.76" fill="#9a9a9a"/>
<circle cx="31.7" cy="50.3" r="0.78" fill="#9a9a9a"/>
<circle cx="27.1" cy="9.7" r="0.63" fill="#9a9a9a"/>
<circle cx="35.8" cy="43.6" r="0.84" fill="#9a9a9a"/>
<circle cx="35.2" cy="12.5" r="0.84" fill="#9a9a9a"/></g>
<g transform="translate(54 -54)"><circle cx="51.1" cy="0.8" r="0.72" fill="#9a9a9a"/>
<circle cx="30.7" cy="5.5" r="0.51" fill="#9a9a9a"/>
<circle cx="6.0" cy="32.2" r="0.58" fill="#9a9a9a"/>
<circle cx="25.2" cy="46.5" r="0.85" fill="#9a9a9a"/>
<circle cx="32.1" cy="38.4" r="0.73" fill="#9a9a9a"/>
<circle cx="4.8" cy="28.9" r="0.82" fill="#9a9a9a"/>
<circle cx="34.1" cy="28.1" r="0.76" fill="#9a9a9a"/>
<circle cx="19.1" cy="49.2" r="0.63" fill="#9a9a9a"/>
<circle cx="22.9" cy="44.1" r="0.64" fill="#9a9a9a"/>
<circle cx="32.4" cy="22.1" r="0.59" fill="#9a9a9a"/>
<circle cx="2.1" cy="51.2" r="0.52" fill="#9a9a9a"/>
<circle cx="50.0" cy="47.7" r="0.60" fill="#9a9a9a"/>
<circle cx="2.8" cy="12.7" r="0.60" fill="#9a9a9a"/>
<circle cx="0.6" cy="33.3" r="0.67" fill="#9a9a9a"/>
<circle cx="17.2" cy="31.3" r="0.72" fill="#9a9a9a"/>
<circle cx="44.6" cy="50.9" r="0.57" fill="#9a9a9a"/>
<circle cx="15.6" cy="31.7" r="0.89" fill="#9a9a9a"/>
<circle cx="47.0" cy="33.1" r="0.54" fill="#9a9a9a"/>
<circle cx="25.0" cy="35.4" r="0.59" fill="#9a9a9a"/>
<circle cx="11.1" cy="30.1" r="0.72" fill="#9a9a9a"/>
<circle cx="34.2" cy="36.0" r="0.72" fill="#9a9a9a"/>
<circle cx="4.6" cy="43.0" r="0.52" fill="#9a9a9a"/>
<circle cx="37.2" cy="45.0" r="0.66" fill="#9a9a9a"/>
<circle cx="14.3" cy="41.7" r="0.65" fill="#9a9a9a"/>
<circle cx="5.7" cy="35.9" r="0.83" fill="#9a9a9a"/>
<circle cx="26.3" cy="32.6" r="0.79" fill="#9a9a9a"/>
<circle cx="25.4" cy="49.5" r="0.85" fill="#9a9a9a"/>
<circle cx="49.7" cy="48.3" r="0.63" fill="#9a9a9a"/>
<circle cx="38.4" cy="17.6" r="0.76" fill="#9a9a9a"/>
<circle cx="42.8" cy="0.7" r="0.55" fill="#9a9a9a"/>
<circle cx="50.6" cy="51.3" r="0.85" fill="#9a9a9a"/>
<circle cx="5.9" cy="53.4" r="0.79" fill="#9a9a9a"/>
<circle cx="29.8" cy="13.6" r="0.59" fill="#9a9a9a"/>
<circle cx="20.5" cy="34.9" r="0.50" fill="#9a9a9a"/>
<circle cx="34.9" cy="4.1" r="0.56" fill="#9a9a9a"/>
<circle cx="23.9" cy="11.4" r="0.84" fill="#9a9a9a"/>
<circle cx="35.4" cy="50.6" r="0.84" fill="#9a9a9a"/>
<circle cx="22.3" cy="34.3" r="0.75" fill="#9a9a9a"/>
<circle cx="36.2" cy="46.5" r="0.90" fill="#9a9a9a"/>
<circle cx="16.9" cy="50.7" r="0.85" fill="#9a9a9a"/>
<circle cx="46.8" cy="48.8" r="0.69" fill="#9a9a9a"/>
<circle cx="1.4" cy="21.6" r="0.78" fill="#9a9a9a"/>
<circle cx="6.2" cy="9.8" r="0.70" fill="#9a9a9a"/>
<circle cx="32.5" cy="39.6" r="0.80" fill="#9a9a9a"/>
<circle cx="22.8" cy="27.0" r="0.70" fill="#9a9a9a"/>
<circle cx="41.0" cy="2.9" r="0.59" fill="#9a9a9a"/>
<circle cx="30.6" cy="26.6" r="0.76" fill="#9a9a9a"/>
<circle cx="11.0" cy="17.5" r="0.64" fill="#9a9a9a"/>
<circle cx="25.1" cy="27.7" r="0.51" fill="#9a9a9a"/>
<circle cx="47.2" cy="39.5" r="0.86" fill="#9a9a9a"/>
<circle cx="37.8" cy="36.9" r="0.76" fill="#9a9a9a"/>
<circle cx="31.7" cy="50.3" r="0.78" fill="#9a9a9a"/>
<circle cx="27.1" cy="9.7" r="0.63" fill="#9a9a9a"/>
<circle cx="35.8" cy="43.6" r="0.84" fill="#9a9a9a"/>
<circle cx="35.2" cy="12.5" r="0.84" fill="#9a9a9a"/></g>
<g transform="translate(54 0)"><circle cx="51.1" cy="0.8" r="0.72" fill="#9a9a9a"/>
<circle cx="30.7" cy="5.5" r="0.51" fill="#9a9a9a"/>
<circle cx="6.0" cy="32.2" r="0.58" fill="#9a9a9a"/>
<circle cx="25.2" cy="46.5" r="0.85" fill="#9a9a9a"/>
<circle cx="32.1" cy="38.4" r="0.73" fill="#9a9a9a"/>
<circle cx="4.8" cy="28.9" r="0.82" fill="#9a9a9a"/>
<circle cx="34.1" cy="28.1" r="0.76" fill="#9a9a9a"/>
<circle cx="19.1" cy="49.2" r="0.63" fill="#9a9a9a"/>
<circle cx="22.9" cy="44.1" r="0.64" fill="#9a9a9a"/>
<circle cx="32.4" cy="22.1" r="0.59" fill="#9a9a9a"/>
<circle cx="2.1" cy="51.2" r="0.52" fill="#9a9a9a"/>
<circle cx="50.0" cy="47.7" r="0.60" fill="#9a9a9a"/>
<circle cx="2.8" cy="12.7" r="0.60" fill="#9a9a9a"/>
<circle cx="0.6" cy="33.3" r="0.67" fill="#9a9a9a"/>
<circle cx="17.2" cy="31.3" r="0.72" fill="#9a9a9a"/>
<circle cx="44.6" cy="50.9" r="0.57" fill="#9a9a9a"/>
<circle cx="15.6" cy="31.7" r="0.89" fill="#9a9a9a"/>
<circle cx="47.0" cy="33.1" r="0.54" fill="#9a9a9a"/>
<circle cx="25.0" cy="35.4" r="0.59" fill="#9a9a9a"/>
<circle cx="11.1" cy="30.1" r="0.72" fill="#9a9a9a"/>
<circle cx="34.2" cy="36.0" r="0.72" fill="#9a9a9a"/>
<circle cx="4.6" cy="43.0" r="0.52" fill="#9a9a9a"/>
<circle cx="37.2" cy="45.0" r="0.66" fill="#9a9a9a"/>
<circle cx="14.3" cy="41.7" r="0.65" fill="#9a9a9a"/>
<circle cx="5.7" cy="35.9" r="0.83" fill="#9a9a9a"/>
<circle cx="26.3" cy="32.6" r="0.79" fill="#9a9a9a"/>
<circle cx="25.4" cy="49.5" r="0.85" fill="#9a9a9a"/>
<circle cx="49.7" cy="48.3" r="0.63" fill="#9a9a9a"/>
<circle cx="38.4" cy="17.6" r="0.76" fill="#9a9a9a"/>
<circle cx="42.8" cy="0.7" r="0.55" fill="#9a9a9a"/>
<circle cx="50.6" cy="51.3" r="0.85" fill="#9a9a9a"/>
<circle cx="5.9" cy="53.4" r="0.79" fill="#9a9a9a"/>
<circle cx="29.8" cy="13.6" r="0.59" fill="#9a9a9a"/>
<circle cx="20.5" cy="34.9" r="0.50" fill="#9a9a9a"/>
<circle cx="34.9" cy="4.1" r="0.56" fill="#9a9a9a"/>
<circle cx="23.9" cy="11.4" r="0.84" fill="#9a9a9a"/>
<circle cx="35.4" cy="50.6" r="0.84" fill="#9a9a9a"/>
<circle cx="22.3" cy="34.3" r="0.75" fill="#9a9a9a"/>
<circle cx="36.2" cy="46.5" r="0.90" fill="#9a9a9a"/>
<circle cx="16.9" cy="50.7" r="0.85" fill="#9a9a9a"/>
<circle cx="46.8" cy="48.8" r="0.69" fill="#9a9a9a"/>
<circle cx="1.4" cy="21.6" r="0.78" fill="#9a9a9a"/>
<circle cx="6.2" cy="9.8" r="0.70" fill="#9a9a9a"/>
<circle cx="32.5" cy="39.6" r="0.80" fill="#9a9a9a"/>
<circle cx="22.8" cy="27.0" r="0.70" fill="#9a9a9a"/>
<circle cx="41.0" cy="2.9" r="0.59" fill="#9a9a9a"/>
<circle cx="30.6" cy="26.6" r="0.76" fill="#9a9a9a"/>
<circle cx="11.0" cy="17.5" r="0.64" fill="#9a9a9a"/>
<circle cx="25.1" cy="27.7" r="0.51" fill="#9a9a9a"/>
<circle cx="47.2" cy="39.5" r="0.86" fill="#9a9a9a"/>
<circle cx="37.8" cy="36.9" r="0.76" fill="#9a9a9a"/>
<circle cx="31.7" cy="50.3" r="0.78" fill="#9a9a9a"/>
<circle cx="27.1" cy="9.7" r="0.63" fill="#9a9a9a"/>
<circle cx="35.8" cy="43.6" r="0.84" fill="#9a9a9a"/>
<circle cx="35.2" cy="12.5" r="0.84" fill="#9a9a9a"/></g>
<g transform="translate(54 54)"><circle cx="51.1" cy="0.8" r="0.72" fill="#9a9a9a"/>
<circle cx="30.7" cy="5.5" r="0.51" fill="#9a9a9a"/>
<circle cx="6.0" cy="32.2" r="0.58" fill="#9a9a9a"/>
<circle cx="25.2" cy="46.5" r="0.85" fill="#9a9a9a"/>
<circle cx="32.1" cy="38.4" r="0.73" fill="#9a9a9a"/>
<circle cx="4.8" cy="28.9" r="0.82" fill="#9a9a9a"/>
<circle cx="34.1" cy="28.1" r="0.76" fill="#9a9a9a"/>
<circle cx="19.1" cy="49.2" r="0.63" fill="#9a9a9a"/>
<circle cx="22.9" cy="44.1" r="0.64" fill="#9a9a9a"/>
<circle cx="32.4" cy="22.1" r="0.59" fill="#9a9a9a"/>
<circle cx="2.1" cy="51.2" r="0.52" fill="#9a9a9a"/>
<circle cx="50.0" cy="47.7" r="0.60" fill="#9a9a9a"/>
<circle cx="2.8" cy="12.7" r="0.60" fill="#9a9a9a"/>
<circle cx="0.6" cy="33.3" r="0.67" fill="#9a9a9a"/>
<circle cx="17.2" cy="31.3" r="0.72" fill="#9a9a9a"/>
<circle cx="44.6" cy="50.9" r="0.57" fill="#9a9a9a"/>
<circle cx="15.6" cy="31.7" r="0.89" fill="#9a9a9a"/>
<circle cx="47.0" cy="33.1" r="0.54" fill="#9a9a9a"/>
<circle cx="25.0" cy="35.4" r="0.59" fill="#9a9a9a"/>
<circle cx="11.1" cy="30.1" r="0.72" fill="#9a9a9a"/>
<circle cx="34.2" cy="36.0" r="0.72" fill="#9a9a9a"/>
<circle cx="4.6" cy="43.0" r="0.52" fill="#9a9a9a"/>
<circle cx="37.2" cy="45.0" r="0.66" fill="#9a9a9a"/>
<circle cx="14.3" cy="41.7" r="0.65" fill="#9a9a9a"/>
<circle cx="5.7" cy="35.9" r="0.83" fill="#9a9a9a"/>
<circle cx="26.3" cy="32.6" r="0.79" fill="#9a9a9a"/>
<circle cx="25.4" cy="49.5" r="0.85" fill="#9a9a9a"/>
<circle cx="49.7" cy="48.3" r="0.63" fill="#9a9a9a"/>
<circle cx="38.4" cy="17.6" r="0.76" fill="#9a9a9a"/>
<circle cx="42.8" cy="0.7" r="0.55" fill="#9a9a9a"/>
<circle cx="50.6" cy="51.3" r="0.85" fill="#9a9a9a"/>
<circle cx="5.9" cy="53.4" r="0.79" fill="#9a9a9a"/>
<circle cx="29.8" cy="13.6" r="0.59" fill="#9a9a9a"/>
<circle cx="20.5" cy="34.9" r="0.50" fill="#9a9a9a"/>
<circle cx="34.9" cy="4.1" r="0.56" fill="#9a9a9a"/>
<circle cx="23.9" cy="11.4" r="0.84" fill="#9a9a9a"/>
<circle cx="35.4" cy="50.6" r="0.84" fill="#9a9a9a"/>
<circle cx="22.3" cy="34.3" r="0.75" fill="#9a9a9a"/>
<circle cx="36.2" cy="46.5" r="0.90" fill="#9a9a9a"/>
<circle cx="16.9" cy="50.7" r="0.85" fill="#9a9a9a"/>
<circle cx="46.8" cy="48.8" r="0.69" fill="#9a9a9a"/>
<circle cx="1.4" cy="21.6" r="0.78" fill="#9a9a9a"/>
<circle cx="6.2" cy="9.8" r="0.70" fill="#9a9a9a"/>
<circle cx="32.5" cy="39.6" r="0.80" fill="#9a9a9a"/>
<circle cx="22.8" cy="27.0" r="0.70" fill="#9a9a9a"/>
<circle cx="41.0" cy="2.9" r="0.59" fill="#9a9a9a"/>
<circle cx="30.6" cy="26.6" r="0.76" fill="#9a9a9a"/>
<circle cx="11.0" cy="17.5" r="0.64" fill="#9a9a9a"/>
<circle cx="25.1" cy="27.7" r="0.51" fill="#9a9a9a"/>
<circle cx="47.2" cy="39.5" r="0.86" fill="#9a9a9a"/>
<circle cx="37.8" cy="36.9" r="0.76" fill="#9a9a9a"/>
<circle cx="31.7" cy="50.3" r="0.78" fill="#9a9a9a"/>
<circle cx="27.1" cy="9.7" r="0.63" fill="#9a9a9a"/>
<circle cx="35.8" cy="43.6" r="0.84" fill="#9a9a9a"/>
<circle cx="35.2" cy="12.5" r="0.84" fill="#9a9a9a"/></g>
<path d="M -18.0,10 C -9.0,9 -4.5,3 -2.7,3 C -1.8,3 -0.9,7 0.0,10" fill="none" stroke="#3f3f3f" stroke-width="1.0"/>
<line x1="-3.6" y1="4.0" x2="-1.0" y2="9.0" stroke="#8a8a8a" stroke-width="0.55"/>
<line x1="-2.3" y1="4.0" x2="0.3" y2="9.0" stroke="#8a8a8a" stroke-width="0.55"/>
<line x1="-1.1" y1="4.0" x2="1.5" y2="9.0" stroke="#8a8a8a" stroke-width="0.55"/>
<path d="M 0.0,10 C 9.0,9 13.5,3 15.3,3 C 16.2,3 17.1,7 18.0,10" fill="none" stroke="#3f3f3f" stroke-width="1.0"/>
<line x1="14.4" y1="4.0" x2="17.0" y2="9.0" stroke="#8a8a8a" stroke-width="0.55"/>
<line x1="15.7" y1="4.0" x2="18.3" y2="9.0" stroke="#8a8a8a" stroke-width="0.55"/>
<line x1="16.9" y1="4.0" x2="19.5" y2="9.0" stroke="#8a8a8a" stroke-width="0.55"/>
<path d="M 18.0,10 C 27.0,9 31.5,3 33.3,3 C 34.2,3 35.1,7 36.0,10" fill="none" stroke="#3f3f3f" stroke-width="1.0"/>
<line x1="32.4" y1="4.0" x2="35.0" y2="9.0" stroke="#8a8a8a" stroke-width="0.55"/>
<line x1="33.7" y1="4.0" x2="36.3" y2="9.0" stroke="#8a8a8a" stroke-width="0.55"/>
<line x1="34.9" y1="4.0" x2="37.5" y2="9.0" stroke="#8a8a8a" stroke-width="0.55"/>
<path d="M 36.0,10 C 45.0,9 49.5,3 51.3,3 C 52.2,3 53.1,7 54.0,10" fill="none" stroke="#3f3f3f" stroke-width="1.0"/>
<line x1="50.4" y1="4.0" x2="53.0" y2="9.0" stroke="#8a8a8a" stroke-width="0.55"/>
<line x1="51.7" y1="4.0" x2="54.3" y2="9.0" stroke="#8a8a8a" stroke-width="0.55"/>
<line x1="52.9" y1="4.0" x2="55.5" y2="9.0" stroke="#8a8a8a" stroke-width="0.55"/>
<path d="M 54.0,10 C 63.0,9 67.5,3 69.3,3 C 70.2,3 71.1,7 72.0,10" fill="none" stroke="#3f3f3f" stroke-width="1.0"/>
<line x1="68.4" y1="4.0" x2="71.0" y2="9.0" stroke="#8a8a8a" stroke-width="0.55"/>
<line x1="69.7" y1="4.0" x2="72.3" y2="9.0" stroke="#8a8a8a" stroke-width="0.55"/>
<line x1="70.9" y1="4.0" x2="73.5" y2="9.0" stroke="#8a8a8a" stroke-width="0.55"/>
<path d="M -12.0,19 C -3.0,18 1.5,12 3.3,12 C 4.2,12 5.1,16 6.0,19" fill="none" stroke="#3f3f3f" stroke-width="1.0"/>
<line x1="2.4" y1="13.0" x2="5.0" y2="18.0" stroke="#8a8a8a" stroke-width="0.55"/>
<line x1="3.7" y1="13.0" x2="6.3" y2="18.0" stroke="#8a8a8a" stroke-width="0.55"/>
<line x1="4.9" y1="13.0" x2="7.5" y2="18.0" stroke="#8a8a8a" stroke-width="0.55"/>
<path d="M 6.0,19 C 15.0,18 19.5,12 21.3,12 C 22.2,12 23.1,16 24.0,19" fill="none" stroke="#3f3f3f" stroke-width="1.0"/>
<line x1="20.4" y1="13.0" x2="23.0" y2="18.0" stroke="#8a8a8a" stroke-width="0.55"/>
<line x1="21.7" y1="13.0" x2="24.3" y2="18.0" stroke="#8a8a8a" stroke-width="0.55"/>
<line x1="22.9" y1="13.0" x2="25.5" y2="18.0" stroke="#8a8a8a" stroke-width="0.55"/>
<path d="M 24.0,19 C 33.0,18 37.5,12 39.3,12 C 40.2,12 41.1,16 42.0,19" fill="none" stroke="#3f3f3f" stroke-width="1.0"/>
<line x1="38.4" y1="13.0" x2="41.0" y2="18.0" stroke="#8a8a8a" stroke-width="0.55"/>
<line x1="39.7" y1="13.0" x2="42.3" y2="18.0" stroke="#8a8a8a" stroke-width="0.55"/>
<line x1="40.9" y1="13.0" x2="43.5" y2="18.0" stroke="#8a8a8a" stroke-width="0.55"/>
<path d="M 42.0,19 C 51.0,18 55.5,12 57.3,12 C 58.2,12 59.1,16 60.0,19" fill="none" stroke="#3f3f3f" stroke-width="1.0"/>
<line x1="56.4" y1="13.0" x2="59.0" y2="18.0" stroke="#8a8a8a" stroke-width="0.55"/>
<line x1="57.7" y1="13.0" x2="60.3" y2="18.0" stroke="#8a8a8a" stroke-width="0.55"/>
<line x1="58.9" y1="13.0" x2="61.5" y2="18.0" stroke="#8a8a8a" stroke-width="0.55"/>
<path d="M 60.0,19 C 69.0,18 73.5,12 75.3,12 C 76.2,12 77.1,16 78.0,19" fill="none" stroke="#3f3f3f" stroke-width="1.0"/>
<line x1="74.4" y1="13.0" x2="77.0" y2="18.0" stroke="#8a8a8a" stroke-width="0.55"/>
<line x1="75.7" y1="13.0" x2="78.3" y2="18.0" stroke="#8a8a8a" stroke-width="0.55"/>
<line x1="76.9" y1="13.0" x2="79.5" y2="18.0" stroke="#8a8a8a" stroke-width="0.55"/>
<path d="M -6.0,28 C 3.0,27 7.5,21 9.3,21 C 10.2,21 11.1,25 12.0,28" fill="none" stroke="#3f3f3f" stroke-width="1.0"/>
<line x1="8.4" y1="22.0" x2="11.0" y2="27.0" stroke="#8a8a8a" stroke-width="0.55"/>
<line x1="9.7" y1="22.0" x2="12.3" y2="27.0" stroke="#8a8a8a" stroke-width="0.55"/>
<line x1="10.9" y1="22.0" x2="13.5" y2="27.0" stroke="#8a8a8a" stroke-width="0.55"/>
<path d="M 12.0,28 C 21.0,27 25.5,21 27.3,21 C 28.2,21 29.1,25 30.0,28" fill="none" stroke="#3f3f3f" stroke-width="1.0"/>
<line x1="26.4" y1="22.0" x2="29.0" y2="27.0" stroke="#8a8a8a" stroke-width="0.55"/>
<line x1="27.7" y1="22.0" x2="30.3" y2="27.0" stroke="#8a8a8a" stroke-width="0.55"/>
<line x1="28.9" y1="22.0" x2="31.5" y2="27.0" stroke="#8a8a8a" stroke-width="0.55"/>
<path d="M 30.0,28 C 39.0,27 43.5,21 45.3,21 C 46.2,21 47.1,25 48.0,28" fill="none" stroke="#3f3f3f" stroke-width="1.0"/>
<line x1="44.4" y1="22.0" x2="47.0" y2="27.0" stroke="#8a8a8a" stroke-width="0.55"/>
<line x1="45.7" y1="22.0" x2="48.3" y2="27.0" stroke="#8a8a8a" stroke-width="0.55"/>
<line x1="46.9" y1="22.0" x2="49.5" y2="27.0" stroke="#8a8a8a" stroke-width="0.55"/>
<path d="M 48.0,28 C 57.0,27 61.5,21 63.3,21 C 64.2,21 65.1,25 66.0,28" fill="none" stroke="#3f3f3f" stroke-width="1.0"/>
<line x1="62.4" y1="22.0" x2="65.0" y2="27.0" stroke="#8a8a8a" stroke-width="0.55"/>
<line x1="63.7" y1="22.0" x2="66.3" y2="27.0" stroke="#8a8a8a" stroke-width="0.55"/>
<line x1="64.9" y1="22.0" x2="67.5" y2="27.0" stroke="#8a8a8a" stroke-width="0.55"/>
<path d="M 66.0,28 C 75.0,27 79.5,21 81.3,21 C 82.2,21 83.1,25 84.0,28" fill="none" stroke="#3f3f3f" stroke-width="1.0"/>
<line x1="80.4" y1="22.0" x2="83.0" y2="27.0" stroke="#8a8a8a" stroke-width="0.55"/>
<line x1="81.7" y1="22.0" x2="84.3" y2="27.0" stroke="#8a8a8a" stroke-width="0.55"/>
<line x1="82.9" y1="22.0" x2="85.5" y2="27.0" stroke="#8a8a8a" stroke-width="0.55"/>
<path d="M -18.0,37 C -9.0,36 -4.5,30 -2.7,30 C -1.8,30 -0.9,34 0.0,37" fill="none" stroke="#3f3f3f" stroke-width="1.0"/>
<line x1="-3.6" y1="31.0" x2="-1.0" y2="36.0" stroke="#8a8a8a" stroke-width="0.55"/>
<line x1="-2.3" y1="31.0" x2="0.3" y2="36.0" stroke="#8a8a8a" stroke-width="0.55"/>
<line x1="-1.1" y1="31.0" x2="1.5" y2="36.0" stroke="#8a8a8a" stroke-width="0.55"/>
<path d="M 0.0,37 C 9.0,36 13.5,30 15.3,30 C 16.2,30 17.1,34 18.0,37" fill="none" stroke="#3f3f3f" stroke-width="1.0"/>
<line x1="14.4" y1="31.0" x2="17.0" y2="36.0" stroke="#8a8a8a" stroke-width="0.55"/>
<line x1="15.7" y1="31.0" x2="18.3" y2="36.0" stroke="#8a8a8a" stroke-width="0.55"/>
<line x1="16.9" y1="31.0" x2="19.5" y2="36.0" stroke="#8a8a8a" stroke-width="0.55"/>
<path d="M 18.0,37 C 27.0,36 31.5,30 33.3,30 C 34.2,30 35.1,34 36.0,37" fill="none" stroke="#3f3f3f" stroke-width="1.0"/>
<line x1="32.4" y1="31.0" x2="35.0" y2="36.0" stroke="#8a8a8a" stroke-width="0.55"/>
<line x1="33.7" y1="31.0" x2="36.3" y2="36.0" stroke="#8a8a8a" stroke-width="0.55"/>
<line x1="34.9" y1="31.0" x2="37.5" y2="36.0" stroke="#8a8a8a" stroke-width="0.55"/>
<path d="M 36.0,37 C 45.0,36 49.5,30 51.3,30 C 52.2,30 53.1,34 54.0,37" fill="none" stroke="#3f3f3f" stroke-width="1.0"/>
<line x1="50.4" y1="31.0" x2="53.0" y2="36.0" stroke="#8a8a8a" stroke-width="0.55"/>
<line x1="51.7" y1="31.0" x2="54.3" y2="36.0" stroke="#8a8a8a" stroke-width="0.55"/>
<line x1="52.9" y1="31.0" x2="55.5" y2="36.0" stroke="#8a8a8a" stroke-width="0.55"/>
<path d="M 54.0,37 C 63.0,36 67.5,30 69.3,30 C 70.2,30 71.1,34 72.0,37" fill="none" stroke="#3f3f3f" stroke-width="1.0"/>
<line x1="68.4" y1="31.0" x2="71.0" y2="36.0" stroke="#8a8a8a" stroke-width="0.55"/>
<line x1="69.7" y1="31.0" x2="72.3" y2="36.0" stroke="#8a8a8a" stroke-width="0.55"/>
<line x1="70.9" y1="31.0" x2="73.5" y2="36.0" stroke="#8a8a8a" stroke-width="0.55"/>
<path d="M -12.0,46 C -3.0,45 1.5,39 3.3,39 C 4.2,39 5.1,43 6.0,46" fill="none" stroke="#3f3f3f" stroke-width="1.0"/>
<line x1="2.4" y1="40.0" x2="5.0" y2="45.0" stroke="#8a8a8a" stroke-width="0.55"/>
<line x1="3.7" y1="40.0" x2="6.3" y2="45.0" stroke="#8a8a8a" stroke-width="0.55"/>
<line x1="4.9" y1="40.0" x2="7.5" y2="45.0" stroke="#8a8a8a" stroke-width="0.55"/>
<path d="M 6.0,46 C 15.0,45 19.5,39 21.3,39 C 22.2,39 23.1,43 24.0,46" fill="none" stroke="#3f3f3f" stroke-width="1.0"/>
<line x1="20.4" y1="40.0" x2="23.0" y2="45.0" stroke="#8a8a8a" stroke-width="0.55"/>
<line x1="21.7" y1="40.0" x2="24.3" y2="45.0" stroke="#8a8a8a" stroke-width="0.55"/>
<line x1="22.9" y1="40.0" x2="25.5" y2="45.0" stroke="#8a8a8a" stroke-width="0.55"/>
<path d="M 24.0,46 C 33.0,45 37.5,39 39.3,39 C 40.2,39 41.1,43 42.0,46" fill="none" stroke="#3f3f3f" stroke-width="1.0"/>
<line x1="38.4" y1="40.0" x2="41.0" y2="45.0" stroke="#8a8a8a" stroke-width="0.55"/>
<line x1="39.7" y1="40.0" x2="42.3" y2="45.0" stroke="#8a8a8a" stroke-width="0.55"/>
<line x1="40.9" y1="40.0" x2="43.5" y2="45.0" stroke="#8a8a8a" stroke-width="0.55"/>
<path d="M 42.0,46 C 51.0,45 55.5,39 57.3,39 C 58.2,39 59.1,43 60.0,46" fill="none" stroke="#3f3f3f" stroke-width="1.0"/>
<line x1="56.4" y1="40.0" x2="59.0" y2="45.0" stroke="#8a8a8a" stroke-width="0.55"/>
<line x1="57.7" y1="40.0" x2="60.3" y2="45.0" stroke="#8a8a8a" stroke-width="0.55"/>
<line x1="58.9" y1="40.0" x2="61.5" y2="45.0" stroke="#8a8a8a" stroke-width="0.55"/>
<path d="M 60.0,46 C 69.0,45 73.5,39 75.3,39 C 76.2,39 77.1,43 78.0,46" fill="none" stroke="#3f3f3f" stroke-width="1.0"/>
<line x1="74.4" y1="40.0" x2="77.0" y2="45.0" stroke="#8a8a8a" stroke-width="0.55"/>
<line x1="75.7" y1="40.0" x2="78.3" y2="45.0" stroke="#8a8a8a" stroke-width="0.55"/>
<line x1="76.9" y1="40.0" x2="79.5" y2="45.0" stroke="#8a8a8a" stroke-width="0.55"/>
<path d="M -6.0,55 C 3.0,54 7.5,48 9.3,48 C 10.2,48 11.1,52 12.0,55" fill="none" stroke="#3f3f3f" stroke-width="1.0"/>
<line x1="8.4" y1="49.0" x2="11.0" y2="54.0" stroke="#8a8a8a" stroke-width="0.55"/>
<line x1="9.7" y1="49.0" x2="12.3" y2="54.0" stroke="#8a8a8a" stroke-width="0.55"/>
<line x1="10.9" y1="49.0" x2="13.5" y2="54.0" stroke="#8a8a8a" stroke-width="0.55"/>
<path d="M 12.0,55 C 21.0,54 25.5,48 27.3,48 C 28.2,48 29.1,52 30.0,55" fill="none" stroke="#3f3f3f" stroke-width="1.0"/>
<line x1="26.4" y1="49.0" x2="29.0" y2="54.0" stroke="#8a8a8a" stroke-width="0.55"/>
<line x1="27.7" y1="49.0" x2="30.3" y2="54.0" stroke="#8a8a8a" stroke-width="0.55"/>
<line x1="28.9" y1="49.0" x2="31.5" y2="54.0" stroke="#8a8a8a" stroke-width="0.55"/>
<path d="M 30.0,55 C 39.0,54 43.5,48 45.3,48 C 46.2,48 47.1,52 48.0,55" fill="none" stroke="#3f3f3f" stroke-width="1.0"/>
<line x1="44.4" y1="49.0" x2="47.0" y2="54.0" stroke="#8a8a8a" stroke-width="0.55"/>
<line x1="45.7" y1="49.0" x2="48.3" y2="54.0" stroke="#8a8a8a" stroke-width="0.55"/>
<line x1="46.9" y1="49.0" x2="49.5" y2="54.0" stroke="#8a8a8a" stroke-width="0.55"/>
<path d="M 48.0,55 C 57.0,54 61.5,48 63.3,48 C 64.2,48 65.1,52 66.0,55" fill="none" stroke="#3f3f3f" stroke-width="1.0"/>
<line x1="62.4" y1="49.0" x2="65.0" y2="54.0" stroke="#8a8a8a" stroke-width="0.55"/>
<line x1="63.7" y1="49.0" x2="66.3" y2="54.0" stroke="#8a8a8a" stroke-width="0.55"/>
<line x1="64.9" y1="49.0" x2="67.5" y2="54.0" stroke="#8a8a8a" stroke-width="0.55"/>
<path d="M 66.0,55 C 75.0,54 79.5,48 81.3,48 C 82.2,48 83.1,52 84.0,55" fill="none" stroke="#3f3f3f" stroke-width="1.0"/>
<line x1="80.4" y1="49.0" x2="83.0" y2="54.0" stroke="#8a8a8a" stroke-width="0.55"/>
<line x1="81.7" y1="49.0" x2="84.3" y2="54.0" stroke="#8a8a8a" stroke-width="0.55"/>
<line x1="82.9" y1="49.0" x2="85.5" y2="54.0" stroke="#8a8a8a" stroke-width="0.55"/></g></pattern></defs>
<rect width="120" height="120" fill="url(#pat_Sr)" stroke="black" stroke-width="1"/>
</svg>
