<svg xmlns="http://www.w3.org/2000/svg" width="120" height="120" viewBox="0 0 120 120">
<defs><clipPath id="clip48"><rect width="48" height="48"/></clipPath><pattern id="pat_Sr" patternUnits="userSpaceOnUse" width="48" height="48"><rect width="48" height="48" fill="white"/><g clip-path="url(#clip48)"><path d="M -10 11 Q -5 3 1 11" fill="none" stroke="#444" stroke-width="1.0"/>
<line x1="-8" y1="11" x2="-5.6" y2="5" stroke="#888" stroke-width="0.6"/>
<line x1="-6" y1="11" x2="-3.6" y2="5" stroke="#888" stroke-width="0.6"/>
<line x1="-4" y1="11" x2="-1.6" y2="5" stroke="#888" stroke-width="0.6"/>
<line x1="-2" y1="11" x2="0.3999999999999999" y2="5" stroke="#888" stroke-width="0.6"/>
<path d="M 5 11 Q 10 3 16 11" fill="none" stroke="#444" stroke-width="1.0"/>
<line x1="7" y1="11" x2="9.4" y2="5" stroke="#888" stroke-width="0.6"/>
<line x1="9" y1="11" x2="11.4" y2="5" stroke="#888" stroke-width="0.6"/>
<line x1="11" y1="11" x2="13.4" y2="5" stroke="#888" stroke-width="0.6"/>
<line x1="13" y1="11" x2="15.4" y2="5" stroke="#888" stroke-width="0.6"/>
<path d="M 20 11 Q 25 3 31 11" fill="none" stroke="#444" stroke-width="1.0"/>
<line x1="22" y1="11" x2="24.4" y2="5" stroke="#888" stroke-width="0.6"/>
<line x1="24" y1="11" x2="26.4" y2="5" stroke="#888" stroke-width="0.6"/>
<line x1="26" y1="11" x2="28.4" y2="5" stroke="#888" stroke-width="0.6"/>
<line x1="28" y1="11" x2="30.4" y2="5" stroke="#888" stroke-width="0.6"/>
<path d="M 35 11 Q 40 3 46 11" fill="none" stroke="#444" stroke-width="1.0"/>
<line x1="37" y1="11" x2="39.4" y2="5" stroke="#888" stroke-width="0.6"/>
<line x1="39" y1="11" x2="41.4" y2="5" stroke="#888" stroke-width="0.6"/>
<line x1="41" y1="11" x2="43.4" y2="5" stroke="#888" stroke-width="0.6"/>
<line x1="43" y1="11" x2="45.4" y2="5" stroke="#888" stroke-width="0.6"/>
<path d="M 50 11 Q 55 3 61 11" fill="none" stroke="#444" stroke-width="1.0"/>
<line x1="52" y1="11" x2="54.4" y2="5" stroke="#888" stroke-width="0.6"/>
<line x1="54" y1="11" x2="56.4" y2="5" stroke="#888" stroke-width="0.6"/>
<line x1="56" y1="11" x2="58.4" y2="5" stroke="#888" stroke-width="0.6"/>
<line x1="58" y1="11" x2="60.4" y2="5" stroke="#888" stroke-width="0.6"/>
<path d="M -2 21 Q 3 13 9 21" fill="none" stroke="#444" stroke-width="1.0"/>
<line x1="0" y1="21" x2="2.4" y2="15" stroke="#888" stroke-width="0.6"/>
<line x1="2" y1="21" x2="4.4" y2="15" stroke="#888" stroke-width="0.6"/>
<line x1="4" y1="21" x2="6.4" y2="15" stroke="#888" stroke-width="0.6"/>
<line x1="6" y1="21" x2="8.4" y2="15" stroke="#888" stroke-width="0.6"/>
<path d="M 13 21 Q 18 13 24 21" fill="none" stroke="#444" stroke-width="1.0"/>
<line x1="15" y1="21" x2="17.4" y2="15" stroke="#888" stroke-width="0.6"/>
<line x1="17" y1="21" x2="19.4" y2="15" stroke="#888" stroke-width="0.6"/>
<line x1="19" y1="21" x2="21.4" y2="15" stroke="#888" stroke-width="0.6"/>
<line x1="21" y1="21" x2="23.4" y2="15" stroke="#888" stroke-width="0.6"/>
<path d="M 28 21 Q 33 13 39 21" fill="none" stroke="#444" stroke-width="1.0"/>
<line x1="30" y1="21" x2="32.4" y2="15" stroke="#888" stroke-width="0.6"/>
<line x1="32" y1="21" x2="34.4" y2="15" stroke="#888" stroke-width="0.6"/>
<line x1="34" y1="21" x2="36.4" y2="15" stroke="#888" stroke-width="0.6"/>
<line x1="36" y1="21" x2="38.4" y2="15" stroke="#888" stroke-width="0.6"/>
<path d="M 43 21 Q 48 13 54 21" fill="none" stroke="#444" stroke-width="1.0"/>
<line x1="45" y1="21" x2="47.4" y2="15" stroke="#888" stroke-width="0.6"/>
<line x1="47" y1="21" x2="49.4" y2="15" stroke="#888" stroke-width="0.6"/>
<line x1="49" y1="21" x2="51.4" y2="15" stroke="#888" stroke-width="0.6"/>
<line x1="51" y1="21" x2="53.4" y2="15" stroke="#888" stroke-width="0.6"/>
<path d="M 58 21 Q 63 13 69 21" fill="none" stroke="#444" stroke-width="1.0"/>
<line x1="60" y1="21" x2="62.4" y2="15" stroke="#888" stroke-width="0.6"/>
<line x1="62" y1="21" x2="64.4" y2="15" stroke="#888" stroke-width="0.6"/>
<line x1="64" y1="21" x2="66.4" y2="15" stroke="#888" stroke-width="0.6"/>
<line x1="66" y1="21" x2="68.4" y2="15" stroke="#888" stroke-width="0.6"/>
<path d="M -10 31 Q -5 23 1 31" fill="none" stroke="#444" stroke-width="1.0"/>
<line x1="-8" y1="31" x2="-5.6" y2="25" stroke="#888" stroke-width="0.6"/>
<line x1="-6" y1="31" x2="-3.6" y2="25" stroke="#888" stroke-width="0.6"/>
<line x1="-4" y1="31" x2="-1.6" y2="25" stroke="#888" stroke-width="0.6"/>
<line x1="-2" y1="31" x2="0.3999999999999999" y2="25" stroke="#888" stroke-width="0.6"/>
<path d="M 5 31 Q 10 23 16 31" fill="none" stroke="#444" stroke-width="1.0"/>
<line x1="7" y1="31" x2="9.4" y2="25" stroke="#888" stroke-width="0.6"/>
<line x1="9" y1="31" x2="11.4" y2="25" stroke="#888" stroke-width="0.6"/>
<line x1="11" y1="31" x2="13.4" y2="25" stroke="#888" stroke-width="0.6"/>
<line x1="13" y1="31" x2="15.4" y2="25" stroke="#888" stroke-width="0.6"/>
<path d="M 20 31 Q 25 23 31 31" fill="none" stroke="#444" stroke-width="1.0"/>
<line x1="22" y1="31" x2="24.4" y2="25" stroke="#888" stroke-width="0.6"/>
<line x1="24" y1="31" x2="26.4" y2="25" stroke="#888" stroke-width="0.6"/>
<line x1="26" y1="31" x2="28.4" y2="25" stroke="#888" stroke-width="0.6"/>
<line x1="28" y1="31" x2="30.4" y2="25" stroke="#888" stroke-width="0.6"/>
<path d="M 35 31 Q 40 23 46 31" fill="none" stroke="#444" stroke-width="1.0"/>
<line x1="37" y1="31" x2="39.4" y2="25" stroke="#888" stroke-width="0.6"/>
<line x1="39" y1="31" x2="41.4" y2="25" stroke="#888" stroke-width="0.6"/>
<line x1="41" y1="31" x2="43.4" y2="25" stroke="#888" stroke-width="0.6"/>
<line x1="43" y1="31" x2="45.4" y2="25" stroke="#888" stroke-width="0.6"/>
<path d="M 50 31 Q 55 23 61 31" fill="none" stroke="#444" stroke-width="1.0"/>
<line x1="52" y1="31" x2="54.4" y2="25" stroke="#888" stroke-width="0.6"/>
<line x1="54" y1="31" x2="56.4" y2="25" stroke="#888" stroke-width="0.6"/>
<line x1="56" y1="31" x2="58.4" y2="25" stroke="#888" stroke-width="0.6"/>
<line x1="58" y1="31" x2="60.4" y2="25" stroke="#888" stroke-width="0.6"/>
<path d="M -2 41 Q 3 33 9 41" fill="none" stroke="#444" stroke-width="1.0"/>
<line x1="0" y1="41" x2="2.4" y2="35" stroke="#888" stroke-width="0.6"/>
<line x1="2" y1="41" x2="4.4" y2="35" stroke="#888" stroke-width="0.6"/>
<line x1="4" y1="41" x2="6.4" y2="35" stroke="#888" stroke-width="0.6"/>
<line x1="6" y1="41" x2="8.4" y2="35" stroke="#888" stroke-width="0.6"/>
<path d="M 13 41 Q 18 33 24 41" fill="none" stroke="#444" stroke-width="1.0"/>
<line x1="15" y1="41" x2="17.4" y2="35" stroke="#888" stroke-width="0.6"/>
<line x1="17" y1="41" x2="19.4" y2="35" stroke="#888" stroke-width="0.6"/>
<line x1="19" y1="41" x2="21.4" y2="35" stroke="#888" stroke-width="0.6"/>
<line x1="21" y1="41" x2="23.4" y2="35" stroke="#888" stroke-width="0.6"/>
<path d="M 28 41 Q 33 33 39 41" fill="none" stroke="#444" stroke-width="1.0"/>
<line x1="30" y1="41" x2="32.4" y2="35" stroke="#888" stroke-width="0.6"/>
<line x1="32" y1="41" x2="34.4" y2="35" stroke="#888" stroke-width="0.6"/>
<line x1="34" y1="41" x2="36.4" y2="35" stroke="#888" stroke-width="0.6"/>
<line x1="36" y1="41" x2="38.4" y2="35" stroke="#888" stroke-width="0.6"/>
<path d="M 43 41 Q 48 33 54 41" fill="none" stroke="#444" stroke-width="1.0"/>
<line x1="45" y1="41" x2="47.4" y2="35" stroke="#888" stroke-width="0.6"/>
<line x1="47" y1="41" x2="49.4" y2="35" stroke="#888" stroke-width="0.6"/>
<line x1="49" y1="41" x2="51.4" y2="35" stroke="#888" stroke-width="0.6"/>
<line x1="51" y1="41" x2="53.4" y2="35" stroke="#888" stroke-width="0.6"/>
<path d="M 58 41 Q 63 33 69 41" fill="none" stroke="#444" stroke-width="1.0"/>
<line x1="60" y1="41" x2="62.4" y2="35" stroke="#888" stroke-width="0.6"/>
<line x1="62" y1="41" x2="64.4" y2="35" stroke="#888" stroke-width="0.6"/>
<line x1="64" y1="41" x2="66.4" y2="35" stroke="#888" stroke-width="0.6"/>
<line x1="66" y1="41" x2="68.4" y2="35" stroke="#888" stroke-width="0.6"/>
<path d="M -10 51 Q -5 43 1 51" fill="none" stroke="#444" stroke-width="1.0"/>
<line x1="-8" y1="51" x2="-5.6" y2="45" stroke="#888" stroke-width="0.6"/>
<line x1="-6" y1="51" x2="-3.6" y2="45" stroke="#888" stroke-width="0.6"/>
<line x1="-4" y1="51" x2="-1.6" y2="45" stroke="#888" stroke-width="0.6"/>
<line x1="-2" y1="51" x2="0.3999999999999999" y2="45" stroke="#888" stroke-width="0.6"/>
<path d="M 5 51 Q 10 43 16 51" fill="none" stroke="#444" stroke-width="1.0"/>
<line x1="7" y1="51" x2="9.4" y2="45" stroke="#888" stroke-width="0.6"/>
<line x1="9" y1="51" x2="11.4" y2="45" stroke="#888" stroke-width="0.6"/>
<line x1="11" y1="51" x2="13.4" y2="45" stroke="#888" stroke-width="0.6"/>
<line x1="13" y1="51" x2="15.4" y2="45" stroke="#888" stroke-width="0.6"/>
<path d="M 20 51 Q 25 43 31 51" fill="none" stroke="#444" stroke-width="1.0"/>
<line x1="22" y1="51" x2="24.4" y2="45" stroke="#888" stroke-width="0.6"/>
<line x1="24" y1="51" x2="26.4" y2="45" stroke="#888" stroke-width="0.6"/>
<line x1="26" y1="51" x2="28.4" y2="45" stroke="#888" stroke-width="0.6"/>
<line x1="28" y1="51" x2="30.4" y2="45" stroke="#888" stroke-width="0.6"/>
<path d="M 35 51 Q 40 43 46 51" fill="none" stroke="#444" stroke-width="1.0"/>
<line x1="37" y1="51" x2="39.4" y2="45" stroke="#888" stroke-width="0.6"/>
<line x1="39" y1="51" x2="41.4" y2="45" stroke="#888" stroke-width="0.6"/>
<line x1="41" y1="51" x2="43.4" y2="45" stroke="#888" stroke-width="0.6"/>
<line x1="43" y1="51" x2="45.4" y2="45" stroke="#888" stroke-width="0.6"/>
<path d="M 50 51 Q 55 43 61 51" fill="none" stroke="#444" stroke-width="1.0"/>
<line x1="52" y1="51" x2="54.4" y2="45" stroke="#888" stroke-width="0.6"/>
<line x1="54" y1="51" x2="56.4" y2="45" stroke="#888" stroke-width="0.6"/>
<line x1="56" y1="51" x2="58.4" y2="45" stroke="#888" stroke-width="0.6"/>
<line x1="58" y1="51" x2="60.4" y2="45" stroke="#888" stroke-width="0.6"/></g></pattern></defs>
<rect width="120" height="120" fill="url(#pat_Sr)" stroke="black" stroke-width="1"/>
</svg>
