<svg xmlns="http://www.w3.org/2000/svg" width="120" height="120" viewBox="0 0 120 120">
<defs><clipPath id="clip48"><rect width="48" height="48"/></clipPath><pattern id="pat_Sr" patternUnits="userSpaceOnUse" width="48" height="48"><rect width="48" height="48" fill="white"/><g clip-path="url(#clip48)"><path d="M -16,11 C -7.2,9.0 -4.8,3.0 -2.9,4.0" fill="none" stroke="#3f3f3f" stroke-width="1.0"/>
<path d="M -5.9,4 Q -7.9,9.0 -10.9,11.0" fill="none" stroke="#8a8a8a" stroke-width="0.55"/>
<path d="M -4.6,4 Q -6.6,9.0 -9.6,11.0" fill="none" stroke="#8a8a8a" stroke-width="0.55"/>
<path d="M -3.4,4 Q -5.4,9.0 -8.4,11.0" fill="none" stroke="#8a8a8a" stroke-width="0.55"/>
<path d="M 0,11 C 8.8,9.0 11.2,3.0 13.1,4.0" fill="none" stroke="#3f3f3f" stroke-width="1.0"/>
<path d="M 10.1,4 Q 8.1,9.0 5.1,11.0" fill="none" stroke="#8a8a8a" stroke-width="0.55"/>
<path d="M 11.4,4 Q 9.4,9.0 6.4,11.0" fill="none" stroke="#8a8a8a" stroke-width="0.55"/>
<path d="M 12.6,4 Q 10.6,9.0 7.6,11.0" fill="none" stroke="#8a8a8a" stroke-width="0.55"/>
<path d="M 16,11 C 24.8,9.0 27.2,3.0 29.1,4.0" fill="none" stroke="#3f3f3f" stroke-width="1.0"/>
<path d="M 26.1,4 Q 24.1,9.0 21.1,11.0" fill="none" stroke="#8a8a8a" stroke-width="0.55"/>
<path d="M 27.4,4 Q 25.4,9.0 22.4,11.0" fill="none" stroke="#8a8a8a" stroke-width="0.55"/>
<path d="M 28.6,4 Q 26.6,9.0 23.6,11.0" fill="none" stroke="#8a8a8a" stroke-width="0.55"/>
<path d="M 32,11 C 40.8,9.0 43.2,3.0 45.1,4.0" fill="none" stroke="#3f3f3f" stroke-width="1.0"/>
<path d="M 42.1,4 Q 40.1,9.0 37.1,11.0" fill="none" stroke="#8a8a8a" stroke-width="0.55"/>
<path d="M 43.4,4 Q 41.4,9.0 38.4,11.0" fill="none" stroke="#8a8a8a" stroke-width="0.55"/>
<path d="M 44.6,4 Q 42.6,9.0 39.6,11.0" fill="none" stroke="#8a8a8a" stroke-width="0.55"/>
<path d="M 48,11 C 56.8,9.0 59.2,3.0 61.1,4.0" fill="none" stroke="#3f3f3f" stroke-width="1.0"/>
<path d="M 58.1,4 Q 56.1,9.0 53.1,11.0" fill="none" stroke="#8a8a8a" stroke-width="0.55"/>
<path d="M 59.4,4 Q 57.4,9.0 54.4,11.0" fill="none" stroke="#8a8a8a" stroke-width="0.55"/>
<path d="M 60.6,4 Q 58.6,9.0 55.6,11.0" fill="none" stroke="#8a8a8a" stroke-width="0.55"/>
<path d="M -11,20 C -2.2,18.0 0.2,12.0 2.1,13.0" fill="none" stroke="#3f3f3f" stroke-width="1.0"/>
<path d="M -0.9,13 Q -2.9,18.0 -5.9,20.0" fill="none" stroke="#8a8a8a" stroke-width="0.55"/>
<path d="M 0.4,13 Q -1.6,18.0 -4.6,20.0" fill="none" stroke="#8a8a8a" stroke-width="0.55"/>
<path d="M 1.6,13 Q -0.4,18.0 -3.4,20.0" fill="none" stroke="#8a8a8a" stroke-width="0.55"/>
<path d="M 5,20 C 13.8,18.0 16.2,12.0 18.1,13.0" fill="none" stroke="#3f3f3f" stroke-width="1.0"/>
<path d="M 15.1,13 Q 13.1,18.0 10.1,20.0" fill="none" stroke="#8a8a8a" stroke-width="0.55"/>
<path d="M 16.4,13 Q 14.4,18.0 11.4,20.0" fill="none" stroke="#8a8a8a" stroke-width="0.55"/>
<path d="M 17.6,13 Q 15.6,18.0 12.6,20.0" fill="none" stroke="#8a8a8a" stroke-width="0.55"/>
<path d="M 21,20 C 29.8,18.0 32.2,12.0 34.1,13.0" fill="none" stroke="#3f3f3f" stroke-width="1.0"/>
<path d="M 31.1,13 Q 29.1,18.0 26.1,20.0" fill="none" stroke="#8a8a8a" stroke-width="0.55"/>
<path d="M 32.4,13 Q 30.4,18.0 27.4,20.0" fill="none" stroke="#8a8a8a" stroke-width="0.55"/>
<path d="M 33.6,13 Q 31.6,18.0 28.6,20.0" fill="none" stroke="#8a8a8a" stroke-width="0.55"/>
<path d="M 37,20 C 45.8,18.0 48.2,12.0 50.1,13.0" fill="none" stroke="#3f3f3f" stroke-width="1.0"/>
<path d="M 47.1,13 Q 45.1,18.0 42.1,20.0" fill="none" stroke="#8a8a8a" stroke-width="0.55"/>
<path d="M 48.4,13 Q 46.4,18.0 43.4,20.0" fill="none" stroke="#8a8a8a" stroke-width="0.55"/>
<path d="M 49.6,13 Q 47.6,18.0 44.6,20.0" fill="none" stroke="#8a8a8a" stroke-width="0.55"/>
<path d="M 53,20 C 61.8,18.0 64.2,12.0 66.1,13.0" fill="none" stroke="#3f3f3f" stroke-width="1.0"/>
<path d="M 63.1,13 Q 61.1,18.0 58.1,20.0" fill="none" stroke="#8a8a8a" stroke-width="0.55"/>
<path d="M 64.4,13 Q 62.4,18.0 59.4,20.0" fill="none" stroke="#8a8a8a" stroke-width="0.55"/>
<path d="M 65.6,13 Q 63.6,18.0 60.6,20.0" fill="none" stroke="#8a8a8a" stroke-width="0.55"/>
<path d="M -6,29 C 2.8,27.0 5.2,21.0 7.1,22.0" fill="none" stroke="#3f3f3f" stroke-width="1.0"/>
<path d="M 4.1,22 Q 2.1,27.0 -0.9,29.0" fill="none" stroke="#8a8a8a" stroke-width="0.55"/>
<path d="M 5.4,22 Q 3.4,27.0 0.4,29.0" fill="none" stroke="#8a8a8a" stroke-width="0.55"/>
<path d="M 6.6,22 Q 4.6,27.0 1.6,29.0" fill="none" stroke="#8a8a8a" stroke-width="0.55"/>
<path d="M 10,29 C 18.8,27.0 21.2,21.0 23.1,22.0" fill="none" stroke="#3f3f3f" stroke-width="1.0"/>
<path d="M 20.1,22 Q 18.1,27.0 15.1,29.0" fill="none" stroke="#8a8a8a" stroke-width="0.55"/>
<path d="M 21.4,22 Q 19.4,27.0 16.4,29.0" fill="none" stroke="#8a8a8a" stroke-width="0.55"/>
<path d="M 22.6,22 Q 20.6,27.0 17.6,29.0" fill="none" stroke="#8a8a8a" stroke-width="0.55"/>
<path d="M 26,29 C 34.8,27.0 37.2,21.0 39.1,22.0" fill="none" stroke="#3f3f3f" stroke-width="1.0"/>
<path d="M 36.1,22 Q 34.1,27.0 31.1,29.0" fill="none" stroke="#8a8a8a" stroke-width="0.55"/>
<path d="M 37.4,22 Q 35.4,27.0 32.4,29.0" fill="none" stroke="#8a8a8a" stroke-width="0.55"/>
<path d="M 38.6,22 Q 36.6,27.0 33.6,29.0" fill="none" stroke="#8a8a8a" stroke-width="0.55"/>
<path d="M 42,29 C 50.8,27.0 53.2,21.0 55.1,22.0" fill="none" stroke="#3f3f3f" stroke-width="1.0"/>
<path d="M 52.1,22 Q 50.1,27.0 47.1,29.0" fill="none" stroke="#8a8a8a" stroke-width="0.55"/>
<path d="M 53.4,22 Q 51.4,27.0 48.4,29.0" fill="none" stroke="#8a8a8a" stroke-width="0.55"/>
<path d="M 54.6,22 Q 52.6,27.0 49.6,29.0" fill="none" stroke="#8a8a8a" stroke-width="0.55"/>
<path d="M 58,29 C 66.8,27.0 69.2,21.0 71.1,22.0" fill="none" stroke="#3f3f3f" stroke-width="1.0"/>
<path d="M 68.1,22 Q 66.1,27.0 63.1,29.0" fill="none" stroke="#8a8a8a" stroke-width="0.55"/>
<path d="M 69.4,22 Q 67.4,27.0 64.4,29.0" fill="none" stroke="#8a8a8a" stroke-width="0.55"/>
<path d="M 70.6,22 Q 68.6,27.0 65.6,29.0" fill="none" stroke="#8a8a8a" stroke-width="0.55"/>
<path d="M -1,38 C 7.8,36.0 10.2,30.0 12.1,31.0" fill="none" stroke="#3f3f3f" stroke-width="1.0"/>
<path d="M 9.1,31 Q 7.1,36.0 4.1,38.0" fill="none" stroke="#8a8a8a" stroke-width="0.55"/>
<path d="M 10.4,31 Q 8.4,36.0 5.4,38.0" fill="none" stroke="#8a8a8a" stroke-width="0.55"/>
<path d="M 11.6,31 Q 9.6,36.0 6.6,38.0" fill="none" stroke="#8a8a8a" stroke-width="0.55"/>
<path d="M 15,38 C 23.8,36.0 26.2,30.0 28.1,31.0" fill="none" stroke="#3f3f3f" stroke-width="1.0"/>
<path d="M 25.1,31 Q 23.1,36.0 20.1,38.0" fill="none" stroke="#8a8a8a" stroke-width="0.55"/>
<path d="M 26.4,31 Q 24.4,36.0 21.4,38.0" fill="none" stroke="#8a8a8a" stroke-width="0.55"/>
<path d="M 27.6,31 Q 25.6,36.0 22.6,38.0" fill="none" stroke="#8a8a8a" stroke-width="0.55"/>
<path d="M 31,38 C 39.8,36.0 42.2,30.0 44.1,31.0" fill="none" stroke="#3f3f3f" stroke-width="1.0"/>
<path d="M 41.1,31 Q 39.1,36.0 36.1,38.0" fill="none" stroke="#8a8a8a" stroke-width="0.55"/>
<path d="M 42.4,31 Q 40.4,36.0 37.4,38.0" fill="none" stroke="#8a8a8a" stroke-width="0.55"/>
<path d="M 43.6,31 Q 41.6,36.0 38.6,38.0" fill="none" stroke="#8a8a8a" stroke-width="0.55"/>
<path d="M 47,38 C 55.8,36.0 58.2,30.0 60.1,31.0" fill="none" stroke="#3f3f3f" stroke-width="1.0"/>
<path d="M 57.1,31 Q 55.1,36.0 52.1,38.0" fill="none" stroke="#8a8a8a" stroke-width="0.55"/>
<path d="M 58.4,31 Q 56.4,36.0 53.4,38.0" fill="none" stroke="#8a8a8a" stroke-width="0.55"/>
<path d="M 59.6,31 Q 57.6,36.0 54.6,38.0" fill="none" stroke="#8a8a8a" stroke-width="0.55"/>
<path d="M 63,38 C 71.8,36.0 74.2,30.0 76.1,31.0" fill="none" stroke="#3f3f3f" stroke-width="1.0"/>
<path d="M 73.1,31 Q 71.1,36.0 68.1,38.0" fill="none" stroke="#8a8a8a" stroke-width="0.55"/>
<path d="M 74.4,31 Q 72.4,36.0 69.4,38.0" fill="none" stroke="#8a8a8a" stroke-width="0.55"/>
<path d="M 75.6,31 Q 73.6,36.0 70.6,38.0" fill="none" stroke="#8a8a8a" stroke-width="0.55"/>
<path d="M -12,47 C -3.2,45.0 -0.8,39.0 1.1,40.0" fill="none" stroke="#3f3f3f" stroke-width="1.0"/>
<path d="M -1.9,40 Q -3.9,45.0 -6.9,47.0" fill="none" stroke="#8a8a8a" stroke-width="0.55"/>
<path d="M -0.6,40 Q -2.6,45.0 -5.6,47.0" fill="none" stroke="#8a8a8a" stroke-width="0.55"/>
<path d="M 0.6,40 Q -1.4,45.0 -4.4,47.0" fill="none" stroke="#8a8a8a" stroke-width="0.55"/>
<path d="M 4,47 C 12.8,45.0 15.2,39.0 17.1,40.0" fill="none" stroke="#3f3f3f" stroke-width="1.0"/>
<path d="M 14.1,40 Q 12.1,45.0 9.1,47.0" fill="none" stroke="#8a8a8a" stroke-width="0.55"/>
<path d="M 15.4,40 Q 13.4,45.0 10.4,47.0" fill="none" stroke="#8a8a8a" stroke-width="0.55"/>
<path d="M 16.6,40 Q 14.6,45.0 11.6,47.0" fill="none" stroke="#8a8a8a" stroke-width="0.55"/>
<path d="M 20,47 C 28.8,45.0 31.2,39.0 33.1,40.0" fill="none" stroke="#3f3f3f" stroke-width="1.0"/>
<path d="M 30.1,40 Q 28.1,45.0 25.1,47.0" fill="none" stroke="#8a8a8a" stroke-width="0.55"/>
<path d="M 31.4,40 Q 29.4,45.0 26.4,47.0" fill="none" stroke="#8a8a8a" stroke-width="0.55"/>
<path d="M 32.6,40 Q 30.6,45.0 27.6,47.0" fill="none" stroke="#8a8a8a" stroke-width="0.55"/>
<path d="M 36,47 C 44.8,45.0 47.2,39.0 49.1,40.0" fill="none" stroke="#3f3f3f" stroke-width="1.0"/>
<path d="M 46.1,40 Q 44.1,45.0 41.1,47.0" fill="none" stroke="#8a8a8a" stroke-width="0.55"/>
<path d="M 47.4,40 Q 45.4,45.0 42.4,47.0" fill="none" stroke="#8a8a8a" stroke-width="0.55"/>
<path d="M 48.6,40 Q 46.6,45.0 43.6,47.0" fill="none" stroke="#8a8a8a" stroke-width="0.55"/>
<path d="M 52,47 C 60.8,45.0 63.2,39.0 65.1,40.0" fill="none" stroke="#3f3f3f" stroke-width="1.0"/>
<path d="M 62.1,40 Q 60.1,45.0 57.1,47.0" fill="none" stroke="#8a8a8a" stroke-width="0.55"/>
<path d="M 63.4,40 Q 61.4,45.0 58.4,47.0" fill="none" stroke="#8a8a8a" stroke-width="0.55"/>
<path d="M 64.6,40 Q 62.6,45.0 59.6,47.0" fill="none" stroke="#8a8a8a" stroke-width="0.55"/></g></pattern></defs>
<rect width="120" height="120" fill="url(#pat_Sr)" stroke="black" stroke-width="1"/>
</svg>
