<svg xmlns="http://www.w3.org/2000/svg" width="120" height="120" viewBox="0 0 120 120">
<defs><clipPath id="clip52"><rect width="52" height="52"/></clipPath><pattern id="pat_Sr" patternUnits="userSpaceOnUse" width="52" height="52"><rect width="52" height="52" fill="white"/><g clip-path="url(#clip52)"><path d="M -4.0,10.0 Q -6.4,4.4 -11.0,8.9" fill="none" stroke="#3f3f3f" stroke-width="1.0"/><path d="M -5.3,10.0 Q -6.7,7.2 -8.2,6.5" fill="none" stroke="#8a8a8a" stroke-width="0.6"/><path d="M -6.5,10.0 Q -7.9,7.2 -9.5,6.5" fill="none" stroke="#8a8a8a" stroke-width="0.6"/><path d="M -7.8,10.0 Q -9.2,7.2 -10.7,6.5" fill="none" stroke="#8a8a8a" stroke-width="0.6"/>
<path d="M 12.0,10.0 Q 9.6,4.4 5.0,8.9" fill="none" stroke="#3f3f3f" stroke-width="1.0"/><path d="M 10.7,10.0 Q 9.3,7.2 7.8,6.5" fill="none" stroke="#8a8a8a" stroke-width="0.6"/><path d="M 9.5,10.0 Q 8.1,7.2 6.5,6.5" fill="none" stroke="#8a8a8a" stroke-width="0.6"/><path d="M 8.2,10.0 Q 6.8,7.2 5.3,6.5" fill="none" stroke="#8a8a8a" stroke-width="0.6"/>
<path d="M 28.0,10.0 Q 25.6,4.4 21.0,8.9" fill="none" stroke="#3f3f3f" stroke-width="1.0"/><path d="M 26.7,10.0 Q 25.3,7.2 23.8,6.5" fill="none" stroke="#8a8a8a" stroke-width="0.6"/><path d="M 25.5,10.0 Q 24.1,7.2 22.5,6.5" fill="none" stroke="#8a8a8a" stroke-width="0.6"/><path d="M 24.2,10.0 Q 22.8,7.2 21.3,6.5" fill="none" stroke="#8a8a8a" stroke-width="0.6"/>
<path d="M 44.0,10.0 Q 41.5,4.4 37.0,8.9" fill="none" stroke="#3f3f3f" stroke-width="1.0"/><path d="M 42.7,10.0 Q 41.3,7.2 39.8,6.5" fill="none" stroke="#8a8a8a" stroke-width="0.6"/><path d="M 41.5,10.0 Q 40.1,7.2 38.5,6.5" fill="none" stroke="#8a8a8a" stroke-width="0.6"/><path d="M 40.2,10.0 Q 38.8,7.2 37.3,6.5" fill="none" stroke="#8a8a8a" stroke-width="0.6"/>
<path d="M 60.0,10.0 Q 57.5,4.4 53.0,8.9" fill="none" stroke="#3f3f3f" stroke-width="1.0"/><path d="M 58.7,10.0 Q 57.3,7.2 55.8,6.5" fill="none" stroke="#8a8a8a" stroke-width="0.6"/><path d="M 57.5,10.0 Q 56.1,7.2 54.5,6.5" fill="none" stroke="#8a8a8a" stroke-width="0.6"/><path d="M 56.2,10.0 Q 54.8,7.2 53.3,6.5" fill="none" stroke="#8a8a8a" stroke-width="0.6"/>
<path d="M 2.0,21.0 Q -0.4,15.4 -5.0,19.9" fill="none" stroke="#3f3f3f" stroke-width="1.0"/><path d="M 0.7,21.0 Q -0.7,18.2 -2.2,17.5" fill="none" stroke="#8a8a8a" stroke-width="0.6"/><path d="M -0.5,21.0 Q -1.9,18.2 -3.5,17.5" fill="none" stroke="#8a8a8a" stroke-width="0.6"/><path d="M -1.8,21.0 Q -3.2,18.2 -4.7,17.5" fill="none" stroke="#8a8a8a" stroke-width="0.6"/>
<path d="M 18.0,21.0 Q 15.6,15.4 11.0,19.9" fill="none" stroke="#3f3f3f" stroke-width="1.0"/><path d="M 16.7,21.0 Q 15.3,18.2 13.8,17.5" fill="none" stroke="#8a8a8a" stroke-width="0.6"/><path d="M 15.5,21.0 Q 14.1,18.2 12.5,17.5" fill="none" stroke="#8a8a8a" stroke-width="0.6"/><path d="M 14.2,21.0 Q 12.8,18.2 11.3,17.5" fill="none" stroke="#8a8a8a" stroke-width="0.6"/>
<path d="M 34.0,21.0 Q 31.6,15.4 27.0,19.9" fill="none" stroke="#3f3f3f" stroke-width="1.0"/><path d="M 32.7,21.0 Q 31.3,18.2 29.8,17.5" fill="none" stroke="#8a8a8a" stroke-width="0.6"/><path d="M 31.5,21.0 Q 30.1,18.2 28.5,17.5" fill="none" stroke="#8a8a8a" stroke-width="0.6"/><path d="M 30.2,21.0 Q 28.8,18.2 27.3,17.5" fill="none" stroke="#8a8a8a" stroke-width="0.6"/>
<path d="M 50.0,21.0 Q 47.5,15.4 43.0,19.9" fill="none" stroke="#3f3f3f" stroke-width="1.0"/><path d="M 48.7,21.0 Q 47.3,18.2 45.8,17.5" fill="none" stroke="#8a8a8a" stroke-width="0.6"/><path d="M 47.5,21.0 Q 46.1,18.2 44.5,17.5" fill="none" stroke="#8a8a8a" stroke-width="0.6"/><path d="M 46.2,21.0 Q 44.8,18.2 43.3,17.5" fill="none" stroke="#8a8a8a" stroke-width="0.6"/>
<path d="M 66.0,21.0 Q 63.5,15.4 59.0,19.9" fill="none" stroke="#3f3f3f" stroke-width="1.0"/><path d="M 64.7,21.0 Q 63.3,18.2 61.8,17.5" fill="none" stroke="#8a8a8a" stroke-width="0.6"/><path d="M 63.5,21.0 Q 62.1,18.2 60.5,17.5" fill="none" stroke="#8a8a8a" stroke-width="0.6"/><path d="M 62.2,21.0 Q 60.8,18.2 59.3,17.5" fill="none" stroke="#8a8a8a" stroke-width="0.6"/>
<path d="M 8.0,32.0 Q 5.6,26.4 1.0,30.9" fill="none" stroke="#3f3f3f" stroke-width="1.0"/><path d="M 6.7,32.0 Q 5.3,29.2 3.8,28.5" fill="none" stroke="#8a8a8a" stroke-width="0.6"/><path d="M 5.5,32.0 Q 4.1,29.2 2.5,28.5" fill="none" stroke="#8a8a8a" stroke-width="0.6"/><path d="M 4.2,32.0 Q 2.8,29.2 1.3,28.5" fill="none" stroke="#8a8a8a" stroke-width="0.6"/>
<path d="M 24.0,32.0 Q 21.6,26.4 17.0,30.9" fill="none" stroke="#3f3f3f" stroke-width="1.0"/><path d="M 22.7,32.0 Q 21.3,29.2 19.8,28.5" fill="none" stroke="#8a8a8a" stroke-width="0.6"/><path d="M 21.5,32.0 Q 20.1,29.2 18.5,28.5" fill="none" stroke="#8a8a8a" stroke-width="0.6"/><path d="M 20.2,32.0 Q 18.8,29.2 17.3,28.5" fill="none" stroke="#8a8a8a" stroke-width="0.6"/>
<path d="M 40.0,32.0 Q 37.5,26.4 33.0,30.9" fill="none" stroke="#3f3f3f" stroke-width="1.0"/><path d="M 38.7,32.0 Q 37.3,29.2 35.8,28.5" fill="none" stroke="#8a8a8a" stroke-width="0.6"/><path d="M 37.5,32.0 Q 36.1,29.2 34.5,28.5" fill="none" stroke="#8a8a8a" stroke-width="0.6"/><path d="M 36.2,32.0 Q 34.8,29.2 33.3,28.5" fill="none" stroke="#8a8a8a" stroke-width="0.6"/>
<path d="M 56.0,32.0 Q 53.5,26.4 49.0,30.9" fill="none" stroke="#3f3f3f" stroke-width="1.0"/><path d="M 54.7,32.0 Q 53.3,29.2 51.8,28.5" fill="none" stroke="#8a8a8a" stroke-width="0.6"/><path d="M 53.5,32.0 Q 52.1,29.2 50.5,28.5" fill="none" stroke="#8a8a8a" stroke-width="0.6"/><path d="M 52.2,32.0 Q 50.8,29.2 49.3,28.5" fill="none" stroke="#8a8a8a" stroke-width="0.6"/>
<path d="M -2.0,43.0 Q -4.4,37.4 -9.0,42.0" fill="none" stroke="#3f3f3f" stroke-width="1.0"/><path d="M -3.3,43.0 Q -4.7,40.2 -6.2,39.5" fill="none" stroke="#8a8a8a" stroke-width="0.6"/><path d="M -4.5,43.0 Q -5.9,40.2 -7.5,39.5" fill="none" stroke="#8a8a8a" stroke-width="0.6"/><path d="M -5.8,43.0 Q -7.2,40.2 -8.7,39.5" fill="none" stroke="#8a8a8a" stroke-width="0.6"/>
<path d="M 14.0,43.0 Q 11.6,37.4 7.0,42.0" fill="none" stroke="#3f3f3f" stroke-width="1.0"/><path d="M 12.7,43.0 Q 11.3,40.2 9.8,39.5" fill="none" stroke="#8a8a8a" stroke-width="0.6"/><path d="M 11.5,43.0 Q 10.1,40.2 8.5,39.5" fill="none" stroke="#8a8a8a" stroke-width="0.6"/><path d="M 10.2,43.0 Q 8.8,40.2 7.3,39.5" fill="none" stroke="#8a8a8a" stroke-width="0.6"/>
<path d="M 30.0,43.0 Q 27.6,37.4 23.0,42.0" fill="none" stroke="#3f3f3f" stroke-width="1.0"/><path d="M 28.7,43.0 Q 27.3,40.2 25.8,39.5" fill="none" stroke="#8a8a8a" stroke-width="0.6"/><path d="M 27.5,43.0 Q 26.1,40.2 24.5,39.5" fill="none" stroke="#8a8a8a" stroke-width="0.6"/><path d="M 26.2,43.0 Q 24.8,40.2 23.3,39.5" fill="none" stroke="#8a8a8a" stroke-width="0.6"/>
<path d="M 46.0,43.0 Q 43.5,37.4 39.0,42.0" fill="none" stroke="#3f3f3f" stroke-width="1.0"/><path d="M 44.7,43.0 Q 43.3,40.2 41.8,39.5" fill="none" stroke="#8a8a8a" stroke-width="0.6"/><path d="M 43.5,43.0 Q 42.1,40.2 40.5,39.5" fill="none" stroke="#8a8a8a" stroke-width="0.6"/><path d="M 42.2,43.0 Q 40.8,40.2 39.3,39.5" fill="none" stroke="#8a8a8a" stroke-width="0.6"/>
<path d="M 62.0,43.0 Q 59.5,37.4 55.0,42.0" fill="none" stroke="#3f3f3f" stroke-width="1.0"/><path d="M 60.7,43.0 Q 59.3,40.2 57.8,39.5" fill="none" stroke="#8a8a8a" stroke-width="0.6"/><path d="M 59.5,43.0 Q 58.1,40.2 56.5,39.5" fill="none" stroke="#8a8a8a" stroke-width="0.6"/><path d="M 58.2,43.0 Q 56.8,40.2 55.3,39.5" fill="none" stroke="#8a8a8a" stroke-width="0.6"/>
<path d="M 4.0,54.0 Q 1.6,48.4 -3.0,53.0" fill="none" stroke="#3f3f3f" stroke-width="1.0"/><path d="M 2.7,54.0 Q 1.3,51.2 -0.2,50.5" fill="none" stroke="#8a8a8a" stroke-width="0.6"/><path d="M 1.5,54.0 Q 0.1,51.2 -1.5,50.5" fill="none" stroke="#8a8a8a" stroke-width="0.6"/><path d="M 0.2,54.0 Q -1.2,51.2 -2.7,50.5" fill="none" stroke="#8a8a8a" stroke-width="0.6"/>
<path d="M 20.0,54.0 Q 17.6,48.4 13.0,53.0" fill="none" stroke="#3f3f3f" stroke-width="1.0"/><path d="M 18.7,54.0 Q 17.3,51.2 15.8,50.5" fill="none" stroke="#8a8a8a" stroke-width="0.6"/><path d="M 17.5,54.0 Q 16.1,51.2 14.5,50.5" fill="none" stroke="#8a8a8a" stroke-width="0.6"/><path d="M 16.2,54.0 Q 14.8,51.2 13.3,50.5" fill="none" stroke="#8a8a8a" stroke-width="0.6"/>
<path d="M 36.0,54.0 Q 33.5,48.4 29.0,53.0" fill="none" stroke="#3f3f3f" stroke-width="1.0"/><path d="M 34.7,54.0 Q 33.3,51.2 31.8,50.5" fill="none" stroke="#8a8a8a" stroke-width="0.6"/><path d="M 33.5,54.0 Q 32.1,51.2 30.5,50.5" fill="none" stroke="#8a8a8a" stroke-width="0.6"/><path d="M 32.2,54.0 Q 30.8,51.2 29.3,50.5" fill="none" stroke="#8a8a8a" stroke-width="0.6"/>
<path d="M 52.0,54.0 Q 49.5,48.4 45.0,53.0" fill="none" stroke="#3f3f3f" stroke-width="1.0"/><path d="M 50.7,54.0 Q 49.3,51.2 47.8,50.5" fill="none" stroke="#8a8a8a" stroke-width="0.6"/><path d="M 49.5,54.0 Q 48.1,51.2 46.5,50.5" fill="none" stroke="#8a8a8a" stroke-width="0.6"/><path d="M 48.2,54.0 Q 46.8,51.2 45.3,50.5" fill="none" stroke="#8a8a8a" stroke-width="0.6"/></g></pattern></defs>
<rect width="120" height="120" fill="url(#pat_Sr)" stroke="black" stroke-width="1"/>
</svg>
