<svg xmlns="http://www.w3.org/2000/svg" width="120" height="120" viewBox="0 0 120 120">
<defs><clipPath id="clip64"><rect width="64" height="64"/></clipPath><pattern id="pat_Sx" patternUnits="userSpaceOnUse" width="64" height="64"><rect width="64" height="64" fill="white"/><g clip-path="url(#clip64)"><g transform="translate(-64 -64)"><circle cx="31.7" cy="9.6" r="0.70" fill="#9a9a9a"/>
<circle cx="56.3" cy="58.8" r="0.59" fill="#9a9a9a"/>
<circle cx="7.5" cy="13.3" r="0.61" fill="#9a9a9a"/>
<circle cx="7.6" cy="4.0" r="0.77" fill="#9a9a9a"/>
<circle cx="32.2" cy="38.5" r="0.81" fill="#9a9a9a"/>
<circle cx="50.6" cy="42.4" r="0.75" fill="#9a9a9a"/>
<circle cx="27.7" cy="54.7" r="0.78" fill="#9a9a9a"/>
<circle cx="53.5" cy="11.4" r="0.67" fill="#9a9a9a"/>
<circle cx="56.5" cy="62.5" r="0.69" fill="#9a9a9a"/>
<circle cx="35.8" cy="19.8" r="0.54" fill="#9a9a9a"/>
<circle cx="12.6" cy="22.5" r="0.52" fill="#9a9a9a"/>
<circle cx="39.2" cy="24.9" r="0.68" fill="#9a9a9a"/>
<circle cx="22.3" cy="7.8" r="0.78" fill="#9a9a9a"/>
<circle cx="22.6" cy="12.3" r="0.76" fill="#9a9a9a"/>
<circle cx="50.7" cy="2.5" r="0.56" fill="#9a9a9a"/>
<circle cx="13.5" cy="39.7" r="0.52" fill="#9a9a9a"/>
<circle cx="54.9" cy="0.6" r="0.62" fill="#9a9a9a"/>
<circle cx="2.1" cy="40.2" r="0.88" fill="#9a9a9a"/>
<circle cx="29.6" cy="42.9" r="0.84" fill="#9a9a9a"/>
<circle cx="58.5" cy="5.7" r="0.68" fill="#9a9a9a"/>
<circle cx="34.5" cy="62.4" r="0.79" fill="#9a9a9a"/>
<circle cx="56.0" cy="38.5" r="0.80" fill="#9a9a9a"/>
<circle cx="1.3" cy="56.4" r="0.89" fill="#9a9a9a"/>
<circle cx="55.4" cy="15.2" r="0.86" fill="#9a9a9a"/>
<circle cx="35.4" cy="16.0" r="0.69" fill="#9a9a9a"/>
<circle cx="57.9" cy="29.7" r="0.81" fill="#9a9a9a"/>
<circle cx="49.6" cy="23.2" r="0.66" fill="#9a9a9a"/>
<circle cx="14.5" cy="53.4" r="0.77" fill="#9a9a9a"/>
<circle cx="4.1" cy="13.0" r="0.88" fill="#9a9a9a"/>
<circle cx="31.6" cy="7.6" r="0.70" fill="#9a9a9a"/>
<circle cx="7.9" cy="14.7" r="0.82" fill="#9a9a9a"/>
<circle cx="40.9" cy="26.2" r="0.72" fill="#9a9a9a"/>
<circle cx="24.6" cy="45.8" r="0.58" fill="#9a9a9a"/>
<circle cx="61.3" cy="7.7" r="0.62" fill="#9a9a9a"/>
<circle cx="60.4" cy="60.4" r="0.58" fill="#9a9a9a"/>
<circle cx="60.6" cy="36.6" r="0.79" fill="#9a9a9a"/>
<circle cx="10.0" cy="24.6" r="0.64" fill="#9a9a9a"/>
<circle cx="44.1" cy="52.7" r="0.84" fill="#9a9a9a"/>
<circle cx="32.7" cy="1.7" r="0.85" fill="#9a9a9a"/>
<circle cx="54.4" cy="62.7" r="0.82" fill="#9a9a9a"/>
<circle cx="22.2" cy="50.3" r="0.64" fill="#9a9a9a"/>
<circle cx="35.4" cy="4.7" r="0.63" fill="#9a9a9a"/>
<circle cx="60.5" cy="42.2" r="0.85" fill="#9a9a9a"/>
<circle cx="60.2" cy="44.0" r="0.56" fill="#9a9a9a"/>
<circle cx="4.9" cy="45.6" r="0.83" fill="#9a9a9a"/>
<circle cx="13.5" cy="52.5" r="0.58" fill="#9a9a9a"/>
<circle cx="16.3" cy="56.7" r="0.78" fill="#9a9a9a"/>
<circle cx="62.4" cy="7.3" r="0.51" fill="#9a9a9a"/>
<circle cx="30.9" cy="59.7" r="0.55" fill="#9a9a9a"/>
<circle cx="3.2" cy="50.0" r="0.83" fill="#9a9a9a"/>
<circle cx="37.7" cy="58.4" r="0.65" fill="#9a9a9a"/>
<circle cx="48.5" cy="50.7" r="0.58" fill="#9a9a9a"/>
<circle cx="48.5" cy="22.8" r="0.56" fill="#9a9a9a"/>
<circle cx="22.7" cy="49.2" r="0.64" fill="#9a9a9a"/>
<circle cx="31.2" cy="26.2" r="0.72" fill="#9a9a9a"/></g>
<g transform="translate(-64 0)"><circle cx="31.7" cy="9.6" r="0.70" fill="#9a9a9a"/>
<circle cx="56.3" cy="58.8" r="0.59" fill="#9a9a9a"/>
<circle cx="7.5" cy="13.3" r="0.61" fill="#9a9a9a"/>
<circle cx="7.6" cy="4.0" r="0.77" fill="#9a9a9a"/>
<circle cx="32.2" cy="38.5" r="0.81" fill="#9a9a9a"/>
<circle cx="50.6" cy="42.4" r="0.75" fill="#9a9a9a"/>
<circle cx="27.7" cy="54.7" r="0.78" fill="#9a9a9a"/>
<circle cx="53.5" cy="11.4" r="0.67" fill="#9a9a9a"/>
<circle cx="56.5" cy="62.5" r="0.69" fill="#9a9a9a"/>
<circle cx="35.8" cy="19.8" r="0.54" fill="#9a9a9a"/>
<circle cx="12.6" cy="22.5" r="0.52" fill="#9a9a9a"/>
<circle cx="39.2" cy="24.9" r="0.68" fill="#9a9a9a"/>
<circle cx="22.3" cy="7.8" r="0.78" fill="#9a9a9a"/>
<circle cx="22.6" cy="12.3" r="0.76" fill="#9a9a9a"/>
<circle cx="50.7" cy="2.5" r="0.56" fill="#9a9a9a"/>
<circle cx="13.5" cy="39.7" r="0.52" fill="#9a9a9a"/>
<circle cx="54.9" cy="0.6" r="0.62" fill="#9a9a9a"/>
<circle cx="2.1" cy="40.2" r="0.88" fill="#9a9a9a"/>
<circle cx="29.6" cy="42.9" r="0.84" fill="#9a9a9a"/>
<circle cx="58.5" cy="5.7" r="0.68" fill="#9a9a9a"/>
<circle cx="34.5" cy="62.4" r="0.79" fill="#9a9a9a"/>
<circle cx="56.0" cy="38.5" r="0.80" fill="#9a9a9a"/>
<circle cx="1.3" cy="56.4" r="0.89" fill="#9a9a9a"/>
<circle cx="55.4" cy="15.2" r="0.86" fill="#9a9a9a"/>
<circle cx="35.4" cy="16.0" r="0.69" fill="#9a9a9a"/>
<circle cx="57.9" cy="29.7" r="0.81" fill="#9a9a9a"/>
<circle cx="49.6" cy="23.2" r="0.66" fill="#9a9a9a"/>
<circle cx="14.5" cy="53.4" r="0.77" fill="#9a9a9a"/>
<circle cx="4.1" cy="13.0" r="0.88" fill="#9a9a9a"/>
<circle cx="31.6" cy="7.6" r="0.70" fill="#9a9a9a"/>
<circle cx="7.9" cy="14.7" r="0.82" fill="#9a9a9a"/>
<circle cx="40.9" cy="26.2" r="0.72" fill="#9a9a9a"/>
<circle cx="24.6" cy="45.8" r="0.58" fill="#9a9a9a"/>
<circle cx="61.3" cy="7.7" r="0.62" fill="#9a9a9a"/>
<circle cx="60.4" cy="60.4" r="0.58" fill="#9a9a9a"/>
<circle cx="60.6" cy="36.6" r="0.79" fill="#9a9a9a"/>
<circle cx="10.0" cy="24.6" r="0.64" fill="#9a9a9a"/>
<circle cx="44.1" cy="52.7" r="0.84" fill="#9a9a9a"/>
<circle cx="32.7" cy="1.7" r="0.85" fill="#9a9a9a"/>
<circle cx="54.4" cy="62.7" r="0.82" fill="#9a9a9a"/>
<circle cx="22.2" cy="50.3" r="0.64" fill="#9a9a9a"/>
<circle cx="35.4" cy="4.7" r="0.63" fill="#9a9a9a"/>
<circle cx="60.5" cy="42.2" r="0.85" fill="#9a9a9a"/>
<circle cx="60.2" cy="44.0" r="0.56" fill="#9a9a9a"/>
<circle cx="4.9" cy="45.6" r="0.83" fill="#9a9a9a"/>
<circle cx="13.5" cy="52.5" r="0.58" fill="#9a9a9a"/>
<circle cx="16.3" cy="56.7" r="0.78" fill="#9a9a9a"/>
<circle cx="62.4" cy="7.3" r="0.51" fill="#9a9a9a"/>
<circle cx="30.9" cy="59.7" r="0.55" fill="#9a9a9a"/>
<circle cx="3.2" cy="50.0" r="0.83" fill="#9a9a9a"/>
<circle cx="37.7" cy="58.4" r="0.65" fill="#9a9a9a"/>
<circle cx="48.5" cy="50.7" r="0.58" fill="#9a9a9a"/>
<circle cx="48.5" cy="22.8" r="0.56" fill="#9a9a9a"/>
<circle cx="22.7" cy="49.2" r="0.64" fill="#9a9a9a"/>
<circle cx="31.2" cy="26.2" r="0.72" fill="#9a9a9a"/></g>
<g transform="translate(-64 64)"><circle cx="31.7" cy="9.6" r="0.70" fill="#9a9a9a"/>
<circle cx="56.3" cy="58.8" r="0.59" fill="#9a9a9a"/>
<circle cx="7.5" cy="13.3" r="0.61" fill="#9a9a9a"/>
<circle cx="7.6" cy="4.0" r="0.77" fill="#9a9a9a"/>
<circle cx="32.2" cy="38.5" r="0.81" fill="#9a9a9a"/>
<circle cx="50.6" cy="42.4" r="0.75" fill="#9a9a9a"/>
<circle cx="27.7" cy="54.7" r="0.78" fill="#9a9a9a"/>
<circle cx="53.5" cy="11.4" r="0.67" fill="#9a9a9a"/>
<circle cx="56.5" cy="62.5" r="0.69" fill="#9a9a9a"/>
<circle cx="35.8" cy="19.8" r="0.54" fill="#9a9a9a"/>
<circle cx="12.6" cy="22.5" r="0.52" fill="#9a9a9a"/>
<circle cx="39.2" cy="24.9" r="0.68" fill="#9a9a9a"/>
<circle cx="22.3" cy="7.8" r="0.78" fill="#9a9a9a"/>
<circle cx="22.6" cy="12.3" r="0.76" fill="#9a9a9a"/>
<circle cx="50.7" cy="2.5" r="0.56" fill="#9a9a9a"/>
<circle cx="13.5" cy="39.7" r="0.52" fill="#9a9a9a"/>
<circle cx="54.9" cy="0.6" r="0.62" fill="#9a9a9a"/>
<circle cx="2.1" cy="40.2" r="0.88" fill="#9a9a9a"/>
<circle cx="29.6" cy="42.9" r="0.84" fill="#9a9a9a"/>
<circle cx="58.5" cy="5.7" r="0.68" fill="#9a9a9a"/>
<circle cx="34.5" cy="62.4" r="0.79" fill="#9a9a9a"/>
<circle cx="56.0" cy="38.5" r="0.80" fill="#9a9a9a"/>
<circle cx="1.3" cy="56.4" r="0.89" fill="#9a9a9a"/>
<circle cx="55.4" cy="15.2" r="0.86" fill="#9a9a9a"/>
<circle cx="35.4" cy="16.0" r="0.69" fill="#9a9a9a"/>
<circle cx="57.9" cy="29.7" r="0.81" fill="#9a9a9a"/>
<circle cx="49.6" cy="23.2" r="0.66" fill="#9a9a9a"/>
<circle cx="14.5" cy="53.4" r="0.77" fill="#9a9a9a"/>
<circle cx="4.1" cy="13.0" r="0.88" fill="#9a9a9a"/>
<circle cx="31.6" cy="7.6" r="0.70" fill="#9a9a9a"/>
<circle cx="7.9" cy="14.7" r="0.82" fill="#9a9a9a"/>
<circle cx="40.9" cy="26.2" r="0.72" fill="#9a9a9a"/>
<circle cx="24.6" cy="45.8" r="0.58" fill="#9a9a9a"/>
<circle cx="61.3" cy="7.7" r="0.62" fill="#9a9a9a"/>
<circle cx="60.4" cy="60.4" r="0.58" fill="#9a9a9a"/>
<circle cx="60.6" cy="36.6" r="0.79" fill="#9a9a9a"/>
<circle cx="10.0" cy="24.6" r="0.64" fill="#9a9a9a"/>
<circle cx="44.1" cy="52.7" r="0.84" fill="#9a9a9a"/>
<circle cx="32.7" cy="1.7" r="0.85" fill="#9a9a9a"/>
<circle cx="54.4" cy="62.7" r="0.82" fill="#9a9a9a"/>
<circle cx="22.2" cy="50.3" r="0.64" fill="#9a9a9a"/>
<circle cx="35.4" cy="4.7" r="0.63" fill="#9a9a9a"/>
<circle cx="60.5" cy="42.2" r="0.85" fill="#9a9a9a"/>
<circle cx="60.2" cy="44.0" r="0.56" fill="#9a9a9a"/>
<circle cx="4.9" cy="45.6" r="0.83" fill="#9a9a9a"/>
<circle cx="13.5" cy="52.5" r="0.58" fill="#9a9a9a"/>
<circle cx="16.3" cy="56.7" r="0.78" fill="#9a9a9a"/>
<circle cx="62.4" cy="7.3" r="0.51" fill="#9a9a9a"/>
<circle cx="30.9" cy="59.7" r="0.55" fill="#9a9a9a"/>
<circle cx="3.2" cy="50.0" r="0.83" fill="#9a9a9a"/>
<circle cx="37.7" cy="58.4" r="0.65" fill="#9a9a9a"/>
<circle cx="48.5" cy="50.7" r="0.58" fill="#9a9a9a"/>
<circle cx="48.5" cy="22.8" r="0.56" fill="#9a9a9a"/>
<circle cx="22.7" cy="49.2" r="0.64" fill="#9a9a9a"/>
<circle cx="31.2" cy="26.2" r="0.72" fill="#9a9a9a"/></g>
<g transform="translate(0 -64)"><circle cx="31.7" cy="9.6" r="0.70" fill="#9a9a9a"/>
<circle cx="56.3" cy="58.8" r="0.59" fill="#9a9a9a"/>
<circle cx="7.5" cy="13.3" r="0.61" fill="#9a9a9a"/>
<circle cx="7.6" cy="4.0" r="0.77" fill="#9a9a9a"/>
<circle cx="32.2" cy="38.5" r="0.81" fill="#9a9a9a"/>
<circle cx="50.6" cy="42.4" r="0.75" fill="#9a9a9a"/>
<circle cx="27.7" cy="54.7" r="0.78" fill="#9a9a9a"/>
<circle cx="53.5" cy="11.4" r="0.67" fill="#9a9a9a"/>
<circle cx="56.5" cy="62.5" r="0.69" fill="#9a9a9a"/>
<circle cx="35.8" cy="19.8" r="0.54" fill="#9a9a9a"/>
<circle cx="12.6" cy="22.5" r="0.52" fill="#9a9a9a"/>
<circle cx="39.2" cy="24.9" r="0.68" fill="#9a9a9a"/>
<circle cx="22.3" cy="7.8" r="0.78" fill="#9a9a9a"/>
<circle cx="22.6" cy="12.3" r="0.76" fill="#9a9a9a"/>
<circle cx="50.7" cy="2.5" r="0.56" fill="#9a9a9a"/>
<circle cx="13.5" cy="39.7" r="0.52" fill="#9a9a9a"/>
<circle cx="54.9" cy="0.6" r="0.62" fill="#9a9a9a"/>
<circle cx="2.1" cy="40.2" r="0.88" fill="#9a9a9a"/>
<circle cx="29.6" cy="42.9" r="0.84" fill="#9a9a9a"/>
<circle cx="58.5" cy="5.7" r="0.68" fill="#9a9a9a"/>
<circle cx="34.5" cy="62.4" r="0.79" fill="#9a9a9a"/>
<circle cx="56.0" cy="38.5" r="0.80" fill="#9a9a9a"/>
<circle cx="1.3" cy="56.4" r="0.89" fill="#9a9a9a"/>
<circle cx="55.4" cy="15.2" r="0.86" fill="#9a9a9a"/>
<circle cx="35.4" cy="16.0" r="0.69" fill="#9a9a9a"/>
<circle cx="57.9" cy="29.7" r="0.81" fill="#9a9a9a"/>
<circle cx="49.6" cy="23.2" r="0.66" fill="#9a9a9a"/>
<circle cx="14.5" cy="53.4" r="0.77" fill="#9a9a9a"/>
<circle cx="4.1" cy="13.0" r="0.88" fill="#9a9a9a"/>
<circle cx="31.6" cy="7.6" r="0.70" fill="#9a9a9a"/>
<circle cx="7.9" cy="14.7" r="0.82" fill="#9a9a9a"/>
<circle cx="40.9" cy="26.2" r="0.72" fill="#9a9a9a"/>
<circle cx="24.6" cy="45.8" r="0.58" fill="#9a9a9a"/>
<circle cx="61.3" cy="7.7" r="0.62" fill="#9a9a9a"/>
<circle cx="60.4" cy="60.4" r="0.58" fill="#9a9a9a"/>
<circle cx="60.6" cy="36.6" r="0.79" fill="#9a9a9a"/>
<circle cx="10.0" cy="24.6" r="0.64" fill="#9a9a9a"/>
<circle cx="44.1" cy="52.7" r="0.84" fill="#9a9a9a"/>
<circle cx="32.7" cy="1.7" r="0.85" fill="#9a9a9a"/>
<circle cx="54.4" cy="62.7" r="0.82" fill="#9a9a9a"/>
<circle cx="22.2" cy="50.3" r="0.64" fill="#9a9a9a"/>
<circle cx="35.4" cy="4.7" r="0.63" fill="#9a9a9a"/>
<circle cx="60.5" cy="42.2" r="0.85" fill="#9a9a9a"/>
<circle cx="60.2" cy="44.0" r="0.56" fill="#9a9a9a"/>
<circle cx="4.9" cy="45.6" r="0.83" fill="#9a9a9a"/>
<circle cx="13.5" cy="52.5" r="0.58" fill="#9a9a9a"/>
<circle cx="16.3" cy="56.7" r="0.78" fill="#9a9a9a"/>
<circle cx="62.4" cy="7.3" r="0.51" fill="#9a9a9a"/>
<circle cx="30.9" cy="59.7" r="0.55" fill="#9a9a9a"/>
<circle cx="3.2" cy="50.0" r="0.83" fill="#9a9a9a"/>
<circle cx="37.7" cy="58.4" r="0.65" fill="#9a9a9a"/>
<circle cx="48.5" cy="50.7" r="0.58" fill="#9a9a9a"/>
<circle cx="48.5" cy="22.8" r="0.56" fill="#9a9a9a"/>
<circle cx="22.7" cy="49.2" r="0.64" fill="#9a9a9a"/>
<circle cx="31.2" cy="26.2" r="0.72" fill="#9a9a9a"/></g>
<g transform="translate(0 0)"><circle cx="31.7" cy="9.6" r="0.70" fill="#9a9a9a"/>
<circle cx="56.3" cy="58.8" r="0.59" fill="#9a9a9a"/>
<circle cx="7.5" cy="13.3" r="0.61" fill="#9a9a9a"/>
<circle cx="7.6" cy="4.0" r="0.77" fill="#9a9a9a"/>
<circle cx="32.2" cy="38.5" r="0.81" fill="#9a9a9a"/>
<circle cx="50.6" cy="42.4" r="0.75" fill="#9a9a9a"/>
<circle cx="27.7" cy="54.7" r="0.78" fill="#9a9a9a"/>
<circle cx="53.5" cy="11.4" r="0.67" fill="#9a9a9a"/>
<circle cx="56.5" cy="62.5" r="0.69" fill="#9a9a9a"/>
<circle cx="35.8" cy="19.8" r="0.54" fill="#9a9a9a"/>
<circle cx="12.6" cy="22.5" r="0.52" fill="#9a9a9a"/>
<circle cx="39.2" cy="24.9" r="0.68" fill="#9a9a9a"/>
<circle cx="22.3" cy="7.8" r="0.78" fill="#9a9a9a"/>
<circle cx="22.6" cy="12.3" r="0.76" fill="#9a9a9a"/>
<circle cx="50.7" cy="2.5" r="0.56" fill="#9a9a9a"/>
<circle cx="13.5" cy="39.7" r="0.52" fill="#9a9a9a"/>
<circle cx="54.9" cy="0.6" r="0.62" fill="#9a9a9a"/>
<circle cx="2.1" cy="40.2" r="0.88" fill="#9a9a9a"/>
<circle cx="29.6" cy="42.9" r="0.84" fill="#9a9a9a"/>
<circle cx="58.5" cy="5.7" r="0.68" fill="#9a9a9a"/>
<circle cx="34.5" cy="62.4" r="0.79" fill="#9a9a9a"/>
<circle cx="56.0" cy="38.5" r="0.80" fill="#9a9a9a"/>
<circle cx="1.3" cy="56.4" r="0.89" fill="#9a9a9a"/>
<circle cx="55.4" cy="15.2" r="0.86" fill="#9a9a9a"/>
<circle cx="35.4" cy="16.0" r="0.69" fill="#9a9a9a"/>
<circle cx="57.9" cy="29.7" r="0.81" fill="#9a9a9a"/>
<circle cx="49.6" cy="23.2" r="0.66" fill="#9a9a9a"/>
<circle cx="14.5" cy="53.4" r="0.77" fill="#9a9a9a"/>
<circle cx="4.1" cy="13.0" r="0.88" fill="#9a9a9a"/>
<circle cx="31.6" cy="7.6" r="0.70" fill="#9a9a9a"/>
<circle cx="7.9" cy="14.7" r="0.82" fill="#9a9a9a"/>
<circle cx="40.9" cy="26.2" r="0.72" fill="#9a9a9a"/>
<circle cx="24.6" cy="45.8" r="0.58" fill="#9a9a9a"/>
<circle cx="61.3" cy="7.7" r="0.62" fill="#9a9a9a"/>
<circle cx="60.4" cy="60.4" r="0.58" fill="#9a9a9a"/>
<circle cx="60.6" cy="36.6" r="0.79" fill="#9a9a9a"/>
<circle cx="10.0" cy="24.6" r="0.64" fill="#9a9a9a"/>
<circle cx="44.1" cy="52.7" r="0.84" fill="#9a9a9a"/>
<circle cx="32.7" cy="1.7" r="0.85" fill="#9a9a9a"/>
<circle cx="54.4" cy="62.7" r="0.82" fill="#9a9a9a"/>
<circle cx="22.2" cy="50.3" r="0.64" fill="#9a9a9a"/>
<circle cx="35.4" cy="4.7" r="0.63" fill="#9a9a9a"/>
<circle cx="60.5" cy="42.2" r="0.85" fill="#9a9a9a"/>
<circle cx="60.2" cy="44.0" r="0.56" fill="#9a9a9a"/>
<circle cx="4.9" cy="45.6" r="0.83" fill="#9a9a9a"/>
<circle cx="13.5" cy="52.5" r="0.58" fill="#9a9a9a"/>
<circle cx="16.3" cy="56.7" r="0.78" fill="#9a9a9a"/>
<circle cx="62.4" cy="7.3" r="0.51" fill="#9a9a9a"/>
<circle cx="30.9" cy="59.7" r="0.55" fill="#9a9a9a"/>
<circle cx="3.2" cy="50.0" r="0.83" fill="#9a9a9a"/>
<circle cx="37.7" cy="58.4" r="0.65" fill="#9a9a9a"/>
<circle cx="48.5" cy="50.7" r="0.58" fill="#9a9a9a"/>
<circle cx="48.5" cy="22.8" r="0.56" fill="#9a9a9a"/>
<circle cx="22.7" cy="49.2" r="0.64" fill="#9a9a9a"/>
<circle cx="31.2" cy="26.2" r="0.72" fill="#9a9a9a"/></g>
<g transform="translate(0 64)"><circle cx="31.7" cy="9.6" r="0.70" fill="#9a9a9a"/>
<circle cx="56.3" cy="58.8" r="0.59" fill="#9a9a9a"/>
<circle cx="7.5" cy="13.3" r="0.61" fill="#9a9a9a"/>
<circle cx="7.6" cy="4.0" r="0.77" fill="#9a9a9a"/>
<circle cx="32.2" cy="38.5" r="0.81" fill="#9a9a9a"/>
<circle cx="50.6" cy="42.4" r="0.75" fill="#9a9a9a"/>
<circle cx="27.7" cy="54.7" r="0.78" fill="#9a9a9a"/>
<circle cx="53.5" cy="11.4" r="0.67" fill="#9a9a9a"/>
<circle cx="56.5" cy="62.5" r="0.69" fill="#9a9a9a"/>
<circle cx="35.8" cy="19.8" r="0.54" fill="#9a9a9a"/>
<circle cx="12.6" cy="22.5" r="0.52" fill="#9a9a9a"/>
<circle cx="39.2" cy="24.9" r="0.68" fill="#9a9a9a"/>
<circle cx="22.3" cy="7.8" r="0.78" fill="#9a9a9a"/>
<circle cx="22.6" cy="12.3" r="0.76" fill="#9a9a9a"/>
<circle cx="50.7" cy="2.5" r="0.56" fill="#9a9a9a"/>
<circle cx="13.5" cy="39.7" r="0.52" fill="#9a9a9a"/>
<circle cx="54.9" cy="0.6" r="0.62" fill="#9a9a9a"/>
<circle cx="2.1" cy="40.2" r="0.88" fill="#9a9a9a"/>
<circle cx="29.6" cy="42.9" r="0.84" fill="#9a9a9a"/>
<circle cx="58.5" cy="5.7" r="0.68" fill="#9a9a9a"/>
<circle cx="34.5" cy="62.4" r="0.79" fill="#9a9a9a"/>
<circle cx="56.0" cy="38.5" r="0.80" fill="#9a9a9a"/>
<circle cx="1.3" cy="56.4" r="0.89" fill="#9a9a9a"/>
<circle cx="55.4" cy="15.2" r="0.86" fill="#9a9a9a"/>
<circle cx="35.4" cy="16.0" r="0.69" fill="#9a9a9a"/>
<circle cx="57.9" cy="29.7" r="0.81" fill="#9a9a9a"/>
<circle cx="49.6" cy="23.2" r="0.66" fill="#9a9a9a"/>
<circle cx="14.5" cy="53.4" r="0.77" fill="#9a9a9a"/>
<circle cx="4.1" cy="13.0" r="0.88" fill="#9a9a9a"/>
<circle cx="31.6" cy="7.6" r="0.70" fill="#9a9a9a"/>
<circle cx="7.9" cy="14.7" r="0.82" fill="#9a9a9a"/>
<circle cx="40.9" cy="26.2" r="0.72" fill="#9a9a9a"/>
<circle cx="24.6" cy="45.8" r="0.58" fill="#9a9a9a"/>
<circle cx="61.3" cy="7.7" r="0.62" fill="#9a9a9a"/>
<circle cx="60.4" cy="60.4" r="0.58" fill="#9a9a9a"/>
<circle cx="60.6" cy="36.6" r="0.79" fill="#9a9a9a"/>
<circle cx="10.0" cy="24.6" r="0.64" fill="#9a9a9a"/>
<circle cx="44.1" cy="52.7" r="0.84" fill="#9a9a9a"/>
<circle cx="32.7" cy="1.7" r="0.85" fill="#9a9a9a"/>
<circle cx="54.4" cy="62.7" r="0.82" fill="#9a9a9a"/>
<circle cx="22.2" cy="50.3" r="0.64" fill="#9a9a9a"/>
<circle cx="35.4" cy="4.7" r="0.63" fill="#9a9a9a"/>
<circle cx="60.5" cy="42.2" r="0.85" fill="#9a9a9a"/>
<circle cx="60.2" cy="44.0" r="0.56" fill="#9a9a9a"/>
<circle cx="4.9" cy="45.6" r="0.83" fill="#9a9a9a"/>
<circle cx="13.5" cy="52.5" r="0.58" fill="#9a9a9a"/>
<circle cx="16.3" cy="56.7" r="0.78" fill="#9a9a9a"/>
<circle cx="62.4" cy="7.3" r="0.51" fill="#9a9a9a"/>
<circle cx="30.9" cy="59.7" r="0.55" fill="#9a9a9a"/>
<circle cx="3.2" cy="50.0" r="0.83" fill="#9a9a9a"/>
<circle cx="37.7" cy="58.4" r="0.65" fill="#9a9a9a"/>
<circle cx="48.5" cy="50.7" r="0.58" fill="#9a9a9a"/>
<circle cx="48.5" cy="22.8" r="0.56" fill="#9a9a9a"/>
<circle cx="22.7" cy="49.2" r="0.64" fill="#9a9a9a"/>
<circle cx="31.2" cy="26.2" r="0.72" fill="#9a9a9a"/></g>
<g transform="translate(64 -64)"><circle cx="31.7" cy="9.6" r="0.70" fill="#9a9a9a"/>
<circle cx="56.3" cy="58.8" r="0.59" fill="#9a9a9a"/>
<circle cx="7.5" cy="13.3" r="0.61" fill="#9a9a9a"/>
<circle cx="7.6" cy="4.0" r="0.77" fill="#9a9a9a"/>
<circle cx="32.2" cy="38.5" r="0.81" fill="#9a9a9a"/>
<circle cx="50.6" cy="42.4" r="0.75" fill="#9a9a9a"/>
<circle cx="27.7" cy="54.7" r="0.78" fill="#9a9a9a"/>
<circle cx="53.5" cy="11.4" r="0.67" fill="#9a9a9a"/>
<circle cx="56.5" cy="62.5" r="0.69" fill="#9a9a9a"/>
<circle cx="35.8" cy="19.8" r="0.54" fill="#9a9a9a"/>
<circle cx="12.6" cy="22.5" r="0.52" fill="#9a9a9a"/>
<circle cx="39.2" cy="24.9" r="0.68" fill="#9a9a9a"/>
<circle cx="22.3" cy="7.8" r="0.78" fill="#9a9a9a"/>
<circle cx="22.6" cy="12.3" r="0.76" fill="#9a9a9a"/>
<circle cx="50.7" cy="2.5" r="0.56" fill="#9a9a9a"/>
<circle cx="13.5" cy="39.7" r="0.52" fill="#9a9a9a"/>
<circle cx="54.9" cy="0.6" r="0.62" fill="#9a9a9a"/>
<circle cx="2.1" cy="40.2" r="0.88" fill="#9a9a9a"/>
<circle cx="29.6" cy="42.9" r="0.84" fill="#9a9a9a"/>
<circle cx="58.5" cy="5.7" r="0.68" fill="#9a9a9a"/>
<circle cx="34.5" cy="62.4" r="0.79" fill="#9a9a9a"/>
<circle cx="56.0" cy="38.5" r="0.80" fill="#9a9a9a"/>
<circle cx="1.3" cy="56.4" r="0.89" fill="#9a9a9a"/>
<circle cx="55.4" cy="15.2" r="0.86" fill="#9a9a9a"/>
<circle cx="35.4" cy="16.0" r="0.69" fill="#9a9a9a"/>
<circle cx="57.9" cy="29.7" r="0.81" fill="#9a9a9a"/>
<circle cx="49.6" cy="23.2" r="0.66" fill="#9a9a9a"/>
<circle cx="14.5" cy="53.4" r="0.77" fill="#9a9a9a"/>
<circle cx="4.1" cy="13.0" r="0.88" fill="#9a9a9a"/>
<circle cx="31.6" cy="7.6" r="0.70" fill="#9a9a9a"/>
<circle cx="7.9" cy="14.7" r="0.82" fill="#9a9a9a"/>
<circle cx="40.9" cy="26.2" r="0.72" fill="#9a9a9a"/>
<circle cx="24.6" cy="45.8" r="0.58" fill="#9a9a9a"/>
<circle cx="61.3" cy="7.7" r="0.62" fill="#9a9a9a"/>
<circle cx="60.4" cy="60.4" r="0.58" fill="#9a9a9a"/>
<circle cx="60.6" cy="36.6" r="0.79" fill="#9a9a9a"/>
<circle cx="10.0" cy="24.6" r="0.64" fill="#9a9a9a"/>
<circle cx="44.1" cy="52.7" r="0.84" fill="#9a9a9a"/>
<circle cx="32.7" cy="1.7" r="0.85" fill="#9a9a9a"/>
<circle cx="54.4" cy="62.7" r="0.82" fill="#9a9a9a"/>
<circle cx="22.2" cy="50.3" r="0.64" fill="#9a9a9a"/>
<circle cx="35.4" cy="4.7" r="0.63" fill="#9a9a9a"/>
<circle cx="60.5" cy="42.2" r="0.85" fill="#9a9a9a"/>
<circle cx="60.2" cy="44.0" r="0.56" fill="#9a9a9a"/>
<circle cx="4.9" cy="45.6" r="0.83" fill="#9a9a9a"/>
<circle cx="13.5" cy="52.5" r="0.58" fill="#9a9a9a"/>
<circle cx="16.3" cy="56.7" r="0.78" fill="#9a9a9a"/>
<circle cx="62.4" cy="7.3" r="0.51" fill="#9a9a9a"/>
<circle cx="30.9" cy="59.7" r="0.55" fill="#9a9a9a"/>
<circle cx="3.2" cy="50.0" r="0.83" fill="#9a9a9a"/>
<circle cx="37.7" cy="58.4" r="0.65" fill="#9a9a9a"/>
<circle cx="48.5" cy="50.7" r="0.58" fill="#9a9a9a"/>
<circle cx="48.5" cy="22.8" r="0.56" fill="#9a9a9a"/>
<circle cx="22.7" cy="49.2" r="0.64" fill="#9a9a9a"/>
<circle cx="31.2" cy="26.2" r="0.72" fill="#9a9a9a"/></g>
<g transform="translate(64 0)"><circle cx="31.7" cy="9.6" r="0.70" fill="#9a9a9a"/>
<circle cx="56.3" cy="58.8" r="0.59" fill="#9a9a9a"/>
<circle cx="7.5" cy="13.3" r="0.61" fill="#9a9a9a"/>
<circle cx="7.6" cy="4.0" r="0.77" fill="#9a9a9a"/>
<circle cx="32.2" cy="38.5" r="0.81" fill="#9a9a9a"/>
<circle cx="50.6" cy="42.4" r="0.75" fill="#9a9a9a"/>
<circle cx="27.7" cy="54.7" r="0.78" fill="#9a9a9a"/>
<circle cx="53.5" cy="11.4" r="0.67" fill="#9a9a9a"/>
<circle cx="56.5" cy="62.5" r="0.69" fill="#9a9a9a"/>
<circle cx="35.8" cy="19.8" r="0.54" fill="#9a9a9a"/>
<circle cx="12.6" cy="22.5" r="0.52" fill="#9a9a9a"/>
<circle cx="39.2" cy="24.9" r="0.68" fill="#9a9a9a"/>
<circle cx="22.3" cy="7.8" r="0.78" fill="#9a9a9a"/>
<circle cx="22.6" cy="12.3" r="0.76" fill="#9a9a9a"/>
<circle cx="50.7" cy="2.5" r="0.56" fill="#9a9a9a"/>
<circle cx="13.5" cy="39.7" r="0.52" fill="#9a9a9a"/>
<circle cx="54.9" cy="0.6" r="0.62" fill="#9a9a9a"/>
<circle cx="2.1" cy="40.2" r="0.88" fill="#9a9a9a"/>
<circle cx="29.6" cy="42.9" r="0.84" fill="#9a9a9a"/>
<circle cx="58.5" cy="5.7" r="0.68" fill="#9a9a9a"/>
<circle cx="34.5" cy="62.4" r="0.79" fill="#9a9a9a"/>
<circle cx="56.0" cy="38.5" r="0.80" fill="#9a9a9a"/>
<circle cx="1.3" cy="56.4" r="0.89" fill="#9a9a9a"/>
<circle cx="55.4" cy="15.2" r="0.86" fill="#9a9a9a"/>
<circle cx="35.4" cy="16.0" r="0.69" fill="#9a9a9a"/>
<circle cx="57.9" cy="29.7" r="0.81" fill="#9a9a9a"/>
<circle cx="49.6" cy="23.2" r="0.66" fill="#9a9a9a"/>
<circle cx="14.5" cy="53.4" r="0.77" fill="#9a9a9a"/>
<circle cx="4.1" cy="13.0" r="0.88" fill="#9a9a9a"/>
<circle cx="31.6" cy="7.6" r="0.70" fill="#9a9a9a"/>
<circle cx="7.9" cy="14.7" r="0.82" fill="#9a9a9a"/>
<circle cx="40.9" cy="26.2" r="0.72" fill="#9a9a9a"/>
<circle cx="24.6" cy="45.8" r="0.58" fill="#9a9a9a"/>
<circle cx="61.3" cy="7.7" r="0.62" fill="#9a9a9a"/>
<circle cx="60.4" cy="60.4" r="0.58" fill="#9a9a9a"/>
<circle cx="60.6" cy="36.6" r="0.79" fill="#9a9a9a"/>
<circle cx="10.0" cy="24.6" r="0.64" fill="#9a9a9a"/>
<circle cx="44.1" cy="52.7" r="0.84" fill="#9a9a9a"/>
<circle cx="32.7" cy="1.7" r="0.85" fill="#9a9a9a"/>
<circle cx="54.4" cy="62.7" r="0.82" fill="#9a9a9a"/>
<circle cx="22.2" cy="50.3" r="0.64" fill="#9a9a9a"/>
<circle cx="35.4" cy="4.7" r="0.63" fill="#9a9a9a"/>
<circle cx="60.5" cy="42.2" r="0.85" fill="#9a9a9a"/>
<circle cx="60.2" cy="44.0" r="0.56" fill="#9a9a9a"/>
<circle cx="4.9" cy="45.6" r="0.83" fill="#9a9a9a"/>
<circle cx="13.5" cy="52.5" r="0.58" fill="#9a9a9a"/>
<circle cx="16.3" cy="56.7" r="0.78" fill="#9a9a9a"/>
<circle cx="62.4" cy="7.3" r="0.51" fill="#9a9a9a"/>
<circle cx="30.9" cy="59.7" r="0.55" fill="#9a9a9a"/>
<circle cx="3.2" cy="50.0" r="0.83" fill="#9a9a9a"/>
<circle cx="37.7" cy="58.4" r="0.65" fill="#9a9a9a"/>
<circle cx="48.5" cy="50.7" r="0.58" fill="#9a9a9a"/>
<circle cx="48.5" cy="22.8" r="0.56" fill="#9a9a9a"/>
<circle cx="22.7" cy="49.2" r="0.64" fill="#9a9a9a"/>
<circle cx="31.2" cy="26.2" r="0.72" fill="#9a9a9a"/></g>
<g transform="translate(64 64)"><circle cx="31.7" cy="9.6" r="0.70" fill="#9a9a9a"/>
<circle cx="56.3" cy="58.8" r="0.59" fill="#9a9a9a"/>
<circle cx="7.5" cy="13.3" r="0.61" fill="#9a9a9a"/>
<circle cx="7.6" cy="4.0" r="0.77" fill="#9a9a9a"/>
<circle cx="32.2" cy="38.5" r="0.81" fill="#9a9a9a"/>
<circle cx="50.6" cy="42.4" r="0.75" fill="#9a9a9a"/>
<circle cx="27.7" cy="54.7" r="0.78" fill="#9a9a9a"/>
<circle cx="53.5" cy="11.4" r="0.67" fill="#9a9a9a"/>
<circle cx="56.5" cy="62.5" r="0.69" fill="#9a9a9a"/>
<circle cx="35.8" cy="19.8" r="0.54" fill="#9a9a9a"/>
<circle cx="12.6" cy="22.5" r="0.52" fill="#9a9a9a"/>
<circle cx="39.2" cy="24.9" r="0.68" fill="#9a9a9a"/>
<circle cx="22.3" cy="7.8" r="0.78" fill="#9a9a9a"/>
<circle cx="22.6" cy="12.3" r="0.76" fill="#9a9a9a"/>
<circle cx="50.7" cy="2.5" r="0.56" fill="#9a9a9a"/>
<circle cx="13.5" cy="39.7" r="0.52" fill="#9a9a9a"/>
<circle cx="54.9" cy="0.6" r="0.62" fill="#9a9a9a"/>
<circle cx="2.1" cy="40.2" r="0.88" fill="#9a9a9a"/>
<circle cx="29.6" cy="42.9" r="0.84" fill="#9a9a9a"/>
<circle cx="58.5" cy="5.7" r="0.68" fill="#9a9a9a"/>
<circle cx="34.5" cy="62.4" r="0.79" fill="#9a9a9a"/>
<circle cx="56.0" cy="38.5" r="0.80" fill="#9a9a9a"/>
<circle cx="1.3" cy="56.4" r="0.89" fill="#9a9a9a"/>
<circle cx="55.4" cy="15.2" r="0.86" fill="#9a9a9a"/>
<circle cx="35.4" cy="16.0" r="0.69" fill="#9a9a9a"/>
<circle cx="57.9" cy="29.7" r="0.81" fill="#9a9a9a"/>
<circle cx="49.6" cy="23.2" r="0.66" fill="#9a9a9a"/>
<circle cx="14.5" cy="53.4" r="0.77" fill="#9a9a9a"/>
<circle cx="4.1" cy="13.0" r="0.88" fill="#9a9a9a"/>
<circle cx="31.6" cy="7.6" r="0.70" fill="#9a9a9a"/>
<circle cx="7.9" cy="14.7" r="0.82" fill="#9a9a9a"/>
<circle cx="40.9" cy="26.2" r="0.72" fill="#9a9a9a"/>
<circle cx="24.6" cy="45.8" r="0.58" fill="#9a9a9a"/>
<circle cx="61.3" cy="7.7" r="0.62" fill="#9a9a9a"/>
<circle cx="60.4" cy="60.4" r="0.58" fill="#9a9a9a"/>
<circle cx="60.6" cy="36.6" r="0.79" fill="#9a9a9a"/>
<circle cx="10.0" cy="24.6" r="0.64" fill="#9a9a9a"/>
<circle cx="44.1" cy="52.7" r="0.84" fill="#9a9a9a"/>
<circle cx="32.7" cy="1.7" r="0.85" fill="#9a9a9a"/>
<circle cx="54.4" cy="62.7" r="0.82" fill="#9a9a9a"/>
<circle cx="22.2" cy="50.3" r="0.64" fill="#9a9a9a"/>
<circle cx="35.4" cy="4.7" r="0.63" fill="#9a9a9a"/>
<circle cx="60.5" cy="42.2" r="0.85" fill="#9a9a9a"/>
<circle cx="60.2" cy="44.0" r="0.56" fill="#9a9a9a"/>
<circle cx="4.9" cy="45.6" r="0.83" fill="#9a9a9a"/>
<circle cx="13.5" cy="52.5" r="0.58" fill="#9a9a9a"/>
<circle cx="16.3" cy="56.7" r="0.78" fill="#9a9a9a"/>
<circle cx="62.4" cy="7.3" r="0.51" fill="#9a9a9a"/>
<circle cx="30.9" cy="59.7" r="0.55" fill="#9a9a9a"/>
<circle cx="3.2" cy="50.0" r="0.83" fill="#9a9a9a"/>
<circle cx="37.7" cy="58.4" r="0.65" fill="#9a9a9a"/>
<circle cx="48.5" cy="50.7" r="0.58" fill="#9a9a9a"/>
<circle cx="48.5" cy="22.8" r="0.56" fill="#9a9a9a"/>
<circle cx="22.7" cy="49.2" r="0.64" fill="#9a9a9a"/>
<circle cx="31.2" cy="26.2" r="0.72" fill="#9a9a9a"/></g>
<line x1="0" y1="6" x2="64" y2="6" stroke="#777" stroke-width="0.7"/>
<line x1="0" y1="13" x2="64" y2="13" stroke="#777" stroke-width="0.7"/>
<line x1="0" y1="20" x2="64" y2="20" stroke="#777" stroke-width="0.7"/>
<line x1="0" y1="27" x2="64" y2="27" stroke="#777" stroke-width="0.7"/>
<line x1="0" y1="34" x2="64" y2="34" stroke="#777" stroke-width="0.7"/>
<line x1="0" y1="41" x2="64" y2="41" stroke="#777" stroke-width="0.7"/>
<line x1="0" y1="48" x2="64" y2="48" stroke="#777" stroke-width="0.7"/>
<line x1="0" y1="55" x2="64" y2="55" stroke="#777" stroke-width="0.7"/>
<line x1="0" y1="62" x2="64" y2="62" stroke="#777" stroke-width="0.7"/>
<path d="M 47.7,19.9 Q 50.8,12.7 56.7,18.5" fill="none" stroke="#3f3f3f" stroke-width="1.0"/><path d="M 49.3,19.9 Q 51.1,16.3 53.1,15.4" fill="none" stroke="#8a8a8a" stroke-width="0.6"/><path d="M 50.9,19.9 Q 52.7,16.3 54.7,15.4" fill="none" stroke="#8a8a8a" stroke-width="0.6"/><path d="M 52.5,19.9 Q 54.3,16.3 56.3,15.4" fill="none" stroke="#8a8a8a" stroke-width="0.6"/>
<path d="M 14.2,36.7 Q 17.4,29.5 23.2,35.3" fill="none" stroke="#3f3f3f" stroke-width="1.0"/><path d="M 15.8,36.7 Q 17.6,33.1 19.6,32.2" fill="none" stroke="#8a8a8a" stroke-width="0.6"/><path d="M 17.5,36.7 Q 19.3,33.1 21.2,32.2" fill="none" stroke="#8a8a8a" stroke-width="0.6"/><path d="M 19.1,36.7 Q 20.9,33.1 22.9,32.2" fill="none" stroke="#8a8a8a" stroke-width="0.6"/>
<path d="M 48.5,9.1 Q 51.7,1.9 57.5,7.8" fill="none" stroke="#3f3f3f" stroke-width="1.0"/><path d="M 50.2,9.1 Q 52.0,5.5 53.9,4.6" fill="none" stroke="#8a8a8a" stroke-width="0.6"/><path d="M 51.8,9.1 Q 53.6,5.5 55.6,4.6" fill="none" stroke="#8a8a8a" stroke-width="0.6"/><path d="M 53.4,9.1 Q 55.2,5.5 57.2,4.6" fill="none" stroke="#8a8a8a" stroke-width="0.6"/>
<path d="M 50.5,17.9 Q 53.6,10.7 59.5,16.6" fill="none" stroke="#3f3f3f" stroke-width="1.0"/><path d="M 52.1,17.9 Q 53.9,14.3 55.9,13.4" fill="none" stroke="#8a8a8a" stroke-width="0.6"/><path d="M 53.7,17.9 Q 55.5,14.3 57.5,13.4" fill="none" stroke="#8a8a8a" stroke-width="0.6"/><path d="M 55.4,17.9 Q 57.2,14.3 59.1,13.4" fill="none" stroke="#8a8a8a" stroke-width="0.6"/>
<path d="M 28.6,34.8 Q 31.8,27.6 37.6,33.5" fill="none" stroke="#3f3f3f" stroke-width="1.0"/><path d="M 30.3,34.8 Q 32.1,31.2 34.0,30.3" fill="none" stroke="#8a8a8a" stroke-width="0.6"/><path d="M 31.9,34.8 Q 33.7,31.2 35.7,30.3" fill="none" stroke="#8a8a8a" stroke-width="0.6"/><path d="M 33.5,34.8 Q 35.3,31.2 37.3,30.3" fill="none" stroke="#8a8a8a" stroke-width="0.6"/>
<path d="M 37.4,43.4 Q 40.5,36.2 46.4,42.1" fill="none" stroke="#3f3f3f" stroke-width="1.0"/><path d="M 39.0,43.4 Q 40.8,39.8 42.8,38.9" fill="none" stroke="#8a8a8a" stroke-width="0.6"/><path d="M 40.6,43.4 Q 42.4,39.8 44.4,38.9" fill="none" stroke="#8a8a8a" stroke-width="0.6"/><path d="M 42.3,43.4 Q 44.1,39.8 46.0,38.9" fill="none" stroke="#8a8a8a" stroke-width="0.6"/></g></pattern></defs>
<rect width="120" height="120" fill="url(#pat_Sx)" stroke="black" stroke-width="1"/>
</svg>
