<svg xmlns="http://www.w3.org/2000/svg" width="120" height="120" viewBox="0 0 120 120">
<defs><clipPath id="clip64"><rect width="64" height="64"/></clipPath><pattern id="pat_Sx" patternUnits="userSpaceOnUse" width="64" height="64"><rect width="64" height="64" fill="white"/><g clip-path="url(#clip64)"><line x1="0" y1="6" x2="64" y2="6" stroke="#777" stroke-width="0.7"/>
<line x1="0" y1="13" x2="64" y2="13" stroke="#777" stroke-width="0.7"/>
<line x1="0" y1="20" x2="64" y2="20" stroke="#777" stroke-width="0.7"/>
<line x1="0" y1="27" x2="64" y2="27" stroke="#777" stroke-width="0.7"/>
<line x1="0" y1="34" x2="64" y2="34" stroke="#777" stroke-width="0.7"/>
<line x1="0" y1="41" x2="64" y2="41" stroke="#777" stroke-width="0.7"/>
<line x1="0" y1="48" x2="64" y2="48" stroke="#777" stroke-width="0.7"/>
<line x1="0" y1="55" x2="64" y2="55" stroke="#777" stroke-width="0.7"/>
<line x1="0" y1="62" x2="64" y2="62" stroke="#777" stroke-width="0.7"/>
<path d="M 47.7,19.9 Q 50.8,12.7 56.7,18.5" fill="none" stroke="#3f3f3f" stroke-width="1.0"/><path d="M 49.3,19.9 Q 51.1,16.3 53.1,15.4" fill="none" stroke="#8a8a8a" stroke-width="0.6"/><path d="M 50.9,19.9 Q 52.7,16.3 54.7,15.4" fill="none" stroke="#8a8a8a" stroke-width="0.6"/><path d="M 52.5,19.9 Q 54.3,16.3 56.3,15.4" fill="none" stroke="#8a8a8a" stroke-width="0.6"/>
<path d="M 14.2,36.7 Q 17.4,29.5 23.2,35.3" fill="none" stroke="#3f3f3f" stroke-width="1.0"/><path d="M 15.8,36.7 Q 17.6,33.1 19.6,32.2" fill="none" stroke="#8a8a8a" stroke-width="0.6"/><path d="M 17.5,36.7 Q 19.3,33.1 21.2,32.2" fill="none" stroke="#8a8a8a" stroke-width="0.6"/><path d="M 19.1,36.7 Q 20.9,33.1 22.9,32.2" fill="none" stroke="#8a8a8a" stroke-width="0.6"/>
<path d="M 48.5,9.1 Q 51.7,1.9 57.5,7.8" fill="none" stroke="#3f3f3f" stroke-width="1.0"/><path d="M 50.2,9.1 Q 52.0,5.5 53.9,4.6" fill="none" stroke="#8a8a8a" stroke-width="0.6"/><path d="M 51.8,9.1 Q 53.6,5.5 55.6,4.6" fill="none" stroke="#8a8a8a" stroke-width="0.6"/><path d="M 53.4,9.1 Q 55.2,5.5 57.2,4.6" fill="none" stroke="#8a8a8a" stroke-width="0.6"/>
<path d="M 50.5,17.9 Q 53.6,10.7 59.5,16.6" fill="none" stroke="#3f3f3f" stroke-width="1.0"/><path d="M 52.1,17.9 Q 53.9,14.3 55.9,13.4" fill="none" stroke="#8a8a8a" stroke-width="0.6"/><path d="M 53.7,17.9 Q 55.5,14.3 57.5,13.4" fill="none" stroke="#8a8a8a" stroke-width="0.6"/><path d="M 55.4,17.9 Q 57.2,14.3 59.1,13.4" fill="none" stroke="#8a8a8a" stroke-width="0.6"/>
<path d="M 28.6,34.8 Q 31.8,27.6 37.6,33.5" fill="none" stroke="#3f3f3f" stroke-width="1.0"/><path d="M 30.3,34.8 Q 32.1,31.2 34.0,30.3" fill="none" stroke="#8a8a8a" stroke-width="0.6"/><path d="M 31.9,34.8 Q 33.7,31.2 35.7,30.3" fill="none" stroke="#8a8a8a" stroke-width="0.6"/><path d="M 33.5,34.8 Q 35.3,31.2 37.3,30.3" fill="none" stroke="#8a8a8a" stroke-width="0.6"/>
<path d="M 37.4,43.4 Q 40.5,36.2 46.4,42.1" fill="none" stroke="#3f3f3f" stroke-width="1.0"/><path d="M 39.0,43.4 Q 40.8,39.8 42.8,38.9" fill="none" stroke="#8a8a8a" stroke-width="0.6"/><path d="M 40.6,43.4 Q 42.4,39.8 44.4,38.9" fill="none" stroke="#8a8a8a" stroke-width="0.6"/><path d="M 42.3,43.4 Q 44.1,39.8 46.0,38.9" fill="none" stroke="#8a8a8a" stroke-width="0.6"/></g></pattern></defs>
<rect width="120" height="120" fill="url(#pat_Sx)" stroke="black" stroke-width="1"/>
</svg>
