<svg xmlns="http://www.w3.org/2000/svg" width="120" height="120" viewBox="0 0 120 120">
<defs><clipPath id="clip64"><rect width="64" height="64"/></clipPath><pattern id="pat_Sx" patternUnits="userSpaceOnUse" width="64" height="64"><rect width="64" height="64" fill="white"/><g clip-path="url(#clip64)"><line x1="0" y1="6" x2="64" y2="6" stroke="#777" stroke-width="0.7"/>
<line x1="0" y1="13" x2="64" y2="13" stroke="#777" stroke-width="0.7"/>
<line x1="0" y1="20" x2="64" y2="20" stroke="#777" stroke-width="0.7"/>
<line x1="0" y1="27" x2="64" y2="27" stroke="#777" stroke-width="0.7"/>
<line x1="0" y1="34" x2="64" y2="34" stroke="#777" stroke-width="0.7"/>
<line x1="0" y1="41" x2="64" y2="41" stroke="#777" stroke-width="0.7"/>
<line x1="0" y1="48" x2="64" y2="48" stroke="#777" stroke-width="0.7"/>
<line x1="0" y1="55" x2="64" y2="55" stroke="#777" stroke-width="0.7"/>
<line x1="0" y1="62" x2="64" y2="62" stroke="#777" stroke-width="0.7"/>
<path d="M 47.7,19.9 Q 44.5,12.7 38.7,18.5" fill="none" stroke="#3f3f3f" stroke-width="1.0"/><path d="M 46.0,19.9 Q 44.2,16.3 42.3,15.4" fill="none" stroke="#8a8a8a" stroke-width="0.6"/><path d="M 44.4,19.9 Q 42.6,16.3 40.6,15.4" fill="none" stroke="#8a8a8a" stroke-width="0.6"/><path d="M 42.8,19.9 Q 41.0,16.3 39.0,15.4" fill="none" stroke="#8a8a8a" stroke-width="0.6"/>
<path d="M 14.2,36.7 Q 11.1,29.5 5.2,35.3" fill="none" stroke="#3f3f3f" stroke-width="1.0"/><path d="M 12.6,36.7 Q 10.8,33.1 8.8,32.2" fill="none" stroke="#8a8a8a" stroke-width="0.6"/><path d="M 11.0,36.7 Q 9.2,33.1 7.2,32.2" fill="none" stroke="#8a8a8a" stroke-width="0.6"/><path d="M 9.4,36.7 Q 7.6,33.1 5.6,32.2" fill="none" stroke="#8a8a8a" stroke-width="0.6"/>
<path d="M 48.5,9.1 Q 45.4,1.9 39.5,7.8" fill="none" stroke="#3f3f3f" stroke-width="1.0"/><path d="M 46.9,9.1 Q 45.1,5.5 43.1,4.6" fill="none" stroke="#8a8a8a" stroke-width="0.6"/><path d="M 45.3,9.1 Q 43.5,5.5 41.5,4.6" fill="none" stroke="#8a8a8a" stroke-width="0.6"/><path d="M 43.7,9.1 Q 41.9,5.5 39.9,4.6" fill="none" stroke="#8a8a8a" stroke-width="0.6"/>
<path d="M 50.5,17.9 Q 47.3,10.7 41.5,16.6" fill="none" stroke="#3f3f3f" stroke-width="1.0"/><path d="M 48.9,17.9 Q 47.1,14.3 45.1,13.4" fill="none" stroke="#8a8a8a" stroke-width="0.6"/><path d="M 47.3,17.9 Q 45.5,14.3 43.5,13.4" fill="none" stroke="#8a8a8a" stroke-width="0.6"/><path d="M 45.6,17.9 Q 43.8,14.3 41.9,13.4" fill="none" stroke="#8a8a8a" stroke-width="0.6"/>
<path d="M 28.6,34.8 Q 25.5,27.6 19.6,33.5" fill="none" stroke="#3f3f3f" stroke-width="1.0"/><path d="M 27.0,34.8 Q 25.2,31.2 23.2,30.3" fill="none" stroke="#8a8a8a" stroke-width="0.6"/><path d="M 25.4,34.8 Q 23.6,31.2 21.6,30.3" fill="none" stroke="#8a8a8a" stroke-width="0.6"/><path d="M 23.8,34.8 Q 22.0,31.2 20.0,30.3" fill="none" stroke="#8a8a8a" stroke-width="0.6"/>
<path d="M 37.4,43.4 Q 34.2,36.2 28.4,42.1" fill="none" stroke="#3f3f3f" stroke-width="1.0"/><path d="M 35.8,43.4 Q 34.0,39.8 32.0,38.9" fill="none" stroke="#8a8a8a" stroke-width="0.6"/><path d="M 34.2,43.4 Q 32.4,39.8 30.4,38.9" fill="none" stroke="#8a8a8a" stroke-width="0.6"/><path d="M 32.5,43.4 Q 30.7,39.8 28.8,38.9" fill="none" stroke="#8a8a8a" stroke-width="0.6"/></g></pattern></defs>
<rect width="120" height="120" fill="url(#pat_Sx)" stroke="black" stroke-width="1"/>
</svg>
